<?xml version="1.0" encoding="UTF-8" standalone="no"?>
<svg
   id="Layer_1"
   viewBox="0 0 4.0036792 4.0036792"
   width="100"
   height="12.211222"
   version="1.1"
   xmlns="http://www.w3.org/2000/svg"
   xmlns:svg="http://www.w3.org/2000/svg">
  <defs
     id="defs3" />
  <style
     id="style1">.st0{fill:#a09d9e}.st1{fill:#231f20}.st2{fill:#cf181f}</style>
  <path
     class="st0"
     d="m 3.3138571,3.5911379 c 0,0.040578 -0.04058,0.081156 -0.08116,0.081156 h -1.474328 c -0.04058,0 -0.08116,-0.040578 -0.08116,-0.081156 V 2.5225884 c 0,-0.040578 0.04058,-0.081156 0.08116,-0.081156 h 1.474328 c 0.04058,0 0.08116,0.040578 0.08116,0.081156 z m -0.06763,-1.4743277 h -1.50138 c -0.216415,0 -0.392252,0.1758372 -0.392252,0.3922523 V 3.577612 c 0,0.2164151 0.175837,0.3922524 0.392252,0.3922524 h 1.50138 c 0.216415,0 0.392252,-0.1758373 0.392252,-0.3922524 V 2.5090624 c 0,-0.2164151 -0.175837,-0.3922523 -0.392252,-0.3922523 M -14.039934,0.52074886 V 1.900395 h -0.35167 V 0.03381491 h 0.29757 l 1.4067,1.36612019 V 0.03381491 h 0.33815 V 1.900395 h -0.27052 l -1.42023,-1.37964614 m 0,0 V 1.900395 h -0.35167 V 0.03381491 h 0.29757 l 1.4067,1.36612019 V 0.03381491 h 0.33815 V 1.900395 h -0.27052 l -1.42023,-1.37964614"
     id="path1"
     style="stroke-width:0.135259" />
  <path
     class="st1"
     d="M -14.039934,0.51398589 V 1.893632 h -0.35167 V 0.02705194 h 0.29757 l 1.4067,1.36612016 V 0.02705194 h 0.33815 V 1.893632 h -0.27052 z m 3.47617,0 V 1.893632 h -0.35167 V 0.02705194 h 0.29757 L -9.2111639,1.3931721 V 0.02705194 h 0.33815 V 1.893632 h -0.27052 z m 7.1822801,0 V 1.893632 h -0.351674 V 0.02705194 h 0.29757 l 1.406698,1.36612016 V 0.02705194 h 0.338149 V 1.893632 h -0.270519 z M -11.524104,0.02705194 h 0.0676 V 1.893632 h -0.35167 V 0.02705194 Z m 5.0046011,0 h 0.06763 v 0.32462263 h -0.838608 V 1.893632 h -0.365201 V 0.35167457 h -0.838612 V 0.02705194 Z m 2.204729,0 h 0.06763 v 0.32462263 h -1.474328 V 0.7709788 h 1.149705 v 0.3246226 h -1.149705 v 0.4869339 h 1.474328 V 1.907158 h -1.826003 V 0.04057788 h 1.758373 z m 4.544716,1.54195746 h -1.055023 V 0.35167457 h 1.068549 c 0.338149,0 0.446356,0.32462263 0.446356,0.60866744 0,0.28404479 -0.121733,0.60866739 -0.459882,0.60866739 M 0.8115581,0.2975708 C 0.6762981,0.12173354 0.4734091,0.02705194 0.2299421,0.02705194 h -1.379645 V 1.893632 h 1.379645 c 0.243467,0 0.446356,-0.094682 0.581616,-0.2705188 0.121733,-0.1623114 0.189363,-0.3922524 0.189363,-0.66277119 0,-0.27051886 -0.06763,-0.5004599 -0.189363,-0.66277121 m 2.502299,1.2038089 c 0,0.040578 -0.04058,0.081156 -0.08116,0.081156 h -1.474328 c -0.04058,0 -0.08116,-0.040578 -0.08116,-0.081156 V 0.43283023 c 0,-0.0405778 0.04058,-0.0811557 0.08116,-0.0811557 h 1.474328 c 0.04058,0 0.08116,0.0405778 0.08116,0.0811557 z m -0.06763,-1.47432776 h -1.50138 c -0.216415,0 -0.392252,0.17583726 -0.392252,0.39225234 V 1.5013797 c 0,0.2164151 0.175837,0.3922523 0.392252,0.3922523 h 1.50138 c 0.216415,0 0.392252,-0.1758372 0.392252,-0.3922523 V 0.41930428 c 0,-0.21641508 -0.175837,-0.39225234 -0.392252,-0.39225234 M 14.472759,3.2056485 c 0.351675,0.1352594 1.109127,0.256993 1.704269,0.256993 0.649245,0 0.919764,-0.2164151 0.919764,-0.5004599 0,-0.2434669 -0.243467,-0.3922523 -0.960342,-0.6627712 -0.960342,-0.3516746 -1.650165,-0.6357193 -1.650165,-1.2579128 0,-0.6492452 0.838609,-1.02797161 2.123573,-1.02797161 0.689823,0 0.919764,0.04057783 1.36612,0.12173349 v 0.62219338 c -0.43283,-0.0811557 -0.811556,-0.21641509 -1.406698,-0.21641509 -0.635719,0 -0.906238,0.20288915 -0.906238,0.40577829 0,0.29757074 0.419304,0.44635604 1.149705,0.70334904 1.014446,0.3652004 1.582536,0.6492452 1.582536,1.2579127 0,0.6357193 -0.703349,1.0820754 -2.312937,1.0820754 -0.649245,0 -1.109127,-0.040578 -1.609587,-0.1217335 z M 11.077748,0.55456371 H 10.320295 V 3.4355895 h 0.757453 c 1.163231,0 1.907158,-0.5004599 1.907158,-1.4337499 0,-0.9332901 -0.730401,-1.44727589 -1.907158,-1.44727589 M 13.120165,3.7061085 C 12.741439,3.8819458 12.03809,3.9901532 11.415897,3.9901532 H 9.0353311 V 0.02705194 h 2.3805659 c 0.622193,0 1.339068,0.10820754 1.717794,0.2840448 0.919764,0.41930423 1.217335,1.06854946 1.217335,1.70426876 0,0.6221934 -0.297571,1.2849646 -1.217335,1.7042688"
     id="path2"
     style="stroke-width:0.135259" />
  <path
     class="st2"
     d="m 7.3581141,1.8124764 c 0,0 1.109127,-0.1758373 1.109127,-0.86566034 C 8.4672411,0.27051891 7.2904841,5e-8 6.0325711,5e-8 c -1.136179,0 -1.880106,0.13525943 -1.880106,0.13525943 v 0.60866744 c 0.513986,-0.12173349 1.00092,-0.22994103 1.677217,-0.22994103 0.716875,0 1.271439,0.21641508 1.271439,0.51398581 0,0.3652004 -0.541038,0.5816155 -1.717795,0.5816155 h -0.541038 v 0.5545637 h 0.50046 c 1.230861,0 1.93421,0.1893632 1.93421,0.6357193 0,0.4057783 -0.622193,0.6492453 -1.406698,0.6492453 -0.676297,0 -1.298491,-0.1487854 -1.812476,-0.2840447 V 3.827842 c 0.243467,0.040578 0.892712,0.1758371 2.082995,0.1758371 1.325542,0 2.488773,-0.43283 2.488773,-1.176757 0,-0.6357193 -0.79803,-1.0009198 -1.271438,-1.0144457"
     id="path3"
     style="stroke-width:0.135259" />
</svg>
