<?xml version="1.0" encoding="UTF-8" standalone="no"?>
<!-- Created with Inkscape (http://www.inkscape.org/) -->

<svg
   width="100"
   height="100"
   viewBox="0 0 100 100"
   version="1.1"
   id="svg1"
   xml:space="preserve"
   xmlns="http://www.w3.org/2000/svg"
   xmlns:svg="http://www.w3.org/2000/svg"><defs
     id="defs1" /><g
     id="layer1"><g
       id="g1"
       transform="matrix(0.1,0,0,0.14637536,0,41.34402)"><path
         d="m 975.74,102.35 h 3.79 v 11.373 h 2.274 V 102.35 h 3.791 v -2.274 h -9.856 z m 24.26,-2.274 h -3.033 l -1.516,5.307 c -0.758,1.516 -0.758,3.032 -1.516,4.549 0,-1.517 -0.758,-3.033 -1.516,-4.55 l -1.517,-5.306 h -3.032 l -0.759,12.888 h 2.275 V 102.35 c 0,1.517 0.758,3.033 1.516,5.307 l 1.516,5.307 h 1.517 l 1.516,-5.307 c 0.758,-1.516 1.516,-3.032 1.516,-5.307 v 10.614 h 2.275 z"
         style="stroke-width:7.5815"
         id="path1" /><path
         fill="#8c8c8c"
         d="m 520.85,62.926 h -44.732 c -6.065,0 -11.372,5.308 -11.372,11.373 v 31.842 c 0,6.065 5.307,11.372 11.372,11.372 h 44.731 c 6.065,0 11.372,-5.307 11.372,-11.372 V 74.299 c 0.759,-6.065 -4.549,-11.373 -11.372,-11.373 m 2.275,43.215 q 0,2.274 -2.275,2.274 h -43.973 q -2.274,0 -2.274,-2.274 V 74.299 q 0,-2.275 2.274,-2.275 h 43.973 q 2.275,0 2.275,2.275 z"
         style="stroke-width:7.5815"
         id="path2" /><path
         d="m 174.375,10.614 h 24.26 v 45.49 h 10.614 V 10.614 H 233.51 V 0.758 H 174.375 Z M 152.388,40.94 110.69,0.758 h -8.34 v 55.345 h 9.856 v -40.94 l 41.698,40.94 h 8.34 V 0.758 h -9.856 z M 75.815,56.103 H 86.429 V 0.758 H 75.815 Z M 50.038,40.94 9.098,0.758 H 0 v 55.345 h 9.856 v -40.94 l 41.698,40.94 h 8.34 V 0.758 H 50.038 Z M 245.64,56.103 h 53.828 V 46.247 H 255.496 V 32.6 h 34.116 v -9.855 h -34.116 v -12.13 h 43.972 V 0.757 H 245.64 Z M 364.67,40.94 322.971,0.758 h -9.098 v 55.345 h 9.856 v -40.94 l 41.698,40.94 h 8.34 V 0.758 h -9.856 V 40.94 Z m 557.24,7.582 c -21.987,-7.582 -34.117,-12.13 -34.117,-21.229 0,-6.065 8.34,-12.13 26.535,-12.13 17.437,0 28.81,3.79 41.698,6.823 V 3.791 C 943.14,1.516 936.315,0 915.845,0 c -37.907,0 -62.926,11.372 -62.926,30.326 0,18.196 20.47,26.535 49.28,37.15 21.228,7.58 28.81,12.13 28.81,19.711 0,8.34 -7.582,15.163 -27.294,15.163 -17.438,0 -39.424,-3.032 -50.796,-7.581 v 19.712 c 15.163,2.274 28.051,3.79 47.763,3.79 47.006,0 68.234,-13.646 68.234,-31.842 0,-18.954 -16.68,-27.293 -47.005,-37.907 M 812.737,9.098 C 801.365,3.79 780.895,0.758 761.94,0.758 h -70.508 v 117.513 h 70.508 c 18.195,0 39.424,-3.032 50.796,-8.34 27.293,-12.13 35.633,-31.842 35.633,-50.037 0.758,-18.954 -8.34,-38.666 -35.633,-50.796 m -59.894,92.494 H 730.1 V 16.68 h 22.744 c 34.875,0 56.103,15.163 56.103,42.457 0,28.051 -21.986,42.456 -56.103,42.456 M 431.387,0.758 h -40.94 v 55.345 h 40.94 c 6.824,0 12.889,-3.032 17.438,-8.34 3.79,-4.548 6.065,-11.372 6.065,-19.711 0,-7.582 -2.274,-14.405 -6.065,-19.712 -4.549,-4.55 -9.856,-7.582 -17.438,-7.582 m 0.759,45.49 H 401.06 V 10.613 h 31.085 c 9.856,0 13.646,9.856 13.646,18.196 -0.758,8.34 -4.549,17.437 -13.646,17.437 M 520.849,0.758 h -44.73 c -6.066,0 -11.373,5.307 -11.373,11.372 v 31.843 c 0,6.065 5.307,11.372 11.372,11.372 h 44.731 c 6.065,0 11.372,-5.307 11.372,-11.372 V 12.889 C 532.98,6.065 527.672,0.759 520.849,0.759 m 2.275,43.972 q 0,2.274 -2.275,2.274 h -43.973 q -2.274,0 -2.274,-2.274 V 12.889 q 0,-2.275 2.274,-2.275 h 43.973 q 2.275,0 2.275,2.275 z"
         style="stroke-width:7.5815"
         id="path3" /><path
         fill="#ce181e"
         d="m 642.911,53.829 c 0,0 32.6,-5.307 32.6,-25.777 C 675.512,8.34 640.638,0 603.488,0 570.13,0 548.144,3.79 548.144,3.79 v 18.196 c 15.163,-3.79 29.567,-6.823 49.28,-6.823 21.227,0 37.149,6.065 37.149,15.163 0,10.614 -15.922,16.68 -50.796,16.68 h -15.163 v 16.679 h 15.163 c 36.39,0 56.86,5.307 56.86,18.953 0,12.13 -18.195,18.954 -41.697,18.954 -20.47,0 -38.666,-4.549 -53.07,-8.34 v 19.712 c 7.58,1.517 26.534,5.307 61.41,5.307 39.423,0 73.54,-12.888 73.54,-34.874 0,-18.954 -24.261,-29.568 -37.908,-29.568"
         style="stroke-width:7.5815"
         id="path4" /></g></g></svg>
