<?xml version="1.0" encoding="UTF-8" standalone="no"?>
<!-- Created with Inkscape (http://www.inkscape.org/) -->

<svg
   width="100"
   height="100"
   viewBox="0 0 100 100"
   version="1.1"
   id="svg1"
   xml:space="preserve"
   xmlns="http://www.w3.org/2000/svg"
   xmlns:svg="http://www.w3.org/2000/svg"><defs
     id="defs1" /><g
     id="layer1"><g
       fill-rule="evenodd"
       clip-rule="evenodd"
       id="g2"
       transform="matrix(0.1,0,0,0.1,0,34.759898)"><path
         fill="#f1f1f2"
         d="m 602.763,171.078 c 12.02,5.336 19.134,15.564 16.014,22.69 q -2.01,3.333 -6.665,5.33 h -13.798 a 23.1,23.1 0 0 1 -7.12,-2.67 c -12.008,-5.33 -19.122,-15.122 -16.014,-22.236 3.12,-7.127 15.576,-8.45 27.583,-3.114 M 486.663,54.536 c 39.142,16.912 76.51,35.59 110.765,55.166 H 570.294 A 811,811 0 0 0 486.664,67.89 C 363,16.281 262.466,12.287 262.466,58.985 c 0,12.007 6.67,26.248 18.684,41.375 H 244.674 C 220.654,75.897 206.862,53.2 206.862,35.408 c 0,-53.825 125.435,-45.369 279.802,19.128 m 245.541,154.36 c 21.355,22.69 33.811,43.59 33.811,60.496 0,53.825 -125.884,45.375 -279.352,-19.127 -30.248,-12.893 -59.61,-26.691 -86.744,-41.37 h 27.577 a 724,724 0 0 0 59.16,27.584 c 122.777,51.597 223.313,56.047 223.313,9.342 0,-10.671 -5.336,-23.133 -15.127,-36.925 z"
         id="path1" /><path
         fill="#3c94d3"
         d="m 969.309,179.534 v 8.45 h 2.67 q 2.666,0.006 4.001,-1.342 a 3,3 0 0 0 1.779,-2.665 c 0,-1.778 -0.893,-2.67 -1.779,-3.114 -0.892,-0.892 -2.215,-1.335 -4.45,-1.335 z m -8.444,-4.899 h 12.007 c 4.45,0 7.558,0.443 9.785,2.222 2.216,1.335 3.558,3.557 3.558,6.228 0,2.215 -0.45,4 -1.779,5.336 -1.342,1.335 -2.67,2.221 -4.899,3.12 l 7.12,13.336 h -9.335 l -5.791,-12.013 h -2.216 v 12.013 h -8.45 z m 11.552,-7.114 c 3.12,0 6.228,0.443 8.899,1.779 2.671,1.336 5.335,2.67 7.57,4.892 1.778,2.222 3.557,4.893 4.45,7.564 1.328,2.67 1.778,5.33 1.778,8.45 0,3.12 -0.45,6.228 -1.779,8.898 a 15.85,15.85 0 0 1 -4.899,7.121 c -2.215,2.222 -4.45,4.006 -7.557,4.893 -2.671,1.335 -5.336,1.778 -8.456,1.778 -3.108,0 -5.779,-0.437 -8.887,-1.778 -2.67,-1.336 -5.335,-3.114 -7.12,-4.893 -2.228,-2.222 -4.013,-4.893 -4.899,-7.564 -1.33,-2.67 -1.778,-5.329 -1.778,-8.45 0,-3.113 0.449,-5.778 1.778,-8.892 1.342,-2.671 2.671,-5.342 4.899,-7.564 2.215,-1.778 4.886,-3.557 7.557,-4.45 2.665,-1.34 5.336,-1.784 8.444,-1.784 m 0,-4.893 c 4.012,0 7.57,0.443 11.127,1.779 3.107,1.779 6.228,3.557 8.899,6.228 2.671,2.671 4.45,5.785 5.778,8.9 1.342,3.556 1.779,7.113 1.779,10.67 0,4.007 -0.437,7.57 -1.779,10.678 a 21.47,21.47 0 0 1 -6.228,8.9 c -2.67,2.67 -5.778,4.892 -8.899,6.227 -3.557,1.336 -7.12,1.779 -10.677,1.779 -3.545,0 -7.12,-0.437 -10.665,-1.779 -3.12,-1.778 -6.228,-3.557 -8.9,-6.671 -2.67,-2.67 -4.449,-5.336 -6.228,-8.893 -1.341,-3.12 -1.778,-6.67 -1.778,-10.234 0,-3.557 0.437,-7.115 2.215,-10.672 1.342,-3.57 3.557,-6.677 6.228,-9.348 a 23.7,23.7 0 0 1 8.9,-5.785 c 3.113,-1.336 6.683,-1.779 10.228,-1.779 m -322.5,-40.925 h 84.516 c 23.57,0 21.355,14.684 17.342,29.798 -4.45,15.564 -8.45,31.59 -12.893,47.597 h -41.368 c 4.45,-16.007 9.785,-36.919 14.234,-52.483 1.779,-7.127 1.33,-10.234 -6.228,-10.234 h -18.235 c -5.79,20.456 -11.57,41.811 -17.355,62.717 h -41.368 c 3.108,-10.228 5.779,-20.013 8.45,-30.248 2.671,-10.235 5.79,-22.241 24.912,-22.241 2.67,-10.228 -8.007,-10.228 -16.013,-10.228 z m -414.142,62.28 c -3.114,10.223 -3.557,15.115 -12.457,15.115 h -82.737 c -11.57,0 -15.57,-7.55 -12.9,-16.007 1.336,-4.892 2.672,-10.671 4.007,-15.57 3.114,-12.013 4.45,-20.906 16.014,-20.906 h 56.495 c 0.443,-1.335 0.893,-3.114 1.33,-4.45 0.892,-3.557 0.449,-5.778 -4.893,-5.778 h -52.932 c -4.9,0 -4.9,-4.007 -3.558,-8.007 1.33,-3.557 3.558,-6.67 7.115,-6.67 h 81.85 c 11.57,0 16.464,10.234 13.793,19.57 a 5173,5173 0 0 0 -11.127,42.697 m -39.59,-6.677 c 0.892,-2.671 2.664,-12.456 3.557,-15.127 h -25.356 c -0.443,3.12 -3.114,12.456 -4.006,15.57 -1.33,4.893 2.228,4.893 8.45,4.893 h 8.006 c 4.007,0.006 8.013,0.006 9.349,-5.336 m 572.06,-40.926 a 1554,1554 0 0 1 -11.57,42.705 c -2.229,9.342 1.329,20.013 13.785,20.013 h 81.408 c 9.785,0 12.893,-11.564 14.235,-16.007 H 804.27 c -5.779,0 -6.228,-3.114 -4.886,-8.45 0.437,-1.335 1.329,-4.45 1.329,-5.785 h 57.382 c 11.57,0 13.348,-5.785 16.456,-17.349 1.342,-4.892 2.671,-10.234 4.013,-15.12 2.67,-8.45 -3.12,-14.684 -13.798,-14.684 h -76.51 c -8.443,0 -16.905,4.45 -20.013,14.677 m 40.027,5.785 c 1.342,-5.778 5.791,-5.778 10.241,-5.778 h 8.45 c 6.677,0 10.24,0 8.899,5.335 -0.437,2.222 -0.893,4.45 -1.779,6.678 -0.437,2.658 0,3.107 -3.108,3.107 h -22.697 c -2.67,0 -2.67,0.444 -1.778,-2.221 0.443,-2.671 1.335,-4.893 1.772,-7.114 m -340.734,-5.785 c 2.664,-10.235 11.12,-14.684 20.02,-14.684 h 76.06 c 10.677,0 16.013,6.228 13.797,14.684 -1.342,4.886 -2.67,10.234 -4.013,15.12 -3.107,11.57 -4.886,17.35 -16.456,17.35 h -56.939 c -0.443,1.335 -1.335,4.449 -1.335,5.784 -1.779,5.336 -0.893,8.45 4.006,8.45 h 62.275 c -1.342,4.45 -4.45,16.007 -14.235,16.007 h -81.402 c -12.007,0 -16.013,-10.671 -13.342,-20.013 3.994,-15.564 7.557,-27.128 11.564,-42.698 m 39.583,5.785 c -0.892,2.227 -1.329,4.45 -2.215,7.114 -0.437,2.67 -0.437,2.221 2.215,2.221 h 22.697 c 2.671,0 2.216,-0.436 3.108,-3.114 0.45,-2.221 0.893,-4.45 1.779,-6.67 1.341,-5.336 -2.216,-5.336 -9.336,-5.336 h -8.456 c -4.456,0 -8.456,0 -9.792,5.785 m -169.48,-20.463 h 8.012 l 5.779,-21.355 h 41.375 l -5.791,21.355 h 16.905 v 14.684 h -20.906 c -5.335,20.456 -11.12,41.812 -16.899,62.717 -36.482,0 -38.704,-9.335 -33.362,-30.248 l 8.893,-32.47 h -26.248 c -5.785,20.457 -11.57,41.813 -16.906,62.718 -36.476,0 -39.147,-9.335 -33.362,-30.248 l 8.893,-32.47 h -19.57 l 8.013,-14.683 h 15.57 l 5.778,-21.355 h 41.375 l -5.785,21.355 z m 553.818,0 h 15.564 l 5.791,-21.355 h 41.369 l -5.779,21.355 h 18.235 v 14.684 h -22.241 c -5.78,20.456 -11.115,41.812 -16.906,62.717 -36.47,0 -38.698,-9.335 -33.362,-30.248 l 8.899,-32.47 H 883.45 Z M 423.94,94.569 395.47,199.099 h 41.37 L 465.309,94.569 Z M 80.079,199.099 c 13.785,0 29.355,0 37.362,-30.249 4.45,-16.013 0.893,-1.785 5.336,-17.349 4.006,-15.12 8.013,-29.798 -15.57,-29.798 H 62.28 L 69.4,94.569 H 28.033 l -11.127,41.818 c 8.013,0 18.24,0 15.57,10.234 -18.684,0 -21.798,12.001 -24.47,22.235 C 5.336,179.091 2.671,188.876 0,199.104 H 80.079 Z M 45.38,183.09 58.28,136.386 h 17.798 c 8.006,0 8.45,2.665 6.67,9.785 -3.556,11.564 -4.892,17.792 -6.67,22.684 -3.564,14.235 -3.564,14.235 -30.698,14.235"
         id="path2" /></g></g></svg>
