<?xml version="1.0" encoding="UTF-8" standalone="no"?>
<svg
   viewBox="0 0 250.00539 250.26732"
   width="100"
   height="100.10477"
   version="1.1"
   id="svg2"
   xmlns="http://www.w3.org/2000/svg"
   xmlns:svg="http://www.w3.org/2000/svg">
  <defs
     id="defs2" />
  <path
     fill="#0288d1"
     d="m 219.44073,110.2893 c 0,0 20.57249,1.0449 20.57249,-11.062085 0,-15.811032 -27.39244,-30.070369 -27.39244,-30.070369 0,0 4.28593,-9.109957 6.96386,-14.196768 2.67793,-5.08681 10.21742,-24.946017 10.89316,-29.482226 0.85093,-5.69998 -0.44424,-7.495693 -0.44424,-7.495693 -1.86454,12.219607 -21.74877,47.395557 -23.32549,48.603126 -19.40872,-9.097444 -46.06911,-11.631464 -46.06911,-11.631464 0,0 -26.09102,-54.9538178097023 -50.63034,-54.9538178097023 C 85.675772,3.1902977e-6 85.794651,47.05769 85.794651,47.05769 c 0,0 -6.876266,-13.345838 -15.504447,-13.345838 -12.613788,0 -16.755816,19.089617 -16.755816,39.780984 -24.914734,0 -45.8751451,5.568587 -47.7521966,6.106675 -1.8770517,0.538088 -7.7709942,4.824023 -5.08681018,4.285935 C 6.1450881,82.139788 31.748074,78.179208 54.160072,80.125085 55.392669,99.796588 66.87397,125.41208 66.87397,125.41208 c 0,0 -24.620663,35.67024 -24.620663,61.14809 0,6.70734 2.508993,19.90927 20.19082,19.90927 14.803682,0 31.841055,-9.84827 34.975732,-11.6565 -2.734239,3.90427 -4.755198,11.33114 -4.755198,14.73486 0,1.60801 0.619427,4.87408 3.247299,7.38933 4.16705,-4.16706 8.29031,-8.29031 13.35209,-13.3521 -5.46848,-1.00109 -6.20678,-5.05552 -6.20678,-6.09416 0,-3.67902 2.87814,-8.02752 2.87814,-8.02752 0,0 13.30204,-8.99108 14.14046,-9.94838 l 9.82949,18.3388 c 0,0 -10.06099,5.96277 -17.96964,5.96277 -0.99483,0 -1.87705,-0.0813 -2.66541,-0.22525 -5.06804,5.06804 -9.1913,9.1913 -13.352093,13.35209 1.945877,1.86454 4.967923,3.32239 9.823233,3.32239 14.66603,0 31.04644,-11.24354 31.04644,-11.24354 0,0 15.4669,25.70935 28.68761,37.49098 3.56639,3.17847 6.97011,3.7541 6.97011,3.7541 0,0 -13.1331,-12.65133 -30.43952,-45.23695 16.08008,-9.94211 32.82964,-33.38649 32.82964,-33.38649 0,0 1.9709,0.0626 17.24385,0.0626 23.93241,0 57.92581,-5.03676 57.92581,-24.05755 -0.006,-19.62145 -30.56466,-37.35959 -30.56466,-37.35959 z m 2.67167,-11.819162 c 0,6.938832 -6.60722,6.857492 -6.60722,6.857492 l -5.01798,0.33161 -15.30423,-7.358037 c 0,0 8.94728,-13.79633 11.03706,-17.644286 1.5955,0.919755 15.89237,9.867035 15.89237,17.813221 z M 77.410487,49.203786 c 3.572655,0 7.076485,4.348503 8.515558,8.033782 0,2.43391 1.270138,16.655706 1.270138,16.655706 L 66.542357,73.117426 c 0,-18.632867 7.301732,-23.91364 10.86813,-23.91364 z M 75.276905,178.56393 c -11.281081,0 -13.614883,-6.28812 -13.614883,-11.95056 0,-12.82026 10.229933,-30.74611 10.229933,-30.74611 0,0 11.456272,24.11386 31.471895,34.29374 -9.935855,5.82512 -18.126057,8.40293 -28.086945,8.40293 z m 61.323275,15.24792 c -4.81151,-8.42171 -8.36539,-17.21882 -8.36539,-17.21882 0,0 19.78412,1.28265 30.40824,-9.71062 -6.626,2.98452 -17.18128,6.73862 -29.47597,5.60613 l 53.35207,-55.98619 c -1.09495,-1.31394 -6.88878,-5.36212 -8.30909,-6.04411 -7.65211,9.21007 -37.39712,41.02609 -64.94599,56.77456 C 74.388434,148.20575 67.061675,92.225812 66.323368,80.600605 l 19.052075,1.826997 c 0,0 -7.157824,12.695127 -7.157824,22.036588 0,9.34146 1.113718,9.83575 1.113718,9.83575 0,0 -0.23776,-16.286551 9.81698,-28.862798 7.652115,40.782078 15.642093,61.679918 21.867653,74.131028 3.17221,-1.31394 9.07867,-3.93555 9.07867,-3.93555 0,0 -17.60049,-50.73045 -16.61816,-85.067985 5.54981,-2.965742 12.97668,-5.956511 21.44844,-7.526977 -0.20648,-2.196151 -0.66948,-4.392301 -1.62052,-6.588452 -6.40075,1.489128 -13.27076,3.872983 -19.70279,7.652114 0.56312,-19.1209 7.00141,-36.433574 18.37634,-36.433574 11.24354,0 27.30485,26.554025 27.30485,26.554025 0,0 -11.86297,-1.063662 -25.9784,2.221178 0.95104,2.196151 1.41404,4.392301 1.62052,6.588452 3.71656,-0.688252 7.61457,-1.132488 11.68152,-1.132488 35.09461,0 63.3067,15.110267 63.3067,15.110267 l -11.04332,15.416851 c 0,0 -9.84201,-17.819478 -23.72594,-20.991695 7.32676,5.46222 15.52948,12.682613 19.79039,23.075223 -29.08179,-11.374934 -64.1764,-17.3815 -75.43871,-18.695436 -0.98233,4.154541 -0.85093,10.086025 -0.85093,10.086025 0,0 47.0702,8.69075 81.32013,28.293422 -0.22524,42.88438 -46.91378,75.79535 -53.36458,79.61828 z m 44.58624,-32.03502 c 0,0 14.62223,-19.17721 14.37821,-44.58623 0,0 23.60706,14.62223 23.60706,28.88782 0.006,15.93617 -37.98527,15.69841 -37.98527,15.69841 z"
     id="path1"
     style="stroke-width:6.25684" />
  <path
     fill="#01579b"
     d="m 92.652147,209.55406 c 0,-3.40372 2.020959,-10.83059 4.755198,-14.73486 4.617545,-2.32754 8.515555,-5.35585 8.515555,-5.35585 0,0 -2.87815,4.3485 -2.87815,8.02752 0,1.04489 0.73831,5.09307 6.20679,6.09416 0.78836,0.14391 1.67057,0.22525 2.66541,0.22525 7.90865,0 17.96964,-5.96277 17.96964,-5.96277 -32.316567,28.96291 -37.234443,12.1195 -37.234443,11.70655 z m 5.236975,-50.64912 -0.387924,0.18771 -0.469263,0.2753 c -1.833254,1.07618 -3.553885,1.9709 -5.230718,2.75301 3.460032,3.06585 7.301731,5.87517 11.562633,8.04004 1.83951,-0.87596 4.61129,-2.26498 5.90646,-2.92195 -4.18583,-2.28374 -7.95244,-5.12435 -11.381188,-8.33411 z m -32.804608,16.5556 c -2.621616,-2.34631 -3.422492,-5.67495 -3.422492,-8.84717 0,-12.82026 10.229933,-30.74611 10.229933,-30.74611 l -5.024242,-10.44892 c 0,0 -25.327686,38.09164 -1.864538,50.21739 0.05006,-0.1439 0.02503,-0.0188 0.08134,-0.17519 z M 218.75874,148.81892 c -4.09823,13.16439 -37.57232,12.95791 -37.57232,12.95791 l -6.36321,9.8733 c 0,0 1.89583,0.0563 14.84748,0.0626 0,0 26.529,-2.16486 29.08805,-22.89377 z m -29.61362,-20.89159 c -0.006,0 2.16486,1.38902 5.01173,3.59143 0.90098,-4.46738 1.45784,-9.26638 1.40778,-14.33442 -1.23885,-0.73831 -4.40481,-2.43391 -5.58735,-2.97825 -0.025,4.54872 -0.66948,8.95979 -1.63929,13.26449 0.31284,0.1752 0.61317,0.34413 0.80713,0.45675 z M 222.1124,98.470138 c 0,6.938832 -6.60722,6.857492 -6.60722,6.857492 l -5.01798,0.33161 8.94728,4.62381 c 28.88157,-1.18255 6.67604,-23.657109 -13.21445,-29.626133 1.5955,0.919755 15.89237,9.867035 15.89237,17.813221 z M 118.46161,28.3122 c 1.11997,-0.387924 2.28374,-0.625684 3.51634,-0.625684 11.24354,0 27.30485,26.554026 27.30485,26.554026 l 11.35616,0.707023 c 0,0 -2.6091,-5.480991 -6.93258,-12.970428 -5.944,-9.623019 -24.23274,-19.195983 -35.24477,-13.664937 z M 76.259229,38.717324 c -11.143431,-1.176286 -10.818075,30.896272 -9.716872,34.406358 0,-18.632867 7.301732,-23.913639 10.86813,-23.913639 3.572655,0 7.076485,4.348503 8.515558,8.033782 -0.156421,-5.493505 -0.13765,-10.186135 -0.13765,-10.186135 0,0 -4.448613,-7.364299 -9.529166,-8.340366 z m 39.849801,25.915828 c 0.0626,-2.17738 0.27531,-4.23588 0.51307,-6.269353 -4.35477,1.420302 -8.77835,3.259813 -13.02049,5.750035 -0.10636,2.621616 0.0188,3.797901 -0.12513,6.463315 3.50383,-1.870795 7.82104,-3.716563 12.60753,-5.243231 0.0125,-0.225247 0.0188,-0.437979 0.025,-0.700766 z m 20.35976,129.178698 c -4.81151,-8.42171 -8.3654,-17.21882 -8.3654,-17.21882 0,0 19.78413,1.28265 30.40824,-9.71062 -6.62599,2.98452 -17.18128,6.73862 -29.47597,5.60613 -2.60284,2.70296 -5.73126,4.78648 -9.10995,7.02643 l 9.82949,18.3388 c 0,0 7.48318,-4.49867 6.71359,-4.04192 z m 5.38714,11.22477 c 1.5079,-0.93227 -5.21821,3.98561 -5.21821,3.98561 0,0 15.46691,25.70935 28.68761,37.49098 3.5664,3.17847 6.97012,3.7541 6.97012,3.7541 0,0 -13.13311,-12.64507 -30.43952,-45.23069 z M 230.03982,17.975902 c -1.86454,12.219607 -21.74877,47.395557 -23.3255,48.603127 -1.93962,-0.907242 5.91272,2.571561 5.91272,2.571561 0,0 4.28593,-9.109958 6.96386,-14.196769 2.67792,-5.08681 10.21742,-24.946017 10.89315,-29.482226 0.84468,-5.69998 -0.44423,-7.495693 -0.44423,-7.495693 z m -30.12043,59.058305 -11.04332,15.416852 c 0,0 -9.842,-17.819478 -23.72593,-20.991696 5.59361,4.173312 11.68778,9.385259 16.16142,16.230241 0,-0.02503 0,-0.06257 0,-0.09385 0,0.03128 0,0.06883 0,0.09385 1.38276,2.121068 2.62787,4.386044 3.63522,6.838725 5.75003,2.189894 10.71796,3.966836 10.24244,3.772874 0,0 8.94728,-13.79633 11.03707,-17.644286 0.58814,0.344126 -6.3069,-3.62271 -6.3069,-3.62271 z M 87.196183,73.89953 66.542357,73.123682 c -0.325355,2.089785 -0.200219,5.349598 -0.212732,7.489437 L 85.3817,82.440116 c 0,0 -7.157824,12.695127 -7.157824,22.036584 0,9.34146 1.113717,9.83575 1.113717,9.83575 0,0 -0.206475,-14.465807 8.19646,-26.660387 -0.02503,-0.02503 -0.05006,-0.03128 -0.06882,-0.05631 0.02503,0.02503 0.05005,0.03754 0.06882,0.05631 0.513061,-0.744564 1.044892,-1.476614 1.620521,-2.202407 C 87.853152,78.079099 87.196183,73.89953 87.196183,73.89953 Z M 53.528131,73.499093 c -24.914733,0 -45.8751449,5.568587 -47.7521964,6.106675 -1.8770518,0.538088 -7.7709943,4.824023 -5.08681022,4.285935 C 6.1388313,82.146045 31.741817,78.185465 54.153815,80.131342 53.697066,75.995572 53.528131,73.499093 53.528131,73.499093 Z"
     id="path2"
     style="stroke-width:6.25684" />
</svg>
