<?xml version="1.0" encoding="UTF-8" standalone="no"?>
<svg
   height="13.806877"
   viewBox="7.09 7.081 3.9605629 3.960657"
   width="99.997635"
   version="1.1"
   id="svg3"
   xmlns="http://www.w3.org/2000/svg"
   xmlns:svg="http://www.w3.org/2000/svg">
  <defs
     id="defs3" />
  <path
     d="m 12.330121,10.642237 c 0,0.04203 -0.0345,0.07986 -0.0769,0.07986 h -1.4724 c -0.0429,0 -0.0774,-0.03783 -0.0774,-0.07986 V 9.5784548 c 0,-0.042073 0.0345,-0.075692 0.0774,-0.075692 h 1.4724 c 0.0425,0 0.0769,0.033619 0.0769,0.075692 z m -0.0639,-1.4589947 h -1.49892 c -0.21695,0 -0.39397,0.1765893 -0.39397,0.3952515 v 1.0679112 c 0,0.214455 0.17702,0.395252 0.39397,0.395252 h 1.49892 c 0.21738,0 0.39397,-0.180797 0.39397,-0.395252 V 9.5784938 c 0,-0.2186622 -0.17659,-0.3952515 -0.39397,-0.3952515"
     fill="#929497"
     id="path1"
     style="stroke-width:0.0389564" />
  <path
     d="m -4.9285686,7.5855241 v 1.3748877 h -0.34387 V 7.1020364 h 0.29389 l 1.39292,1.3538512 V 7.1019975 h 0.33931 v 1.8583753 h -0.26868 z"
     fill="#221f1f"
     id="path2"
     style="stroke-width:0.0389564" />
  <path
     d="m -1.4804285,7.5855241 v 1.3748877 h -0.34398 V 7.1020364 h 0.2935 l 1.39291995,1.3538512 V 7.1019975 h 0.33974 v 1.8583753 h -0.26868 z m 7.1464,0 v 1.3748877 h -0.34391 V 7.1020364 h 0.29346 l 1.39296,1.3538512 V 7.1019975 h 0.3397 v 1.8583753 h -0.26821 z m -8.09327,-0.4835266 h 0.0635 v 1.8584143 h -0.34395 V 7.1020364 Z m 4.9714599,0 h 0.063 v 0.3195592 h -0.82911 v 1.5388551 h -0.35742 V 7.4215567 H 0.59148145 V 7.1020364 Z m 2.2031401,0 h 0.0643 V 7.4215567 H 3.3375014 v 0.416249 h 1.14025 v 0.3195592 h -1.14025 v 0.4834877 h 1.4741001 v 0.3195592 h -1.81466 V 7.1020364 Z M 9.2604314,8.6408526 H 8.2042515 V 7.4215567 h 1.0561799 c 0.33047,0 0.44777,0.3279738 0.44777,0.6096674 0,0.2774863 -0.1173,0.6096674 -0.44777,0.6096674 z M 9.8246815,7.3753155 C 9.6901214,7.1945189 9.4912115,7.1020364 9.2507314,7.1020364 H 7.8725015 v 1.8583754 h 1.37827 c 0.2404799,0 0.4393499,-0.09669 0.57391,-0.2732791 0.12614,-0.1640063 0.1929895,-0.3910441 0.1929895,-0.6559086 0,-0.2649034 -0.0668,-0.4919412 -0.1929895,-0.6559086 m 2.5054395,1.1898838 c 0,0.037827 -0.0345,0.075653 -0.0769,0.075653 h -1.4724 c -0.0429,0 -0.0774,-0.037788 -0.0774,-0.075653 V 7.497249 c 0,-0.042073 0.0345,-0.075692 0.0774,-0.075692 h 1.4724 c 0.0425,0 0.0769,0.033658 0.0769,0.075692 z m -0.0639,-1.4632018 h -1.49892 c -0.21695,0 -0.39397,0.1766282 -0.39397,0.3952515 v 1.0679503 c 0,0.2186232 0.17702,0.3952125 0.39397,0.3952125 h 1.49892 c 0.21738,0 0.39397,-0.1765893 0.39397,-0.3952125 V 7.497249 c 0,-0.2186233 -0.17659,-0.3952126 -0.39397,-0.3952126 m 6.2437,3.1533636 c 0.35656,0.14297 1.10959,0.256489 1.69736,0.256489 0.64329,0 0.90944,-0.218662 0.90944,-0.496149 0,-0.2522813 -0.24722,-0.3952123 -0.95735,-0.6559084 -0.9498,-0.3489713 -1.64649,-0.6264576 -1.64649,-1.2529542 0,-0.6432868 0.83834,-1.0258774 2.11611,-1.0258774 0.68618,0 0.92163,0.042073 1.35724,0.1219335 l 0.003,0.6138357 c -0.42802,-0.079861 -0.80726,-0.2186232 -1.39632,-0.2186232 -0.63148,0 -0.90059,0.2017941 -0.90059,0.4078733 0,0.2984838 0.41454,0.4414538 1.1415,0.7021109 1.01205,0.3615932 1.57501,0.6390795 1.57501,1.2487469 0,0.6307039 -0.70511,1.0847799 -2.29524,1.0847799 -0.65294,0 -1.10324,-0.04207 -1.60402,-0.126141 z m -3.38461,-2.6320103 h -0.75685 v 2.8674233 h 0.75685 c 1.16168,0 1.89452,-0.5003165 1.89452,-1.4295431 0,-0.9291877 -0.73284,-1.4379191 -1.89452,-1.4379191 z m 2.03118,3.1323663 c -0.37421,0.168174 -1.08221,0.277486 -1.70114,0.277486 h -2.36544 V 7.0894146 h 2.36544 c 0.6189,0 1.32693,0.1093116 1.702,0.2774863 0.91111,0.4120417 1.20792,1.0721576 1.20792,1.6944079 0,0.6222893 -0.29431,1.2824052 -1.20882,1.6944472 m 5.49028,-0.311145 h -0.15177 v -0.0547 h 0.36958 v 0.05466 h -0.15263 v 0.441454 h -0.0652 z m 0.69167,0.222831 c -0.004,-0.06728 -0.008,-0.151346 -0.008,-0.214416 h -0.002 a 2.9310394,2.9310394 0 0 1 -0.063,0.189211 l -0.0879,0.243867 h -0.0488 l -0.0816,-0.239699 c -0.0235,-0.07145 -0.0428,-0.134516 -0.0568,-0.193379 h -0.002 c -0.001,0.06307 -0.005,0.147138 -0.009,0.218623 l -0.0134,0.214416 h -0.0614 l 0.0349,-0.49611 h 0.082 l 0.0849,0.23966 c 0.0206,0.06307 0.037,0.117726 0.0505,0.168175 h 10e-4 c 0.0135,-0.05045 0.0311,-0.105105 0.0534,-0.168175 l 0.0887,-0.23966 h 0.082 l 0.0311,0.49611 h -0.0635 z"
     fill="#221e1f"
     id="path3"
     style="stroke-width:0.0389564" />
</svg>
