<?xml version="1.0" encoding="UTF-8" standalone="no"?>
<svg
   height="15.526517"
   width="100.00005"
   viewBox="1.997 2 4.0000237 4.0000219"
   version="1.1"
   id="svg3"
   xmlns="http://www.w3.org/2000/svg"
   xmlns:svg="http://www.w3.org/2000/svg">
  <defs
     id="defs3" />
  <path
     d="m 14.112257,5.956018 h -0.0787 V 5.6488128 h -0.11195 v -0.065746 h 0.30292 v 0.065703 h -0.1123 z m 0.54784,0 h -0.0723 V 5.6439283 h -9.6e-4 l -0.0697,0.3120897 h -0.0763 l -0.0679,-0.3120897 h -10e-4 V 5.956018 h -0.0725 V 5.5830665 h 0.11287 l 0.0676,0.2933297 h 9.5e-4 l 0.0665,-0.2933297 h 0.11304 z"
     id="path1"
     style="stroke-width:0.0432257" />
  <path
     d="m 5.5988569,5.6745321 c 0,0.035099 -0.029,0.062548 -0.0633,0.062548 h -1.21032 c -0.0355,0 -0.0641,-0.027448 -0.0641,-0.062548 V 4.7982603 c 0,-0.034926 0.0285,-0.063844 0.064,-0.063455 l 1.21032,-3.89e-4 a 0.06440632,0.06440632 0 0 1 0.0633,0.063844 z m -0.0522,-1.2030151 h -1.23306 c -0.17822,0 -0.32359,0.1472268 -0.32359,0.3247117 v 0.8801189 c 0,0.1774848 0.14537,0.3235877 0.32359,0.3235877 h 1.23306 c 0.17765,0 0.32281,-0.1461029 0.32281,-0.3235877 V 4.7962719 c 0,-0.1774848 -0.14516,-0.3247116 -0.32281,-0.3247116"
     fill="#939598"
     id="path2"
     style="stroke-width:0.0432257" />
  <path
     d="m -8.8838331,2.759303 h 0.24094 l 1.14462,1.1130623 V 2.759303 h 0.27963 c -5.7e-4,0.016512 -5.7e-4,1.5117331 0,1.5286344 h -0.22145 l -1.1613,-1.1322113 v 1.1322113 h -0.28244 c -5.6e-4,-0.016858 -5.6e-4,-1.5121222 0,-1.5286344 m 3.11805,0.3963367 v 1.1324274 h -0.28318 V 2.7592165 h 0.24151 l 1.14608,1.1132353 V 2.7592165 h 0.28019 v 1.5288506 h -0.2214 z m 5.88136995,0 v 1.1324274 h -0.28265 V 2.7592165 h 0.24094 L 1.2203969,3.8724518 V 2.7592165 h 0.27997 v 1.5288506 h -0.2214 z M -6.5449331,2.759303 h 0.052 v 1.5286344 h -0.28317 V 2.759303 Z m 4.09097,0 h 0.0524 v 0.2623369 h -0.68279 v 1.2662975 h -0.29372 V 3.0216399 h -0.6821 V 2.7592598 Z m 1.81314995,0 h 0.0535 V 3.0216399 H -1.8008731 l 1.7e-4,0.3436445 h 0.93916995 V 3.6283993 H -1.8007031 l -1.7e-4,0.3960773 h 1.21351995 V 4.2879374 H -2.0810631 V 2.759303 Z M 3.0739569,4.0243902 h -0.8697 V 3.0215534 h 0.8697 c 0.27155,0 0.36842,0.2713711 0.36842,0.5021532 0,0.2303931 -0.0969,0.5006836 -0.36842,0.5006836 m 0.46403,-1.0417399 c -0.11044,-0.1453249 -0.27418,-0.223477 -0.47194,-0.223477 h -1.13467 v 1.5288938 h 1.13467 c 0.19776,0 0.3615,-0.077806 0.47194,-0.2231312 0.10439,-0.136161 0.15885,-0.3230258 0.15885,-0.541186 0,-0.2184628 -0.0545,-0.4058896 -0.15885,-0.5410564 m 2.06087,0.9794949 c 0,0.033803 -0.029,0.062158 -0.0633,0.062158 h -1.21032 c -0.0355,0 -0.0641,-0.028356 -0.0641,-0.062158 V 3.0851385 c 0,-0.033975 0.0285,-0.063628 0.064,-0.063628 h 1.21032 c 0.0344,0 0.0633,0.029653 0.0633,0.063844 z m -0.0522,-1.2028422 h -1.23306 c -0.17822,0 -0.32359,0.14593 -0.32359,0.3247116 v 0.8799893 c 0,0.1778306 0.14537,0.3239335 0.32359,0.3239335 h 1.23306 c 0.17765,0 0.32281,-0.1461029 0.32281,-0.3239335 V 3.0841012 c 0,-0.1787817 -0.14516,-0.3247117 -0.32281,-0.3247117 m 5.1429501,2.5959206 c 0.29333,0.1162772 0.91284,0.2093855 1.3968,0.2093855 0.5296,0 0.74854,-0.1815912 0.74854,-0.4092179 0,-0.2042847 -0.2036,-0.3248845 -0.78801,-0.5385925 -0.78174,-0.2886181 -1.35513,-0.5165906 -1.35513,-1.0292908 0,-0.5312442 0.68924,-0.8447171 1.74144,-0.8447171 0.56509,0 0.75835,0.036094 1.11738,0.1015805 l 0.002,0.5048332 c -0.35173,-0.067216 -0.6642,-0.1825423 -1.14911,-0.1825423 -0.51957,0 -0.74141,0.1649062 -0.74063,0.3354316 0,0.2461705 0.34045,0.3643064 0.93895,0.5770634 0.8327,0.2986033 1.29677,0.5290396 1.29677,1.0306309 -10e-4,0.5171957 -0.58069,0.8901473 -1.88905,0.8901473 -0.53747,0 -0.90839,-0.035877 -1.3202,-0.1012347 z M 7.9012869,3.1887507 h -0.62444 v 2.357401 h 0.62444 c 0.95832,0 1.5617,-0.4090018 1.5617,-1.1739241 0,-0.7649223 -0.60338,-1.183477 -1.5617,-1.183477 m 1.67418,2.5772903 c -0.30855,0.1389707 -0.89162,0.2274538 -1.40207,0.2274538 h -1.95061 V 2.7498798 h 1.95061 c 0.51023,0 1.09352,0.090126 1.40207,0.2289234 0.7502701,0.3388032 0.9949701,0.8799892 0.9949701,1.3934244 0,0.5134351 -0.2425,1.0541024 -0.9949701,1.3938133 M 15.751687,2 c -0.6212,0 -1.12525,0.5036661 -1.12525,1.1249061 0,0.6219749 0.50401,1.1254249 1.12525,1.1254249 0.62124,0 1.12659,-0.50345 1.12659,-1.1254249 C 16.878277,2.5036661 16.372927,2 15.751687,2 m 0.16884,1.9314549 h -0.33673 V 2.9044117 h 0.33673 z m -0.17031,-1.2195273 c -0.10915,0 -0.19759,-0.085068 -0.19759,-0.1901931 0,-0.1059463 0.0884,-0.1908416 0.19754,-0.1908416 0.11269,0 0.20208,0.083555 0.20208,0.1907983 0,0.1064649 -0.0894,0.1902364 -0.20208,0.1902364"
     id="path3"
     style="stroke-width:0.0432257" />
</svg>
