<?xml version="1.0" encoding="UTF-8" standalone="no"?>
<svg
   width="100"
   height="100"
   viewBox="1 1 4 4"
   version="1.1"
   id="svg1"
   xmlns="http://www.w3.org/2000/svg"
   xmlns:svg="http://www.w3.org/2000/svg">
  <defs
     id="defs1" />
  <path
     d="M 2.999998,1 C 1.8971907,1 1,1.897192 1,3.000006 1,4.1028201 1.8971907,5 2.999998,5 4.1028093,5 5,4.1028201 5,3.000006 5.000004,1.897192 4.1028093,1 2.999998,1 Z m 0,3.7409604 c -0.9599755,0 -1.7409553,-0.7809905 -1.7409553,-1.7409544 0,-0.9599799 0.7809838,-1.7409664 1.7409553,-1.7409664 0.9599594,0 1.7409593,0.7809905 1.7409593,1.7409664 0,0.9599599 -0.7809959,1.7409544 -1.7409593,1.7409544 z M 3.6794761,2.4166419 h 0.015783 v -0.076451 h 0.028448 v -0.013499 h -0.072612 v 0.013499 h 0.028384 z M 3.74889,2.3471366 h 2.886e-4 l 0.02495,0.069505 h 0.012854 l 0.024946,-0.069505 H 3.81228 v 0.069505 H 3.827102 V 2.3266962 H 3.805315 l -0.024112,0.070355 h -4.169e-4 l -0.024697,-0.070355 h -0.02214 v 0.089946 h 0.014946 V 2.3471366 Z M 3.2946675,2.3266161 H 2.3107645 L 2.1614839,2.5665219 H 3.1442486 Z M 3.495739,2.3289046 2.8942559,3.2866481 H 2.2270742 L 2.381,3.0465419 H 2.7808786 L 2.9336261,2.8065439 H 2.0091812 L 1.8564618,3.0465419 H 2.0754649 L 1.7716092,3.5259287 H 3.0396849 L 3.5080555,2.7872899 3.6788308,3.0465379 H 3.5248449 L 3.3790111,3.2866481 h 0.4559981 l 0.1583386,0.2392806 h 0.290882 z"
     id="path1"
     style="stroke-width:0.00400794" />
</svg>
