<?xml version="1.0" encoding="UTF-8" standalone="no"?>
<!-- Created with Inkscape (http://www.inkscape.org/) -->

<svg
   width="100"
   height="100"
   viewBox="0 0 100 100"
   version="1.1"
   id="svg1"
   xml:space="preserve"
   xmlns="http://www.w3.org/2000/svg"
   xmlns:svg="http://www.w3.org/2000/svg"><defs
     id="defs1"><linearGradient
       id="a"
       x1="148.361"
       x2="148.361"
       y1="0"
       y2="296.723"
       gradientTransform="matrix(0.25084191,0,0,0.33702256,12.77778,-0.00308514)"
       gradientUnits="userSpaceOnUse"><stop
         offset="0"
         stop-color="#f90"
         id="stop1" /><stop
         offset="1"
         stop-color="#f05a22"
         id="stop2" /></linearGradient></defs><g
     id="layer1"><path
       fill="url(#a)"
       d="m 49.885063,0.68691886 c 0.200001,0.52400404 -0.148001,1.00500804 -0.438004,1.41001104 -2.043015,2.895022 -3.647028,6.132047 -4.285032,9.6180741 -0.253002,0.714005 -0.200002,1.243009 0,1.30001 3.96103,-0.348003 8.427064,-0.305003 12.332094,0.524004 A 37.226285,37.226285 0 0 1 83.935323,65.283413 77.330591,77.330591 0 0 1 51.690076,99.860677 c -0.453003,0.210003 -1.105008,0.220003 -1.41501,-0.233001 -0.361003,-0.472004 -0.214002,-1.143009 0.143001,-1.571012 1.895014,-2.63402 3.214024,-5.667044 3.92903,-8.828068 0.142001,-0.653005 0.328002,-1.32001 0.271002,-1.990015 -0.233002,-0.305002 -0.614005,-0.210002 -0.938007,-0.200002 A 37.140284,37.140284 0 0 1 33.737939,83.500552 37.300285,37.300285 0 0 1 17.882818,68.84444 36.850282,36.850282 0 0 1 12.787779,49.560293 37.300285,37.300285 0 0 1 17.462815,31.837157 77.14059,77.14059 0 0 1 48.333051,0.13491486 c 0.547004,-0.305002 1.36201,-0.081 1.552012,0.552004 M 47.952048,35.600186 a 14.620112,14.620112 0 0 0 -10.042077,6.304048 14.300109,14.300109 0 0 0 -2.443019,7.885061 c -0.114,3.743028 1.380011,7.495057 3.966031,10.190078 a 14.475111,14.475111 0 0 0 18.39414,2.267017 14.520111,14.520111 0 0 0 6.067047,-8.004061 C 65.741184,48.552285 63.527167,41.890234 58.70813,38.372207 A 14.520111,14.520111 0 0 0 47.947048,35.600186"
       style="fill:url(#a);stroke-width:0.290762"
       id="path2" /></g></svg>
