<?xml version="1.0" encoding="UTF-8" standalone="no"?>
<!-- Created with Inkscape (http://www.inkscape.org/) -->

<svg
   width="100"
   height="100"
   viewBox="0 0 100 100"
   version="1.1"
   id="svg1"
   xml:space="preserve"
   xmlns="http://www.w3.org/2000/svg"
   xmlns:svg="http://www.w3.org/2000/svg"><defs
     id="defs1" /><g
     id="layer1"><g
       id="g1"
       transform="matrix(2.1429834,0,0,2.1429834,6.9474635,7.1404209)"><path
         d="M 36.538,-3.332 H 3.642 C 0.991,-3.332 0,-2.342 0,0.325 v 32.181 c 0,0.306 0.015,0.583 0.044,0.845 0.058,0.583 0.072,1.151 0.612,1.792 0.058,0.059 0.611,0.481 0.611,0.481 0.292,0.146 0.496,0.248 0.83,0.393 l 16.186,6.79 c 0.845,0.378 1.195,0.538 1.807,0.524 0.612,0.014 0.961,-0.131 1.806,-0.525 l 16.186,-6.789 c 0.335,-0.13 0.539,-0.247 0.83,-0.393 0,0 0.554,-0.408 0.612,-0.48 0.54,-0.642 0.554,-1.21 0.612,-1.793 0.029,-0.262 0.044,-0.539 0.044,-0.845 V 0.325 c 0,-2.666 -0.976,-3.657 -3.642,-3.657"
         style="fill:#5f5f5f;stroke-width:0.145684"
         id="path1" /><path
         d="m 34.323,29.025 -0.014,0.072 -0.015,0.088 -0.015,0.073 -0.029,0.072 -0.014,0.073 -0.03,0.073 -0.029,0.073 -0.029,0.058 -0.029,0.073 -0.043,0.058 -0.044,0.059 -0.044,0.058 -0.044,0.058 -0.043,0.059 -0.059,0.058 -0.043,0.044 -0.059,0.058 -0.058,0.044 -0.058,0.043 -0.058,0.03 -0.059,0.043 -0.073,0.044 -0.072,0.029 -0.073,0.044 -0.073,0.029 -0.073,0.029 -0.073,0.029 v -0.015 l -0.072,0.03 -0.073,0.014 -0.131,0.029 -0.073,0.015 -0.073,0.014 -0.073,0.015 -0.072,0.014 -0.088,0.015 -0.073,0.015 h -0.291 l -0.073,-0.015 h -0.087 l -0.073,-0.015 -0.073,-0.014 -0.087,-0.015 -0.073,-0.014 -0.073,-0.015 -0.073,-0.015 -0.072,-0.014 -0.073,-0.015 -0.073,-0.014 -0.073,-0.03 -0.073,-0.014 -0.072,-0.03 -0.073,-0.028 -0.073,-0.03 -0.073,-0.028 -0.073,-0.03 -0.072,-0.029 -0.073,-0.029 -0.073,-0.029 -0.073,-0.029 -0.073,-0.03 -0.072,-0.043 -0.059,-0.043 -0.073,-0.044 -0.058,-0.044 -0.058,-0.044 -0.058,-0.043 -0.059,-0.044 -0.058,-0.044 -0.058,-0.043 -0.059,-0.044 -0.058,-0.058 0.044,-0.059 0.058,-0.058 0.044,-0.058 0.058,-0.059 0.044,-0.058 0.043,-0.058 0.059,-0.058 0.043,-0.059 0.059,-0.058 0.043,-0.058 0.059,-0.059 0.043,-0.058 0.044,-0.058 0.058,-0.059 0.044,-0.058 0.058,-0.058 0.044,-0.058 0.058,0.043 0.073,0.044 0.059,0.044 0.072,0.043 0.059,0.044 0.072,0.044 0.059,0.043 0.073,0.03 0.058,0.043 0.073,0.03 0.072,0.028 0.073,0.03 0.073,0.029 0.073,0.029 0.073,0.029 0.072,0.029 0.073,0.029 0.073,0.015 0.146,0.029 0.087,0.014 0.073,0.015 h 0.073 l 0.087,0.015 h 0.16 l 0.088,-0.015 0.073,-0.015 0.072,-0.014 0.073,-0.015 0.058,-0.029 0.059,-0.03 0.058,-0.043 0.044,-0.058 0.029,-0.058 0.029,-0.073 0.015,-0.073 V 28.936 L 32.969,28.849 32.939,28.776 32.896,28.718 32.838,28.674 32.78,28.631 32.721,28.601 32.648,28.572 32.576,28.543 32.488,28.5 32.43,28.485 32.372,28.47 32.299,28.441 32.226,28.427 32.153,28.397 32.08,28.383 31.993,28.353 31.92,28.339 31.833,28.31 31.76,28.296 31.687,28.266 31.614,28.252 31.542,28.222 31.469,28.194 31.396,28.179 31.323,28.149 31.25,28.121 31.178,28.091 31.09,28.063 31.017,28.033 30.945,28.004 30.872,27.975 30.799,27.932 30.726,27.888 30.668,27.844 30.595,27.801 30.537,27.757 30.479,27.713 30.42,27.669 30.362,27.611 30.304,27.553 30.26,27.495 30.216,27.436 30.173,27.378 30.129,27.32 30.085,27.247 30.056,27.189 30.027,27.13 30.012,27.057 29.983,26.999 29.969,26.926 29.954,26.854 29.939,26.781 29.925,26.708 29.91,26.621 v -0.175 l 0.015,-0.073 0.014,-0.073 0.015,-0.073 0.015,-0.073 0.014,-0.072 0.03,-0.073 0.014,-0.073 0.03,-0.073 0.028,-0.073 0.03,-0.072 0.043,-0.073 0.044,-0.073 0.043,-0.058 0.044,-0.059 0.058,-0.058 0.059,-0.058 0.058,-0.059 0.058,-0.058 0.059,-0.044 0.058,-0.043 0.058,-0.044 0.058,-0.044 0.073,-0.043 0.073,-0.03 0.073,-0.043 0.073,-0.03 0.072,-0.028 0.073,-0.03 0.073,-0.029 0.058,-0.014 0.073,-0.015 0.073,-0.014 0.073,-0.015 0.073,-0.015 0.072,-0.014 0.073,-0.015 0.073,-0.014 0.073,-0.015 h 0.32 l 0.088,0.015 0.087,0.014 h 0.073 l 0.087,0.015 0.073,0.014 0.087,0.015 0.073,0.015 0.073,0.014 0.073,0.015 0.073,0.014 0.072,0.015 0.073,0.03 0.073,0.028 0.073,0.015 0.073,0.029 0.072,0.029 0.073,0.03 0.073,0.028 0.073,0.03 0.073,0.043 0.058,0.03 0.073,0.043 0.073,0.044 0.058,0.043 0.073,0.044 0.058,0.044 0.058,0.043 0.059,0.044 0.058,0.044 -0.044,0.058 -0.044,0.058 -0.043,0.059 -0.044,0.058 -0.044,0.073 -0.043,0.058 -0.044,0.058 -0.044,0.059 -0.043,0.058 -0.044,0.058 -0.044,0.059 -0.044,0.058 -0.043,0.073 -0.044,0.058 -0.044,0.058 -0.145,0.32 -0.044,0.059 -0.058,-0.044 -0.073,-0.043 -0.058,-0.044 -0.059,-0.044 -0.072,-0.029 -0.059,-0.044 -0.073,-0.029 -0.058,-0.029 -0.073,-0.029 -0.058,-0.029 -0.073,-0.03 -0.058,-0.028 -0.087,-0.03 -0.073,-0.028 -0.073,-0.03 -0.073,-0.014 -0.044,0.029 -0.072,-0.015 -0.073,-0.014 -0.073,-0.015 -0.073,-0.014 h -0.16 l -0.087,0.014 -0.073,0.015 -0.073,0.014 -0.058,0.03 -0.059,0.029 -0.072,0.058 -0.044,0.073 -0.03,0.073 -0.014,0.072 v 0.015 l 0.015,0.102 0.029,0.087 0.029,0.044 0.058,0.058 0.073,0.044 0.058,0.044 0.073,0.029 0.088,0.029 0.087,0.029 0.058,0.015 0.059,0.029 0.072,0.014 0.073,0.03 0.073,0.014 0.087,0.03 0.088,0.028 0.087,0.03 0.088,0.014 0.072,0.029 0.088,0.03 0.073,0.014 0.072,0.029 0.073,0.029 0.073,0.029 0.073,0.03 0.073,0.028 0.072,0.015 0.088,0.029 0.073,0.044 0.072,0.029 0.073,0.043 0.073,0.044 0.073,0.044 0.058,0.044 0.058,0.043 0.059,0.044 0.058,0.058 0.058,0.059 0.059,0.058 0.058,0.058 0.044,0.058 0.043,0.073 0.044,0.059 0.044,0.072 0.029,0.059 0.029,0.073 0.014,0.072 0.015,0.073 0.03,0.146 0.014,0.073 0.014,0.087 v 0.175 z m -5.172,1.486 h -4.239 v -5.405 h 4.269 v 1.223 h -2.856 v 0.89 h 2.564 v 1.15 h -2.564 v 0.918 h 2.9 v 1.224 z m -5.405,0 h -1.354 v -3.19 l -0.044,0.057 -0.044,0.073 -0.043,0.059 -0.044,0.058 -0.044,0.073 -0.044,0.058 -0.043,0.058 -0.044,0.073 -0.044,0.058 -0.043,0.059 -0.044,0.058 -0.044,0.073 -0.043,0.058 -0.044,0.058 -0.044,0.073 -0.044,0.058 -0.043,0.059 -0.044,0.073 -0.03,0.058 -0.043,0.058 -0.043,0.073 -0.044,0.058 -0.044,0.059 -0.044,0.072 -0.043,0.059 -0.03,0.058 -0.043,0.058 -0.044,0.073 -0.043,0.058 -0.044,0.059 -0.03,0.072 -0.043,0.059 -0.044,0.058 -0.043,0.073 -0.044,0.058 h -0.03 l -0.043,-0.073 -0.044,-0.058 -0.043,-0.073 -0.044,-0.058 -0.044,-0.073 -0.043,-0.058 -0.044,-0.073 -0.044,-0.058 -0.043,-0.073 -0.03,-0.058 -0.043,-0.073 -0.044,-0.058 -0.044,-0.073 0.073,-0.073 -0.044,-0.073 -0.043,-0.058 -0.044,-0.073 -0.044,-0.058 -0.043,-0.073 -0.044,-0.058 -0.03,-0.044 L 20.061,28.093 20.017,28.02 19.974,27.962 19.93,27.889 19.886,27.831 19.843,27.758 19.813,27.714 19.77,27.641 19.726,27.583 19.682,27.51 19.639,27.452 19.595,27.379 19.551,27.321 v 3.176 h -1.399 v -5.405 h 1.515 l 0.044,0.058 0.044,0.073 0.043,0.058 0.044,0.073 0.044,0.058 0.044,0.073 0.043,0.058 0.044,0.073 0.044,0.058 0.043,0.059 0.044,0.073 0.044,0.058 0.043,0.073 0.044,0.058 0.044,0.073 0.044,0.058 0.043,0.058 0.044,0.073 0.044,0.058 0.043,0.073 0.044,0.059 0.044,0.072 0.043,0.059 0.03,0.073 0.043,0.058 0.03,0.058 0.043,0.073 0.044,0.058 0.043,0.073 0.044,0.058 0.03,0.073 0.043,0.058 0.044,0.073 0.043,0.059 0.044,-0.059 0.044,-0.073 0.043,-0.058 0.044,-0.073 0.044,-0.058 0.044,-0.073 0.043,-0.058 0.044,-0.073 0.044,-0.058 0.029,-0.058 0.043,-0.073 0.044,-0.059 0.044,-0.072 0.044,-0.059 0.043,-0.073 0.044,-0.058 0.044,-0.073 0.043,-0.058 0.044,-0.058 0.044,-0.073 0.043,-0.058 0.044,-0.073 0.044,-0.058 0.044,-0.073 0.029,-0.059 0.043,-0.058 0.044,-0.073 0.044,-0.058 0.043,-0.073 0.044,-0.058 0.044,-0.073 0.044,-0.058 0.043,-0.073 0.044,-0.058 h 1.515 v 5.405 z m -8.566,-2.23 -0.029,-0.072 -0.029,-0.073 -0.029,-0.073 -0.03,-0.073 -0.028,-0.072 -0.03,-0.073 -0.028,-0.073 -0.03,-0.073 -0.029,-0.073 -0.029,-0.072 -0.029,-0.073 -0.029,-0.073 -0.029,-0.073 -0.03,-0.073 -0.028,-0.073 -0.03,-0.072 -0.028,-0.073 -0.03,-0.073 -0.029,-0.073 -0.029,-0.073 -0.029,-0.072 -0.029,-0.073 -0.029,0.073 -0.03,0.072 -0.028,0.073 -0.03,0.073 -0.028,0.073 -0.03,0.073 -0.029,0.072 -0.029,0.073 -0.029,0.073 -0.029,0.073 -0.029,0.073 -0.03,0.073 -0.028,0.072 -0.03,0.073 -0.028,0.073 -0.03,0.073 -0.029,0.073 -0.029,0.072 -0.029,0.073 -0.029,0.073 -0.029,0.073 -0.03,0.073 -0.028,0.072 h 1.253 z m 2.317,2.23 h -1.443 l -0.029,-0.073 -0.029,-0.073 -0.029,-0.073 -0.029,-0.073 -0.03,-0.072 -0.028,-0.073 -0.03,-0.073 -0.028,-0.073 -0.03,-0.073 -0.029,-0.072 -0.029,-0.073 -0.029,-0.073 -0.029,-0.073 -0.029,-0.073 -0.03,-0.072 H 13.52 l -0.03,0.072 -0.028,0.073 -0.03,0.073 -0.028,0.073 -0.03,0.073 -0.058,0.13 -0.029,0.074 -0.029,0.072 -0.03,0.073 -0.028,0.073 -0.03,0.073 -0.028,0.073 -0.03,0.072 -0.029,0.073 h -1.456 l 0.029,-0.073 0.058,-0.13 0.03,-0.074 0.028,-0.072 0.058,-0.132 0.03,-0.072 0.029,-0.073 0.029,-0.073 0.029,-0.044 0.029,-0.072 0.03,-0.073 0.028,-0.073 0.03,-0.073 0.028,-0.073 0.03,-0.072 0.029,-0.073 0.029,-0.073 0.029,-0.073 0.029,-0.073 0.029,-0.073 0.058,-0.13 0.03,-0.073 0.028,-0.073 0.03,-0.073 0.029,-0.073 0.029,-0.073 0.029,-0.072 0.029,-0.073 0.03,-0.073 0.028,-0.073 0.03,-0.073 0.028,-0.072 0.03,-0.073 0.029,-0.073 0.029,-0.073 0.029,-0.073 0.029,-0.072 0.029,-0.073 0.03,-0.073 0.028,-0.073 0.03,-0.073 0.028,-0.072 0.03,-0.073 0.029,-0.073 0.029,-0.073 0.029,-0.073 0.029,-0.072 0.029,-0.073 0.03,-0.073 0.028,-0.073 0.03,-0.073 0.028,-0.072 0.03,-0.073 0.058,-0.131 0.029,-0.073 0.029,-0.073 0.03,-0.073 0.028,-0.073 0.03,-0.072 0.028,-0.073 0.03,-0.073 0.029,-0.073 0.029,-0.073 0.029,-0.072 0.014,-0.073 0.03,-0.073 0.029,-0.073 0.029,-0.073 0.029,-0.073 0.029,-0.072 0.029,-0.073 0.03,-0.073 0.028,-0.073 0.058,-0.13 0.03,-0.074 h 1.369 l 0.03,0.073 0.028,0.073 0.03,0.073 0.028,0.073 0.03,0.072 0.029,0.073 0.029,0.073 0.029,0.073 0.029,0.073 0.029,0.072 0.03,0.073 0.028,0.073 0.03,0.073 0.028,0.073 0.03,0.072 0.029,0.073 0.029,0.073 0.029,0.073 0.029,0.073 0.029,0.072 0.03,0.073 0.028,0.073 0.03,0.073 0.028,0.073 0.03,0.073 0.029,0.072 0.029,0.073 0.029,0.073 0.029,0.073 0.029,0.073 0.058,0.13 0.03,0.073 0.029,0.073 0.029,0.073 0.029,0.073 0.029,0.073 0.029,0.072 0.029,0.073 0.03,0.073 0.028,0.073 0.03,0.073 0.028,0.073 0.03,0.072 0.029,0.073 0.029,0.073 0.029,0.073 0.029,0.073 0.029,0.072 0.03,0.073 0.028,0.073 0.03,0.073 0.028,0.073 0.03,0.072 0.029,0.073 0.029,0.073 0.029,0.073 0.029,0.073 0.029,0.072 0.03,0.073 0.028,0.073 0.03,0.073 0.028,0.073 0.03,0.073 0.029,0.072 0.029,0.073 0.029,0.073 0.029,0.073 0.029,0.073 0.03,0.072 0.028,0.073 0.03,0.073 0.028,0.073 0.03,0.073 0.029,0.072 0.029,0.073 0.029,0.073 0.029,0.073 0.058,0.13 z m -6.469,-0.7 -0.058,0.044 -0.058,0.044 -0.059,0.043 -0.058,0.044 -0.058,0.044 -0.059,0.044 -0.058,0.043 -0.073,0.044 -0.072,0.044 -0.073,0.043 -0.073,0.03 -0.073,0.043 -0.073,0.03 -0.072,0.028 -0.073,0.03 L 9.965,30.438 9.892,30.467 9.819,30.496 9.747,30.525 9.674,30.554 9.601,30.583 9.528,30.598 9.455,30.612 9.383,30.627 9.31,30.641 9.237,30.656 9.15,30.671 9.077,30.685 8.989,30.7 8.917,30.714 8.829,30.729 H 8.596 L 8.523,30.714 8.436,30.7 8.363,30.685 8.29,30.671 8.217,30.656 8.145,30.641 8.072,30.627 7.999,30.612 7.926,30.598 7.853,30.583 7.78,30.568 7.708,30.539 7.635,30.51 7.562,30.481 7.489,30.452 7.416,30.422 7.344,30.394 7.271,30.364 7.198,30.321 7.14,30.291 7.067,30.248 7.009,30.205 6.95,30.161 6.892,30.117 6.834,30.073 6.775,30.03 6.717,29.986 6.659,29.942 6.6,29.884 6.542,29.84 6.484,29.782 6.426,29.724 6.382,29.665 6.338,29.607 6.294,29.549 6.251,29.491 6.207,29.432 6.163,29.374 6.134,29.316 6.091,29.243 6.047,29.185 6.017,29.112 5.989,29.039 5.959,28.966 5.93,28.893 5.901,28.835 5.872,28.762 5.858,28.689 5.828,28.617 5.814,28.544 5.784,28.471 5.77,28.398 V 28.325 L 5.756,28.253 V 28.18 L 5.741,28.107 V 27.48 L 5.756,27.393 5.77,27.32 5.785,27.247 5.799,27.175 5.829,27.102 5.843,27.029 5.873,26.956 5.901,26.883 5.931,26.811 5.96,26.738 5.989,26.665 6.018,26.592 6.047,26.519 6.076,26.447 6.12,26.374 6.163,26.315 6.193,26.257 6.236,26.199 6.28,26.141 6.324,26.082 6.367,26.024 6.411,25.966 6.455,25.907 6.513,25.849 6.557,25.791 6.615,25.732 6.673,25.674 6.732,25.63 6.79,25.572 6.848,25.528 6.906,25.485 6.965,25.441 7.023,25.397 7.081,25.354 7.14,25.31 7.212,25.266 7.285,25.223 7.358,25.179 7.431,25.149 7.504,25.121 7.577,25.077 7.635,25.047 7.708,25.019 7.78,24.989 7.853,24.975 7.926,24.946 7.999,24.931 8.072,24.902 8.145,24.888 8.217,24.873 8.29,24.858 8.363,24.844 8.436,24.829 8.509,24.815 8.582,24.8 h 0.305 l 0.088,0.015 0.087,0.014 h 0.073 l 0.073,0.015 0.087,0.014 0.073,0.015 0.073,0.015 0.073,0.014 0.073,0.015 0.072,0.014 0.073,0.015 0.073,0.03 0.073,0.014 0.058,0.029 0.073,0.029 0.131,0.058 0.073,0.03 0.073,0.043 0.072,0.03 0.059,0.043 0.073,0.044 0.058,0.043 0.073,0.044 0.058,0.044 0.058,0.043 0.059,0.044 0.058,0.044 0.058,0.058 0.058,0.044 -0.043,0.058 -0.059,0.058 -0.043,0.059 -0.059,0.058 -0.043,0.058 -0.044,0.059 -0.058,0.058 -0.044,0.058 -0.044,0.058 -0.058,0.059 -0.044,0.058 -0.058,0.058 -0.044,0.059 -0.043,0.058 -0.059,0.058 -0.043,0.059 -0.059,0.058 -0.043,0.058 L 10.023,26.665 9.965,26.607 9.907,26.563 9.848,26.52 9.79,26.476 9.732,26.432 9.674,26.389 9.601,26.345 9.542,26.315 9.484,26.287 9.426,26.257 9.353,26.229 9.28,26.199 9.207,26.185 9.135,26.17 9.062,26.156 8.989,26.141 8.902,26.126 8.814,26.112 H 8.654 L 8.581,26.126 8.508,26.141 8.435,26.156 8.363,26.17 8.29,26.2 8.217,26.228 8.159,26.403 8.086,26.433 8.028,26.476 7.969,26.52 7.911,26.563 7.853,26.607 7.794,26.651 7.736,26.695 7.692,26.753 7.634,26.811 7.59,26.869 7.547,26.928 7.503,26.986 7.473,27.059 7.43,27.117 7.401,27.19 7.372,27.263 7.342,27.336 7.314,27.408 7.299,27.481 7.285,27.554 7.27,27.642 v 0.539 l 0.015,0.072 0.014,0.073 0.015,0.073 0.029,0.073 0.087,-0.03 0.03,0.074 0.029,0.072 0.043,0.073 0.073,0.117 0.044,0.058 0.043,0.058 0.059,0.059 0.043,0.058 0.059,0.044 0.058,0.043 0.058,0.044 0.059,0.044 0.058,0.043 0.073,0.03 0.073,0.029 0.072,0.029 0.073,0.029 0.073,0.029 0.073,0.014 0.073,0.015 0.072,0.015 0.088,0.014 H 8.887 L 8.974,29.419 9.062,29.404 9.135,29.389 9.207,29.375 9.28,29.36 9.353,29.346 9.426,29.331 9.499,29.302 9.557,29.272 9.63,29.244 9.688,29.214 9.746,29.171 V 28.443 H 8.668 v -1.079 h 2.404 v 2.419 z M 8.654,12.883 h 3.205 V 10.406 H 8.654 V 5.351 H 11.99 V 2.874 H 5.93 V 20.75 h 6.103 v -2.477 h -3.38 z m 22.93,0.539 v 4.035 c 0,0.714 -0.335,1.05 -1.02,1.05 h -0.51 c -0.713,0 -1.048,-0.336 -1.048,-1.05 V 6.167 c 0,-0.714 0.335,-1.05 1.049,-1.05 h 0.451 c 0.685,0 1.02,0.336 1.02,1.05 v 3.496 h 2.666 V 6.007 c 0,-2.215 -1.063,-3.293 -3.278,-3.293 h -1.326 c -2.214,0 -3.307,1.093 -3.307,3.322 v 11.538 c 0,2.229 1.093,3.321 3.307,3.321 h 1.34 c 2.215,0 3.308,-1.092 3.308,-3.321 V 13.407 H 31.584 M 22.144,2.874 h 2.724 V 20.75 h -2.724 z m -3.948,7.94 c 0,0.714 -0.335,1.05 -1.02,1.05 H 16.054 V 5.277 h 1.122 c 0.685,0 1.02,0.335 1.02,1.05 z M 17.613,2.874 H 13.345 V 20.75 h 2.724 v -6.483 h 1.544 c 2.215,0 3.307,-1.093 3.307,-3.322 V 6.196 c 0,-2.229 -1.092,-3.322 -3.307,-3.322 M 12.34,36.906 h 15.574 l -7.94,2.622 z"
         style="fill:#ffffff;stroke-width:0.145684"
         id="path2" /></g></g></svg>
