<?xml version="1.0" encoding="UTF-8" standalone="no"?>
<svg
   id="Layer_1"
   viewBox="0 0 12.879141 14.958493"
   width="100"
   height="116.13737"
   version="1.1"
   xmlns="http://www.w3.org/2000/svg"
   xmlns:svg="http://www.w3.org/2000/svg"
   xmlns:rdf="http://www.w3.org/1999/02/22-rdf-syntax-ns#"
   xmlns:cc="http://creativecommons.org/ns#"
   xmlns:dc="http://purl.org/dc/elements/1.1/">
  <defs
     id="defs2" />
  <style
     id="style1">.st0{fill:#5f5f5f}.st1{fill:#fff}</style>
  <title
     id="title1">Untitled 6</title>
  <path
     class="st0"
     d="M 11.712057,2.3973087e-7 H 1.1670832 C 0.31713395,2.3973087e-7 -4.295e-4,0.31756374 -4.295e-4,1.1721829 V 11.488325 c 0,0.09807 0.00467005,0.186802 0.01401015,0.270863 0.01868021,0.186802 0.02335026,0.368934 0.19614213,0.574416 0.0186802,0.01868 0.19614214,0.154112 0.19614214,0.154112 0.093401,0.0467 0.15878172,0.07939 0.26619289,0.126091 l 5.18842639,2.176244 c 0.2708629,0.121421 0.3829442,0.172792 0.5790863,0.168122 0.1961421,0.0047 0.3082234,-0.04203 0.5790863,-0.168122 l 5.1884272,-2.176244 c 0.107411,-0.04203 0.172791,-0.07939 0.266192,-0.126091 0,0 0.177462,-0.130762 0.196142,-0.154112 0.172792,-0.205482 0.177462,-0.387614 0.196142,-0.574416 0.0093,-0.08406 0.01401,-0.172792 0.01401,-0.270863 V 1.1721829 C 12.87957,0.31756374 12.566677,2.3973087e-7 11.712057,2.3973087e-7"
     id="path1"
     style="stroke-width:0.0467005" />
  <path
     class="st1"
     d="m 11.00221,10.372183 -0.0047,0.02335 -0.0047,0.02802 -0.0047,0.02335 -0.0093,0.02335 -0.0047,0.02335 -0.0093,0.02335 -0.0093,0.02335 -0.0093,0.01868 -0.0093,0.02335 -0.01401,0.01868 -0.01401,0.01868 -0.01401,0.01868 -0.01401,0.01868 -0.01401,0.01868 -0.01868,0.01868 -0.01401,0.01401 -0.01868,0.01868 -0.01868,0.01401 -0.01868,0.01401 -0.01868,0.0093 -0.01868,0.01401 -0.02335,0.01401 -0.02335,0.0093 -0.02335,0.01401 -0.02335,0.0093 -0.02335,0.0093 -0.02335,0.0093 v -0.0047 l -0.02335,0.0093 -0.02335,0.0047 -0.04203,0.0093 -0.02335,0.0047 -0.02335,0.0047 -0.02335,0.0047 -0.02335,0.0047 -0.02802,0.0047 -0.02335,0.0047 h -0.0934 l -0.02335,-0.0047 H 10.2224 l -0.02335,-0.0047 -0.02335,-0.0047 -0.02802,-0.0047 -0.02335,-0.0047 -0.02335,-0.0047 -0.02335,-0.0047 -0.02335,-0.0047 -0.02335,-0.0047 -0.02335,-0.0047 -0.02335,-0.0093 -0.02335,-0.0047 -0.02335,-0.0093 -0.02335,-0.0093 -0.02335,-0.0093 -0.02335,-0.0093 -0.02335,-0.0093 -0.02335,-0.0093 -0.02335,-0.0093 -0.02335,-0.0093 -0.02335,-0.0093 -0.02335,-0.0093 -0.02335,-0.01401 -0.01868,-0.01401 -0.02335,-0.01401 -0.01868,-0.01401 -0.01868,-0.01401 -0.01868,-0.01401 -0.01868,-0.01401 -0.01868,-0.01401 -0.01868,-0.01401 -0.01868,-0.01401 -0.01868,-0.01868 0.01401,-0.01868 0.01868,-0.01868 0.01401,-0.01868 0.01868,-0.01868 0.01401,-0.01868 0.01401,-0.01868 0.01868,-0.01868 0.01401,-0.01868 0.01868,-0.01868 0.01401,-0.01868 0.01868,-0.01868 0.01401,-0.01868 0.01401,-0.01868 0.01868,-0.01868 0.01401,-0.01868 0.01868,-0.01868 0.01401,-0.01868 0.01868,0.01401 0.02335,0.01401 0.01868,0.01401 0.02335,0.01401 0.01868,0.01401 0.02335,0.01401 0.01868,0.01401 0.02335,0.0093 0.01868,0.01401 0.02335,0.0093 0.02335,0.0093 0.02335,0.0093 0.02335,0.0093 0.02335,0.0093 0.02335,0.0093 0.02335,0.0093 0.02335,0.0093 0.02335,0.0047 0.0467,0.0093 0.02802,0.0047 0.02335,0.0047 h 0.02335 l 0.02802,0.0047 h 0.05137 l 0.02802,-0.0047 0.02335,-0.0047 0.02335,-0.0047 0.02335,-0.0047 0.01868,-0.0093 0.01868,-0.0093 0.01868,-0.01401 0.01401,-0.01868 0.0093,-0.01868 0.0093,-0.02335 0.0047,-0.02335 v -0.0047 l -0.0047,-0.02802 -0.0093,-0.02335 -0.01401,-0.01868 -0.01868,-0.01401 -0.01868,-0.01401 -0.01868,-0.0093 -0.02335,-0.0093 -0.02335,-0.0093 -0.02802,-0.01401 -0.01868,-0.0047 -0.01868,-0.0047 -0.02335,-0.0093 -0.02335,-0.0047 -0.02335,-0.0093 -0.02335,-0.0047 -0.02802,-0.0093 -0.02335,-0.0047 -0.02802,-0.0093 -0.02335,-0.0047 -0.02335,-0.0093 -0.02335,-0.0047 -0.02335,-0.0093 -0.02335,-0.0093 -0.02335,-0.0047 -0.02335,-0.0093 -0.02335,-0.0093 -0.02335,-0.0093 -0.02802,-0.0093 -0.02335,-0.0093 -0.02335,-0.0093 -0.02335,-0.0093 -0.02335,-0.01401 -0.02335,-0.01401 -0.01868,-0.01401 -0.02335,-0.01401 -0.01868,-0.01401 -0.01868,-0.01401 -0.01868,-0.01401 -0.01868,-0.01868 -0.01868,-0.01868 -0.01401,-0.01868 -0.01401,-0.01868 -0.01401,-0.01868 -0.01401,-0.01868 -0.01401,-0.02335 -0.00934,-0.01868 -0.00934,-0.01868 -0.00467,-0.02335 -0.00934,-0.01868 -0.00467,-0.02335 -0.00467,-0.02335 -0.00467,-0.02335 -0.00467,-0.02335 -0.00467,-0.02802 v -0.05604 l 0.00467,-0.02335 0.00467,-0.02335 0.00467,-0.02335 0.00467,-0.02335 0.00467,-0.02335 0.00934,-0.02335 0.00467,-0.02335 0.00934,-0.02335 0.00934,-0.02335 0.00934,-0.02335 0.01401,-0.02335 0.01401,-0.02335 0.01401,-0.01868 0.01401,-0.01868 0.01868,-0.01868 0.01868,-0.01868 0.01868,-0.01868 0.01868,-0.01868 0.01868,-0.01401 0.01868,-0.01401 0.01868,-0.01401 0.01868,-0.01401 0.02335,-0.01401 0.02335,-0.00934 0.02335,-0.01401 0.02335,-0.00934 0.02335,-0.00934 0.02335,-0.00934 0.023351,-0.00934 0.01868,-0.00467 0.02335,-0.00467 0.02335,-0.00467 0.02335,-0.00467 0.02335,-0.00467 0.02335,-0.00467 0.02335,-0.00467 0.02335,-0.00467 0.02335,-0.00467 h 0.102741 l 0.02802,0.00467 0.02802,0.00467 h 0.02335 l 0.02802,0.00467 0.02335,0.00467 0.02802,0.00467 0.02335,0.00467 0.02335,0.00467 0.02335,0.00467 0.02335,0.00467 0.02335,0.00467 0.02335,0.00934 0.02335,0.00934 0.02335,0.00467 0.02335,0.00934 0.02335,0.00934 0.02335,0.00934 0.02335,0.00934 0.02335,0.00934 0.02335,0.01401 0.01868,0.0093 0.02335,0.01401 0.02335,0.01401 0.01868,0.01401 0.02335,0.01401 0.01868,0.01401 0.01868,0.01401 0.01868,0.01401 0.01868,0.01401 -0.01401,0.01868 -0.01401,0.01868 -0.01401,0.01868 -0.01401,0.01868 -0.01401,0.02335 -0.01401,0.01868 -0.01401,0.01868 -0.01401,0.01868 -0.01401,0.01868 -0.01401,0.01868 -0.01401,0.01868 -0.01401,0.01868 -0.01401,0.02335 -0.01401,0.01868 -0.01401,0.01868 -0.0467,0.102741 -0.01401,0.01868 -0.01868,-0.01401 -0.02335,-0.01401 -0.01868,-0.01401 -0.01868,-0.01401 -0.02335,-0.0093 -0.01868,-0.01401 -0.02335,-0.0093 -0.01868,-0.0093 -0.02335,-0.0093 -0.01868,-0.0093 -0.02335,-0.0093 -0.01868,-0.0093 -0.02802,-0.0093 -0.02335,-0.0093 -0.02335,-0.0093 -0.02335,-0.0047 -0.01401,0.0093 -0.02335,-0.0047 -0.02335,-0.0047 -0.02335,-0.0047 -0.02335,-0.0047 h -0.05137 l -0.02802,0.0047 -0.02335,0.0047 -0.02335,0.0047 -0.01868,0.0093 -0.01868,0.0093 -0.02335,0.01868 -0.01401,0.02335 -0.0093,0.02335 -0.0047,0.02335 v 0.0047 l 0.0047,0.03269 0.0093,0.02802 0.0093,0.01401 0.01868,0.01868 0.02335,0.01401 0.01868,0.01401 0.02335,0.0093 0.02802,0.0093 0.02802,0.0093 0.01868,0.0047 0.01868,0.0093 0.02335,0.0047 0.02335,0.0093 0.02335,0.0047 0.02802,0.0093 0.02802,0.0093 0.02802,0.0093 0.02802,0.0047 0.02335,0.0093 0.02802,0.0093 0.02335,0.0047 0.02335,0.0093 0.02335,0.0093 0.02335,0.0093 0.02335,0.0093 0.02335,0.0093 0.02335,0.0047 0.02802,0.0093 0.02335,0.01401 0.02335,0.0093 0.02335,0.01401 0.02335,0.01401 0.02335,0.01401 0.01868,0.01401 0.01868,0.01401 0.01868,0.01401 0.01868,0.01868 0.01868,0.01868 0.01868,0.01868 0.01868,0.01868 0.01401,0.01868 0.01401,0.02335 0.01401,0.01868 0.01401,0.02335 0.0093,0.01868 0.0093,0.02335 0.0047,0.02335 0.0047,0.02335 0.0093,0.0467 0.0047,0.02335 0.0047,0.02802 v 0.05604 z M 9.3443421,10.848528 H 7.9853573 V 9.1159392 h 1.3683249 v 0.392284 h -0.91533 v 0.284873 h 0.821929 V 10.16203 h -0.821929 v 0.294214 h 0.9293401 v 0.392284 z m -1.7325889,0 H 7.1774385 V 9.8257872 l -0.01401,0.01868 -0.01401,0.02335 -0.01401,0.01868 -0.01401,0.01868 -0.01401,0.02335 -0.01401,0.01868 -0.01401,0.01868 -0.01401,0.02335 -0.01401,0.01868 -0.01401,0.01868 -0.01401,0.01868 -0.01401,0.02335 -0.01401,0.01868 -0.01401,0.01868 -0.01401,0.02335 -0.01401,0.01868 -0.01401,0.01868 -0.01401,0.02335 -0.00934,0.01868 -0.01401,0.01868 -0.01401,0.02335 -0.01401,0.01868 -0.01401,0.01868 -0.01401,0.02335 -0.01401,0.01868 -0.00934,0.01868 -0.01401,0.01868 -0.01401,0.02335 -0.01401,0.01868 -0.01401,0.01868 -0.00934,0.02335 -0.01401,0.01868 -0.01401,0.01868 -0.01401,0.02335 -0.01401,0.01868 h -0.00934 l -0.01401,-0.02335 -0.01401,-0.01868 -0.01401,-0.02335 -0.01401,-0.01868 -0.01401,-0.02335 -0.01401,-0.01868 -0.01401,-0.02335 -0.01401,-0.01868 -0.01401,-0.02335 -0.00934,-0.01868 -0.01401,-0.02335 -0.01401,-0.01868 -0.01401,-0.02335 0.02335,-0.02335 -0.01401,-0.02335 -0.01401,-0.01868 -0.01401,-0.02335 -0.01401,-0.01868 -0.01401,-0.02335 -0.01401,-0.01868 -0.00934,-0.01401 -0.01401,-0.01868 -0.01401,-0.02335 -0.01401,-0.01868 -0.01401,-0.02335 -0.01401,-0.01868 -0.01401,-0.02335 -0.00934,-0.01401 -0.01401,-0.02335 -0.01401,-0.01868 -0.01401,-0.02335 -0.01401,-0.01868 -0.01401,-0.02335 -0.01401,-0.01868 V 10.843858 H 5.8184537 V 9.1112692 H 6.304139 l 0.01401,0.01868 0.01401,0.02335 0.01401,0.01868 0.01401,0.02335 0.01401,0.01868 0.01401,0.02335 0.01401,0.01868 0.01401,0.02335 0.01401,0.01868 0.01401,0.01868 0.01401,0.02335 0.01401,0.01868 0.01401,0.02335 0.01401,0.01868 0.01401,0.02335 0.01401,0.01868 0.01401,0.01868 0.01401,0.02335 0.01401,0.01868 0.01401,0.02335 0.01401,0.01868 0.01401,0.02335 0.01401,0.01868 0.00934,0.02335 0.01401,0.01868 0.00934,0.01868 0.01401,0.02335 0.01401,0.01868 0.01401,0.02335 0.01401,0.01868 0.00934,0.02335 0.01401,0.01868 0.01401,0.02335 0.01401,0.01868 0.01401,-0.01868 0.01401,-0.02335 0.01401,-0.01868 0.01401,-0.02335 0.01401,-0.01868 0.01401,-0.02335 0.01401,-0.01868 0.01401,-0.02335 0.01401,-0.01868 0.00934,-0.01868 0.01401,-0.02335 0.01401,-0.01868 0.01401,-0.02335 0.01401,-0.01868 0.01401,-0.02335 0.01401,-0.01868 0.01401,-0.02335 0.01401,-0.01868 0.01401,-0.01868 0.01401,-0.02335 0.01401,-0.01868 0.01401,-0.02335 0.01401,-0.01868 0.01401,-0.02335 0.00934,-0.01868 0.01401,-0.01868 0.01401,-0.02335 0.01401,-0.01868 0.01401,-0.02335 0.01401,-0.01868 0.01401,-0.02335 0.01401,-0.01868 0.01401,-0.02335 0.01401,-0.01868 h 0.4856853 v 1.7325888 z m -2.7459898,-0.714518 -0.00934,-0.02335 -0.00934,-0.02335 -0.00934,-0.02335 -0.00934,-0.02335 -0.00934,-0.02335 -0.00934,-0.02335 -0.00934,-0.02335 -0.00934,-0.02335 -0.00934,-0.02335 -0.00934,-0.02335 -0.00934,-0.02335 -0.00934,-0.02335 -0.00934,-0.02335 -0.00934,-0.02335 -0.00934,-0.02335 -0.00934,-0.02335 -0.00934,-0.02335 -0.00934,-0.02335 -0.00934,-0.02335 -0.00934,-0.02335 -0.00934,-0.02335 -0.00934,-0.02335 -0.00934,0.02335 -0.00934,0.02335 -0.00934,0.02335 -0.00934,0.02335 -0.00934,0.02335 -0.00934,0.02335 -0.00934,0.02335 -0.00934,0.02335 -0.00934,0.02335 -0.00934,0.02335 -0.00934,0.02335 -0.00934,0.02335 -0.00934,0.02335 -0.00934,0.02335 -0.00934,0.02335 -0.00934,0.02335 -0.00934,0.02335 -0.00934,0.02335 -0.00934,0.02335 -0.00934,0.02335 -0.00934,0.02335 -0.00934,0.02335 -0.00934,0.02335 h 0.4016198 z m 0.7425381,0.714518 H 5.1459664 l -0.00934,-0.02335 -0.00934,-0.02335 -0.00934,-0.02335 -0.00934,-0.02335 -0.00934,-0.02335 -0.00934,-0.02335 -0.00934,-0.02335 -0.00934,-0.02335 -0.00934,-0.02335 -0.00934,-0.02335 -0.00934,-0.02335 -0.00934,-0.02335 -0.00934,-0.02335 -0.00934,-0.02335 -0.00934,-0.02335 H 4.3333776 l -0.00934,0.02335 -0.00934,0.02335 -0.00934,0.02335 -0.00934,0.02335 -0.00934,0.02335 -0.01868,0.04203 -0.00934,0.02335 -0.00934,0.02335 -0.00934,0.02335 -0.00934,0.02335 -0.00934,0.02335 -0.00934,0.02335 -0.00934,0.02335 -0.00934,0.02335 H 3.726271 l 0.00934,-0.02335 0.01868,-0.04203 0.00934,-0.02335 0.00934,-0.02335 0.01868,-0.04203 0.00934,-0.02335 0.00934,-0.02335 0.00934,-0.02335 0.00934,-0.01401 0.00934,-0.02335 0.00934,-0.02335 0.00934,-0.02335 0.00934,-0.02335 0.00934,-0.02335 0.00934,-0.02335 0.00934,-0.02335 0.00934,-0.02335 0.00934,-0.02335 0.00934,-0.02335 0.00934,-0.02335 0.01868,-0.04203 0.00934,-0.02335 0.00934,-0.02335 0.00934,-0.02335 0.00934,-0.02335 0.00934,-0.02335 0.00934,-0.02335 0.00934,-0.02335 0.00934,-0.02335 0.00934,-0.02335 0.00934,-0.02335 0.00934,-0.02335 0.00934,-0.02335 0.00934,-0.02335 0.00934,-0.02335 0.00934,-0.02335 0.00934,-0.02335 0.00934,-0.02335 0.00934,-0.02335 0.00934,-0.02335 0.00934,-0.02335 0.00934,-0.02335 0.00934,-0.02335 0.00934,-0.02335 0.00934,-0.02335 0.00934,-0.02335 0.00934,-0.02335 0.00934,-0.02335 0.00934,-0.02335 0.00934,-0.02335 0.00934,-0.02335 0.00934,-0.02335 0.00934,-0.02335 0.01868,-0.04203 0.00934,-0.02335 0.00934,-0.02335 0.00934,-0.02335 0.00934,-0.02335 0.00934,-0.02335 0.00934,-0.02335 0.00934,-0.02335 0.00934,-0.02335 0.00934,-0.02335 0.00934,-0.02335 0.00467,-0.02335 0.00934,-0.02335 0.00934,-0.02335 0.00934,-0.02335 0.00934,-0.02335 0.00934,-0.02335 0.00934,-0.02335 0.00934,-0.02335 0.00934,-0.02335 0.01868,-0.04203 0.00934,-0.02335 h 0.4389848 l 0.00934,0.02335 0.00934,0.02335 0.00934,0.02335 0.00934,0.02335 0.00934,0.02335 0.00934,0.02335 0.00934,0.02335 0.00934,0.02335 0.00934,0.02335 0.00934,0.02335 0.00934,0.02335 0.00934,0.02335 0.00934,0.02335 0.00934,0.02335 0.00934,0.02335 0.00934,0.02335 0.00934,0.02335 0.00934,0.02335 0.00934,0.02335 0.00934,0.02335 0.00934,0.02335 0.00934,0.02335 0.00934,0.02335 0.00934,0.02335 0.00934,0.02335 0.00934,0.02335 0.00934,0.02335 0.00934,0.02335 0.00934,0.02335 0.00934,0.02335 0.01868,0.04203 0.00934,0.02335 0.00934,0.02335 0.00934,0.02335 0.00934,0.02335 0.00934,0.02335 0.00934,0.02335 0.00934,0.02335 0.00934,0.02335 0.00934,0.02335 0.00934,0.02335 0.00934,0.02335 0.00934,0.02335 0.00934,0.02335 0.00934,0.02335 0.00934,0.02335 0.00934,0.02335 0.00934,0.02335 0.00934,0.02335 0.00934,0.02335 0.00934,0.02335 0.00934,0.02335 0.00934,0.02335 0.00934,0.02335 0.00934,0.02335 0.00934,0.02335 0.00934,0.02335 0.00934,0.02335 0.00934,0.02335 0.00934,0.02335 0.00934,0.02335 0.00934,0.02335 0.00934,0.02335 0.00934,0.02335 0.00934,0.02335 0.00934,0.02335 0.00934,0.02335 0.00934,0.02335 0.00934,0.02335 0.00934,0.02335 0.00934,0.02335 0.00934,0.02335 0.00934,0.02335 0.00934,0.02335 0.00934,0.02335 0.00934,0.02335 0.00934,0.02335 0.01868,0.04203 z m -2.0735026,-0.224163 -0.01868,0.01401 -0.01868,0.01401 -0.01868,0.01401 -0.01868,0.01401 -0.01868,0.01401 -0.01868,0.01401 -0.01868,0.01401 -0.02335,0.01401 -0.02335,0.01401 -0.02335,0.01401 -0.02335,0.0093 -0.02335,0.01401 -0.02335,0.0093 -0.02335,0.0093 -0.02335,0.0093 -0.02335,0.0093 -0.02335,0.0093 -0.02335,0.0093 -0.02335,0.0093 -0.02335,0.0093 -0.02335,0.0093 -0.02335,0.0047 -0.02335,0.0047 -0.02335,0.0047 -0.02335,0.0047 -0.02335,0.0047 -0.02802,0.0047 -0.02335,0.0047 -0.02802,0.0047 -0.02335,0.0047 -0.02802,0.0047 h -0.074721 l -0.02335,-0.0047 -0.02802,-0.0047 -0.02335,-0.0047 -0.02335,-0.0047 -0.02335,-0.0047 -0.02335,-0.0047 -0.02335,-0.0047 -0.02335,-0.0047 -0.02335,-0.0047 -0.02335,-0.0047 -0.02335,-0.0047 -0.02335,-0.0093 -0.02335,-0.0093 -0.02335,-0.0093 -0.02335,-0.0093 -0.02335,-0.0093 -0.02335,-0.0093 -0.02335,-0.0093 -0.02335,-0.01401 -0.01868,-0.0093 -0.02335,-0.01401 -0.01868,-0.01401 -0.01868,-0.01401 -0.01868,-0.01401 -0.01868,-0.01401 -0.01868,-0.01401 -0.01868,-0.01401 -0.01868,-0.01401 -0.01868,-0.01868 -0.01868,-0.01401 -0.01868,-0.01868 -0.01868,-0.01868 -0.01401,-0.01868 -0.01401,-0.01868 -0.01401,-0.01868 -0.01401,-0.01868 -0.01401,-0.01868 -0.01401,-0.01868 -0.00934,-0.01868 -0.01401,-0.02335 -0.01401,-0.01868 -0.00934,-0.02335 -0.00934,-0.02335 -0.00934,-0.02335 -0.00934,-0.02335 -0.00934,-0.01868 -0.00934,-0.02335 -0.00467,-0.02335 -0.00934,-0.02335 -0.00467,-0.02335 -0.00934,-0.02335 -0.00467,-0.02335 v -0.02335 l -0.00467,-0.02335 v -0.02325 l -0.00469,-0.02335 V 9.8771572 l 0.00467,-0.02802 0.00467,-0.02335 0.00467,-0.02335 0.00467,-0.02335 0.00934,-0.02335 0.00467,-0.02335 0.00934,-0.02335 0.00934,-0.02335 0.00934,-0.02335 0.00934,-0.02335 0.00934,-0.02335 0.00934,-0.02335 0.00934,-0.02335 0.00934,-0.02335 0.01401,-0.02335 0.01401,-0.01868 0.00934,-0.01868 0.01401,-0.01868 0.01401,-0.01868 0.01401,-0.01868 0.01401,-0.01868 0.01401,-0.01868 0.01401,-0.01868 0.01868,-0.01868 0.01401,-0.01868 0.01868,-0.01868 0.01868,-0.01868 0.01868,-0.01401 0.01868,-0.01868 0.01868,-0.01401 0.01868,-0.01401 0.01868,-0.01401 0.01868,-0.01401 0.01868,-0.01401 0.01868,-0.01401 0.02335,-0.01401 0.02335,-0.01401 0.02335,-0.01401 0.02335,-0.0093 0.02335,-0.0093 0.02335,-0.01401 0.01868,-0.00934 0.02335,-0.00934 0.02335,-0.00934 0.02335,-0.00467 0.02335,-0.00934 0.02335,-0.00467 0.02335,-0.00934 0.02335,-0.00467 0.02335,-0.00467 0.02335,-0.00467 0.02335,-0.00467 0.02335,-0.00467 0.02335,-0.00467 0.02335,-0.00467 h 0.098071 l 0.02802,0.00467 0.02802,0.00467 h 0.02335 l 0.02335,0.00467 0.02802,0.00467 0.02335,0.00467 0.02335,0.00467 0.02335,0.00467 0.02335,0.00467 0.02335,0.00467 0.02335,0.00467 0.02335,0.00934 0.02335,0.00467 0.01868,0.00934 0.02335,0.00934 0.04203,0.01868 0.02335,0.0093 0.02335,0.01401 0.02335,0.0093 0.01868,0.01401 0.02335,0.01401 0.01868,0.01401 0.02335,0.01401 0.01868,0.01401 0.01868,0.01401 0.01868,0.01401 0.01868,0.01401 0.01868,0.01868 0.01868,0.01401 -0.01401,0.01868 -0.01868,0.01868 -0.01401,0.01868 -0.01868,0.01868 -0.01401,0.01868 -0.01401,0.01868 -0.01868,0.01868 -0.01401,0.01868 -0.01401,0.01868 -0.01868,0.01868 -0.01401,0.01868 -0.01868,0.01868 -0.01401,0.01868 -0.01401,0.01868 -0.01868,0.01868 -0.01401,0.01868 -0.01868,0.01868 -0.01401,0.01868 -0.01868,-0.01401 -0.01868,-0.01868 -0.01868,-0.01401 -0.01868,-0.01401 -0.01868,-0.01401 -0.01868,-0.01401 -0.01868,-0.01401 -0.02335,-0.01401 -0.01868,-0.0093 -0.01868,-0.0093 -0.01868,-0.0093 -0.02335,-0.0093 -0.02335,-0.0093 -0.02335,-0.0047 -0.02335,-0.0047 -0.02335,-0.0047 -0.02335,-0.0047 -0.02802,-0.0047 -0.02802,-0.0047 h -0.05137 l -0.02335,0.0047 -0.02335,0.0047 -0.02335,0.0047 -0.02335,0.0047 -0.02335,0.0093 -0.02335,0.0093 -0.01868,0.05604 -0.02335,0.0093 -0.01868,0.01401 -0.01868,0.01401 -0.01868,0.01401 -0.01868,0.01401 -0.01868,0.01401 -0.01868,0.01401 -0.01401,0.01868 -0.01868,0.01868 -0.01401,0.01868 -0.01401,0.01868 -0.01401,0.01868 -0.00934,0.02335 -0.01401,0.01868 -0.00934,0.02335 -0.00934,0.02335 -0.00934,0.02335 -0.00934,0.02335 -0.00467,0.02335 -0.00467,0.02335 -0.00467,0.02802 v 0.1727918 l 0.00467,0.02335 0.00467,0.02335 0.00467,0.02335 0.00934,0.02335 0.02802,-0.0093 0.00934,0.02335 0.00934,0.02335 0.01401,0.02335 0.02335,0.03736 0.01401,0.01868 0.01401,0.01868 0.01868,0.01868 0.01401,0.01868 0.01868,0.01401 0.01868,0.01401 0.01868,0.01401 0.01868,0.01401 0.01868,0.01401 0.02335,0.0093 0.02335,0.0093 0.02335,0.0093 0.02335,0.0093 0.02335,0.0093 0.02335,0.0047 0.02335,0.0047 0.02335,0.0047 0.02802,0.0047 h 0.042031 l 0.02802,-0.0047 0.02802,-0.0047 0.02335,-0.0047 0.02335,-0.0047 0.02335,-0.0047 0.02335,-0.0047 0.02335,-0.0047 0.02335,-0.0093 0.01868,-0.0093 0.02335,-0.0093 0.01868,-0.0093 0.01868,-0.01401 V 10.185381 H 2.7782507 V 9.8397972 H 3.5488091 V 10.615025 Z M 2.7735807,5.1977667 H 3.8009918 V 4.4038581 H 2.7735807 V 2.7833505 H 3.8430223 V 1.9894418 H 1.9002812 V 7.7195941 H 3.8570324 V 6.9256855 H 2.7735807 V 5.1977667 M 10.12424,5.3705586 v 1.293604 c 0,0.2288325 -0.107411,0.3362437 -0.326903,0.3362437 H 9.6338852 c -0.2288325,0 -0.3362436,-0.1074112 -0.3362436,-0.3362437 V 3.0448733 c 0,-0.2288325 0.1074111,-0.3362437 0.3362436,-0.3362437 h 0.1447716 c 0.2194924,0 0.3269032,0.1074112 0.3269032,0.3362437 v 1.1208122 h 0.854619 V 2.9935027 c 0,-0.7098477 -0.340914,-1.0554314 -1.0507608,-1.0554314 H 9.4844436 c -0.7098477,0 -1.0601015,0.3502538 -1.0601015,1.0647715 V 6.701523 c 0,0.7145178 0.3502538,1.0647716 1.0601015,1.0647716 h 0.4296447 c 0.7098477,0 1.0601017,-0.3502538 1.0601017,-1.0647716 V 5.3658885 H 10.12424 M 7.0980477,1.9894418 H 7.9713471 V 7.7195941 H 7.0980477 Z M 5.8324639,4.5346195 c 0,0.2288325 -0.1074112,0.3362436 -0.3269036,0.3362436 H 5.1459664 V 2.7600002 h 0.3595939 c 0.2194924,0 0.3269036,0.1074112 0.3269036,0.3362437 z M 5.6456619,1.9894418 H 4.277337 V 7.7195941 H 5.1506365 V 5.6414215 h 0.4950254 c 0.7098477,0 1.0601015,-0.3502538 1.0601015,-1.0647716 V 3.0542134 c 0,-0.7145178 -0.3502538,-1.0647716 -1.0601015,-1.0647716 z M 3.9551035,12.89868 H 8.9473878 L 6.4022101,13.739289 3.9551035,12.89868"
     id="path2"
     style="stroke-width:0.0467005" />
  <metadata
     id="metadata2">
    <rdf:RDF>
      <cc:Work
         rdf:about="">
        <dc:title>Untitled 6</dc:title>
      </cc:Work>
    </rdf:RDF>
  </metadata>
</svg>
