<?xml version="1.0" encoding="UTF-8" standalone="no"?>
<svg
   width="100"
   height="100.01176"
   viewBox="0 0 9.85884 9.86116"
   version="1.1"
   id="svg25"
   xmlns="http://www.w3.org/2000/svg"
   xmlns:svg="http://www.w3.org/2000/svg">
  <defs
     id="defs25" />
  <path
     fill="#ffffff"
     d="m -5.8e-4,-5e-8 h 9.86 V 9.86116 h -9.86 z"
     id="path1"
     style="stroke-width:0.0400047" />
  <linearGradient
     id="a"
     gradientUnits="userSpaceOnUse"
     x1="129.12199"
     y1="87.130997"
     x2="-14.704"
     y2="112.492"
     gradientTransform="matrix(0.01937428,0,0,0.01937428,2.5542808,2.8472552)">
    <stop
       offset=".006"
       stop-color="#8b8eaa"
       id="stop1" />
    <stop
       offset=".254"
       stop-color="#8286a4"
       id="stop2" />
    <stop
       offset="1"
       stop-color="#4b557b"
       id="stop3" />
  </linearGradient>
  <path
     fill="url(#a)"
     d="M 2.4034228,2.6124673 2.3744594,5.4687234 4.8929957,6.9547781 4.9219191,4.0695588 Z"
     id="path3"
     style="fill:url(#a);stroke-width:0.0400047" />
  <linearGradient
     id="b"
     gradientUnits="userSpaceOnUse"
     x1="251.94"
     y1="139.362"
     x2="120.803"
     y2="63.650002"
     gradientTransform="matrix(0.01937428,0,0,0.01937428,2.5542808,2.8472552)">
    <stop
       offset="0"
       stop-color="#d8d7e1"
       id="stop4" />
    <stop
       offset=".07"
       stop-color="#bdbdce"
       id="stop5" />
    <stop
       offset=".253"
       stop-color="#868aa7"
       id="stop6" />
    <stop
       offset=".431"
       stop-color="#62698c"
       id="stop7" />
    <stop
       offset=".599"
       stop-color="#49547a"
       id="stop8" />
    <stop
       offset=".754"
       stop-color="#38476f"
       id="stop9" />
    <stop
       offset=".893"
       stop-color="#2e4068"
       id="stop10" />
    <stop
       offset="1"
       stop-color="#2b3d66"
       id="stop11" />
  </linearGradient>
  <path
     fill="url(#b)"
     d="M 7.3825686,2.6414308 7.3729275,5.5362913 4.8929957,6.9547781 4.9219191,4.0695588 Z"
     id="path11"
     style="fill:url(#b);stroke-width:0.0400047" />
  <linearGradient
     id="c"
     gradientUnits="userSpaceOnUse"
     x1="87.702003"
     y1="45.800999"
     x2="153.77901"
     y2="-68.647003"
     gradientTransform="matrix(0.01937428,0,0,0.01937428,2.5542808,2.8472552)">
    <stop
       offset="0"
       stop-color="#d8d7e1"
       id="stop12" />
    <stop
       offset=".07"
       stop-color="#bdbdce"
       id="stop13" />
    <stop
       offset=".253"
       stop-color="#868aa7"
       id="stop14" />
    <stop
       offset=".431"
       stop-color="#62698c"
       id="stop15" />
    <stop
       offset=".599"
       stop-color="#49547a"
       id="stop16" />
    <stop
       offset=".754"
       stop-color="#38476f"
       id="stop17" />
    <stop
       offset=".893"
       stop-color="#2e4068"
       id="stop18" />
    <stop
       offset="1"
       stop-color="#2b3d66"
       id="stop19" />
  </linearGradient>
  <path
     fill="url(#c)"
     d="M 2.4034228,2.6124673 4.9219191,4.0695588 7.3825686,2.6414308 4.8971162,1.1884997 Z"
     id="path19"
     style="fill:url(#c);stroke-width:0.0400047" />
  <path
     fill="#ffffff"
     d="M 7.4775398,2.5851841 6.0590929,3.4095611 4.9227592,2.7275209 3.7544218,3.3951194 3.73926,4.7227556 4.9084775,5.3984351 6.0379704,4.7682409 6.0531322,4.3130674 6.6220791,3.9716673 6.6225592,5.0592351 4.9025568,6.0579527 3.1551113,5.0717166 V 3.0613202 L 4.8923956,2.0674832 6.068294,2.7730462 6.8707084,2.29483 Z"
     id="path20"
     style="stroke-width:0.0400047" />
  <g
     id="g24"
     transform="matrix(0.04000471,0,0,0.04000471,-5.8e-4,-5e-8)">
    <path
       d="m 131.973,195.527 v -1.457 h -4.162 c -0.535,0 -1.041,0.119 -1.487,0.327 -0.446,0.209 -0.803,0.506 -1.07,0.862 -0.267,0.356 -0.387,0.744 -0.417,1.189 v 4.489 c 0.03,0.417 0.149,0.803 0.387,1.16 0.268,0.356 0.624,0.624 1.041,0.861 a 3.4,3.4 0 0 0 1.487,0.328 h 4.222 v -1.457 h -4.044 c -0.327,0 -0.624,-0.09 -0.891,-0.269 -0.24,-0.178 -0.387,-0.386 -0.387,-0.683 v -1.665 h 5.322 v -1.487 h -5.322 v -1.219 c 0,-0.298 0.147,-0.535 0.387,-0.714 0.267,-0.179 0.563,-0.268 0.891,-0.268 h 4.043 z m 10.764,7.761 v -7.195 l 3.745,7.195 h 1.814 v -9.218 h -1.843 v 5.888 l -3.093,-5.888 h -2.438 v 9.218 z m 14.51,-9.218 v 9.247 h 4.459 c 0.565,-0.029 1.07,-0.119 1.517,-0.327 0.476,-0.237 0.833,-0.505 1.1,-0.862 0.268,-0.356 0.387,-0.772 0.416,-1.219 v -4.46 c -0.029,-0.445 -0.148,-0.833 -0.416,-1.189 a 2.703,2.703 0 0 0 -1.1,-0.862 3.55,3.55 0 0 0 -1.517,-0.327 h -4.459 z m 5.262,1.725 c 0.267,0.179 0.386,0.416 0.416,0.714 v 4.371 c -0.03,0.297 -0.149,0.535 -0.416,0.713 -0.238,0.208 -0.536,0.298 -0.863,0.298 h -2.586 v -6.393 h 2.586 c 0.327,0 0.625,0.089 0.863,0.297 z m 16.709,-1.486 c -0.446,-0.208 -0.951,-0.298 -1.516,-0.327 h -1.636 c -0.565,0.029 -1.07,0.119 -1.517,0.327 -0.476,0.238 -0.833,0.505 -1.101,0.862 a 2.01,2.01 0 0 0 -0.416,1.219 v 4.608 c 0,0.446 0.148,0.833 0.416,1.189 0.268,0.357 0.625,0.654 1.101,0.862 a 3.55,3.55 0 0 0 1.517,0.327 h 1.636 c 0.564,0 1.069,-0.119 1.516,-0.327 a 2.697,2.697 0 0 0 1.101,-0.862 c 0.268,-0.356 0.416,-0.772 0.416,-1.189 v -4.608 c -0.029,-0.445 -0.148,-0.862 -0.416,-1.219 -0.268,-0.358 -0.625,-0.624 -1.101,-0.862 z m -0.714,1.397 c 0.268,0.208 0.417,0.445 0.417,0.714 v 4.519 c 0,0.268 -0.149,0.506 -0.417,0.714 a 1.432,1.432 0 0 1 -0.861,0.298 h -1.517 c -0.327,0 -0.625,-0.119 -0.893,-0.298 -0.237,-0.208 -0.386,-0.446 -0.386,-0.714 v -4.519 c 0,-0.269 0.148,-0.506 0.386,-0.714 0.268,-0.179 0.565,-0.268 0.893,-0.298 h 1.517 c 0.326,0.03 0.624,0.119 0.861,0.298 z"
       fill="#b3bad0"
       id="path21" />
    <path
       d="m 182.935,209.145 v -2.527 h -12.756 v 12.012 h 12.875 v -2.706 h -9.514 v -2.26 h 5.469 v -2.526 h -5.469 v -1.993 z m -14.152,-0.03 c 0.029,-0.832 -0.208,-1.486 -0.714,-1.873 -0.477,-0.416 -1.219,-0.624 -2.23,-0.624 h -10.495 v 12.041 h 9.753 c 2.556,-0.029 3.805,-0.861 3.805,-2.557 v -1.457 c 0,-1.011 -0.445,-1.754 -1.368,-2.17 0.833,-0.387 1.25,-1.041 1.25,-1.963 v -1.397 z m -3.241,0.06 c 0.119,0.119 0.179,0.238 0.148,0.417 v 1.1 a 0.387,0.387 0 0 1 -0.148,0.387 l -0.833,0.148 h -6.006 v -2.171 h 6.006 c 0.447,0 0.744,0.059 0.833,0.119 z m -6.839,6.839 v -2.35 h 6.035 c 0.447,0 0.715,0.06 0.863,0.149 0.119,0.119 0.178,0.298 0.178,0.595 v 0.862 c 0,0.268 -0.059,0.476 -0.178,0.564 -0.148,0.119 -0.416,0.179 -0.863,0.179 h -6.035 z m -4.817,-9.396 h -3.359 v 9.306 h -7.285 v -9.306 h -3.359 v 9.038 c -0.03,0.743 0.089,1.339 0.297,1.784 0.179,0.416 0.535,0.743 1.012,0.923 0.476,0.207 1.1,0.296 1.932,0.267 h 7.493 c 0.833,0.029 1.486,-0.06 1.962,-0.267 0.476,-0.18 0.804,-0.507 1.012,-0.923 0.208,-0.445 0.297,-1.041 0.297,-1.784 v -9.038 z m -15.638,1.219 c -0.21,-0.445 -0.565,-0.743 -1.012,-0.951 -0.476,-0.179 -1.13,-0.268 -1.933,-0.268 h -7.344 c -0.833,0 -1.458,0.089 -1.933,0.268 -0.475,0.208 -0.832,0.506 -1.01,0.951 -0.208,0.446 -0.328,1.04 -0.298,1.784 v 6.035 c -0.03,0.743 0.089,1.339 0.298,1.784 0.178,0.416 0.535,0.743 1.01,0.923 0.476,0.207 1.1,0.296 1.933,0.267 h 7.344 c 0.803,0.029 1.457,-0.06 1.933,-0.267 0.446,-0.18 0.802,-0.507 1.012,-0.923 0.178,-0.445 0.297,-1.041 0.297,-1.784 v -2.2 l -3.36,0.03 v 2.438 h -7.136 v -6.659 h 7.136 v 2.14 h 3.36 v -1.783 c -10e-4,-0.773 -0.12,-1.368 -0.297,-1.785 z m -16.057,1.308 v -2.527 h -12.755 v 12.012 h 12.875 v -2.706 h -9.516 v -2.26 h 5.472 v -2.526 h -5.472 v -1.993 z"
       id="path22" />
    <path
       fill="#b3bad0"
       d="m 71.081,194.07 h -1.814 v 5.888 l -3.092,-5.888 h -2.468 v 9.218 h 1.814 v -7.195 l 3.776,7.195 h 1.784 z m 12.309,9.218 v -9.218 h -2.081 v 9.218 z m 12.042,0 v -7.195 l 3.746,7.195 h 1.814 v -9.218 h -1.844 v 5.888 l -3.092,-5.888 h -2.467 v 9.218 z m 13.766,-9.218 v 1.457 h 3.062 v 7.761 h 1.963 v -7.761 h 3.092 v -1.457 z"
       id="path23" />
    <path
       d="m 104.857,206.618 -5.114,8.503 -5.084,-8.503 h -3.062 v 9.901 l -5.977,-9.901 h -3.003 l -7.165,12.012 h 8.979 v -2.706 h -4.014 l 3.717,-5.976 5.025,8.682 h 5.529 v -6.422 l 3.836,6.422 h 2.468 l 3.865,-6.422 v 6.422 h 3.093 v -12.012 z m -29.137,2.616 v -2.616 H 64.391 c -0.803,0 -1.457,0.089 -1.933,0.268 -0.476,0.208 -0.802,0.506 -1.011,0.951 -0.208,0.446 -0.297,1.04 -0.297,1.784 v 6.035 c 0,0.743 0.089,1.339 0.297,1.784 0.209,0.416 0.535,0.743 1.011,0.923 0.476,0.207 1.13,0.296 1.933,0.267 h 8.236 c 1.188,0.029 2.021,-0.179 2.526,-0.624 0.476,-0.476 0.714,-1.249 0.685,-2.35 v -4.252 h -7.79 v 2.528 h 4.52 v 1.991 H 64.51 v -6.689 z"
       id="path24" />
  </g>
  <g
     id="g25"
     transform="matrix(0.04000471,0,0,0.04000471,-5.8e-4,-5e-8)">
    <path
       d="m 190.212,215.936 h -0.51 l -0.613,1.938 a 0.83,0.83 0 0 0 -0.152,0.409 2.206,2.206 0 0 1 -0.154,-0.356 l -0.664,-1.99 h -0.51 v 2.755 h 0.308 v -2.348 l 0.816,2.348 h 0.304 l 0.817,-2.297 v 2.297 h 0.358 z m -3.879,0.356 h 0.869 v -0.356 h -2.144 v 0.356 h 0.919 v 2.398 h 0.356 z"
       id="path25" />
  </g>
</svg>
