<?xml version="1.0" encoding="UTF-8" standalone="no"?>
<!-- Generator: Adobe Illustrator 18.0.0, SVG Export Plug-In . SVG Version: 6.00 Build 0)  -->

<svg
   version="1.1"
   id="svg2"
   x="0px"
   y="0px"
   viewBox="0.9 -0.2 100 16.757948"
   enable-background="new 0.9 -0.2 1186.1 199"
   xml:space="preserve"
   width="100"
   height="16.757948"
   xmlns="http://www.w3.org/2000/svg"
   xmlns:svg="http://www.w3.org/2000/svg"><defs
   id="defs12" />
<polyline
   points="1174.2,20.4 1174.2,27.6 1158.2,37.5 1174.2,37.5 1174.2,44.6 1151.3,44.6 1151.3,37.5 1167.3,27.5 1151.3,27.5   1151.3,20.4 1174.2,20.4 "
   id="polyline1"
   transform="matrix(0.08431009,0,0,0.08431009,0.82391935,-0.19452461)" />
<polyline
   points="1171.9,83.1 1171.9,90 1168.7,90 1168.7,93.8 1166.5,93.8 1166.5,90 1151.3,90 1151.3,83.1 1166.5,83.1   1166.5,79.4 1168.7,79.4 1168.7,83.1 1171.9,83.1 "
   id="polyline2"
   transform="matrix(0.08431009,0,0,0.08431009,0.82391935,-0.19452461)" />
<rect
   x="97.890137"
   y="3.894515"
   width="1.2815135"
   height="0.58173966"
   id="rect2"
   style="stroke-width:0.0843101" />
<rect
   x="99.424576"
   y="3.894515"
   width="0.39625743"
   height="0.58173966"
   id="rect3"
   style="stroke-width:0.0843101" />
<path
   d="m 99.264384,14.096036 c 0,-0.472137 -0.320378,-0.851532 -0.725067,-0.851532 -0.396257,0 -0.725067,0.379395 -0.725067,0.851532 0,0.472136 0.32881,0.851532 0.725067,0.851532 0.396258,-0.0084 0.725067,-0.387827 0.725067,-0.851532 m -0.725067,0.227637 c 0,0 -0.193913,0 -0.269792,0 -0.202344,0 -0.286654,-0.118034 -0.286654,-0.236068 0,-0.118034 0.08431,-0.236068 0.286654,-0.236068 0.07588,0 0.278223,0 0.278223,0 0,0 0.193913,0 0.269792,0 0.202345,0 0.286655,0.118034 0.286655,0.236068 0,0.118034 -0.08431,0.236068 -0.286655,0.236068 -0.08431,0 -0.227637,0 -0.278223,0 z"
   id="path3"
   style="stroke-width:0.0843101" />
<path
   d="m 98.539317,12.485713 c 0,0 0.160189,0 0.227637,0 0.202345,0 0.252931,-0.134896 0.252931,-0.227637 0,-0.09274 -0.05059,-0.227637 -0.252931,-0.227637 -0.06745,0 -0.227637,0 -0.227637,0 0,0 -0.160189,0 -0.227637,0 -0.202344,0 -0.25293,0.134896 -0.25293,0.227637 0,0.09274 0.05059,0.227637 0.25293,0.227637 0.07588,0 0.227637,0 0.227637,0 m 1.281514,-0.0084 v 0.573309 h -1.930702 v -0.58174 c 0,0 0.05902,0 0.07588,0 -0.143327,-0.219206 -0.143327,-0.472136 -0.05059,-0.674481 0.02529,-0.05059 0.185483,-0.396257 0.640757,-0.396257 0.337241,0 0.708205,0.320378 0.674481,0.741929 -0.01686,0.134896 -0.06745,0.236068 -0.118034,0.328809 0.295085,0.0084 0.708205,0.0084 0.708205,0.0084 z"
   id="path4"
   style="stroke-width:0.0843101" />
<path
   d="m 99.23066,5.842078 c 0.0084,0.2192062 -0.134896,0.6576187 -0.649188,0.6576187 -0.09274,0 -0.699774,0 -0.699774,0 V 5.9179571 c 0,0 0.767222,0 0.843101,0 0.109603,0 0.236069,-0.1096031 0.236069,-0.2697923 0,-0.1601892 -0.118035,-0.2782233 -0.236069,-0.2782233 -0.05902,0 -0.843101,0 -0.843101,0 V 4.7882018 h 1.281514 v 0.5817397 c 0,0 -0.101172,0 -0.134896,0 0.118034,0.1180341 0.202344,0.2782233 0.202344,0.4721365"
   id="path5"
   style="stroke-width:0.0843101" />
<path
   d="m 99.23066,10.571874 c 0.0084,0.219206 -0.134896,0.657619 -0.649188,0.657619 -0.09274,0 -0.699774,0 -0.699774,0 v -0.58174 c 0,0 0.767222,0 0.843101,0 0.109603,0 0.236069,-0.109603 0.236069,-0.261361 0,-0.160189 -0.118035,-0.278224 -0.236069,-0.278224 -0.05902,0 -0.843101,0 -0.843101,0 V 9.5348601 h 1.281514 v 0.5733079 c 0,0 -0.101172,0 -0.134896,0 0.118034,0.109604 0.202344,0.269793 0.202344,0.463706"
   id="path6"
   style="stroke-width:0.0843101" />
<path
   d="m 98.336973,8.7339142 c 0,0 -0.0084,0 -0.07588,0 -0.236068,0 -0.286654,-0.1517582 -0.286654,-0.2444993 0,-0.08431 0.05059,-0.2444992 0.286654,-0.2444992 0.06745,0 0.261361,0 0.261361,0 0,0 0,1.0960312 0,1.0960312 0.396258,0 0.725067,-0.3878265 0.725067,-0.859963 0,-0.4721365 -0.320378,-0.8599629 -0.725067,-0.8599629 -0.404688,0 -0.725067,0.3878264 -0.725067,0.8599629 0,0.3962575 0.219207,0.7250668 0.522723,0.8262389 V 8.7339142 m 0.404689,-0.4805675 c 0.109603,0 0.185483,0 0.252931,0.042155 0.07588,0.042155 0.118034,0.1264652 0.118034,0.2023442 0,0.075879 -0.03372,0.1601892 -0.118034,0.2023443 -0.06745,0.033724 -0.143328,0.033724 -0.252931,0.033724 z"
   id="path7"
   style="stroke-width:0.0843101" />
<path
   d="m 99.534176,14.981292 v 0.04215 c 0,0.04216 0.01686,0.06745 0.05059,0.06745 0.03372,0 0.05059,-0.02529 0.05059,-0.07588 v -0.03372 h -0.101172 m -0.02529,0.286654 c -0.134896,0 -0.244499,-0.109603 -0.244499,-0.244499 0,-0.134896 0.109603,-0.244499 0.244499,-0.244499 0.134896,0 0.236068,0.109603 0.236068,0.244499 0,0.134896 -0.101172,0.244499 -0.236068,0.244499 z m 0.295086,-0.244499 c 0,-0.160189 -0.134897,-0.295085 -0.295086,-0.295085 -0.16862,0 -0.295085,0.134896 -0.295085,0.295085 0,0.16862 0.134896,0.295085 0.295085,0.295085 0.160189,0.0084 0.295086,-0.126465 0.295086,-0.295085 z m -0.126466,0.0084 c 0,0.09274 -0.03372,0.143327 -0.09274,0.143327 -0.04215,0 -0.07588,-0.02529 -0.09274,-0.07588 l -0.143327,0.07588 v -0.08431 l 0.134896,-0.05902 v -0.05059 h -0.134896 v -0.07588 h 0.328809 v 0.126465 z"
   id="path8"
   style="stroke-width:0.0843101" />
<path
   d="M 97.299959,14.509155 V 1.9216587 c 0,-0.859963 0.699774,-1.55130569 1.551305,-1.55130569 0.851532,0 1.551306,0.69977369 1.551306,1.55130569 V 14.509155 c 0,0.859963 -0.699774,1.559737 -1.551306,1.559737 -0.859962,0 -1.551305,-0.699774 -1.551305,-1.559737 m 3.600041,0 V 1.9216587 c 0,-1.12975522 -0.91898,-2.04873524 -2.048736,-2.04873524 -1.129755,0 -2.048735,0.91054901 -2.048735,2.04873524 V 14.509155 c 0,1.138187 0.91898,2.048736 2.048735,2.048736 C 99.98102,16.566291 100.9,15.647342 100.9,14.509155 Z"
   id="path9"
   style="stroke-width:0.0843101" />
<path
   d="m 19.009606,8.2870707 1.382686,-3.0857494 0.607032,3.0857494 H 19.009606 M 38.577979,0.21859484 34.82618,8.9446894 33.165271,0.21859484 H 29.936194 L 25.341294,13.075884 23.191387,0.21859484 H 19.161364 L 13.057314,14.079174 13.967863,8.2870707 H 7.9059672 L 7.4253997,11.271648 h 2.5461648 l -0.2950853,1.59346 C 8.2263456,13.46371 5.7644909,13.236073 4.7106147,11.347527 4.044565,10.150323 3.4206703,7.4861248 6.2281964,5.0327011 8.5214309,3.0345519 12.484005,2.6720185 14.768809,3.7174637 c 0,0 0.286654,-1.6777709 0.50586,-3.22907656 C 10.882113,-1.0291946 7.4675547,0.23545686 5.1827512,1.6518664 2.0548468,3.5657055 0.55412705,6.5081277 0.96724651,10.504426 1.4309521,15.13305 7.4253997,18.05861 12.509298,15.107757 c 0.05902,-0.02529 0.08431,-0.05059 0.134896,-0.05902 l -0.488998,1.079169 h 3.414558 l 2.149908,-4.76352 h 3.777092 l 0.826239,4.76352 h 5.564466 l 2.832819,-8.8947145 2.326959,8.8947145 h 2.1752 l 3.734937,-9.8474185 1.475427,9.9064355 h 3.2628 L 42.506829,0.21859484 Z"
   id="path10"
   style="stroke-width:0.0843101" />
<polyline
   points="508.5,194.4 616.6,194.4 623.1,154 555.5,154 560.8,120.3 619.7,120.3 626.1,79.8 566.7,79.8 571.8,46.3   639.5,46.3 645.9,5.8 538.6,5.8 508.5,194.4 "
   id="polyline10"
   transform="matrix(0.08431009,0,0,0.08431009,0.82391935,-0.19452461)" />
<polyline
   points="1043.8,65.1 1019.6,3.6 975.2,3.6 1021,103.1 1006.8,192.2 1045.7,192.2 1057.5,113.4 1127.4,3.6 1082,3.6   1043.8,65.1 "
   id="polyline11"
   transform="matrix(0.08431009,0,0,0.08431009,0.82391935,-0.19452461)" />
<path
   d="m 81.120852,9.7119113 c -0.876825,2.6304747 -3.001439,4.1649187 -4.729796,3.3808347 -1.719926,-0.767222 -2.4197,-3.5410239 -1.534444,-6.1883608 0.885256,-2.655768 3.001439,-4.1564876 4.721365,-3.3892658 1.728357,0.7756529 2.428131,3.549455 1.542875,6.1967919 M 79.847769,0.361922 c -3.625334,-0.83466992 -7.393995,2.0487352 -8.414147,6.4412911 -1.00329,4.4009869 1.104462,8.6417839 4.721365,9.4848849 3.625334,0.826239 7.385565,-2.057166 8.414148,-6.4497216 1.00329,-4.4009868 -1.112894,-8.6417845 -4.721366,-9.4764544 z"
   id="path11"
   style="stroke-width:0.0843101" />
<path
   d="m 65.009193,6.718903 c -1.795805,0 -2.25951,0 -2.25951,0 l 0.497429,-2.9508533 c 0,0 0.06745,0 2.124614,0 2.310097,0 1.83796,2.9508533 -0.362533,2.9508533 m -0.396257,6.424429 c -1.804236,0 -2.883406,0 -2.883406,0 l 0.505861,-3.1700597 c 0,0 0.682912,0 2.731647,0 2.605182,0 2.529303,3.1700597 -0.354102,3.1700597 z M 66.526775,0.40407705 c -1.762081,-0.025293 -6.120913,0 -6.120913,0 h 0.03372 L 57.910283,16.195357 c 0,0 5.235657,0 7.360271,0 3.035164,0 7.461444,-4.460004 3.42299,-8.1021995 4.131195,-4.2913838 0.03372,-7.63849439 -2.166769,-7.68908045 z"
   id="path12"
   style="stroke-width:0.0843101" />
</svg>
