<?xml version="1.0" encoding="UTF-8" standalone="no"?>
<!-- Created with Inkscape (http://www.inkscape.org/) -->

<svg
   width="100"
   height="100"
   viewBox="0 0 100 100"
   version="1.1"
   id="svg1"
   xml:space="preserve"
   xmlns="http://www.w3.org/2000/svg"
   xmlns:svg="http://www.w3.org/2000/svg"><defs
     id="defs1" /><g
     id="layer1"><g
       fill-rule="evenodd"
       clip-rule="evenodd"
       id="g13"
       transform="matrix(0.56899271,0,0,0.56899271,-4.8380446,-4.838662)"><path
         d="m 177.396,107.396 a 2.922,2.922 0 0 0 2.922,2.922 h 1.012 a 2.922,2.922 0 0 0 2.922,-2.922 V 84.437 a 2.923,2.923 0 0 0 -2.922,-2.922 h -1.012 a 2.923,2.923 0 0 0 -2.922,2.922 z"
         id="path2" /><path
         d="m 177.785,107.383 a 2.557,2.557 0 0 0 2.557,2.557 h 0.973 a 2.557,2.557 0 0 0 2.557,-2.557 V 84.437 a 2.556,2.556 0 0 0 -2.557,-2.556 h -0.973 a 2.557,2.557 0 0 0 -2.557,2.556 z"
         fill="#ffffff"
         id="path3" /><path
         d="m 179.428,106.641 c 0,0.818 0.541,1.48 1.211,1.48 0.668,0 1.209,-0.662 1.209,-1.48 0,-0.816 -0.541,-1.479 -1.209,-1.479 -0.67,0 -1.211,0.662 -1.211,1.479 z m 1.185,-10.526 v 1.924 h 0.025 c 0.668,0 1.209,-0.662 1.209,-1.48 0,-0.816 -0.541,-1.479 -1.209,-1.479 -0.67,0 -1.211,0.663 -1.211,1.479 0,0.666 0.359,1.229 0.852,1.414 l 0.002,-0.969 H 180.1 a 0.445,0.445 0 1 1 0,-0.888 h 0.513 z m 1.516,-6.975 h 0.633 v -0.887 h -0.633 z m -2.633,0 h 2.221 v -0.887 h -2.221 z m 1.229,-2.536 h 2.037 v 0.888 h -3.266 v -0.8 l 2.236,-1.482 c 0.166,-0.119 0.086,-0.246 -0.064,-0.253 h -2.172 v -0.888 h 3.266 v 0.967 l -2.131,1.403 c -0.08,0.054 -0.065,0.157 0.094,0.165 z m 0.992,3.297 h -2.221 v 0.888 h 1.348 c 0.793,0 0.777,1.11 -0.031,1.11 h -1.316 v 0.888 h 1.617 c 0.381,0 0.746,-0.444 0.746,-0.919 0,-0.365 -0.207,-0.935 -0.365,-1.078 h 0.223 v -0.889 z m 0,8.624 h -2.221 v 0.887 h 1.348 c 0.793,0 0.777,1.109 -0.031,1.109 h -1.316 v 0.889 h 1.617 c 0.381,0 0.746,-0.443 0.746,-0.92 0,-0.363 -0.207,-0.936 -0.365,-1.078 h 0.223 v -0.887 z m -2.063,5.262 a 1.323,1.323 0 0 1 -0.236,-0.729 c 0,-0.57 0.127,-1.141 1.221,-1.141 1.188,0 1.131,0.92 1.156,1.141 0.016,0.143 -0.055,0.477 -0.238,0.729 h 1.205 v 0.889 h -3.266 v -0.889 z m -0.158,-10.176 h 2.221 v -0.65 h 0.252 v 0.65 h 0.302 v 0.888 h -0.302 v 0.649 h -0.252 v -0.649 h -2.221 z"
         id="path4" /><path
         d="m 179.654,106.641 c 0,-0.244 0.199,-0.443 0.445,-0.443 h 1.045 a 0.444,0.444 0 1 1 0,0.888 H 180.1 a 0.446,0.446 0 0 1 -0.446,-0.445 z m 1.293,-10.526 v 0.889 h 0.197 a 0.445,0.445 0 1 0 0,-0.888 h -0.197 z m 0.246,7.672 c 0.363,-0.236 0.316,-0.887 -0.285,-0.887 h -0.572 c -0.379,0 -0.871,0.301 -0.348,0.887 z"
         fill="#ffffff"
         id="path5" /><path
         d="m 182.523,108.305 a 0.44650028,0.44650028 0 1 0 -0.893,-0.001 0.44650028,0.44650028 0 0 0 0.893,0.001 z"
         id="path6" /><path
         d="m 182.469,108.305 a 0.393,0.393 0 1 1 -0.785,-0.001 0.393,0.393 0 0 1 0.785,0.001 z"
         fill="#ffffff"
         id="path7" /><path
         d="m 182.059,108.201 v 0.111 l -0.23,0.143 v 0.072 l 0.23,-0.15 c 0.002,0.088 0.039,0.158 0.137,0.158 0.041,0 0.086,-0.02 0.107,-0.057 0.021,-0.037 0.025,-0.08 0.025,-0.121 v -0.217 h -0.5 v 0.061 z"
         id="path8" /><path
         d="m 182.283,108.201 v 0.143 c 0,0.061 -0.01,0.129 -0.088,0.129 -0.1,0 -0.09,-0.109 -0.09,-0.18 v -0.092 z"
         fill="#ffffff"
         id="path9" /><path
         d="m 153.559,82.249 h 7.134 l 3.524,8.102 5.283,-8.102 h 7.311 l -10.305,16.028 -1.674,12.506 h -6.605 l 1.937,-14.267 z m -52.491,28.534 0.881,-6.342 H 91.91 l 0.616,-4.931 h 8.718 l 0.881,-6.341 h -8.63 l 0.616,-4.58 h 10.039 l 0.969,-6.34 H 88.475 l -3.964,28.534 z m -59.272,-14.092 2.202,-5.9 0.705,5.9 z m -2.378,5.637 h 5.989 l 1.057,8.455 h 10.833 l 5.02,-15.5 2.466,15.5 h 5.725 l 6.341,-16.38 1.057,16.38 h 6.341 L 82.486,82.248 h -7.574 l -5.9,15.06 -2.291,-15.06 H 59.94 l -7.75,23.427 -2.907,-23.427 h -8.455 l -9.423,23.691 1.233,-9.248 h -11.45 l -0.793,5.637 h 5.02 l -0.352,1.938 c -0.881,0.529 -2.906,0.617 -3.699,0.617 -0.792,0 -6.693,-0.529 -6.429,-6.869 0.264,-6.342 8.719,-12.242 18.759,-8.983 l 0.969,-6.077 c -6.694,-2.29 -24.273,-1.008 -26.07,14.707 -1.056,9.248 7.398,13.652 13.035,13.564 3.258,0.176 6.957,-1.057 8.278,-1.762 l -0.44,1.32 h 6.694 z"
         id="path10" /><path
         d="m 146.426,81.984 c -4.58,-0.176 -11.186,2.466 -13.387,13.123 -2.203,10.657 3.699,14.971 9.158,15.676 5.461,0.705 13.123,-2.73 14.533,-12.945 1.409,-10.217 -3.611,-15.589 -10.304,-15.854 z m -0.705,6.077 c 1.85,0 5.812,1.233 4.844,8.63 -0.969,7.398 -5.549,8.279 -7.221,8.104 -1.674,-0.176 -5.109,-1.32 -4.141,-8.104 0.969,-6.78 4.58,-8.718 6.518,-8.63 z"
         id="path11" /><path
         d="m 118.596,93.169 h 3.697 c 2.73,0 3.26,-1.761 3.348,-2.466 0.088,-0.705 -0.705,-2.114 -2.113,-2.114 h -4.316 z m -1.586,11.272 h 5.02 c 2.73,0 3.348,-2.113 3.436,-2.818 0.088,-0.703 -0.705,-2.113 -2.113,-2.113 h -5.637 z m -7.399,6.342 3.963,-28.535 h 12.154 c 2.906,0 7.135,3.347 6.605,7.838 -0.527,4.492 -1.938,4.756 -2.906,5.46 1.496,1.322 2.994,3.435 2.379,7.398 -0.617,3.963 -3.877,7.838 -9.602,7.838 h -12.593 z m 58.793,-4.316 a 1.963,1.963 0 1 0 0,3.926 1.96,1.96 0 0 0 1.957,-1.969 c 0,-1.08 -0.877,-1.957 -1.957,-1.957 v -0.27 c 1.232,0 2.225,1 2.225,2.227 a 2.228,2.228 0 0 1 -2.225,2.238 2.2325,2.2325 0 1 1 0,-4.465 z"
         id="path12" /><path
         d="m 167.877,107.4 h 0.713 c 0.311,0 0.648,0.047 0.648,0.434 0,0.508 -0.543,0.449 -0.893,0.449 h -0.469 v 0.24 h 0.562 l 0.713,1.15 h 0.361 l -0.754,-1.15 c 0.445,-0.012 0.789,-0.193 0.789,-0.684 0,-0.211 -0.094,-0.432 -0.281,-0.537 -0.186,-0.111 -0.396,-0.123 -0.607,-0.123 h -1.086 v 2.494 h 0.303 V 107.4 Z"
         id="path13" /></g></g></svg>
