<?xml version="1.0" encoding="UTF-8" standalone="no"?>
<!-- Generator: Adobe Illustrator 18.0.0, SVG Export Plug-In . SVG Version: 6.00 Build 0)  -->

<svg
   version="1.1"
   id="Layer_1"
   x="0px"
   y="0px"
   viewBox="0 0 99.999997 11.641193"
   enable-background="new 0 0 401.7 46.8"
   xml:space="preserve"
   width="100"
   height="11.641192"
   xmlns="http://www.w3.org/2000/svg"
   xmlns:svg="http://www.w3.org/2000/svg"><defs
   id="defs7" />
<path
   fill="#1f00cc"
   d="m 35.121737,0.22451218 c 1.269682,0 2.04145,0.54770599 2.788321,1.44395222 0.273853,-0.2489573 0.547706,-0.4730188 0.871351,-0.67218468 0.771767,-0.49791454 1.643118,-0.74687181 2.514468,-0.74687181 H 52.996869 L 52.225101,1.4692986 66.91358,1.4444026 68.25795,3.7597052 69.452945,1.4692984 h 9.759125 l 2.414885,1.8920752 V 1.4692986 H 99.999998 V 10.257491 H 83.046011 L 80.581334,8.3405192 V 10.257491 H 66.838893 v 0 L 65.917751,8.7388508 C 65.17088,9.5853055 63.82651,10.257491 61.610791,10.257491 H 49.411884 c -0.398331,0.398331 -0.821559,0.448123 -1.319473,0.423227 l -0.124479,0.796663 H 43.26264 l 0.09958,-0.672184 c -0.04979,0.0249 -0.09958,0.07469 -0.149375,0.09958 -1.095412,0.672185 -2.340198,0.896247 -3.510297,0.622394 -0.896246,-0.199166 -1.69291,-0.697081 -2.290407,-1.34437 -0.796663,0.771768 -1.86718,1.294578 -2.887904,1.294578 L 11.396106,11.502279 11.02267,9.3861417 10.076633,11.502279 H 6.2177986 C 4.997908,11.701443 3.7780173,11.527173 2.6826053,10.979467 1.1888617,10.182803 0.19303263,8.7886423 0.04365827,7.2202115 -0.23019473,4.6061602 0.79053008,2.5149191 2.9315626,1.1954456 4.997908,-0.07423654 7.1887319,-0.34808954 9.4542431,0.44857372 L 9.8774704,0.59794809 10.026844,0.24940791 h 4.331857 l 0.323644,1.94186669 0.647289,-1.96676242 h 19.792103"
   id="path1"
   style="stroke-width:0.248957" />
<path
   fill="#ffffff"
   d="M 61.336938,7.3695858 H 59.793402 V 4.2327243 h 2.190824 c 1.1701,0 1.742701,0.4730188 1.742701,1.4937436 0,1.2447863 -0.622393,1.6431179 -2.389989,1.6431179 M 72.116787,2.9132507 h -1.792492 l -0.04979,0.099583 -2.016554,3.7094633 -2.165929,-3.7094633 -0.04979,-0.074687 h -1.916971 l 0.149374,0.2489573 0.373436,0.5974975 C 64.050572,3.2119994 63.154326,2.9132507 61.984226,2.9132507 H 58.125389 V 7.7430218 L 55.26238,3.0128336 55.21259,2.9381466 h -1.468848 l -0.04979,0.074687 -3.26134,5.47706 -0.149374,0.2489572 h 1.269682 v 0 h 2.838112 V 7.444273 h -1.668014 l 1.668014,-3.0123829 2.365094,4.2073778 0.04979,0.074687 h 1.892075 v 0 h 2.912801 c 2.514468,0 3.809046,-0.9958291 3.809046,-2.9376958 0,-0.3485402 -0.04979,-0.6472889 -0.124479,-0.9211419 l 2.290407,3.7841505 0.04979,0.074687 h 1.120308 l 0.04979,-0.074687 3.161757,-5.4770599 0.149374,-0.2489573"
   id="path2"
   style="stroke-width:0.248957" />
<polyline
   fill="#ffffff"
   points="334.4,11.7 333.7,11.7 333.7,25.6 316.2,11.9 316,11.7 311.4,11.7 311.4,31.1 299.9,12.1   299.7,11.7 293.8,11.7 293.6,12.1 280.5,34 279.9,35.1 286.9,35.1 286.9,35.1 296.5,35.1 296.5,29.9 289.8,29.9 296.5,17.8   306,34.7 306.2,35.1 313.8,35.1 313.8,35.1 317.6,35.1 317.6,21 335.1,34.9 335.3,35.1 339.9,35.1 339.9,11.7 334.4,11.7 "
   id="polyline2"
   transform="matrix(0.24895727,0,0,0.24895727,-0.00613318,4.5064395e-4)" />
<path
   fill="#ffffff"
   d="m 90.141294,2.9132507 h -3.410715 c -1.194995,0 -1.593326,0.3734359 -1.593326,1.4688479 v 2.8879043 c 0,1.095412 0.398331,1.4688479 1.593326,1.4688479 h 3.410715 c 1.194995,0 1.593326,-0.3734359 1.593326,-1.4688479 V 6.448444 h -0.17427 -1.344369 -0.17427 v 0.8962461 h -3.26134 V 4.2825157 h 3.26134 V 5.079179 h 0.17427 1.518639 V 4.3820986 c 0,-1.1203077 -0.398331,-1.4688479 -1.593326,-1.4688479"
   id="path3"
   style="stroke-width:0.248957" />
<polyline
   fill="#ffffff"
   points="395.2,29.6 377.4,29.6 377.4,25.5 388.1,25.5 388.1,20.4 377.4,20.4 377.4,17 395.6,17 395.6,11.7   370.7,11.7 370.7,35.1 395.9,35.1 395.9,29.6 395.2,29.6 "
   id="polyline3"
   transform="matrix(0.24895727,0,0,0.24895727,-0.00613318,4.5064395e-4)" />
<path
   fill="#ffffff"
   d="M 10.898195,5.8758422 11.620171,4.25762 11.943815,5.8758422 h -1.04562 M 20.83159,1.6684644 18.889723,6.2243824 18.068164,1.6684644 H 16.375255 L 14.184431,8.3903107 13.064123,1.6684644 H 10.972882 L 7.7862294,8.8882252 8.2592482,5.8758422 H 5.0974909 L 4.8485336,7.4193773 H 6.1680071 L 6.0186328,8.2409363 C 5.271761,8.5645807 3.9771831,8.4649978 3.4294772,7.4691688 3.080937,6.8467756 2.7572925,5.4526149 4.2261404,4.1829328 5.4211353,3.1373123 7.4874806,2.9630422 8.6824755,3.5107482 c 0,0 0.1493744,-0.8713505 0.273853,-1.6929095 C 6.6659217,1.0211755 4.8734293,1.6933601 3.6784344,2.4153362 2.0602122,3.4111653 1.2884446,4.9547003 1.4876105,7.0459414 c 0.2489572,2.4148855 3.3609231,3.9335256 6.0247659,2.4148855 0.024896,-0.024896 0.049791,-0.024896 0.049791,-0.024896 L 7.3132106,10.008533 H 9.1057029 L 10.22601,7.5189602 h 1.966763 L 12.616,10.008533 h 2.887904 l 1.468848,-4.6306053 0.946038,4.6306053 h 1.145203 l 2.21572,-5.1285198 0.224061,5.1285198 h 1.69291 L 22.873039,1.6684644 H 20.83159"
   id="path4"
   style="stroke-width:0.248957" />
<polyline
   fill="#ffffff"
   points="93.9,40.1 113,40.1 114.1,32.9 102.1,32.9 103.1,27 113.5,27 114.6,19.8 104.1,19.8 105,13.9   117,13.9 118.1,6.7 99.2,6.7 93.9,40.1 "
   id="polyline4"
   transform="matrix(0.24895727,0,0,0.24895727,-0.00613318,4.5064395e-4)" />
<polyline
   fill="#ffffff"
   points="187.1,17.6 182.9,6.7 175,6.7 183.1,24.3 180.6,40.1 187.5,40.1 189.6,26.1 201.9,6.7 193.9,6.7   187.1,17.6 "
   id="polyline5"
   transform="matrix(0.24895727,0,0,0.24895727,-0.00613318,4.5064395e-4)" />
<path
   fill="#ffffff"
   d="M 42.590455,6.622714 C 42.142332,7.991979 41.022024,8.7886423 40.125778,8.3903107 39.229532,7.991979 38.880992,6.5480269 39.329115,5.1538661 39.777238,3.7846012 40.897546,2.9879379 41.793792,3.3862695 42.714934,3.8094969 43.063474,5.2534491 42.590455,6.622714 M 41.943166,1.7431516 c -1.892075,-0.4232274 -3.858837,1.0705162 -4.381648,3.3609231 -0.52281,2.2904069 0.572602,4.5061266 2.464677,4.9542503 1.892076,0.448123 3.858838,-1.0705169 4.381648,-3.3609238 0.52281,-2.2904069 -0.597497,-4.5061266 -2.464677,-4.9542496"
   id="path5"
   style="stroke-width:0.248957" />
<path
   fill="#ffffff"
   d="m 34.374865,5.0044918 c -0.946037,0 -1.194995,0 -1.194995,0 l 0.273853,-1.5435351 c 0,0 0.0249,0 1.095412,0 1.219891,0 0.995829,1.5435351 -0.17427,1.5435351 m -0.199166,3.3609231 c -0.946037,0 -1.493743,0 -1.493743,0 l 0.273853,-1.643118 c 0,0 0.34854,0 1.419056,0 1.34437,-0.024896 1.319474,1.643118 -0.199166,1.643118 m 0.99583,-6.6471591 c -0.921142,-0.024896 -3.186654,0 -3.186654,0 h 0.0249 l -1.319477,8.2404857 c 0,0 2.713634,0 3.833942,0 1.56843,0 3.883733,-2.3153027 1.792492,-4.2322736 2.141032,-2.2406155 0,-3.9833163 -1.145203,-4.0082121"
   id="path6"
   style="stroke-width:0.248957" />
<path
   fill="#ffffff"
   d="M 48.117307,9.1869739 V 8.8633295 h 0.273853 c 0.124478,0 0.224061,0.024896 0.224061,0.1493743 0,0.1991658 -0.199166,0.1742701 -0.323644,0.1742701 h -0.17427 m 0.323644,0.099583 c 0.17427,0 0.298749,-0.074687 0.298749,-0.273853 0,-0.074687 -0.04979,-0.1742701 -0.09958,-0.1991658 -0.07469,-0.049791 -0.149378,-0.049791 -0.224065,-0.049791 h -0.423227 v 0.9709328 h 0.124479 V 9.3114526 h 0.199165 l 0.273853,0.4232273 H 48.7397 L 48.440951,9.2865568 m -0.09958,0.8215592 c 0.473019,0 0.871351,-0.3734361 0.871351,-0.8713506 0,-0.4730188 -0.373436,-0.8464547 -0.871351,-0.8464547 -0.473019,0 -0.87135,0.3734359 -0.87135,0.8464547 0,0.4979145 0.373436,0.8713506 0.87135,0.8713506 m 0,-0.1493745 c -0.398332,0 -0.721976,-0.2987488 -0.721976,-0.7219761 0,-0.3983317 0.323644,-0.7219761 0.721976,-0.7219761 0.398332,0 0.721976,0.3236444 0.721976,0.7219761 -0.0249,0.4232273 -0.323644,0.7219761 -0.721976,0.7219761"
   id="path7"
   style="stroke-width:0.248957" />
</svg>
