<?xml version="1.0" encoding="UTF-8" standalone="no"?>
<!-- Created with Inkscape (http://www.inkscape.org/) -->

<svg
   width="100"
   height="100"
   viewBox="0 0 100 100"
   version="1.1"
   id="svg1"
   xml:space="preserve"
   xmlns="http://www.w3.org/2000/svg"
   xmlns:svg="http://www.w3.org/2000/svg"><defs
     id="defs1" /><g
     id="layer1"><g
       id="g1"
       transform="scale(4.1666667)"><path
         d="m 6.637,13.732 h -3.9 c -0.414,0 -0.75,-0.336 -0.75,-0.75 0,-0.414 0.336,-0.75 0.75,-0.75 h 3.9 c 0.124,0 0.225,-0.096 0.225,-0.214 V 6.714 C 6.862,6.596 6.761,6.5 6.637,6.5 H 3.712 C 3.588,6.5 3.487,6.596 3.487,6.714 v 2.893 c 0,0.118 0.101,0.214 0.225,0.214 h 1.95 c 0.414,0 0.75,0.336 0.75,0.75 0,0.414 -0.336,0.75 -0.75,0.75 h -1.95 c -0.951,0 -1.725,-0.769 -1.725,-1.714 V 6.714 C 1.987,5.769 2.761,5 3.712,5 h 2.925 c 0.951,0 1.725,0.769 1.725,1.714 v 5.304 c 0,0.945 -0.774,1.714 -1.725,1.714 z m 13.651,0 h -3.9 c -0.414,0 -0.75,-0.336 -0.75,-0.75 0,-0.414 0.336,-0.75 0.75,-0.75 h 3.9 c 0.124,0 0.225,-0.096 0.225,-0.214 V 6.714 C 20.513,6.596 20.412,6.5 20.288,6.5 h -2.925 c -0.124,0 -0.225,0.096 -0.225,0.214 v 2.893 c 0,0.118 0.101,0.214 0.225,0.214 h 1.95 c 0.414,0 0.75,0.336 0.75,0.75 0,0.414 -0.336,0.75 -0.75,0.75 h -1.95 c -0.951,0 -1.725,-0.769 -1.725,-1.714 V 6.714 C 15.638,5.769 16.412,5 17.363,5 h 2.925 c 0.951,0 1.725,0.769 1.725,1.714 v 5.304 c 0,0.945 -0.774,1.714 -1.725,1.714 z m -6.851,-2.411 h -2.874 c -0.965,0 -1.75,-0.785 -1.75,-1.75 V 6.75 C 8.813,5.785 9.598,5 10.563,5 h 2.874 c 0.965,0 1.75,0.785 1.75,1.75 v 2.82 c 0.001,0.966 -0.785,1.751 -1.75,1.751 z M 10.563,6.5 c -0.138,0 -0.25,0.112 -0.25,0.25 v 2.82 c 0,0.138 0.112,0.25 0.25,0.25 h 2.874 c 0.138,0 0.25,-0.112 0.25,-0.25 V 6.75 c 0,-0.138 -0.112,-0.25 -0.25,-0.25 z M 12.146,20 h -2.9 c -0.689,0 -1.25,-0.561 -1.25,-1.25 v -2.356 c 0,-0.965 0.786,-1.75 1.751,-1.75 h 1.899 c 0.965,0 1.75,0.785 1.75,1.75 v 2.356 c 0,0.689 -0.561,1.25 -1.25,1.25 z M 9.495,18.5 h 2.4 v -2.106 c 0,-0.138 -0.112,-0.25 -0.25,-0.25 H 9.746 c -0.138,0 -0.251,0.112 -0.251,0.25 V 18.5 Z m 8.612,1.5 c -0.414,0 -0.75,-0.336 -0.75,-0.75 v -3.107 h -1.444 c -0.124,0 -0.225,0.096 -0.225,0.214 v 2.893 c 0,0.414 -0.336,0.75 -0.75,0.75 -0.414,0 -0.75,-0.336 -0.75,-0.75 v -2.893 c 0,-0.945 0.774,-1.714 1.725,-1.714 h 1.707 c 0.682,0 1.237,0.553 1.237,1.232 v 3.375 c 0,0.414 -0.336,0.75 -0.75,0.75 z"
         id="path1"
         style="display:inline" /><path
         d="m 21.276,20 c -0.414,0 -0.75,-0.336 -0.75,-0.75 v -3.107 h -1.669 v 3.107 c 0,0.414 -0.336,0.75 -0.75,0.75 -0.414,0 -0.75,-0.336 -0.75,-0.75 v -3.857 c 0,-0.414 0.336,-0.75 0.75,-0.75 h 3.169 c 0.414,0 0.75,0.336 0.75,0.75 v 3.857 c 0,0.414 -0.336,0.75 -0.75,0.75 z M 6.637,20 H 3.224 C 2.542,20 1.987,19.447 1.987,18.768 v -2.411 c 0,-0.945 0.774,-1.714 1.725,-1.714 h 2.925 c 0.414,0 0.75,0.336 0.75,0.75 0,0.414 -0.336,0.75 -0.75,0.75 H 3.712 c -0.124,0 -0.225,0.096 -0.225,0.214 V 18.5 h 3.15 c 0.414,0 0.75,0.336 0.75,0.75 0,0.414 -0.336,0.75 -0.75,0.75 z"
         id="path2"
         style="display:inline" /><path
         d="M 22.25,24 H 1.75 C 0.785,24 0,23.215 0,22.25 V 1.75 C 0,0.785 0.785,0 1.75,0 h 20.5 C 23.215,0 24,0.785 24,1.75 v 20.5 C 24,23.215 23.215,24 22.25,24 Z M 1.75,1.5 C 1.612,1.5 1.5,1.612 1.5,1.75 v 20.5 c 0,0.138 0.112,0.25 0.25,0.25 h 20.5 c 0.138,0 0.25,-0.112 0.25,-0.25 V 1.75 C 22.5,1.612 22.388,1.5 22.25,1.5 Z"
         id="path3"
         style="display:inline" /></g></g></svg>
