<?xml version="1.0" encoding="UTF-8" standalone="no"?>
<!-- Created with Inkscape (http://www.inkscape.org/) -->

<svg
   width="100"
   height="100"
   viewBox="0 0 100 100"
   version="1.1"
   id="svg1"
   xml:space="preserve"
   xmlns="http://www.w3.org/2000/svg"
   xmlns:svg="http://www.w3.org/2000/svg"><defs
     id="defs1" /><g
     id="layer1"><g
       id="g1"
       transform="matrix(0.07538602,0,0,0.07538602,9.0225524,9.0226607)"><path
         d="m 111.999,1202.588 a 96.6,96.6 0 0 1 -29.419,4.225 q -18.949,0 -34.148,-5.869 a 75,75 0 0 1 -26.015,-16.41 72.1,72.1 0 0 1 -16.599,-25.353 88,88 0 0 1 -5.811,-32.533 q 0,-17.968 5.638,-32.735 a 72.1,72.1 0 0 1 16.05,-25.367 70.7,70.7 0 0 1 25.295,-16.367 90.9,90.9 0 0 1 33.297,-5.797 q 9.302,0 17.305,1.37 8.004,1.34 14.782,3.936 a 70.7,70.7 0 0 1 23.448,14.493 l -6.042,9.662 a 6.2,6.2 0 0 1 -3.678,2.784 q -2.22,0.605 -4.975,-1.039 a 159,159 0 0 1 -6.013,-3.735 58,58 0 0 0 -8.278,-4.21 67.8,67.8 0 0 0 -27.198,-4.86 63.5,63.5 0 0 0 -23.996,4.312 50.5,50.5 0 0 0 -18.286,12.372 54.8,54.8 0 0 0 -11.623,19.497 76.4,76.4 0 0 0 -4.038,25.698 q 0,14.753 4.211,26.434 4.226,11.666 12.056,19.814 a 51.9,51.9 0 0 0 19.007,12.445 69.2,69.2 0 0 0 25.063,4.269 75,75 0 0 0 27.832,-5.307 q 4.038,-1.73 8.206,-3.894 v -34.61 H 93.655 a 4.76,4.76 0 0 1 -3.345,-1.197 4.04,4.04 0 0 1 -1.27,-2.985 v -12.027 h 48.195 v 60.236 A 88,88 0 0 1 112,1202.588 m 189.62,-75.954 q 0,-14.45 -3.938,-25.958 a 54.8,54.8 0 0 0 -11.176,-19.44 49,49 0 0 0 -17.521,-12.214 59.1,59.1 0 0 0 -22.987,-4.268 q -12.604,0 -22.9,4.268 a 49,49 0 0 0 -17.58,12.215 54.8,54.8 0 0 0 -11.233,19.44 80.8,80.8 0 0 0 -3.937,25.957 q 0,14.45 3.937,25.9 3.966,11.45 11.234,19.38 a 49,49 0 0 0 17.579,12.158 60.6,60.6 0 0 0 22.9,4.225 60.6,60.6 0 0 0 22.987,-4.225 47.6,47.6 0 0 0 17.521,-12.157 54.8,54.8 0 0 0 11.176,-19.382 q 3.937,-11.464 3.937,-25.9 m 21.776,0 q 0.014,17.623 -5.567,32.36 a 74.3,74.3 0 0 1 -15.762,25.338 70.7,70.7 0 0 1 -24.486,16.498 82.2,82.2 0 0 1 -31.582,5.854 q -17.305,0 -31.553,-5.854 a 70.7,70.7 0 0 1 -24.429,-16.498 74.3,74.3 0 0 1 -15.762,-25.337 90.9,90.9 0 0 1 -5.58,-32.36 q 0,-17.637 5.58,-32.375 a 75,75 0 0 1 15.762,-25.41 70.7,70.7 0 0 1 24.43,-16.584 82.2,82.2 0 0 1 31.552,-5.912 q 17.276,0 31.582,5.912 a 70.7,70.7 0 0 1 24.486,16.584 q 10.167,10.7 15.762,25.41 5.595,14.752 5.58,32.375 m 141.224,75.954 a 96.6,96.6 0 0 1 -29.418,4.225 q -18.95,0 -34.149,-5.869 a 75,75 0 0 1 -26.015,-16.41 72.1,72.1 0 0 1 -16.584,-25.353 88,88 0 0 1 -5.812,-32.533 q 0,-17.968 5.624,-32.735 a 72.1,72.1 0 0 1 16.065,-25.367 70.7,70.7 0 0 1 25.28,-16.367 90.9,90.9 0 0 1 33.312,-5.797 q 9.302,0 17.305,1.37 7.99,1.34 14.781,3.936 a 70.7,70.7 0 0 1 23.434,14.493 l -6.042,9.662 a 6.2,6.2 0 0 1 -3.663,2.784 q -2.235,0.605 -4.99,-1.039 a 159,159 0 0 1 -6.013,-3.735 58,58 0 0 0 -8.263,-4.21 67.8,67.8 0 0 0 -27.212,-4.86 63.5,63.5 0 0 0 -23.997,4.311 50.5,50.5 0 0 0 -18.285,12.373 54.8,54.8 0 0 0 -11.609,19.497 76.4,76.4 0 0 0 -4.038,25.684 q 0,14.767 4.211,26.448 4.197,11.652 12.056,19.814 a 51.9,51.9 0 0 0 18.992,12.445 69.2,69.2 0 0 0 25.078,4.269 75,75 0 0 0 27.818,-5.307 q 4.038,-1.73 8.22,-3.894 v -34.61 h -24.43 a 4.76,4.76 0 0 1 -3.345,-1.197 4.04,4.04 0 0 1 -1.254,-2.985 v -12.027 h 48.194 v 60.236 a 88,88 0 0 1 -25.251,12.748 m 62.197,-9.619 a 13.84,13.84 0 0 1 8.22,-12.69 13,13 0 0 1 5.364,-1.096 14.13,14.13 0 0 1 12.705,8.436 13.56,13.56 0 0 1 0,10.773 14.4,14.4 0 0 1 -2.956,4.326 13.84,13.84 0 0 1 -9.749,3.937 14.4,14.4 0 0 1 -5.364,-1.039 13,13 0 0 1 -4.326,-2.884 13.56,13.56 0 0 1 -3.894,-9.763 m 173.367,-20.347 a 4.04,4.04 0 0 1 3.057,1.442 l 8.437,9.085 a 67.8,67.8 0 0 1 -23.377,17.42 q -13.757,6.23 -33.254,6.23 -16.872,0 -30.659,-5.87 a 67.8,67.8 0 0 1 -23.534,-16.425 74.3,74.3 0 0 1 -15.113,-25.337 95.2,95.2 0 0 1 -5.365,-32.533 q 0,-17.738 5.566,-32.534 a 75,75 0 0 1 15.72,-25.395 70.7,70.7 0 0 1 24.255,-16.497 q 14.132,-5.84 31.235,-5.84 16.729,0 29.549,5.35 a 75,75 0 0 1 22.568,14.564 l -7.008,9.749 a 5.8,5.8 0 0 1 -1.702,1.803 4.9,4.9 0 0 1 -2.798,0.72 q -1.96,0 -4.816,-2.148 a 72,72 0 0 0 -7.456,-4.745 57.7,57.7 0 0 0 -11.479,-4.759 57.7,57.7 0 0 0 -16.973,-2.148 56.2,56.2 0 0 0 -22.237,4.21 48.3,48.3 0 0 0 -17.362,12.215 56.2,56.2 0 0 0 -11.335,19.497 77.9,77.9 0 0 0 -4.067,25.958 q 0,14.651 4.24,26.173 4.196,11.508 11.493,19.44 7.268,7.931 17.19,12.084 a 54.8,54.8 0 0 0 21.4,4.182 q 7.023,0 12.676,-0.836 5.624,-0.822 10.383,-2.567 4.76,-1.745 8.883,-4.427 4.082,-2.682 8.148,-6.417 a 5.77,5.77 0 0 1 3.735,-1.644 m 163.547,-45.988 q 0,-14.45 -3.937,-25.958 a 54.8,54.8 0 0 0 -11.176,-19.44 49,49 0 0 0 -17.522,-12.214 59.1,59.1 0 0 0 -22.986,-4.268 q -12.604,0 -22.9,4.268 a 49,49 0 0 0 -17.594,12.215 54.8,54.8 0 0 0 -11.22,19.44 80.8,80.8 0 0 0 -3.936,25.957 q 0,14.45 3.937,25.9 3.965,11.45 11.233,19.38 a 49,49 0 0 0 17.58,12.158 60.6,60.6 0 0 0 22.9,4.225 60.6,60.6 0 0 0 22.986,-4.225 47.6,47.6 0 0 0 17.522,-12.157 54.8,54.8 0 0 0 11.176,-19.382 q 3.937,-11.464 3.937,-25.9 m 21.775,0 q 0.015,17.623 -5.566,32.36 a 74.3,74.3 0 0 1 -15.762,25.338 70.7,70.7 0 0 1 -24.487,16.498 82.2,82.2 0 0 1 -31.581,5.855 q -17.305,0 -31.553,-5.855 a 70.7,70.7 0 0 1 -24.429,-16.498 74.3,74.3 0 0 1 -15.762,-25.337 90.9,90.9 0 0 1 -5.58,-32.36 q 0,-17.637 5.58,-32.375 a 75,75 0 0 1 15.762,-25.41 70.7,70.7 0 0 1 24.429,-16.584 82.2,82.2 0 0 1 31.553,-5.912 q 17.276,0 31.581,5.912 a 70.7,70.7 0 0 1 24.487,16.584 q 10.166,10.7 15.762,25.41 5.595,14.752 5.58,32.375 m 118.02,27.226 2.423,5.725 a 144,144 0 0 1 2.308,-5.84 q 1.197,-2.899 2.596,-5.523 l 53.256,-96.476 q 1.297,-2.538 2.884,-3.086 a 14.4,14.4 0 0 1 4.441,-0.533 h 15.676 v 156.913 h -18.632 v -115.31 a 115,115 0 0 1 0.433,-10.296 l -53.79,98.134 q -2.495,4.903 -7.643,4.917 h -3.072 q -5.133,0 -7.643,-4.903 l -54.986,-98.48 a 115,115 0 0 1 0.663,10.629 v 115.309 h -18.632 v -156.9 h 15.661 a 14.4,14.4 0 0 1 4.384,0.52 q 1.529,0.547 2.942,3.085 l 54.223,96.576 q 1.297,2.625 2.523,5.538"
         style="fill:#303030;fill-opacity:1;fill-rule:nonzero;stroke:none;stroke-width:19.2277"
         id="path1" /><path
         d="m 323.927,544.436 h -126.47 a 17.88,17.88 0 0 0 -17.882,17.983 c 0,0 0.043,0 0.043,0.115 h -0.043 v 90.231 h 0.043 l -0.043,0.072 c 0,9.893 7.96,18.026 17.881,18.026 h 126.471 v 60.193 H 166.12 v -0.144 A 46.65,46.65 0 0 1 119.411,684.275 V 530.837 a 46.623,46.623 0 0 1 46.709,-46.478 h 157.807 z m 45.656,-167.57 a 47.3,47.3 0 0 1 -47.329,47.358 H 119.267 v -61 h 171.132 c 10.065,0 18.141,-8.234 18.141,-18.257 v -201.66 c 0,-10.052 -8.076,-18.2 -18.141,-18.2 h -91.962 a 18.17,18.17 0 0 0 -18.141,18.2 v 91.774 a 18.17,18.17 0 0 0 18.141,18.256 h 73.474 v 61 H 166.596 A 47.257,47.257 0 0 1 119.281,267.023 V 111.393 A 47.3,47.3 0 0 1 166.596,64.05 h 155.658 a 47.344,47.344 0 0 1 47.33,47.343 z m 598.09,354.06 H 907.509 V 544.465 h -42.253 a 17.88,17.88 0 0 0 -17.91,17.968 V 730.926 H 787.21 V 544.465 h -42.296 a 17.925,17.925 0 0 0 -17.91,17.968 V 731.085 H 666.869 V 530.866 a 46.58,46.58 0 0 1 46.651,-46.493 h 254.138 z m 0.144,-354.06 a 47.3,47.3 0 0 1 -47.315,47.358 H 717.515 v -61 h 171.132 c 10.094,0 18.227,-8.234 18.227,-18.257 v -201.66 a 18.17,18.17 0 0 0 -18.227,-18.2 h -91.948 a 18.17,18.17 0 0 0 -18.098,18.2 v 91.774 c 0,10.08 8.134,18.256 18.098,18.256 h 73.431 v 61 H 764.858 A 47.3,47.3 0 0 1 717.515,267.023 V 111.393 A 47.3,47.3 0 0 1 764.873,64.05 h 155.615 a 47.36,47.36 0 0 1 47.314,47.343 z M 607.556,143.465 v 91.616 a 18.026,18.026 0 0 1 -17.997,18.27 h -91.933 a 18.17,18.17 0 0 1 -18.17,-18.27 v -91.775 c 0,-10.05 8.075,-18.184 18.17,-18.184 h 91.933 a 18.026,18.026 0 0 1 17.997,18.184 z M 621.4,64.078 H 465.727 a 47.3,47.3 0 0 0 -47.286,47.33 v 155.63 a 47.257,47.257 0 0 0 47.286,47.328 H 621.4 a 47.344,47.344 0 0 0 47.3,-47.329 V 111.407 A 47.36,47.36 0 0 0 621.4,64.078 m -62.817,498.456 v 90.231 a 17.94,17.94 0 0 1 -17.853,18.026 c -0.087,0 -0.116,-0.1 -0.202,-0.1 v 0.1 H 450.31 v -0.1 c 0,0 -0.1,0.1 -0.202,0.1 A 17.94,17.94 0 0 1 432.226,652.765 V 562.42 c 0,-9.922 7.96,-17.983 17.882,-17.983 h 90.62 a 17.88,17.88 0 0 1 17.854,17.983 z m 13.512,-78.175 H 418.73 a 46.58,46.58 0 0 0 -46.666,46.478 v 153.438 a 46.623,46.623 0 0 0 46.666,46.622 h 153.365 a 46.623,46.623 0 0 0 46.608,-46.622 V 530.837 a 46.58,46.58 0 0 0 -46.608,-46.493"
         style="fill:#303030;fill-opacity:1;fill-rule:evenodd;stroke:none;stroke-width:19.2277"
         id="path2" /><path
         d="m 1064.018,835.722 c 0,15.503 -6.244,29.419 -16.396,39.585 a 55.66,55.66 0 0 1 -39.557,16.368 H 79.075 A 55.895,55.895 0 0 1 23.123,835.722 V -40.63 A 55.8,55.8 0 0 1 39.52,-80.2 55.8,55.8 0 0 1 79.076,-96.583 h 928.99 a 55.8,55.8 0 0 1 39.556,16.382 55.66,55.66 0 0 1 16.396,39.542 z m -0.072,-932.263 a 78.74,78.74 0 0 0 -55.88,-23.145 H 79.075 a 78.74,78.74 0 0 0 -55.88,23.145 78.74,78.74 0 0 0 -23.19,55.895 v 876.354 a 78.78,78.78 0 0 0 23.19,55.924 78.88,78.88 0 0 0 55.88,23.174 h 928.99 a 78.88,78.88 0 0 0 55.88,-23.174 78.88,78.88 0 0 0 23.189,-55.91 V -40.63 a 78.88,78.88 0 0 0 -23.189,-55.91"
         style="fill:#303030;fill-opacity:1;fill-rule:nonzero;stroke:none;stroke-width:19.2277"
         id="path3" /></g></g></svg>
