<?xml version="1.0" encoding="UTF-8" standalone="no"?>
<svg
   xml:space="preserve"
   width="81.954712"
   height="100"
   version="1.1"
   id="svg14"
   xmlns="http://www.w3.org/2000/svg"
   xmlns:svg="http://www.w3.org/2000/svg"><defs
     id="defs14" /><path
     d="M 8.4430462,99.681041 A 7.3272495,7.3272495 0 0 1 6.2253031,99.99957 c -0.952325,0 -1.811157,-0.146763 -2.5743215,-0.442462 A 5.6791619,5.6791619 0 0 1 1.6898008,98.319955 5.4095539,5.4095539 0 0 1 0.43851545,96.408782 6.673885,6.673885 0 0 1 4.0245533e-4,93.956219 c 0,-0.902317 0.14241390467,-1.726361 0.42506744467,-2.467782 a 5.4715203,5.4715203 0 0 1 1.2099745,-1.91226 5.3606331,5.3606331 0 0 1 1.9068243,-1.233892 6.8456514,6.8456514 0 0 1 2.5101809,-0.437026 c 0.4674654,0 0.902317,0.03479 1.3045548,0.103278 0.4022377,0.0674 0.7740358,0.16633 1.1143072,0.296786 a 5.359546,5.359546 0 0 1 1.7676714,1.092564 L 9.7834763,90.126264 A 0.46963973,0.46963973 0 0 1 9.5062584,90.33608 C 9.3953713,90.36652 9.2692643,90.34038 9.1311989,90.25781 A 12.24216,12.24216 0 0 1 8.6778661,89.97624 4.0658625,4.0658625 0 0 0 8.0538541,89.658798 5.1203776,5.1203776 0 0 0 6.0035287,89.292436 4.8051102,4.8051102 0 0 0 4.1945461,89.617487 3.8473496,3.8473496 0 0 0 2.8160665,90.550244 4.1387001,4.1387001 0 0 0 1.9398405,92.020043 5.7878748,5.7878748 0 0 0 1.6354444,93.957306 c 0,0.741422 0.1065386,1.405658 0.3174417,1.992708 0.2119901,0.584875 0.5152991,1.084955 0.9088398,1.493715 a 3.8843119,3.8843119 0 0 0 1.432836,0.938193 5.2606173,5.2606173 0 0 0 1.8894303,0.32179 5.6248055,5.6248055 0 0 0 2.098159,-0.400064 c 0.2022059,-0.08697 0.4098476,-0.184812 0.6185764,-0.293525 V 95.401014 H 7.0602181 a 0.35331693,0.35331693 0 0 1 -0.2522139,-0.09023 0.30113474,0.30113474 0 0 1 -0.095667,-0.225036 v -0.906665 h 3.6331848 v 4.540938 a 6.6303998,6.6303998 0 0 1 -1.9024755,0.961022"
     style="fill:#303030;fill-opacity:1;fill-rule:nonzero;stroke:none;stroke-width:1.4495"
     id="path1" /><path
     d="m 22.737705,93.955132 c 0,-0.726202 -0.09784,-1.378479 -0.296786,-1.956832 a 4.128916,4.128916 0 0 0 -0.842525,-1.46545 3.6603634,3.6603634 0 0 0 -1.320861,-0.920798 4.4615775,4.4615775 0 0 0 -1.732884,-0.32179 c -0.633796,0 -1.208888,0.106538 -1.726361,0.32179 a 3.7136327,3.7136327 0 0 0 -1.32521,0.920798 4.1169576,4.1169576 0 0 0 -0.846874,1.46545 6.0444373,6.0444373 0 0 0 -0.296786,1.956832 c 0,0.726202 0.100016,1.377393 0.296786,1.952484 0.198945,0.576178 0.481598,1.062125 0.846874,1.461101 a 3.6668861,3.6668861 0 0 0 1.32521,0.91645 4.5224567,4.5224567 0 0 0 1.726361,0.318529 4.5441993,4.5441993 0 0 0 1.732884,-0.318529 3.6201396,3.6201396 0 0 0 1.320861,-0.91645 4.1419615,4.1419615 0 0 0 0.842525,-1.461101 c 0.197858,-0.576178 0.296786,-1.226282 0.296786,-1.952484 m 1.641565,0 c 0,0.88601 -0.138065,1.699183 -0.419632,2.439518 a 5.5987144,5.5987144 0 0 1 -1.188232,1.910085 5.3051896,5.3051896 0 0 1 -1.845945,1.243676 6.2325106,6.2325106 0 0 1 -2.380812,0.441374 c -0.869703,0 -1.663307,-0.146762 -2.378638,-0.441374 A 5.3138866,5.3138866 0 0 1 14.324414,98.304735 5.5987144,5.5987144 0 0 1 13.136182,96.39465 6.8532613,6.8532613 0 0 1 12.715463,93.955132 c 0,-0.887097 0.141327,-1.699182 0.420719,-2.440604 a 5.6595936,5.6595936 0 0 1 1.188232,-1.915522 5.3519361,5.3519361 0 0 1 1.841597,-1.250198 6.1488017,6.1488017 0 0 1 2.378638,-0.445723 c 0.867529,0 1.66222,0.14785 2.380812,0.445723 a 5.3432391,5.3432391 0 0 1 1.845945,1.250198 c 0.510951,0.538129 0.906666,1.176274 1.188232,1.915522 0.281567,0.741422 0.420719,1.554594 0.420719,2.440604"
     style="fill:#303030;fill-opacity:1;fill-rule:nonzero;stroke:none;stroke-width:1.4495"
     id="path2" /><path
     d="m 35.026612,99.681041 a 7.3272495,7.3272495 0 0 1 -2.217743,0.318529 c -0.952325,0 -1.81007,-0.146763 -2.574322,-0.442462 a 5.6791619,5.6791619 0 0 1 -1.961181,-1.237153 5.4095539,5.4095539 0 0 1 -1.250198,-1.911173 6.673885,6.673885 0 0 1 -0.438113,-2.452563 c 0,-0.902317 0.141327,-1.726361 0.42398,-2.467782 a 5.4715203,5.4715203 0 0 1 1.211062,-1.91226 5.3606331,5.3606331 0 0 1 1.905737,-1.233892 6.8456514,6.8456514 0 0 1 2.511268,-0.437026 c 0.467466,0 0.902317,0.03479 1.304555,0.103278 0.401151,0.0674 0.772949,0.16633 1.114307,0.296786 a 5.359546,5.359546 0 0 1 1.766585,1.092564 l -0.455507,0.728377 a 0.46963973,0.46963973 0 0 1 -0.276131,0.209816 c -0.111974,0.03044 -0.238081,0.0043 -0.376147,-0.07827 a 12.24216,12.24216 0 0 1 -0.453332,-0.281566 4.0658625,4.0658625 0 0 0 -0.622925,-0.317442 5.1203776,5.1203776 0 0 0 -2.051413,-0.366362 4.8051102,4.8051102 0 0 0 -1.808982,0.325051 3.8473496,3.8473496 0 0 0 -1.37848,0.932757 4.1387001,4.1387001 0 0 0 -0.875139,1.469799 5.7878748,5.7878748 0 0 0 -0.304396,1.936176 c 0,0.742509 0.105452,1.406745 0.317442,1.993795 0.210903,0.584875 0.514212,1.084955 0.90884,1.493715 a 3.8843119,3.8843119 0 0 0 1.431749,0.938193 5.2606173,5.2606173 0 0 0 1.890517,0.32179 5.6421996,5.6421996 0 0 0 2.097072,-0.400064 c 0.203293,-0.08697 0.409847,-0.184812 0.619663,-0.293525 v -2.609113 h -1.841596 a 0.35331693,0.35331693 0 0 1 -0.252214,-0.09023 0.30113474,0.30113474 0 0 1 -0.09458,-0.225036 v -0.906665 h 3.633185 v 4.540938 a 6.6303998,6.6303998 0 0 1 -1.903563,0.961022"
     style="fill:#303030;fill-opacity:1;fill-rule:nonzero;stroke:none;stroke-width:1.4495"
     id="path3" /><path
     d="m 39.715399,98.955926 a 1.044731,1.044731 0 0 1 0.619664,-0.956674 1.0001587,1.0001587 0 0 1 0.404412,-0.08262 1.0642993,1.0642993 0 0 1 0.95776,0.635971 1.0219013,1.0219013 0 0 1 0,0.812085 1.0697349,1.0697349 0 0 1 -0.222861,0.326139 1.0469052,1.0469052 0 0 1 -0.734899,0.296786 1.0469052,1.0469052 0 0 1 -0.404412,-0.07827 0.95667353,0.95667353 0 0 1 -0.326139,-0.217426 1.0208141,1.0208141 0 0 1 -0.293525,-0.735986"
     style="fill:#303030;fill-opacity:1;fill-rule:nonzero;stroke:none;stroke-width:1.4495"
     id="path4" /><path
     d="m 52.784864,97.421987 a 0.29896048,0.29896048 0 0 1 0.230472,0.108713 l 0.63597,0.684891 a 5.0834152,5.0834152 0 0 1 -1.762236,1.313252 c -0.691414,0.313093 -1.526329,0.469639 -2.50692,0.469639 -0.84796,0 -1.617648,-0.146762 -2.311236,-0.442461 a 5.0736311,5.0736311 0 0 1 -1.774194,-1.23824 5.5943659,5.5943659 0 0 1 -1.139312,-1.910086 7.1533089,7.1533089 0 0 1 -0.404412,-2.452563 c 0,-0.892533 0.14024,-1.708967 0.419632,-2.452563 a 5.6063243,5.6063243 0 0 1 1.184971,-1.914434 5.2943183,5.2943183 0 0 1 1.828551,-1.243676 c 0.710982,-0.293524 1.494802,-0.440287 2.354721,-0.440287 0.840351,0 1.583947,0.133717 2.227528,0.403325 a 5.6171956,5.6171956 0 0 1 1.701356,1.098 l -0.528344,0.7349 a 0.44028725,0.44028725 0 0 1 -0.128281,0.135891 0.36962386,0.36962386 0 0 1 -0.210904,0.05436 c -0.09893,0 -0.2196,-0.05436 -0.363101,-0.161982 A 5.5008728,5.5008728 0 0 0 51.67708,89.811 a 4.2561101,4.2561101 0 0 0 -0.865355,-0.358752 4.3354705,4.3354705 0 0 0 -1.279551,-0.161982 4.272417,4.272417 0 0 0 -1.676353,0.317441 3.6451436,3.6451436 0 0 0 -1.308903,0.920799 4.2658942,4.2658942 0 0 0 -0.854483,1.469798 5.8846293,5.8846293 0 0 0 -0.306571,1.956832 c 0,0.735987 0.107626,1.394787 0.319616,1.973139 0.210903,0.578353 0.500079,1.066474 0.866442,1.46545 0.365275,0.39789 0.796865,0.702286 1.295858,0.911014 a 4.1365259,4.1365259 0 0 0 1.613299,0.315268 c 0.353317,0 0.670759,-0.02066 0.955587,-0.06305 0.282653,-0.04131 0.543564,-0.105451 0.782732,-0.193509 0.239169,-0.08697 0.463117,-0.200031 0.669672,-0.333748 0.205467,-0.134804 0.409848,-0.296786 0.614228,-0.483773 a 0.42615457,0.42615457 0 0 1 0.281566,-0.123932"
     style="fill:#303030;fill-opacity:1;fill-rule:nonzero;stroke:none;stroke-width:1.4495"
     id="path5" /><path
     d="m 65.113994,93.955132 c 0,-0.726202 -0.09784,-1.378479 -0.296786,-1.956832 a 4.128916,4.128916 0 0 0 -0.842525,-1.46545 3.6603634,3.6603634 0 0 0 -1.320862,-0.920798 4.4615775,4.4615775 0 0 0 -1.732883,-0.32179 c -0.633797,0 -1.208888,0.106538 -1.726361,0.32179 a 3.7136327,3.7136327 0 0 0 -1.326298,0.920798 4.1169576,4.1169576 0 0 0 -0.845786,1.46545 6.0444373,6.0444373 0 0 0 -0.296786,1.956832 c 0,0.726202 0.100016,1.377393 0.296786,1.952484 0.198945,0.576178 0.481598,1.062125 0.846874,1.461101 a 3.6668861,3.6668861 0 0 0 1.32521,0.91645 4.5224567,4.5224567 0 0 0 1.726361,0.318529 4.5441993,4.5441993 0 0 0 1.732883,-0.318529 3.6201396,3.6201396 0 0 0 1.320862,-0.91645 4.1419615,4.1419615 0 0 0 0.842525,-1.461101 c 0.197858,-0.576178 0.296786,-1.226282 0.296786,-1.952484 m 1.641565,0 c 0,0.88601 -0.138065,1.699183 -0.419632,2.439518 a 5.5987144,5.5987144 0 0 1 -1.188232,1.910085 5.3051896,5.3051896 0 0 1 -1.845945,1.243676 6.2325106,6.2325106 0 0 1 -2.380812,0.441374 c -0.869704,0 -1.663308,-0.146762 -2.378639,-0.441374 A 5.3138866,5.3138866 0 0 1 56.700703,98.304735 5.5987144,5.5987144 0 0 1 55.512471,96.39465 6.8532613,6.8532613 0 0 1 55.091752,93.955132 c 0,-0.887097 0.141327,-1.699182 0.420719,-2.440604 a 5.6606808,5.6606808 0 0 1 1.188232,-1.915522 5.3519361,5.3519361 0 0 1 1.841596,-1.250198 6.1488017,6.1488017 0 0 1 2.378639,-0.445723 c 0.867529,0 1.66222,0.14785 2.380812,0.445723 a 5.3432391,5.3432391 0 0 1 1.845945,1.250198 c 0.510951,0.538129 0.906666,1.176274 1.188232,1.915522 0.281567,0.741422 0.420719,1.554594 0.420719,2.440604"
     style="fill:#303030;fill-opacity:1;fill-rule:nonzero;stroke:none;stroke-width:1.4495"
     id="path6" /><path
     d="m 75.65371,96.007632 0.182638,0.43159 a 10.28424,10.28424 0 0 1 0.17394,-0.440287 c 0.05871,-0.144588 0.126107,-0.285915 0.195684,-0.416371 l 4.014767,-7.272893 c 0.06523,-0.128281 0.138065,-0.20438 0.217426,-0.232645 a 1.0708221,1.0708221 0 0 1 0.334836,-0.04022 h 1.181709 v 11.829051 h -1.404571 v -8.692684 a 8.5774479,8.5774479 0 0 1 0.03261,-0.77621 l -4.054991,7.397913 c -0.12502,0.246778 -0.317442,0.370711 -0.576179,0.370711 h -0.231558 c -0.25765,0 -0.451159,-0.123933 -0.576178,-0.369624 L 70.99862,90.371959 a 9.1644975,9.1644975 0 0 1 0.05001,0.801214 v 8.692684 H 69.644061 V 88.037889 h 1.180622 a 1.0327726,1.0327726 0 0 1 0.330487,0.03914 c 0.0761,0.02826 0.151111,0.104364 0.221774,0.232645 l 4.087606,7.280503 c 0.06523,0.131543 0.129368,0.271783 0.190247,0.417458"
     style="fill:#303030;fill-opacity:1;fill-rule:nonzero;stroke:none;stroke-width:1.4495"
     id="path7" /><path
     d="m 24.419494,50.06556 h -9.534121 a 1.3491271,1.3491271 0 0 0 -1.34804,1.35565 c 0,0 0.0033,0 0.0033,0.0087 h -0.0033 v 6.802166 h 0.0033 l -0.0033,0.0054 c 0,0.74577 0.600095,1.358911 1.34804,1.358911 h 9.534121 v 4.537676 H 12.523041 v -0.01087 A 3.5168623,3.5168623 0 0 1 9.0018306,60.60745 V 49.040397 A 3.5146881,3.5146881 0 0 1 12.523041,45.53658 h 11.896453 z"
     style="fill:#303030;fill-opacity:1;fill-rule:evenodd;stroke:none;stroke-width:1.4495"
     id="path8" /><path
     d="m 27.861345,37.433121 a 3.5657832,3.5657832 0 0 1 -3.567958,3.570131 H 8.9909593 V 36.404697 H 21.891919 c 0.758816,0 1.367608,-0.620751 1.367608,-1.376306 V 19.825979 c 0,-0.757729 -0.608792,-1.371956 -1.367608,-1.371956 h -6.932622 a 1.3686954,1.3686954 0 0 0 -1.367608,1.371956 v 6.918489 a 1.3697826,1.3697826 0 0 0 1.367608,1.376306 h 5.538923 v 4.598555 H 12.558917 A 3.5625218,3.5625218 0 0 1 8.9920464,29.152459 V 17.420163 a 3.5657832,3.5657832 0 0 1 3.5668706,-3.569045 h 11.73447 a 3.5690445,3.5690445 0 0 1 3.567958,3.569045 z"
     style="fill:#303030;fill-opacity:1;fill-rule:evenodd;stroke:none;stroke-width:1.4495"
     id="path9" /><path
     d="M 72.948933,64.124312 H 68.413431 V 50.067734 h -3.185288 a 1.3491271,1.3491271 0 0 0 -1.350214,1.354563 V 64.124312 H 59.344601 V 50.067734 h -3.18855 a 1.3513014,1.3513014 0 0 0 -1.350214,1.354563 v 12.713974 h -4.533328 v -15.0937 a 3.5114267,3.5114267 0 0 1 3.516862,-3.504903 h 19.158475 z"
     style="fill:#303030;fill-opacity:1;fill-rule:evenodd;stroke:none;stroke-width:1.4495"
     id="path10" /><path
     d="m 72.959804,37.433121 a 3.5657832,3.5657832 0 0 1 -3.56687,3.570131 H 54.090506 v -4.598555 h 12.90096 c 0.76099,0 1.374131,-0.620751 1.374131,-1.376306 V 19.825979 a 1.3708697,1.3708697 0 0 0 -1.374131,-1.371956 h -6.931535 a 1.3697826,1.3697826 0 0 0 -1.364346,1.371956 v 6.918489 c 0,0.759904 0.61314,1.376306 1.364346,1.376306 h 5.535661 v 4.598555 h -7.936041 a 3.5657832,3.5657832 0 0 1 -3.569045,-3.56687 V 17.420163 a 3.5668703,3.5668703 0 0 1 3.570132,-3.569045 h 11.731209 a 3.5701317,3.5701317 0 0 1 3.56687,3.569045 z"
     style="fill:#303030;fill-opacity:1;fill-rule:evenodd;stroke:none;stroke-width:1.4495"
     id="path11" /><path
     d="m 45.801147,19.837938 v 6.90653 A 1.3589113,1.3589113 0 0 1 44.44441,28.121861 H 37.513963 A 1.3708697,1.3708697 0 0 1 36.14418,26.744468 v -6.918489 c 0,-0.757729 0.608793,-1.370869 1.369783,-1.370869 h 6.930447 a 1.356737,1.356737 0 0 1 1.356737,1.370869 z m 1.043644,-5.984645 H 35.109234 a 3.5657832,3.5657832 0 0 0 -3.564696,3.567957 v 11.732296 a 3.5625218,3.5625218 0 0 0 3.564696,3.567958 h 11.735557 a 3.5690445,3.5690445 0 0 0 3.565783,-3.567958 V 17.42125 a 3.5701317,3.5701317 0 0 0 -3.565783,-3.567957"
     style="fill:#303030;fill-opacity:1;fill-rule:evenodd;stroke:none;stroke-width:1.4495"
     id="path12" /><path
     d="m 42.109257,51.429907 v 6.802166 a 1.3523885,1.3523885 0 0 1 -1.345865,1.358911 c -0.0065,0 -0.0087,-0.0076 -0.01522,-0.0076 v 0.0076 h -6.801079 v -0.0076 c 0,0 -0.0076,0.0076 -0.01522,0.0076 a 1.3523885,1.3523885 0 0 1 -1.34804,-1.358911 V 51.42121 c 0,-0.747945 0.600095,-1.35565 1.34804,-1.35565 h 6.831519 a 1.34804,1.34804 0 0 1 1.345865,1.35565 z m 1.01864,-5.893327 H 31.56628 a 3.5114267,3.5114267 0 0 0 -3.517949,3.503817 V 60.60745 a 3.5146881,3.5146881 0 0 0 3.517949,3.514688 H 43.127897 A 3.5146881,3.5146881 0 0 0 46.641498,60.60745 V 49.040397 a 3.513601,3.513601 0 0 0 -3.513601,-3.504904"
     style="fill:#303030;fill-opacity:1;fill-rule:evenodd;stroke:none;stroke-width:1.4495"
     id="path13" /><path
     d="m 80.212042,72.024479 c 0,1.168663 -0.470727,2.217743 -1.236066,2.984169 a 4.2006665,4.2006665 0 0 1 -2.981995,1.233891 H 5.9611307 A 4.213712,4.213712 0 0 1 1.7430702,72.024479 V 5.9596487 A 4.2093635,4.2093635 0 0 1 2.9791358,2.9765667 4.205015,4.205015 0 0 1 5.9611307,1.7415882 H 75.993981 a 4.2071893,4.2071893 0 0 1 2.981995,1.2349785 4.1974051,4.1974051 0 0 1 1.236066,2.9809078 z M 80.206606,1.7448496 A 5.9346373,5.9346373 0 0 0 75.993981,7.551709e-6 H 5.9611307 A 5.9346373,5.9346373 0 0 0 1.7485058,1.7448496 5.9368115,5.9368115 0 0 0 4.0245533e-4,5.9585616 V 72.023392 c 0,1.644826 0.66858434467,3.140715 1.74810334467,4.215886 a 5.9433343,5.9433343 0 0 0 4.2126249,1.747016 H 75.993981 a 5.9433343,5.9433343 0 0 0 4.212625,-1.747016 5.9433343,5.9433343 0 0 0 1.748104,-4.214799 V 5.9596487 A 5.9433343,5.9433343 0 0 0 80.206606,1.7448496"
     style="fill:#303030;fill-opacity:1;fill-rule:nonzero;stroke:none;stroke-width:1.4495"
     id="path14" /></svg>
