<?xml version="1.0" encoding="UTF-8" standalone="no"?>
<svg
   width="100"
   height="92.649734"
   viewBox="0 0.014 29.468 27.304989"
   version="1.1"
   id="svg11"
   xmlns="http://www.w3.org/2000/svg"
   xmlns:svg="http://www.w3.org/2000/svg">
  <defs
     id="defs11" />
  <path
     fill="#7b7692"
     d="M 1.6251766,4.1892764 H 3.0666931 V 0.9860086 H 2.0913472 V 2.822848 h -0.00832 L 1.4398764,0.9860086 H -0.00160016 V 4.1892764 H 0.97318569 V 2.3402356 h 0.008761 z m 5.4384705,0 H 8.5052437 V 0.9860086 H 7.5303778 V 2.822848 h -0.00876 L 6.878507,0.9860086 H 5.4370305 V 4.1892764 H 6.4122164 V 2.3402356 h 0.00848 z m 9.3646569,0 h 1.441797 V 0.9860086 H 16.894995 V 2.822848 h -0.0087 L 16.243244,0.9860086 h -1.441596 v 3.2032678 h 0.974905 V 2.3402356 h 0.0086 z M 3.655637,0.9860086 H 4.8579676 V 4.1892764 H 3.655637 Z M 9.6180445,1.8561831 H 8.8539615 V 0.9860086 H 11.586738 V 1.8561831 H 10.820015 V 4.1892764 H 9.6180445 Z M 11.941777,0.9851685 h 2.377978 v 0.847172 h -1.19453 v 0.3350364 h 1.09984 V 2.988586 h -1.09984 v 0.3594791 h 1.232534 v 0.8402912 h -2.415982 z"
     id="path1"
     style="stroke-width:0.0400043" />
  <path
     fill="#0222a9"
     d="m 13.954276,7.6362507 -2.549117,4.5493343 2.549117,-0.976826 2.433144,0.931661 0.65159,-0.731279 V 6.4400408 Z"
     id="path2"
     style="stroke-width:0.0400043" />
  <path
     fill="#011da9"
     d="m 21.873575,23.981026 -4.604139,-6.008732 v 7.944422 l -3.31516,1.402273 V 13.748475 l 3.31516,-1.269578 4.604139,6.580595 v -8.366629 l 3.13082,-1.2074115 V 22.666123 Z"
     id="path3"
     style="stroke-width:0.0400043" />
  <path
     fill="#0222a9"
     d="m 6.0350154,23.981026 2.937399,-1.300501 -2.937399,-5.702899 z"
     id="path4"
     style="stroke-width:0.0400043" />
  <path
     fill="#069330"
     d="M 9.1659154,9.4854515 10.639436,12.478537 11.405159,12.185585 13.954276,7.6362507 10.869381,6.4365605 Z M 16.38742,12.14042 18.743716,9.4854515 21.873575,10.692863 v 8.366629 l -4.604139,-6.580595 z"
     id="path5"
     style="stroke-width:0.0400043" />
  <path
     fill="#069330"
     d="M 6.0350154,10.692863 2.9042355,9.4854515 V 22.666123 l 3.1307799,1.314903 v -7.0034 l 4.6044206,8.93909 3.31484,1.402273 V 13.748475 l -3.31484,-1.269938 v 6.889228 z"
     id="path6"
     style="stroke-width:0.0400043" />
  <path
     fill="#fe2015"
     d="m 10.639436,12.478537 v 6.889228 l -4.6044206,-8.674902 3.1309,-1.2074115 z m 11.234139,11.502489 -4.604139,-6.008732 v 3.282876 l 0.940182,1.318903 z"
     id="path7"
     style="stroke-width:0.0400043" />
  <path
     fill="#ffc001"
     d="m 17.269436,12.478537 -3.31516,1.269938 -3.31484,-1.269938 3.31484,-1.269778 z m 1.473079,-2.9930855 3.13106,-1.2044508 3.13082,1.2044508 -3.13082,1.2074115 z m -15.8382795,0 3.1307799,-1.2044508 3.1309,1.2044508 -3.1309,1.2074115 z M 17.03901,6.4400408 13.954276,5.2487515 l -3.084895,1.187809 3.084895,1.1996902 z"
     id="path8"
     style="stroke-width:0.0400043" />
  <path
     d="m 18.388397,0.98544853 h 1.424195 c 1.216092,0 1.600173,0.68807467 1.600173,1.63617767 0,0.9681051 -0.596064,1.5681703 -1.528166,1.5681703 H 18.388437 V 0.98544853 Z m 1.176128,2.47626887 h 0.116012 c 0.196022,0 0.324076,-0.060007 0.400044,-0.1880204 0.08001,-0.1320143 0.08801,-0.3760008 0.08801,-0.6880747 0,-0.3079935 -0.008,-0.55206 -0.08801,-0.6840743 C 20.004611,1.7735341 19.876559,1.7135276 19.680537,1.7135276 H 19.564525 Z M 23.29693,0.90143941 c 1.048114,0 1.56817,0.68807469 1.56817,1.68418289 0,1.0001086 -0.520056,1.6881833 -1.56817,1.6881833 -1.044113,0 -1.56817,-0.6880747 -1.56817,-1.6881833 0,-0.9961082 0.524097,-1.68418289 1.56817,-1.68418289 z m 0,2.56027799 c 0.18802,0 0.324035,-0.09201 0.324035,-0.8760951 0,-0.764083 -0.127974,-0.8720947 -0.324035,-0.8720947 -0.192021,0 -0.324035,0.1080117 -0.324035,0.8720947 4e-5,0.7840851 0.140055,0.8760951 0.324035,0.8760951 z m 2.132232,0.052006 c -0.212023,0 -0.380042,0.1680182 -0.380042,0.3800412 0,0.2080226 0.168019,0.3800413 0.380042,0.3800413 0.208022,0 0.380041,-0.1720187 0.380041,-0.3800413 0,-0.212023 -0.172019,-0.3800412 -0.380041,-0.3800412 z m 0,0.6920751 c -0.17598,0 -0.315995,-0.1400152 -0.315995,-0.3120339 0,-0.1720187 0.140015,-0.3120339 0.315995,-0.3120339 0.172018,0 0.312033,0.1400152 0.312033,0.3120339 0,0.1720187 -0.140015,0.3120339 -0.312033,0.3120339 z"
     fill="#0124a6"
     id="path9"
     style="stroke-width:0.0400043" />
  <path
     d="m 25.365155,4.1017869 h -0.08801 V 3.6857417 h 0.176019 c 0.07201,0 0.147976,0.024043 0.147976,0.1080118 0,0.052006 -0.03596,0.08801 -0.08797,0.1000108 0.06797,0.008 0.06797,0.052006 0.07597,0.1080118 0.004,0.028003 0.008,0.076008 0.02404,0.1000108 h -0.100011 c -0.008,-0.036004 -0.01204,-0.076008 -0.016,-0.1120121 0,-0.024043 -0.008,-0.056006 -0.036,-0.056006 h -0.09601 z m 0,-0.2360256 h 0.07601 c 0.04,0 0.06405,-0.020002 0.06405,-0.060007 0,-0.035964 -0.02404,-0.052006 -0.06405,-0.052006 h -0.07601 z M 1.6251766,4.1892764 H 3.0666931 V 0.9860086 H 2.0913472 V 2.822848 h -0.00832 L 1.4398764,0.9860086 H -0.00160016 V 4.1892764 H 0.97318569 V 2.3402356 h 0.008761 z m 5.4384705,0 H 8.5052437 V 0.9860086 H 7.5303778 V 2.822848 h -0.00876 L 6.878507,0.9860086 H 5.4370305 V 4.1892764 H 6.4122164 V 2.3402356 h 0.00848 z m 9.3646569,0 h 1.441797 V 0.9860086 H 16.894995 V 2.822848 h -0.0087 L 16.243244,0.9860086 h -1.441596 v 3.2032678 h 0.974905 V 2.3402356 h 0.0086 z M 3.655637,0.9860086 H 4.8579676 V 4.1892764 H 3.655637 Z M 9.6180445,1.8561831 H 8.8539615 V 0.9860086 H 11.586738 V 1.8561831 H 10.820015 V 4.1892764 H 9.6180445 Z M 11.941777,0.9851685 h 2.377978 v 0.847172 h -1.19453 v 0.3350364 h 1.09984 V 2.988586 h -1.09984 v 0.3594791 h 1.232534 v 0.8402912 h -2.415982 z"
     fill="#0124a6"
     id="path10"
     style="stroke-width:0.0400043" />
  <path
     d="m 27.017334,0.56140249 c -0.06401,-0.008001 -0.128014,-0.004 -0.212023,0 -0.508055,0.0240026 -0.712077,0.24002606 -0.784125,0.48405251 h 0.01204 C 26.1612,0.93344289 26.317257,0.88143724 26.52528,0.88143724 c 0.404043,0 0.768083,0.29203166 0.768083,0.84409166 0,0.5240969 -0.400043,0.9321412 -0.944143,0.9321412 -0.712077,0 -1.024111,-0.5440991 -1.024111,-1.1281225 0,-0.4760517 0.168019,-0.87609512 0.444049,-1.13612335 0.264068,-0.2440265 0.604105,-0.36803997 1.02011,-0.37600084 0.108012,-0.0080009 0.176019,0 0.228025,0.0040004 V 0.56140249 Z M 26.341261,2.1415741 c 0.164057,0 0.264068,-0.1680183 0.264068,-0.3840418 0,-0.1800195 -0.08405,-0.3760408 -0.304073,-0.3760408 -0.135974,0 -0.240026,0.084009 -0.28003,0.1880204 -0.01596,0.032004 -0.02,0.075968 -0.02,0.1520165 0.01204,0.2040222 0.112052,0.4200457 0.336036,0.4200457 z m 2.21228,0.4720512 V 2.0415632 h -1.068116 v -0.46005 l 0.856053,-1.52816588 h 0.856093 V 1.5135058 H 29.4696 v 0.5280574 h -0.272029 v 0.5720621 z m 0,-1.1001195 V 1.0734581 c 0,-0.16401782 0.008,-0.33203606 0.01596,-0.51205561 h -0.012 C 28.477493,0.7374216 28.409485,0.90143941 28.317475,1.0774585 l -0.208022,0.4280465 -0.004,0.008 z"
     fill="#ff2d1e"
     id="path11"
     style="stroke-width:0.0400043" />
</svg>
