<?xml version="1.0" encoding="UTF-8" standalone="no"?>
<!-- Created with Inkscape (http://www.inkscape.org/) -->

<svg
   width="100"
   height="100"
   viewBox="0 0 100 100"
   version="1.1"
   id="svg1"
   xml:space="preserve"
   xmlns="http://www.w3.org/2000/svg"
   xmlns:svg="http://www.w3.org/2000/svg"><defs
     id="defs1" /><g
     id="layer1"><g
       id="g1"
       transform="matrix(2.3159406,0,0,2.3159406,3.682346,3.6767119)"><path
         fill="#7b7692"
         d="M 0.794,6.117 H 2.906 V 1.424 H 1.477 V 4.115 H 1.465 L 0.523,1.425 H -1.59 v 4.692 h 1.43 V 3.408 h 0.013 z m 7.968,0 h 2.112 V 1.424 H 9.446 V 4.115 H 9.433 L 8.491,1.425 H 6.379 V 6.117 H 7.808 V 3.408 H 7.82 Z m 13.72,0 h 2.113 V 1.424 H 23.166 V 4.115 H 23.153 L 22.211,1.425 H 20.1 v 4.692 h 1.428 V 3.408 h 0.013 z M 3.77,1.424 H 5.532 V 6.117 H 3.769 Z M 12.505,2.7 h -1.12 V 1.424 h 4.004 V 2.7 h -1.123 v 3.418 h -1.761 z m 3.404,-1.276 h 3.484 v 1.241 h -1.75 v 0.49 h 1.611 v 1.204 h -1.611 v 0.527 h 1.806 v 1.23 h -3.54 z"
         style="stroke-width:0.0586099"
         id="path1" /><path
         fill="#0222a9"
         d="m 18.858,11.167 -3.735,6.665 3.735,-1.43 3.564,1.364 0.955,-1.071 v -7.28 z"
         style="stroke-width:0.0586099"
         id="path2" /><path
         fill="#011da9"
         d="M 30.46,35.114 23.715,26.31 v 11.64 l -4.857,2.054 V 20.122 l 4.857,-1.86 6.745,9.641 V 15.645 l 4.587,-1.768 v 19.31 z"
         style="stroke-width:0.0586099"
         id="path3" /><path
         fill="#0222a9"
         d="M 7.255,35.114 11.559,33.208 7.255,24.853 Z"
         style="stroke-width:0.0586099"
         id="path4" /><path
         fill="#069330"
         d="m 11.842,13.877 2.16,4.385 1.121,-0.43 3.735,-6.665 -4.52,-1.757 z m 10.58,3.89 3.453,-3.89 4.585,1.768 v 12.258 l -6.745,-9.64 z"
         style="stroke-width:0.0586099"
         id="path5" /><path
         fill="#069330"
         d="M 7.255,15.645 2.668,13.877 v 19.31 l 4.587,1.927 v -10.26 l 6.746,13.096 4.857,2.054 V 20.122 L 14,18.262 v 10.093 z"
         style="stroke-width:0.0586099"
         id="path6" /><path
         fill="#fe2015"
         d="m 14.001,18.262 v 10.093 l -6.746,-12.71 4.587,-1.768 z m 16.46,16.852 -6.746,-8.804 v 4.81 l 1.377,1.932 z"
         style="stroke-width:0.0586099"
         id="path7" /><path
         fill="#ffc001"
         d="m 23.715,18.262 -4.857,1.86 -4.858,-1.86 4.857,-1.86 z m 2.158,-4.385 4.587,-1.765 4.587,1.765 -4.587,1.768 z m -23.205,0 4.587,-1.765 4.587,1.765 -4.587,1.768 z m 20.709,-4.462 -4.52,-1.746 -4.519,1.74 4.52,1.758 z"
         style="stroke-width:0.0586099"
         id="path8" /><path
         fill="#0124a6"
         d="m 25.354,1.423 h 2.087 c 1.781,0 2.344,1.008 2.344,2.397 0,1.419 -0.873,2.298 -2.239,2.298 h -2.192 z m 1.723,3.628 h 0.17 c 0.287,0 0.475,-0.088 0.586,-0.275 0.117,-0.194 0.13,-0.551 0.13,-1.008 0,-0.452 -0.013,-0.81 -0.13,-1.003 C 27.722,2.578 27.534,2.49 27.247,2.49 h -0.17 z m 5.468,-3.75 c 1.536,0 2.298,1.007 2.298,2.467 0,1.465 -0.762,2.473 -2.298,2.473 -1.53,0 -2.297,-1.008 -2.297,-2.473 0,-1.46 0.768,-2.468 2.297,-2.468 m 0,3.751 c 0.276,0 0.475,-0.135 0.475,-1.283 0,-1.12 -0.187,-1.278 -0.475,-1.278 -0.28,0 -0.474,0.158 -0.474,1.278 0,1.148 0.205,1.283 0.474,1.283 m 3.124,0.076 a 0.557,0.557 0 1 0 0,1.114 0.557,0.557 0 0 0 0,-1.114 m 0,1.014 a 0.46,0.46 0 0 1 -0.463,-0.457 0.46,0.46 0 0 1 0.463,-0.457 0.458,0.458 0 0 1 0,0.914"
         style="stroke-width:0.0586099"
         id="path9" /><path
         fill="#0124a6"
         d="m 35.576,5.989 h -0.13 v -0.61 h 0.259 c 0.105,0 0.216,0.036 0.216,0.159 0,0.076 -0.052,0.129 -0.129,0.146 0.1,0.012 0.1,0.076 0.112,0.158 0.006,0.041 0.011,0.112 0.035,0.147 H 35.792 C 35.781,5.936 35.775,5.878 35.769,5.825 35.769,5.79 35.757,5.743 35.716,5.743 h -0.14 z m 0,-0.346 h 0.11 c 0.06,0 0.095,-0.03 0.095,-0.088 0,-0.052 -0.035,-0.076 -0.094,-0.076 H 35.576 Z M 0.794,6.117 H 2.906 V 1.424 H 1.477 V 4.115 H 1.465 L 0.523,1.425 H -1.59 v 4.692 h 1.43 V 3.408 h 0.013 z m 7.968,0 h 2.112 V 1.424 H 9.446 V 4.115 H 9.433 L 8.491,1.425 H 6.379 V 6.117 H 7.808 V 3.408 H 7.82 Z m 13.72,0 h 2.113 V 1.424 H 23.166 V 4.115 H 23.153 L 22.211,1.425 H 20.1 v 4.692 h 1.428 V 3.408 h 0.013 z M 3.77,1.424 H 5.532 V 6.117 H 3.769 Z M 12.505,2.7 h -1.12 V 1.424 h 4.004 V 2.7 h -1.123 v 3.418 h -1.761 z m 3.404,-1.276 h 3.484 v 1.241 h -1.75 v 0.49 h 1.611 v 1.204 h -1.611 v 0.527 h 1.806 v 1.23 h -3.54 z"
         style="stroke-width:0.0586099"
         id="path10" /><path
         fill="#ff2d1e"
         d="m 37.996,0.802 c -0.094,-0.012 -0.187,-0.006 -0.31,0 -0.745,0.035 -1.044,0.352 -1.15,0.71 h 0.018 c 0.188,-0.165 0.416,-0.241 0.721,-0.241 0.592,0 1.126,0.428 1.126,1.237 0,0.767 -0.587,1.365 -1.384,1.365 -1.043,0 -1.5,-0.797 -1.5,-1.653 0,-0.697 0.246,-1.283 0.65,-1.664 Q 36.748,0.02 37.662,0.005 c 0.158,-0.012 0.258,0 0.334,0.006 z m -0.99,2.315 c 0.24,0 0.387,-0.246 0.387,-0.563 0,-0.263 -0.124,-0.55 -0.446,-0.55 -0.2,0 -0.352,0.123 -0.41,0.275 a 0.5,0.5 0 0 0 -0.03,0.223 C 36.525,2.801 36.672,3.117 37,3.117 Z m 3.24,0.692 V 2.97 H 38.682 V 2.296 l 1.254,-2.24 h 1.254 v 2.14 h 0.399 V 2.97 H 41.19 v 0.838 z m 0,-1.612 V 1.552 c 0,-0.24 0.012,-0.486 0.024,-0.75 H 40.253 C 40.135,1.06 40.036,1.3 39.901,1.558 L 39.596,2.185 39.59,2.197 Z"
         style="stroke-width:0.0586099"
         id="path11" /></g></g></svg>
