<?xml version="1.0" encoding="UTF-8" standalone="no"?>
<svg
   height="22.359022"
   viewBox="-0.4 -0.4 92.011993 20.5831"
   width="99.999992"
   version="1.1"
   id="svg11"
   xmlns="http://www.w3.org/2000/svg"
   xmlns:svg="http://www.w3.org/2000/svg">
  <defs
     id="defs11" />
  <path
     d="m 49.19997,15.331847 h -3.898614 c -0.564379,0 -1.024688,0.460309 -1.024688,1.024687 V 19.1384 c 0,0.560376 0.460309,1.024687 1.024688,1.024687 h 3.898614 c 0.564378,0 1.024687,-0.464311 1.024687,-1.024687 v -2.781866 c 0,-0.560376 -0.460309,-1.024687 -1.024687,-1.024687 m 0.16411,3.80255 c 0,0.112075 -0.09206,0.200134 -0.200134,0.200134 h -3.830569 c -0.112075,0 -0.200134,-0.08806 -0.200134,-0.200134 V 16.36454 c 0,-0.108073 0.08806,-0.200135 0.200134,-0.200135 h 3.830569 c 0.108072,0 0.200134,0.08806 0.200134,0.200135 z"
     fill="#898e89"
     id="path1"
     style="stroke-width:0.0400268" />
  <path
     d="m 4.4779804,11.173058 v 3.5784 H 3.5813792 v -4.83124 h 0.7645126 l 3.6224293,3.518359 V 9.920218 h 0.8845932 v 4.83124 H 8.1524445 Z m 8.9660126,0 v 3.5784 h -0.892599 v -4.83124 h 0.764513 l 3.618426,3.518359 V 9.920218 h 0.884594 v 4.83124 h -0.696468 z m 18.588465,0 v 3.5784 h -0.896601 v -4.83124 h 0.764513 l 3.622429,3.518359 V 9.920218 h 0.884593 v 4.83124 H 35.710925 Z M 10.982342,9.920218 h 0.16411 v 4.83124 h -0.892599 v -4.83124 z m 12.92867,0 h 0.16411 v 0.832558 h -2.157447 v 3.998682 H 20.989052 V 10.752776 H 18.831606 V 9.920218 Z m 5.731844,0 h 0.168112 v 0.832558 h -3.834571 v 1.080725 h 2.965989 v 0.832558 H 25.976397 V 13.9189 h 3.834571 v 0.832558 H 25.091804 V 9.920218 Z M 42.84771,10.62469 C 42.499477,10.164382 41.979128,9.9162153 41.354709,9.9162153 h -3.582402 v 4.8352427 h 3.582402 c 0.624419,0 1.144768,-0.244164 1.493001,-0.704473 0.32822,-0.428287 0.500336,-1.020684 0.500336,-1.713148 0,-0.688462 -0.172116,-1.280859 -0.500336,-1.709147 m -1.468985,3.29421 h -2.745841 v -3.166124 h 2.745841 c 0.860577,0 1.164781,0.852572 1.164781,1.581061 0.004,0.732491 -0.304204,1.585063 -1.164781,1.585063 M 49.19997,9.920218 h -3.898614 c -0.564379,0 -1.024688,0.464311 -1.024688,1.024687 v 2.781866 c 0,0.560375 0.460309,1.024687 1.024688,1.024687 h 3.898614 c 0.564378,0 1.024687,-0.464312 1.024687,-1.024687 v -2.781866 c 0,-0.564378 -0.460309,-1.024687 -1.024687,-1.024687 m 0.16411,3.798547 c 0,0.108073 -0.09206,0.200135 -0.200134,0.200135 h -3.830569 c -0.112075,0 -0.200134,-0.09206 -0.200134,-0.200135 v -2.769857 c 0,-0.108073 0.08806,-0.196132 0.200134,-0.196132 h 3.830569 c 0.108072,0 0.200134,0.08806 0.200134,0.196132 z m 28.903383,4.418964 c 0.928623,0.368247 2.885935,0.660443 4.414961,0.660443 1.673122,0 2.365586,-0.572384 2.365586,-1.292867 0,-0.648435 -0.644432,-1.02869 -2.493672,-1.701141 -2.469657,-0.912612 -4.27887,-1.633095 -4.27887,-3.254182 0,-1.681128 2.181463,-2.6697909 5.503691,-2.6697909 1.781194,0 2.397608,0.1120752 3.530367,0.3202149 l 0.008,1.593068 C 86.20478,11.581332 85.220119,11.22109 83.687091,11.22109 c -1.6411,0 -2.345573,0.520349 -2.345573,1.056709 0,0.780523 1.080725,1.152773 2.969992,1.825224 2.629764,0.940631 4.094746,1.669119 4.094746,3.258185 0,1.633095 -1.833229,2.813887 -5.968002,2.813887 -1.701141,0 -2.869925,-0.112075 -4.1748,-0.320215 v -1.717151 z m -3.51836,1.296869 c -0.972652,0.440296 -2.813887,0.720484 -4.426968,0.720484 H 64.170009 V 9.9002046 h 6.152126 c 1.609079,0 3.450313,0.2841904 4.426968,0.7244854 2.369589,1.068717 3.14611,2.781866 3.14611,4.402953 0,1.62509 -0.768515,3.334236 -3.14611,4.406955 M 69.46556,11.289136 h -1.96932 v 7.448995 h 1.96932 c 3.022027,0 4.927304,-1.288864 4.927304,-3.710488 0,-2.417621 -1.905277,-3.738507 -4.927304,-3.738507"
     fill="#000100"
     id="path2"
     style="stroke-width:0.0400268" />
  <path
     d="m 59.859118,14.543318 c 0,0 2.869925,-0.456306 2.869925,-2.245506 0,-1.749173 -3.058051,-2.4616504 -6.308231,-2.4616504 -2.933967,0 -4.863261,0.3602414 -4.863261,0.3602414 v 1.589066 c 1.332894,-0.324218 2.605747,-0.5964 4.342912,-0.5964 1.865251,0 3.286204,0.556373 3.286204,1.340899 0,0.944634 -1.404942,1.484996 -4.434974,1.484996 h -1.392934 v 1.428958 h 1.292867 c 3.186137,0 5.003355,0.480322 5.003355,1.649106 0,1.044701 -1.621087,1.677125 -3.63844,1.677125 -1.761181,0 -3.374263,-0.37225 -4.679138,-0.736494 v 1.709146 c 0.628422,0.108073 2.293538,0.440295 5.395619,0.440295 3.438305,0 6.424308,-1.104741 6.424308,-3.054048 -0.004,-1.62509 -2.073391,-2.585734 -3.298212,-2.585734"
     fill="#cd181e"
     id="path3"
     style="stroke-width:0.0400268" />
  <path
     d="m 89.246826,19.006311 h -0.324218 v -0.176118 h 0.856575 v 0.176118 h -0.32822 v 0.960644 h -0.204137 z m 1.625089,0.496333 c -0.008,-0.148099 -0.01601,-0.324217 -0.01201,-0.476319 h -0.008 c -0.03602,0.140094 -0.08406,0.292196 -0.136091,0.436292 l -0.168113,0.49233 H 90.391593 L 90.239491,19.46662 c -0.04403,-0.144097 -0.08406,-0.300201 -0.116078,-0.440295 h -0.004 c -0.004,0.148099 -0.01201,0.32822 -0.02001,0.484324 l -0.02402,0.456306 h -0.192131 l 0.07605,-1.136762 h 0.272183 l 0.148099,0.456306 c 0.04003,0.132089 0.07605,0.26818 0.10407,0.396266 h 0.004 c 0.03202,-0.124083 0.06805,-0.264177 0.112075,-0.396266 l 0.160107,-0.456306 h 0.26818 l 0.06404,1.136762 h -0.200134 z"
     fill="#000100"
     id="path4"
     style="stroke-width:0.0400268" />
  <path
     d="M 1.3438787,3.4879044 -0.78154659,3.2077165 c -0.0640429,-0.012008 -0.12408321,0.036024 -0.13208857,0.1000671 -0.0680456,0.5923973 -0.0680456,1.1928 -0.004003,1.7851972 0.008005,0.064043 0.0680456,0.1080725 0.13208858,0.1000671 L 1.339876,4.9168627 c 0.064043,-0.00801 0.1080725,-0.064043 0.1000671,-0.1280859 -0.044029,-0.3882604 -0.040027,-0.7805234 0,-1.1727865 0.00801,-0.064043 -0.036024,-0.1200805 -0.096064,-0.1280859"
     fill="#a0cd08"
     id="path5"
     style="stroke-width:0.0400268" />
  <path
     d="M 2.4206008,0.93018919 0.71946001,-0.37468587 c -0.0520349,-0.0400268 -0.12408321,-0.0320215 -0.16411005,0.0200134 -0.3562389,0.48032211 -0.65644021,0.99666837 -0.89259858,1.54503617 -0.0240161,0.06004 0.004003,0.1280859 0.0640429,0.152102 L 1.7041202,2.1670186 c 0.06004,0.024016 0.1240832,-0.004 0.1480993,-0.06004 0.1601075,-0.3602418 0.356239,-0.70047 0.5883947,-1.016682 0.040027,-0.048032 0.028019,-0.12008057 -0.020013,-0.16010741"
     fill="#f40024"
     id="path6"
     style="stroke-width:0.0400268" />
  <path
     d="m 1.6881096,6.2377485 -1.98132869,0.8205503 c -0.0600403,0.024016 -0.0880591,0.092062 -0.0600403,0.152102 0.23615837,0.5483677 0.53635969,1.0687167 0.89259858,1.5490388 0.0360242,0.052035 0.11207516,0.06004 0.16411006,0.020013 L 2.40459,7.4785806 C 2.4526222,7.4425565 2.4646303,7.3705081 2.4286061,7.3184732 2.1964505,7.0022612 2.0003189,6.662033 1.8442142,6.3017914 1.8121928,6.2417512 1.7441471,6.2137324 1.6881096,6.2377485"
     fill="#019ef3"
     id="path7"
     style="stroke-width:0.0400268" />
  <path
     d="m 17.534736,5.7214022 h -1.757178 c -0.108073,0 -0.172116,0.024016 -0.204137,0.04403 -0.008,0.004 -0.01601,0.012008 -0.02402,0.016011 -0.272183,0.1801208 -0.656441,0.3442308 -1.156776,0.3442308 -1.324889,0 -1.821221,-1.0967354 -1.821221,-1.9172857 0,-0.8765879 0.528354,-1.9172858 1.829226,-1.9172858 0.944634,0 1.525023,0.5883946 1.673122,1.1687838 0.01601,0.068046 0.03202,0.1320886 -0.03602,0.1320886 H 13.50003 c -0.07205,0 -0.132088,0.06004 -0.132088,0.1320886 v 1.0887301 c 0,0.072048 0.06004,0.1320886 0.132088,0.1320886 h 3.502349 c 0.724486,0 0.916615,-0.228153 0.916615,-0.9086093 0,-1.9693207 -1.62509,-3.37826554 -3.494344,-3.37826554 -1.869253,0 -3.53437,1.43296094 -3.53437,3.33023334 0,2.0813958 1.168784,3.7745312 3.542376,3.7745312 1.977326,0 2.857916,-1.1767892 3.22216,-1.901275 0.02001,-0.036024 0.05604,-0.140094 -0.12008,-0.140094 M 3.6774436,7.5826504 c -0.052035,0 -0.096064,-0.04403 -0.096064,-0.096064 V 3.6079849 c 0,-1.4729878 1.228824,-2.94597556 3.2261634,-2.94597556 1.9973395,0 3.226163,1.47298776 3.226163,2.94597556 V 7.486586 c 0,0.052035 -0.04403,0.096064 -0.096065,0.096064 H 8.3485761 c -0.052035,0 -0.096064,-0.04403 -0.096064,-0.096064 V 3.836138 c 0,-0.6964671 -0.5043382,-1.3929342 -1.4489716,-1.3929342 -0.9446335,0 -1.4489717,0.6964671 -1.4489717,1.3929342 v 3.650448 c 0,0.052035 -0.04403,0.096064 -0.096064,0.096064 z M 24.107143,0.83012208 c 0.05204,0 0.09607,0.0440295 0.09607,0.0960644 V 4.9488842 c 0,0.6924644 0.304204,1.0206845 0.792531,1.0206845 0.488328,0 0.848569,-0.3282201 0.848569,-1.0206845 V 0.9261865 c 0,-0.0520349 0.04403,-0.0960644 0.09606,-0.0960644 h 1.673122 c 0.05204,0 0.09606,0.0440295 0.09606,0.0960644 v 4.1587889 c 0,1.6370979 -1.096735,2.6657877 -2.429629,2.6657877 -0.564379,0 -1.432961,-0.1440966 -2.05738,-0.9486361 -0.512343,0.8045395 -1.344902,0.9486361 -1.945304,0.9486361 -1.332894,0 -2.42963,-1.0246871 -2.42963,-2.6657877 V 0.9261865 c 0,-0.0520349 0.04403,-0.0960644 0.09606,-0.0960644 h 1.673122 c 0.05204,0 0.09606,0.0440295 0.09606,0.0960644 v 4.0226977 c 0,0.6924644 0.380255,1.0206845 0.848569,1.0206845 0.468314,0 0.792532,-0.3282201 0.792532,-1.0206845 V 0.9261865 c 0,-0.0520349 0.04403,-0.0960644 0.09606,-0.0960644 z"
     fill="#000100"
     id="path8"
     style="stroke-width:0.0400268" />
  <path
     d="m 30.259269,4.9208654 2.125425,0.2801879 c 0.06404,0.00801 0.124084,-0.036024 0.132089,-0.1000671 0.06805,-0.5923973 0.07205,-1.1927999 0,-1.7851972 -0.008,-0.064043 -0.06805,-0.1080725 -0.132089,-0.1000671 l -2.125425,0.2761852 c -0.06404,0.00801 -0.108072,0.064043 -0.100067,0.1280859 0.04403,0.3882604 0.04403,0.7845261 0,1.1727865 -0.004,0.064043 0.03602,0.1200805 0.100067,0.1280859"
     fill="#f7a70d"
     id="path9"
     style="stroke-width:0.0400268" />
  <path
     d="m 29.182547,7.4745779 1.701141,1.3048751 c 0.05204,0.040027 0.124083,0.028019 0.16411,-0.024016 0.356239,-0.4803221 0.65644,-0.9966684 0.892598,-1.5450361 0.02402,-0.06004 -0.004,-0.1280859 -0.06004,-0.152102 L 29.90303,6.2337459 c -0.06004,-0.024016 -0.124083,0.004 -0.152102,0.06004 -0.156104,0.3602416 -0.356239,0.7004697 -0.588394,1.0166818 -0.04003,0.056038 -0.03202,0.1280859 0.02001,0.16411"
     fill="#ee298e"
     id="path10"
     style="stroke-width:0.0400268" />
  <path
     d="M 29.915038,2.1710213 31.896367,1.350471 c 0.06004,-0.024016 0.08806,-0.092062 0.06404,-0.152102 -0.236158,-0.54836771 -0.53636,-1.06871666 -0.888596,-1.54503608 -0.04003,-0.0520349 -0.112075,-0.0600403 -0.16411,-0.0240161 L 29.20656,0.93419187 c -0.04803,0.0360242 -0.06004,0.10807243 -0.02001,0.16010733 0.232155,0.3162121 0.428287,0.6564403 0.584392,1.0166818 0.02001,0.056038 0.08806,0.084056 0.144096,0.06004"
     fill="#029792"
     id="path11"
     style="stroke-width:0.0400268" />
</svg>
