<?xml version="1.0" encoding="UTF-8" standalone="no"?>
<!-- Created with Inkscape (http://www.inkscape.org/) -->

<svg
   width="100"
   height="100"
   viewBox="0 0 100 100"
   version="1.1"
   id="svg1"
   inkscape:version="1.4.3 (0d15f75, 2025-12-25)"
   xml:space="preserve"
   sodipodi:docname="dsi.svg"
   xmlns:inkscape="http://www.inkscape.org/namespaces/inkscape"
   xmlns:sodipodi="http://sodipodi.sourceforge.net/DTD/sodipodi-0.dtd"
   xmlns="http://www.w3.org/2000/svg"
   xmlns:svg="http://www.w3.org/2000/svg"><sodipodi:namedview
     id="namedview1"
     pagecolor="#ffffff"
     bordercolor="#000000"
     borderopacity="0.25"
     inkscape:showpageshadow="2"
     inkscape:pageopacity="0.0"
     inkscape:pagecheckerboard="0"
     inkscape:deskcolor="#d1d1d1"
     inkscape:document-units="px"
     showgrid="false"
     inkscape:zoom="11.33"
     inkscape:cx="50"
     inkscape:cy="50"
     inkscape:window-width="2560"
     inkscape:window-height="1351"
     inkscape:window-x="-9"
     inkscape:window-y="-9"
     inkscape:window-maximized="1"
     inkscape:current-layer="layer1" /><defs
     id="defs1" /><g
     inkscape:label="Layer 1"
     inkscape:groupmode="layer"
     id="layer1"><g
       id="g1"
       transform="matrix(0.10000001,0,0,0.10000001,4.1537255e-5,45.373221)"><path
         d="m 605.269,506.657 h -1.82 v -7.107 h -2.59 v -1.521 h 7.008 v 1.52 h -2.598 z m 12.675,0 h -1.673 v -7.22 h -0.021 l -1.612,7.22 h -1.764 l -1.573,-7.22 h -0.03 v 7.22 h -1.677 v -8.628 h 2.611 l 1.564,6.786 h 0.022 l 1.538,-6.786 h 2.615 z"
         style="fill:#000000;fill-opacity:1;fill-rule:nonzero;stroke:none"
         transform="matrix(1.67785,0,0,1,-122.919,-415.137)"
         id="path1" /><path
         d="M 0,0 A 0.335,0.335 0 0 0 -0.337,-0.333 H -6.782 A 0.335,0.335 0 0 0 -7.123,0 v 4.666 c 0,0.186 0.152,0.34 0.341,0.338 l 6.445,0.002 A 0.343,0.343 0 0 0 0,4.666 Z M -0.278,6.406 H -6.844 A 1.734,1.734 0 0 1 -8.567,4.677 V -0.01 c 0,-0.945 0.774,-1.723 1.723,-1.723 h 6.566 c 0.946,0 1.719,0.778 1.719,1.723 v 4.687 c 0,0.945 -0.773,1.729 -1.719,1.729"
         style="fill:#939598;fill-opacity:1;fill-rule:nonzero;stroke:none"
         transform="matrix(7.28946,0,0,-4.34452,562.178,85.008)"
         id="path2" /><g
         style="fill:#000000;fill-opacity:1"
         id="g3"><path
           d="M 0,0 H 1.283 L 7.378,-5.927 V 0 h 1.489 c -0.003,-0.088 -0.003,-8.05 0,-8.14 H 7.688 L 1.504,-2.111 V -8.14 H 0 C -0.003,-8.05 -0.003,-0.088 0,0"
           style="fill:#000000;fill-opacity:1;fill-rule:nonzero;stroke:none"
           transform="matrix(7.28946,0,0,-4.34452,0.016,17.566)"
           id="path3" /></g><path
         d="m 145.404,441.872 v 26.198 h -6.551 V 432.7 h 5.587 l 26.514,25.755 v -25.754 h 6.482 v 35.369 h -5.122 z m 136.062,0 v 26.198 h -6.539 V 432.7 h 5.574 l 26.523,25.755 v -25.754 h 6.478 v 35.369 h -5.122 z m -154.087,-9.169 h 1.203 v 35.364 h -6.551 v -35.364 z m 94.642,0 h 1.212 v 6.069 h -15.797 v 29.295 h -6.794 v -29.295 h -15.78 v -6.07 z m 41.945,0 h 1.239 v 6.069 H 237.13 l 0.004,7.95 h 21.727 v 6.087 h -21.727 l -0.004,9.163 h 28.075 v 6.095 h -34.557 v -35.364 z"
         style="fill:#000000;fill-opacity:1;fill-rule:nonzero;stroke:none"
         transform="matrix(1.67785,0,0,1,-122.919,-415.137)"
         id="path4" /><g
         style="fill:#000000;fill-opacity:1"
         id="g5"><path
           d="M 0,0 H -4.631 V 5.34 H 0 C 1.446,5.34 1.962,3.895 1.962,2.666 1.962,1.439 1.446,0 0,0 m 2.471,5.547 c -0.588,0.774 -1.46,1.19 -2.513,1.19 h -6.042 v -8.141 h 6.042 c 1.053,0 1.925,0.414 2.513,1.188 0.556,0.725 0.846,1.72 0.846,2.882 0,1.162 -0.29,2.161 -0.846,2.881"
           style="fill:#000000;fill-opacity:1;fill-rule:nonzero;stroke:none"
           transform="matrix(7.28946,0,0,-4.34452,464.17,46.833)"
           id="path5" /></g><g
         style="fill:#000000;fill-opacity:1"
         id="g6"><path
           d="M 0,0 A 0.34,0.34 0 0 0 -0.337,-0.331 H -6.782 A 0.34,0.34 0 0 0 -7.123,0 v 4.67 c 0,0.181 0.152,0.339 0.341,0.339 h 6.445 A 0.344,0.344 0 0 0 0,4.669 Z M -0.278,6.405 H -6.844 A 1.73,1.73 0 0 1 -8.567,4.676 V -0.01 a 1.73,1.73 0 0 1 1.723,-1.725 h 6.566 c 0.946,0 1.719,0.778 1.719,1.725 v 4.686 c 0,0.952 -0.773,1.729 -1.719,1.729"
           style="fill:#000000;fill-opacity:1;fill-rule:nonzero;stroke:none"
           transform="matrix(7.28946,0,0,-4.34452,562.178,45.394)"
           id="path6" /></g><g
         style="fill:#000000;fill-opacity:1"
         id="g7"><path
           d="m 0,0 c 1.562,-0.619 4.861,-1.115 7.438,-1.115 2.82,0 3.986,0.967 3.986,2.179 0,1.088 -1.084,1.73 -4.196,2.868 -4.163,1.537 -7.216,2.751 -7.216,5.481 0,2.829 3.67,4.498 9.273,4.498 3.009,0 4.038,-0.192 5.95,-0.541 l 0.012,-2.688 c -1.873,0.358 -3.537,0.972 -6.119,0.972 -2.767,0 -3.948,-0.878 -3.944,-1.786 0,-1.311 1.813,-1.94 5,-3.073 4.434,-1.59 6.905,-2.817 6.905,-5.488 -0.007,-2.754 -3.092,-4.74 -10.059,-4.74 -2.862,0 -4.837,0.191 -7.03,0.539 z"
           style="fill:#000000;fill-opacity:1;fill-rule:nonzero;stroke:none"
           transform="matrix(7.28946,0,0,-4.34452,759.78,77.623)"
           id="path7" /></g><g
         style="fill:#000000;fill-opacity:1"
         id="g8"><path
           d="M 0,0 H -3.325 V -12.553 H 0 c 5.103,0 8.316,2.178 8.316,6.251 C 8.316,-2.229 5.103,0 0,0 m 8.915,-13.724 c -1.643,-0.74 -4.748,-1.211 -7.466,-1.211 H -8.938 V 2.337 H 1.449 c 2.717,0 5.823,-0.48 7.466,-1.219 3.995,-1.804 5.298,-4.686 5.298,-7.42 0,-2.734 -1.291,-5.613 -5.298,-7.422"
           style="fill:#000000;fill-opacity:1;fill-rule:nonzero;stroke:none"
           transform="matrix(7.28946,0,0,-4.34452,651.549,27.501)"
           id="path8" /></g><g
         style="fill:#000000;fill-opacity:1"
         id="g9"><path
           d="M 0,0 A 5.992,5.992 0 1 1 0,-11.983 6,6 0 0 1 5.999,-5.99 C 5.999,-2.682 3.308,0 0,0 m 0.899,-10.285 h -1.793 v 5.469 h 1.793 z m -0.907,6.494 c -0.581,0 -1.052,0.453 -1.052,1.013 0,0.564 0.471,1.016 1.052,1.016 0.6,0 1.076,-0.445 1.076,-1.016 0,-0.567 -0.476,-1.013 -1.076,-1.013"
           style="fill:#000000;fill-opacity:1;fill-rule:nonzero;stroke:none"
           transform="matrix(7.28946,0,0,-4.34452,956.27,0)"
           id="path9" /></g></g></g></svg>
