<?xml version="1.0" encoding="UTF-8" standalone="no"?>
<!-- Created with Inkscape (http://www.inkscape.org/) -->

<svg
   width="100"
   height="100"
   viewBox="0 0 100 100"
   version="1.1"
   id="svg1"
   xml:space="preserve"
   xmlns="http://www.w3.org/2000/svg"
   xmlns:svg="http://www.w3.org/2000/svg"><defs
     id="defs1" /><g
     id="layer1"><g
       fill-rule="evenodd"
       clip-rule="evenodd"
       id="g5"
       transform="matrix(0.53451199,0,0,0.53451199,-1.5150518,-1.5152497)"><path
         d="m 100.512,88.193 1.432,-2.297 H 80.085 a 8.766,8.766 0 0 0 -4.668,1.408 l -1.679,1.235 C 72.997,87.65 72.28,87.032 71.565,86.612 70.675,86.118 69.688,85.896 68.551,85.896 H 31.528 l -1.21,3.681 -0.593,-3.681 h -8.101 l -0.296,0.692 -0.766,-0.271 C 16.289,84.859 12.189,85.304 8.312,87.7 6.336,88.96 4.854,90.54 3.94,92.467 3,94.393 2.68,96.541 2.902,98.986 c 0.148,1.457 0.667,2.816 1.556,4.051 0.889,1.235 2.025,2.223 3.433,2.939 2.05,1.062 4.272,1.383 6.594,1.012 h 7.212 l 1.803,-4 0.667,4 43.322,-0.049 c 0.938,0 1.877,-0.223 2.84,-0.643 0.938,-0.42 1.753,-1.012 2.495,-1.754 1.21,1.285 2.643,2.15 4.322,2.496 2.272,0.543 4.47,0.148 6.545,-1.162 l 0.272,-0.197 -0.197,1.309 h 8.817 l 0.222,-1.531 c 0.519,-0.074 0.938,-0.346 1.309,-0.789 h 23.983 c 3.68,0 6.396,-0.939 8.051,-2.84 l 1.779,2.84 h 25.662 v -3.607 l 4.619,3.607 h 31.713 v -16.45 h -34.355 v 3.557 l -4.545,-3.557 h -18.277 l -2.248,4.272 -2.494,-4.297 z"
         fill="#4b367c"
         id="path2" /><path
         d="m 106.119,90.935 h -2.742 l -6.471,10.894 h 7.706 v -2.422 h -3.137 l 3.137,-5.631 4.545,8.053 h 3.508 v -0.025 h 5.482 c 4.742,0 7.113,-1.828 7.113,-5.459 0,-0.617 -0.074,-1.21 -0.246,-1.753 l 4.371,7.212 h 2.1 l 6.297,-10.868 h -3.334 l -3.926,7.114 -4.15,-7.114 h -3.58 l 0.986,1.63 c -1.16,-1.086 -2.814,-1.63 -4.988,-1.63 h -7.213 v 9.04 z m 8.57,2.47 h 4.123 c 2.15,0 3.236,0.938 3.236,2.816 0,1.135 -0.346,1.951 -0.988,2.395 -0.617,0.445 -1.803,0.668 -3.457,0.668 h -2.914 z m 27.737,-2.47 h -2.768 l -6.445,10.893 h 3.26 v -0.025 h 4.447 v -2.422 h -3.113 l 3.088,-5.606 4.544,8.053 h 3.557 v -0.025 h 1.803 v -6.57 l 8.224,6.57 h 2.123 V 90.935 h -2.839 v 6.495 l -8.299,-6.495 h -2.123 v 9.04 z m 20.351,0.617 c -0.445,0.395 -0.666,1.111 -0.666,2.124 v 5.384 c 0,1.037 0.221,1.754 0.666,2.148 0.42,0.396 1.186,0.594 2.297,0.594 h 6.396 c 1.111,0 1.902,-0.197 2.322,-0.594 0.42,-0.395 0.666,-1.111 0.666,-2.148 v -1.506 l -3.135,-0.051 v 1.68 h -6.076 v -5.705 h 6.076 v 1.481 h 3.135 v -1.284 c 0,-1.062 -0.246,-1.778 -0.666,-2.124 -0.42,-0.42 -1.16,-0.618 -2.322,-0.618 h -6.396 c -1.111,0.002 -1.877,0.199 -2.297,0.619 z m 15.858,3.408 v -1.555 h 8.47 v -2.47 h -11.607 v 10.868 h 11.756 v -2.52 h -8.619 v -1.928 h 4.963 V 94.96 Z M 19.598,88.885 c -3.408,-1.235 -6.693,-0.84 -9.854,1.111 -3.112,1.901 -4.471,4.816 -4.101,8.619 0.099,1.113 0.519,2.125 1.235,3.014 0.716,0.891 1.63,1.531 2.717,2.025 1.111,0.494 2.272,0.691 3.507,0.617 1.359,-0.074 2.594,-0.469 3.804,-1.135 l 0.124,-0.074 -0.47,1.037 h 3.31 l 2.124,-4.619 h 3.656 l 0.814,4.619 h 5.409 l 2.766,-8.645 1.779,8.645 h 2.148 l 4.149,-9.583 0.42,9.583 h 3.162 L 45.655,88.613 h -3.854 l -3.605,8.471 -1.557,-8.471 h -3.161 l -4.075,12.521 -2.1,-12.521 h -3.902 l -5.978,13.51 0.865,-5.656 h -5.903 l -0.445,2.914 h 2.47 l -0.247,1.557 -2.594,0.174 c -1.037,-0.271 -1.778,-0.814 -2.272,-1.68 -0.42,-0.816 -0.618,-1.654 -0.519,-2.594 0.124,-1.309 0.766,-2.495 1.977,-3.557 1.086,-0.963 2.494,-1.506 4.174,-1.729 1.605,-0.247 3.013,-0.074 4.199,0.444 z m 5.582,7.582 h -1.951 l 1.358,-2.988 z m 32.677,-7.854 h -8.818 l -2.47,15.487 h 8.868 l 0.567,-3.286 h -5.582 l 0.445,-2.765 h 4.841 l 0.519,-3.335 h -4.891 l 0.42,-2.767 h 5.582 z m 38.999,0 h -3.705 l -3.161,5.063 -1.976,-5.063 h -3.656 l 3.78,8.176 -1.186,7.311 h 3.211 l 0.963,-6.448 z"
         fill="#ffffff"
         id="path3" /><path
         d="m 81.321,88.761 c -1.803,-0.42 -3.458,0 -5.063,1.235 -1.605,1.186 -2.643,2.89 -3.186,5.038 -0.469,2.124 -0.247,4.125 0.618,5.903 0.914,1.828 2.223,2.939 4.026,3.334 1.778,0.42 3.433,0 5.038,-1.209 1.605,-1.234 2.667,-2.939 3.162,-5.088 0.494,-2.125 0.271,-4.101 -0.617,-5.904 -0.891,-1.802 -2.225,-2.913 -3.978,-3.309 z m -0.272,3.088 c 0.865,0.346 1.408,1.136 1.704,2.297 0.296,1.186 0.223,2.421 -0.198,3.729 -0.419,1.285 -1.111,2.248 -2,2.865 -0.914,0.666 -1.778,0.791 -2.594,0.42 -0.864,-0.346 -1.433,-1.137 -1.729,-2.297 -0.321,-1.211 -0.198,-2.445 0.222,-3.73 0.419,-1.26 1.111,-2.247 2,-2.914 0.866,-0.617 1.755,-0.765 2.595,-0.37 z M 70.478,89.305 C 69.86,88.91 69.243,88.712 68.65,88.712 H 62.722 L 60.277,104.1 h 7.113 c 0.766,0 1.557,-0.246 2.371,-0.74 a 6.024,6.024 0 0 0 1.927,-1.854 c 0.519,-0.865 0.716,-1.703 0.618,-2.594 -0.099,-0.963 -0.618,-1.877 -1.531,-2.741 1.803,-1.853 2.223,-3.606 1.284,-5.286 a 4.62,4.62 0 0 0 -1.581,-1.58 z m -5.508,5.532 0.494,-2.865 h 2.075 c 0.519,0 0.914,0.148 1.186,0.444 0.223,0.272 0.321,0.593 0.271,0.988 -0.049,0.396 -0.247,0.716 -0.543,0.988 -0.346,0.296 -0.766,0.445 -1.26,0.445 H 64.97 l 3.582,3.655 c 0.296,0.297 0.444,0.668 0.42,1.088 -0.024,0.42 -0.223,0.766 -0.593,1.061 -0.37,0.297 -0.889,0.471 -1.605,0.471 h -2.791 l 0.494,-3.113 h 2.667 c 0.593,0 1.062,0.174 1.408,0.494 z m 29.071,7.88 c 0,-0.445 -0.173,-0.791 -0.444,-1.088 -0.297,-0.297 -0.667,-0.469 -1.087,-0.469 -0.42,0 -0.791,0.172 -1.087,0.469 -0.296,0.297 -0.444,0.643 -0.444,1.088 0,0.42 0.148,0.766 0.444,1.061 0.296,0.297 0.667,0.471 1.087,0.471 0.42,0 0.79,-0.174 1.087,-0.471 0.271,-0.296 0.444,-0.641 0.444,-1.061 z m -0.618,-0.914 c 0.223,0.223 0.371,0.543 0.371,0.914 0,0.346 -0.148,0.643 -0.371,0.914 -0.222,0.223 -0.543,0.346 -0.914,0.346 -0.371,0 -0.691,-0.123 -0.914,-0.346 -0.271,-0.271 -0.396,-0.568 -0.396,-0.914 0,-0.371 0.124,-0.691 0.396,-0.914 0.223,-0.271 0.543,-0.396 0.914,-0.396 0.371,0 0.692,0.124 0.914,0.396 z"
         fill="#ffffff"
         id="path4" /><path
         d="m 93.052,101.926 -0.42,-0.098 h -0.74 v 1.729 h 0.247 v -0.791 h 0.346 l 0.469,0.791 h 0.272 l -0.519,-0.791 c 0.346,0 0.544,-0.148 0.544,-0.494 -0.001,-0.149 -0.05,-0.297 -0.199,-0.346 z m -0.049,0.345 c 0,0.197 -0.198,0.297 -0.568,0.297 h -0.296 v -0.543 h 0.469 c 0.272,0 0.395,0.098 0.395,0.246 z"
         fill="#ffffff"
         id="path5" /></g></g></svg>
