<?xml version="1.0" encoding="UTF-8" standalone="no"?>
<!-- Created with Inkscape (http://www.inkscape.org/) -->

<svg
   width="100"
   height="100"
   viewBox="0 0 100 100"
   version="1.1"
   id="svg1"
   xml:space="preserve"
   xmlns="http://www.w3.org/2000/svg"
   xmlns:svg="http://www.w3.org/2000/svg"><defs
     id="defs1" /><g
     id="layer1"><g
       id="g1"
       transform="matrix(0.05137499,0,0,0.05137499,31.538511,31.538571)"><path
         d="m -243.804,0 c -127.753,-0.3 -213.574,91.56 -213.574,201.654 0,110.077 85.62,200.892 213.74,200.96 H 963.106 c 128.146,-0.068 213.791,-90.883 213.791,-200.96 C 1176.898,91.55 1091.072,-0.305 963.293,0 Z M 962.73,49.517 c 101.452,0.207 163.706,68.003 163.706,151.879 0,83.86 -61.881,152.22 -163.706,151.858 H -243.235 c -101.846,0.362 -163.707,-67.997 -163.707,-151.858 0,-83.871 62.264,-151.651 163.707,-151.868 z"
         style="display:inline;fill:#ff0000;stroke-width:5.17404"
         id="path1" /><path
         d="m -243.235,49.527 c -101.443,0.212 -163.707,67.997 -163.707,151.868 0,83.86 61.86,152.22 163.707,151.858 H 962.73 c 101.825,0.362 163.706,-67.997 163.706,-151.858 0,-83.876 -62.249,-151.879 -163.706,-151.879 z"
         style="display:inline;fill:#ffffff;stroke-width:5.17404"
         id="path2" /><path
         d="m -63.484,106.157 v 38.738 h 57.121 v -38.739 z m -231.781,0.051 v 189.54 h 58.694 v -132.17 l 82.086,132.17 h 58.513 v -189.54 h -58.601 l 0.041,132.16 -81.682,-132.16 z m 1072.593,0 v 69.741 c -9.111,-5.143 -18.71,-10.053 -32.286,-11.248 -41.045,-3.596 -72.416,32.715 -72.416,65.99 0,43.844 33.854,60.075 38.966,62.47 19.196,8.926 43.793,8.967 65.607,-4.697 v 7.274 h 56.387 V 106.213 Z m -21.917,78.873 c 8.848,0 22.29,4.967 22.29,24.468 l 0.01,22.523 c 0,0 0.03,14.28 0.03,22.352 0,19.48 -13.472,24.592 -22.351,24.592 -9.044,0 -22.3,-5.112 -22.3,-24.587 v -44.88 c 0,-19.496 13.245,-24.468 22.32,-24.468 z m 271.482,-77.367 a 29.18,29.18 0 0 0 -29.213,29.166 29.22,29.22 0 0 0 29.213,29.176 29.213,29.213 0 0 0 29.166,-29.181 29.16,29.16 0 0 0 -29.166,-29.161 m 0,5.546 a 23.573,23.573 0 0 1 23.547,23.62 23.557,23.557 0 0 1 -23.542,23.583 23.58,23.58 0 0 1 -23.594,-23.583 23.594,23.594 0 0 1 23.594,-23.62"
         style="display:inline;fill:#ff0000;stroke-width:5.17404"
         id="path3" /><path
         d="m 1014.936,120.297 v 32.317 h 7.864 V 139.42 h 3.855 l 6.157,13.194 h 8.739 l -7.218,-14.389 c 4.429,-1.154 7.063,-4.356 7.063,-8.61 0,-6.188 -4.595,-9.318 -13.805,-9.318 z m 7.864,4.967 h 3.446 c 4.714,0 7.068,1.47 7.068,4.812 0,3.244 -2.184,4.59 -6.66,4.59 h -3.854 z m -800.206,0.445 0.041,25.529 h -30.992 v 18.704 h 30.961 l -0.01,125.807 h 57.059 l -0.01,-125.807 h 30.832 V 151.181 H 279.637 V 125.714 Z M 935.42,161.1 c -45.997,0 -83.292,31.666 -83.292,70.771 0,39.064 37.29,70.77 83.292,70.77 46.028,0 83.307,-31.7 83.307,-70.77 0,-39.1 -37.279,-70.765 -83.307,-70.765 m -0.445,15.594 c 11.357,0 23.273,8.243 23.273,28.256 0,7.606 0,21.72 0.062,26.801 0,0.326 -0.021,19.067 -0.021,26.605 0,20.107 -11.88,28.432 -23.314,28.432 -11.425,0 -23.325,-8.33 -23.325,-28.432 v -27.143 c 0,0 0.041,-18.663 0.041,-26.263 0,-20.013 11.921,-28.25 23.283,-28.25 M 386.88,161.798 c -46.328,0 -83.907,31.676 -83.907,70.75 0,39.095 37.579,70.78 83.907,70.78 38.49,0 70.92,-21.963 80.855,-51.73 l -56.811,0.058 c 0,0 0.04,0.569 0.04,7.621 0,23.081 -15.16,28.183 -23.567,28.183 -8.407,0 -23.868,-5.102 -23.868,-28.183 0,-6.897 0.068,-25.99 0.068,-25.99 0,0 107.381,0.032 107.381,-0.03 0,-39.09 -37.77,-71.454 -84.098,-71.454 z m 0.517,15.595 c 7.42,0.036 15.574,3.75 20.05,11.512 3.622,6.312 3.792,13.69 3.7,24.727 h -47.581 c -0.104,-11.037 0.134,-18.42 3.772,-24.732 4.486,-7.761 12.624,-11.471 20.06,-11.507 m -260.352,-13.5 c -18.818,0.518 -34.48,8.59 -45.402,19.005 -0.063,-3.125 0,-13.235 0,-13.235 l -56.62,0.03 0.052,126.025 h 56.567 l -0.056,-82.775 c 0,-10.994 11.538,-23.22 27.05,-23.22 15.496,0 26.04,12.226 26.04,23.22 v 82.775 h 56.635 c 0,0 -0.02,-59.714 0,-68.567 0.337,-49.903 -42.918,-63.894 -64.261,-63.257 z m 463.18,0 a 68.3,68.3 0 0 0 -45.403,19.005 c -0.062,-3.125 0,-13.235 0,-13.235 l -56.572,0.03 -0.041,126.025 h 56.609 l -0.067,-82.775 c 0,-10.994 11.548,-23.22 27.05,-23.22 15.542,0 26.025,12.226 26.025,23.22 v 82.775 h 56.63 c 0,0 -0.026,-59.714 0,-68.567 0.352,-49.903 -42.893,-63.894 -64.23,-63.257 z M -63.35,169.69 V 295.75 H -6.368 V 169.694 Z"
         style="display:inline;fill:#ff0000;stroke-width:5.17404"
         id="path4" /><path
         d="m -354.274,454.534 h -112.66 V 564.88 h 34.976 v -73.795 c 0,-4.669 3.889,-8.542 8.565,-8.542 h 60.554 c 4.7,0 8.565,3.873 8.565,8.542 v 73.795 h 34.977 v -73.795 c 0,0 4.676,-36.551 -34.977,-36.551 m 973.564,0 H 506.627 V 564.88 h 35.756 v -73.795 c 0,-4.669 3.897,-8.542 7.778,-8.542 h 60.586 c 4.653,0 8.541,3.873 8.541,8.542 v 73.795 h 34.985 v -73.795 c 0,0 4.645,-36.551 -34.985,-36.551 m 530.722,0 H 1037.32 V 564.88 h 35.008 v -73.795 c 0,-4.669 3.818,-8.542 8.494,-8.542 h 60.64 c 4.661,0 8.55,3.873 8.55,8.542 v 73.795 h 34.969 v -73.795 c 0,0 4.637,-36.551 -34.97,-36.551 m -1453.756,27.992 h 38.827 c 3.889,0 8.565,3.889 8.565,8.542 v 73.803 h 37.291 v -73.803 c 0,-4.653 3.889,-8.542 8.534,-8.542 h 38.897 v -28.01 h -132.114 z m 1503.46,-27.992 v 28.01 h 38.85 a 8.573,8.573 0 0 1 8.51,8.54 v 73.796 h 38.912 v -73.795 c 0,-4.669 3.078,-8.542 7.747,-8.542 h 38.85 v -28.01 z M 139.922,482.526 h 38.85 c 4.653,0 8.557,3.889 8.557,8.542 v 73.803 h 38.85 v -73.803 c 0,-4.653 3.89,-8.542 8.534,-8.542 h 38.842 v -28.01 H 139.922 Z m 306.102,82.325 h 37.292 V 454.505 H 446.024 Z M 386.188,508.91 H 323.28 v -19.43 c 0,-3.07 4.676,-6.959 7.021,-6.959 h 47.345 c 5.432,0 8.542,3.89 8.542,6.96 v 6.234 z m -0.764,-54.383 h -61.357 c -39.669,0 -36.543,36.551 -36.543,36.551 v 73.796 h 35.756 v -27.955 h 62.908 v 27.955 h 35.756 v -73.796 c 0,0 4.684,-36.55 -36.52,-36.55 m -295.219,45.82 c 0,5.487 -2.338,8.55 -6.991,8.55 H 31.918 c -2.338,0 -5.463,-3.063 -5.463,-8.55 v -10.872 c 0,-4.66 3.125,-8.518 7.778,-8.518 h 48.981 c 4.653,0 6.99,2.354 6.99,8.518 v 5.456 z M 89.41,454.523 h -99.444 v 110.339 h 36.489 v -20.996 c 0,-4.644 3.125,-6.96 7.778,-6.96 h 48.981 c 2.307,0 6.99,3.905 6.99,6.96 v 20.996 h 34.962 V 547.74 c 0,0 3.094,-15.517 -13.202,-26.389 10.88,-7.77 14.721,-19.42 15.509,-26.42 0.787,-3.109 0.787,-5.455 0.787,-5.455 0,0 0,-34.953 -38.85,-34.953 m -703.197,73.817 c 0,0 -3.889,36.528 36.496,36.528 h 87.045 v -27.962 h -80.833 c -5.424,0 -10.07,-4.677 -10.07,-9.321 0,-5.464 3.858,-8.596 10.07,-8.596 h 76.18 v -19.414 h -77.684 c -4.708,0 -8.565,-3.865 -8.565,-8.51 0,-4.66 3.857,-8.542 8.565,-8.542 h 82.337 v -28.009 h -123.54 z m 458.426,0 c 0,0 -5.44,36.528 34.976,36.528 h 87.044 v -27.962 h -80.786 c -5.51,0 -10.162,-4.677 -10.162,-9.321 0,-5.464 4.652,-8.596 10.162,-8.596 h 76.08 v -19.414 h -76.08 c -5.51,0 -10.162,-3.865 -10.162,-8.51 0,-4.66 4.652,-8.542 10.162,-8.542 h 80.786 v -28.009 h -122.02 z m 1047.411,0 c 0,0 -3.896,36.528 35.74,36.528 h 87.793 v -27.962 h -81.612 c -4.645,0 -9.32,-4.677 -9.32,-9.321 0,-5.464 3.14,-8.596 8.58,-8.596 h 76.102 V 499.575 H 933.23 c -5.44,0 -8.58,-3.865 -8.58,-8.51 0,-4.66 3.14,-8.542 8.58,-8.542 h 82.352 V 454.514 H 892.05 Z M 833.995,454.702 H 677.801 v 110.33 h 32.654 V 491.19 a 8.65,8.65 0 0 1 8.565,-8.541 h 26.396 c 4.692,0 8.518,3.92 8.518,8.541 v 73.842 h 36.567 V 491.19 c 0,-4.621 3.055,-8.541 8.533,-8.541 h 27.986 c 3.094,0 6.975,3.92 6.975,8.541 l 1.582,73.842 h 34.985 V 491.19 c 0,0 4.614,-36.488 -36.567,-36.488 M 337.24,636.323 h 39.629 c 3.086,0 6.983,3.897 6.983,8.565 v 73.803 h 38.857 l 1.544,-73.803 c 0,-4.668 2.377,-8.565 6.998,-8.565 h 38.842 V 608.4 H 337.24 Z M 786.362,608.387 H 630.167 V 718.67 h 32.662 v -73.796 c 0,-4.66 3.858,-8.565 8.565,-8.565 h 26.397 a 8.65,8.65 0 0 1 8.549,8.565 v 73.796 h 36.504 v -73.796 c 0,-4.66 3.133,-8.565 8.55,-8.565 h 27.946 c 3.118,0 7.022,3.905 7.022,8.565 l 1.551,73.796 h 34.946 v -73.796 c 0,0 4.715,-36.488 -36.497,-36.488 m -609.145,10e-4 h -33.41 v 41.125 c 0,4.715 -4.668,8.565 -8.557,8.565 H 85.52 c -4.621,0 -8.51,-3.85 -8.51,-8.565 V 608.387 H 41.98 v 40.385 c 0,0 -3.834,37.276 36.582,37.276 h 11.643 v 32.623 h 38.858 v -32.623 h 13.179 c 40.393,0 34.976,-36.536 34.976,-36.536 z m 307.65,73.807 c 0,0 -5.47,36.496 34.977,36.496 h 87.044 v -27.97 h -80.825 c -5.44,0 -10.084,-3.843 -10.084,-9.33 0,-5.431 4.644,-7.746 10.084,-7.746 h 76.141 V 654.24 h -76.14 c -5.44,0 -10.085,-4.707 -10.085,-9.352 0,-4.653 4.644,-8.557 10.084,-8.557 h 80.825 V 608.399 H 484.868 Z M 289.145,653.432 h -52.083 c -6.204,0 -10.116,-2.346 -10.116,-7.77 0,-4.692 3.912,-9.337 8.565,-9.337 h 88.571 v -27.923 h -97.136 c -17.894,0 -33.426,14.737 -33.426,31.82 0,24.097 15.532,33.418 36.551,33.418 h 52.013 c 5.44,0 10.91,2.315 10.91,7.747 0,4.676 -3.85,9.328 -8.595,9.328 H 193.52 v 27.979 h 99.475 c 16.319,0 33.379,-13.25 33.379,-31.829 0,-22.546 -17.878,-33.433 -37.23,-33.433 m -296.066,0 h -50.532 c -6.157,0 -10.864,-2.346 -10.864,-7.77 0,-4.692 4.707,-9.337 9.328,-9.337 H 29.574 V 608.402 H -67.53 c -19.445,0 -34.977,14.737 -34.977,31.82 0,24.097 17.09,33.418 38.063,33.418 h 50.532 c 6.227,0 10.856,2.315 10.856,7.747 0,4.676 -4.629,9.328 -9.328,9.328 h -90.123 v 27.979 h 99.451 c 17.894,0 34.19,-13.25 34.19,-31.829 0,-22.546 -17.083,-33.433 -38.055,-33.433 M 867.29,608.387 v 4.52 h -12.875 v 33.769 h -5.3 v -33.77 h -12.898 v -4.52 z m 4.644,0 h 7.404 l 11.05,32.397 10.92,-32.397 h 7.387 v 38.289 h -4.956 v -22.61 q 0,-1.16 0.07,-3.896 0.016,-2.696 0.016,-5.814 l -10.919,32.32 h -5.175 l -11.027,-32.32 v 1.193 c 0,0.943 0.016,2.353 0.093,4.325 0.07,1.894 0.109,3.32 0.109,4.193 v 22.609 h -4.972 z"
         style="fill:#000000;fill-opacity:1;fill-rule:nonzero;stroke:none;stroke-width:7.79337"
         id="path5" /></g></g></svg>
