<?xml version="1.0" encoding="UTF-8" standalone="no"?>
<!-- Created with Inkscape (http://www.inkscape.org/) -->

<svg
   width="100"
   height="100"
   viewBox="0 0 100 100"
   version="1.1"
   id="svg1"
   xml:space="preserve"
   xmlns="http://www.w3.org/2000/svg"
   xmlns:svg="http://www.w3.org/2000/svg"><defs
     id="defs1" /><g
     id="layer1"><g
       id="g1"
       transform="matrix(0.10000002,0,0,0.10000002,-2.1836002e-5,44.916549)"><path
         d="m 487.39,354.6 c 0,1.079 -0.886,2.05 -1.976,2.05 h -37.796 c -1.101,0 -1.986,-0.971 -1.986,-2.05 v -27.307 c 0,-1.079 0.885,-1.942 1.986,-1.942 h 37.796 c 1.09,0 1.975,0.863 1.975,1.942 z m -1.641,-37.452 h -38.477 c -5.569,0 -10.113,4.533 -10.113,10.145 v 27.414 c 0,5.505 4.544,10.146 10.113,10.146 h 38.477 c 5.58,0 10.113,-4.641 10.113,-10.146 v -27.414 c 0,-5.612 -4.533,-10.145 -10.113,-10.145"
         style="fill:#929497;fill-rule:nonzero;stroke:none"
         transform="matrix(1.35802,0,0,1,-48.257,-263.184)"
         id="path1" /><path
         d="m 44.363,276.135 v 35.293 h -8.828 v -47.705 h 7.544 l 35.757,34.753 v -34.753 h 8.71 v 47.705 h -6.897 z"
         style="fill:#221f1f;fill-rule:nonzero;stroke:none"
         transform="matrix(1.35802,0,0,1,-48.257,-263.184)"
         id="path2" /><path
         d="m 132.876,276.135 v 35.293 h -8.829 v -47.705 h 7.534 l 35.756,34.753 v -34.753 h 8.721 v 47.705 h -6.897 z m 183.446,0 v 35.293 h -8.828 v -47.705 h 7.533 l 35.757,34.753 v -34.753 h 8.72 v 47.705 h -6.885 z M 108.57,263.723 h 1.63 v 47.705 h -8.829 v -47.705 z m 127.615,0 h 1.62 v 8.203 H 216.52 v 39.502 h -9.174 v -39.502 h -21.284 v -8.203 z m 56.555,0 h 1.651 v 8.203 h -37.84 v 10.685 h 29.27 v 8.202 h -29.27 v 12.412 h 37.84 v 8.203 H 247.81 v -47.705 z m 115.85,39.502 h -27.11 v -31.3 h 27.112 c 8.483,0 11.494,8.42 11.494,15.65 0,7.124 -3.011,15.65 -11.494,15.65 m 14.485,-32.486 c -3.454,-4.641 -8.56,-7.016 -14.733,-7.016 h -35.379 v 47.705 h 35.38 c 6.173,0 11.278,-2.483 14.732,-7.016 3.238,-4.209 4.954,-10.037 4.954,-16.836 0,-6.8 -1.716,-12.628 -4.954,-16.837 m 64.313,30.544 c 0,0.97 -0.886,1.942 -1.976,1.942 h -37.796 c -1.101,0 -1.986,-0.971 -1.986,-1.942 v -27.414 c 0,-1.08 0.885,-1.943 1.986,-1.943 h 37.796 c 1.09,0 1.975,0.863 1.975,1.943 z m -1.641,-37.56 h -38.477 c -5.569,0 -10.113,4.533 -10.113,10.146 v 27.414 c 0,5.612 4.544,10.145 10.113,10.145 h 38.477 c 5.58,0 10.113,-4.533 10.113,-10.145 v -27.414 c 0,-5.613 -4.533,-10.146 -10.113,-10.146 m 160.274,80.947 c 9.153,3.67 28.483,6.584 43.571,6.584 16.513,0 23.345,-5.613 23.345,-12.736 0,-6.476 -6.346,-10.145 -24.575,-16.837 -24.381,-8.958 -42.265,-16.081 -42.265,-32.163 0,-16.513 21.52,-26.334 54.32,-26.334 17.614,0 23.658,1.079 34.84,3.13 l 0.086,15.757 c -10.987,-2.05 -20.722,-5.612 -35.843,-5.612 -16.21,0 -23.118,5.18 -23.118,10.469 0,7.663 10.641,11.332 29.302,18.024 25.979,9.282 40.43,16.405 40.43,32.055 0,16.19 -18.1,27.846 -58.918,27.846 -16.761,0 -28.32,-1.08 -41.175,-3.238 z M 559.14,277.106 h -19.427 v 73.608 h 19.428 c 29.82,0 48.632,-12.844 48.632,-36.696 0,-23.852 -18.812,-36.912 -48.632,-36.912 m 52.14,80.407 c -9.605,4.318 -27.78,7.124 -43.667,7.124 h -60.72 V 263.399 h 60.72 c 15.887,0 34.062,2.807 43.69,7.124 23.388,10.577 31.007,27.522 31.007,43.495 0,15.974 -7.555,32.918 -31.03,43.495 m 140.933,-7.986 h -3.896 v -1.403 h 9.487 v 1.403 h -3.918 v 11.332 h -1.673 z m 17.755,5.72 c -0.097,-1.727 -0.205,-3.885 -0.205,-5.504 h -0.044 a 75,75 0 0 1 -1.619,4.856 l -2.255,6.26 h -1.252 l -2.094,-6.152 c -0.604,-1.835 -1.1,-3.453 -1.457,-4.964 H 761 a 158,158 0 0 1 -0.238,5.612 l -0.345,5.504 h -1.576 l 0.896,-12.735 h 2.105 l 2.18,6.152 c 0.529,1.619 0.95,3.022 1.295,4.317 h 0.032 c 0.346,-1.295 0.799,-2.698 1.371,-4.317 l 2.277,-6.152 h 2.105 l 0.799,12.735 h -1.63 z"
         style="fill:#221e1f;fill-rule:nonzero;stroke:none;stroke-width:0.05;stroke-linecap:butt;stroke-linejoin:miter;stroke-miterlimit:4;stroke-dasharray:none"
         transform="matrix(1.35802,0,0,1,-48.257,-263.184)"
         id="path3" /></g></g></svg>
