<?xml version="1.0" encoding="UTF-8" standalone="no"?>
<!-- Created with Inkscape (http://www.inkscape.org/) -->

<svg
   width="100"
   height="100"
   viewBox="0 0 100 100"
   version="1.1"
   id="svg1"
   xml:space="preserve"
   xmlns="http://www.w3.org/2000/svg"
   xmlns:svg="http://www.w3.org/2000/svg"><defs
     id="defs1" /><g
     id="layer1"><g
       id="_56610944"
       transform="matrix(0.14338973,0,0,0.14338973,-0.83165928,34.320384)"><path
         id="_56666168"
         d="m 569.4,77.2 c 0,47.6 56.2,40.8 56.2,7.5 V 5.9 h -56.2 z"
         class="st0" /><path
         id="_56603080"
         d="m 491.9,127.2 c 0,23.5 16.2,37.5 40,37.5 h 135 c 20.1,0 36.3,-13.8 36.3,-33.8 V 32.2 c 0,-12 -8.9,-25 -20,-25 h -31.3 v 81.2 c 0,61.7 -107.5,61.2 -107.5,1.3 V 5.9 h -23.8 c -15.5,0 -28.8,9.8 -28.8,25 z"
         class="st0" /><path
         id="_56604928"
         d="m 305,29.3 c 0,12.8 10.8,23.6 24.3,23.6 14.2,0 25.3,-10.5 25.3,-23.6 C 354.6,16.1 343.5,5.7 329.3,5.7 315.8,5.6 305,16.1 305,29.3"
         class="st1" /><path
         id="_56605920"
         d="M 350.9,211.6 V 76.2 h -41.8 v 135.4 z"
         class="st1" /><path
         id="_56605848"
         d="m 389.8,29.3 c 0,12.8 11.1,23.6 24.7,23.6 13.8,0 25,-10.5 25,-23.6 0,-13.2 -11.1,-23.6 -25,-23.6 -13.6,-0.1 -24.7,10.4 -24.7,23.6"
         class="st1" /><path
         id="_56607936"
         d="M 435.7,211.6 V 76.2 h -41.9 v 135.4 z"
         class="st1" /><path
         id="_56607472"
         d="M 242.5,17.1 206,160.6 c 0,0 -28,-107.7 -32.8,-123.3 -4.4,-15.2 -13.8,-21.9 -27,-21.9 -13.5,0 -22.6,6.8 -27.4,21.9 -4.4,15.5 -32.4,123.3 -32.4,123.3 L 49.7,17.1 H 5.8 c 0,0 42.2,153 48,170.9 4.4,13.8 15.2,25 30.7,25 18.2,0 26.7,-13.2 30.4,-25 4.1,-12.2 31.4,-113.1 31.4,-113.1 0,0 27.4,101 31.1,113.1 4.1,11.8 12.5,25 30.4,25 15.9,0 26.3,-11.1 31.1,-25 5.7,-17.9 48,-170.9 48,-170.9 z"
         class="st1" /></g></g><style
     id="style1">.st0{fill:#009ac7}.st1{fill:#8b8b8b}</style></svg>
