<?xml version="1.0" encoding="UTF-8" standalone="no"?>
<svg
   width="100"
   height="100"
   viewBox="0 0 7.71024 7.71024"
   version="1.1"
   id="svg5"
   xmlns="http://www.w3.org/2000/svg"
   xmlns:svg="http://www.w3.org/2000/svg">
  <defs
     id="defs5" />
  <g
     fill-rule="evenodd"
     clip-rule="evenodd"
     id="g5"
     transform="scale(0.04)">
    <path
       fill="#ffffff"
       d="M 0,0 H 192.756 V 192.756 H 0 Z"
       id="path1" />
    <path
       d="M 27.305,119.422 C 12.636,119.418 2.835,109.024 2.835,96.42 c 0,-12.605 9.826,-23.119 24.449,-23.086 h 138.189 c 14.623,-0.033 24.449,10.481 24.449,23.086 0,12.604 -9.803,22.998 -24.473,23.002 z"
       fill="#cc2131"
       id="path2" />
    <path
       d="m 27.351,79.005 c -11.613,0.02 -18.743,7.783 -18.743,17.384 0,9.6 7.084,17.424 18.743,17.381 h 138.052 c 11.658,0.043 18.746,-7.781 18.746,-17.381 0,-9.601 -7.131,-17.363 -18.746,-17.384 z"
       fill="#ffffff"
       id="path3" />
    <path
       fill="#cc2131"
       d="m 21.396,85.491 h 6.756 l 9.355,15.128 -0.005,-15.128 h 6.705 v 21.698 H 37.511 L 28.109,92.06 v 15.129 h -6.716 z m 59.278,2.234 h 6.53 v 2.919 h 3.533 v 2.143 h -3.533 l 0.004,14.402 h -6.534 l 0.003,-14.402 h -3.546 v -2.141 h 3.548 z m -32.731,5.036 h 6.525 v 14.428 h -6.525 z m -0.014,-7.274 h 6.539 v 4.436 h -6.539 z m 116.969,14.372 c 0,0 -0.004,2.178 -0.004,3.055 0,2.299 -1.357,3.25 -2.668,3.25 -1.305,0 -2.672,-0.951 -2.672,-3.25 0,-0.877 0.004,-3.109 0.004,-3.109 0,0 0.006,-2.133 0.006,-3.01 0,-2.29 1.361,-3.232 2.662,-3.232 1.301,0 2.668,0.942 2.668,3.232 0,0.877 0,2.492 0.004,3.074 z m -2.621,-8.084 c -5.264,0 -9.531,3.628 -9.531,8.104 0,4.473 4.268,8.1 9.531,8.1 5.27,0 9.537,-3.627 9.537,-8.1 0,-4.476 -4.267,-8.104 -9.537,-8.104 z M 144.18,85.491 h 6.439 v 21.694 h -6.449 l -0.004,-0.83 c -2.494,1.566 -5.316,1.562 -7.512,0.541 -0.588,-0.275 -4.463,-2.135 -4.463,-7.152 0,-3.812 3.596,-7.969 8.295,-7.557 1.549,0.138 2.648,0.702 3.693,1.287 z m 0.047,14.411 v -2.578 c 0,-2.232 -1.539,-2.8 -2.555,-2.8 -1.041,0 -2.561,0.568 -2.561,2.8 0,0.736 0.004,2.572 0.004,2.572 0,0 -0.004,1.795 -0.004,2.564 0,2.23 1.52,2.812 2.561,2.812 1.016,0 2.555,-0.582 2.555,-2.812 z M 69.741,92.094 c 2.438,-0.067 7.39,1.53 7.354,7.244 -0.007,1.012 -0.002,7.848 -0.002,7.848 h -6.482 v -9.475 c 0,-1.259 -1.203,-2.658 -2.979,-2.658 -1.779,0 -3.099,1.399 -3.099,2.658 l 0.007,9.475 h -6.479 l -0.005,-14.427 6.483,-0.005 c 0,0 -0.007,1.162 0,1.516 a 7.872,7.872 0 0 1 5.202,-2.176 z m 53.027,0 c 2.434,-0.067 7.385,1.53 7.354,7.244 -0.01,1.012 -0.006,7.848 -0.006,7.848 h -6.482 v -9.475 c 0,-1.259 -1.201,-2.658 -2.979,-2.658 -1.778,0 -3.102,1.399 -3.102,2.658 l 0.01,9.475 h -6.477 l 0.004,-14.427 6.473,-0.005 c 0,0 -0.01,1.162 0,1.516 a 7.869,7.869 0 0 1 5.205,-2.176 z m -25.952,5.695 c -0.012,-1.262 0.014,-2.106 0.428,-2.832 0.514,-0.888 1.451,-1.311 2.299,-1.315 h -0.004 c 0.854,0.004 1.785,0.427 2.295,1.315 0.414,0.725 0.438,1.57 0.428,2.832 z m 5.418,4.352 c 0,0 0.006,0.064 0.006,0.877 0,2.639 -1.736,3.227 -2.697,3.227 -0.965,0 -2.732,-0.588 -2.732,-3.227 0,-0.793 0.01,-2.98 0.01,-2.98 0,0 12.287,0.004 12.287,0 0,-4.476 -4.318,-8.183 -9.625,-8.183 -5.304,0 -9.607,3.628 -9.607,8.099 0,4.477 4.303,8.105 9.607,8.105 4.402,0 8.119,-2.514 9.258,-5.924 z m 70.034,-11.487 h -0.752 v -4.941 h 1.885 c 1.164,0 1.744,0.431 1.744,1.404 0,0.883 -0.555,1.268 -1.283,1.361 l 1.404,2.176 h -0.836 l -1.305,-2.143 h -0.857 z m 0.894,-2.778 c 0.635,0 1.197,-0.044 1.197,-0.804 0,-0.611 -0.555,-0.726 -1.072,-0.726 h -1.02 v 1.53 z"
       id="path4" />
    <path
       d="m 168.82,88.17 c 0,-2.458 1.996,-4.271 4.352,-4.271 2.336,0 4.326,1.814 4.326,4.271 0,2.483 -1.99,4.295 -4.326,4.295 -2.356,0 -4.352,-1.811 -4.352,-4.295 z m 4.352,3.581 c 1.939,0 3.465,-1.518 3.465,-3.581 0,-2.026 -1.525,-3.558 -3.465,-3.558 -1.959,0 -3.488,1.532 -3.488,3.558 0,2.064 1.529,3.581 3.488,3.581 z"
       fill="#cc2131"
       id="path5" />
  </g>
</svg>
