<?xml version="1.0" encoding="UTF-8" standalone="no"?>
<!-- Created with Inkscape (http://www.inkscape.org/) -->

<svg
   width="100"
   height="100"
   viewBox="0 0 100 100"
   version="1.1"
   id="svg1"
   xml:space="preserve"
   xmlns="http://www.w3.org/2000/svg"
   xmlns:svg="http://www.w3.org/2000/svg"><defs
     id="defs1" /><g
     id="layer1"><path
       fill="#999999"
       d="M 17.156216,72.011454 C 15.289242,71.499559 13.468804,69.769977 12.673263,67.751208 12.139209,66.397236 10.210187,59.608542 3.451409,35.286913 l -1.013817,-3.646416 4.573809,-0.0277 c 2.515152,-0.0144 4.605941,0.0089 4.644721,0.05208 0.03878,0.04321 1.751743,6.670138 3.80486,14.728596 l 3.733948,14.651036 1.77501,-6.792018 c 4.21371,-16.127995 4.929476,-18.729571 5.461314,-19.846431 0.716874,-1.504659 1.96891,-2.581632 3.456949,-2.968323 0.783354,-0.203871 2.589388,-0.206087 3.366093,-0.0044 1.639835,0.427687 2.919571,1.608811 3.625364,3.345042 0.429903,1.058136 1.35508,4.465225 4.812029,17.716862 1.164504,4.46301 2.150621,8.196958 2.191617,8.295569 0.04654,0.1108 1.490255,-5.364918 3.824803,-14.511429 l 3.74946,-14.689816 h 4.645829 c 3.6719,0 4.635857,0.02659 4.600401,0.127419 -0.02438,0.07091 -1.012708,3.618717 -2.197157,7.885611 -5.661861,20.387134 -7.631879,27.232336 -8.188093,28.440052 -0.941797,2.052009 -2.526232,3.476892 -4.40761,3.966627 -0.786677,0.204979 -2.495208,0.207195 -3.275237,0.0044 -1.085837,-0.282507 -1.706315,-0.65701 -2.637032,-1.587727 -0.726845,-0.726846 -0.959524,-1.043733 -1.356187,-1.85257 C 37.992089,67.250393 37.366071,65.094232 33.3795,50.438764 a 774.48949,774.48949 0 0 0 -1.762822,-6.420839 c -0.03213,-0.08421 -0.999413,3.286317 -2.149513,7.490055 -2.530664,9.239582 -3.863584,14.012831 -4.277975,15.316943 -0.895261,2.820958 -2.522907,4.625885 -4.669096,5.179883 -0.773382,0.199439 -2.648112,0.202763 -3.363878,0.0066 M 65.275393,57.835748 V 43.814053 h 8.732119 v 28.045605 h -8.732119 z m 17.567283,0 V 43.814053 h 8.732119 v 28.045605 h -8.731011 z m 12.019545,12.637807 v -1.387212 h -0.513003 c -0.479762,0 -0.51411,-0.01662 -0.51411,-0.257055 v -0.257055 h 2.670271 v 0.257055 c 0,0.240435 -0.03324,0.257055 -0.513002,0.257055 h -0.513002 v 2.773315 H 94.862221 Z M 96.712575,70.2165 v -1.644267 h 0.915205 l 0.312455,1.013817 c 0.171739,0.557322 0.312455,1.074756 0.312455,1.1501 0,0.321319 0.200547,-0.12188 0.504138,-1.110212 l 0.323535,-1.052597 H 100 v 3.286317 h -0.617154 l -0.0078,-1.15564 c -0.0089,-1.248712 -0.0044,-1.252036 -0.456494,0.262595 -0.270352,0.904125 -0.27146,0.905233 -0.593887,0.874209 -0.315779,-0.03102 -0.327967,-0.05318 -0.633774,-1.11132 l -0.310239,-1.078081 -0.02992,1.104673 -0.02881,1.103564 H 96.712575 Z M 68.407698,38.974325 c -1.978881,-0.399987 -3.617608,-2.094113 -3.953331,-4.086291 -0.409959,-2.42762 1.208824,-4.869644 3.648632,-5.504526 1.245388,-0.324643 2.839795,-0.155119 3.976599,0.419931 0.68031,0.344587 1.714071,1.334027 2.061982,1.974449 1.196636,2.197157 0.487518,5.063544 -1.578895,6.389816 -1.145668,0.734601 -2.864171,1.069216 -4.154987,0.806621 m 17.567283,0 c -2.562795,-0.518542 -4.376585,-3.072474 -3.962195,-5.578762 a 5.0303037,5.0303037 0 0 1 3.657496,-4.012055 c 1.24428,-0.324643 2.839795,-0.155119 3.973276,0.418823 0.683633,0.345695 1.646482,1.265332 2.032065,1.938993 1.237632,2.163917 0.534054,5.091244 -1.545655,6.42638 -1.145668,0.734601 -2.863063,1.069216 -4.154987,0.806621 M 0,27.835637"
       style="stroke-width:0.102734"
       id="path1" /></g></svg>
