<?xml version="1.0" encoding="UTF-8" standalone="no"?>
<!-- Created with Inkscape (http://www.inkscape.org/) -->

<svg
   width="100"
   height="100"
   viewBox="0 0 100 100"
   version="1.1"
   id="svg1"
   xml:space="preserve"
   xmlns="http://www.w3.org/2000/svg"
   xmlns:svg="http://www.w3.org/2000/svg"><defs
     id="defs1" /><g
     id="layer1"><g
       fill-rule="evenodd"
       clip-rule="evenodd"
       id="g9"
       transform="matrix(2.5757074,0,0,2.5757074,-1.5140747,-1.513493)"><path
         fill="#5456a1"
         d="m 16.92,21.157 c -0.207,-0.626 -0.752,-1.22 -0.752,-1.22 0,0 -0.82,-1.065 -2.429,-1.428 -1.377,-0.288 -2.46,0.32 -2.46,0.32 0,0 -0.983,0.393 -1.722,1.207 -1.177,1.134 -1.515,2.786 -1.515,2.786 0,0 -0.45,1.44 0.263,2.58 l 0.777,0.939 c 1.095,0.914 2.266,1.008 2.266,1.008 0,0 0.945,0.212 2.047,-0.075 0.964,-0.194 1.666,-0.67 1.666,-0.67 0,0 1.596,-0.883 2.034,-2.686 z m -2.486,2.999 c 0,0 -0.638,1.114 -2.04,0.983 -1.647,-0.17 -1.841,-1.616 -1.841,-1.616 0,0 -0.225,-1.064 0.789,-1.99 1.027,-0.865 2.097,-0.733 2.097,-0.733 0,0 0.72,0.07 1.09,1.259 0.475,1.515 -0.095,2.097 -0.095,2.097"
         id="path1" /><path
         fill="#d1af2c"
         d="m 31.05,20.825 c -1.095,-1.79 -3.023,-2.06 -3.023,-2.06 0,0 -0.614,-0.206 -1.929,-0.031 -2.467,0.47 -3.324,2.366 -3.324,2.366 0,0 -0.884,1.39 -0.532,3.074 l 1.076,2.129 c 0.795,0.745 1.12,0.745 1.171,0.79 1.052,0.475 2.273,0.2 2.273,0.2 0,0 1.54,-0.151 2.949,-1.247 1.126,-0.826 1.615,-2.04 1.615,-2.04 z m -2.999,3.657 c -1.771,1.064 -2.886,-0.1 -2.886,-0.1 0,0 -0.494,-0.326 -0.6,-1.316 -0.076,-1.145 1.063,-1.74 1.063,-1.74 0,0 0.602,-0.37 1.353,-0.313 0.751,0.057 0.99,0.006 1.596,0.457 0.576,0.52 0.539,0.902 0.539,0.902 0,0 0.206,1.29 -1.065,2.11"
         id="path2" /><path
         fill="#1b9389"
         d="m 31.326,24.006 c 0,0 0.037,1.001 -0.12,1.246 -0.212,0.457 -0.181,0.901 -0.181,0.901 0,0 -0.144,1.352 1.421,1.578 1.077,-0.006 1.209,-0.902 1.227,-1.283 0.063,-0.3 0.038,-1.697 0.038,-1.697 l 1.396,1.14 c 0,0 1.015,0.85 1.61,1.345 0.62,0.489 0.775,0.576 0.775,0.576 0,0 0.132,0.156 0.608,0.1 0.382,0.006 0.733,-0.338 0.733,-0.338 0,0 0.444,-0.325 0.556,-0.895 0.138,-0.676 -0.387,-1.008 -0.387,-1.008 0,0 -1.941,-1.565 -3.256,-2.642 0.882,-0.482 1.309,-0.814 1.309,-0.814 0,0 1.227,-0.814 1.49,-2.06 0.363,-1.37 -0.67,-1.91 -0.67,-1.91 0,0 -0.645,-0.463 -1.19,-0.707 -1.371,-0.67 -2.648,-0.532 -2.648,-0.532 0,0 -1.816,-0.125 -3,1.334 -0.544,0.707 -0.205,1.634 -0.205,1.634 0,0 0.067,0.149 0.218,0.851 0.304,1.414 0.276,3.18 0.276,3.18 m 2.379,-2.78 -0.12,-1.633 c 0,0 1.146,-0.025 1.622,0.056 0.94,0.144 0.889,0.407 0.889,0.407 0,0 -0.031,0.332 -0.745,0.657 a 6.7,6.7 0 0 1 -1.646,0.514"
         id="path3" /><path
         fill="#89ac43"
         d="m 22.242,24.175 c -0.528,-0.116 -1.371,0.1 -1.371,0.1 0,0 -1.177,0.431 -1.36,0.425 -0.068,-0.1 -0.218,-2.022 -0.174,-2.792 0.025,-1.358 -0.088,-2.466 -0.088,-2.466 0,0 -0.056,-1.309 -0.758,-2.085 -0.826,-0.833 -1.402,-0.476 -1.733,-0.276 -0.796,0.714 -0.426,1.584 -0.426,1.584 l 0.413,1.171 c 0,0 0.2,0.501 0.175,1.321 l 0.175,2.761 c 0,0.37 0.3,2.855 0.3,2.855 0,0 0.032,0.808 0.809,0.952 0.795,0.131 1.577,-0.263 1.909,-0.42 0.331,-0.156 0.77,-0.294 0.77,-0.294 0,0 0.363,-0.081 0.726,-0.113 0.852,-0.081 1.158,-0.231 1.158,-0.231 0,0 0.33,-0.05 0.551,-0.364 0.221,-0.314 0.49,-1.784 -1.076,-2.128"
         id="path4" /><path
         fill="#9d0c46"
         d="M 8.305,25.401 C 7.746,25.234 7.103,25.345 7.103,25.345 c 0,0 -1.815,0.176 -2.76,-0.025 -1.466,-0.256 -1.416,-1.834 -1.416,-1.834 0,0 -0.05,-1.046 0.833,-2.46 1.09,-1.747 2.291,-2.06 2.291,-2.06 0,0 0.3,-0.113 0.583,0.037 0.175,1.014 1.158,1.008 1.158,1.008 0,0 1.415,0.094 1.346,-1.62 -0.163,-1.41 -1.522,-1.604 -2.091,-1.735 -1.71,-0.307 -2.817,0.607 -2.817,0.607 0,0 -1.146,0.62 -2.517,2.78 -0.933,1.34 -1.046,2.391 -1.046,2.391 0,0 -0.113,0.25 -0.069,1.365 -0.024,0.87 0.301,1.502 0.301,1.502 0,0 0.495,1.497 2.06,2.11 C 3.91,27.806 5.3,27.8 5.3,27.8 c 0,0 1.346,-0.019 2.38,-0.075 0.563,0.044 0.832,-0.25 0.832,-0.25 0,0 0.632,-0.414 0.57,-1.134 0,0 -0.123,-0.744 -0.777,-0.94"
         id="path5" /><path
         fill="#33348e"
         d="m 12.417,16.205 h -0.825 l -0.11,-2.487 -1.074,2.487 H 9.858 L 9.398,13.957 8.683,16.205 H 7.28 L 7.07,15.003 H 6.115 L 5.574,16.205 H 4.71 L 6.481,12.186 H 7.5 l 0.542,3.248 1.055,-3.248 h 0.816 l 0.404,2.202 0.936,-2.202 h 0.99 z m -5.473,-1.982 -0.151,-0.78 -0.349,0.78 z m 7.84,1.982 0.138,-0.863 h -1.44 l 0.114,-0.715 h 1.252 l 0.138,-0.863 H 13.72 l 0.11,-0.716 h 1.44 l 0.138,-0.862 h -2.284 l -0.643,4.019 z M 25.51,12.186 h -0.964 l -0.817,1.312 -0.513,-1.312 h -0.945 l 0.972,2.12 -0.3,1.899 h 0.827 l 0.253,-1.68 z"
         id="path6" /><path
         fill="#33348e"
         d="m 19.357,13.85 c 0.256,-1.111 1.206,-1.84 2.12,-1.629 0.916,0.212 1.45,1.283 1.194,2.394 -0.257,1.111 -1.206,1.84 -2.121,1.629 C 19.635,16.033 19.1,14.96 19.357,13.85 m 1.25,1.59 c 0.436,0.195 0.972,-0.189 1.194,-0.857 0.222,-0.668 0.05,-1.369 -0.387,-1.564 -0.437,-0.195 -0.972,0.188 -1.194,0.856 -0.224,0.669 -0.05,1.369 0.387,1.564 M 2.949,12.544 c -0.787,0.487 -1.165,1.23 -1.064,2.239 0.117,1.17 1.633,1.908 2.917,1.165 0.113,-0.065 0.069,-0.055 0.11,-0.092 L 5.169,14.223 H 3.637 L 3.52,14.975 H 4.16 L 4.087,15.379 C 3.72,15.526 3.096,15.471 2.83,14.994 2.661,14.692 2.505,14.017 3.215,13.397 c 0.578,-0.504 1.578,-0.596 2.156,-0.33 0,0 0.074,-0.422 0.129,-0.817 -1.11,-0.385 -1.973,-0.064 -2.551,0.294"
         id="path7" /><path
         fill="#33348e"
         d="m 17.375,13.055 h 0.537 c 0.583,0 0.465,0.747 -0.09,0.747 h -0.574 z m -0.255,1.566 h 0.692 c 0.656,0 0.638,0.802 -0.09,0.802 h -0.73 z m -0.455,-2.412 -0.637,3.988 h 1.857 c 0.765,0 1.883,-1.128 0.865,-2.049 1.047,-1.084 0.009,-1.93 -0.546,-1.94 -0.446,-0.007 -1.548,0 -1.548,0 z"
         id="path8" /><path
         d="m 24.514,16.573 h -0.156 l 0.13,-0.555 h -0.225 l 0.028,-0.12 h 0.607 l -0.029,0.12 h -0.225 z m 1.032,0 h -0.145 l 0.132,-0.564 h -0.002 l -0.271,0.564 h -0.153 l -0.003,-0.564 h -0.002 l -0.133,0.564 h -0.145 l 0.158,-0.674 h 0.227 l 0.01,0.532 h 0.003 l 0.257,-0.532 h 0.226 z"
         id="path9" /></g></g></svg>
