<?xml version="1.0" encoding="UTF-8" standalone="no"?>
<!-- Created with Inkscape (http://www.inkscape.org/) -->

<svg
   width="100"
   height="100"
   viewBox="0 0 100 100"
   version="1.1"
   id="svg1"
   xml:space="preserve"
   xmlns="http://www.w3.org/2000/svg"
   xmlns:svg="http://www.w3.org/2000/svg"><defs
     id="defs1" /><g
     id="layer1"><g
       id="g1"
       transform="matrix(0.83300013,0,0,0.83300013,33.339997,33.333333)"><path
         fill="#e60012"
         d="M -40.024,0 H 80.024 V 40.016 H -40.024 Z"
         style="stroke-width:0.20008"
         id="path1" /><path
         fill="#ffffff"
         d="M -17.822,32.626 C -25.854,32.624 -31.22,26.932 -31.22,20.03 c 0,-6.9 5.378,-12.658 13.386,-12.64 h 75.668 c 8.007,-0.018 13.386,5.74 13.386,12.64 0,6.902 -5.366,12.594 -13.398,12.596 z m 0.025,-22.132 c -6.359,0.012 -10.262,4.262 -10.262,9.52 0,5.257 3.879,9.542 10.262,9.519 h 75.594 c 6.383,0.022 10.263,-4.262 10.263,-9.519 0,-5.256 -3.903,-9.506 -10.261,-9.519 z m 79.66,4.438 q 0.867,10e-4 0.866,0.583 c 0,0.267 -0.166,0.468 -0.442,0.538 l 0.453,0.904 h -0.549 l -0.387,-0.83 h -0.241 v 0.83 H 61.069 V 14.932 Z M 61.819,14.14 a 1.8290001,1.8290001 0 1 0 10e-4,3.658 1.8290001,1.8290001 0 0 0 -10e-4,-3.658 m 1.478,1.83 a 1.48,1.48 0 1 1 -1.478,-1.479 1.48,1.48 0 0 1 1.478,1.479 m -1.734,-0.14 h 0.24 c 0.282,0 0.419,-0.085 0.419,-0.286 0,-0.211 -0.146,-0.302 -0.443,-0.302 H 61.563 Z M 20.24,20.783 c -0.006,-0.693 0.009,-1.156 0.236,-1.55 a 1.46,1.46 0 0 1 1.257,-0.721 h -0.001 c 0.465,0.003 0.978,0.234 1.257,0.72 0.227,0.397 0.237,0.86 0.231,1.552 z m 2.968,2.381 c 0,0 0.002,0.036 0.002,0.48 0,1.444 -0.95,1.765 -1.478,1.765 -0.528,0 -1.495,-0.321 -1.495,-1.766 l 0.003,-1.63 c 0,0 6.73,0.002 6.73,-0.002 0,-2.45 -2.366,-4.48 -5.272,-4.48 -2.906,0 -5.26,1.986 -5.26,4.436 0,2.45 2.354,4.435 5.26,4.435 2.41,0 4.447,-1.375 5.069,-3.24 z m 11.24,-5.5 c 1.337,-0.039 4.047,0.836 4.028,3.963 -0.003,0.555 -0.002,4.3 -0.002,4.3 h -3.55 v -5.19 c 0,-0.688 -0.657,-1.454 -1.631,-1.454 -0.973,0 -1.697,0.766 -1.697,1.454 l 0.004,5.189 h -3.546 l 0.002,-7.9 3.546,-0.003 c 0,0 -0.005,0.636 0,0.832 a 4.3,4.3 0 0 1 2.847,-1.192 z m -29.033,0 c 1.336,-0.039 4.046,0.836 4.027,3.963 -0.003,0.555 -10e-4,4.3 -10e-4,4.3 H 5.89 v -5.19 c 0,-0.688 -0.658,-1.454 -1.632,-1.454 -0.974,0 -1.697,0.766 -1.697,1.454 l 0.004,5.189 H -0.98 l -0.002,-7.9 3.55,-0.003 c 0,0 -0.004,0.636 0,0.832 a 4.3,4.3 0 0 1 2.847,-1.192 z m 40.76,-3.616 h 3.527 v 11.88 H 46.17 l -0.001,-0.456 c -1.367,0.858 -2.91,0.857 -4.112,0.296 -0.322,-0.15 -2.443,-1.167 -2.443,-3.916 0,-2.086 1.967,-4.363 4.543,-4.137 0.847,0.075 1.45,0.383 2.021,0.704 -0.003,-1.828 -0.003,-4.37 -0.003,-4.37 m 0.026,7.89 v -1.412 c 0,-1.222 -0.843,-1.534 -1.398,-1.534 -0.569,0 -1.401,0.312 -1.401,1.534 l 10e-4,1.408 -10e-4,1.405 c 0,1.22 0.832,1.54 1.4,1.54 0.556,0 1.4,-0.32 1.4,-1.54 z m 11.32,-0.023 -10e-4,1.673 c 0,1.26 -0.744,1.78 -1.46,1.78 -0.717,0 -1.464,-0.52 -1.464,-1.78 l 0.002,-1.703 0.002,-1.648 c 0,-1.254 0.749,-1.77 1.46,-1.77 0.713,0 1.46,0.516 1.46,1.77 0,0.48 -0.002,1.365 0.003,1.682 z m -1.435,-4.427 c -2.884,0 -5.221,1.986 -5.221,4.436 0,2.45 2.338,4.436 5.221,4.436 2.883,0 5.221,-1.986 5.221,-4.436 0,-2.45 -2.337,-4.436 -5.221,-4.436 M -6.529,16.474 v -2.428 h 3.58 v 2.428 z m 0.008,9.455 v -7.901 l 3.572,0.001 v 7.9 z m 17.923,0 0.002,-7.885 H 9.46 V 16.87 l 1.944,-0.001 -0.003,-1.6 h 3.575 v 1.599 h 1.935 v 1.175 h -1.935 l 0.003,7.885 z m -32.462,0 0.002,-11.88 h 3.701 l 5.12,8.284 -0.002,-8.285 h 3.673 v 11.88 h -3.667 l -5.148,-8.284 v 8.285 z"
         style="stroke-width:0.20008"
         id="path2" /></g></g></svg>
