<?xml version="1.0" encoding="UTF-8" standalone="no"?>
<svg
   version="1.0"
   width="100pt"
   height="100pt"
   viewBox="0 0 100 100"
   preserveAspectRatio="xMidYMid"
   id="svg4"
   xmlns="http://www.w3.org/2000/svg"
   xmlns:svg="http://www.w3.org/2000/svg">
  <defs
     id="defs4" />
  <g
     transform="matrix(0.01953125,0,0,-0.01953125,0,100)"
     fill="#000000"
     stroke="none"
     class=""
     id="g4"
     style="stroke-width:1.02400013;stroke-dasharray:none">
    <path
       d="M 0,2560 V 0 H 2560 5120 V 2560 5120 H 2560 0 Z m 4005,2064 c 62,-6 229,-51 268,-71 16,-8 36,-16 45,-18 35,-7 72,-25 72,-35 0,-5 6,-10 13,-10 23,0 152,-94 212,-155 33,-33 64,-59 68,-57 5,1 6,-2 3,-7 -4,-5 -2,-12 3,-15 5,-4 8,-12 7,-19 -3,-20 -42,-67 -56,-67 -6,0 -8,-4 -5,-10 3,-5 1,-10 -5,-10 -18,0 -110,-92 -103,-103 3,-6 1,-7 -6,-3 -7,5 -20,-3 -32,-18 -11,-15 -25,-24 -30,-21 -5,4 -9,1 -9,-4 0,-6 -7,-11 -17,-11 -9,0 -14,-3 -10,-6 6,-6 -23,-44 -35,-44 -4,0 -24,-17 -44,-37 -20,-21 -32,-31 -28,-23 4,8 -19,-12 -52,-45 -62,-62 -103,-95 -115,-95 -4,0 -16,11 -27,24 -10,13 -39,37 -65,54 -26,16 -44,32 -41,35 3,3 -4,3 -17,0 -15,-4 -20,-3 -15,5 4,7 -4,14 -21,17 -15,4 -37,10 -48,14 -35,13 -170,13 -216,0 -24,-7 -55,-11 -68,-10 -15,2 -21,-1 -17,-8 4,-6 0,-11 -11,-11 -15,0 -16,-2 -3,-10 9,-6 10,-10 3,-10 -6,0 -15,4 -18,10 -3,5 -23,-3 -44,-18 -21,-15 -37,-30 -34,-34 2,-5 0,-8 -6,-8 -12,0 -43,-32 -74,-74 -13,-18 -15,-27 -6,-22 8,4 7,2 -2,-6 -47,-39 -67,-270 -32,-369 10,-27 21,-49 25,-49 5,0 8,-5 8,-11 0,-5 -5,-7 -10,-4 -6,3 4,-14 21,-39 17,-25 37,-46 45,-46 8,0 13,-4 10,-9 -10,-15 54,-63 69,-51 17,14 27,0 12,-18 -9,-12 -9,-14 0,-9 7,5 23,1 35,-7 73,-47 267,-50 363,-6 22,10 46,20 54,22 16,4 58,38 116,96 24,23 46,42 50,42 12,0 95,-61 95,-70 0,-4 18,-22 41,-38 47,-35 163,-137 192,-169 11,-12 25,-19 31,-16 6,3 8,3 4,-2 -4,-4 16,-25 45,-47 29,-21 51,-44 49,-49 -1,-6 1,-8 6,-5 11,7 65,-48 68,-69 1,-9 -2,-12 -9,-8 -6,4 -8,0 -4,-10 5,-13 -15,-39 -70,-95 -42,-42 -80,-76 -85,-74 -5,1 -7,-2 -3,-8 3,-5 -5,-14 -18,-19 -13,-5 -27,-17 -30,-25 -4,-9 -16,-16 -27,-16 -11,0 -20,-4 -20,-9 0,-5 -16,-18 -36,-30 -19,-12 -32,-17 -29,-11 3,6 -1,7 -9,4 -9,-3 -14,-10 -11,-14 4,-7 -14,-17 -45,-25 -42,-11 -60,-18 -60,-24 0,-7 -88,-38 -131,-46 -10,-2 -22,-6 -27,-9 -4,-2 -51,-12 -105,-21 -74,-13 -137,-16 -255,-12 -152,4 -169,6 -203,21 -9,4 -39,8 -68,9 -28,1 -51,5 -51,10 0,4 -8,7 -18,7 -10,0 -22,3 -26,7 -3,4 -16,8 -28,10 -12,2 -47,15 -78,30 -30,14 -57,25 -59,24 -2,-2 -7,3 -12,10 -4,7 -18,14 -31,16 -13,2 -31,13 -40,24 -10,12 -18,18 -18,15 0,-14 -93,56 -129,97 -8,9 -20,17 -26,17 -11,0 -105,100 -105,113 0,4 -7,7 -15,7 -8,0 -14,3 -14,8 3,20 -2,33 -11,27 -6,-4 -10,-3 -9,2 4,17 -14,43 -25,36 -6,-3 -8,-3 -4,2 4,4 -6,27 -22,50 -16,23 -26,45 -23,49 4,3 1,6 -5,6 -7,0 -12,4 -12,9 0,5 -12,35 -27,67 -15,33 -27,61 -28,64 -1,3 -13,43 -27,90 -31,100 -28,73 -34,289 -5,141 -3,186 10,241 9,36 18,75 20,86 10,50 20,80 29,92 5,6 6,12 2,12 -4,0 -1,8 6,17 12,14 12,16 -1,9 -9,-4 -8,-1 3,7 9,8 17,19 17,24 0,14 82,167 92,171 4,2 8,8 8,14 0,27 166,213 230,258 19,13 45,35 58,48 13,13 26,22 29,18 3,-3 21,8 40,24 19,17 38,28 44,25 5,-4 9,-1 9,4 0,6 3,10 8,9 4,-2 32,12 62,29 70,40 184,77 297,97 48,9 99,18 113,20 28,5 258,-2 335,-10 z m -2413,-27 c 82,-7 179,-26 194,-38 6,-5 14,-6 17,-2 4,3 7,1 7,-6 0,-7 4,-10 9,-7 5,4 22,1 38,-6 15,-6 34,-10 42,-9 7,1 10,-2 6,-8 -3,-6 1,-11 11,-11 19,0 77,-33 113,-64 13,-12 20,-14 16,-6 -10,17 65,-51 133,-120 24,-25 50,-58 59,-75 8,-16 25,-40 36,-52 11,-13 17,-23 13,-23 -4,0 3,-17 15,-37 13,-20 18,-34 12,-30 -5,4 -2,-10 8,-31 16,-34 23,-63 35,-147 13,-86 15,-226 4,-280 -7,-33 -12,-68 -12,-77 1,-10 -4,-18 -10,-18 -6,0 -9,-3 -5,-6 3,-3 -3,-28 -13,-54 -10,-26 -16,-51 -12,-55 4,-4 -2,-13 -12,-21 -11,-8 -17,-14 -13,-14 6,0 -29,-59 -51,-85 -4,-5 -9,-14 -10,-20 -4,-17 -156,-175 -169,-175 -6,0 -13,-3 -15,-7 -5,-12 -68,-55 -83,-57 -7,-1 -19,-7 -27,-14 -8,-6 -18,-9 -21,-5 -4,3 -7,1 -7,-5 0,-7 -5,-12 -12,-12 -6,0 -19,-7 -28,-15 -10,-9 -31,-17 -48,-18 -16,-1 -28,-5 -25,-9 2,-5 -6,-7 -19,-7 -13,0 -41,-6 -63,-14 -53,-20 -123,-27 -335,-34 -96,-3 -176,-6 -177,-7 -1,-1 -3,-122 -3,-270 -1,-250 -2,-268 -20,-286 -19,-19 -36,-20 -382,-17 -284,1 -362,5 -360,15 1,6 -2,12 -8,12 -6,0 -10,386 -10,1100 v 1099 l 22,21 c 22,20 28,20 558,17 294,-2 565,-6 602,-10 z M 4692,2003 c 21,-25 24,-156 4,-176 -8,-8 -12,-17 -9,-21 3,-3 -951,-6 -2122,-6 H 438 l -20,25 c -16,20 -19,37 -15,94 2,38 9,77 16,85 12,15 213,16 2136,16 2008,0 2123,-1 2137,-17 z M 1101,1477 c 15,-3 47,-14 72,-25 25,-11 48,-18 51,-16 3,2 4,1 1,-2 -2,-4 14,-16 37,-27 83,-41 138,-126 93,-143 -8,-4 -13,-10 -10,-14 3,-5 -4,-12 -16,-15 -11,-4 -19,-9 -16,-11 2,-3 -29,-38 -71,-79 -41,-41 -70,-75 -66,-75 5,0 4,-4 -3,-8 -6,-4 49,-6 122,-4 l 134,4 17,-26 c 14,-22 16,-44 12,-136 -3,-69 -9,-114 -18,-125 -7,-8 -10,-18 -7,-21 10,-10 -42,-106 -76,-141 -17,-18 -27,-33 -23,-33 5,0 -20,-23 -55,-51 -66,-53 -143,-94 -158,-85 -5,3 -8,-3 -7,-14 0,-11 -3,-19 -9,-18 -5,2 -9,9 -7,16 2,9 -1,11 -10,6 -21,-13 -37,-15 -148,-18 -67,-1 -114,2 -129,10 -13,7 -30,10 -39,7 -9,-4 -13,-2 -9,4 4,7 -7,13 -27,17 -19,4 -50,17 -69,30 -20,14 -39,21 -43,18 -4,-4 -5,-2 -2,3 3,6 -4,19 -15,30 -11,12 -17,14 -13,5 4,-8 -1,-6 -11,5 -10,12 -26,24 -35,28 -10,3 -18,12 -18,18 0,6 -10,20 -22,30 -11,11 -17,19 -13,19 4,0 1,8 -8,18 -25,27 -68,128 -75,175 -4,23 -6,80 -5,127 3,122 4,130 15,130 5,0 7,4 4,8 -3,5 1,20 9,35 7,14 11,28 7,31 -3,3 0,6 7,6 7,0 10,4 7,9 -7,11 89,140 129,173 48,39 95,70 109,72 8,1 20,7 27,13 14,10 38,20 76,28 10,2 32,8 48,14 29,9 202,7 256,-2 z m 1062,-21 c 10,-8 18,-18 19,-23 0,-4 8,-26 18,-48 9,-22 30,-74 45,-115 15,-41 32,-81 38,-87 5,-7 6,-13 2,-13 -4,0 -3,-6 2,-12 5,-7 17,-35 27,-63 10,-27 21,-59 26,-70 13,-32 35,-90 36,-95 0,-3 6,-18 13,-35 36,-84 59,-153 54,-159 -4,-3 0,-6 7,-6 7,0 10,-3 7,-6 -3,-4 -1,-16 5,-28 7,-11 13,-23 13,-26 0,-3 6,-14 12,-25 5,-11 16,-37 23,-58 7,-22 18,-51 26,-65 7,-14 11,-29 8,-34 -3,-4 0,-8 6,-8 8,0 8,-6 0,-20 -6,-10 -10,-23 -9,-27 3,-20 -2,-25 -15,-14 -10,8 -70,12 -191,12 -98,0 -175,3 -171,6 3,3 -1,11 -8,17 -8,6 -21,31 -29,56 l -15,45 -129,3 -130,3 -12,-42 c -28,-92 -20,-89 -219,-86 l -177,2 -1,35 c 0,19 6,45 14,58 8,12 11,22 7,22 -5,0 0,10 11,22 12,13 13,18 4,13 -13,-8 -13,-7 0,9 8,10 15,27 17,38 2,11 8,29 15,41 7,12 13,31 15,41 2,11 10,33 18,49 8,17 15,34 15,38 0,4 5,20 12,36 6,15 12,34 14,41 1,7 11,31 22,52 10,22 14,37 8,33 -6,-4 -3,2 6,13 10,11 19,29 21,40 2,10 9,32 15,47 7,15 15,39 18,52 3,14 11,22 17,18 5,-3 7,-2 4,4 -6,9 19,88 55,173 8,19 16,38 16,43 4,21 35,84 49,99 14,16 35,18 172,18 117,-1 161,-4 174,-14 z m 822,-21 c 15,-18 28,-40 29,-47 1,-7 6,-20 11,-28 5,-8 10,-17 11,-20 6,-25 30,-70 37,-70 4,0 5,-4 2,-10 -3,-5 -1,-10 4,-10 6,0 10,-3 9,-7 -2,-7 78,-171 88,-182 6,-6 15,5 18,21 4,22 30,73 41,80 5,4 7,8 3,8 -5,0 7,29 25,64 24,45 31,69 25,80 -7,12 -5,14 6,10 10,-4 22,12 40,53 45,96 37,93 216,93 116,0 161,-4 175,-14 17,-12 18,-38 20,-500 1,-388 -2,-491 -12,-506 -12,-17 -28,-19 -170,-19 -131,0 -161,3 -175,16 -16,14 -18,35 -18,167 0,146 -1,150 -17,126 -10,-14 -18,-27 -18,-30 0,-3 -16,-36 -35,-75 l -36,-69 -63,-4 c -119,-7 -122,-5 -181,113 -28,58 -52,105 -53,105 -1,0 -1,-70 1,-156 4,-202 15,-190 -178,-193 -101,-1 -152,2 -168,11 l -23,13 1,489 c 0,439 2,492 17,508 14,16 35,18 179,18 h 163 z m 1707,18 c 11,-14 15,-48 16,-147 2,-184 19,-172 -239,-168 l -209,4 v -26 -26 h 173 c 215,0 206,7 205,-145 -1,-80 -4,-108 -14,-112 -8,-3 -11,-9 -8,-14 6,-11 19,-10 -188,-9 -163,1 -168,0 -168,-20 0,-19 6,-20 205,-21 240,-2 217,0 238,-21 14,-14 17,-39 17,-157 0,-128 -2,-141 -19,-151 -30,-15 -769,-13 -799,3 l -23,12 1,489 c 0,439 2,492 17,508 15,17 42,18 398,18 351,0 383,-1 397,-17 z"
       class=""
       id="path1"
       style="stroke-width:1.02400013;stroke-dasharray:none" />
    <path
       d="m 1293,3953 -102,-4 -3,-190 c -3,-196 1,-219 36,-206 8,3 62,7 120,8 123,2 194,27 221,79 9,17 19,30 23,30 12,0 14,121 3,158 -10,35 -78,105 -93,96 -4,-3 -8,0 -8,6 0,6 -4,8 -10,5 -5,-3 -10,-2 -10,4 0,5 -8,10 -17,10 -10,-1 -27,1 -38,3 -11,2 -66,3 -122,1 z"
       id="path2"
       style="stroke-width:1.02400013;stroke-dasharray:none" />
    <path
       d="m 860,1099 c -28,-17 -38,-28 -29,-32 10,-4 8,-6 -4,-6 -24,-1 -45,-54 -47,-117 -2,-65 1,-77 36,-123 33,-45 62,-59 134,-65 36,-3 103,21 95,35 -3,4 -26,6 -52,4 -33,-2 -54,2 -69,14 -20,16 -22,26 -21,117 2,131 7,137 115,132 69,-3 78,-1 75,13 -6,23 -87,52 -144,53 -34,1 -59,-6 -89,-25 z"
       id="path3"
       style="stroke-width:1.02400013;stroke-dasharray:none" />
    <path
       d="m 1975,970 c -3,-5 -4,-14 0,-19 3,-5 1,-12 -5,-16 -6,-4 -8,-10 -5,-15 3,-5 1,-11 -5,-15 -5,-3 -10,-15 -10,-26 0,-16 6,-19 34,-17 l 34,2 -18,50 c -11,27 -17,53 -14,58 3,4 3,8 0,8 -3,0 -8,-4 -11,-10 z"
       id="path4"
       style="stroke-width:1.02400013;stroke-dasharray:none" />
  </g>
</svg>
