<?xml version="1.0" encoding="UTF-8" standalone="no"?>
<!-- Created with Inkscape (http://www.inkscape.org/) -->

<svg
   width="100"
   height="100"
   viewBox="0 0 100 100"
   version="1.1"
   id="svg1"
   xml:space="preserve"
   xmlns="http://www.w3.org/2000/svg"
   xmlns:svg="http://www.w3.org/2000/svg"><defs
     id="defs1" /><g
     id="layer1"><g
       id="g1"
       transform="scale(0.1)"><path
         d="M 0,0 H 1000 V 1000 H 0 Z M 86.468,107.043 V 536.061 H 226.78 V 424.675 c 30.009,-1.651 59.152,-1.199 87.667,-5.188 112.683,-15.722 165.546,-113.568 133.986,-212.24 -20.713,-64.732 -79.099,-96.883 -142.495,-99.26 -70.747,-2.634 -141.807,-1.18 -212.73,-1.474 -1.887,0.02 -3.813,0.314 -6.741,0.53 m 731.557,267.775 c -40.758,51.291 -108.694,44.669 -139.312,15.82 -33.054,-31.148 -36.925,-92.756 -7.35,-128.385 14.759,-17.687 34.077,-27.198 56.42,-29.478 32.308,-3.4 61.04,5.13 83.363,30.343 l 101.777,-89.652 c -3.38,-3.93 -5.896,-7.389 -8.863,-10.297 -6.289,-6.112 -12.282,-12.735 -19.357,-17.687 -69.587,-50.033 -146.17,-58.405 -225.17,-30.716 -81.928,28.731 -132.08,88.256 -145.836,174.724 -12.557,78.804 9.944,147.172 70.884,199.977 72.712,63.062 193.393,71.571 275.852,21.479 a 185.1,185.1 0 0 0 56.047,-51.095 z M 664.269,909.346 h 60.37 V 718.724 c -16.094,0 -31.698,0.767 -47.164,-0.255 -10.966,-0.727 -16.547,2.731 -21.067,13.01 -11.064,25.232 -23.582,49.777 -36.12,75.58 -13.52,-27.945 -26.45,-54.848 -39.676,-81.614 -1.337,-2.712 -4.5,-6.347 -6.898,-6.406 -19.652,-0.531 -39.48,-0.295 -59.408,-0.295 v 190.995 h 59.113 v -83.382 c 7.86,12.479 15.486,24.702 20.084,37.967 5.66,16.311 14.876,23.13 32.268,20.399 6.446,-1.003 10.22,-1.965 13.05,-8.51 7.31,-16.743 15.72,-33.014 23.581,-49.483 l 1.847,0.59 z M 84.68,640.942 H 913.553 V 611.917 H 84.679 Z M 264.591,746.61 c -4.559,-4.225 -7.86,-7.86 -11.79,-10.71 -21.126,-16.213 -45.514,-21.617 -71.533,-20.536 -49.64,2.063 -90.929,38.674 -97.02,85.603 -6.368,49.13 20.339,92.167 67.857,107.299 48.992,15.603 106.65,-3.027 123.511,-60.39 4.658,-15.86 7.704,-32.052 2.339,-48.285 h -95.39 v 40.149 h 34.39 c -6.426,19.042 -35.039,22.069 -50.23,13.756 -20.064,-10.966 -27.119,-39.303 -14.817,-60.626 13.304,-22.914 38.734,-24.486 69.646,-4.598 z M 764.16,909.543 h 151.672 v -53.06 H 826.83 v -21.067 h 72.534 v -42.723 h -72.475 v -20.791 h 85.956 V 719.294 H 764.16 Z m -270.369,0.354 c -24.997,-64.439 -49.483,-127.619 -74.126,-191.153 -18.04,0 -35.61,0.413 -53.06,-0.197 -7.232,-0.255 -10.101,2.476 -12.46,8.844 -17.883,48.088 -36.12,96.038 -54.199,144.047 -4.716,12.577 -9.295,25.194 -14.287,38.714 h 40.502 c 24.604,0 24.604,0 31.68,-24.073 0.137,-0.492 0.844,-0.826 1.748,-1.67 h 40.522 c 16.33,0 16.291,0 21.42,15.937 1.062,3.282 2.437,6.465 3.597,9.55 z"
         style="display:inline;stroke-width:1.96517"
         id="path1" /><path
         fill="#ffffff"
         d="m 86.468,107.043 c 2.928,-0.216 4.854,-0.51 6.78,-0.491 70.923,0.295 141.905,-1.16 212.73,1.474 63.397,2.378 121.841,34.528 142.495,99.26 31.56,98.633 -21.302,196.519 -133.986,212.24 -28.514,3.93 -57.658,3.537 -87.666,5.188 V 536.1 H 86.468 Z M 226.78,309.142 c 19.16,0 37.339,1.356 55.36,-0.373 a 39.304,39.304 0 0 0 36.414,-36.965 c 1.71,-23.327 -8.98,-42.193 -30.755,-46.536 -19.652,-3.93 -40.266,-3.124 -61.038,-4.46 z m 591.244,65.676 98.534,85.132 a 185.1,185.1 0 0 1 -56.047,51.094 c -82.538,50.093 -203.062,41.583 -275.852,-21.48 -61,-52.882 -83.5,-121.25 -70.963,-200.074 13.757,-86.468 63.888,-146.012 145.816,-174.743 79,-27.69 155.583,-19.318 225.17,30.558 7.075,5.05 13.069,11.673 19.357,17.687 2.987,2.908 5.483,6.347 8.863,10.297 l -101.776,89.652 c -22.325,-25.214 -51.095,-33.742 -83.363,-30.343 -22.344,2.339 -41.662,11.791 -56.42,29.478 -29.576,35.629 -25.705,97.237 7.35,128.385 30.637,29.026 98.573,35.648 139.33,-15.643 M 664.27,909.405 V 827.32 l -1.847,-0.59 c -7.86,16.469 -16.291,32.74 -23.582,49.483 -2.83,6.505 -6.603,7.507 -13.049,8.51 -17.392,2.731 -26.609,-4.088 -32.268,-20.399 -4.599,-13.265 -12.165,-25.547 -20.084,-37.967 v 83.402 H 514.307 V 718.764 c 19.927,0 39.677,-0.236 59.408,0.294 2.397,0 5.561,3.695 6.898,6.407 13.225,26.765 26.156,53.669 39.676,81.614 12.46,-25.803 25.056,-50.348 36.12,-75.581 4.52,-10.278 10.101,-13.756 21.067,-13.01 15.466,1.022 31.07,0.256 47.164,0.256 V 909.366 Z M 84.68,640.942 v -29.025 h 828.873 v 29.025 z m 179.911,105.668 -43.037,41.662 c -30.912,-19.888 -56.342,-18.316 -69.646,4.598 -12.302,21.323 -5.247,49.66 14.759,60.626 15.19,8.332 43.803,5.306 50.23,-13.756 h -34.332 v -40.15 h 95.488 c 5.365,16.233 2.319,32.426 -2.339,48.285 -16.86,57.363 -74.52,75.993 -123.511,60.39 -47.518,-15.132 -74.225,-58.19 -67.858,-107.3 6.092,-46.928 47.38,-83.539 97.021,-85.602 26.02,-1.081 50.407,4.323 71.533,20.536 3.812,2.928 7.133,6.485 11.692,10.71 M 764.16,909.543 V 719.294 h 148.685 v 52.608 h -85.956 v 20.791 h 72.475 v 42.723 H 826.83 v 21.087 h 89.002 v 53.06 z m -270.369,0.354 H 425.01 c -1.16,-3.086 -2.535,-6.27 -3.596,-9.551 -5.13,-15.918 -5.09,-15.938 -21.42,-15.938 H 359.51 c -0.903,0.845 -1.611,1.18 -1.749,1.67 -7.074,24.074 -7.074,24.074 -31.678,24.074 H 285.58 c 4.991,-13.52 9.57,-26.137 14.286,-38.714 18.08,-48.01 36.317,-95.96 54.2,-144.047 2.358,-6.368 5.227,-9.1 12.46,-8.844 17.529,0.61 35.097,0.197 53.059,0.197 24.722,63.534 49.208,126.714 74.205,191.153 M 388.024,793.46 h -1.965 a 47601,47601 0 0 1 -13.992,43.47 h 29.124 c -4.638,-15.113 -8.902,-29.301 -13.167,-43.47"
         style="display:inline;stroke-width:1.96517"
         id="path2" /><path
         d="m 226.781,309.142 v -88.276 c 20.772,1.337 41.387,0.53 61.039,4.461 21.774,4.343 32.465,23.209 30.755,46.536 a 39.304,39.304 0 0 1 -36.435,36.906 c -18.02,1.729 -36.218,0.373 -55.359,0.373 M 388.024,793.46 c 4.265,14.169 8.53,28.357 13.088,43.45 h -29.124 c 4.717,-14.621 9.355,-29.045 13.992,-43.47 z"
         style="stroke-width:1.96517"
         id="path3" /></g></g></svg>
