<?xml version="1.0" encoding="UTF-8" standalone="no"?>
<!-- Created with Inkscape (http://www.inkscape.org/) -->

<svg
   width="100"
   height="100"
   viewBox="0 0 100 100"
   version="1.1"
   id="svg1"
   xml:space="preserve"
   xmlns="http://www.w3.org/2000/svg"
   xmlns:svg="http://www.w3.org/2000/svg"><defs
     id="defs1" /><g
     id="layer1"><g
       id="g1"
       transform="matrix(0.1,0,0,0.1,-2.2578899e-7,39.121999)"><path
         d="M 20.968,184.664 C -1.02,178.377 -4.754,165.4 5.297,157.923 c 9.294,-6.932 25.096,-12.11 25.096,-12.11 l 65.258,-23.31 v 26.56 l -46.963,16.882 c -8.305,3.028 -9.577,7.225 -2.826,9.435 6.751,2.21 18.951,1.585 27.246,-1.402 l 22.523,-8.214 v 23.764 c -1.423,0.262 -3.028,0.514 -4.49,0.757 a 147.1,147.1 0 0 1 -70.173,-5.621 m 137.68,2.765 73.23,-26.136 c 8.315,-3.027 9.587,-7.205 2.836,-9.414 -6.75,-2.21 -18.95,-1.585 -27.245,1.412 l -48.8,17.215 V 143.07 l 2.825,-0.958 a 167.2,167.2 0 0 1 33.916,-7.195 c 19.829,-2.19 44.107,0.302 63.159,7.528 21.484,6.8 23.905,16.821 18.446,23.723 -5.459,6.903 -18.84,11.817 -18.84,11.817 l -99.506,35.813 z m 8.568,-170.103 c 38.557,13.31 51.625,29.88 51.625,67.216 0,36.378 -22.341,50.172 -50.717,36.398 V 53.098 c 0,-7.951 -1.453,-15.277 -8.88,-17.356 -5.691,-1.836 -9.223,3.481 -9.223,11.433 v 169.78 l -45.53,-14.531 V 0 c 19.364,3.613 47.568,12.11 62.725,17.286 z m 97.882,185.825 a 1.66,1.66 0 0 1 -0.545,1.443 2.87,2.87 0 0 1 -1.665,0.423 h -3.502 v -3.622 h 3.714 a 2.8,2.8 0 0 1 1.21,0.222 1.54,1.54 0 0 1 0.788,1.534 m 2.512,8.254 a 0.8,0.8 0 0 1 -0.373,-0.565 4.2,4.2 0 0 1 -0.1,-1.01 l -0.071,-1.644 a 2.96,2.96 0 0 0 -0.444,-1.705 2.7,2.7 0 0 0 -0.757,-0.626 3.4,3.4 0 0 0 0.958,-0.939 3.63,3.63 0 0 0 0.495,-1.957 3.19,3.19 0 0 0 -1.867,-3.149 5.75,5.75 0 0 0 -2.392,-0.433 h -5.862 v 12.815 h 2.19 v -5.257 h 3.45 a 3.3,3.3 0 0 1 1.343,0.201 1.43,1.43 0 0 1 0.716,1.363 l 0.1,2.018 a 7,7 0 0 0 0.092,1.009 1.8,1.8 0 0 0 0.161,0.484 l 0.08,0.152 h 2.443 v -0.747 z m -15.025,-5.348 a 9.6,9.6 0 0 1 2.765,-6.771 9.314,9.314 0 0 1 13.34,0 9.607,9.607 0 0 1 -6.67,16.337 9.3,9.3 0 0 1 -6.67,-2.805 9.6,9.6 0 0 1 -2.765,-6.761 m 9.435,11.503 a 11.15,11.15 0 0 0 8.012,-3.38 11.625,11.625 0 0 0 0,-16.267 11.18,11.18 0 0 0 -8.012,-3.37 11.544,11.544 0 0 0 -8.012,19.637 11.15,11.15 0 0 0 8.012,3.38"
         style="fill-rule:evenodd;stroke-width:1.00909"
         id="path1" /><path
         d="m 979.394,173.978 h -1.937 v -13.27 h -4.44 v -1.857 h 10.838 v 1.857 h -4.44 z m 13.431,-3.512 4.148,-11.615 H 1000 v 15.137 h -2.018 v -12.654 l -4.592,12.644 h -1.23 l -4.572,-12.644 v 12.644 h -1.917 V 158.84 h 3.027 z M 953.582,43.33 H 767.909 v 50.334 c 0,0 -0.565,19.435 23.471,19.435 h 113.493 a 31.9,31.9 0 0 1 12.946,2.634 c 6.338,2.825 13.462,8.577 13.462,20.182 0,10.414 -5.046,16.327 -10.04,19.637 a 25.23,25.23 0 0 1 -13.886,4.036 H 767.91 v 14.127 H 923.4 c 0,0 35.319,-1.433 35.319,-37.73 0,-18.456 -10.777,-27.598 -20.474,-32.079 a 47.4,47.4 0 0 0 -19.98,-4.329 H 805.78 a 11.34,11.34 0 0 1 -5.389,-1.281 c -2.401,-1.302 -5.045,-3.885 -5.045,-8.971 V 57.266 h 158.236 z m -419.37,116.208 v 14.127 h 78.811 a 39.05,39.05 0 0 0 25.732,-9.314 32.56,32.56 0 0 0 11.483,-25.59 V 78.708 a 21.7,21.7 0 0 1 8.073,-17.154 20.18,20.18 0 0 1 12.725,-4.289 h 68.709 V 43.33 h -81.827 c 0,0 -35.319,0.566 -35.319,37.922 v 56.075 a 24.3,24.3 0 0 1 -3.572,13.028 18.95,18.95 0 0 1 -16.852,9.213 z M 352.254,43.33 V 57.266 H 492.72 a 26.5,26.5 0 0 1 11.322,2.432 c 5.57,2.613 11.827,7.992 11.827,18.9 0,10.596 -6.257,15.893 -11.827,18.517 a 27,27 0 0 1 -11.504,2.462 H 388.36 a 39.66,39.66 0 0 0 -17.8,4.037 c -8.669,4.349 -18.306,14.591 -18.306,31.483 v 38.346 h 27.034 v -38.174 a 19.9,19.9 0 0 1 1.322,-7.266 c 2.23,-5.721 7.87,-14.904 21.06,-14.904 h 105.046 a 38,38 0 0 0 10.454,-1.403 c 9.647,-2.744 25.732,-10.676 25.732,-33.098 0,-34.844 -34.682,-35.268 -34.682,-35.268 z"
         style="stroke-width:1.00909"
         id="path2" /></g></g></svg>
