<?xml version="1.0" encoding="UTF-8" standalone="no"?>
<!-- Created with Inkscape (http://www.inkscape.org/) -->

<svg
   width="100"
   height="100"
   viewBox="0 0 100 100"
   version="1.1"
   id="svg1"
   xml:space="preserve"
   xmlns="http://www.w3.org/2000/svg"
   xmlns:svg="http://www.w3.org/2000/svg"><defs
     id="defs1" /><g
     id="layer1"><g
       fill-rule="evenodd"
       clip-rule="evenodd"
       id="g6"
       transform="matrix(2.5,0,0,2.5,0,3.3)"><path
         d="M 0,0 H 37.317 V 37.316 H 0 Z m 39.166,36.368 h -0.27 v 0.992 h 0.177 v -0.807 h 0.004 l 0.312,0.807 h 0.12 l 0.31,-0.807 h 0.005 V 37.36 H 40 v -0.992 h -0.27 l -0.279,0.73 z m -0.443,0 h -0.788 v 0.144 h 0.306 v 0.848 h 0.177 v -0.848 h 0.305 z"
         id="path1" /><path
         fill="#578bc5"
         d="m 12.371,16.971 2.66,0.79 v -1.71 z m 7.187,2.137 4.63,1.375 1.968,-0.72 c 0.422,-0.156 1.811,-0.392 2.905,-0.066 0.784,0.233 0.482,0.718 -0.08,0.913 l -2.018,0.698 4.461,1.326 0.355,-0.126 c 0,0 4.969,-1.894 0.117,-3.816 -4.852,-1.924 -10.208,-0.336 -10.208,-0.336 z"
         id="path2" /><path
         fill="#3aacc0"
         d="m 31.685,22.54 -4.466,-1.32 -7.573,2.62 v 0.145 l 4.156,1.363 z M 24.431,20.394 19.796,19.024 12.438,21.62 17,23.117 Z m -9.4,-2.781 -2.433,-0.72 -6.923,2.394 c 0,0 -0.059,0.022 -0.157,0.062 l 4.37,1.434 5.142,-1.789 z"
         id="path3" /><path
         fill="#e9c83a"
         d="m 24.064,25.255 -4.395,-1.424 -0.023,0.008 v 2.658 l 0.195,0.262 z m -6.846,-2.218 -4.587,-1.486 -1.264,0.446 c 0,0 -1.787,0.586 -2.996,0.11 -1.209,-0.475 0.42,-0.943 0.42,-0.943 l 1.275,-0.443 -4.407,-1.427 c -0.313,0.117 -5.028,1.961 -0.21,3.837 3.674,1.429 8.228,0.755 9.605,0.404 l 0.002,0.294 z"
         id="path4" /><path
         fill="#b8394b"
         d="M 14.833,25.15 V 3.122 c 4.169,1.098 5.944,1.708 7.594,2.278 2.384,0.823 4.993,2.062 4.915,6.865 -0.074,4.423 -2.404,4.714 -3.368,4.732 -1.13,0.021 -2.262,-0.6 -2.262,-0.6 V 8.534 c 0,-0.156 0.096,-1.094 -0.906,-1.341 -0.598,-0.148 -0.965,0.468 -0.965,0.775 V 26.76 Z"
         id="path5" /><path
         fill="#ffffff"
         d="m 8.394,28.756 h 0.614 v 3.928 H 8.394 Z m 6.188,0.917 -0.817,2.016 -0.741,-2.016 h -0.663 l 1.057,2.872 -0.667,1.649 h 0.582 l 1.832,-4.521 z M 7.839,29.299 C 7.722,28.929 7.358,28.756 6.683,28.756 H 5.394 v 3.928 h 0.614 v -3.518 h 0.7 c 0.12,0 0.373,0.015 0.512,0.314 0.106,0.23 0.09,0.74 0.023,0.982 C 7.156,30.78 6.899,30.78 6.647,30.78 H 6.345 v 0.386 h 0.657 c 0.459,-0.012 0.717,-0.209 0.837,-0.542 0.152,-0.423 0.127,-0.928 0,-1.325 m 9.807,1.566 c -0.118,-0.37 -0.256,-0.512 -0.93,-0.545 -0.323,-0.015 -0.479,-0.026 -0.578,-0.238 -0.081,-0.176 -0.034,-0.555 0.058,-0.717 0.1,-0.179 0.333,-0.219 0.587,-0.219 h 0.674 V 28.76 h -1.03 c -0.457,0.013 -0.735,0.194 -0.846,0.505 -0.153,0.425 -0.143,0.752 -0.017,1.153 0.111,0.346 0.458,0.474 0.86,0.498 0.402,0.024 0.54,0.047 0.622,0.227 0.088,0.19 0.07,0.633 0,0.818 -0.082,0.219 -0.34,0.325 -0.593,0.325 h -0.842 v 0.386 h 1.198 c 0.458,-0.013 0.717,-0.209 0.838,-0.543 0.15,-0.423 0.125,-0.866 0,-1.264 M 11.922,30.136 C 11.771,29.811 11.473,29.69 10.864,29.68 h -0.862 v 0.384 h 0.832 c 0.213,0 0.447,0.1 0.516,0.32 a 0.7,0.7 0 0 1 0.032,0.222 l -10e-4,1.67 -0.698,0.005 c -0.121,0 -0.413,-0.023 -0.455,-0.26 a 1.5,1.5 0 0 1 -0.01,-0.525 c 0.027,-0.256 0.329,-0.33 0.542,-0.33 h 0.253 v -0.384 h -0.284 c -0.608,0.01 -1.006,0.12 -1.101,0.465 -0.088,0.32 -0.085,0.63 0.014,0.962 0.087,0.297 0.39,0.475 1.065,0.475 l 1.289,-0.006 v -2.064 c -0.013,-0.149 -0.012,-0.345 -0.074,-0.478 m 10.43,0 C 22.2,29.811 21.902,29.69 21.292,29.68 H 20.43 v 0.384 h 0.832 c 0.214,0 0.447,0.1 0.516,0.32 a 0.7,0.7 0 0 1 0.032,0.222 l -10e-4,1.67 -0.698,0.005 c -0.12,0 -0.413,-0.023 -0.455,-0.26 a 1.5,1.5 0 0 1 -0.01,-0.525 c 0.027,-0.256 0.329,-0.33 0.542,-0.33 h 0.254 v -0.384 h -0.285 c -0.607,0.01 -1.006,0.12 -1.101,0.465 -0.088,0.32 -0.084,0.63 0.014,0.962 0.087,0.297 0.39,0.475 1.065,0.475 l 1.288,-0.006 0.001,-2.064 c -0.013,-0.149 -0.012,-0.345 -0.073,-0.478 m -2.67,-0.074 v -0.386 h -0.7 v -0.558 h -0.612 v 3.036 c 0,0.257 0.091,0.525 0.597,0.525 h 0.571 v -0.4 c 0,0 -0.185,-0.005 -0.29,0 -0.191,0.007 -0.265,-0.19 -0.265,-0.398 v -1.82 z m 4.771,0 v -0.386 h -0.699 v -0.558 h -0.614 v 3.036 c 0,0.257 0.092,0.525 0.598,0.525 h 0.571 v -0.4 c 0,0 -0.186,-0.005 -0.29,0 -0.192,0.007 -0.264,-0.19 -0.264,-0.398 v -1.82 z m 0.493,-0.39 h 0.615 v 3.012 h -0.615 z m 0,-0.916 h 0.615 v 0.543 h -0.615 z m 6.89,1.38 C 31.685,29.811 31.387,29.69 30.778,29.68 H 30.114 V 29.678 H 29.5 v 3.006 h 0.614 v -2.62 h 0.633 c 0.213,0 0.447,0.1 0.517,0.32 a 0.6,0.6 0 0 1 0.03,0.222 l 0.007,2.078 h 0.609 v -2.07 c -0.013,-0.149 -0.012,-0.345 -0.074,-0.478 m -4.319,2.56 c 0.626,0 0.98,-0.132 1.16,-0.506 0.17,-0.35 0.17,-0.747 0.17,-1.024 0,-0.277 0,-0.674 -0.17,-1.024 -0.18,-0.373 -0.534,-0.505 -1.16,-0.505 -0.626,0 -0.981,0.132 -1.162,0.505 -0.169,0.35 -0.168,0.747 -0.168,1.024 0,0.278 0,0.674 0.168,1.024 0.18,0.374 0.536,0.506 1.162,0.506 m -0.7,-1.529 c 0,-0.852 0.194,-1.097 0.7,-1.11 0.505,0.013 0.7,0.258 0.7,1.11 0,0.852 -0.23,1.108 -0.7,1.108 -0.47,0 -0.7,-0.256 -0.7,-1.108"
         id="path6" /></g></g></svg>
