<?xml version="1.0" encoding="UTF-8" standalone="no"?>
<!-- Created with Inkscape (http://www.inkscape.org/) -->

<svg
   width="100"
   height="100"
   viewBox="0 0 100 100"
   version="1.1"
   id="svg1"
   xml:space="preserve"
   xmlns="http://www.w3.org/2000/svg"
   xmlns:svg="http://www.w3.org/2000/svg"><defs
     id="defs1" /><g
     id="layer1"><path
       fill-rule="evenodd"
       d="M 99.797961,51.668081 V 50.79809 h -0.0065 l -0.332897,0.869991 h -0.15099 L 98.973958,50.79809 h -0.005 v 0.869991 h -0.202759 v -1.114452 h 0.313485 l 0.306294,0.790901 0.303418,-0.790901 H 100 v 1.114452 z m -1.599776,0 H 97.981766 V 50.729784 H 97.64096 v -0.176155 h 0.898031 v 0.176155 h -0.340806 z m -6.964237,-3.216808 -10.252225,-0.0043 -1.768741,3.38793 h -2.331718 c 0,0 7.264779,-13.753038 7.554536,-14.222545 0.289039,-0.470226 1.118046,-1.954243 2.455386,-1.881623 1.337341,0.07262 1.896004,1.090004 2.149811,1.52428 0.25237,0.432838 7.754419,14.581326 7.754419,14.581326 h -3.731612 z m -4.383745,-8.148431 c -0.32355,-0.650695 -1.059806,-0.811032 -1.457413,-0.05177 -0.16537,0.312765 -3.300212,6.201378 -3.300212,6.201378 h 8.082283 z m -13.126788,-2.635855 0.01222,14.025539 h -3.334004 v -14.01044 l -6.328641,-0.01007 v -1.948491 l 16.015013,-0.01006 -0.0072,1.97006 z m -8.602839,23.867215 c 0.448657,-0.08197 0.848421,-0.03235 0.848421,-0.399045 0,-0.32355 -0.333616,-0.383227 -0.585986,-0.383227 -0.350153,0 -0.596051,0.142362 -0.623373,0.448656 h -0.624092 c 0.04314,-0.727629 0.662199,-0.941172 1.286291,-0.941172 0.552193,0 1.132426,0.224328 1.132426,0.821099 v 1.455256 c 0,0.153147 0.03307,0.213543 0.148114,0.213543 0.03811,0 0.087,0 0.153147,-0.0115 v 0.432839 a 1.5818007,1.5818007 0 0 1 -0.394012,0.07118 c -0.25165,0 -0.432838,-0.08772 -0.48173,-0.345121 -0.245898,0.241585 -0.645663,0.345121 -0.979279,0.345121 -0.509052,0 -0.968493,-0.273221 -0.968493,-0.826851 0,-0.705339 0.563696,-0.81966 1.088566,-0.880775 m 0.109288,1.21511 c 0.273221,0 0.700307,-0.142362 0.700307,-0.536374 v -0.465193 c -0.191254,0.125825 -0.491797,0.120792 -0.765736,0.169684 -0.268187,0.04314 -0.509052,0.142362 -0.509052,0.470226 0,0.279691 0.355905,0.361657 0.5752,0.361657 m -2.708474,-0.278972 v -1.669517 h -0.470945 v -0.464475 h 0.470945 v -0.84842 h 0.623374 v 0.84842 h 0.563696 v 0.464475 h -0.563696 v 1.510618 c 0,0.257402 0.02157,0.38826 0.301261,0.38826 0.087,0 0.174717,0 0.262435,-0.02157 v 0.481731 c -0.13661,0.01079 -0.268187,0.03236 -0.404797,0.03236 -0.651415,0 -0.771488,-0.251651 -0.782273,-0.721877 M 58.515121,35.811967 h 3.389367 v 15.971154 h -3.389367 z m 0.450094,26.5383 1.001567,-3.091701 h 0.694554 l -1.335183,3.906329 h -0.760702 l -1.30211,-3.907048 h 0.71181 l 0.979279,3.091701 z m -2.576897,0.855611 c -0.517681,0 -0.88509,-0.387542 -0.88509,-0.899469 0,-0.541408 0.408392,-0.900188 0.88509,-0.900188 0.471664,0 0.880775,0.35878 0.880775,0.900188 0,0.541406 -0.40983,0.899469 -0.880775,0.899469 m 0,-1.642916 c -0.389698,0 -0.693117,0.305576 -0.693117,0.743447 0,0.40911 0.264593,0.743445 0.693117,0.743445 0.384665,0 0.688083,-0.303417 0.688083,-0.743445 0,-0.438591 -0.303418,-0.743447 -0.688083,-0.743447 m 0.139486,0.81966 0.278972,0.438591 h -0.184783 l -0.257402,-0.425648 h -0.153866 v 0.425648 h -0.163932 v -0.995816 h 0.377475 c 0.240865,0 0.363095,0.08412 0.363095,0.286162 0,0.17975 -0.110007,0.255245 -0.25884,0.271782 m -0.120792,-0.418458 h -0.197006 v 0.291195 h 0.182626 c 0.12223,0 0.230799,-0.01222 0.230799,-0.156742 0,-0.120073 -0.117916,-0.134453 -0.216419,-0.134453 M 46.394932,51.832732 c -1.334464,-0.0719 -1.892408,-1.087849 -2.144777,-1.520687 -0.253808,-0.432838 -7.740039,-14.553284 -7.740039,-14.553284 h 3.724422 l 6.200659,11.511195 c 0.32355,0.649256 1.058368,0.808875 1.455256,0.05105 0.324988,-0.613307 6.169023,-11.562243 6.169023,-11.562243 h 2.326685 c 0,0 -7.251118,13.727154 -7.540156,14.195941 -0.289039,0.468788 -1.115889,1.950649 -2.451073,1.878029 m -9.14784,8.503616 -1.100071,2.981696 c -0.202039,0.509051 -0.350153,0.968492 -1.001567,0.968492 q -0.220014,0 -0.4314,-0.03235 v -0.52559 c 0.09778,0.01654 0.196287,0.03811 0.29479,0.03811 0.290476,0 0.360938,-0.153147 0.437871,-0.394012 l 0.07118,-0.218576 -1.072749,-2.818481 h 0.684489 l 0.738413,2.112422 h 0.01079 l 0.716843,-2.111704 z M 26.874793,40.120216 v 7.312952 c 0,2.672525 -1.203606,4.340606 -4.539049,4.340606 h -7.166276 v -1.977251 h 6.252427 c 1.27982,0 2.044118,-1.038957 2.044118,-2.364073 v -7.311515 c 0,-2.33028 1.131706,-4.341323 4.44486,-4.341323 h 7.116665 v 1.97725 h -6.157519 c -1.663048,-0.0719 -1.995226,1.290606 -1.995226,2.364073 m -14.067241,4.52395 H 5.138695 c -1.051178,0 -1.828418,0.800248 -1.828418,2.171381 v 4.980516 H 0 v -4.79789 c 0,-2.696251 1.691089,-4.513165 4.089674,-4.513165 h 7.758013 c 1.902475,-0.0719 2.356164,-1.016666 2.356164,-2.387081 0,-1.051178 -0.526308,-2.486303 -2.356164,-2.341784 H 0 v -1.978688 h 12.807552 c 3.357732,0 4.683568,1.942019 4.683568,4.318315 0,2.696251 -1.325117,4.546958 -4.683568,4.546958 m 16.997887,15.82304 c 0,0.48173 -0.213544,1.204326 -1.330151,1.198574 h -1.038955 v 1.499834 h -0.68377 v -3.907766 h 1.723444 c 1.115888,0 1.330151,0.722595 1.330151,1.209358 m -2.369825,-0.650695 v 1.291325 H 28.4379 c 0.306294,0 0.683769,-0.153148 0.683769,-0.645663 0,-0.514804 -0.312046,-0.645662 -0.672984,-0.645662 z m 3.54539,3.348385 H 30.35835 v -3.907048 h 0.623373 z m 1.641478,-1.630693 c 0.448656,-0.08197 0.84842,-0.03235 0.84842,-0.399045 0,-0.32355 -0.333616,-0.383228 -0.585266,-0.383228 -0.350872,0 -0.59677,0.142363 -0.624092,0.448656 H 31.63817 c 0.04386,-0.727628 0.6622,-0.941171 1.286292,-0.941171 0.552192,0 1.132425,0.224328 1.132425,0.821098 v 1.455256 c 0,0.153147 0.03307,0.213543 0.148114,0.213543 0.03811,0 0.087,0 0.153147,-0.0115 v 0.43284 c -0.09347,0.03307 -0.289757,0.07118 -0.394012,0.07118 -0.25165,0 -0.432119,-0.08772 -0.48173,-0.345121 -0.246617,0.241585 -0.645662,0.345121 -0.979278,0.345121 -0.509053,0 -0.968494,-0.273221 -0.968494,-0.826851 0,-0.705339 0.563696,-0.81966 1.088567,-0.880775 m 0.110007,1.21511 c 0.27322,0 0.700306,-0.142362 0.700306,-0.536374 v -0.465193 c -0.191973,0.125825 -0.492515,0.120792 -0.766454,0.169684 -0.268187,0.04314 -0.509052,0.142362 -0.509052,0.470226 0,0.279691 0.355905,0.361657 0.5752,0.361657 m 6.417796,-0.04961 c 0.601804,0 0.826851,-0.29479 0.826851,-0.591018 0,-0.300542 -0.164651,-0.421334 -0.32355,-0.48173 -0.27322,-0.103536 -0.629126,-0.174717 -1.164781,-0.322112 -0.667951,-0.181187 -0.864957,-0.585266 -0.864957,-0.990782 0,-0.782273 0.722595,-1.148963 1.427934,-1.148963 0.816066,0 1.499835,0.432119 1.499835,1.247465 h -0.684488 c -0.03235,-0.5033 -0.371723,-0.689521 -0.842669,-0.689521 -0.317079,0 -0.716843,0.11504 -0.716843,0.509052 0,0.27322 0.186221,0.426367 0.465193,0.503301 0.0604,0.01654 0.924635,0.240865 1.127393,0.301261 a 1.0353604,1.0353604 0 0 1 0.760702,0.995815 c 0,0.875023 -0.77652,1.225896 -1.554479,1.225896 -0.89156,0 -1.614155,-0.427087 -1.630692,-1.395579 h 0.684488 c 0,0.601802 0.442904,0.836915 0.990063,0.836915 M 41.3835,59.487209 h 0.624093 v 0.848419 h 0.563696 v 0.464476 h -0.563696 v 1.510618 c 0,0.257402 0.02157,0.38826 0.300542,0.38826 0.08772,0 0.175436,0 0.263154,-0.02157 v 0.48173 c -0.13661,0.01079 -0.268187,0.03236 -0.405516,0.03236 -0.650696,0 -0.771488,-0.251651 -0.782273,-0.722596 v -1.66808 H 40.913274 V 60.33491 H 41.3835 Z m 2.599186,2.046275 c 0.448657,-0.08197 0.848421,-0.03235 0.848421,-0.399045 0,-0.32355 -0.334335,-0.383228 -0.585985,-0.383228 -0.350154,0 -0.596771,0.142363 -0.623374,0.448656 h -0.624092 c 0.04314,-0.727628 0.66148,-0.941171 1.285573,-0.941171 0.55363,0 1.133144,0.224328 1.133144,0.821098 v 1.455256 c 0,0.153147 0.03235,0.213543 0.147395,0.213543 0.03883,0 0.08772,0 0.153866,-0.0115 v 0.43284 c -0.09347,0.03307 -0.290476,0.07118 -0.394012,0.07118 -0.25165,0 -0.432838,-0.08772 -0.48173,-0.345121 -0.246617,0.241585 -0.645662,0.345121 -0.979279,0.345121 -0.509052,0 -0.968493,-0.273221 -0.968493,-0.826851 0,-0.705339 0.562977,-0.81966 1.088566,-0.880775 m 0.109289,1.21511 c 0.27322,0 0.700306,-0.142362 0.700306,-0.536374 v -0.465193 c -0.191254,0.125825 -0.492515,0.120792 -0.765736,0.169684 -0.268187,0.04314 -0.509052,0.142362 -0.509052,0.470226 0,0.279691 0.355905,0.361657 0.574482,0.361657 m 2.210206,-3.261385 h 0.624093 v 0.84842 h 0.563696 v 0.464475 h -0.563696 v 1.510619 c 0,0.257402 0.02157,0.38826 0.301261,0.38826 0.087,0 0.174717,0 0.262435,-0.02157 v 0.481731 c -0.13661,0.01079 -0.268187,0.03236 -0.404797,0.03236 -0.651414,0 -0.771488,-0.251651 -0.782992,-0.722596 v -1.66808 h -0.470226 v -0.465913 h 0.470226 z m 2.303677,0.360938 h -0.623373 v -0.591018 h 0.623373 z m 0,3.316031 h -0.623373 v -2.828549 h 0.623373 z m 2.003135,-2.905481 c 0.908098,0 1.427935,0.624092 1.427935,1.48833 0,0.86999 -0.519837,1.493364 -1.427935,1.493364 -0.908097,0 -1.427934,-0.623374 -1.427934,-1.493364 0,-0.864238 0.519837,-1.48833 1.427934,-1.48833 m 0,2.489898 c 0.557944,0 0.804562,-0.509053 0.804562,-1.001568 0,-0.486763 -0.246618,-0.995814 -0.805281,-0.995814 -0.557225,0 -0.803842,0.508332 -0.803842,0.995814 0,0.492515 0.246617,1.001568 0.804561,1.001568 m 2.566112,-1.997382 0.01078,0.01079 a 1.0137904,1.0137904 0 0 1 0.880776,-0.503301 c 0.613307,0 1.001567,0.328583 1.001567,0.963461 v 1.942738 H 54.44486 v -1.778807 c -0.0115,-0.442903 -0.18694,-0.634876 -0.55363,-0.634876 -0.415583,0 -0.683051,0.328582 -0.683051,0.744164 v 1.669519 h -0.624092 v -2.829267 h 0.591018 z M 61.62983,59.84815 h -0.624092 v -0.591019 h 0.624092 z m 0,3.31603 h -0.624092 v -2.828548 h 0.624092 z"
       clip-rule="evenodd"
       style="stroke-width:0.13943"
       id="path1" /></g></svg>
