<?xml version="1.0" encoding="UTF-8" standalone="no"?>
<!-- Created with Inkscape (http://www.inkscape.org/) -->

<svg
   width="100"
   height="100"
   viewBox="0 0 100 100"
   version="1.1"
   id="svg1"
   xml:space="preserve"
   xmlns="http://www.w3.org/2000/svg"
   xmlns:svg="http://www.w3.org/2000/svg"><defs
     id="defs1" /><g
     id="layer1"><path
       d="m 17.11693,61.336381 c 0.8838,0 1.41408,-0.180226 1.41408,-1.020592 0,-0.622013 -0.38587,-0.95474 -1.26967,-0.95474 h -1.22139 v 1.975332 z m -1.54302,2.595497 v -4.971025 h 1.81613 c 1.28562,0 1.6232,0.642808 1.6232,1.388671 0,1.110473 -0.99634,1.387053 -1.91249,1.387053 h -1.0608 v 2.195301 z m 4.06619,0 h 0.40181 v -4.971025 h -0.40204 z m 3.77691,-1.878748 c -0.35352,0.144642 -0.72322,0.173526 -1.07674,0.201022 -0.62687,0.04806 -1.01251,0.276348 -1.01251,0.758569 0,0.437166 0.38541,0.642809 0.77128,0.642809 0.65898,0 1.31797,-0.318169 1.31797,-1.043004 z m -0.70728,-0.205644 c 0.16059,-0.01456 0.41776,-0.05638 0.54646,-0.118996 0.14464,-0.06123 0.16082,-0.247465 0.16082,-0.371313 0,-0.420992 -0.25717,-0.724835 -0.89998,-0.724835 -0.56263,0 -0.96445,0.186465 -1.04485,0.806861 h -0.41776 c 0.0642,-0.842214 0.69087,-1.181179 1.47878,-1.181179 0.72322,0 1.28562,0.284204 1.28562,1.112092 v 1.946219 c 0,0.324639 0.0964,0.400196 0.4337,0.276347 v 0.32464 c -0.0481,0.02103 -0.1927,0.06932 -0.32117,0.06932 -0.0645,0 -0.11253,-0.0065 -0.17699,-0.0208 -0.28929,-0.0402 -0.33735,-0.283048 -0.33735,-0.532131 -0.33758,0.387257 -0.8198,0.594749 -1.33414,0.594749 -0.62664,0 -1.18927,-0.339197 -1.18927,-1.02868 0,-0.599369 0.41776,-0.96583 1.25373,-1.076739 z m 2.13754,3.056923 c 0.11253,0.02079 0.22505,0.04321 0.33758,0.04321 0.48222,0 0.54645,-0.678162 0.70704,-0.988474 l -1.39791,-3.60315 h 0.46605 l 1.15691,3.073097 1.14144,-3.073098 h 0.44987 l -1.33414,3.527825 c -0.33734,0.896512 -0.5624,1.456139 -1.14097,1.456139 a 1.6174201,1.6174201 0 0 1 -0.38587,-0.04829 z m 3.84114,-2.457553 c 0.0806,0.890505 0.65898,1.214913 1.43049,1.214913 0.88404,0 1.25374,-0.481992 1.25374,-1.028448 0,-1.539785 -3.02158,-0.517575 -3.02158,-2.470031 0,-0.691332 0.5624,-1.332523 1.68743,-1.332523 1.10909,0 1.67172,0.674926 1.65555,1.485022 h -0.43393 c 0,-0.760187 -0.59475,-1.084826 -1.22162,-1.084826 -0.96421,0 -1.30156,0.58643 -1.22138,1.097535 0.20888,1.282614 3.03775,0.358605 3.03775,2.283797 0,0.912918 -0.67516,1.449901 -1.81613,1.449901 -1.04486,0 -1.81614,-0.536983 -1.81614,-1.615109 z m 5.31993,1.497962 c -0.0964,0.02079 -0.27312,0.08364 -0.48223,0.08364 -0.40181,0 -0.62663,-0.180227 -0.62663,-0.712127 V 60.699807 H 32.38514 V 60.35599 h 0.51434 v -0.994945 h 0.41776 v 0.994945 h 0.65898 v 0.343817 h -0.65898 v 2.451085 c 0,0.353521 0,0.504635 0.35352,0.504635 0.11252,0 0.22505,-0.0208 0.33735,-0.04829 z m 3.10198,-1.891688 c -0.35352,0.144643 -0.70705,0.173526 -1.0608,0.201022 -0.62663,0.04806 -1.0125,0.276348 -1.0125,0.75857 0,0.437165 0.38587,0.642809 0.77151,0.642809 0.65875,0 1.30179,-0.31817 1.30179,-1.043005 z m -0.6911,-0.205644 c 0.14464,-0.01456 0.40181,-0.05638 0.54645,-0.118996 0.12847,-0.06123 0.14465,-0.247465 0.14465,-0.371313 0,-0.420992 -0.241,-0.724835 -0.88404,-0.724835 -0.57857,0 -0.96421,0.186465 -1.04462,0.806861 H 34.7639 c 0.0642,-0.842214 0.69087,-1.181179 1.46261,-1.181179 0.72322,0 1.30156,0.284204 1.30156,1.112092 v 1.946219 c 0,0.324639 0.0804,0.400196 0.43417,0.276347 v 0.32464 c -0.0645,0.02103 -0.20911,0.06932 -0.32164,0.06932 a 0.87802804,0.87802804 0 0 1 -0.19294,-0.0208 c -0.27311,-0.0402 -0.32117,-0.283048 -0.32117,-0.532131 -0.35375,0.387257 -0.8198,0.594749 -1.33414,0.594749 -0.62686,0 -1.20544,-0.339197 -1.20544,-1.02868 0,-0.599369 0.41822,-0.96583 1.25373,-1.076739 z m 3.55185,2.097332 c -0.0964,0.02079 -0.27311,0.08364 -0.48199,0.08364 -0.40204,0 -0.62687,-0.180227 -0.62687,-0.712127 V 60.699807 H 38.36405 V 60.35599 h 0.49816 v -0.994945 h 0.41776 v 0.994945 h 0.65898 v 0.343817 h -0.65898 v 2.451085 c 0,0.353521 0,0.504635 0.35352,0.504635 0.11253,0 0.22506,-0.0208 0.33758,-0.04829 z m 1.23756,-0.01294 h -0.40181 v -3.575653 h 0.40181 z M 40.7747,59.57478 v -0.613927 h 0.46605 v 0.613927 z m 2.8767,1.057562 c -0.86764,0 -1.20521,0.737774 -1.20521,1.51067 0,0.890505 0.41798,1.512519 1.20544,1.512519 0.86786,0 1.22161,-0.745862 1.22161,-1.512519 0,-0.841983 -0.33781,-1.51067 -1.22161,-1.51067 m -1.65555,1.51067 c 0,-1.041388 0.56263,-1.884988 1.65555,-1.884988 1.12503,0 1.67148,0.835513 1.67148,1.884988 0,1.133118 -0.65898,1.88545 -1.67148,1.88545 -0.89998,-0.01456 -1.65555,-0.634953 -1.65555,-1.88545 m 4.32337,1.788866 h -0.41776 v -3.575653 h 0.41776 v 0.496548 c 0.32163,-0.351905 0.65898,-0.594518 1.1412,-0.594518 0.45011,0 0.83574,0.137943 1.09291,0.510874 0.17677,0.25717 0.19294,0.525662 0.19294,0.821418 v 2.341563 h -0.41799 v -2.333707 c 0,-0.641191 -0.27311,-0.96583 -0.93209,-0.96583 a 1.0420806,1.0420806 0 0 0 -0.99657,0.695952 c -0.0804,0.228288 -0.0804,0.429079 -0.0804,0.678161 z m 4.05025,-1.162231 c -0.0483,-0.02218 -0.11253,-0.0335 -0.20888,-0.0335 h -0.1287 v 0.331109 h 0.14464 c 0.0645,0 0.1287,-0.0065 0.16082,-0.01918 q 0.0964,-0.03859 0.0964,-0.144875 a 0.15943141,0.15943141 0 0 0 -0.0642,-0.133321 m -0.17676,-0.14603 c 0.11252,0 0.1927,0.0097 0.25716,0.03212 0.0964,0.04021 0.12847,0.117379 0.12847,0.234757 0,0.08179 -0.0162,0.141409 -0.0802,0.179765 -0.0324,0.02103 -0.0806,0.03558 -0.1287,0.04529 a 0.20795401,0.20795401 0 0 1 0.14464,0.0915 q 0.0483,0.07486 0.0483,0.144644 v 0.06747 c 0,0.02264 0,0.04667 0.0159,0.06909 v 0.06123 h -0.14464 v -0.02103 l -0.0159,-0.02888 v -0.07394 c 0,-0.109291 -0.0324,-0.180227 -0.0804,-0.213962 -0.0324,-0.02079 -0.0964,-0.0305 -0.17676,-0.0305 h -0.1287 v 0.368309 H 49.8716 v -0.925857 z m -0.4984,-0.04829 c -0.14441,0.141409 -0.20888,0.313318 -0.20888,0.512722 0,0.204257 0.0645,0.376166 0.20888,0.517575 0.14487,0.143026 0.30546,0.21373 0.51457,0.21373 0.20865,0 0.3697,-0.0707 0.51411,-0.21373 0.14487,-0.141409 0.20911,-0.313318 0.20911,-0.517575 0,-0.199173 -0.0642,-0.371313 -0.20911,-0.512491 -0.14465,-0.14164 -0.30546,-0.212344 -0.51411,-0.212344 -0.20888,0 -0.3697,0.0707 -0.51457,0.212113 m 1.10909,1.109088 a 0.81795244,0.81795244 0 0 1 -0.59452,0.247234 0.82026304,0.82026304 0 0 1 -0.59475,-0.247234 q -0.24099,-0.246541 -0.24099,-0.596135 c 0,-0.229904 0.0802,-0.429309 0.24099,-0.591513 0.16059,-0.16567 0.3697,-0.246079 0.59475,-0.246079 0.22505,0 0.43393,0.08041 0.59452,0.245848 0.16058,0.160818 0.24099,0.359991 0.24099,0.591513 q 0,0.350056 -0.24099,0.596135 m 3.06986,-2.348032 c 0.8838,0 1.43026,-0.180226 1.43026,-1.020592 0,-0.622013 -0.40158,-0.95474 -1.28562,-0.95474 H 52.7966 v 1.975332 z m -1.54302,2.595497 v -4.971025 h 1.81613 c 1.28585,0 1.6232,0.642809 1.6232,1.388671 0,1.110474 -0.98039,1.387053 -1.91248,1.387053 h -1.0608 v 2.195301 z m 5.28781,-3.299536 c -0.86786,0 -1.22161,0.737774 -1.22161,1.51067 0,0.890505 0.43393,1.512519 1.22161,1.512519 0.86786,0 1.22138,-0.745862 1.22138,-1.512519 -0.0162,-0.841983 -0.33734,-1.51067 -1.22138,-1.51067 m -1.65578,1.51067 c 0,-1.041388 0.54669,-1.884988 1.65555,-1.884988 1.12503,0 1.65531,0.835513 1.65531,1.884988 0,1.133349 -0.65875,1.88545 -1.65531,1.88545 -0.91615,-0.01456 -1.65555,-0.634953 -1.65555,-1.88545 m 4.33977,1.788866 h -0.41798 v -3.575653 h 0.41798 v 0.670074 h 0.0162 c 0.22482,-0.573722 0.5624,-0.768044 1.15691,-0.768044 v 0.449874 c -0.93209,-0.0208 -1.17309,0.668457 -1.17309,1.468849 z m 3.48762,0.01294 c -0.0966,0.02079 -0.27334,0.08364 -0.46605,0.08364 -0.41821,0 -0.64304,-0.180227 -0.64304,-0.712127 v -2.616524 h -0.49816 v -0.343817 h 0.49816 v -0.994945 h 0.41799 v 0.994945 h 0.67493 v 0.343817 h -0.67493 v 2.451085 c 0,0.353521 0.016,0.504635 0.35352,0.504635 0.11253,0 0.241,-0.0208 0.33735,-0.04829 z m 2.97328,-1.891688 c -0.35352,0.144643 -0.70704,0.173526 -1.06079,0.201022 -0.62687,0.04806 -1.01251,0.276348 -1.01251,0.75857 0,0.437165 0.38587,0.642809 0.77151,0.642809 0.65898,0 1.30179,-0.31817 1.30179,-1.043005 z m -0.6911,-0.205644 c 0.14465,-0.01456 0.40182,-0.05638 0.54646,-0.118996 0.1287,-0.06123 0.14464,-0.247465 0.14464,-0.371313 0,-0.420992 -0.24122,-0.724835 -0.88403,-0.724835 -0.57858,0 -0.96422,0.186465 -1.04463,0.806861 h -0.41798 c 0.0642,-0.842214 0.6911,-1.181179 1.46261,-1.181179 0.72321,0 1.30179,0.284204 1.30179,1.112092 v 1.946219 c 0,0.324639 0.0804,0.400196 0.43393,0.276347 v 0.32464 c -0.0642,0.02103 -0.20888,0.06932 -0.32117,0.06932 a 0.87802804,0.87802804 0 0 1 -0.19317,-0.0208 c -0.27311,-0.0402 -0.32117,-0.283048 -0.32117,-0.532131 -0.35352,0.387257 -0.8198,0.594749 -1.33414,0.594749 -0.62664,0 -1.20544,-0.339197 -1.20544,-1.02868 0,-0.599369 0.41798,-0.96583 1.25373,-1.076739 z m 3.96961,1.808045 c 0.6911,0 1.20567,-0.504635 1.22162,-1.40161 0.0323,-0.896513 -0.3697,-1.621579 -1.22162,-1.621579 -0.7551,0 -1.20521,0.689483 -1.20521,1.496344 0,0.864627 0.41776,1.526845 1.20521,1.526845 m -1.20521,0.276347 h -0.41798 v -4.971025 h 0.41798 v 1.967245 c 0.25717,-0.43393 0.77128,-0.670074 1.26968,-0.670074 1.09291,0 1.59108,0.891892 1.59108,1.893075 0,1.054327 -0.45011,1.877363 -1.60726,1.877363 -0.46604,0 -0.99633,-0.255553 -1.2535,-0.725067 z m 3.77691,0 h 0.41799 v -4.971025 h -0.41799 z m 4.01813,-2.037949 c 0,-0.695722 -0.38587,-1.261587 -1.12526,-1.261587 -0.73939,0 -1.12503,0.586661 -1.20544,1.261587 z m -2.33047,0.347283 c 0,0.771279 0.41776,1.414088 1.20521,1.414088 0.53052,0 0.96445,-0.297144 1.07674,-0.821188 h 0.46605 c -0.20865,0.675158 -0.62663,1.19435 -1.54279,1.19435 -1.14097,0 -1.63937,-0.814949 -1.63937,-1.870893 0,-1.043005 0.61092,-1.899545 1.63937,-1.899545 0.98039,0 1.57514,0.698957 1.57514,1.983188 z M 0,34.660041 h 29.28339 v 8.683697 H 1.15738 v 7.526549 H 2.3e-4 V 42.186359 H 28.12624 V 35.81719 H 2.3e-4 Z m 65.86319,8.683697 v 7.526549 H 64.70605 V 42.186359 H 92.83206 V 35.81719 H 64.70605 v -1.157149 h 29.28292 v 8.683697 z M 44.21426,34.660041 v 15.053098 h -14.9311 v 1.157148 H 45.43564 V 35.81719 h 14.9311 v -1.157149 z m 52.84458,14.500171 h -0.62687 v -0.218583 h 1.5109 v 0.218583 h -0.62686 v 1.713079 h -0.25717 z m 1.91271,1.713079 -0.53051,-1.568435 v 1.568435 h -0.25717 v -1.931662 h 0.35352 l 0.54646,1.642375 0.56263,-1.642375 H 100 v 1.931893 h -0.25717 v -1.568898 l -0.51411,1.568667 z"
       class="ps02"
       style="fill:#000000;fill-rule:nonzero;stroke:none;stroke-width:0.132779"
       id="path1" /></g></svg>
