<?xml version="1.0" encoding="UTF-8" standalone="no"?>
<svg
   width="100.00001"
   height="18.6745"
   viewBox="0 0 100 18.6745"
   version="1.1"
   id="svg15"
   xmlns="http://www.w3.org/2000/svg"
   xmlns:svg="http://www.w3.org/2000/svg"
   xmlns:rdf="http://www.w3.org/1999/02/22-rdf-syntax-ns#"
   xmlns:cc="http://creativecommons.org/ns#"
   xmlns:dc="http://purl.org/dc/elements/1.1/">
  <defs
     id="defs15" />
  <title
     id="title1">PlayStation logo - Brandlogos.net</title>
  <path
     d="M 8.4743519,2.5585937e-7 V 16.321924 l 3.6974391,1.172541 V 3.8060766 c 0,-0.6443357 0.288453,-1.0713955 0.749228,-0.9252961 0.603128,0.1685762 0.719258,0.7492276 0.719258,1.3973095 v 5.4656156 c 2.300129,1.1238414 4.120752,0 4.120752,-2.9369723 0,-2.9969105 -1.060157,-4.338028 -4.188182,-5.4131696 A 45.118488,45.118488 0 0 0 8.4818442,2.5585937e-7"
     id="path1"
     style="stroke-width:0.374614" />
  <path
     d="m 12.872319,15.108175 5.937629,-2.112822 c 0.670558,-0.247245 0.77545,-0.588144 0.23226,-0.749227 a 3.9971294,3.9971294 0 0 0 -2.217713,0.11613 l -3.952176,1.393563 v -2.225206 l 0.224768,-0.07492 a 13.422413,13.422413 0 0 1 2.753412,-0.580651 11.796589,11.796589 0 0 1 5.12097,0.606874 c 1.741955,0.554429 1.936754,1.359849 1.498456,1.921769 -0.438298,0.561921 -1.532171,0.959012 -1.532171,0.959012 l -8.065435,2.895764"
     id="path2"
     style="stroke-width:0.374614" />
  <path
     d="M 1.7013342,14.883407 C -0.08557364,14.38517 -0.38526469,13.332506 0.43139342,12.725631 A 8.7622171,8.7622171 0 0 1 2.4655464,11.751635 L 7.7588395,9.8785666 V 12.02885 l -3.8060763,1.363594 c -0.6743049,0.239753 -0.7754506,0.580651 -0.2322606,0.749227 a 3.8922375,3.8922375 0 0 0 2.2102215,-0.112384 l 1.8318616,-0.65932 V 15.28799 L 7.3879719,15.34793 A 11.864019,11.864019 0 0 1 1.7013342,14.890899"
     id="path3"
     style="stroke-width:0.374614" />
  <path
     d="m 34.708558,4.2855823 h -4.465397 a 0.03371524,0.03371524 0 0 0 -0.03371,0.029969 V 14.756038 a 0.03371524,0.03371524 0 0 0 0.03371,0.03371 h 1.809385 l 0.02997,-0.03371 v -9.3091529 0 h 2.071615 c 0.749227,0 1.168795,0.7492277 1.168795,2.1390449 0,1.3898173 -0.415822,2.1390449 -1.168795,2.1390449 h -1.247464 a 0.02996911,0.02996911 0 0 0 -0.02997,0.033715 v 1.0713951 a 0.02996911,0.02996911 0 0 0 0.02997,0.03372 h 1.786907 a 2.2851443,2.2851443 0 0 0 1.693255,-0.794182 3.6787076,3.6787076 0 0 0 0.80542,-2.4836892 c 0,-1.9966916 -0.973996,-3.2891093 -2.494928,-3.2891093"
     id="path4"
     style="stroke-width:0.374614" />
  <path
     d="M 40.162935,4.2818362 H 38.35355 a 0.03371524,0.03371524 0 0 0 -0.03372,0.029969 V 14.752292 a 0.03371524,0.03371524 0 0 0 0.03372,0.03371 h 1.809385 l 0.03372,-0.03371 V 4.3118053 l -0.03372,-0.029969"
     id="path5"
     style="stroke-width:0.374614" />
  <path
     d="m 48.056048,6.8217178 a 0.03371524,0.03371524 0 0 0 -0.03372,-0.033715 h -3.221679 c -2.892019,0 -3.25914,2.1203142 -3.25914,3.9858902 v 1.61084 c 0,1.386071 0.861612,2.393782 2.049137,2.393782 h 1.756939 l 0.02997,-0.03372 v -1.082634 a 0.03371524,0.03371524 0 0 0 -0.02997,-0.03371 h -1.254956 c -0.288453,0 -0.678051,-0.127369 -0.678051,-1.123842 v -1.741954 c 0,-1.1575563 0.104892,-1.8955455 0.348391,-2.3188592 a 1.056411,1.056411 0 0 1 1.03768,-0.5282054 h 1.374833 v 0 6.8067326 a 0.03371524,0.03371524 0 0 0 0.03372,0.03372 h 1.805639 a 0.03371524,0.03371524 0 0 0 0.03372,-0.03372"
     id="path6"
     style="stroke-width:0.374614" />
  <path
     d="m 61.077624,8.6498332 -0.891581,-0.06743 C 59.519231,8.5262112 59.020994,8.155343 59.020994,7.0577245 c 0,-1.2774331 0.57316,-1.62957 1.337372,-1.62957 h 2.468705 l 0.03372,-0.029969 V 4.3118053 l -0.03372,-0.029969 h -2.723443 c -1.682016,0 -2.88078,0.9889805 -2.88078,2.9594491 v 0.086161 c 0,1.5546473 0.955265,2.6784886 2.382544,2.7871266 l 0.887835,0.06743 c 0.678051,0.05245 1.097618,0.655575 1.097618,1.573378 v 0.258484 c 0,0.573159 -0.142353,1.625824 -1.374832,1.625824 h -2.566105 a 0.03371524,0.03371524 0 0 0 -0.03372,0.03371 v 1.078888 l 0.03372,0.03371 h 3.184217 c 0.981488,0 2.622297,-0.39709 2.622297,-3.064341 A 3.5326083,3.5326083 0 0 0 62.793356,9.4402684 2.2888904,2.2888904 0 0 0 61.077624,8.6535794"
     id="path7"
     style="stroke-width:0.374614" />
  <path
     d="m 75.901093,6.8217178 a 0.03371524,0.03371524 0 0 0 -0.03372,-0.033715 h -3.229171 c -2.884527,0 -3.259141,2.1203142 -3.259141,3.9858902 v 1.61084 c 0,1.386071 0.861612,2.393782 2.05663,2.393782 h 1.753193 l 0.03372,-0.03372 v -1.082634 a 0.03371524,0.03371524 0 0 0 -0.03372,-0.03371 h -1.258703 c -0.288452,0 -0.674304,-0.127369 -0.674304,-1.123842 v -1.741954 c 0,-1.1575563 0.108638,-1.8955455 0.344644,-2.3188592 a 1.056411,1.056411 0 0 1 1.033934,-0.5282054 h 1.378579 v 0 6.8067326 a 0.03371524,0.03371524 0 0 0 0.03372,0.03372 h 1.809385 a 0.02996911,0.02996911 0 0 0 0.02997,-0.03372"
     id="path8"
     style="stroke-width:0.374614" />
  <path
     d="m 68.629839,6.7917487 h -1.962977 v 0 -1.3148945 a 0.02996911,0.02996911 0 0 0 -0.02997,-0.033715 h -1.809384 a 0.03371524,0.03371524 0 0 0 -0.03372,0.033715 v 6.9266088 c 0,1.386071 0.865358,2.393783 2.05663,2.393783 h 1.296164 a 0.03371524,0.03371524 0 0 0 0.03372,-0.03372 v -1.078887 a 0.03371524,0.03371524 0 0 0 -0.03372,-0.03372 h -0.794181 c -0.202292,0 -0.681797,0 -0.681797,-1.033934 v -4.678926 0 H 68.63358 L 68.66355,7.90809 V 6.8217178 a 0.03371524,0.03371524 0 0 0 -0.02997,-0.033715"
     id="path9"
     style="stroke-width:0.374614" />
  <path
     d="m 81.25807,6.7917487 h -1.951738 v 0 -1.3148945 l -0.02997,-0.033715 h -1.813131 a 0.03371524,0.03371524 0 0 0 -0.03372,0.033715 v 6.9266088 c 0,1.386071 0.861612,2.393783 2.052884,2.393783 h 1.296164 a 0.03371524,0.03371524 0 0 0 0.03372,-0.03372 v -1.078887 a 0.03371524,0.03371524 0 0 0 -0.03372,-0.03372 h -0.801668 c -0.206037,0 -0.678051,0 -0.678051,-1.033934 v -4.678926 0 h 1.955484 L 81.288044,7.90809 V 6.8217178 a 0.03371524,0.03371524 0 0 0 -0.03372,-0.033715"
     id="path10"
     style="stroke-width:0.374614" />
  <path
     d="m 84.247489,6.7917487 h -1.809385 a 0.03371524,0.03371524 0 0 0 -0.03372,0.033715 v 7.9305743 l 0.03372,0.03371 h 1.809385 a 0.03371524,0.03371524 0 0 0 0.03372,-0.03371 V 6.8217178 a 0.03371524,0.03371524 0 0 0 -0.03372,-0.033715"
     id="path11"
     style="stroke-width:0.374614" />
  <path
     d="m 84.247489,4.2818362 h -1.809385 l -0.03372,0.029969 v 1.4984552 a 0.03371524,0.03371524 0 0 0 0.03372,0.033715 h 1.809385 a 0.02996911,0.02996911 0 0 0 0.03372,-0.033715 V 4.3118053 a 0.03371524,0.03371524 0 0 0 -0.03372,-0.029969"
     id="path12"
     style="stroke-width:0.374614" />
  <path
     d="m 96.75959,6.7917487 h -3.225425 a 0.03371524,0.03371524 0 0 0 -0.02997,0.033715 v 7.9305743 l 0.02997,0.03371 h 1.801892 l 0.02997,-0.03371 v -6.810479 0 h 1.374832 a 1.0901262,1.0901262 0 0 1 1.041427,0.4907441 c 0.239753,0.3746138 0.348391,1.0713955 0.348391,2.1465369 0,0.04495 0,4.184437 0,4.184437 a 0.03371524,0.03371524 0 0 0 0.03372,0.03372 h 1.801892 a 0.03371524,0.03371524 0 0 0 0.03372,-0.03372 v -3.989638 c 0,-1.8730687 -0.374614,-3.9858906 -3.255395,-3.9858906"
     id="path13"
     style="stroke-width:0.374614" />
  <path
     d="m 90.039018,13.111483 a 1.4984553,1.4984553 0 0 1 -2.292636,0 C 87.487898,12.68817 87.371768,11.950181 87.371768,10.785132 v 0 c 0,-1.3748327 0.168576,-2.1577756 0.546936,-2.5286433 a 1.6745237,1.6745237 0 0 1 1.95923,0 c 0.374614,0.3746139 0.54319,1.1575567 0.54319,2.5398813 0,1.165049 -0.119876,1.906784 -0.374614,2.326352 M 88.900192,6.8029871 c -3.019387,0 -3.405239,2.1315526 -3.405239,3.9971289 0,1.865577 0.374613,4.004622 3.405239,4.004622 3.030626,0 3.40524,-2.139045 3.40524,-4.004622 0,-1.8655763 -0.374614,-3.9971289 -3.40524,-3.9971289"
     id="path14"
     style="stroke-width:0.374614" />
  <path
     d="m 49.078744,6.7917487 -0.02248,0.029969 2.682235,7.8668903 a 0.1273687,0.1273687 0 0 1 0,0.06368 l -1.498455,3.888491 c 0,0 0,0.03372 0.01873,0.03372 h 1.573378 a 0.05244593,0.05244593 0 0 0 0.04495,-0.03372 L 56.586005,6.8329563 c 0,-0.018731 0,-0.029969 -0.01873,-0.029969 h -1.72697 a 0.0486998,0.0486998 0 0 0 -0.04495,0.029969 l -1.992946,5.1621777 h -0.02248 L 51.019243,6.8329563 a 0.04495366,0.04495366 0 0 0 -0.04121,-0.029969"
     id="path15"
     style="stroke-width:0.374614" />
  <metadata
     id="metadata15">
    <rdf:RDF>
      <cc:Work
         rdf:about="">
        <dc:title>PlayStation logo - Brandlogos.net</dc:title>
      </cc:Work>
    </rdf:RDF>
  </metadata>
</svg>
