<svg xmlns="http://www.w3.org/2000/svg" width="266.98" height="49.82" viewBox="0 0 266.98 49.82"><title>PlayStation logo - Brandlogos.net</title><path d="M401.13,487.09v43.57l9.87,3.13V497.25c0-1.72.77-2.86,2-2.47,1.61.45,1.92,2,1.92,3.73v14.59c6.14,3,11,0,11-7.84,0-8-2.83-11.58-11.18-14.45a120.44,120.44,0,0,0-13.59-3.72" transform="translate(-378.51 -487.09)"/><path d="M412.87,527.42l15.85-5.64c1.79-.66,2.07-1.57.62-2a10.67,10.67,0,0,0-5.92.31l-10.55,3.72v-5.94l.6-.2a35.83,35.83,0,0,1,7.35-1.55,31.49,31.49,0,0,1,13.67,1.62c4.65,1.48,5.17,3.63,4,5.13s-4.09,2.56-4.09,2.56l-21.53,7.73" transform="translate(-378.51 -487.09)"/><path d="M383.05,526.82c-4.77-1.33-5.57-4.14-3.39-5.76a23.39,23.39,0,0,1,5.43-2.6l14.13-5v5.74l-10.16,3.64c-1.8.64-2.07,1.55-.62,2a10.39,10.39,0,0,0,5.9-.3l4.89-1.76v5.12l-1,.16a31.67,31.67,0,0,1-15.18-1.22" transform="translate(-378.51 -487.09)"/><path d="M471.16,498.53H459.24a.09.09,0,0,0-.09.08v27.87a.09.09,0,0,0,.09.09h4.83l.08-.09V501.63l0,0h5.53c2,0,3.12,2,3.12,5.71s-1.11,5.71-3.12,5.71h-3.33a.08.08,0,0,0-.08.09V516a.08.08,0,0,0,.08.09h4.77a6.1,6.1,0,0,0,4.52-2.12,9.82,9.82,0,0,0,2.15-6.63c0-5.33-2.6-8.78-6.66-8.78" transform="translate(-378.51 -487.09)"/><path d="M485.72,498.52h-4.83a.09.09,0,0,0-.09.08v27.87a.09.09,0,0,0,.09.09h4.83l.09-.09V498.6l-.09-.08" transform="translate(-378.51 -487.09)"/><path d="M506.79,505.3a.09.09,0,0,0-.09-.09h-8.6c-7.72,0-8.7,5.66-8.7,10.64v4.3c0,3.7,2.3,6.39,5.47,6.39h4.69l.08-.09v-2.89a.09.09,0,0,0-.08-.09h-3.35c-.77,0-1.81-.34-1.81-3v-4.65c0-3.09.28-5.06.93-6.19a2.82,2.82,0,0,1,2.77-1.41h3.67l0,0v18.17a.09.09,0,0,0,.09.09h4.82a.09.09,0,0,0,.09-.09" transform="translate(-378.51 -487.09)"/><path d="M541.55,510.18l-2.38-.18c-1.78-.15-3.11-1.14-3.11-4.07,0-3.41,1.53-4.35,3.57-4.35h6.59l.09-.08v-2.9l-.09-.08h-7.27c-4.49,0-7.69,2.64-7.69,7.9v.23c0,4.15,2.55,7.15,6.36,7.44l2.37.18c1.81.14,2.93,1.75,2.93,4.2v.69c0,1.53-.38,4.34-3.67,4.34H532.4a.09.09,0,0,0-.09.09v2.88l.09.09h8.5c2.62,0,7-1.06,7-8.18a9.43,9.43,0,0,0-1.77-6.09,6.11,6.11,0,0,0-4.58-2.1" transform="translate(-378.51 -487.09)"/><path d="M581.12,505.3a.09.09,0,0,0-.09-.09h-8.62c-7.7,0-8.7,5.66-8.7,10.64v4.3c0,3.7,2.3,6.39,5.49,6.39h4.68l.09-.09v-2.89a.09.09,0,0,0-.09-.09h-3.36c-.77,0-1.8-.34-1.8-3v-4.65c0-3.09.29-5.06.92-6.19a2.82,2.82,0,0,1,2.76-1.41h3.68l0,0v18.17a.09.09,0,0,0,.09.09H581a.08.08,0,0,0,.08-.09" transform="translate(-378.51 -487.09)"/><path d="M561.71,505.22h-5.24l0,0v-3.51a.08.08,0,0,0-.08-.09h-4.83a.09.09,0,0,0-.09.09v18.49c0,3.7,2.31,6.39,5.49,6.39h3.46a.09.09,0,0,0,.09-.09v-2.88a.09.09,0,0,0-.09-.09h-2.12c-.54,0-1.82,0-1.82-2.76V508.28l0,0h5.24l.08-.08V505.3a.09.09,0,0,0-.08-.09" transform="translate(-378.51 -487.09)"/><path d="M595.42,505.22h-5.21l0,0v-3.51l-.08-.09h-4.84a.09.09,0,0,0-.09.09v18.49c0,3.7,2.3,6.39,5.48,6.39h3.46a.09.09,0,0,0,.09-.09v-2.88a.09.09,0,0,0-.09-.09H592c-.55,0-1.81,0-1.81-2.76V508.28l0,0h5.22l.09-.08V505.3a.09.09,0,0,0-.09-.09" transform="translate(-378.51 -487.09)"/><path d="M603.4,505.22h-4.83a.09.09,0,0,0-.09.09v21.17l.09.09h4.83a.09.09,0,0,0,.09-.09V505.3a.09.09,0,0,0-.09-.09" transform="translate(-378.51 -487.09)"/><path d="M603.4,498.52h-4.83l-.09.08v4a.09.09,0,0,0,.09.09h4.83a.08.08,0,0,0,.09-.09v-4a.09.09,0,0,0-.09-.08" transform="translate(-378.51 -487.09)"/><path d="M636.8,505.22h-8.61a.09.09,0,0,0-.08.09v21.17l.08.09H633l.08-.09V508.3l0,0h3.67a2.91,2.91,0,0,1,2.78,1.31c.64,1,.93,2.86.93,5.73,0,.12,0,11.17,0,11.17a.09.09,0,0,0,.09.09h4.81a.09.09,0,0,0,.09-.09V515.86c0-5-1-10.64-8.69-10.64" transform="translate(-378.51 -487.09)"/><path d="M618.86,522.09a4,4,0,0,1-6.12,0c-.69-1.13-1-3.1-1-6.21v0c0-3.67.45-5.76,1.46-6.75a4.47,4.47,0,0,1,5.23,0c1,1,1.45,3.09,1.45,6.78,0,3.11-.32,5.09-1,6.21m-3.06-16.87c-8.06,0-9.09,5.69-9.09,10.67s1,10.69,9.09,10.69,9.09-5.71,9.09-10.69-1-10.67-9.09-10.67" transform="translate(-378.51 -487.09)"/><path d="M509.52,505.22l-.06.08,7.16,21a.34.34,0,0,1,0,.17l-4,10.38s0,.09.05.09h4.2a.14.14,0,0,0,.12-.09l12.57-31.52c0-.05,0-.08-.05-.08H524.9a.13.13,0,0,0-.12.08l-5.32,13.78h-.06l-4.7-13.78a.12.12,0,0,0-.11-.08" transform="translate(-378.51 -487.09)"/></svg>