<?xml version="1.0" encoding="UTF-8" standalone="no"?>
<!-- Created with Inkscape (http://www.inkscape.org/) -->

<svg
   width="100"
   height="100"
   viewBox="0 0 100 100"
   version="1.1"
   id="svg1"
   xml:space="preserve"
   xmlns="http://www.w3.org/2000/svg"
   xmlns:svg="http://www.w3.org/2000/svg"><defs
     id="defs1" /><g
     id="layer1"><g
       id="g1"
       transform="matrix(0.76335873,0,0,0.76335873,2.9719138e-7,40.351909)"><path
         d="M 0,-0.034 V 18.288 H 2.86 V 1.722 h 2.648 c 0,0 1.923,0 2.582,0.86 0.56,0.731 0.662,2.057 0.662,2.952 0,0.958 -0.06,2.438 -0.382,2.98 C 7.882,9.342 7.081,9.508 6.349,9.508 H 4.6 v 1.626 h 2.513 c 0,0 2.268,0.095 3.243,-0.896 1.196,-1.216 1.5,-2.85 1.5,-5.037 0,-1.987 -0.722,-3.992 -2.195,-4.673 -1.22,-0.561 -3.42,-0.561 -3.42,-0.561 z M 14.104,18.29 h 2.86 V -0.033 h -2.86 z M 32.18,4.24 l 5.233,13.714 -3.004,7.358 h 2.374 L 45.434,4.24 h -2.65 L 39.015,14.51 35.509,4.24 Z m 15.408,13.94 v -1.732 c 0,0 3.025,0.119 3.655,0.119 1.395,0 2.092,-0.298 2.617,-0.86 0.31,-0.338 0.59,-1.833 0.59,-2.365 0,-0.531 -0.103,-1.679 -0.31,-2.149 -0.215,-0.46 -0.702,-0.89 -1.433,-0.953 -0.52,-0.044 -1.327,-0.15 -2.268,-0.193 A 3.65,3.65 0 0 1 47.824,8.8 C 47.407,8.304 46.849,7.557 46.849,5.273 c 0,-2.288 0.592,-3.57 1.185,-4.165 0.593,-0.598 1.461,-0.86 2.128,-0.978 0.767,-0.131 2.02,-0.14 2.02,-0.14 l 4.004,0.117 V 1.84 c 0,0 -2.92,-0.117 -3.547,-0.117 -1.396,0 -1.815,0.3 -2.338,0.86 -0.309,0.334 -0.55,1.258 -0.55,1.788 0,0.532 0.062,1.606 0.272,2.071 0.208,0.461 0.697,0.893 1.43,0.958 0.519,0.04 1.326,0.146 2.266,0.189 1.327,0.062 2.198,0.75 2.614,1.247 0.421,0.497 0.98,1.545 0.98,3.827 0,2.288 -0.596,3.922 -1.186,4.519 -0.595,0.594 -1.461,0.86 -2.128,0.975 -0.77,0.132 -2.022,0.142 -2.022,0.142 z M 63.194,1.722 h -2.859 v 13.45 c 0,0 0.069,1.228 0.14,1.66 0.07,0.432 0.698,1.457 2.336,1.457 l 2.963,-0.058 v -1.725 c 0,0 -0.803,0.058 -1.287,0.058 -0.49,0 -1.086,-0.033 -1.186,-0.862 -0.108,-0.828 -0.108,-1.818 -0.108,-1.818 v -7.92 h 3.23 V 4.24 h -3.23 z M 90.795,18.29 h 2.859 V 4.24 h -2.859 z m 0,-15.772 h 2.859 v -2.55 H 90.795 Z M 102.69,4.12 c 1.946,0 3.455,0.435 4.266,1.09 0.818,0.658 1.823,2.044 1.823,6.055 0,4.011 -1.005,5.396 -1.823,6.055 -0.811,0.655 -2.32,1.093 -4.266,1.093 -1.95,0 -3.454,-0.438 -4.27,-1.093 -0.817,-0.66 -1.818,-2.044 -1.818,-6.055 0,-4.011 1,-5.398 1.818,-6.055 0.817,-0.655 2.32,-1.09 4.27,-1.09 m -1.96,2.694 c -0.394,0.485 -0.873,1.503 -0.873,4.451 0,2.948 0.48,3.967 0.873,4.45 0.392,0.48 1.114,0.804 2.05,0.804 0.936,0 1.656,-0.325 2.052,-0.804 0.392,-0.483 0.871,-1.504 0.871,-4.45 0,-2.948 -0.479,-3.967 -0.87,-4.45 -0.397,-0.482 -1.117,-0.804 -2.054,-0.804 -0.935,0 -1.657,0.322 -2.05,0.803 m 13.974,-0.601 2.804,-0.118 c 0.734,0 1.598,0.198 2.017,0.729 0.39,0.5 0.636,1.096 0.636,2.057 v 9.392 h 2.863 V 8.645 c 0,-1.821 -0.56,-2.88 -1.402,-3.545 -1.2,-0.95 -3.348,-0.86 -3.348,-0.86 l -6.406,0.115 v 13.918 h 2.836 z M 85.1,1.722 h -2.86 v 13.45 c 0,0 0.067,1.228 0.136,1.66 0.072,0.432 0.695,1.457 2.34,1.457 l 2.963,-0.058 v -1.725 c 0,0 -0.804,0.058 -1.29,0.058 -0.486,0 -1.082,-0.033 -1.187,-0.862 C 85.1,14.874 85.1,13.884 85.1,13.884 v -7.92 h 3.222 V 4.24 H 85.1 Z M 27.817,8.882 C 27.817,7.92 27.573,7.324 27.179,6.824 26.76,6.293 25.901,6.094 25.165,6.094 L 21.393,6.213 V 4.355 l 4.54,-0.115 c 0,0 2.148,-0.091 3.349,0.86 0.837,0.666 1.394,1.724 1.394,3.545 v 9.493 l -5.48,0.119 c 0,0 -2.482,0.008 -3.732,-0.497 -1.219,-0.496 -1.884,-1.857 -1.884,-3.745 0,-1.823 0.558,-2.881 1.396,-3.546 1.2,-0.953 3.348,-0.859 3.348,-0.859 h 1.75 v 1.619 h -0.981 c -0.736,0 -1.491,0.135 -1.912,0.666 -0.392,0.496 -0.602,0.926 -0.602,1.887 0,1.261 0.245,1.824 0.838,2.252 0.525,0.382 1.463,0.465 2.51,0.465 l 1.89,-0.115 z m 48.224,0 c 0,-0.962 -0.24,-1.558 -0.633,-2.058 -0.424,-0.531 -1.284,-0.73 -2.014,-0.73 l -3.77,0.119 V 4.355 L 74.16,4.24 c 0,0 2.147,-0.091 3.346,0.86 0.838,0.666 1.397,1.724 1.397,3.545 v 9.493 l -5.48,0.119 c 0,0 -2.485,0.008 -3.732,-0.497 -1.22,-0.496 -1.887,-1.857 -1.887,-3.745 0,-1.823 0.563,-2.881 1.396,-3.546 1.2,-0.953 3.351,-0.859 3.351,-0.859 h 1.75 v 1.619 h -0.984 c -0.73,0 -1.491,0.135 -1.907,0.666 -0.394,0.496 -0.605,0.926 -0.605,1.887 0,1.261 0.247,1.824 0.838,2.252 0.523,0.382 1.466,0.465 2.513,0.465 l 1.885,-0.115 z m 52.165,9.522 a 2.787,2.787 0 0 0 2.794,-2.792 2.78,2.78 0 0 0 -0.818,-1.976 2.78,2.78 0 0 0 -1.976,-0.815 2.8,2.8 0 0 0 -2.791,2.791 c 0,0.745 0.288,1.447 0.82,1.976 a 2.78,2.78 0 0 0 1.971,0.816 m -2.322,-2.792 c 0,-0.62 0.244,-1.204 0.68,-1.642 a 2.32,2.32 0 0 1 1.642,-0.682 c 0.62,0 1.206,0.244 1.644,0.682 a 2.32,2.32 0 0 1 0.681,1.642 2.327,2.327 0 0 1 -2.325,2.325 2.32,2.32 0 0 1 -1.641,-0.681 2.32,2.32 0 0 1 -0.682,-1.644"
         style="display:inline;stroke-width:0.400828"
         id="path1" /><path
         d="m 129.585,16.909 c -0.042,-0.016 -0.074,-0.064 -0.092,-0.136 a 1,1 0 0 1 -0.026,-0.235 l -0.013,-0.401 c -0.006,-0.189 -0.047,-0.323 -0.114,-0.413 a 0.6,0.6 0 0 0 -0.184,-0.153 0.8,0.8 0 0 0 0.235,-0.227 0.9,0.9 0 0 0 0.12,-0.475 c 0,-0.368 -0.155,-0.627 -0.457,-0.763 a 1.4,1.4 0 0 0 -0.59,-0.104 h -1.444 v 3.108 h 0.537 v -1.274 h 0.85 c 0.153,0 0.268,0.016 0.333,0.045 q 0.166,0.08 0.177,0.333 l 0.023,0.497 c 0.006,0.121 0.013,0.198 0.023,0.243 0.014,0.048 0.022,0.086 0.04,0.118 l 0.022,0.038 h 0.6 v -0.182 z m -0.622,-2.002 q -0.001,0.26 -0.131,0.353 a 0.74,0.74 0 0 1 -0.41,0.103 h -0.865 v -0.879 h 0.918 c 0.123,0 0.226,0.017 0.299,0.053 q 0.19,0.096 0.189,0.37"
         style="stroke-width:0.400828"
         id="path2" /></g></g></svg>
