<?xml version="1.0" encoding="UTF-8" standalone="no"?>
<svg
   id="Layer_1"
   viewBox="0 0 100 31.678697"
   version="1.1"
   width="100"
   height="31.678698"
   xmlns="http://www.w3.org/2000/svg"
   xmlns:svg="http://www.w3.org/2000/svg">
  <defs
     id="defs1">
    <style
       id="style1">.cls-1{fill:#13007c;}</style>
  </defs>
  <g
     id="g3"
     transform="scale(0.28759599)">
    <polygon
       id="polygon5"
       class="cls-1"
       points="0,60 4.23,60 4.23,31.92 108.08,31.92 108.08,0 0,0 0,4.23 104.23,4.23 104.23,27.69 0,27.69 " />
    <polygon
       id="polygon7"
       class="cls-1"
       points="239.24,60 347.71,60 347.71,55.77 243.86,55.77 243.86,31.92 347.71,31.92 347.71,0 239.24,0 239.24,4.23 343.48,4.23 343.48,27.69 239.24,27.69 " />
    <polygon
       id="polygon9"
       class="cls-1"
       points="168.09,4.23 223.09,4.23 223.09,0 163.47,0 163.47,55.77 108.08,55.77 108.08,60 168.09,60 " />
    <path
       id="path15"
       d="m 88.2,80.84 v 21.23 h 3 V 82.68 h 3.23 c 1.38,0 2.54,0.46 3,0.92 0.46,0.69 0.69,1.85 0.69,3.69 0,1.62 0,2.77 -0.23,3.46 -0.46,0.92 -1.62,1.15 -2.77,1.15 h -1.85 v 1.62 h 3 c 1.85,0.46 3,0 3.46,-0.69 1.15,-1.15 1.85,-3.23 1.85,-5.77 0,-2.77 -0.69,-4.62 -2.54,-5.54 L 95.12,80.83 H 88.2 Z" />
    <polygon
       id="polygon17"
       points="107.36,102.07 107.36,80.84 103.9,80.84 103.9,102.07 " />
    <polygon
       id="polygon19"
       points="137.36,85.92 132.74,97.69 129.05,85.92 125.13,85.92 130.9,101.61 127.44,110.15 130.21,110.15 140.59,85.92 " />
    <path
       id="path21"
       d="m 145.21,85.92 0.23,2.31 2.08,1.15 2.31,0.23 c 1.15,0 2.31,0.46 3,1.61 0.69,0.69 1.15,2.31 1.15,4.15 0,2.77 -0.46,4.39 -1.62,5.08 -0.23,0.69 -1.15,1.15 -2.31,1.61 h -7.15 v -2.31 l 4.15,0.23 c 1.16,0 2.31,-0.23 3,-1.15 l 0.46,-2.54 v -2.31 c -0.46,-0.92 -1.15,-1.15 -1.85,-1.15 l -2.77,-0.46 c -1.15,0 -2.31,-0.46 -2.77,-1.16 -0.69,-1.15 -1.15,-2.31 -1.15,-4.15 0,-2.31 0.46,-3.92 1.15,-5.08 l 2.77,-1.15 h 6.46 v 1.84 h -3.69 l -2.77,0.92 -0.69,2.31 v 0 z" />
    <path
       id="path23"
       d="m 160.9,82.69 h -3.46 v 15.93 l 0.46,1.38 c 0,1.15 0.69,2.08 2.54,2.08 h 3.23 V 99.77 L 162.05,100 160.9,98.85 V 87.77 h 3.92 v -1.85 h -3.92 z" />
    <polygon
       id="polygon25"
       points="195.98,102.07 195.98,85.92 192.52,85.92 192.52,102.07 " />
    <polygon
       id="polygon27"
       points="195.98,83.61 195.98,80.84 192.52,80.84 192.52,83.61 " />
    <path
       id="path29"
       d="m 201.29,87.07 c 1.15,-1.15 2.77,-1.62 5.08,-1.62 2.31,0 3.69,0.46 4.62,1.62 1.38,1.15 2.31,3.46 2.31,6.92 0,3.46 -0.92,5.77 -2.31,6.92 -1.15,0.69 -2.77,1.15 -4.62,1.15 -2.31,0 -3.92,-0.46 -5.08,-1.15 -1.15,-1.15 -1.85,-3.46 -1.85,-6.92 0,-3.46 0.69,-5.77 1.85,-6.92 z m 2.77,1.85 c -0.92,0.69 -1.16,2.31 -1.16,5.08 0,2.54 0.23,4.15 1.16,4.85 0.23,0.93 1.15,1.16 2.31,1.16 l 2.31,-1.16 c 0.69,-0.69 1.15,-2.31 1.15,-4.85 0,-2.77 -0.46,-4.38 -1.15,-5.08 -0.46,-0.69 -1.16,-1.16 -2.31,-1.16 -1.15,0 -2.08,0.46 -2.31,1.16 z" />
    <path
       id="path31"
       d="m 216.75,85.92 v 16.15 h 3.46 V 88.22 l 3,-0.46 c 1.15,0 1.85,0.46 2.31,1.16 l 0.69,2.31 v 10.85 h 3.23 V 90.77 c 0,-1.85 -0.46,-3 -1.15,-4.15 -1.16,-0.69 -2.31,-1.16 -4.38,-0.69 h -7.16 z" />
    <path
       id="path33"
       d="m 185.82,82.69 h -3 V 100 c 0.46,1.15 1.15,2.08 2.77,2.08 h 3.46 v -2.31 l -1.62,0.23 -1.62,-1.15 V 87.77 h 3.92 v -1.85 h -3.92 v -3.23 0 z" />
    <path
       id="path35"
       d="m 117.74,85.92 c 2.08,-0.46 3.23,0 3.92,0.69 1.15,1.15 1.62,2.31 1.62,4.15 v 10.85 l -6.23,0.46 -4.15,-0.92 c -1.62,-0.23 -2.31,-1.85 -2.31,-4.15 0,-1.85 0.23,-3 1.38,-3.92 1.15,-0.69 2.31,-1.15 4.38,-1.15 h 1.85 v 2.08 h -1.15 c -1.15,0 -1.85,0.23 -2.31,0.69 l -0.69,1.85 1.15,2.77 2.54,0.46 h 2.31 v -8.54 c 0,-1.15 -0.23,-1.84 -0.69,-2.31 -0.46,-0.69 -1.15,-1.16 -2.31,-1.16 l -4.15,0.46 v -2.31 h 4.85 z" />
    <path
       id="path37"
       d="m 173.59,85.92 c 1.61,-0.46 2.77,0 3.46,0.69 1.15,1.15 1.62,2.31 1.62,4.15 v 10.85 l -6.23,0.46 -4.15,-0.92 c -1.62,-0.23 -2.31,-1.85 -2.31,-4.15 0,-1.85 0.23,-3 1.39,-3.92 1.15,-0.69 2.31,-1.15 4.39,-1.15 h 1.85 v 2.08 h -1.15 l -2.31,0.69 -0.69,1.85 1.15,2.77 3,0.46 h 1.85 v -8.54 c 0,-1.15 -0.23,-1.84 -0.69,-2.31 -0.46,-0.69 -1.15,-1.16 -2.31,-1.16 l -4.15,0.46 v -2.31 h 5.31 z" />
    <path
       id="path39"
       d="m 233.13,101.15 2.31,0.92 2.31,-0.92 0.92,-2.31 -0.92,-2.31 c -0.23,-0.23 -1.15,-0.69 -2.31,-0.69 -1.85,0 -3,1.16 -3,3 z m 0.47,-4.15 1.85,-0.69 2.08,0.69 0.69,1.84 c 0,2.08 -0.69,2.77 -2.77,2.77 l -1.85,-0.69 -0.69,-2.08 z" />
    <path
       id="path41"
       d="m 234.75,99.31 h 1.62 v 1.15 h 0.69 v -1.15 l -0.46,-0.46 v -0.23 h 0.46 V 97.7 l -0.46,-0.69 h -2.31 v 3.46 h 0.46 v -1.15 0 z m 0,-1.62 h 1.62 v 0.92 h -1.62 z" />
    <path
       id="path43"
       d="m 259.45,83.61 c 0,2.54 -0.46,4.15 -1.16,4.85 -0.92,1.15 -2.77,2.08 -5.54,2.08 h -3.69 c -1.15,0 -2.31,0.23 -2.77,1.15 -0.46,0.23 -0.69,1.15 -0.69,3 V 100 h 12.92 v 2.77 h -15 c -1.38,0 -2.31,-0.69 -2.31,-2.31 v -3.92 c 0.46,-3.46 0.92,-5.77 1.62,-6.92 1.16,-1.15 2.77,-1.38 4.62,-1.38 l 1.85,-0.46 2.08,0.46 3,-1.15 0.69,-3.23 -0.69,-3 c -0.69,-0.69 -1.61,-1.15 -2.77,-1.15 h -9.46 V 77.4 l 9.92,-0.46 c 2.77,0 4.62,0.92 5.77,2.08 0.69,1.15 1.16,2.54 1.62,4.61 v 0 z" />
  </g>
</svg>
