<?xml version="1.0" encoding="UTF-8"?><svg id="Layer_1" xmlns="http://www.w3.org/2000/svg" viewBox="0 0 347.71 110.15"><defs><style>.cls-1{fill:#13007c;}</style></defs><g id="g3"><polygon id="polygon5" class="cls-1" points="0 0 0 4.23 104.23 4.23 104.23 27.69 0 27.69 0 60 4.23 60 4.23 31.92 108.08 31.92 108.08 0 0 0"/><polygon id="polygon7" class="cls-1" points="239.24 0 239.24 4.23 343.48 4.23 343.48 27.69 239.24 27.69 239.24 60 347.71 60 347.71 55.77 243.86 55.77 243.86 31.92 347.71 31.92 347.71 0 239.24 0"/><polygon id="polygon9" class="cls-1" points="163.47 0 163.47 55.77 108.08 55.77 108.08 60 168.09 60 168.09 4.23 223.09 4.23 223.09 0 163.47 0"/><path id="path15" d="M88.2,80.84v21.23h3v-19.39h3.23c1.38,0,2.54.46,3,.92.46.69.69,1.85.69,3.69,0,1.62,0,2.77-.23,3.46-.46.92-1.62,1.15-2.77,1.15h-1.85v1.62h3c1.85.46,3,0,3.46-.69,1.15-1.15,1.85-3.23,1.85-5.77,0-2.77-.69-4.62-2.54-5.54l-3.92-.69h-6.92Z"/><polygon id="polygon17" points="103.9 102.07 107.36 102.07 107.36 80.84 103.9 80.84 103.9 102.07"/><polygon id="polygon19" points="125.13 85.92 130.9 101.61 127.44 110.15 130.21 110.15 140.59 85.92 137.36 85.92 132.74 97.69 129.05 85.92 125.13 85.92"/><path id="path21" d="M145.21,85.92l.23,2.31,2.08,1.15,2.31.23c1.15,0,2.31.46,3,1.61.69.69,1.15,2.31,1.15,4.15,0,2.77-.46,4.39-1.62,5.08-.23.69-1.15,1.15-2.31,1.61h-7.15v-2.31l4.15.23c1.16,0,2.31-.23,3-1.15l.46-2.54v-2.31c-.46-.92-1.15-1.15-1.85-1.15l-2.77-.46c-1.15,0-2.31-.46-2.77-1.16-.69-1.15-1.15-2.31-1.15-4.15,0-2.31.46-3.92,1.15-5.08l2.77-1.15h6.46v1.84h-3.69l-2.77.92-.69,2.31h0Z"/><path id="path23" d="M160.9,82.69h-3.46v15.93l.46,1.38c0,1.15.69,2.08,2.54,2.08h3.23v-2.31l-1.62.23-1.15-1.15v-11.08h3.92v-1.85h-3.92v-3.23h0Z"/><polygon id="polygon25" points="192.52 102.07 195.98 102.07 195.98 85.92 192.52 85.92 192.52 102.07"/><polygon id="polygon27" points="192.52 83.61 195.98 83.61 195.98 80.84 192.52 80.84 192.52 83.61"/><path id="path29" d="M201.29,87.07c1.15-1.15,2.77-1.62,5.08-1.62s3.69.46,4.62,1.62c1.38,1.15,2.31,3.46,2.31,6.92s-.92,5.77-2.31,6.92c-1.15.69-2.77,1.15-4.62,1.15-2.31,0-3.92-.46-5.08-1.15-1.15-1.15-1.85-3.46-1.85-6.92s.69-5.77,1.85-6.92h0ZM204.06,88.92c-.92.69-1.16,2.31-1.16,5.08,0,2.54.23,4.15,1.16,4.85.23.93,1.15,1.16,2.31,1.16l2.31-1.16c.69-.69,1.15-2.31,1.15-4.85,0-2.77-.46-4.38-1.15-5.08-.46-.69-1.16-1.16-2.31-1.16s-2.08.46-2.31,1.16h0Z"/><path id="path31" d="M216.75,85.92v16.15h3.46v-13.85l3-.46c1.15,0,1.85.46,2.31,1.16l.69,2.31v10.85h3.23v-11.31c0-1.85-.46-3-1.15-4.15-1.16-.69-2.31-1.16-4.38-.69h-7.16Z"/><path id="path33" d="M185.82,82.69h-3v17.31c.46,1.15,1.15,2.08,2.77,2.08h3.46v-2.31l-1.62.23-1.62-1.15v-11.08h3.92v-1.85h-3.92v-3.23h0Z"/><path id="path35" d="M117.74,85.92c2.08-.46,3.23,0,3.92.69,1.15,1.15,1.62,2.31,1.62,4.15v10.85l-6.23.46-4.15-.92c-1.62-.23-2.31-1.85-2.31-4.15,0-1.85.23-3,1.38-3.92,1.15-.69,2.31-1.15,4.38-1.15h1.85v2.08h-1.15c-1.15,0-1.85.23-2.31.69l-.69,1.85,1.15,2.77,2.54.46h2.31v-8.54c0-1.15-.23-1.84-.69-2.31-.46-.69-1.15-1.16-2.31-1.16l-4.15.46v-2.31h4.85Z"/><path id="path37" d="M173.59,85.92c1.61-.46,2.77,0,3.46.69,1.15,1.15,1.62,2.31,1.62,4.15v10.85l-6.23.46-4.15-.92c-1.62-.23-2.31-1.85-2.31-4.15,0-1.85.23-3,1.39-3.92,1.15-.69,2.31-1.15,4.39-1.15h1.85v2.08h-1.15l-2.31.69-.69,1.85,1.15,2.77,3,.46h1.85v-8.54c0-1.15-.23-1.84-.69-2.31-.46-.69-1.15-1.16-2.31-1.16l-4.15.46v-2.31h5.31Z"/><path id="path39" d="M233.13,101.15l2.31.92,2.31-.92.92-2.31-.92-2.31c-.23-.23-1.15-.69-2.31-.69-1.85,0-3,1.16-3,3l.69,2.31h0ZM233.6,97l1.85-.69,2.08.69.69,1.84c0,2.08-.69,2.77-2.77,2.77l-1.85-.69-.69-2.08.69-1.84h0Z"/><path id="path41" d="M234.75,99.31h1.62v1.15h.69v-1.15l-.46-.46v-.23h.46v-.92l-.46-.69h-2.31v3.46h.46v-1.15h0ZM234.75,97.69h1.62v.92h-1.62v-.92h0Z"/><path id="path43" d="M259.45,83.61c0,2.54-.46,4.15-1.16,4.85-.92,1.15-2.77,2.08-5.54,2.08h-3.69c-1.15,0-2.31.23-2.77,1.15-.46.23-.69,1.15-.69,3v5.31h12.92v2.77h-15c-1.38,0-2.31-.69-2.31-2.31v-3.92c.46-3.46.92-5.77,1.62-6.92,1.16-1.15,2.77-1.38,4.62-1.38l1.85-.46,2.08.46,3-1.15.69-3.23-.69-3c-.69-.69-1.61-1.15-2.77-1.15h-9.46v-2.31l9.92-.46c2.77,0,4.62.92,5.77,2.08.69,1.15,1.16,2.54,1.62,4.61h0Z"/></g></svg>