<?xml version="1.0" encoding="UTF-8" standalone="no"?>
<svg
   id="Layer_1"
   viewBox="0 0 99.999998 21.349958"
   version="1.1"
   width="100"
   height="21.349957"
   xmlns="http://www.w3.org/2000/svg"
   xmlns:svg="http://www.w3.org/2000/svg">
  <defs
     id="defs3" />
  <path
     d="M 64.011753,2.5622559e-7 H 50.894942 C 46.848249,2.5622559e-7 44.866196,2.4998018 44.866196,5.7460497 v 9.8610333 c 0,2.013818 -0.951323,3.460653 -2.958787,3.460653 H 30.434368 c -0.081,0 -0.147701,0.0667 -0.147701,0.142937 v 1.989994 c 0,0.081 0.0667,0.149289 0.147701,0.149289 h 12.98658 c 4.043516,0 6.031923,-2.488684 6.031923,-5.73652 V 5.7460497 c 0,-2.0154054 0.943381,-3.4654173 2.963551,-3.4654173 h 11.596919 c 0.09053,0 0.161995,-0.065116 0.161995,-0.1461129 V 0.14770136 C 64.173747,0.06988035 64.102279,2.5622559e-7 64.011753,2.5622559e-7 Z"
     id="path1"
     style="stroke-width:0.158818" />
  <path
     d="M 25.399825,2.5622559e-7 H 0.15881839 C 0.06670372,2.5622559e-7 0,0.06988035 0,0.14770136 V 2.1345195 c 0,0.080997 0.06670372,0.1492893 0.15881839,0.1492893 H 23.881521 c 2.005877,0 2.957199,1.4452473 2.957199,3.4622409 0,2.0169936 -0.951322,3.4511236 -2.957199,3.4511236 H 5.1139522 C 2.1996347,9.1955851 0,11.644564 0,14.892401 v 6.303501 c 0,0.08576 0.06670372,0.154054 0.15881839,0.154054 H 4.4357977 c 0.084174,0 0.1540538,-0.06829 0.1540538,-0.154054 v -6.303501 c 0,-2.0027 1.1514333,-3.416184 2.8206146,-3.416184 H 25.401413 c 4.037164,0 6.017629,-2.480743 6.017629,-5.7285791 C 31.419042,2.4998018 29.436989,2.5622559e-7 25.399825,2.5622559e-7 Z"
     id="path2"
     style="stroke-width:0.158818" />
  <path
     d="m 98.118002,10.407369 c -0.05718,-0.06353 -0.05718,-0.171524 0,-0.233463 1.257842,-1.0418482 1.88041,-2.6109739 1.88041,-4.4262681 C 99.998412,2.5045663 98.022711,2.5622559e-7 93.972842,2.5622559e-7 H 68.738188 c -0.08576,0 -0.149289,0.0698800937744 -0.149289,0.15405384377441 v 1.9804654 c 0,0.080997 0.06353,0.1492893 0.149289,0.1492893 h 23.719527 c 1.999523,0 2.965139,1.4452473 2.965139,3.4622409 0,2.0169936 -0.957675,3.4511236 -2.965139,3.4511236 h -0.02859 l -23.689351,0.00476 c -0.08576,0 -0.149289,0.061939 -0.149289,0.1524656 V 11.33328 c 0,0.07941 0.06353,0.142937 0.149289,0.142937 h 23.719527 c 2.615739,0.03017 2.960375,2.577622 2.960375,3.881521 l 0.0048,0.244581 c 0,2.018582 -0.965616,3.47177 -2.965139,3.47177 H 68.739776 c -0.08576,0 -0.149289,0.06194 -0.149289,0.142936 v 1.983642 c 0,0.081 0.06353,0.149289 0.149289,0.149289 H 93.97443 c 4.053046,0 6.02557,-2.690383 6.02557,-5.747637 v -0.244581 c 0,-1.948701 -0.622568,-3.811641 -1.88041,-4.948781 z"
     id="path3"
     style="stroke-width:0.158818" />
</svg>
