<?xml version="1.0" encoding="UTF-8" standalone="no"?>
<svg
   id="Layer_1"
   data-name="Layer 1"
   viewBox="0 0 99.999999 20.814523"
   version="1.1"
   width="100"
   height="20.814522"
   xmlns="http://www.w3.org/2000/svg"
   xmlns:svg="http://www.w3.org/2000/svg"
   xmlns:rdf="http://www.w3.org/1999/02/22-rdf-syntax-ns#"
   xmlns:cc="http://creativecommons.org/ns#"
   xmlns:dc="http://purl.org/dc/elements/1.1/">
  <defs
     id="defs1" />
  <title
     id="title1">PlayStation 4 logo - Brandlogos.net</title>
  <g
     id="_Group_"
     data-name="&lt;Group&gt;"
     transform="matrix(0.14989574,0,0,0.14989574,5.4274841e-5,-3.3342461e-7)">
    <g
       id="_Group_2"
       data-name="&lt;Group&gt;">
      <polyline
         id="_Path_"
         data-name="&lt;Path&gt;"
         points="652.52 109.93 649.35 109.93 649.35 108.84 656.89 108.84 656.89 109.93 653.75 109.93 653.75 118.46 652.52 118.46"
         style="fill:#333333" />
      <polyline
         id="_Path_2"
         data-name="&lt;Path&gt;"
         points="661.99 118.46 659.38 110.65 659.38 118.46 658.12 118.46 658.12 108.84 659.86 108.84 662.62 117.02 665.39 108.84 667.13 108.84 667.13 118.46 665.87 118.46 665.87 110.65 663.24 118.46"
         style="fill:#333333" />
      <path
         id="_Path_3"
         data-name="&lt;Path&gt;"
         d="m 557.32,347.44 h -56 c -16.23,0 -24.17,10 -24.17,23 V 410 c 0,8.05 -3.82,13.86 -11.89,13.86 h -52.6 a 0.6,0.6 0 0 0 -0.6,0.6 v 7.95 a 0.61,0.61 0 0 0 0.6,0.61 h 58.67 c 16.23,0 24.18,-10 24.18,-23 v -39.6 c 0,-8.06 3.83,-13.87 11.89,-13.87 h 49.88 a 0.59,0.59 0 0 0 0.59,-0.6 V 348 a 0.6,0.6 0 0 0 -0.59,-0.6"
         transform="translate(-50.44,-314.57)"
         style="fill:#333333" />
      <path
         id="_Path_4"
         data-name="&lt;Path&gt;"
         d="M 392,347.46 H 290.77 a 0.6,0.6 0 0 0 -0.6,0.6 V 356 a 0.61,0.61 0 0 0 0.61,0.6 h 95.15 c 8.06,0 11.89,5.81 11.89,13.87 0,8.06 -3.82,13.85 -11.89,13.85 h -75.27 c -11.68,0 -20.49,9.82 -20.49,22.84 v 25.28 a 0.6,0.6 0 0 0 0.6,0.61 h 17.16 a 0.61,0.61 0 0 0 0.61,-0.61 v -25.27 c 0,-8.06 4.64,-13.69 11.31,-13.69 H 392 c 16.23,0 24.18,-10 24.18,-23 0,-13 -7.95,-23 -24.18,-23"
         transform="translate(-50.44,-314.57)"
         style="fill:#333333" />
      <path
         id="_Compound_Path_"
         data-name="&lt;Compound Path&gt;"
         d="M 690.15,414.76 H 672.37 673 a 0.61,0.61 0 0 1 -0.62,-0.6 v -57.6 c 0,-8.85 -6.12,-11.75 -14.72,-6.44 l -103.18,63.36 c -4.05,2.49 -5.42,5.31 -4.44,7.38 0.85,1.8 3.08,3 7.54,3 h 95.82 a 0.61,0.61 0 0 1 0.54,0.45 v 8.08 a 0.62,0.62 0 0 0 0.6,0.62 h 17.23 a 0.63,0.63 0 0 0 0.61,-0.62 v -7.92 a 0.61,0.61 0 0 1 0.6,-0.62 h 17.17 a 0.62,0.62 0 0 0 0.62,-0.61 v -7.94 a 0.61,0.61 0 0 0 -0.62,-0.59 M 654,414.12 a 0.62,0.62 0 0 1 -0.6,0.62 H 573 c -0.65,0 -1,-0.16 -1.09,-0.41 -0.09,-0.25 0.12,-0.64 0.59,-1 l 79.94,-49.21 c 0.55,-0.34 1.49,-0.28 1.49,0.81 z"
         transform="translate(-50.44,-314.57)"
         style="fill:#333333" />
      <path
         id="_Path_5"
         data-name="&lt;Path&gt;"
         d="M 117.73,314.57 V 444.12 L 147,453.43 V 344.76 c 0,-5.08 2.27,-8.49 5.93,-7.3 4.79,1.32 5.72,6 5.72,11.1 V 392 c 18.28,8.82 32.66,0 32.66,-23.29 0,-23.9 -8.41,-34.5 -33.24,-43 -9.77,-3.27 -27.92,-8.75 -40.39,-11.05"
         transform="translate(-50.44,-314.57)"
         style="fill:#333333" />
      <path
         id="_Path_6"
         data-name="&lt;Path&gt;"
         d="m 152.6,434.51 47.16,-16.81 c 5.34,-1.91 6.17,-4.63 1.83,-6.05 -4.34,-1.42 -12.21,-1 -17.55,0.9 L 152.6,423.62 V 406 l 1.81,-0.61 a 107.62,107.62 0 0 1 21.84,-4.64 c 12.77,-1.39 28.41,0.18 40.67,4.85 13.84,4.38 15.39,10.81 11.88,15.23 -3.51,4.42 -12.13,7.61 -12.13,7.61 l -64.08,23"
         transform="translate(-50.44,-314.57)"
         style="fill:#333333" />
    </g>
    <g
       id="_Group_3"
       data-name="&lt;Group&gt;">
      <path
         id="_Path_7"
         data-name="&lt;Path&gt;"
         d="m 63.95,432.71 c -14.19,-4 -16.56,-12.31 -10.1,-17.11 6,-4.44 16.17,-7.77 16.17,-7.77 l 42,-14.93 v 17 L 81.8,420.75 c -5.35,1.91 -6.16,4.63 -1.83,6 4.33,1.37 12.21,1 17.57,-0.9 L 112,420.64 v 15.24 l -2.89,0.47 A 95.13,95.13 0 0 1 63.9,432.72"
         transform="translate(-50.44,-314.57)"
         style="fill:#333333" />
    </g>
    <g
       id="_Group_4"
       data-name="&lt;Group&gt;">
      <path
         id="_Compound_Path_2"
         data-name="&lt;Compound Path&gt;"
         d="m 213.77,446.33 a 5.64,5.64 0 0 1 1.67,-4 5.7,5.7 0 0 1 9.73,4 5.7,5.7 0 0 1 -5.7,5.71 5.71,5.71 0 0 1 -5.71,-5.71 m 5.71,6.87 a 6.87,6.87 0 0 0 0,-13.74 6.88,6.88 0 0 0 -6.86,6.88 6.87,6.87 0 0 0 6.86,6.87"
         transform="translate(-50.44,-314.57)"
         style="fill:#333333" />
      <path
         id="_Compound_Path_3"
         data-name="&lt;Compound Path&gt;"
         d="m 221.33,444.61 a 1,1 0 0 1 -0.33,0.88 1.86,1.86 0 0 1 -1,0.23 h -2.12 v -2.16 h 2.25 a 1.63,1.63 0 0 1 0.74,0.14 0.92,0.92 0 0 1 0.47,0.92 m 1.52,4.92 a 0.5,0.5 0 0 1 -0.24,-0.33 c 0,-0.13 0,-0.31 0,-0.59 v -1 a 1.71,1.71 0 0 0 -0.27,-1 0.47381431,0.47381431 0 1 1 0.12,-0.94 2,2 0 0 0 0.3,-1.17 1.87,1.87 0 0 0 -1.12,-1.87 3.32,3.32 0 0 0 -1.44,-0.26 h -3.56 V 450 h 1.33 v -3.14 H 220 a 2.28,2.28 0 0 1 0.83,0.13 0.85,0.85 0 0 1 0.42,0.82 l 0.07,1.21 c 0,0.28 0,0.49 0,0.6 a 0.81,0.81 0 0 0 0.09,0.29 l 0.05,0.09 h 1.48 v -0.44 h -0.1"
         transform="translate(-50.44,-314.57)"
         style="fill:#333333" />
    </g>
  </g>
  <metadata
     id="metadata1">
    <rdf:RDF>
      <cc:Work
         rdf:about="">
        <dc:title>PlayStation 4 logo - Brandlogos.net</dc:title>
      </cc:Work>
    </rdf:RDF>
  </metadata>
</svg>
