<?xml version="1.0" encoding="UTF-8" standalone="no"?>
<!-- Created with Inkscape (http://www.inkscape.org/) -->

<svg
   width="100"
   height="100"
   viewBox="0 0 100 100"
   version="1.1"
   id="svg1"
   xml:space="preserve"
   xmlns="http://www.w3.org/2000/svg"
   xmlns:svg="http://www.w3.org/2000/svg"><defs
     id="defs1" /><g
     id="layer1"><g
       id="g1"
       transform="matrix(0.49709525,0,0,0.49709525,8.4031753e-4,39.582658)"><path
         fill="none"
         d="M 200.92,9.622 H 72.317 v 26.033 h 128.85 V 9.622 Z m -5.28,22.862 h 2.251 v 0.333 h -0.929 v 2.567 h -0.391 v -2.567 h -0.93 z"
         style="stroke-width:0.399999"
         id="path1" /><path
         d="m 196.57,35.384 h 0.392 v -2.567 h 0.929 v -0.333 h -2.25 v 0.333 h 0.929 z"
         style="stroke-width:0.399999"
         id="path2" /><path
         fill="none"
         d="M 200.92,9.622 H 72.317 v 26.033 h 128.85 V 9.622 Z m -2.668,22.862 h 0.541 l 0.84,2.476 0.814,-2.476 h 0.473 v 2.9 h -0.325 v -2.356 l -0.78,2.356 h -0.39 l -0.78,-2.356 v 2.356 h -0.392 z"
         style="stroke-width:0.399999"
         id="path3" /><path
         d="m 198.644,33.028 0.781,2.356 h 0.389 l 0.781,-2.356 v 2.356 h 0.324 v -2.9 h -0.472 l -0.814,2.477 -0.84,-2.477 h -0.54 v 2.9 h 0.391 z m -64.5,-4.59 v -11.99 c 0,-2.446 1.141,-4.198 3.576,-4.198 h 15.019 c 0.091,0 0.18,-0.091 0.18,-0.182 V 9.683 a 0.2,0.2 0 0 0 -0.014,-0.061 h -18.363 c -3.98,0.506 -5.925,3.28 -5.925,6.826 v 11.99 c 0,2.445 -1.174,4.197 -3.576,4.197 h -15.86 c -0.09,0 -0.18,0.06 -0.18,0.18 v 2.387 c 0,0.1 0.06,0.175 0.131,0.2 h 18.008 c 4.693,-0.123 7.004,-3.12 7.004,-6.964 M 72.44,35.402 h 5.273 a 0.21,0.21 0 0 0 0.132,-0.2 v -7.64 c 0,-2.446 1.382,-4.138 3.395,-4.138 h 21.72 c 4.897,0 7.27,-3.02 7.27,-6.976 0,-3.546 -1.942,-6.32 -5.924,-6.826 H 72.343 c -0.009,0.02 -0.024,0.036 -0.024,0.06 v 2.386 q 0,0.182 0.18,0.182 h 28.63 c 2.433,0 3.574,1.752 3.574,4.198 0,2.446 -1.141,4.198 -3.575,4.198 H 78.477 c -3.515,0 -6.158,2.99 -6.158,6.916 v 7.641 c 0,0.098 0.042,0.174 0.122,0.199"
         style="stroke-width:0.399999"
         id="path4" /><path
         fill="none"
         d="m 157.485,29.857 h 24.186 c 0.088,0 0.18,-0.091 0.18,-0.181 v -14.89 c 0,-0.331 -0.3,-0.362 -0.452,-0.24 l -24.062,14.888 c -0.153,0.091 -0.213,0.181 -0.18,0.302 0.027,0.06 0.12,0.12 0.328,0.12"
         id="path5" /><path
         d="m 152.831,32.636 h 28.84 c 0.089,0 0.149,0.06 0.149,0.12 v 2.447 c 0,0.12 0.091,0.18 0.18,0.18 h 5.198 c 0.092,0 0.18,-0.06 0.18,-0.18 v -2.386 c 0,-0.091 0.092,-0.181 0.18,-0.181 h 5.167 c 0.12,0 0.18,-0.091 0.18,-0.181 v -2.417 c 0,-0.09 -0.06,-0.18 -0.18,-0.18 h -5.167 c -0.088,0 -0.18,-0.092 -0.18,-0.182 V 12.25 c 0,-1.422 -0.528,-2.328 -1.417,-2.628 h -1.504 c -0.469,0.12 -0.978,0.336 -1.525,0.664 L 151.87,29.464 c -1.202,0.755 -1.623,1.6 -1.322,2.235 0.24,0.544 0.93,0.937 2.283,0.937 m 4.506,-3.202 24.062,-14.889 c 0.152,-0.12 0.453,-0.09 0.453,0.242 v 14.89 c 0,0.09 -0.092,0.18 -0.18,0.18 h -24.186 c -0.209,0 -0.302,-0.06 -0.33,-0.12 -0.032,-0.122 0.028,-0.212 0.18,-0.303 M 20.148,-0.003 c 2.344,0.437 4.647,1.061 6.94,1.711 1.31,0.381 2.618,0.775 3.917,1.195 2.041,0.65 4.073,1.386 5.921,2.483 0.828,0.503 1.624,1.071 2.303,1.764 a 8.8,8.8 0 0 1 1.782,2.502 c 0.806,1.683 1.082,3.564 1.163,5.412 0.039,1.207 0.036,2.424 -0.19,3.614 -0.186,1.035 -0.52,2.056 -1.073,2.954 -0.489,0.794 -1.168,1.48 -1.993,1.923 a 5.27,5.27 0 0 1 -2.594,0.612 c -1.36,0.014 -2.681,-0.42 -3.902,-0.989 -0.023,-4.06 -0.004,-8.123 -0.01,-12.183 C 32.404,10.26 32.454,9.518 32.305,8.793 32.201,8.231 31.972,7.665 31.531,7.284 31.239,7.02 30.86,6.872 30.479,6.791 a 1.08,1.08 0 0 0 -1.035,0.4 c -0.396,0.495 -0.5,1.153 -0.518,1.769 -0.003,10.872 0.004,21.745 -0.003,32.617 l -8.775,-2.785 q -0.002,-19.397 0,-38.795 M 7.002,27.511 c 3.813,-1.35 7.622,-2.714 11.437,-4.06 0.006,1.498 0,2.995 0.003,4.494 -0.003,0.203 0.01,0.407 -0.015,0.609 -3.015,1.069 -6.025,2.156 -9.037,3.232 -0.418,0.158 -0.846,0.336 -1.168,0.655 -0.15,0.15 -0.272,0.37 -0.19,0.585 0.103,0.252 0.36,0.39 0.598,0.493 0.66,0.27 1.383,0.308 2.087,0.34 0.785,-0.013 1.573,-0.072 2.342,-0.241 0.52,-0.103 1.02,-0.277 1.515,-0.463 1.287,-0.466 2.574,-0.935 3.863,-1.396 0.01,1.266 0.002,2.533 0.004,3.801 -0.004,0.253 0.012,0.508 -0.013,0.76 -1.584,0.285 -3.186,0.477 -4.795,0.503 A 28.6,28.6 0 0 1 4.067,35.382 C 3.057,35.089 2.054,34.7 1.211,34.059 0.747,33.699 0.332,33.249 0.121,32.693 A 1.88,1.88 0 0 1 0.177,31.225 C 0.39,30.772 0.761,30.414 1.17,30.135 2.115,29.482 3.159,28.984 4.216,28.54 5.127,28.152 6.072,27.85 7.002,27.51"
         id="path6" /><path
         d="m 37.683,25.805 c 0.865,-0.1 1.735,-0.123 2.605,-0.155 2.86,0.011 5.735,0.367 8.471,1.225 0.537,0.163 1.057,0.375 1.592,0.545 0.953,0.348 1.908,0.77 2.67,1.456 0.46,0.418 0.855,0.982 0.86,1.625 0.027,0.524 -0.21,1.027 -0.55,1.413 -0.646,0.724 -1.5,1.223 -2.358,1.657 -0.913,0.466 -1.895,0.766 -2.852,1.12 q -8.768,3.148 -17.534,6.298 l -0.001,-4.91 c 0.008,-0.065 -0.027,-0.18 0.065,-0.196 q 6.67,-2.375 13.34,-4.756 c 0.6,-0.225 1.249,-0.387 1.759,-0.795 0.208,-0.164 0.413,-0.425 0.31,-0.706 -0.106,-0.246 -0.362,-0.382 -0.596,-0.484 -0.666,-0.264 -1.39,-0.315 -2.099,-0.335 -1.108,0.008 -2.226,0.144 -3.28,0.5 -3.168,1.11 -6.33,2.233 -9.498,3.34 v -5.273 c 2.292,-0.804 4.686,-1.292 7.096,-1.569 m 12.993,12.11 a 2.012,2.012 0 0 1 2.044,2.858 c -0.322,0.686 -1.06,1.166 -1.824,1.142 -0.702,0.015 -1.383,-0.394 -1.73,-1 a 2.02,2.02 0 0 1 -0.107,-1.786 2.03,2.03 0 0 1 1.617,-1.214 m -0.15,0.37 a 1.66,1.66 0 0 0 -0.97,0.645 1.67,1.67 0 0 0 -0.278,1.341 1.67,1.67 0 0 0 0.724,1.044 1.68,1.68 0 0 0 1.885,-0.056 1.67,1.67 0 0 0 0.626,-1.794 1.7,1.7 0 0 0 -0.828,-1.032 1.68,1.68 0 0 0 -1.16,-0.148"
         id="path7" /><path
         d="m 50.047,38.755 q 0.54,-0.002 1.083,0 c 0.204,0.002 0.428,0.05 0.573,0.206 0.145,0.164 0.157,0.404 0.117,0.61 -0.022,0.135 -0.142,0.216 -0.229,0.31 0.075,0.068 0.172,0.13 0.19,0.24 0.042,0.208 -0.002,0.426 0.065,0.63 a 0.5,0.5 0 0 1 0.088,0.231 c -0.15,0.005 -0.3,0.002 -0.449,0.004 -0.1,-0.237 -0.025,-0.504 -0.088,-0.748 -0.025,-0.1 -0.128,-0.162 -0.226,-0.159 -0.244,-0.01 -0.49,-0.003 -0.732,-0.003 -0.004,0.303 0.008,0.607 -0.008,0.91 a 9,9 0 0 0 -0.382,0 c -0.007,-0.744 -0.002,-1.487 -0.002,-2.23 m 0.39,0.354 v 0.616 q 0.328,0.004 0.656,10e-4 c 0.109,0 0.235,-0.02 0.305,-0.113 a 0.39,0.39 0 0 0 0.006,-0.392 C 51.348,39.128 51.229,39.119 51.131,39.112 50.9,39.106 50.669,39.11 50.438,39.11"
         id="path8" /></g></g></svg>
