<svg id="Layer_1" data-name="Layer 1" xmlns="http://www.w3.org/2000/svg" viewBox="0 0 667.13 138.87"><title>PlayStation 4 logo - Brandlogos.net</title><g id="_Group_" data-name="&lt;Group&gt;"><g id="_Group_2" data-name="&lt;Group&gt;"><polyline id="_Path_" data-name="&lt;Path&gt;" points="652.52 109.93 649.35 109.93 649.35 108.84 656.89 108.84 656.89 109.93 653.75 109.93 653.75 118.46 652.52 118.46" style="fill:#333"/><polyline id="_Path_2" data-name="&lt;Path&gt;" points="661.99 118.46 659.38 110.65 659.38 118.46 658.12 118.46 658.12 108.84 659.86 108.84 662.62 117.02 665.39 108.84 667.13 108.84 667.13 118.46 665.87 118.46 665.87 110.65 663.24 118.46" style="fill:#333"/><path id="_Path_3" data-name="&lt;Path&gt;" d="M557.32,347.44h-56c-16.23,0-24.17,10-24.17,23V410c0,8.05-3.82,13.86-11.89,13.86h-52.6a.6.6,0,0,0-.6.6v7.95a.61.61,0,0,0,.6.61h58.67c16.23,0,24.18-10,24.18-23v-39.6c0-8.06,3.83-13.87,11.89-13.87h49.88a.59.59,0,0,0,.59-.6V348a.6.6,0,0,0-.59-.6" transform="translate(-50.44 -314.57)" style="fill:#333"/><path id="_Path_4" data-name="&lt;Path&gt;" d="M392,347.46H290.77a.6.6,0,0,0-.6.6V356a.61.61,0,0,0,.61.6h95.15c8.06,0,11.89,5.81,11.89,13.87s-3.82,13.85-11.89,13.85H310.66c-11.68,0-20.49,9.82-20.49,22.84v25.28a.6.6,0,0,0,.6.61h17.16a.61.61,0,0,0,.61-.61V407.17c0-8.06,4.64-13.69,11.31-13.69H392c16.23,0,24.18-10,24.18-23s-7.95-23-24.18-23" transform="translate(-50.44 -314.57)" style="fill:#333"/><path id="_Compound_Path_" data-name="&lt;Compound Path&gt;" d="M690.15,414.76l-17.78,0H673a.61.61,0,0,1-.62-.6V356.56c0-8.85-6.12-11.75-14.72-6.44L554.48,413.48c-4.05,2.49-5.42,5.31-4.44,7.38.85,1.8,3.08,3,7.54,3h95.82a.61.61,0,0,1,.54.45v8.08a.62.62,0,0,0,.6.62h17.23a.63.63,0,0,0,.61-.62v-7.92a.61.61,0,0,1,.6-.62h17.17a.62.62,0,0,0,.62-.61v-7.94a.61.61,0,0,0-.62-.59M654,414.12a.62.62,0,0,1-.6.62H573c-.65,0-1-.16-1.09-.41s.12-.64.59-1l79.94-49.21c.55-.34,1.49-.28,1.49.81Z" transform="translate(-50.44 -314.57)" style="fill:#333"/><path id="_Path_5" data-name="&lt;Path&gt;" d="M117.73,314.57V444.12L147,453.43V344.76c0-5.08,2.27-8.49,5.93-7.3,4.79,1.32,5.72,6,5.72,11.1V392c18.28,8.82,32.66,0,32.66-23.29,0-23.9-8.41-34.5-33.24-43-9.77-3.27-27.92-8.75-40.39-11.05" transform="translate(-50.44 -314.57)" style="fill:#333"/><path id="_Path_6" data-name="&lt;Path&gt;" d="M152.6,434.51l47.16-16.81c5.34-1.91,6.17-4.63,1.83-6.05s-12.21-1-17.55.9L152.6,423.62V406l1.81-.61a107.62,107.62,0,0,1,21.84-4.64c12.77-1.39,28.41.18,40.67,4.85,13.84,4.38,15.39,10.81,11.88,15.23s-12.13,7.61-12.13,7.61l-64.08,23" transform="translate(-50.44 -314.57)" style="fill:#333"/></g><g id="_Group_3" data-name="&lt;Group&gt;"><path id="_Path_7" data-name="&lt;Path&gt;" d="M63.95,432.71c-14.19-4-16.56-12.31-10.1-17.11,6-4.44,16.17-7.77,16.17-7.77l42-14.93v17L81.8,420.75c-5.35,1.91-6.16,4.63-1.83,6s12.21,1,17.57-.9L112,420.64v15.24l-2.89.47a95.13,95.13,0,0,1-45.21-3.63" transform="translate(-50.44 -314.57)" style="fill:#333"/></g><g id="_Group_4" data-name="&lt;Group&gt;"><path id="_Compound_Path_2" data-name="&lt;Compound Path&gt;" d="M213.77,446.33a5.64,5.64,0,0,1,1.67-4,5.7,5.7,0,0,1,9.73,4,5.7,5.7,0,0,1-5.7,5.71,5.71,5.71,0,0,1-5.71-5.71m5.71,6.87a6.87,6.87,0,0,0,0-13.74,6.88,6.88,0,0,0-6.86,6.88,6.87,6.87,0,0,0,6.86,6.87" transform="translate(-50.44 -314.57)" style="fill:#333"/><path id="_Compound_Path_3" data-name="&lt;Compound Path&gt;" d="M221.33,444.61a1,1,0,0,1-.33.88,1.86,1.86,0,0,1-1,.23h-2.12v-2.16h2.25a1.63,1.63,0,0,1,.74.14.92.92,0,0,1,.47.92m1.52,4.92a.5.5,0,0,1-.24-.33c0-.13,0-.31,0-.59l0-1a1.71,1.71,0,0,0-.27-1,.47.47,0,1,1,.12-.94,2,2,0,0,0,.3-1.17,1.87,1.87,0,0,0-1.12-1.87,3.32,3.32,0,0,0-1.44-.26h-3.56V450h1.33v-3.14H220a2.28,2.28,0,0,1,.83.13.85.85,0,0,1,.42.82l.07,1.21c0,.28,0,.49,0,.6a.81.81,0,0,0,.09.29l.05.09h1.48v-.44l-.1,0" transform="translate(-50.44 -314.57)" style="fill:#333"/></g></g></svg>