<?xml version="1.0" encoding="UTF-8" standalone="no"?>
<svg
   viewBox="0 0 100 22.626899"
   version="1.1"
   id="svg2"
   width="100"
   height="22.6269"
   xmlns="http://www.w3.org/2000/svg"
   xmlns:svg="http://www.w3.org/2000/svg"
   xmlns:rdf="http://www.w3.org/1999/02/22-rdf-syntax-ns#"
   xmlns:cc="http://creativecommons.org/ns#"
   xmlns:dc="http://purl.org/dc/elements/1.1/">
  <defs
     id="defs2" />
  <title
     id="title1">PlayStation 5 logo</title>
  <path
     d="M 2.1862445,19.258396 C -0.10519569,18.60186 -0.49568456,17.250168 0.55134055,16.46919 A 11.156825,11.156825 0 0 1 3.1689033,15.207611 l 6.8056632,-2.433046 v 2.772041 L 5.0741457,17.318825 C 4.2159284,17.636366 4.0743226,18.074056 4.7780608,18.301484 A 5.1493038,5.1493038 0 0 0 7.61876,18.155587 L 9.9659844,17.29737 v 2.480248 l -0.4677285,0.07724 A 15.344925,15.344925 0 0 1 2.1862445,19.258396 Z m 14.3622665,0.287503 7.638134,-2.72484 c 0.858217,-0.31754 0.999823,-0.75094 0.296085,-0.982659 a 5.1493038,5.1493038 0 0 0 -2.840699,0.145897 l -5.114976,1.797966 v -2.862155 l 0.296085,-0.0987 a 17.443267,17.443267 0 0 1 3.535856,-0.75094 15.083169,15.083169 0 0 1 6.586817,0.785269 c 2.239948,0.708029 2.493122,1.755054 1.922407,2.475956 -0.570714,0.720903 -1.965317,1.231542 -1.965317,1.231542 L 16.527055,22.296486 Z M 17.441057,1.8022567 c 4.020748,1.3903121 5.385313,3.1153289 5.385313,7.0116354 0,3.7933199 -2.33006,5.2351249 -5.290909,3.7976109 V 5.535502 c 0,-0.8281797 -0.150188,-1.5919931 -0.926875,-1.8108385 -0.59217,-0.1930989 -0.961203,0.3647424 -0.961203,1.1929221 V 22.626899 L 10.89715,21.112146 V 3.5961914e-7 A 56.00297,56.00297 0 0 1 17.441057,1.8022567 Z"
     id="path1"
     style="stroke-width:0.429109" />
  <path
     d="M 99.460885,4.5142234 H 80.095211 v 5.2522899 c 0,0 -0.06008,2.0253927 2.450211,2.0253927 h 11.839107 a 3.321301,3.321301 0 0 1 1.351693,0.274629 2.1927452,2.1927452 0 0 1 1.403185,2.106924 2.3171867,2.3171867 0 0 1 -1.047025,2.046848 2.630436,2.630436 0 0 1 -1.450387,0.429109 H 80.095211 v 1.471842 h 16.220307 c 0,0 3.681752,-0.150188 3.681752,-3.934926 A 3.471489,3.471489 0 0 0 97.851727,10.839285 4.9476228,4.9476228 0 0 0 95.766259,10.38872 H 84.043011 A 1.1843399,1.1843399 0 0 1 83.480878,10.255697 0.99124099,0.99124099 0 0 1 82.953075,9.3202403 V 5.9774839 H 99.456594 Z M 55.717549,16.636542 v 1.471843 H 63.93927 A 4.0722411,4.0722411 0 0 0 66.621199,17.1386 3.3985405,3.3985405 0 0 0 67.818413,14.469544 V 8.2045578 A 2.2614026,2.2614026 0 0 1 68.67663,6.4151748 2.1069235,2.1069235 0 0 1 70.002576,5.9860661 H 77.16869 V 4.5313878 h -8.547844 c 0,0 -3.681752,0.060075 -3.681752,3.9563818 v 5.8272954 a 2.5403232,2.5403232 0 0 1 -0.373325,1.360274 1.9781909,1.9781909 0 0 1 -1.759345,0.961203 z M 36.738073,4.5142234 v 1.4546784 h 14.649769 a 2.7677508,2.7677508 0 0 1 1.180049,0.2531741 2.0425572,2.0425572 0 0 1 1.231542,1.9696087 2.0168107,2.0168107 0 0 1 -1.231542,1.9309884 2.8192438,2.8192438 0 0 1 -1.201504,0.257465 h -10.86074 a 4.1323163,4.1323163 0 0 0 -1.858041,0.429109 3.5616018,3.5616018 0 0 0 -1.909533,3.282681 v 3.999293 h 2.819244 v -3.982128 a 2.0683037,2.0683037 0 0 1 0.137315,-0.759523 2.2742759,2.2742759 0 0 1 2.197036,-1.553373 H 52.846812 A 3.9778372,3.9778372 0 0 0 53.936748,11.6503 c 1.004114,-0.287503 2.681929,-1.115683 2.681929,-3.4328689 0,-3.6345503 -3.617386,-3.6774612 -3.617386,-3.6774612 z"
     id="path2"
     style="stroke-width:0.429109" />
  <metadata
     id="metadata2">
    <rdf:RDF>
      <cc:Work
         rdf:about="">
        <dc:title>PlayStation 5 logo</dc:title>
      </cc:Work>
    </rdf:RDF>
  </metadata>
</svg>
