<?xml version="1.0" encoding="UTF-8" standalone="no"?>
<!-- Created with Inkscape (http://www.inkscape.org/) -->

<svg
   width="100"
   height="30.67985"
   id="svg4237"
   version="1.0"
   xmlns="http://www.w3.org/2000/svg"
   xmlns:svg="http://www.w3.org/2000/svg"
   xmlns:rdf="http://www.w3.org/1999/02/22-rdf-syntax-ns#"
   xmlns:cc="http://creativecommons.org/ns#"
   xmlns:dc="http://purl.org/dc/elements/1.1/">
  <defs
     id="defs4239">
    <clipPath
       clip-rule="nonzero"
       id="clp2">
      <path
         id="path5264"
         d="M 234.2,0.1382 H 5879.3 V 7919 H 234.2 Z" />
    </clipPath>
    <clipPath
       clip-rule="nonzero"
       id="clp3">
      <path
         id="path5273"
         d="M 234.06,0 H 5879.3 V 7919 H 234.06 Z" />
    </clipPath>
    <clipPath
       clip-rule="nonzero"
       id="clp4">
      <path
         id="path5282"
         d="M 437.5,278.39 H 1028 V 456.94 H 437.5 Z" />
    </clipPath>
    <clipPath
       clip-rule="nonzero"
       id="clp5">
      <path
         id="path5291"
         d="M 234.06,0 H 5879.3 V 7919 H 234.06 Z" />
    </clipPath>
    <clipPath
       clip-rule="nonzero"
       id="clp6">
      <path
         id="path5330"
         d="M 437.5,278.39 H 1028 V 456.94 H 437.5 Z" />
    </clipPath>
    <clipPath
       clip-rule="nonzero"
       id="clp7">
      <path
         id="path5341"
         d="M 234.06,0 H 5879.3 V 7919 H 234.06 Z" />
    </clipPath>
    <clipPath
       clip-rule="nonzero"
       id="clp8">
      <path
         id="path5418"
         d="m 4026.3,282.71 h 699.8 v 170.38 h -699.8 z" />
    </clipPath>
    <clipPath
       clip-rule="nonzero"
       id="clp9">
      <path
         id="path5427"
         d="M 234.06,0 H 5879.3 V 7919 H 234.06 Z" />
    </clipPath>
    <clipPath
       clip-rule="nonzero"
       id="clp10">
      <path
         id="path5476"
         d="M 2444.9,428.65 V 306.69 h 506 v 121.96" />
    </clipPath>
    <clipPath
       clip-rule="nonzero"
       id="clp11">
      <path
         id="path5485"
         d="M 234.06,0 H 5879.3 V 7919 H 234.06 Z" />
    </clipPath>
    <clipPath
       clip-rule="nonzero"
       id="clp12">
      <path
         id="path5496"
         d="M 2444.9,428.65 V 306.69 h 506 v 121.96" />
    </clipPath>
    <clipPath
       clip-rule="nonzero"
       id="clp13">
      <path
         id="path5505"
         d="M 234.06,0 H 5879.3 V 7919 H 234.06 Z" />
    </clipPath>
    <clipPath
       clip-rule="nonzero"
       id="clp14">
      <path
         id="path5514"
         d="M 2444.9,428.65 V 306.69 h 506 v 121.96" />
    </clipPath>
    <clipPath
       clip-rule="nonzero"
       id="clp15">
      <path
         id="path5523"
         d="M 234.06,0 H 5879.3 V 7919 H 234.06 Z" />
    </clipPath>
    <clipPath
       clip-rule="nonzero"
       id="clipPath5767">
      <path
         id="path5769"
         d="M 234.2,0.1382 H 5879.3 V 7919 H 234.2 Z" />
    </clipPath>
    <clipPath
       clip-rule="nonzero"
       id="clipPath5775">
      <path
         id="path5777"
         d="M 234.06,0 H 5879.3 V 7919 H 234.06 Z" />
    </clipPath>
    <clipPath
       clip-rule="nonzero"
       id="clipPath5783">
      <path
         id="path5785"
         d="M 437.5,278.39 H 1028 V 456.94 H 437.5 Z" />
    </clipPath>
    <clipPath
       clip-rule="nonzero"
       id="clipPath5791">
      <path
         id="path5793"
         d="M 234.06,0 H 5879.3 V 7919 H 234.06 Z" />
    </clipPath>
    <clipPath
       clip-rule="nonzero"
       id="clipPath5814">
      <path
         id="path5816"
         d="M 437.5,278.39 H 1028 V 456.94 H 437.5 Z" />
    </clipPath>
    <clipPath
       clip-rule="nonzero"
       id="clipPath5823">
      <path
         id="path5825"
         d="M 234.06,0 H 5879.3 V 7919 H 234.06 Z" />
    </clipPath>
    <clipPath
       clip-rule="nonzero"
       id="clipPath5865">
      <path
         id="path5867"
         d="m 4026.3,282.71 h 699.8 v 170.38 h -699.8 z" />
    </clipPath>
    <clipPath
       clip-rule="nonzero"
       id="clipPath5873">
      <path
         id="path5875"
         d="M 234.06,0 H 5879.3 V 7919 H 234.06 Z" />
    </clipPath>
    <clipPath
       clip-rule="nonzero"
       id="clipPath5901">
      <path
         id="path5903"
         d="M 2444.9,428.65 V 306.69 h 506 v 121.96" />
    </clipPath>
    <clipPath
       clip-rule="nonzero"
       id="clipPath5909">
      <path
         id="path5911"
         d="M 234.06,0 H 5879.3 V 7919 H 234.06 Z" />
    </clipPath>
    <clipPath
       clip-rule="nonzero"
       id="clipPath5918">
      <path
         id="path5920"
         d="M 2444.9,428.65 V 306.69 h 506 v 121.96" />
    </clipPath>
    <clipPath
       clip-rule="nonzero"
       id="clipPath5926">
      <path
         id="path5928"
         d="M 234.06,0 H 5879.3 V 7919 H 234.06 Z" />
    </clipPath>
    <clipPath
       clip-rule="nonzero"
       id="clipPath5934">
      <path
         id="path5936"
         d="M 2444.9,428.65 V 306.69 h 506 v 121.96" />
    </clipPath>
    <clipPath
       clip-rule="nonzero"
       id="clipPath5942">
      <path
         id="path5944"
         d="M 234.06,0 H 5879.3 V 7919 H 234.06 Z" />
    </clipPath>
    <clipPath
       id="clipPath14221"
       clip-rule="nonzero">
      <path
         d="M 234.06,0 H 5879.3 V 7919 H 234.06 Z"
         id="path14223" />
    </clipPath>
    <clipPath
       id="clipPath14217"
       clip-rule="nonzero">
      <path
         d="M 2444.9,428.65 V 306.69 h 506 v 121.96"
         id="path14219" />
    </clipPath>
    <clipPath
       id="clipPath14213"
       clip-rule="nonzero">
      <path
         d="M 234.06,0 H 5879.3 V 7919 H 234.06 Z"
         id="path14215" />
    </clipPath>
    <clipPath
       id="clipPath14209"
       clip-rule="nonzero">
      <path
         d="M 2444.9,428.65 V 306.69 h 506 v 121.96"
         id="path14211" />
    </clipPath>
    <clipPath
       id="clipPath14205"
       clip-rule="nonzero">
      <path
         d="M 234.06,0 H 5879.3 V 7919 H 234.06 Z"
         id="path14207" />
    </clipPath>
    <clipPath
       id="clipPath14201"
       clip-rule="nonzero">
      <path
         d="M 2444.9,428.65 V 306.69 h 506 v 121.96"
         id="path14203" />
    </clipPath>
    <clipPath
       id="clipPath14197"
       clip-rule="nonzero">
      <path
         d="M 234.06,0 H 5879.3 V 7919 H 234.06 Z"
         id="path14199" />
    </clipPath>
    <clipPath
       id="clipPath14193"
       clip-rule="nonzero">
      <path
         d="m 4026.3,282.71 h 699.8 v 170.38 h -699.8 z"
         id="path14195" />
    </clipPath>
    <clipPath
       id="clipPath14189"
       clip-rule="nonzero">
      <path
         d="M 234.06,0 H 5879.3 V 7919 H 234.06 Z"
         id="path14191" />
    </clipPath>
    <clipPath
       id="clipPath14185"
       clip-rule="nonzero">
      <path
         d="M 437.5,278.39 H 1028 V 456.94 H 437.5 Z"
         id="path14187" />
    </clipPath>
    <clipPath
       id="clipPath14181"
       clip-rule="nonzero">
      <path
         d="M 234.06,0 H 5879.3 V 7919 H 234.06 Z"
         id="path14183" />
    </clipPath>
    <clipPath
       id="clipPath14177"
       clip-rule="nonzero">
      <path
         d="M 437.5,278.39 H 1028 V 456.94 H 437.5 Z"
         id="path14179" />
    </clipPath>
    <clipPath
       id="clipPath14173"
       clip-rule="nonzero">
      <path
         d="M 234.06,0 H 5879.3 V 7919 H 234.06 Z"
         id="path14175" />
    </clipPath>
    <clipPath
       id="clipPath14169"
       clip-rule="nonzero">
      <path
         d="M 234.2,0.1382 H 5879.3 V 7919 H 234.2 Z"
         id="path14171" />
    </clipPath>
    <clipPath
       id="clipPath14165"
       clip-rule="nonzero">
      <path
         d="M 234.06,0 H 5879.3 V 7919 H 234.06 Z"
         id="path14167" />
    </clipPath>
    <clipPath
       id="clipPath14161"
       clip-rule="nonzero">
      <path
         d="M 2444.9,428.65 V 306.69 h 506 v 121.96"
         id="path14163" />
    </clipPath>
    <clipPath
       id="clipPath14157"
       clip-rule="nonzero">
      <path
         d="M 234.06,0 H 5879.3 V 7919 H 234.06 Z"
         id="path14159" />
    </clipPath>
    <clipPath
       id="clipPath14153"
       clip-rule="nonzero">
      <path
         d="M 2444.9,428.65 V 306.69 h 506 v 121.96"
         id="path14155" />
    </clipPath>
    <clipPath
       id="clipPath14149"
       clip-rule="nonzero">
      <path
         d="M 234.06,0 H 5879.3 V 7919 H 234.06 Z"
         id="path14151" />
    </clipPath>
    <clipPath
       id="clipPath14145"
       clip-rule="nonzero">
      <path
         d="M 2444.9,428.65 V 306.69 h 506 v 121.96"
         id="path14147" />
    </clipPath>
    <clipPath
       id="clipPath14141"
       clip-rule="nonzero">
      <path
         d="M 234.06,0 H 5879.3 V 7919 H 234.06 Z"
         id="path14143" />
    </clipPath>
    <clipPath
       id="clipPath14137"
       clip-rule="nonzero">
      <path
         d="m 4026.3,282.71 h 699.8 v 170.38 h -699.8 z"
         id="path14139" />
    </clipPath>
    <clipPath
       id="clipPath14133"
       clip-rule="nonzero">
      <path
         d="M 234.06,0 H 5879.3 V 7919 H 234.06 Z"
         id="path14135" />
    </clipPath>
    <clipPath
       id="clipPath14129"
       clip-rule="nonzero">
      <path
         d="M 437.5,278.39 H 1028 V 456.94 H 437.5 Z"
         id="path14131" />
    </clipPath>
    <clipPath
       id="clipPath14125"
       clip-rule="nonzero">
      <path
         d="M 234.06,0 H 5879.3 V 7919 H 234.06 Z"
         id="path14127" />
    </clipPath>
    <clipPath
       id="clipPath14121"
       clip-rule="nonzero">
      <path
         d="M 437.5,278.39 H 1028 V 456.94 H 437.5 Z"
         id="path14123" />
    </clipPath>
    <clipPath
       id="clipPath14117"
       clip-rule="nonzero">
      <path
         d="M 234.06,0 H 5879.3 V 7919 H 234.06 Z"
         id="path14119" />
    </clipPath>
    <clipPath
       id="clipPath14113"
       clip-rule="nonzero">
      <path
         d="M 234.2,0.1382 H 5879.3 V 7919 H 234.2 Z"
         id="path14115" />
    </clipPath>
  </defs>
  <metadata
     id="metadata4242">
    <rdf:RDF>
      <cc:Work
         rdf:about="">
        <dc:format>image/svg+xml</dc:format>
        <dc:type
           rdf:resource="http://purl.org/dc/dcmitype/StillImage" />
      </cc:Work>
    </rdf:RDF>
  </metadata>
  <g
     id="layer1"
     transform="translate(2.3223259,-490.72569)">
    <path
       style="fill:#000000;fill-rule:nonzero;stroke:none;stroke-width:0.132779"
       d="m 14.794363,517.402 c 0.883955,0 1.414334,-0.18002 1.414334,-1.02057 0,-0.62198 -0.385742,-0.95468 -1.269696,-0.95468 h -1.221476 v 1.97525 z m -1.542918,2.59563 v -4.97108 h 1.816134 c 1.285755,0 1.623277,0.64288 1.623277,1.38863 0,1.11058 -0.996466,1.38701 -1.912573,1.38701 h -1.060758 v 2.19544 h -0.46608"
       class="ps02"
       id="path6905" />
    <path
       style="fill:#000000;fill-rule:nonzero;stroke:none;stroke-width:0.132779"
       d="m 17.31766,519.99763 h 0.401801 v -4.97108 H 17.31766 Z"
       class="ps02"
       id="path6907" />
    <path
       style="fill:#000000;fill-rule:nonzero;stroke:none;stroke-width:0.132779"
       d="m 21.094573,518.11881 c -0.353575,0.14465 -0.723236,0.17357 -1.076818,0.2009 -0.626811,0.0482 -1.012531,0.27644 -1.012531,0.7586 0,0.43716 0.38572,0.64288 0.771448,0.64288 0.658958,0 1.317901,-0.31823 1.317901,-1.04308 z m -0.707163,-0.20573 c 0.160724,-0.0145 0.417874,-0.0562 0.546453,-0.11892 0.144637,-0.0611 0.16071,-0.24751 0.16071,-0.37127 0,-0.42109 -0.257143,-0.72484 -0.900027,-0.72484 -0.562518,0 -0.964313,0.18643 -1.044672,0.80681 h -0.417873 c 0.06428,-0.84218 0.691089,-1.18129 1.478618,-1.18129 0.723244,0 1.285755,0.28447 1.285755,1.11218 v 1.94631 c 0,0.32466 0.09643,0.40021 0.433948,0.27645 v 0.32465 c -0.04821,0.0209 -0.192864,0.0691 -0.321443,0.0691 -0.06428,0 -0.112505,-0.006 -0.176784,-0.0209 -0.289296,-0.0402 -0.337522,-0.28286 -0.337522,-0.53198 -0.337502,0.38735 -0.819668,0.59467 -1.333974,0.59467 -0.626798,0 -1.189331,-0.33912 -1.189331,-1.02861 0,-0.59949 0.417875,-0.96593 1.253624,-1.07682 l 0.562518,-0.0755"
       class="ps02"
       id="path6909" />
    <path
       style="fill:#000000;fill-rule:nonzero;stroke:none;stroke-width:0.132779"
       d="m 22.524986,520.96998 c 0.112506,0.0209 0.22501,0.0434 0.337515,0.0434 0.48216,0 0.546439,-0.67824 0.70717,-0.98843 l -1.398259,-3.60335 h 0.46608 l 1.157189,3.07297 1.141104,-3.07297 h 0.45002 l -1.33398,3.52781 c -0.337516,0.89681 -0.562513,1.45613 -1.141111,1.45613 -0.144645,0 -0.273222,-0.0209 -0.385728,-0.0482 V 520.97"
       class="ps02"
       id="path6911" />
    <path
       style="fill:#000000;fill-rule:nonzero;stroke:none;stroke-width:0.132779"
       d="m 26.366191,518.51257 c 0.08036,0.89039 0.658965,1.21505 1.430413,1.21505 0.883954,0 1.253623,-0.48216 1.253623,-1.02861 0,-1.5397 -3.021551,-0.51752 -3.021551,-2.47027 0,-0.69109 0.562533,-1.33237 1.687569,-1.33237 1.108971,0 1.671483,0.67502 1.655411,1.48506 h -0.433934 c 0,-0.76021 -0.594665,-1.08487 -1.221477,-1.08487 -0.964326,0 -1.301827,0.58664 -1.221468,1.09772 0.208936,1.28256 3.037609,0.35842 3.037609,2.28383 0,0.91289 -0.675037,1.4497 -1.816141,1.4497 -1.044684,0 -1.816133,-0.53681 -1.816133,-1.61524 h 0.466079"
       class="ps02"
       id="path6913" />
    <path
       style="fill:#000000;fill-rule:nonzero;stroke:none;stroke-width:0.132779"
       d="m 31.686035,520.01049 c -0.09644,0.0209 -0.273237,0.0836 -0.482171,0.0836 -0.401795,0 -0.626806,-0.18 -0.626806,-0.712 v -2.61652 h -0.514293 v -0.34394 h 0.514293 v -0.99485 h 0.417868 v 0.99485 h 0.658963 v 0.34394 h -0.658963 v 2.45098 c 0,0.3536 0,0.50467 0.353593,0.50467 0.112508,0 0.225011,-0.0209 0.337516,-0.0482 v 0.33752"
       class="ps02"
       id="path6915" />
    <path
       style="fill:#000000;fill-rule:nonzero;stroke:none;stroke-width:0.132779"
       d="m 34.787925,518.11881 c -0.35359,0.14465 -0.707165,0.17357 -1.060758,0.2009 -0.626799,0.0482 -1.012532,0.27644 -1.012532,0.7586 0,0.43716 0.385733,0.64288 0.771462,0.64288 0.658941,0 1.301828,-0.31823 1.301828,-1.04308 z m -0.69109,-0.20573 c 0.144637,-0.0145 0.4018,-0.0562 0.546437,-0.11892 0.128579,-0.0611 0.144653,-0.24751 0.144653,-0.37127 0,-0.42109 -0.241082,-0.72484 -0.883954,-0.72484 -0.578598,0 -0.964328,0.18643 -1.044687,0.80681 H 32.44141 c 0.06429,-0.84218 0.691097,-1.18129 1.462561,-1.18129 0.723231,0 1.301828,0.28447 1.301828,1.11218 v 1.94631 c 0,0.32466 0.08036,0.40021 0.433941,0.27645 v 0.32465 c -0.06429,0.0209 -0.208938,0.0691 -0.321431,0.0691 -0.0643,0 -0.128584,-0.006 -0.192878,-0.0209 -0.273221,-0.0402 -0.321425,-0.28286 -0.321425,-0.53198 -0.353596,0.38735 -0.819676,0.59467 -1.333984,0.59467 -0.626808,0 -1.205395,-0.33912 -1.205395,-1.02861 0,-0.59949 0.417869,-0.96593 1.253603,-1.07682 l 0.578605,-0.0755"
       class="ps02"
       id="path6917" />
    <path
       style="fill:#000000;fill-rule:nonzero;stroke:none;stroke-width:0.132779"
       d="m 37.64875,520.01049 c -0.09645,0.0209 -0.273237,0.0836 -0.482174,0.0836 -0.4018,0 -0.626809,-0.18 -0.626809,-0.712 v -2.61652 h -0.498234 v -0.34394 h 0.498234 v -0.99485 h 0.417871 v 0.99485 h 0.658958 v 0.34394 h -0.658958 v 2.45098 c 0,0.3536 0,0.50467 0.35359,0.50467 0.112511,0 0.225019,-0.0209 0.337522,-0.0482 v 0.33752"
       class="ps02"
       id="path6919" />
    <path
       style="fill:#000000;fill-rule:nonzero;stroke:none;stroke-width:0.132779"
       d="m 38.886279,519.99763 h -0.401795 v -3.57603 h 0.401795 z m -0.433934,-4.35713 v -0.61395 h 0.466088 v 0.61395 h -0.466088"
       class="ps02"
       id="path6921" />
    <path
       style="fill:#000000;fill-rule:nonzero;stroke:none;stroke-width:0.132779"
       d="m 41.32923,516.69805 c -0.867885,0 -1.205402,0.7377 -1.205402,1.51076 0,0.89038 0.417876,1.51238 1.205402,1.51238 0.867894,0 1.221469,-0.74575 1.221469,-1.51238 0,-0.84217 -0.337515,-1.51076 -1.221469,-1.51076 z m -1.655422,1.51076 c 0,-1.04147 0.562525,-1.88524 1.655422,-1.88524 1.125039,0 1.671489,0.83574 1.671489,1.88524 0,1.13308 -0.658958,1.88525 -1.671489,1.88525 -0.900034,-0.0145 -1.655422,-0.63485 -1.655422,-1.88525"
       class="ps02"
       id="path6923" />
    <path
       style="fill:#000000;fill-rule:nonzero;stroke:none;stroke-width:0.132779"
       d="m 43.997186,519.99763 h -0.417874 v -3.57603 h 0.417874 v 0.49663 c 0.321441,-0.35198 0.658945,-0.59466 1.141105,-0.59466 0.45002,0 0.835746,0.13821 1.092903,0.51108 0.176792,0.25716 0.192863,0.52555 0.192863,0.82129 v 2.34169 h -0.417871 v -2.33365 c 0,-0.64128 -0.273226,-0.96593 -0.932184,-0.96593 -0.514303,0 -0.867878,0.33108 -0.996457,0.69591 -0.08036,0.22823 -0.08036,0.42913 -0.08036,0.67824 v 1.92543"
       class="ps02"
       id="path6925" />
    <path
       style="fill:#000000;fill-rule:nonzero;stroke:none;stroke-width:0.132779"
       d="m 48.04733,518.83562 c -0.04822,-0.0225 -0.112508,-0.0338 -0.208937,-0.0338 h -0.128579 v 0.3311 h 0.144659 c 0.06428,0 0.128563,-0.006 0.160708,-0.0193 0.06429,-0.0257 0.09643,-0.0739 0.09643,-0.14466 0,-0.0659 -0.03214,-0.11089 -0.06428,-0.13339 z m -0.176798,-0.14625 c 0.112504,0 0.192863,0.01 0.257157,0.0321 0.09643,0.0402 0.128574,0.11732 0.128574,0.23464 0,0.082 -0.01607,0.14144 -0.08036,0.18002 -0.03214,0.0209 -0.08036,0.0354 -0.128569,0.045 0.06428,0.0113 0.11251,0.0434 0.144643,0.0916 0.03215,0.0498 0.04822,0.098 0.04822,0.14464 v 0.0675 c 0,0.0225 0,0.0466 0.01607,0.0691 0,0.0257 0,0.0418 0,0.0498 v 0.0113 h -0.144649 c 0,-0.003 0,-0.006 0,-0.008 0,-0.003 0,-0.008 0,-0.0129 l -0.01607,-0.0289 v -0.0739 c 0,-0.1093 -0.03214,-0.18001 -0.08036,-0.21377 -0.03214,-0.0209 -0.09643,-0.0305 -0.176788,-0.0305 h -0.128579 v 0.36806 H 47.54911 v -0.92575 z m -0.498233,-0.0482 c -0.144639,0.14143 -0.208938,0.31341 -0.208938,0.51269 0,0.20411 0.0643,0.37609 0.208938,0.51752 0.144649,0.14304 0.305367,0.21376 0.514303,0.21376 0.208938,0 0.369661,-0.0707 0.514309,-0.21376 0.144649,-0.14143 0.208937,-0.31341 0.208937,-0.51752 0,-0.19928 -0.06429,-0.37126 -0.208937,-0.51269 -0.144648,-0.14143 -0.305371,-0.21215 -0.514309,-0.21215 -0.208936,0 -0.369654,0.0707 -0.514303,0.21215 z m 1.10897,1.10896 c -0.160717,0.16395 -0.369655,0.24752 -0.594667,0.24752 -0.225008,0 -0.433932,-0.0836 -0.594662,-0.24752 -0.160713,-0.16393 -0.241072,-0.36322 -0.241072,-0.59627 0,-0.22982 0.08036,-0.42912 0.241072,-0.59145 0.16073,-0.16554 0.369654,-0.2459 0.594662,-0.2459 0.225012,0 0.43395,0.0804 0.594667,0.2459 0.160724,0.16073 0.241083,0.36001 0.241083,0.59145 0,0.23305 -0.08036,0.43234 -0.241083,0.59627"
       class="ps02"
       id="path6927" />
    <path
       style="fill:#000000;fill-rule:nonzero;stroke:none;stroke-width:0.132779"
       d="m 51.551027,517.402 c 0.883952,0 1.430403,-0.18002 1.430403,-1.02057 0,-0.62198 -0.401791,-0.95468 -1.285754,-0.95468 h -1.22147 v 1.97525 z m -1.54292,2.59563 v -4.97108 h 1.816136 c 1.285775,0 1.623275,0.64288 1.623275,1.38863 0,1.11058 -0.980393,1.38701 -1.912566,1.38701 h -1.060746 v 2.19544 h -0.466099"
       class="ps02"
       id="path6929" />
    <path
       style="fill:#000000;fill-rule:nonzero;stroke:none;stroke-width:0.132779"
       d="m 55.295799,516.69805 c -0.867882,0 -1.221469,0.7377 -1.221469,1.51076 0,0.89038 0.433946,1.51238 1.221469,1.51238 0.867885,0 1.221476,-0.74575 1.221476,-1.51238 -0.01607,-0.84217 -0.337517,-1.51076 -1.221476,-1.51076 z m -1.655418,1.51076 c 0,-1.04147 0.546453,-1.88524 1.655418,-1.88524 1.125043,0 1.655422,0.83574 1.655422,1.88524 0,1.13308 -0.658958,1.88525 -1.655422,1.88525 -0.916102,-0.0145 -1.655418,-0.63485 -1.655418,-1.88525"
       class="ps02"
       id="path6931" />
    <path
       style="fill:#000000;fill-rule:nonzero;stroke:none;stroke-width:0.132779"
       d="m 57.97982,519.99763 h -0.417862 v -3.57603 h 0.417862 v 0.67021 h 0.01607 c 0.225012,-0.57378 0.562527,-0.76824 1.157191,-0.76824 v 0.45001 c -0.932179,-0.0209 -1.173263,0.6686 -1.173263,1.46898 v 1.75507"
       class="ps02"
       id="path6933" />
    <path
       style="fill:#000000;fill-rule:nonzero;stroke:none;stroke-width:0.132779"
       d="m 61.46745,520.01049 c -0.09643,0.0209 -0.273223,0.0836 -0.466092,0.0836 -0.417862,0 -0.64288,-0.18 -0.64288,-0.712 v -2.61652 h -0.498224 v -0.34394 h 0.498224 v -0.99485 h 0.417875 v 0.99485 h 0.675025 v 0.34394 h -0.675025 v 2.45098 c 0,0.3536 0.01608,0.50467 0.353584,0.50467 0.112503,0 0.241082,-0.0209 0.337513,-0.0482 v 0.33752"
       class="ps02"
       id="path6935" />
    <path
       style="fill:#000000;fill-rule:nonzero;stroke:none;stroke-width:0.132779"
       d="m 64.440761,518.11881 c -0.353575,0.14465 -0.707162,0.17357 -1.060746,0.2009 -0.626808,0.0482 -1.012532,0.27644 -1.012532,0.7586 0,0.43716 0.385724,0.64288 0.77145,0.64288 0.658957,0 1.301828,-0.31823 1.301828,-1.04308 z m -0.69109,-0.20573 c 0.144653,-0.0145 0.4018,-0.0562 0.546453,-0.11892 0.128577,-0.0611 0.144637,-0.24751 0.144637,-0.37127 0,-0.42109 -0.24107,-0.72484 -0.883954,-0.72484 -0.578592,0 -0.964312,0.18643 -1.044671,0.80681 h -0.417874 c 0.06428,-0.84218 0.69109,-1.18129 1.462545,-1.18129 0.723243,0 1.301828,0.28447 1.301828,1.11218 v 1.94631 c 0,0.32466 0.08037,0.40021 0.433946,0.27645 v 0.32465 c -0.06428,0.0209 -0.208938,0.0691 -0.321441,0.0691 -0.06428,0 -0.128579,-0.006 -0.192864,-0.0209 -0.273216,-0.0402 -0.321441,-0.28286 -0.321441,-0.53198 -0.353575,0.38735 -0.819669,0.59467 -1.333961,0.59467 -0.626812,0 -1.205418,-0.33912 -1.205418,-1.02861 0,-0.59949 0.417876,-0.96593 1.253622,-1.07682 l 0.578593,-0.0755"
       class="ps02"
       id="path6937" />
    <path
       style="fill:#000000;fill-rule:nonzero;stroke:none;stroke-width:0.132779"
       d="m 67.719455,519.72119 c 0.691097,0 1.205401,-0.50467 1.221475,-1.40148 0.03215,-0.89682 -0.369655,-1.62166 -1.221475,-1.62166 -0.755375,0 -1.205398,0.68948 -1.205398,1.4963 0,0.86468 0.417875,1.52684 1.205398,1.52684 z m -1.205398,0.27644 h -0.417871 v -4.97108 h 0.417871 v 1.96721 c 0.257145,-0.43393 0.77145,-0.67019 1.269683,-0.67019 1.092906,0 1.591136,0.89199 1.591136,1.89328 0,1.05432 -0.45002,1.87721 -1.607196,1.87721 -0.466099,0 -0.996478,-0.25555 -1.253623,-0.72485 v 0 0.62842"
       class="ps02"
       id="path6939" />
    <path
       style="fill:#000000;fill-rule:nonzero;stroke:none;stroke-width:0.132779"
       d="m 70.290985,519.99763 h 0.417858 v -4.97108 h -0.417858 z"
       class="ps02"
       id="path6941" />
    <path
       style="fill:#000000;fill-rule:nonzero;stroke:none;stroke-width:0.132779"
       d="m 74.30898,517.95969 c 0,-0.69592 -0.385727,-1.26164 -1.125043,-1.26164 -0.739315,0 -1.125039,0.58662 -1.205398,1.26164 z m -2.330441,0.34716 c 0,0.77146 0.417875,1.41434 1.205398,1.41434 0.530379,0 0.964313,-0.29734 1.076823,-0.82128 h 0.466094 c -0.208937,0.67502 -0.626812,1.19415 -1.542917,1.19415 -1.141117,0 -1.639344,-0.81485 -1.639344,-1.87078 0,-1.04308 0.610738,-1.89971 1.639344,-1.89971 0.980393,0 1.57505,0.69913 1.57505,1.98328 h -2.780448"
       class="ps02"
       id="path6943" />
    <path
       style="fill:#000000;fill-rule:nonzero;stroke:none;stroke-width:0.132779"
       d="M -2.3223259,490.72569 H 26.960856 v 8.6837 H -1.1651356 v 7.52652 H -2.3223259 V 498.2522 H 25.80368 v -6.36933 H -2.3223259 v -1.15718"
       class="ps02"
       id="path6945" />
    <path
       style="fill:#000000;fill-rule:nonzero;stroke:none;stroke-width:0.132779"
       d="m 63.540733,499.40939 v 7.52652 h -1.157176 v -8.68371 h 28.126005 v -6.36933 H 62.383557 v -1.15718 h 29.283182 v 8.6837 H 63.540733"
       class="ps02"
       id="path6947" />
    <path
       style="fill:#000000;fill-rule:nonzero;stroke:none;stroke-width:0.132779"
       d="m 41.891757,490.72569 v 15.05303 H 26.960856 v 1.15719 h 16.152361 v -15.05304 h 14.930895 v -1.15718 H 41.891757"
       class="ps02"
       id="path6949" />
    <path
       style="fill:#000000;fill-rule:nonzero;stroke:none;stroke-width:0.132779"
       d="m 94.736495,505.22585 h -0.626812 v -0.21858 h 1.510766 v 0.21858 h -0.626803 v 1.71327 h -0.257151 v -1.71327"
       class="ps02"
       id="path6951" />
    <path
       style="fill:#000000;fill-rule:nonzero;stroke:none;stroke-width:0.132779"
       d="m 96.649062,506.93912 -0.530379,-1.56863 v 1.56863 h -0.257142 v -1.93185 h 0.353575 l 0.546449,1.64256 0.562522,-1.64256 h 0.353587 v 1.93185 h -0.257158 v -1.56863 l -0.514305,1.56863 h -0.257149"
       class="ps02"
       id="path6953" />
  </g>
</svg>
