<?xml version="1.0" encoding="UTF-8" standalone="no"?>
<!-- Generator: Adobe Illustrator 15.1.0, SVG Export Plug-In  -->

<svg
   version="1.1"
   x="0px"
   y="0px"
   width="100"
   height="28.573423"
   viewBox="-48.423 -13.517 100 28.573424"
   enable-background="new -48.423 -13.517 800 230"
   xml:space="preserve"
   id="svg1"
   xmlns="http://www.w3.org/2000/svg"
   xmlns:svg="http://www.w3.org/2000/svg">
<defs
   id="defs1">
</defs>
<path
   fill-rule="evenodd"
   clip-rule="evenodd"
   d="m 51.374408,2.438275 v -0.87116 h -0.0056 l -0.332959,0.87116 H 50.88445 l -0.333098,-0.87116 h -0.0052 v 0.87116 h -0.20315 V 1.323391 h 0.313997 l 0.305631,0.790151 0.3034,-0.790151 H 51.577 v 1.114884 z m -1.599543,0 H 49.55847 V 1.499352 H 49.217702 V 1.323391 h 0.898209 v 0.175961 h -0.341046 z m -6.964257,-3.21763 -10.251601,-0.0036 -1.769648,3.388432 h -2.331133 c 0,0 7.265008,-13.753948 7.554326,-14.223688 0.289178,-0.470019 1.117951,-1.954114 2.455504,-1.881889 1.337275,0.07222 1.89639,1.090204 2.149595,1.523972 0.252787,0.433767 7.754408,14.581605 7.754408,14.581605 h -3.731848 z m -4.383126,-8.1482976 c -0.324036,-0.6507206 -1.060087,-0.8109258 -1.457742,-0.052008 -0.165783,0.3132996 -3.299893,6.2012951 -3.299893,6.2012951 l 8.082068,6.97e-4 z m -13.12707,-2.6357874 0.01185,14.025418 h -3.333775 v -14.01036 l -6.328455,-0.0099 v -1.947978 l 16.014946,-0.01074 -0.0072,1.970566 z m -8.6027,23.867513 c 0.448546,-0.08226 0.848153,-0.03305 0.848153,-0.399467 0,-0.32292 -0.333796,-0.383015 -0.585606,-0.383015 -0.350109,0 -0.596204,0.142358 -0.623811,0.448687 h -0.62381 c 0.04364,-0.727965 0.662153,-0.941293 1.285824,-0.941293 0.552702,0 1.132731,0.224482 1.132731,0.820964 v 1.455512 c 0,0.152954 0.03291,0.213328 0.147935,0.213328 0.0382,0 0.08756,0 0.153095,-0.01116 v 0.432373 c -0.093,0.03291 -0.289736,0.07111 -0.393751,0.07111 -0.251811,0 -0.432512,-0.08742 -0.481731,-0.344532 -0.246234,0.240935 -0.645562,0.344532 -0.979218,0.344532 -0.50906,0 -0.968482,-0.273423 -0.968482,-0.826124 -1.39e-4,-0.705935 0.563437,-0.820825 1.088671,-0.88092 z m 0.109452,1.214716 c 0.273423,0 0.700219,-0.142358 0.700219,-0.536527 v -0.464861 c -0.191438,0.125906 -0.492328,0.120329 -0.766169,0.169547 -0.267985,0.04378 -0.508641,0.142359 -0.508641,0.470438 0,0.279139 0.355825,0.361403 0.574591,0.361403 z m -2.70843,-0.279139 v -1.668979 h -0.470717 v -0.465139 h 0.470717 v -0.848293 h 0.62381 v 0.848293 h 0.563716 v 0.465139 h -0.563716 v 1.510307 c 0,0.257249 0.02175,0.388452 0.30103,0.388452 0.08742,0 0.174985,0 0.262686,-0.02189 v 0.481592 c -0.13692,0.01074 -0.268263,0.03263 -0.404905,0.03263 -0.651418,1.4e-4 -0.771746,-0.251532 -0.782621,-0.722108 z M 10.09179,-13.418279 h 3.389965 V 2.552886 H 10.09179 Z m 0.450359,26.53774 1.001388,-3.091864 h 0.69478 l -1.335043,3.907112 H 10.142682 L 8.840265,10.027597 h 0.711512 l 0.979497,3.091864 z m -2.576808,0.855961 c -0.517286,0 -0.885382,-0.387336 -0.885382,-0.899742 0,-0.541408 0.408949,-0.899604 0.885382,-0.899604 0.471553,0 0.880501,0.358196 0.880501,0.899604 0,0.541407 -0.408948,0.899742 -0.880501,0.899742 z m 0,-1.643044 c -0.389568,0 -0.692829,0.305491 -0.692829,0.743302 0,0.409088 0.264499,0.743441 0.692829,0.743441 0.384966,0 0.688088,-0.303121 0.688088,-0.743441 0,-0.437811 -0.303122,-0.743302 -0.688088,-0.743302 z m 0.139569,0.820407 0.27914,0.43781 H 8.198747 L 7.941359,13.164915 H 7.787428 v 0.42568 H 7.623737 v -0.99581 h 0.377716 c 0.240657,0 0.363076,0.08422 0.363076,0.28625 1.4e-4,0.180144 -0.110289,0.255018 -0.259619,0.27175 z M 7.984722,12.734076 H 7.787428 v 0.291269 H 7.97036 c 0.122699,0 0.230897,-0.01213 0.230897,-0.15658 0,-0.120188 -0.118098,-0.134689 -0.216535,-0.134689 z M -2.027757,2.602384 C -3.362522,2.530159 -3.920522,1.514271 -4.17303,1.08148 -4.425677,0.648549 -11.912797,-13.47196 -11.912797,-13.47196 h 3.724737 l 6.200598,11.510935 c 0.323338,0.649465 1.058275,0.809392 1.455232,0.05173 0.324594,-0.613213 6.168669,-11.562663 6.168669,-11.562663 h 2.32681 c 0,0 -7.251343,13.727316 -7.539964,14.19622 -0.288899,0.469043 -1.116138,1.950349 -2.451042,1.878124 z m -9.148012,8.503148 -1.099965,2.982132 c -0.202592,0.509059 -0.350248,0.96876 -1.001527,0.96876 -0.147656,0 -0.289875,-0.01102 -0.432233,-0.0329 v -0.525512 c 0.09844,0.01645 0.197015,0.0382 0.295452,0.0382 0.290015,0 0.361124,-0.152955 0.437672,-0.393751 l 0.07111,-0.218906 -1.072497,-2.818022 h 0.684045 l 0.738701,2.112227 h 0.01088 l 0.71695,-2.112227 z M -21.547978,-9.1101667 v 7.3115777 c 0,2.673434 -1.203561,4.341436 -4.539567,4.341436 h -7.166152 v -1.97684 h 6.252327 c 1.27955,0 2.044046,-1.039313 2.044046,-2.364457 v -7.3117167 c 0,-2.3305753 1.131894,-4.3412973 4.445033,-4.3412973 h 7.116933 v 1.97712 h -6.157375 c -1.663123,-0.07195 -1.995245,1.290286 -1.995245,2.3641773 z m -14.067805,4.52409 h -7.668658 c -1.051164,0 -1.82793,0.7997714 -1.82793,2.1706487 V 2.565435 H -48.423 v -4.79807 c 0,-2.696161 1.690869,-4.5127964 4.089905,-4.5127964 h 7.757614 c 1.902385,-0.072364 2.356091,-1.0165852 2.356091,-2.3876019 0,-1.0510247 -0.525791,-2.4858997 -2.356091,-2.3414507 H -48.423 v -1.97684 h 12.807217 c 3.358733,0 4.684016,1.941983 4.684016,4.3184302 0,2.6961608 -1.325283,4.5468171 -4.684016,4.5468171 z m 16.998487,15.8229517 c 0,0.481452 -0.213467,1.203979 -1.329745,1.198402 h -1.039731 v 1.499571 h -0.683905 v -3.907111 h 1.723636 c 1.116278,-1.4e-4 1.329745,0.722108 1.329745,1.209138 z m -2.369476,-0.650999 v 1.291402 h 1.001387 c 0.306468,0 0.684045,-0.153374 0.684045,-0.645841 0,-0.514358 -0.311905,-0.645561 -0.67303,-0.645561 z m 3.545709,3.348833 h -0.623811 v -3.907112 h 0.623811 z m 1.641511,-1.630636 c 0.448686,-0.08226 0.848154,-0.03305 0.848154,-0.399467 0,-0.32292 -0.333796,-0.383015 -0.585607,-0.383015 -0.350249,0 -0.596482,0.142358 -0.623811,0.448687 h -0.62381 c 0.04364,-0.727965 0.662154,-0.941293 1.285825,-0.941293 0.552701,0 1.13287,0.224482 1.13287,0.820964 v 1.455512 c 0,0.152954 0.03277,0.213328 0.147656,0.213328 0.03834,0 0.08756,0 0.153234,-0.01116 v 0.432373 c -0.093,0.03291 -0.289875,0.07111 -0.39403,0.07111 -0.251532,0 -0.432233,-0.08742 -0.481452,-0.344532 -0.246373,0.240935 -0.645701,0.344532 -0.979357,0.344532 -0.50892,0 -0.968621,-0.273423 -0.968621,-0.826124 0,-0.705935 0.563576,-0.820825 1.088949,-0.88092 z m 0.109453,1.214716 c 0.273562,0 0.700357,-0.142358 0.700357,-0.536527 v -0.464861 c -0.191577,0.125906 -0.492467,0.120329 -0.766168,0.169547 -0.268125,0.04378 -0.508781,0.142359 -0.508781,0.470438 1.39e-4,0.279139 0.355686,0.361403 0.574592,0.361403 z m 6.418248,-0.04936 c 0.60192,0 0.826263,-0.295591 0.826263,-0.590904 0,-0.30103 -0.164109,-0.421498 -0.32278,-0.481592 -0.273562,-0.104015 -0.629249,-0.175124 -1.165497,-0.322781 -0.667592,-0.180701 -0.864467,-0.585328 -0.864467,-0.990512 0,-0.782203 0.722248,-1.149044 1.428183,-1.149044 0.815388,0 1.499292,0.432373 1.499292,1.247621 h -0.684044 c -0.03277,-0.503482 -0.372139,-0.689482 -0.842716,-0.689482 -0.317343,0 -0.71681,0.114891 -0.71681,0.50892 0,0.273562 0.186,0.426657 0.465139,0.503204 0.06009,0.01659 0.924701,0.240796 1.127014,0.301169 0.514358,0.153094 0.760731,0.590765 0.760731,0.99581 0,0.875482 -0.777045,1.22573 -1.554089,1.22573 -0.891934,0 -1.614183,-0.426795 -1.630635,-1.395417 h 0.683904 c 1.4e-4,0.60192 0.443388,0.837278 0.990512,0.837278 z m 2.232416,-3.212191 h 0.62395 v 0.848293 h 0.563438 v 0.465139 h -0.563438 v 1.510307 c 0,0.257249 0.02175,0.388452 0.300751,0.388452 0.08756,0 0.175264,0 0.262687,-0.02189 v 0.481592 c -0.136781,0.01074 -0.268125,0.03263 -0.404906,0.03263 -0.651138,0 -0.771606,-0.251671 -0.782482,-0.722248 v -1.668979 h -0.470576 v -0.465139 h 0.470576 z m 2.599118,2.046834 c 0.448686,-0.08226 0.848153,-0.03305 0.848153,-0.399467 0,-0.32292 -0.333795,-0.383015 -0.585467,-0.383015 -0.350248,0 -0.596482,0.142358 -0.62395,0.448687 h -0.62381 c 0.04378,-0.727965 0.662154,-0.941293 1.285964,-0.941293 0.552701,0 1.132731,0.224482 1.132731,0.820964 v 1.455512 c 0,0.152954 0.03263,0.213328 0.147796,0.213328 0.03834,0 0.08742,0 0.153233,-0.01116 v 0.432373 c -0.093,0.03291 -0.290014,0.07111 -0.39389,0.07111 -0.251811,0 -0.432373,-0.08742 -0.481731,-0.344532 -0.246094,0.240935 -0.645562,0.344532 -0.979357,0.344532 -0.50892,0 -0.968482,-0.273423 -0.968482,-0.826124 -1.4e-4,-0.705935 0.563437,-0.820825 1.08881,-0.88092 z m 0.109313,1.214716 c 0.273562,0 0.700358,-0.142358 0.700358,-0.536527 V 12.5174 c -0.191577,0.125906 -0.492328,0.120329 -0.76603,0.169547 -0.267984,0.04378 -0.50878,0.142359 -0.50878,0.470438 0,0.279139 0.355547,0.361403 0.574452,0.361403 z m 2.210526,-3.26155 h 0.62381 v 0.848293 h 0.563577 v 0.465139 h -0.563577 v 1.510307 c 0,0.257249 0.02189,0.388452 0.30089,0.388452 0.08756,0 0.175125,0 0.262826,-0.02189 v 0.481592 c -0.136781,0.01074 -0.268124,0.03263 -0.405044,0.03263 -0.651139,0 -0.771467,-0.251671 -0.782482,-0.722248 v -1.668979 h -0.470577 v -0.465139 h 0.470577 z m 2.303665,0.361263 h -0.623811 v -0.590905 h 0.623811 z m 0,3.316207 h -0.623811 v -2.829177 h 0.623811 z m 2.002635,-2.905864 c 0.908387,0 1.428043,0.62395 1.428043,1.488556 0,0.869766 -0.519795,1.493576 -1.428043,1.493576 -0.908248,0 -1.428044,-0.62381 -1.428044,-1.493576 0,-0.864606 0.519796,-1.488556 1.428044,-1.488556 z m 0,2.489944 c 0.558278,0 0.804372,-0.50906 0.804372,-1.001388 0,-0.487169 -0.246094,-0.995949 -0.804372,-0.995949 -0.558139,0 -0.804373,0.508641 -0.804373,0.995949 1.4e-4,0.492189 0.246234,1.001388 0.804373,1.001388 z m 2.566212,-1.997198 0.01088,0.01074 c 0.186,-0.311765 0.50892,-0.503342 0.88092,-0.503342 0.612935,0 1.001387,0.328218 1.001387,0.963183 v 1.94268 H 6.02155 v -1.77871 c -0.01102,-0.44297 -0.186279,-0.634547 -0.552701,-0.634547 -0.41592,0 -0.684044,0.328219 -0.684044,0.744139 v 1.669118 h -0.62395 v -2.829177 h 0.591044 v 0.41592 z m 8.454765,-0.903089 h -0.62381 v -0.590905 h 0.62381 z m 0,3.316207 h -0.62381 v -2.829177 h 0.62381 z"
   id="path1"
   style="stroke-width:0.13943" />
</svg>
