<?xml version="1.0" encoding="UTF-8" standalone="no"?>
<!-- Created with Inkscape (http://www.inkscape.org/) -->

<svg
   width="100"
   height="100"
   viewBox="0 0 100 100"
   version="1.1"
   id="svg1"
   xml:space="preserve"
   xmlns="http://www.w3.org/2000/svg"
   xmlns:svg="http://www.w3.org/2000/svg"><defs
     id="defs1" /><g
     id="layer1"><path
       d="m 4.8823799,37.711198 c -0.949249,0 -1.864618,0.77985 -2.034017,1.729099 v 0.101639 l -0.03388,-0.03388 v 0.135519 l -0.03388,0.03388 v 0.135519 l -0.03388,0.03388 v 0.06776 l -0.03388,0.101639 -0.03388,0.101639 v 0.135519 l -0.03388,0.102255 -0.03388,0.135519 -0.03388,0.13552 -0.03388,0.169398 -0.03388,0.135519 -0.06776,0.304918 -0.0345,0.170015 -0.03388,0.135519 v 0.101639 l -0.03388,0.135519 -0.03388,0.135519 -0.03388,0.135519 -0.03388,0.135519 -0.03388,0.101639 -0.03388,0.135519 v 0.0345 l -0.03388,0.03388 v 0.101639 l -0.03388,0.06776 v 0.06776 l -0.03388,0.03388 v 0.06776 c -0.03388,0.406557 0.03388,0.983129 0.170015,1.084769 0.169398,0.915369 3.254304,5.186682 3.152665,5.831013 0.03388,0.609836 -0.338798,2.542214 -0.338798,2.542214 -0.102255,0.644331 -0.542692,1.152527 -1.187023,1.152527 -0.643715,0 -1.084152,-0.508196 -0.983129,-1.151911 l 0.576572,-3.187161 h -2.305055 l -0.74597105,4.406832 c -0.169399,0.915369 0.440437,1.62746 1.35580605,1.62746 h 3.288184 c 0.91537,0 1.76298,-0.712091 1.932378,-1.62746 0,0 0.84761,-4.135794 0.84761,-4.440712 0,-0.304918 -0.101639,-0.338798 -0.101639,-0.338798 0,-0.338797 -2.746108,-4.847884 -3.017146,-5.017283 -0.135519,-0.06776 -0.203279,-0.508812 -0.237159,-0.77985 0,-0.271038 0.372678,-2.067897 0.372678,-2.067897 0.101639,-0.644332 0.71209,-1.152528 1.355806,-1.152528 0.643715,0 0.915369,0.508196 0.81373,1.152528 l -0.508196,2.847747 h 2.305055 L 9.628,39.405807 C 9.8319045,38.491048 9.221453,37.711198 8.2728199,37.711198 Z m 6.3053311,0 -2.7461081,15.797205 c -0.169399,0.915369 0.440437,1.62746 1.3558059,1.62746 h 3.2888002 c 0.914753,0 1.796243,-0.712091 1.965641,-1.62746 L 17.967357,37.711198 H 15.89946 l -2.779372,15.356768 c -0.03388,0.237158 -0.271038,0.406557 -0.474316,0.406557 h -1.62746 c -0.237774,0 -0.373293,-0.203279 -0.338798,-0.406557 l 2.711613,-15.356768 z m 7.864414,0 -3.322064,17.424665 h 2.237296 l 1.525821,-7.898911 h 2.779372 c 0.915369,0 1.762979,-0.711474 1.932377,-1.626844 l 1.187024,-6.203691 c 0.169399,-0.949249 -0.441053,-1.729099 -1.356422,-1.729099 h -4.983404 z m 7.865031,0 -3.457583,17.424665 h 4.948908 l 0.338797,-2.169536 h -2.440574 l 0.983129,-5.898773 h 2.44119 l 0.338798,-1.830739 h -2.440574 l 1.084152,-5.389961 h 2.47507 l 0.338797,-2.135656 z m 5.898773,0 -3.288184,17.424665 h 2.203416 l 1.491325,-7.898911 h 1.559701 c 0.203278,0.203279 0.237158,0.542076 0.271038,0.712091 0.03388,0.271038 0.06776,0.576572 0.06776,0.84761 -0.03388,0.271038 -1.186407,6.33921 -1.186407,6.33921 h 2.203416 c 0,0 1.220287,-6.610248 1.220287,-6.712503 0,-0.10164 0,-0.440437 -0.135519,-0.643716 -0.06776,-0.135519 -0.203279,-0.406557 -0.372678,-0.508812 -0.305533,-0.203278 -0.644331,-0.338797 -0.644331,-0.338797 h -0.169399 c 0.643716,-0.237159 1.796859,-0.644332 1.932378,-1.321927 l 1.186408,-6.203691 c 0.169397,-0.949249 -0.441054,-1.729099 -1.355807,-1.729099 h -4.983404 z m 11.72917,0 -3.322063,17.424665 h 2.508333 l 2.034018,-10.102327 0.81373,10.102327 h 2.203416 l 3.322063,-17.424665 h -2.508333 l -1.7291,9.119197 -1.118648,-9.119197 z m 8.712641,0 -3.32268,17.424665 h 2.203416 l 3.32268,-17.424665 z m 3.355943,0 -3.322063,17.424665 h 2.542213 l 2.034017,-10.102327 0.813114,10.102327 h 2.204032 L 64.17318,37.711198 h -2.542213 l -1.69522,9.119197 -1.118648,-9.119197 z m 8.508746,0 -0.406557,2.169536 h 1.355807 L 63.35945,55.135863 h 2.50895 l 2.745492,-15.255129 h 1.322542 l 0.338798,-2.169536 z m 6.034292,0 -3.423703,17.424665 h 4.948908 l 0.338798,-2.169536 h -2.439958 l 1.017008,-5.898773 h 2.441192 l 0.338797,-1.830739 h -2.440575 l 1.050888,-5.389961 h 2.440576 l 0.338797,-2.169536 h -4.610112 z m 5.559361,0 -3.322065,17.424665 h 2.542831 l 2.034017,-10.102327 0.813114,10.102327 h 2.203416 l 3.32268,-17.424665 h -2.54283 l -1.693987,9.119197 -1.15376,-9.119197 z m 8.74652,0 -3.322063,17.424665 h 5.016667 c 0.915369,0 1.796859,-0.712091 1.966258,-1.62746 l 2.644469,-14.068106 c 0.169398,-0.949865 -0.440437,-1.729099 -1.355807,-1.729099 z m 9.390236,0 c -0.949249,0 -1.830739,0.77985 -2.000137,1.729099 l -2.440575,14.068106 c -0.170014,0.915369 0.440437,1.62746 1.321927,1.62746 h 3.626981 c 0.91537,0 1.796859,-0.712091 1.966258,-1.62746 l 2.644469,-14.068106 c 0.169399,-0.949249 -0.441053,-1.729099 -1.355806,-1.729099 z m -7.525617,2.000137 h 1.016392 c 0.644332,0 1.085385,0.508196 0.983745,1.152528 l -2.170152,11.424869 c -0.101639,0.644331 -0.745354,1.186407 -1.389686,1.186407 h -1.016392 z m 8.813664,0 h 0.06776 c 0.644331,0 1.084768,0.508196 0.949249,1.152528 l -2.034017,11.424869 c -0.101639,0.644331 -0.711475,1.186407 -1.355806,1.186407 -0.644331,0 -0.915369,-0.542076 -0.813114,-1.186407 l 2.033401,-11.389757 0.03388,-0.06776 0.03388,-0.06838 0.03388,-0.06776 0.03388,-0.06776 0.03388,-0.06776 0.03388,-0.06776 0.03388,-0.06776 0.03388,-0.06776 0.03388,-0.06776 0.03388,-0.06776 0.03388,-0.06776 0.03388,-0.06776 0.03388,-0.03449 0.03388,-0.06776 0.03388,-0.06776 0.06776,-0.03388 0.03388,-0.03388 0.03388,-0.03388 0.06776,-0.03388 0.06776,-0.03388 0.03388,-0.03388 0.06776,-0.03388 0.06776,-0.03388 0.06776,-0.03388 0.03449,-0.03388 0.06776,-0.03388 -0.170015,0.203279 h 0.06776 l 0.06776,-0.03388 z m -74.953104,0.06776 h 1.050889 c 0.237774,0 0.712091,0.542076 0.678211,0.77985 l -0.915369,4.305193 c -0.03388,0.237158 -0.338798,0.745354 -0.575956,0.745354 h -1.356422 l -0.03388,-0.03326 h -0.135519 v -0.03388 h -0.03388 0.135519 -0.03388 l -0.03388,-0.03388 h -0.03388 l -0.03388,-0.03388 -0.03388,-0.03388 v -0.03449 l -0.03388,-0.03388 -0.03388,-0.03388 v -0.06776 l -0.03388,-0.03388 v -0.06776 l -0.03388,-0.03388 v -0.135521 l 1.017009,-5.254442 c 0.237774,0.101639 0.338797,0.03388 0.474316,0.03388 m 13.662781,0 h 1.084152 c 0.237158,0 0.745355,0.542076 0.677595,0.77985 l -0.914753,4.271313 c -0.03388,0.237158 -0.609836,0.745354 -0.813114,0.745354 h -0.949865 c -0.203279,0 -0.338798,-0.135519 -0.338798,-0.304917 v -0.10164 l 1.016393,-5.254441 0.0345,-0.03388 0.03388,-0.03388 0.03388,-0.03388 h 0.03388 l 0.03388,-0.03388 0.03388,-0.03388 h 0.03388 l 0.03388,-0.03388 h 0.03388 l 0.03388,-0.03388 h 0.03388 z M -1.4938354e-7,56.627188 v 5.695494 H 97.869368 V 56.627188 Z M 71.935956,57.237639 h 0.880873 c 0.203895,0 0.339414,0.169399 0.305534,0.372678 l -0.203278,0.949249 h -0.474317 l 0.101639,-0.643715 c 0.03388,-0.135519 -0.06776,-0.271038 -0.203278,-0.271038 -0.135519,0 -0.271038,0.101023 -0.305534,0.271038 l -0.101639,0.474316 c 0,0.03388 0.03388,0.169399 0.06776,0.169399 0.06776,0.03388 0.677595,1.050888 0.677595,1.118648 0,0.03388 0.0345,0.06776 0.0345,0.06776 -0.03388,0.135519 -0.203278,0.983129 -0.203278,0.983129 a 0.46815659,0.46815659 0 0 1 -0.441053,0.373293 h -0.712091 c -0.203279,0 -0.338798,-0.169398 -0.304918,-0.373293 l 0.169399,-0.983129 h 0.508812 l -0.135519,0.712091 c -0.03388,0.135519 0.06776,0.271038 0.203279,0.271038 0.135519,0 0.271038,-0.135519 0.304918,-0.271038 l 0.101639,-0.575956 c -0.101639,-0.237774 -0.711475,-1.084768 -0.745355,-1.288662 -0.03388,-0.03388 -0.03388,-0.135519 -0.03388,-0.237159 0,-0.101639 0.135519,-0.745354 0.135519,-0.745354 h 0.03388 v -0.102256 l 0.03388,-0.03388 v -0.03388 l 0.03388,-0.03388 v -0.03388 l 0.03388,-0.03388 v -0.03388 l 0.03388,-0.03388 0.03388,-0.03388 v -0.03388 h 0.03388 l 0.03388,-0.03388 0.03388,-0.03388 0.03388,-0.03388 v -0.03388 h 0.03388 l 0.03388,-0.03388 0.03388,-0.03388 h 0.03388 l 0.03388,-0.03388 h 0.03388 l 0.03388,-0.03388 h 0.03388 z m 3.966396,0 h 0.609836 l 0.102255,1.457446 0.779234,-1.457446 h 0.609836 l -1.253551,2.237296 -0.305534,1.62746 h -0.542076 l 0.271038,-1.762979 z m 5.593239,0 h 0.88149 c 0.203278,0 0.338797,0.169399 0.304918,0.372678 l -0.203279,0.949249 h -0.474316 l 0.101639,-0.643715 c 0.03388,-0.135519 -0.06776,-0.271038 -0.203279,-0.271038 -0.135519,0 -0.271038,0.101023 -0.305533,0.271038 l -0.10164,0.474316 c -0.03388,0.03388 0.03388,0.169399 0.06776,0.169399 0.06776,0.03388 0.678211,1.050888 0.678211,1.118648 a 0.10471924,0.10471924 0 0 1 0.03388,0.06776 c -0.03388,0.135519 -0.169399,0.983129 -0.169399,0.983129 a 0.46815659,0.46815659 0 0 1 -0.441053,0.373293 h -0.745354 c -0.203279,0 -0.338798,-0.169398 -0.305534,-0.373293 l 0.170015,-0.983129 h 0.508196 l -0.135519,0.712091 c -0.03388,0.135519 0.06776,0.271038 0.203278,0.271038 0.135519,0 0.271038,-0.135519 0.304918,-0.271038 l 0.102255,-0.575956 c -0.102255,-0.237774 -0.71209,-1.084768 -0.74597,-1.288662 -0.03388,-0.03388 -0.03388,-0.135519 -0.03388,-0.237159 0,-0.101639 0.135519,-0.745354 0.135519,-0.745354 l 0.03388,-0.0345 v -0.06776 l 0.03388,-0.03388 v -0.03388 l 0.03388,-0.03388 v -0.03388 l 0.03388,-0.03388 v -0.03388 l 0.03388,-0.03388 0.03388,-0.03388 v -0.03388 h 0.03388 l 0.03388,-0.03388 0.03388,-0.03388 0.03388,-0.03388 0.03388,-0.03388 0.03388,-0.03388 0.03388,-0.03388 h 0.03388 l 0.03388,-0.03388 h 0.03388 l 0.03388,-0.03388 h 0.03388 z m 4.000275,0 h 1.152528 l -0.101639,0.474317 h -0.304918 l -0.609836,3.390439 h -0.542692 l 0.609836,-3.390439 h -0.271038 z m 4.509087,0 h 1.016393 l -0.101639,0.474317 h -0.542076 l -0.237159,1.220903 h 0.542076 l -0.101639,0.406557 h -0.540844 l -0.237774,1.288047 h 0.542076 l -0.06776,0.474316 h -1.084152 z m 4.237434,0 h 0.643715 l 0.101639,2.237296 0.983129,-2.203416 0.609835,-0.03388 -0.677595,3.864756 h -0.474316 l 0.304918,-2.034017 -0.84761,2.034017 h -0.338798 l -0.101639,-2.101776 -0.373293,2.101776 H 93.496416 Z M 2.1356559,57.373158 h 1.016393 l -0.06776,0.474317 h -0.575956 l -0.203279,1.220903 h 0.542076 l -0.06776,0.406557 h -0.575956 l -0.203279,1.288047 h 0.542076 l -0.101639,0.474316 h -1.08415 z m 4.712366,0 h 0.474317 l 0.271038,2.034018 0.373293,-2.034018 h 0.575956 l -0.745355,3.898636 h -0.474932 l -0.203279,-2.271175 -0.441052,2.237295 h -0.575956 z m 5.1521871,0 h 1.119263 l -0.06776,0.474317 h -0.305533 l -0.609836,3.390439 h -0.542076 l 0.609836,-3.389823 h -0.305534 z m 4.983403,0 h 1.017009 l -0.101639,0.474317 h -0.542076 l -0.203279,1.220903 h 0.542076 l -0.06776,0.406557 h -0.542076 l -0.203278,1.288047 h 0.542076 l -0.06776,0.474316 h -1.084768 z m 4.847885,0 h 1.084768 c 0.203278,0 0.338797,0.169399 0.304918,0.406558 l -0.271038,1.356422 c -0.03388,0.135519 -0.304918,0.271038 -0.440437,0.338797 h 0.101639 v 0.03388 h 0.135519 l 0.03388,0.03388 h -0.06776 0.03388 v 0.03388 h 0.06776 v 0.03388 h 0.03388 c 0.03388,0.03388 0.03388,0.169399 0.03388,0.203279 0,0.03449 -0.271038,1.525821 -0.271038,1.525821 h -0.576573 c 0,0 0.271038,-1.355807 0.271038,-1.389686 0,-0.06776 0,-0.135519 -0.03388,-0.203279 0,-0.0345 0,-0.102255 -0.06776,-0.170015 h -0.338796 l -0.338798,1.76298 h -0.508812 z m 4.915644,0 h 1.151912 l -0.101024,0.474317 h -0.304917 l -0.610452,3.390439 h -0.542076 l 0.609835,-3.389823 h -0.304917 z m 5.694879,0 h 0.644331 l -0.203279,3.898636 H 32.238741 L 32.34038,60.39092 h -0.406557 l -0.338797,0.880874 h -0.576572 z m 4.576846,0 h 0.508197 l -0.745355,3.864756 h -0.508812 z m 4.406832,0 h 0.474317 l 0.271038,2.034018 0.373293,-2.034018 h 0.542076 l -0.711475,3.898636 h -0.508812 l -0.169399,-2.237296 -0.440437,2.237296 h -0.575955 z m 5.695495,0 h 0.643715 l 0.101639,2.237296 0.983129,-2.237296 h 0.609836 l -0.643716,3.864756 H 48.34148 l 0.304918,-2.034017 -0.84761,2.034017 H 47.45999 l -0.101639,-2.101776 -0.373293,2.101776 h -0.542076 z m 6.203074,0 h 1.017625 l -0.06776,0.474317 H 53.73144 l -0.237158,1.187023 h 0.542076 l -0.06776,0.406557 h -0.542076 l -0.237775,1.288047 h 0.542692 L 53.6298,61.203419 h -1.084768 z m 4.983404,0 h 0.474317 l 0.271654,2.034018 0.373293,-2.034018 h 0.542076 l -0.712091,3.864756 h -0.474316 l -0.203279,-2.237295 -0.441053,2.237295 h -0.575955 z m 5.085043,0 h 1.153144 l -0.102256,0.474317 h -0.304917 l -0.609836,3.390439 h -0.542692 l 0.609836,-3.389823 h -0.304918 z m -41.086901,0.474317 c -0.03326,0 -0.03326,0 -0.06776,0.0345 l -0.237158,1.151911 v 0.0345 c 0,0.03388 0.03388,0.06776 0.06776,0.06776 h 0.203279 c 0.06776,0 0.170014,-0.10164 0.203278,-0.169399 l 0.203278,-0.949249 c 0,-0.06776 -0.101024,-0.169399 -0.135519,-0.169399 z m 10.136207,1.153144 -0.372678,0.983128 h 0.271038 z"
       style="fill:#fc0c18;stroke-width:0.339"
       id="path1" /></g></svg>
