<?xml version="1.0" encoding="UTF-8" standalone="no"?>
<svg
   id="body"
   viewBox="0 0 11.799999 2.9086435"
   width="99.999992"
   height="24.645452"
   version="1.1"
   xmlns="http://www.w3.org/2000/svg"
   xmlns:svg="http://www.w3.org/2000/svg"
   xmlns:rdf="http://www.w3.org/1999/02/22-rdf-syntax-ns#"
   xmlns:cc="http://creativecommons.org/ns#"
   xmlns:dc="http://purl.org/dc/elements/1.1/">
  <defs
     id="defs1" />
  <style
     id="style1">.st0{fill:#fc0c18}</style>
  <title
     id="title2161">SVG drawing</title>
  <desc
     id="desc2163">This was produced by version 4.2 of GNU libplot, a free library for exporting 2-D vector graphics.</desc>
  <path
     id="polyline2177"
     class="st0"
     d="M 5.3004953,0 C 5.4125201,0 5.520544,0 5.5405484,0 v 0 h 0.004 v 0 h 0.004 v 0 h 0.004 v 0 h 0.004 0.004 v 0 h 0.004 0.004 0.004 0.004 0.004 0.008 0.004 0.004 v 0 h 0.004 0.004 0.004 0.004 0.004 0.004 v 0 h 0.004 v 0 h 0.004 v 0 h 0.004 v 0 c 0.004,0 -0.004,0 -0.020004,0 -0.020004,0 -0.384085,0 -0.3720823,0 -0.004,0 0.040009,0 0.040009,0 0.012003,0 0.064014,0 0.140031,0 0.076017,0 0.1280283,0 0.1160257,0 H 5.4685098 5.74057 5.82859 C 5.8486166,0 5.7766007,0 5.6685768,0 H 5.2804909 C 5.172467,0 5.0724448,0 5.0524404,0 c 0,0 -0.1000221,0 -0.1000221,0 0,0 0.012003,0 0.012003,0 0,0 0.3240717,0 0.3560788,0 0.016004,0 0.024005,0 0.028006,0 0,0 -0.04401,0 -0.04401,0 C 5.2924936,0 5.2204777,0 5.1444609,0 5.0684441,0 5.036437,0 5.0484397,0 H 5.1084529 4.8363925 4.7403715 C 4.7163665,0 4.7883825,0 4.900407,0 Z M 4.5563306,0 H 4.8804023 C 4.9004068,0 4.8283908,0 4.7203669,0 H 4.332281 C 4.2242571,0 4.1202341,0 4.1002296,0 h -0.3440761 0.244054 0.3280726 c 0.004,0 0.032007,0 0.056012,0 H 4.576335 c 0.028006,0 0.04401,0 0.040009,0 H 4.2962732 Z M 3.6281252,0 H 4.0202119 3.7561535 3.5761137 3.2480411 C 3.1400172,0 3.039995,0 3.0199906,0 H 2.8799596 C 2.8599552,0 2.9319711,0 3.039995,0 Z M 2.6999198,0 H 3.1080101 2.5238808 2.483872 2.7719357 2.65591 2.3678463 2.3278375 2.6159012 2.4878729 2.1958082 2.1557992 Z M 2.0037657,0 H 2.3918516 2.1317941 1.9557551 1.7717144 c -0.024005,0 -0.028006,0 -0.032007,0 -0.004,0 -0.008,0 -0.008,0 0.004,0 0.140031,0 0.140031,0 H 1.6116809 c 0,0 -0.1440319,0 -0.1440319,0 0,0 0,0 0.016004,0 0.008,0 0.024005,0 0.04401,0 C 1.563671,0 1.60368,0 1.60368,0 H 1.623682 C 1.5476648,0 1.4116347,0 1.3956312,0 h -0.140031 c -0.020004,0 0.052012,0 0.1600354,0 z M 0.61945944,0 h 0.39208676 -0.29606546 -0.2400531 -0.0960213 -0.2600575 -0.3920868 0.2960655 0.2040452 0.1320292 z m -1.0282275,0 h 0.3920868 -0.2600576 -0.3920867 z m -0.3960876,0 h 0.3920867 -0.3000664 -0.2400531 -0.0960212 -0.2600576 -0.3880858 0.3000664 0.2000442 0.1320292 z M -1.8090779,0 h 0.048011 -0.1600358 0.3200708 -0.2960655 -0.3240717 -0.1560345 -0.040009 z m -0.7121576,0 h 0.4040894 -0.5841292 -0.040009 0.2880637 -0.1200265 -0.2880638 -0.040009 0.2880637 -0.1240274 -0.2880638 -0.040009 z m -0.6561452,0 h 0.3920868 -0.3000664 -0.2400532 -0.096021 -0.2600575 -0.3920868 0.3000664 0.2000443 0.1360301 z m -1.0322282,0 h 0.3920866 -0.5921306 c -0.108024,0 -0.212047,0 -0.232051,0 h -0.312069 c -0.02,0 0.05201,0 0.160035,0 z m -1.108245,0 c 0.112025,0 0.216048,0 0.236052,0 h 0.288064 c 0.02,0 -0.05201,0 -0.156035,0 h -0.428094 c -0.108024,0 -0.212047,0 -0.232052,0 h -0.312069 c -0.02,0 0.05201,0 0.160036,0 z m 0.888197,0 h -0.120027 c -0.07602,0 -0.128028,0 -0.116026,0 h 0.256057 c 0.012,0 0.08802,0 0.164036,0 h 0.1200266 z m -1.040231,0 h -0.008 c -0.07602,0 -0.128029,0 -0.112025,0 h 0.240052 c 0.012,0 0.08402,0 0.160035,0 0.07602,0 0.108024,0 0.09602,0 h -0.240054 -0.004 -0.004 -0.004 -0.004 -0.004 -0.004 -0.004 -0.004 -0.004 -0.004 -0.004 -0.004 -0.004 -0.004 -0.004 -0.008 -0.004 -0.004 -0.008 -0.008 -0.004 -0.008 -0.008 -0.008 -0.004 -0.008 0.02001 -0.008 -0.008 z M 3.3760694,0 H 3.252042 C 3.224036,0 3.168023,0 3.172024,0 h 0.108024 c 0.004,0 0.040009,0 0.068015,0 h 0.1600356 0.004 0.016003 v 0 h 0.004 -0.016004 0.004 0.004 0.004 0.004 0.004 v 0 h 0.004 0.004 v 0 h 0.004 v 0 h 0.004 V 0 0 H 3.4320818 C 3.4040758,0 3.3920728,0 3.3760694,0 Z M 1.7637126,0 H 1.6356843 c -0.028006,0 -0.088019,0 -0.080018,0 h 0.1080242 c 0.004,0 0.072016,0 0.096021,0 h 0.112025 c 0.024005,0 0.040009,0 0.040009,0 v 0 h -0.1200266 -0.004 -0.004 -0.004 -0.004 -0.004 -0.004 -0.004 -0.004 -0.004 -0.004 -0.004 z M 5.8766228,0 V 0 H -5.6739329 v 0 z m -8.4898787,0 h -0.104023 c -0.024005,0 -0.040009,0 -0.036008,0 h 0.024005 0.056012 -0.012003 c -0.004,0 0.008,0 0.024005,0 0.016004,0 0.032007,0 0.036008,0 h 0.012003 c 0,0 -0.004,0 -0.008,0 -0.008,0 -0.080018,0 -0.080018,0 0,0 -0.004,0 -0.004,0 0.004,0 0.024005,0 0.024005,0 0.004,0 0.028006,0 0.052012,0 h 0.084019 c 0.024005,0 0.040009,0 0.036008,0 h -0.020006 -0.060013 0.016004 c 0.004,0 -0.008,0 -0.024005,0 -0.016004,0 -0.032007,0 -0.036008,0 h -0.012003 c 0.012002,0 0.084018,0 0.088019,0 0.004,0 0.004,0 0.004,0 0,0 -0.016004,0 -0.016004,0 h -0.004 v 0 h -0.004 v 0 h -0.004 v 0 h -0.004 v 0 h -0.004 -0.004 v 0 h -0.004 -0.004 -0.004 -0.004 v 0 h -0.004 -0.004 -0.004 -0.004 -0.004 -0.004 -0.004 -0.004 z m -0.4681036,0 h -0.072016 -0.012003 -0.09202 -0.072016 0.1480329 0.036008 0.064014 -0.032007 z m -0.660146,0 h -0.104023 c -0.024005,0 -0.040009,0 -0.036008,0 h 0.024005 0.056012 -0.012003 c -0.004,0 0.008,0 0.024005,0 0.016004,0 0.032007,0 0.036008,0 h 0.012003 c 0.004,0 -0.004,0 -0.008,0 -0.008,0 -0.080018,0 -0.080018,0 -0.004,0 -0.004,0 -0.004,0 0.004,0 0.020004,0 0.020004,0 0.004,0 0.028006,0 0.052012,0 h 0.088019 c 0.024005,0 0.040009,0 0.036008,0 h -0.020004 -0.060013 0.016004 c 0.004,0 -0.008,0 -0.024005,0 -0.016004,0 -0.032007,0 -0.036008,0 h -0.012003 c 0.012003,0 0.084019,0 0.088019,0 0.004,0 0.004,0 0.004,0 0,0 -0.016004,0 -0.016004,0 h -0.004 v 0 h -0.004 v 0 h -0.004 v 0 h -0.004 v 0 h -0.004 -0.004 v 0 h -0.004 -0.004 -0.004 -0.004 -0.004 -0.004 -0.004 -0.004 -0.004 -0.004 -0.004 -0.004 z m -0.4721044,0 h -0.13603 0.012 0.03601 0.07202 0.06401 -0.07202 0.03201 z m -0.532117,0 h -0.120027 0.012 0.06401 0.02801 -0.06401 0.012 0.06401 0.02801 -0.06401 0.008 0.128029 z m -0.500111,0 h -0.07602 -0.012 -0.116025 -0.07202 0.08002 0.05601 -0.036 0.100022 0.04001 0.012 0.04401 0.06801 z M 5.624567,0 h -0.1200265 0.008 0.068015 0.024005 -0.064014 0.008 0.068015 0.024005 -0.064014 0.012003 0.1280281 z M 5.068444,0 H 5.012432 4.980425 4.936415 4.8684 4.956419 5.012431 5.036436 5.088447 5.156462 Z M 4.4603093,0 h -0.1320292 0.008 0.036008 0.072016 0.064014 -0.072016 0.036008 z M 3.8721792,0 h -0.1200266 0.012003 0.064014 0.024005 -0.064014 0.008 0.064014 0.024005 -0.064014 0.008 0.1280322 z M 3.3000526,0 H 3.1720242 c -0.024005,0 -0.040009,0 -0.036008,0 h 0.032007 c 0.004,0 0.036008,0 0.052011,0 h -0.012003 v 0 h -0.016004 -0.004 0.008 -0.004 v 0 h -0.008 v 0 h -0.004 c -0.004,0 -0.004,0 -0.004,0 0,0 0.032007,0 0.032007,0 h 0.068015 c 0,0 -0.032007,0 -0.032007,0 0,0 0,0 0.004,0 0,0 0,0 0.008,0 h 0.04001 0.040009 0.060013 z M 2.7199242,0 h -0.1360301 0.012003 0.036008 0.072016 0.064014 -0.072016 0.036008 z M 2.0477755,0 h -0.076017 0.024006 0.076017 -0.012003 0.048011 0.040009 0.068015 z M 1.507656,0 H 1.447643 1.535662 1.595675 Z M 0.98754094,0 h -0.056012 -0.032007 -0.04401 -0.064014 0.0840182 0.0600133 0.0200044 0.0520115 0.068015 z m -0.6721487,0 h -0.076017 -0.012003 -0.1160257 -0.072016 0.0760174 0.0560124 -0.036008 0.1000221 0.040009 0.012003 0.04401 0.064014 z m -0.7321621,0 h -0.1200265 0.008 0.064014 0.028006 -0.064014 0.008 0.0640179 0.0280062 -0.064014 0.012003 0.1280278 z M -1.0049,0 h -0.056012 -0.032007 -0.04401 -0.064014 0.084018 0.056012 0.024005 0.0520115 0.068015 z m -0.6001328,0 h -0.1360301 0.012003 0.036008 0.072016 0.064014 -0.072016 0.036008 z m 4.849073,0 c 0.004,0 0.004,0 0.008,0 h 0.028006 v 0 c 0,0 -0.004,0 -0.008,0 h -0.024005 c -0.008,0 -0.020005,0 -0.024005,0 h -0.024005 c 0,0 0.012003,0 0.016004,0 z M 2.0477755,0 h 0.04401 -0.032007 z"
     style="stroke-width:0" />
  <metadata
     id="metadata1">
    <rdf:RDF>
      <cc:Work
         rdf:about="">
        <dc:title>SVG drawing</dc:title>
      </cc:Work>
    </rdf:RDF>
  </metadata>
</svg>
