<?xml version="1.0" encoding="UTF-8" standalone="no"?>
<svg
   viewBox="-1.146 0 9.3598991 9.4103393"
   width="99.936142"
   height="100"
   version="1.1"
   id="svg8"
   xmlns="http://www.w3.org/2000/svg"
   xmlns:svg="http://www.w3.org/2000/svg">
  <defs
     id="defs8" />
  <linearGradient
     id="a"
     x1="116.68862"
     x2="116.68862"
     y2="232.87497"
     gradientTransform="matrix(0.04036605,0,0,0.0404094,-1.174265,0)"
     y1="0"
     gradientUnits="userSpaceOnUse">
    <stop
       offset="0"
       stop-color="#111d2e"
       id="stop1" />
    <stop
       offset=".212"
       stop-color="#051839"
       id="stop2" />
    <stop
       offset=".407"
       stop-color="#0a1b48"
       id="stop3" />
    <stop
       offset=".581"
       stop-color="#132e62"
       id="stop4" />
    <stop
       offset=".738"
       stop-color="#144b7e"
       id="stop5" />
    <stop
       offset=".873"
       stop-color="#136497"
       id="stop6" />
    <stop
       offset="1"
       stop-color="#1387b8"
       id="stop7" />
  </linearGradient>
  <path
     d="m -0.97672866,6.0585622 c 0.5813005,1.9390145 2.37948306,3.3517771 4.50767366,3.3517771 2.5985461,0 4.7051696,-2.1066236 4.7051696,-4.7051697 C 8.2361146,2.1065832 6.1294911,0 3.530945,0 1.037407,0 -1.0029807,1.9397819 -1.1641277,4.3925687 c 0.30452344,0.5113085 0.42330374,0.8275444 0.18743944,1.6659935 z"
     fill="url(#a)"
     id="path7"
     style="fill:url(#a);stroke-width:0.0403877" />
  <path
     d="m 3.2885783,3.5267367 c 0,0.00792 0,0.015832 4.039e-4,0.023263 L 2.137609,5.2225363 C 1.9510985,5.2140549 1.7639418,5.246769 1.5864781,5.3198708 a 1.28021,1.28021 0 0 0 -0.220315,0.1163166 l -2.528231,-1.0407916 c 0,0 -0.058481,0.9624394 0.18529884,1.6797254 L 0.81054921,6.812601 C 0.90029071,7.2136511 1.1754119,7.5654281 1.5813085,7.7346527 2.2454038,8.0121163 3.0111146,7.6958805 3.2873667,7.0315024 3.3592568,6.8578352 3.3927786,6.6756866 3.3879321,6.4939418 L 5.0353473,5.3166397 c 0.013328,4.039e-4 0.02706,8.078e-4 0.040388,8.078e-4 0.9858643,0 1.7871567,-0.8037157 1.7871567,-1.7907108 0,-0.987076 -0.8012924,-1.7900646 -1.7871567,-1.7900646 -0.9854604,0 -1.7871567,0.8029886 -1.787157,1.7900646 z M 3.0123263,6.9159935 C 2.7985137,7.4293215 2.2086106,7.6728595 1.6958481,7.4592084 1.4592972,7.3606624 1.2807027,7.1801292 1.1776736,6.9648627 L 1.7594587,7.2059774 C 2.137609,7.3634895 2.5714539,7.184168 2.7286429,6.8061389 2.8863166,6.427706 2.7074394,5.9931341 2.3294911,5.835622 L 1.7280775,5.5864297 c 0.2320678,-0.088045 0.4958804,-0.091276 0.7423667,0.011309 0.2485057,0.1033926 0.4413166,0.2980614 0.5434976,0.5468497 0.1021809,0.2487884 0.101777,0.5234249 -0.00162,0.7714055 M 5.075735,4.7197092 c -0.6563005,0 -1.1906301,-0.5351373 -1.1906301,-1.1929725 0,-0.6573102 0.5343296,-1.1926091 1.1906301,-1.1926091 0.6567044,0 1.1910339,0.5352989 1.1910339,1.1926091 0,0.6578352 -0.5343295,1.1929725 -1.1910339,1.1929725 m -0.8921648,-1.19479 c 0,-0.4948707 0.4006462,-0.8962439 0.8941842,-0.8962439 0.4939418,0 0.894588,0.4013732 0.894588,0.8962439 0,0.4949112 -0.4006462,0.8959209 -0.894588,0.8959209 -0.493538,0 -0.8941842,-0.4010097 -0.8941842,-0.8959209 z"
     fill="#ffffff"
     id="path8"
     style="stroke-width:0.0403877" />
</svg>
