<?xml version="1.0" encoding="UTF-8" standalone="no"?>
<svg
   width="100"
   height="53.111538"
   xml:space="preserve"
   version="1.1"
   id="svg1"
   xmlns="http://www.w3.org/2000/svg"
   xmlns:svg="http://www.w3.org/2000/svg"><defs
   id="defs1" />
 <g
   class="layer"
   id="g1"
   transform="matrix(0.1953125,0,0,0.1953125,0,2.1036057e-4)">
  <title
   id="title1">Layer 1</title>
  <g
   class="layer"
   fill="#e60012"
   id="svg_1">
   <path
   d="M 127.1,4.13 H 68.6 C 30.7,4.13 0,34.83 0,72.73 v 130.4 c 0,37.9 30.7,68.6 68.6,68.6 h 58.5 c 1.1,0 2,-0.9 2,-2 V 6.13 c 0,-1.1 -0.8,-2 -2,-2 m -19.6,246.1 H 68.6 c -12.6,0 -24.4,-4.9 -33.3,-13.8 -8.9,-8.9 -13.8,-20.7 -13.8,-33.3 V 72.83 c 0,-12.6 4.9,-24.4 13.8,-33.3 8.9,-8.9 20.7,-13.8 33.3,-13.8 h 38.9 z M 66.8,59.33 c 13.9,0 25.2,11.3 25.2,25.2 0,13.9 -11.2,25.1 -25.2,25.1 -13.9,0 -25.1,-11.3 -25.1,-25.2 0,-13.8 11.3,-25.1 25.1,-25.1 M 199,4.13 h -41.4 c -1,0 -1.7,0.8 -1.7,1.8 v 264 c 0,1.1 0.9,2 1.9,2 H 199 c 37.9,0 68.6,-30.7 68.6,-68.6 V 72.83 C 267.7,34.93 236.9,4.23 199,4.13 m 9.8,174.3 c -15,0 -27.1,-12.1 -27.1,-27.1 0,-14.9 12.1,-27.1 27.1,-27.1 14.9,0 27.1,12.1 27.1,27.1 0,15 -12.1,27.1 -27.1,27.1"
   id="svg_2" />
   <path
   d="m 312.8,271.83 v -46 c 4.8,-3.9 22.7,-19.4 41.7,-35.7 17.1,-14.7 34.2,-29.5 51.6,-43.8 13.1,-10.8 38.1,-30.6 38.8,-50 0.9,-22.8 -15.3,-37.6 -39.4,-37.6 -14.4,0 -31.3,8 -41.6,16.7 -10.3,8.7 -23.4,20 -23.4,20 l -37.9,-41.1 c 32.2,-36.1 66.8,-54.3 102.8,-54.3 76.8,-1.9 134.7,83.7 76.3,150.8 -21.2,23.4 -45.3,45.3 -70,64.7 H 512 v 56.3 z"
   id="svg_3" />
  </g>
 </g>
</svg>
