<?xml version="1.0" encoding="UTF-8" standalone="no"?>
<!-- Created with Inkscape (http://www.inkscape.org/) -->

<svg
   width="100"
   height="100"
   viewBox="0 0 100 100"
   version="1.1"
   id="svg1"
   xml:space="preserve"
   xmlns="http://www.w3.org/2000/svg"
   xmlns:svg="http://www.w3.org/2000/svg"><defs
     id="defs1" /><g
     id="layer1"><g
       id="g1"
       transform="scale(0.1)"><path
         fill="#e60012"
         d="M 0,0 H 1000 V 1000 H 0 Z"
         style="display:inline;stroke-width:3.52734"
         id="path1" /><path
         fill="#ffffff"
         d="m 452.91,852.205 h 23.633 V 746.385 H 452.91 Z M 330.159,680.07 l 27.866,37.39 h 10.934 v -56.085 h -11.287 v 37.037 L 330.159,661.727 H 318.87 v 56.085 h 11.288 z m 126.278,-18.695 h -47.619 v 11.993 h 17.99 v 44.091 H 438.8 V 673.37 h 17.636 z m -73.015,161.552 -22.575,-76.896 h -18.695 l -22.223,76.543 -20.458,-76.543 h -22.928 l 29.983,105.82 h 25.396 l 19.753,-69.841 19.754,69.84 h 25.396 L 426.808,746.03 H 403.88 Z M 542.504,592.944 h 69.136 c 63.492,0 114.991,-51.499 114.991,-114.99 V 259.258 c 0,-63.492 -51.499,-114.99 -114.99,-114.99 h -69.49 c -1.763,0 -2.821,1.41 -2.821,2.82 V 589.77 a 3.16,3.16 0 0 0 3.174,3.174 m 85.362,-247.266 c 25.044,0 45.503,20.459 45.503,45.503 0,25.044 -20.459,45.502 -45.503,45.502 -25.044,0 -45.503,-20.458 -45.503,-45.502 0.353,-25.044 20.459,-45.503 45.503,-45.503 M 276.543,661.376 h -12.345 v 56.084 h 12.345 z m -93.827,18.695 27.866,37.39 h 10.935 v -56.085 h -11.288 v 37.037 l -27.513,-36.685 h -11.287 v 56.085 h 11.287 z m 33.157,107.936 h -0.705 c -13.052,-2.116 -23.986,-4.233 -25.045,-11.64 0,-1.058 0,-3.527 1.764,-5.997 3.527,-4.232 11.64,-5.996 23.633,-5.996 13.757,0 27.514,5.29 32.452,7.407 l 7.407,-18.342 c -5.29,-2.116 -22.222,-8.113 -40.917,-8.113 -22.928,0 -47.266,11.288 -47.266,31.746 0,16.579 11.64,25.397 41.975,30.688 21.517,3.527 33.157,5.644 32.804,14.815 -0.352,4.938 -4.233,13.404 -28.218,13.404 -19.4,0 -33.157,-7.055 -37.743,-9.877 l -9.876,17.99 c 5.29,2.822 23.28,11.287 46.208,11.287 33.51,0 51.499,-11.64 51.499,-33.862 0.353,-15.873 -7.408,-26.455 -47.972,-33.51 M 347.795,279.012 c 0,23.28 19.048,42.328 42.328,42.328 23.28,0 42.328,-19.047 42.328,-42.328 0,-23.28 -19.047,-42.328 -42.328,-42.328 -23.633,0 -42.328,18.695 -42.328,42.328 M 541.093,707.231 H 508.995 V 694.18 h 29.63 v -10.23 h -29.63 v -11.992 h 32.098 v -10.23 h -43.738 v 56.085 h 43.738 z m 262.434,-47.619 c -16.578,0 -29.982,13.404 -29.982,29.982 0,16.579 13.404,29.983 29.982,29.983 16.579,0 29.983,-13.404 29.983,-29.983 -0.353,-16.578 -13.757,-29.982 -29.983,-29.982 m 0,47.266 c -9.523,0 -17.284,-7.76 -17.284,-17.284 0,-9.524 7.76,-17.284 17.284,-17.284 9.524,0 17.284,7.76 17.284,17.284 0,9.524 -7.76,17.284 -17.284,17.284 m 3.528,81.129 h -49.383 v -41.623 h -21.87 v 105.82 h 21.87 v -42.327 h 49.383 v 42.328 h 21.87 v -105.82 h -21.87 z m 30.687,53.263 h 4.586 v 10.935 h 2.47 V 841.27 h 4.232 v -2.47 h -11.288 z m 24.34,-2.822 -3.528,9.877 -3.528,-9.877 h -3.88 v 13.404 h 2.47 v -10.23 l 3.527,10.23 h 2.469 l 3.527,-10.23 v 10.23 h 2.47 V 838.448 Z M 665.607,766.49 a 33.47,33.47 0 0 1 28.925,16.579 l 17.284,-14.815 c -10.582,-15.52 -27.866,-25.044 -46.914,-25.044 -31.04,0 -56.437,25.397 -56.437,56.437 0,31.04 25.396,56.438 56.437,56.438 19.048,0 36.332,-9.171 46.914,-25.044 l -17.284,-14.815 c -5.997,9.876 -16.932,16.578 -28.925,16.578 -18.342,0 -33.51,-14.815 -33.51,-32.804 0,-17.989 14.816,-33.51 33.51,-33.51 m -163.315,2.117 h 33.862 v 83.245 h 22.928 v -83.245 h 33.157 v -22.575 h -89.594 v 22.575 z m 135.45,-51.147 v -56.084 h -11.288 v 37.037 l -27.513,-36.685 h -11.288 v 56.085 h 11.288 v -37.39 l 27.866,37.39 h 10.934 z M 491.004,144.268 h -98.06 c -63.492,0 -114.99,51.5 -114.99,114.991 v 218.695 c 0,63.492 51.498,114.991 114.99,114.991 h 98.06 a 3.16,3.16 0 0 0 3.175,-3.174 V 147.443 a 3.16,3.16 0 0 0 -3.175,-3.175 M 458.2,556.966 h -65.256 c -21.164,0 -40.917,-8.112 -55.732,-23.28 -14.814,-14.815 -23.28,-34.568 -23.28,-55.732 V 259.26 c 0,-21.164 8.113,-40.917 23.28,-55.732 14.815,-14.814 34.568,-23.28 55.732,-23.28 H 458.2 Z m 250.088,104.41 h -23.28 v 56.084 h 23.28 c 15.873,0 28.924,-12.698 28.924,-27.866 0,-15.52 -13.05,-28.218 -28.924,-28.218 m 0.706,44.444 h -12.346 v -32.45 h 12.346 c 8.818,0 16.225,7.407 16.225,16.225 0,8.818 -7.407,16.226 -16.225,16.226"
         style="display:inline;stroke-width:3.52734"
         id="path2" /></g></g></svg>
