<?xml version="1.0" encoding="UTF-8" standalone="no"?>
<!-- Created with Inkscape (http://www.inkscape.org/) -->

<svg
   width="100"
   height="100"
   viewBox="0 0 100 100"
   version="1.1"
   id="svg1"
   xml:space="preserve"
   xmlns="http://www.w3.org/2000/svg"
   xmlns:svg="http://www.w3.org/2000/svg"><defs
     id="defs1" /><g
     id="layer1"><path
       d="m 6.1133,71.057685 3.8476,5.1953 h 1.5235 v -7.7539 h -1.582 v 5.0977 l -3.8086,-5.0977 H 4.5312 v 7.754 h 1.582 z m 37.871,-2.5781 h -6.582 v 1.6406 h 2.4805 v 6.1328 h 1.6602 v -6.1132 h 2.4218 z m -0.4687,26.3672 h 3.2617 v -14.6485 h -3.2617 z m -17.0116,-23.789 3.8477,5.1952 h 1.5234 v -7.7539 h -1.582 v 5.0977 l -3.8086,-5.0977 H 24.922 v 7.754 h 1.582 z m 7.3633,19.7655 -3.1055,-10.625 h -2.5976 l -3.086,10.586 -2.8125,-10.586 H 19.082 l 4.1407,14.6485 h 3.5156 l 2.7344,-9.6485 2.7148,9.6485 h 3.5352 l 4.1601,-14.6485 h -3.1836 z m -23.2617,-4.8632 c -2.1094,-0.3516 -3.4766,-0.7422 -3.4766,-1.7188 0,-1.1328 1.5234,-1.582 3.5547,-1.582 1.8945,0 3.8086,0.7226 4.4726,1.0156 l 1.0352,-2.539 c -0.7422,-0.293 -3.0664,-1.1329 -5.664,-1.1329 -3.1641,0 -6.5235,1.543 -6.5235,4.3946 0,2.3242 1.6406,3.496 5.8399,4.2187 2.9492,0.5078 4.5898,0.7813 4.5507,2.0703 -0.0195,0.7032 -0.5664,1.875 -3.9062,1.875 -2.6758,0 -4.5703,-0.9765 -5.2344,-1.3672 l -1.3867,2.5 c 0.7422,0.3907 3.2226,1.543 6.4062,1.543 4.6485,0 7.1094,-1.621 7.1094,-4.668 0.0195,-1.7578 -0.586,-3.5937 -6.7773,-4.6093 m 8.4765,-17.4805 h -1.7187 v 7.7539 h 1.7187 z m 50,7.7539 v -7.7539 h -1.5625 v 5.0977 l -3.8086,-5.0977 h -1.5625 v 7.7539 h 1.582 v -5.1953 l 3.8477,5.1953 z m -13.3789,-1.4258 H 51.25 v -1.8163 h 4.121 v -1.4062 H 51.25 v -1.6798 h 4.4531 v -1.4258 H 49.668 v 7.7539 h 6.0351 z m 36.289,-6.582 c -2.285,0 -4.1405,1.8555 -4.1405,4.1406 0,2.2852 1.8554,4.1406 4.1406,4.1406 2.2851,0 4.1406,-1.8554 4.1406,-4.1406 0,-2.2851 -1.8555,-4.1406 -4.1406,-4.1406 m 0,6.5625 c -1.3281,0 -2.4024,-1.0742 -2.4024,-2.4219 0,-1.3281 1.0743,-2.4219 2.4024,-2.4219 1.3281,0 2.4023,1.0743 2.4023,2.422 0.0196,1.328 -1.0742,2.4218 -2.4023,2.4218 m 0.5273,11.1914 h -6.836 v -5.7617 h -3.0273 v 14.6484 h 3.0274 v -5.8398 h 6.836 v 5.8398 h 3.0273 v -14.6484 H 92.5196 Z M 50.332,83.323285 H 55 v 11.543 h 3.1445 v -11.5429 h 4.5703 v -3.1054 H 50.332 Z m 22.5782,-0.332 c 1.6601,0 3.1835,0.879 4.0234,2.2656 l 2.3828,-2.0703 c -1.4648,-2.168 -3.8672,-3.457 -6.4844,-3.457 -4.2968,0 -7.8125,3.496 -7.8125,7.8125 0,4.3165 3.5157,7.8125 7.8125,7.8125 2.6172,0 5.039,-1.289 6.4844,-3.457 l -2.3828,-2.0703 c -0.8203,1.3867 -2.3633,2.2656 -4.0234,2.2656 -2.5586,0 -4.6485,-2.0508 -4.6485,-4.5508 0,-2.5 2.0899,-4.5508 4.6485,-4.5508 m 5.9375,-14.5117 h -3.2032 v 7.7539 h 3.2032 c 2.207,0 3.9843,-1.7383 3.9843,-3.8867 0,-2.1485 -1.7773,-3.8672 -3.9843,-3.8672 m 0.078,6.1328 h -1.6991 v -4.4922 h 1.6992 c 1.25,0 2.246,1.0156 2.246,2.2461 0.0196,1.25 -0.996,2.2461 -2.246,2.2461 M 24.8242,5.4523853 H 13.3984 C 5.9961,5.4522853 0,11.448285 0,18.850685 v 25.4687 c 0,7.4024 5.996,13.3985 13.3984,13.3985 h 11.4258 a 0.392,0.392 0 0 0 0.3906,-0.3906 V 5.8428853 c 0,-0.2149 -0.1562,-0.3906 -0.3906,-0.3906 M 20.9961,53.518685 h -7.5977 c -2.4609,0 -4.7656,-0.957 -6.5039,-2.6954 -1.7382,-1.7382 -2.6953,-4.043 -2.6953,-6.5039 v -25.4492 c 0,-2.461 0.957,-4.7656 2.6953,-6.5039 1.7383,-1.7383 4.043,-2.6952997 6.504,-2.6952997 h 7.5976 z m -7.9492,-37.2853 c 2.7148,0 4.9219,2.207 4.9219,4.9219 0,2.7148 -2.1875,4.9023 -4.922,4.9023 -2.7148,0 -4.9023,-2.207 -4.9023,-4.9219 0,-2.6953 2.207,-4.9023 4.9024,-4.9023 M 38.8672,5.4522853 h -8.086 c -0.1953,0 -0.332,0.1562 -0.332,0.3515 V 57.366385 c 0,0.2149 0.1758,0.3906 0.3711,0.3906 h 8.0469 c 7.4023,0 13.3984,-5.996 13.3984,-13.3984 v -25.4884 C 52.2852,11.467885 46.2696,5.4717853 38.8672,5.4521853 m 1.914,34.0429997 c -2.9296,0 -5.293,-2.3633 -5.293,-5.293 0,-2.9101 2.3634,-5.293 5.293,-5.293 2.9102,0 5.293,2.3634 5.293,5.293 0,2.9297 -2.3633,5.293 -5.293,5.293 m 20.3127,18.2422 v -8.9844 c 0.9375,-0.7617 4.4335,-3.789 8.1445,-6.9726 3.3398,-2.8711 6.6797,-5.7617 10.0781,-8.5547 2.5586,-2.1094 7.4414,-5.9766 7.5781,-9.7656 0.1758,-4.4532 -2.9882,-7.3438 -7.6953,-7.3438 -2.8125,0 -6.1133,1.5625 -8.125,3.2617 -2.0117,1.6993 -4.5703,3.9063 -4.5703,3.9063 l -7.4023,-8.0274 C 65.3906,8.2061853 72.1484,4.6514853 79.1796,4.6514853 c 15,-0.3711 26.3087,16.3475997 14.9024,29.4529997 -4.1406,4.5704 -8.8476,8.8478 -13.6718,12.6368 H 100 v 10.9961 z"
       style="fill:#e60012;stroke-width:0.195312"
       id="path1" /></g></svg>
