<?xml version="1.0" encoding="UTF-8" standalone="no"?>
<svg
   height="98.129356"
   viewBox="14.671 16.966 7.2748806 7.2517798"
   width="100.00001"
   version="1.1"
   id="svg1"
   xmlns="http://www.w3.org/2000/svg"
   xmlns:svg="http://www.w3.org/2000/svg">
  <defs
     id="defs1" />
  <path
     d="m 19.87444,16.966075 -0.347942,0.0028 H 18.92968 v 7.248861 h 1.240853 c 1.006075,0 1.828326,-0.842852 1.832349,-1.848074 h 8.1e-5 v -0.0058 -3.245771 h 4.88e-4 v -0.296622 c 0,-1.008513 -0.823917,-1.855469 -1.832431,-1.855469 z m -3.428092,0 c -1.006035,0 -1.828286,0.842852 -1.832349,1.848074 h -8.1e-5 v 3.251541 h -4.88e-4 v 0.296621 c 0,1.008513 0.823958,1.855469 1.832471,1.855469 h 1.714838 v -7.248902 h -1.41781 v -0.0028 z m 0.02308,0.598931 v 7.32e-4 h 0.273461 v 0.969139 -0.969139 h 0.821032 v 6.055224 h -0.821479 v -1.555232 1.555232 h -0.252413 c -0.950326,-0.08679 -1.240812,-0.641638 -1.279292,-1.400907 V 22.06573 h 1.531705 l -1.531705,-4e-5 v -2.947484 h 0.55452 a 0.68344851,0.68344851 0 0 0 -0.0016,0.03186 0.68344851,0.68344851 0 0 0 0.683448,0.683449 0.68344851,0.68344851 0 0 0 0.683449,-0.683449 0.68344851,0.68344851 0 0 0 -0.38764,-0.615185 0.68344851,0.68344851 0 0 0 -0.295809,-0.06826 0.68344851,0.68344851 0 0 0 -0.681823,0.651551 h -0.55456 v -0.143353 c 0.03596,-0.759189 0.320717,-1.316268 1.258691,-1.409806 z m 3.903418,2.65907 c 0.408444,0 0.734321,0.325877 0.734321,0.734362 0,0.408484 -0.325877,0.734321 -0.734321,0.734321 -0.408444,0 -0.734321,-0.325877 -0.734321,-0.734321 0,-0.408444 0.325877,-0.734362 0.734321,-0.734362 z"
     fill="#ff0001"
     id="path1"
     style="stroke-width:0.0406331" />
</svg>
