<?xml version="1.0" encoding="UTF-8" standalone="no"?>
<svg
   height="91.869492"
   viewBox="0 -44.635 13.062 13.783823"
   width="100"
   version="1.1"
   id="svg1"
   xmlns="http://www.w3.org/2000/svg"
   xmlns:svg="http://www.w3.org/2000/svg">
  <defs
     id="defs1" />
  <path
     d="m 10.248731,-37.815731 c -0.699253,1.587116 -2.138102,2.417776 -3.674907,2.398571 -2.947902,-0.146201 -3.805394,-3.550532 -1.835363,-4.77959 l 0.0867,0.08665 c -0.03363,0.04411 -0.147946,0.136828 -0.33219,0.497275 -0.214614,0.438004 -0.280042,0.874538 -0.254679,1.147596 0.153414,2.379779 3.482714,2.863775 4.629483,0.511288 1.459708,-3.226978 -2.409414,-6.504222 -5.844666,-3.999516 l -0.07935,-0.07926 c 0.903576,-1.417759 2.669147,-2.052321 4.355415,-1.62833 2.578633,0.644624 3.962898,3.334309 2.949602,5.845263 z m -2.756169,-0.05114 c -0.23869,0.343631 -0.636169,0.568629 -1.086257,0.568629 -0.730084,0 -1.32187,-0.591786 -1.32187,-1.321869 0,-0.697784 0.540694,-1.269215 1.22598,-1.318332 0.426747,-0.01714 0.824411,0.213466 1.013755,0.587375 0.204092,0.403177 0.12943,0.900452 -0.188517,1.235767 z m -4.61161,-0.872976 c -0.06373,0.52498 -0.02403,0.688916 -0.02417,0.751311 l -0.116611,0.04241 c -0.04411,-0.08633 -0.156079,-0.390542 -0.205425,-0.799324 -0.126214,-1.560789 0.9373,-2.967292 2.556211,-3.229092 1.484749,-0.218244 2.904392,0.703894 3.236904,1.994658 l -0.116933,0.04259 c -0.03474,-0.03846 -0.09676,-0.142893 -0.321164,-0.370372 -1.790611,-1.798928 -4.604902,-0.973827 -5.008814,1.567819 z m 8.492402,-0.865578 c -0.105998,-5.158048 -6.957067,-7.080387 -9.594695,-2.246857 0.116565,0.08431 0.277836,0.198441 0.394401,0.282752 -0.202071,0.424405 -0.336785,0.856666 -0.410482,1.287594 a 4.8736412,4.8736412 0 0 0 -0.07811,0.870679 c 0,2.676682 2.16985,4.846532 4.846533,4.846532 2.676681,0 4.846532,-2.16985 4.846532,-4.846578 0,-0.06501 -0.0017,-0.12966 -0.0042,-0.194122 m 2.659517,6.512814 h -0.773502 v 2.194064 h -0.599827 v -2.194064 h -0.777408 v -0.568262 h 2.150737 z m -3.671369,0 v 0.639294 h 1.172085 v 0.457761 h -1.172085 v 1.097009 H 9.761747 v -2.762326 h 1.890222 v 0.568262 z m -1.452035,0.812878 c 0,-0.497183 -0.315649,-0.860249 -0.797165,-0.860249 -0.280133,0 -0.489326,0.106549 -0.615585,0.244663 l 0.09474,0.09474 c -0.146063,0.122309 -0.276274,0.292033 -0.276274,0.595875 0,0.418293 0.295984,0.785219 0.797165,0.785219 0.481469,0 0.797164,-0.362974 0.797164,-0.860249 z m 0.607729,0 c 0,0.81297 -0.584066,1.428556 -1.404848,1.428556 -0.840538,0 -1.404848,-0.603731 -1.404848,-1.333815 0,-0.473567 0.185439,-0.816922 0.457715,-1.041828 l -0.09465,-0.09469 c 0.209147,-0.217049 0.591878,-0.386728 1.041782,-0.386728 0.820782,0 1.404848,0.623488 1.404848,1.42851 z m -3.694664,-0.264374 c 0.473521,0.165774 0.718184,0.378872 0.718184,0.805022 0,0.572213 -0.438004,0.887908 -0.954944,0.887908 -0.477518,0 -0.844535,-0.213052 -0.998409,-0.607729 l 0.477472,-0.355117 c 0.08684,0.248614 0.311744,0.402488 0.536697,0.402488 0.197292,0 0.339403,-0.106595 0.339403,-0.284131 0,-0.165728 -0.106594,-0.268325 -0.501226,-0.410391 -0.426196,-0.153919 -0.741891,-0.367017 -0.741891,-0.824732 0,-0.442002 0.367017,-0.777408 0.899762,-0.777408 0.422245,0 0.749795,0.169633 0.903714,0.505085 l -0.477564,0.331455 c -0.09074,-0.205195 -0.232763,-0.319601 -0.449812,-0.319601 -0.181533,0 -0.315696,0.09865 -0.315696,0.240712 0,0.16173 0.149922,0.260422 0.56431,0.406439 z m -2.049426,-1.116766 h 0.599781 v 2.762326 H 3.773085 Z m -1.234755,2.233532 c 0.256471,0 0.402488,-0.118357 0.402488,-0.347215 0,-0.228903 -0.146017,-0.34726 -0.402488,-0.34726 H 2.206875 v 0.694475 z m -0.331455,-1.704738 v 0.584021 H 2.52257 c 0.185439,0 0.311745,-0.106549 0.311745,-0.292034 0,-0.185438 -0.126306,-0.291987 -0.311745,-0.291987 z m 1.333815,1.412751 c 0,0.477472 -0.37492,0.820781 -0.978652,0.820781 H 1.607002 v -2.762326 h 0.919566 c 0.532699,0 0.883957,0.256471 0.883957,0.666862 0,0.31179 -0.146017,0.50118 -0.363066,0.59197 0.291987,0.1105 0.493277,0.31179 0.493277,0.682713 z m -2.230592,-1.941545 v 1.657414 c 0,0.659051 -0.402533,1.152282 -1.140474,1.152282 -0.73794,0 -1.140474,-0.493231 -1.140474,-1.152328 v -1.657368 h 0.599826 v 1.610044 c 0,0.402487 0.189436,0.631391 0.540648,0.631391 0.351212,0 0.540602,-0.228858 0.540602,-0.631391 v -1.610044 z"
     id="path1"
     style="stroke-width:0.0459461" />
</svg>
