<?xml version="1.0" encoding="UTF-8" standalone="no"?>
<!-- Created with Inkscape (http://www.inkscape.org/) -->

<svg
   width="100"
   height="100"
   viewBox="0 0 100 100"
   version="1.1"
   id="svg1"
   xml:space="preserve"
   xmlns="http://www.w3.org/2000/svg"
   xmlns:svg="http://www.w3.org/2000/svg"><defs
     id="defs1" /><g
     id="layer1"><g
       id="g2"
       transform="matrix(0.54141852,0,0,0.54141852,-3.22e-7,34.079709)">
  <path
   d="M 56.6,29.4 C 56,-0.8 16,-11.9 0.6,16.2 c 0.7,0.6 1.7,1.3 2.2,1.7 -1.1,2.4 -2,5 -2.4,7.4 C 0.2,27 0,28.7 0,30.5 c 0,15.6 12.7,28.3 28.3,28.3 15.6,0 28.3,-12.7 28.3,-28.3 0,-0.4 0,-0.7 0,-1.1 z m -49.5,5 c -0.4,3 -0.2,4.1 -0.2,4.5 L 6.2,39.1 C 6,38.5 5.2,36.8 5,34.4 4.3,25.3 10.4,17.1 19.9,15.6 c 8.8,-1.3 16.9,4.1 19,11.7 l -0.7,0.2 C 38,27.3 37.6,26.8 36.3,25.3 25.9,14.7 9.3,19.5 7.1,34.4 Z m 26.8,5.1 c -1.5,2 -3.7,3.4 -6.3,3.4 -4.3,0 -7.8,-3.5 -7.8,-7.8 0,-4.1 3.2,-7.4 7.3,-7.6 v 0 c 2.4,-0.2 4.8,1.3 6,3.4 1.1,2.4 0.7,5.2 -1.1,7.3 0.6,0.3 1.3,0.9 1.9,1.3 z m 16.2,0.3 C 46,49.1 37.6,54 28.7,53.8 11.4,52.9 6.3,33.1 17.9,25.9 l 0.6,0.6 c -0.2,0.2 -0.9,0.7 -1.9,3 -1.3,2.6 -1.7,5 -1.5,6.7 0.9,14 20.3,16.8 27,3 C 50.5,20.2 27.9,1 7.8,15.7 L 7.4,15.1 C 12.6,6.9 22.9,3.2 32.7,5.6 47.9,9.5 56,25.1 50.1,39.8 Z"
   id="path1">
  </path>
  <path
   d="m 84.2,18.2 v 13 c 0,5.2 -3.2,9.1 -8.9,9.1 -5.8,0 -8.9,-3.9 -8.9,-9.1 v -13 h 4.7 v 12.7 c 0,3.2 1.5,5 4.3,5 2.8,0 4.3,-1.9 4.3,-5 V 18.2 Z m 17.6,15.7 c 0,3.7 -3,6.5 -7.8,6.5 h -7.6 v -22 h 7.3 c 4.3,0 7.1,2 7.1,5.2 0,2.4 -1.1,3.9 -2.8,4.7 2.2,0.9 3.8,2.6 3.8,5.6 z M 91.2,22.7 v 4.7 h 2.4 C 95.1,27.4 96,26.5 96,25.2 96,23.9 95.1,23 93.6,23 Z m 2.6,13.4 c 2,0 3.2,-0.9 3.2,-2.8 0,-1.9 -1.1,-2.8 -3.2,-2.8 h -2.6 v 5.4 z m 9.9,-17.7 h 4.7 v 21.8 h -4.7 z m 16,9 c 3.7,1.3 5.6,3 5.6,6.3 0,4.5 -3.5,7.1 -7.6,7.1 -3.7,0 -6.7,-1.7 -7.8,-4.8 l 3.7,-2.8 c 0.7,2 2.4,3.2 4.3,3.2 1.5,0 2.6,-0.9 2.6,-2.2 0,-1.3 -0.9,-2 -3.9,-3.2 -3.4,-1.3 -6,-3 -6,-6.5 0,-3.5 3,-6.1 7.1,-6.1 3.4,0 6,1.3 7.1,3.9 l -3.7,2.6 c -0.7,-1.7 -1.9,-2.6 -3.5,-2.6 -1.5,0 -2.4,0.7 -2.4,1.9 0.1,1.1 1.4,2 4.5,3.2 z m 29.3,2 c 0,6.3 -4.7,11.2 -11.2,11.2 -6.7,0 -11.2,-4.8 -11.2,-10.4 0,-3.7 1.5,-6.5 3.5,-8.2 l -0.7,-0.7 c 1.7,-1.7 4.7,-3 8.2,-3 6.7,-0.3 11.4,4.8 11.4,11.1 z m -4.9,0 c 0,-3.9 -2.4,-6.7 -6.3,-6.7 -2.2,0 -3.9,0.9 -4.8,1.9 l 0.7,0.7 c -1.1,0.9 -2.2,2.2 -2.2,4.7 0,3.4 2.4,6.1 6.3,6.1 3.9,0 6.3,-2.8 6.3,-6.7 z m 11.6,-6.3 v 5 h 9.3 v 3.5 h -9.3 v 8.6 h -4.8 V 18.4 h 14.9 v 4.5 h -10.1 z m 29,0 h -6.1 v 17.3 h -4.7 V 23.1 h -6.3 v -4.7 h 16.9 v 4.7 z"
   id="path2">
  </path>
 </g></g></svg>
