<?xml version="1.0" encoding="UTF-8" standalone="no"?>
<!-- Created with Inkscape (http://www.inkscape.org/) -->

<svg
   width="100"
   height="100"
   viewBox="0 0 100 100"
   version="1.1"
   id="svg1"
   xml:space="preserve"
   xmlns="http://www.w3.org/2000/svg"
   xmlns:svg="http://www.w3.org/2000/svg"><defs
     id="defs1" /><g
     id="layer1"><path
       d="M 81.8043,33.496071 C 79.7187,16.095171 66.281,8.6811709 60.1325,6.1792709 c -1.6235,-0.666 -3.3137,-1.1656 -5.0412,-1.457 C 31.005,0.72597086 19.8278,19.958271 18.4083,22.614271 c -0.0875,0.1664 -0.0334,0.3746 0.1331,0.4703 l 2.4187,1.4362 c 0.154,0.0916 0.2164,0.2873 0.1415,0.4496 -9.2707,20.3272 3.3011,34.3643 8.3007,38.8852 1.02,0.9158 2.1272,1.7484 3.3136,2.4602 21.4845,12.9174 38.5064,-2.939 38.5064,-2.939 14.6657,-13.167 10.582,-29.8809 10.582,-29.8809 m -53.9256,3.4802 c -2.6476,5.2285 -2.044,9.9825 -2.252,11.2105 -0.1957,1.1531 -0.9242,0.1416 -1.0117,0.0125 a 0.09,0.09 0 0 0 -0.0166,-0.025 c -1.5028,-2.5643 -1.1656,-8.4755 -1.1406,-8.8668 0,-0.0125 0.004,-0.025 0.004,-0.0417 0.5454,-3.0638 2.2521,-7.7345 3.7258,-9.2124 1.4986,-1.4986 2.5227,-3.7299 8.1467,-6.4607 5.6448,-2.71 11.3354,-2.3145 16.7097,0 5.3742,2.3145 9.4371,8.2091 9.8576,10.6694 0.3746,2.1813 -1.0074,0.6744 -1.2988,0.333 -0.0292,-0.0333 -0.05,-0.0666 -0.0625,-0.1082 -0.0666,-0.1915 -0.587,-1.074 -4.5333,-4.167 -4.625,-3.605 -10.7943,-4.625 -15.544,-3.397 -4.7915,1.2198 -9.9368,4.8248 -12.5844,10.0534 m 28.3199,12.5926 c -5.9737,6.4274 -11.7892,1.7317 -12.0182,1.5444 a 0.06,0.06 0 0 0 -0.0166,-0.0125 c -5.8613,-4.2503 -2.6975,-10.8026 -2.4436,-11.298 0.008,-0.0208 0.0208,-0.0374 0.0333,-0.054 3.9339,-5.1412 7.9843,-4.5168 10.0866,-3.6634 0.8742,0.3539 1.6443,0.9158 2.2937,1.6027 3.8548,4.2295 1.1531,8.5547 0.3247,9.6786 a 0.353,0.353 0 0 0 0.075,0.4954 l 1.6151,1.1781 a 0.355,0.355 0 0 1 0.05,0.5287 m 19.2948,-2.069 c 0,0 -6.5233,19.9612 -27.7121,17.7964 0,0 -13.9705,-2.0398 -16.2934,-16.822 0,-0.008 -0.004,-0.0209 -0.004,-0.0292 -0.0874,-0.3497 -1.8233,-7.747 6.848,-14.3743 0.008,-0.008 0.0207,-0.0125 0.029,-0.0208 0.0917,-0.0541 0.4996,-0.2664 0.3164,0.512 -0.2081,0.8742 -2.7516,1.6235 -3.7715,9.125 -1.0199,7.5014 5.291,11.9598 6.9187,13.0838 1.6235,1.124 11.8766,5.187 19.5654,-2.2937 7.5056,-7.3017 6.4316,-16.7097 6.3774,-17.1551 0,-0.0125 -0.004,-0.0208 -0.004,-0.0333 -0.0125,-0.4205 -0.3622,-8.9751 -8.9585,-15.9854 -8.667,-7.0685 -19.3489,-4.9704 -19.7027,-4.8996 -0.004,0 -0.0125,0.004 -0.0167,0.004 -0.2206,0.0333 -4.5833,0.7202 -11.223,5.062 -0.0625,0.0417 -0.1457,0.1041 -0.1874,0.1666 -0.1249,0.1873 -0.5203,0.6036 -1.228,0.3122 -0.7077,-0.2914 -0.562,-0.4163 0.3538,-1.353 0.845,-0.8658 1.3363,-1.4112 1.407,-1.4903 0.004,-0.008 0.0126,-0.0124 0.0167,-0.0208 0.3372,-0.437 12.1556,-15.5190001 33.0614,-5.9695 0.5203,0.229 0.999,0.4995 1.4778,0.8118 3.913,2.4436 19.2698,13.5709 12.73,33.5733 M 9.9886774e-5,76.881271 H 3.8756999 a 0.3535,0.3535 0 0 1 0.3539,0.3538 v 11.7725 c 0,0.0292 0.004,0.0583 0.008,0.0833 0.0874,0.3622 0.7992,2.8515 3.4052,2.8515 2.7933001,0 3.6675001,-2.4394 3.6675001,-2.8557 v -11.8766 a 0.3535,0.3535 0 0 1 0.3538,-0.3538 h 3.4177 a 0.3535,0.3535 0 0 1 0.3539,0.3538 v 11.627 c 0,0.1665 0,0.333 -0.0209,0.4995 -0.1665,1.3321 -1.2488,6.4191 -7.6887001,6.4191 -6.0029,0 -7.33500001,-4.271 -7.62640001,-5.8987 -0.0624,-0.3123 -0.0832,-0.6245 -0.0832,-0.9575 v -12.0224 z M 27.1502,85.818871 c 0,0 2.2521,-0.9783 2.2521,-4.3752 0,-3.3969 -3.9172,-4.5833 -5.7322,-4.5833 h -6.003 c -0.1956,0 -0.3538,0.154 -0.3538,0.3497 -0.0291,2.5851 -0.1873,18.5913 0.004,18.5913 h 7.2933 c 0.3122,0 0.6452,-0.0416 0.9574,-0.1249 1.3113,-0.3538 4.5417,-1.5819 4.5417,-5.1869 0,-4.5042 -2.9598,-4.6707 -2.9598,-4.6707 m -5.853,-5.0537 a 0.3546,0.3546 0 0 1 0.3456,-0.3539 c 0.462,-0.0124 1.3196,-0.0333 2.1563,-0.0333 0.7701,0 1.7276,0.7702 1.7276,1.915 0,0.7285 -0.4163,1.2072 -0.791,1.4986 a 2.056,2.056 0 0 1 -1.1864,0.3746 h -1.894 a 0.3535,0.3535 0 0 1 -0.3539,-0.3538 v -3.0472 z m 2.6643,11.4936 h -2.3146 a 0.3535,0.3535 0 0 1 -0.3538,-0.3538 v -3.7424 c 0,-0.1915 0.1498,-0.3455 0.3413,-0.3539 0.5287,-0.0166 1.5944,-0.05 2.6185,-0.05 0.9158,0 2.0647,0.916 2.0647,2.2938 0,0.8534 -0.4787,1.4154 -0.9366,1.7692 -0.4205,0.2914 -0.92,0.4371 -1.4195,0.4371 m 8.001,-15.3775 h 3.501 a 0.3535,0.3535 0 0 1 0.3538,0.3538 v 18.1916 a 0.3535,0.3535 0 0 1 -0.3539,0.3539 h -3.501 a 0.3535,0.3535 0 0 1 -0.3538,-0.3539 v -18.1916 a 0.3535,0.3535 0 0 1 0.3539,-0.3539 m 5.0037,15.0612 2.9015,-2.2854 c 0.1665,-0.1332 0.4121,-0.0874 0.5245,0.0958 0.4455,0.741 1.6444,2.3978 3.5343,2.3978 2.4394,0 2.2521,-2.4186 2.2521,-2.4186 0,0 0.0624,-1.228 -3.1263,-2.2105 -3.1887,-0.9783 -5.2285,-3.0014 -5.0828,-5.3534 0.1457,-2.3354 1.7692,-4.854 4.167,-5.291 2.327,-0.4246 5.2826,-0.3788 7.568,2.7724 0.1166,0.1582 0.0791,0.3789 -0.079,0.4954 l -2.5477,1.8608 c -0.1707,0.125 -0.4121,0.075 -0.5162,-0.1082 -0.3622,-0.6286 -1.3113,-1.8608 -3.1346,-1.686 -2.4395,0.229 -1.9816,2.2521 -1.3322,2.8974 0.5828,0.5828 3.605,1.6651 4.292,1.9149 0.0999,0.0416 0.412,0.1582 0.5286,0.204 l 0.025,0.0125 c 0.7035,0.3413 3.1138,1.7359 3.2387,3.684 0.1665,2.3354 0.229,4.4793 -3.2304,6.211 -3.4635,1.7068 -7.9635,0.0791 -9.9825,-3.1929 m 46.3617,-3.7465 h -7.4597 a 0.3535,0.3535 0 0 0 -0.3539,0.3538 v 6.877 a 0.3535,0.3535 0 0 1 -0.3538,0.3539 h -3.1888 a 0.3535,0.3535 0 0 1 -0.3538,-0.3539 v -18.1291 a 0.3535,0.3535 0 0 1 0.3538,-0.3538 h 11.8142 a 0.3535,0.3535 0 0 1 0.3538,0.3538 v 3.3137 a 0.3535,0.3535 0 0 1 -0.3538,0.3538 h -7.8761 a 0.3535,0.3535 0 0 0 -0.3539,0.3538 v 3.2929 a 0.3535,0.3535 0 0 0 0.3539,0.3538 h 7.4182 m 7.3766,10.457 v -14.0246 a 0.3535,0.3535 0 0 0 -0.3539,-0.3538 h -4.4168 a 0.3535,0.3535 0 0 1 -0.3538,-0.3538 v -3.397 a 0.3535,0.3535 0 0 1 0.3538,-0.3538 h 13.7125 a 0.3535,0.3535 0 0 1 0.3538,0.3539 v 3.3969 a 0.3535,0.3535 0 0 1 -0.3538,0.3538 h -4.2753 a 0.3535,0.3535 0 0 0 -0.3538,0.3538 v 14.0247 a 0.3535,0.3535 0 0 1 -0.3539,0.3538 h -3.605 a 0.3535,0.3535 0 0 1 -0.3538,-0.3538 m -29.6937,-18.9203 c -2.5976,0 -4.9496,0.9991 -6.6772,2.6393 a 0.353,0.353 0 0 0 -0.008,0.5078 l 0.0333,0.0333 c 0.1374,0.1374 0.1374,0.3664 -0.004,0.5038 -1.7275,1.7109 -2.6559,4.2377 -2.6559,6.8603 0,0.8742 0.125,1.7276 0.3539,2.5435 0.0832,0.2914 0.1873,0.562 0.333,0.8326 1.6027,3.1055 4.8747,5.2285 8.6254,5.2285 5.187,0 9.1458,-4.0213 9.4164,-9.0833 0,-0.1665 0.0208,-0.3122 0.0208,-0.4787 -0.0208,-5.291 -4.0837,-9.587 -9.4372,-9.587 m 0.229,15.5274 c -0.666,0.0624 -1.3113,0.0208 -1.9399,-0.1041 -1.8316,-0.4163 -3.2304,-1.7692 -3.6675,-3.605 -0.104,-0.4371 -0.1665,-0.9159 -0.1665,-1.3738 0,-1.5694 0.612,-2.9806 1.6069,-4.0421 a 0.3527,0.3527 0 0 0 0.004,-0.4787 l -0.0832,-0.0916 c -0.1332,-0.1457 -0.1166,-0.3747 0.0333,-0.5037 0.995,-0.8576 2.1147,-1.382 3.5676,-1.382 1.8316,0 3.4593,0.6243 4.5416,1.9398 0.9783,1.1656 1.4986,2.7308 1.3113,4.396 -0.2498,2.7225 -2.456,4.9496 -5.2077,5.2452 m 22.088,-4.0463 v -2.7725"
       style="fill:#1f201e;stroke-width:0.0416285"
       id="path1" /></g></svg>
