<?xml version="1.0" encoding="UTF-8" standalone="no"?>
<svg
   viewBox="0 0 100 28.237791"
   version="1.1"
   id="svg4"
   width="100"
   height="28.237791"
   xmlns="http://www.w3.org/2000/svg"
   xmlns:svg="http://www.w3.org/2000/svg">
  <defs
     id="defs4" />
  <path
     d="m 95.329087,0 h 1.910828 v 0.31847134 h -0.7431 V 2.4416136 H 96.072187 V 0.31847134 h -0.7431 z m 2.229299,0 h 0.636943 L 98.726115,2.0169851 99.363057,0 H 100 V 2.4416136 H 99.575372 V 0.42462845 L 98.938429,2.4416136 H 98.5138 L 97.876858,0.42462845 V 2.4416136 H 97.452229 V 0 Z"
     fill="#8c8c8c"
     id="path1"
     style="stroke-width:1.06157" />
  <path
     d="M 0,0 H 93.73673 V 28.237792 H 0 Z"
     fill="none"
     id="path2"
     style="stroke-width:1.06157" />
  <path
     d="m 43.949045,0 c 1.910828,0 3.397027,1.3800425 3.397027,3.1847134 0,1.8046709 -1.486199,3.1847134 -3.397027,3.1847134 -1.804671,0 -3.290871,-1.4861996 -3.290871,-3.1847134 C 40.658174,1.4861996 42.144374,0 43.949045,0 M 41.18896,9.6602972 V 28.025478 h 5.626327 V 9.6602972 Z M 52.229299,3.1847134 c 0,1.8046709 1.4862,3.1847134 3.290871,3.1847134 1.910828,0 3.397027,-1.3800425 3.397027,-3.1847134 C 58.917197,1.3800425 57.430998,0 55.52017,0 53.715499,0 52.229299,1.4861996 52.229299,3.1847134 m 0.530786,6.4755838 V 28.025478 h 5.626327 V 9.6602972 Z M 32.165605,1.5923567 27.176221,21.125265 c 0,0 -3.821656,-14.6496811 -4.458599,-16.7728234 -0.636943,-2.1231422 -1.910828,-2.9723991 -3.715499,-2.9723991 -1.804671,0 -3.078556,0.955414 -3.715499,2.9723991 C 14.649682,6.4755839 10.828025,21.125265 10.828025,21.125265 L 5.9447983,1.5923567 H 0 c 0,0 5.7324841,20.8067943 6.581741,23.2484073 0.6369427,1.910828 2.0169851,3.397028 4.140127,3.397028 2.441614,0 3.609342,-1.804671 4.140128,-3.397028 0.530785,-1.592356 4.246284,-15.392781 4.246284,-15.392781 0,0 3.715499,13.800425 4.246285,15.392781 0.530785,1.592357 1.698514,3.397028 4.140127,3.397028 2.123142,0 3.609342,-1.592357 4.140128,-3.397028 0.849256,-2.441613 6.581741,-23.2484073 6.581741,-23.2484073 z"
     fill="#8c8c8c"
     id="path3"
     style="stroke-width:1.06157" />
  <path
     d="m 79.617834,14.012739 c 2.123143,0 3.715499,-1.698514 3.715499,-4.2462846 V 0 h -7.430998 v 9.7664544 c 0,2.6539276 1.592357,4.2462846 3.715499,4.2462846 M 90.021231,0 h -3.184713 v 9.8726115 c 0,4.7770705 -2.760085,7.3248405 -7.218684,7.3248405 -4.458598,0 -7.218683,-2.54777 -7.218683,-7.3248405 V 0 H 69.214437 C 66.878981,0 65.498938,1.3800425 65.498938,3.7154989 V 15.81741 c 0,3.503184 1.804671,5.307855 5.307856,5.307855 h 17.515924 c 3.503184,0 5.307855,-1.804671 5.307855,-5.307855 V 3.7154989 C 93.73673,1.3800425 92.356688,0 90.021231,0"
     fill="#0096c8"
     id="path4"
     style="stroke-width:1.06157" />
</svg>
