<?xml version="1.0" encoding="UTF-8" standalone="no"?>
<svg
   height="49.105453"
   width="100"
   viewBox="0 0 4.4 2.1600001"
   version="1.1"
   id="svg2"
   xmlns="http://www.w3.org/2000/svg"
   xmlns:svg="http://www.w3.org/2000/svg">
  <defs
     id="defs2" />
  <path
     d="M 0,-0.008 H 4.4 V 2.15264 H 0 Z"
     fill="#0f7a10"
     id="path1"
     style="stroke-width:0.04" />
  <path
     d="M 3.18896,1.12168 3.35748,0.89008 A 0.4792,0.4792 0 0 1 3.20228,0.82316 0.17744,0.17744 0 0 1 3.13248,0.67232 0.17044,0.17044 0 0 1 3.208,0.52376 0.37868,0.37868 0 0 1 3.42544,0.4712 c 0.2962,0 0.37336,0.15572 0.42572,0.22164 L 4.01004,0.47448 A 0.46096,0.46096 0 0 0 3.90952,0.35924 Q 3.7436,0.22212 3.42084,0.22212 q -0.284,0 -0.444,0.12456 a 0.40212,0.40212 0 0 0 -0.1602,0.3348 c 0,0.22216 0.12408,0.3624 0.37232,0.4402 z M 4.00568,1.10996 Q 3.89432,1.0108 3.66068,0.95464 L 3.49028,1.1888 a 0.7054,0.7054 0 0 1 0.24988,0.10284 0.16716,0.16716 0 0 1 0.072,0.14624 0.20168,0.20168 0 0 1 -0.08468,0.17484 0.41796,0.41796 0 0 1 -0.24492,0.06056 c -0.24632,0 -0.36244,-0.08164 -0.48104,-0.29416 l -0.17,0.2336 a 0.47292,0.47292 0 0 0 0.128,0.16108 q 0.18196,0.14856 0.51384,0.14856 0.31128,0 0.48524,-0.1314 A 0.436,0.436 0 0 0 4.13256,1.42188 0.39624,0.39624 0 0 0 4.00564,1.11 Z m -1.46456,0.776 h -0.071 V 0.25872 H 2.54096 Z M 0.45564,0.25108 a 0.0712,0.0712 0 0 1 0.06,0.028 0.15504,0.15504 0 0 1 -0.0028,0.16148 0.08544,0.08544 0 0 1 -0.069,0.02984 h -4e-4 V 0.42056 h 3.6e-4 a 0.0476,0.0476 0 0 0 0.04,-0.01664 0.08,0.08 0 0 0 0.012,-0.048 A 0.06708,0.06708 0 0 0 0.48608,0.31668 0.0324,0.0324 0 0 0 0.45808,0.3032 0.0268,0.0268 0 0 0 0.43476,0.31464 0.12288,0.12288 0 0 0 0.4204,0.35672 L 0.41596,0.37884 A 0.12496,0.12496 0 0 1 0.38796,0.4424 0.06884,0.06884 0 0 1 0.33596,0.46364 0.06572,0.06572 0 0 1 0.28152,0.43768 0.11456,0.11456 0 0 1 0.26132,0.36588 0.1218,0.1218 0 0 1 0.28356,0.28688 0.081,0.081 0 0 1 0.34592,0.25852 h 4e-4 V 0.3076 h -2e-4 a 0.04368,0.04368 0 0 0 -0.03296,0.0148 0.06908,0.06908 0 0 0 -0.01064,0.04272 0.0608,0.0608 0 0 0 0.00844,0.03484 0.02732,0.02732 0 0 0 0.02372,0.012 0.02848,0.02848 0 0 0 0.024,-0.01108 0.10572,0.10572 0 0 0 0.01432,-0.04 L 0.37744,0.338 A 0.14352,0.14352 0 0 1 0.40504,0.27124 0.0648,0.0648 0 0 1 0.45564,0.251 Z m -0.05072,1.436 A 0.14352,0.14352 0 0 0 0.37732,1.75384 L 0.37288,1.77672 A 0.10572,0.10572 0 0 1 0.35856,1.81672 0.02848,0.02848 0 0 1 0.33456,1.8278 0.02732,0.02732 0 0 1 0.31084,1.8158 0.0608,0.0608 0 0 1 0.3024,1.78096 0.06908,0.06908 0 0 1 0.31304,1.73824 0.04364,0.04364 0 0 1 0.346,1.72344 h 3.6e-4 V 1.67408 h -4e-4 A 0.08104,0.08104 0 0 0 0.2836,1.70244 0.1218,0.1218 0 0 0 0.26136,1.78144 0.11456,0.11456 0 0 0 0.28156,1.85324 0.06572,0.06572 0 0 0 0.336,1.8792 0.06884,0.06884 0 0 0 0.388,1.85796 0.12496,0.12496 0 0 0 0.416,1.7944 L 0.42044,1.77228 A 0.12288,0.12288 0 0 1 0.4348,1.7302 0.0268,0.0268 0 0 1 0.45812,1.71876 a 0.0324,0.0324 0 0 1 0.028,0.01348 0.06708,0.06708 0 0 1 0.00972,0.03924 0.08,0.08 0 0 1 -0.012,0.048 0.0476,0.0476 0 0 1 -0.04,0.01664 h -3.6e-4 v 0.04956 h 4e-4 a 0.08544,0.08544 0 0 0 0.069,-0.02984 0.15504,0.15504 0 0 0 0.0028,-0.16148 0.0712,0.0712 0 0 0 -0.06,-0.028 0.0648,0.0648 0 0 0 -0.05076,0.0206 z M 0.53104,1.04524 v 0.0522 A 0.06448,0.06448 0 0 1 0.49944,1.10452 L 0.47064,1.10564 A 0.04876,0.04876 0 0 0 0.43748,1.1164 0.04356,0.04356 0 0 0 0.42816,1.14732 V 1.21184 H 0.53124 V 1.2624 h -0.264 V 1.14288 A 0.16696,0.16696 0 0 1 0.26808,1.12576 V 1.1312 A 0.1028,0.1028 0 0 1 0.28316,1.08072 L 0.281,1.0834 A 0.07276,0.07276 0 0 1 0.28728,1.0744 0.06712,0.06712 0 0 1 0.34188,1.04992 0.0614,0.0614 0 0 1 0.40468,1.093 0.05028,0.05028 0 0 1 0.42424,1.06528 0.07176,0.07176 0 0 1 0.46084,1.0558 L 0.5,1.0536 A 0.05708,0.05708 0 0 0 0.53048,1.0456 Z M 0.3474,1.10204 A 0.03516,0.03516 0 0 0 0.31888,1.11404 0.052,0.052 0 0 0 0.309,1.14792 v 0.064 H 0.38804 V 1.14568 A 0.04672,0.04672 0 0 0 0.3776,1.11328 0.03884,0.03884 0 0 0 0.34736,1.10192 Z m -0.08,-0.16268 h 0.264 V 0.8888 H 0.2674 Z M 0.31288,0.57188 H 0.2674 v 0.19444 h 0.264 V 0.57188 H 0.48592 v 0.144 H 0.41852 V 0.58568 H 0.37488 v 0.1302 h -0.0622 z m 0,0.79884 H 0.2674 v 0.19444 h 0.264 V 1.37072 H 0.48592 v 0.144 H 0.41852 V 1.38452 H 0.37488 v 0.1302 H 0.31268 Z M 0.6458,1.88592 H 0.99596 L 1.26196,1.52036 1.08688,1.27972 Z M 2.17996,0.2588 H 1.8298 l -0.21764,0.29908 0.17508,0.2406 z m -1.13564,0 h -0.3502 l 1.184,1.62688 h 0.35016 z"
     fill="#ffffff"
     id="path2"
     style="stroke-width:0.04" />
</svg>
