<?xml version="1.0" encoding="UTF-8" standalone="no"?>
<svg
   width="100.00001"
   height="19.602175"
   viewBox="11.272 1.898 6.8070005 1.334428"
   version="1.1"
   id="svg19"
   xmlns="http://www.w3.org/2000/svg"
   xmlns:svg="http://www.w3.org/2000/svg">
  <defs
     id="defs19" />
  <path
     fill="#6b6b6b"
     d="M 17.290641,2.1385796 V 2.8193547 L 16.7892,2.1380595 16.70703,2.1379395 V 2.9667666 H 16.7992 V 2.3010727 l 0.49136,0.666254 0.09245,8e-5 V 2.1385796 Z m -1.063046,-0.019242 c -0.233059,0 -0.395952,0.1782544 -0.395952,0.4334351 0,0.2555807 0.162893,0.4337951 0.395952,0.4337951 0.232819,0 0.395192,-0.1782144 0.395192,-0.4337951 0,-0.2551807 -0.162333,-0.4334351 -0.395192,-0.4334351 m 0,0.7794231 c -0.177535,0 -0.301985,-0.1422915 -0.301985,-0.345988 0,-0.2035365 0.12445,-0.345828 0.301985,-0.345828 0.177294,0 0.300944,0.1422915 0.300944,0.345828 4e-5,0.2036965 -0.12365,0.345988 -0.300944,0.345988 m 1.352069,-0.012441 V 2.5796553 h 0.456277 V 2.4984887 H 17.579664 V 2.2191061 h 0.48732 v -0.081087 h -0.580287 v 0.8294672 h 0.585967 v -0.081166 z"
     id="path1"
     style="stroke-width:0.0400032" />
  <path
     fill="#177d3e"
     d="M 15.571862,2.9681667 15.30692,2.6084576 15.042059,2.9681667 H 14.93293 L 15.251596,2.5335715 14.960612,2.1385796 h 0.109089 l 0.237219,0.3221861 0.236939,-0.3221861 h 0.109009 L 15.362085,2.5335715 15.68083,2.9681667 Z M 14.113144,2.5649341 a 0.23825929,0.23825929 0 0 0 -0.05433,-0.034603 c 0.0602,-0.032683 0.09969,-0.094448 0.09969,-0.1660935 0,-0.053084 -0.01956,-0.2256582 -0.269662,-0.2256582 h -0.336867 v 0.3576289 h -0.112249 a 2.4321569,2.4321569 0 0 0 -0.06025,0.083247 h 0.172494 v 0.3886314 l 0.336867,4e-5 c 0.182495,0 0.295864,-0.092688 0.295864,-0.2421796 0,-0.065285 -0.02468,-0.1208498 -0.07156,-0.161013 M 13.645106,2.2251466 h 0.243739 c 0.06601,0 0.176455,0.016441 0.176455,0.1318507 0,0.087247 -0.06437,0.1392512 -0.176455,0.1392512 h -0.243739 z m 0.243699,0.6564531 H 13.645066 V 2.5795753 h 0.243739 c 0.09245,0 0.202977,0.025522 0.202977,0.1445717 4e-5,0.1369311 -0.12709,0.1574527 -0.202977,0.1574527"
     id="path2"
     style="stroke-width:0.0400032" />
  <path
     d="m 14.622865,2.119418 c -0.232979,0 -0.395872,0.1782545 -0.395872,0.4334351 0,0.2555807 0.162853,0.4337151 0.395872,0.4337151 0.232819,0 0.395192,-0.1781344 0.395192,-0.4337151 0,-0.2551806 -0.162373,-0.4334351 -0.395192,-0.4334351 m 0,0.7793831 c -0.177535,0 -0.301865,-0.1422915 -0.301865,-0.345948 0,-0.2035365 0.12433,-0.345788 0.301865,-0.345788 0.177254,0 0.300944,0.1422515 0.300944,0.345788 0,0.2036565 -0.12369,0.345948 -0.300944,0.345948 M 13.506654,2.9680867 13.187749,2.5335315 13.478732,2.1385796 H 13.369723 L 13.132504,2.4608457 12.895485,2.1385796 h -0.108689 l 0.290784,0.3949519 -0.318866,0.4345552 h 0.109249 l 0.264701,-0.3596291 0.264862,0.3596291 z"
     fill="#177d3e"
     id="path3"
     style="stroke-width:0.0400032" />
  <g
     transform="matrix(0.04000324,0,0,0.04000324,10.677865,3.2845123)"
     id="g19">
    <path
       d="m 48.42,-17.981 c 0,9.212 -7.553,16.679 -16.87,16.679 -9.317,0 -16.87,-7.467 -16.87,-16.679 0,-9.211 7.553,-16.679 16.87,-16.679 9.317,0 16.87,7.467 16.87,16.679 z"
       fill="#666666"
       id="path4" />
    <radialGradient
       id="a"
       cx="-1186.125"
       cy="1608.61"
       r="14.351"
       gradientTransform="matrix(0,1.6935,1.5038,0,-2387.78,1988.934)"
       gradientUnits="userSpaceOnUse">
      <stop
         offset="0"
         stop-color="#fff"
         id="stop4" />
      <stop
         offset="1"
         stop-color="#fff"
         stop-opacity="0"
         id="stop5" />
    </radialGradient>
    <path
       d="m 48.42,-17.981 c 0,9.212 -7.553,16.679 -16.87,16.679 -9.317,0 -16.87,-7.467 -16.87,-16.679 0,-9.211 7.553,-16.679 16.87,-16.679 9.317,0 16.87,7.467 16.87,16.679 z"
       fill="url(#a)"
       id="path5"
       style="fill:url(#a)" />
    <radialGradient
       id="b"
       cx="-1186.125"
       cy="1608.61"
       r="14.351"
       gradientTransform="matrix(0,1.6935,1.5038,0,-2387.78,1988.934)"
       gradientUnits="userSpaceOnUse">
      <stop
         offset="0"
         stop-color="#fff"
         id="stop6" />
      <stop
         offset="1"
         stop-color="#fff"
         stop-opacity="0"
         id="stop7" />
    </radialGradient>
    <path
       d="m 48.42,-17.981 c 0,9.212 -7.553,16.679 -16.87,16.679 -9.317,0 -16.87,-7.467 -16.87,-16.679 0,-9.211 7.553,-16.679 16.87,-16.679 9.317,0 16.87,7.467 16.87,16.679 z"
       fill="url(#b)"
       id="path7"
       style="fill:url(#b)" />
    <radialGradient
       id="c"
       cx="-1186.125"
       cy="1608.61"
       r="14.351"
       gradientTransform="matrix(0,1.6935,1.5038,0,-2387.78,1988.934)"
       gradientUnits="userSpaceOnUse">
      <stop
         offset="0"
         stop-color="#fff"
         id="stop8" />
      <stop
         offset="1"
         stop-color="#fff"
         stop-opacity="0"
         id="stop9" />
    </radialGradient>
    <path
       d="m 48.42,-17.981 c 0,9.212 -7.553,16.679 -16.87,16.679 -9.317,0 -16.87,-7.467 -16.87,-16.679 0,-9.211 7.553,-16.679 16.87,-16.679 9.317,0 16.87,7.467 16.87,16.679 z"
       fill="url(#c)"
       id="path9"
       style="fill:url(#c)" />
    <path
       d="m 27.27,-25.287 c -1.863,2.258 -9.666,11.435 -8.974,17.64 0.482,0.61 1.013,1.182 1.574,1.72 -0.082,-4.75 5.492,-9.833 9.842,-13.67 l -2.443,-5.69 z"
       fill="#00a54d"
       id="path10" />
    <g
       transform="matrix(1.0075,0,0,1.00084,1.107,-34.878)"
       id="g11">
      <linearGradient
         id="d"
         gradientUnits="userSpaceOnUse"
         x1="-1022.497"
         y1="1131.197"
         x2="-1026.453"
         y2="1135.837"
         gradientTransform="matrix(1.0075,0,0,-1.0008,1054.326,1153.657)">
        <stop
           offset="0"
           stop-color="#97ca43"
           id="stop10" />
        <stop
           offset="1"
           stop-color="#97ca43"
           stop-opacity="0"
           id="stop11" />
      </linearGradient>
      <path
         d="m 25.967,9.583 c -1.848,2.256 -9.593,11.425 -8.906,17.625 0.478,0.61 1.005,1.181 1.562,1.718 -0.081,-4.745 5.451,-9.825 9.769,-13.658 z"
         fill="url(#d)"
         id="path11"
         style="fill:url(#d)" />
    </g>
    <g
       transform="matrix(1.0075,0,0,1.00084,0.968,-34.846)"
       id="g13">
      <path
         d="m 21.561,2.677 a 16.832,16.832 0 0 0 -2.687,2.031 c 2.656,0.508 5.32,2.862 6.781,4.812 1.272,2.002 1.963,3.837 2.861,5.731 a 91.424,91.424 0 0 1 1.896,-1.587 L 30.408,5.438 C 28.429,4.2 25.158,2.571 21.592,2.677 c -0.008,0.005 -0.024,-0.005 -0.031,0 z"
         fill="#02a74d"
         id="path12" />
      <linearGradient
         id="e"
         gradientUnits="userSpaceOnUse"
         x1="-1022.39"
         y1="1142.3361"
         x2="-1018.766"
         y2="1150.379"
         gradientTransform="matrix(1.0075,0,0,-1.0008,1054.187,1153.625)">
        <stop
           offset="0"
           stop-color="#97ca43"
           id="stop12" />
        <stop
           offset="1"
           stop-color="#97ca43"
           stop-opacity="0"
           id="stop13" />
      </linearGradient>
      <path
         d="m 21.561,2.677 a 16.832,16.832 0 0 0 -2.687,2.031 c 2.656,0.508 5.32,2.862 6.781,4.812 1.272,2.002 1.963,3.837 2.861,5.731 a 91.424,91.424 0 0 1 1.896,-1.587 L 30.408,5.438 C 28.429,4.2 25.158,2.571 21.592,2.677 c -0.008,0.005 -0.024,-0.005 -0.031,0 z"
         fill="url(#e)"
         id="path13"
         style="fill:url(#e)" />
    </g>
    <g
       id="g18">
      <path
         d="m 35.837,-25.28 c 1.856,2.26 9.633,11.445 8.943,17.654 -0.48,0.61 -1.009,1.183 -1.568,1.722 0.081,-4.754 -5.474,-9.842 -9.81,-13.682 l 2.435,-5.695 z"
         fill="#00a54d"
         id="path14" />
      <g
         transform="matrix(-1.00417,0,0,1.00169,61.912,-34.88)"
         id="g15">
        <linearGradient
           id="f"
           gradientUnits="userSpaceOnUse"
           x1="1745.975"
           y1="1130.484"
           x2="1742.02"
           y2="1135.124"
           gradientTransform="matrix(-1.0042,0,0,-1.0017,1777.409,1153.894)">
          <stop
             offset="0"
             stop-color="#97ca43"
             id="stop14" />
          <stop
             offset="1"
             stop-color="#97ca43"
             stop-opacity="0"
             id="stop15" />
        </linearGradient>
        <path
           d="m 25.967,9.583 c -1.848,2.256 -9.593,11.426 -8.906,17.625 a 16.95,16.95 0 0 0 1.562,1.719 c -0.081,-4.746 5.451,-9.825 9.769,-13.659 z"
           fill="url(#f)"
           id="path15"
           style="fill:url(#f)" />
      </g>
      <g
         transform="matrix(-1.00417,0,0,1.00169,62.051,-34.848)"
         id="g17">
        <path
           d="m 21.561,2.677 a 16.945,16.945 0 0 0 -2.688,2.031 c 2.656,0.508 5.321,2.862 6.781,4.812 1.272,2.002 1.964,3.837 2.862,5.732 0.608,-0.519 1.226,-1.047 1.896,-1.587 L 30.408,5.438 C 28.429,4.2 25.158,2.571 21.592,2.677 c -0.007,0.005 -0.024,-0.005 -0.031,0 z"
           fill="#02a74d"
           id="path16" />
        <linearGradient
           id="g"
           gradientUnits="userSpaceOnUse"
           x1="1746.11"
           y1="1141.965"
           x2="1749.2061"
           y2="1147.0081"
           gradientTransform="matrix(-1.0042,0,0,-1.0017,1777.548,1153.863)">
          <stop
             offset="0"
             stop-color="#97ca43"
             id="stop16" />
          <stop
             offset="1"
             stop-color="#97ca43"
             stop-opacity="0"
             id="stop17" />
        </linearGradient>
        <path
           d="m 21.561,2.677 a 16.945,16.945 0 0 0 -2.688,2.031 c 2.656,0.508 5.321,2.862 6.781,4.812 1.272,2.002 1.964,3.837 2.862,5.732 0.608,-0.519 1.226,-1.047 1.896,-1.587 L 30.408,5.438 C 28.429,4.2 25.158,2.571 21.592,2.677 c -0.007,0.005 -0.024,-0.005 -0.031,0 z"
           fill="url(#g)"
           id="path17"
           style="fill:url(#g)" />
      </g>
    </g>
  </g>
</svg>
