<?xml version="1.0" encoding="UTF-8" standalone="no"?>
<svg
   id="Ebene_1"
   viewBox="0 0 33.868 18.641351"
   width="100"
   height="55.027603"
   version="1.1"
   xmlns="http://www.w3.org/2000/svg"
   xmlns:svg="http://www.w3.org/2000/svg">
  <defs
     id="defs70" />
  <style
     id="style1">.st0{fill:url(#SVGID_1_)}.st1{fill:url(#SVGID_2_)}.st2{fill:url(#SVGID_3_)}.st3{fill:url(#SVGID_4_)}.st4{fill:url(#SVGID_5_)}.st5{fill:#9da0a3}.st6{fill:#95c343}</style>
  <radialGradient
     id="SVGID_1_"
     cx="268.89801"
     cy="327.50601"
     r="96.351997"
     gradientTransform="matrix(0.04532695,0,0,-0.04333429,0.65086863,20.007478)"
     gradientUnits="userSpaceOnUse">
    <stop
       offset=".011"
       stop-color="#fff"
       id="stop1" />
    <stop
       offset=".32"
       stop-color="#fffffe"
       id="stop2" />
    <stop
       offset=".431"
       stop-color="#fdfdf9"
       id="stop3" />
    <stop
       offset=".51"
       stop-color="#fafbf1"
       id="stop4" />
    <stop
       offset=".574"
       stop-color="#f5f8e5"
       id="stop5" />
    <stop
       offset=".629"
       stop-color="#eff3d4"
       id="stop6" />
    <stop
       offset=".678"
       stop-color="#e8eebe"
       id="stop7" />
    <stop
       offset=".722"
       stop-color="#dfe7a2"
       id="stop8" />
    <stop
       offset=".762"
       stop-color="#d5e080"
       id="stop9" />
    <stop
       offset=".798"
       stop-color="#c9d756"
       id="stop10" />
    <stop
       offset=".832"
       stop-color="#bacf20"
       id="stop11" />
    <stop
       offset=".891"
       stop-color="#97c129"
       id="stop12" />
    <stop
       offset=".962"
       stop-color="#6bb42f"
       id="stop13" />
    <stop
       offset="1"
       stop-color="#58ae31"
       id="stop14" />
  </radialGradient>
  <path
     class="st0"
     d="m 11.909781,1.3164341 c 1.016335,-0.3041003 2.484819,0.084028 3.809256,0.9683193 l 0.016,6.1420255 C 15.250882,8.330747 14.742715,8.1266796 14.270559,7.8585913 13.7864,7.5825005 13.306241,7.2223818 12.806076,6.7982418 l 1.27242,-3.2690781 C 13.418278,3.1010226 10.841429,2.3727824 11.173538,2.0006597 11.509649,1.6325383 11.909781,1.3164341 11.909781,1.3164341 Z"
     id="path14"
     style="fill:url(#SVGID_1_);stroke-width:0.0400132" />
  <radialGradient
     id="SVGID_2_"
     cx="-909.58899"
     cy="327.50601"
     r="96.351997"
     gradientTransform="matrix(-0.04532695,0,0,-0.04333429,-22.698111,20.007478)"
     gradientUnits="userSpaceOnUse">
    <stop
       offset=".011"
       stop-color="#fff"
       id="stop15" />
    <stop
       offset=".32"
       stop-color="#fffffe"
       id="stop16" />
    <stop
       offset=".431"
       stop-color="#fdfdf9"
       id="stop17" />
    <stop
       offset=".51"
       stop-color="#fafbf1"
       id="stop18" />
    <stop
       offset=".574"
       stop-color="#f5f8e5"
       id="stop19" />
    <stop
       offset=".629"
       stop-color="#eff3d4"
       id="stop20" />
    <stop
       offset=".678"
       stop-color="#e8eebe"
       id="stop21" />
    <stop
       offset=".722"
       stop-color="#dfe7a2"
       id="stop22" />
    <stop
       offset=".762"
       stop-color="#d5e080"
       id="stop23" />
    <stop
       offset=".798"
       stop-color="#c9d756"
       id="stop24" />
    <stop
       offset=".832"
       stop-color="#bacf20"
       id="stop25" />
    <stop
       offset=".891"
       stop-color="#97c129"
       id="stop26" />
    <stop
       offset=".962"
       stop-color="#6bb42f"
       id="stop27" />
    <stop
       offset="1"
       stop-color="#58ae31"
       id="stop28" />
  </radialGradient>
  <path
     class="st1"
     d="m 19.460271,1.3164341 c -1.016336,-0.3041003 -2.48482,0.084028 -3.809257,0.9683193 l -0.016,6.1420255 c 0.48416,-0.096032 0.992327,-0.3000993 1.464483,-0.5681876 0.48416,-0.2760908 0.964318,-0.6362095 1.464483,-1.0603495 L 17.291556,3.5291637 C 17.951773,3.1010226 20.528623,2.3727824 20.196514,2.0006597 19.860403,1.6325383 19.460271,1.3164341 19.460271,1.3164341 Z"
     id="path28"
     style="fill:url(#SVGID_2_);stroke-width:0.0400132" />
  <radialGradient
     id="SVGID_3_"
     cx="-485.358"
     cy="262.327"
     r="86.042"
     gradientTransform="matrix(-0.03864875,-0.02807726,-0.0354797,0.04464272,5.9738238,-17.338918)"
     gradientUnits="userSpaceOnUse">
    <stop
       offset=".011"
       stop-color="#fff"
       id="stop29" />
    <stop
       offset=".326"
       stop-color="#fffffe"
       id="stop30" />
    <stop
       offset=".44"
       stop-color="#fdfdf9"
       id="stop31" />
    <stop
       offset=".52"
       stop-color="#fafbf1"
       id="stop32" />
    <stop
       offset=".586"
       stop-color="#f5f8e5"
       id="stop33" />
    <stop
       offset=".642"
       stop-color="#eff3d4"
       id="stop34" />
    <stop
       offset=".692"
       stop-color="#e8eebe"
       id="stop35" />
    <stop
       offset=".737"
       stop-color="#dfe7a2"
       id="stop36" />
    <stop
       offset=".778"
       stop-color="#d5e080"
       id="stop37" />
    <stop
       offset=".815"
       stop-color="#c9d756"
       id="stop38" />
    <stop
       offset=".848"
       stop-color="#bacf20"
       id="stop39" />
    <stop
       offset=".855"
       stop-color="#b4cc22"
       id="stop40" />
    <stop
       offset=".896"
       stop-color="#91bf2a"
       id="stop41" />
    <stop
       offset=".935"
       stop-color="#74b62e"
       id="stop42" />
    <stop
       offset=".971"
       stop-color="#5fb031"
       id="stop43" />
    <stop
       offset="1"
       stop-color="#58ae31"
       id="stop44" />
  </radialGradient>
  <path
     class="st2"
     d="M 11.90578,10.899594 15.362919,6.9742997 14.078496,3.533165 c -0.540178,0.4481478 -1.072354,0.9923272 -1.568517,1.6165331 -1.216401,1.5325052 -2.276751,3.6892163 -1.908629,4.3254263 0.368121,0.6362096 1.30443,1.4244696 1.30443,1.4244696 z"
     id="path44"
     style="fill:url(#SVGID_3_);stroke-width:0.0400132" />
  <radialGradient
     id="SVGID_4_"
     cx="203.369"
     cy="695.37201"
     r="86.041"
     gradientTransform="matrix(0.03864875,-0.02807726,0.0354797,0.04464272,-16.583735,-17.338918)"
     gradientUnits="userSpaceOnUse">
    <stop
       offset=".011"
       stop-color="#fff"
       id="stop45" />
    <stop
       offset=".326"
       stop-color="#fffffe"
       id="stop46" />
    <stop
       offset=".44"
       stop-color="#fdfdf9"
       id="stop47" />
    <stop
       offset=".52"
       stop-color="#fafbf1"
       id="stop48" />
    <stop
       offset=".586"
       stop-color="#f5f8e5"
       id="stop49" />
    <stop
       offset=".642"
       stop-color="#eff3d4"
       id="stop50" />
    <stop
       offset=".692"
       stop-color="#e8eebe"
       id="stop51" />
    <stop
       offset=".737"
       stop-color="#dfe7a2"
       id="stop52" />
    <stop
       offset=".778"
       stop-color="#d5e080"
       id="stop53" />
    <stop
       offset=".815"
       stop-color="#c9d756"
       id="stop54" />
    <stop
       offset=".848"
       stop-color="#bacf20"
       id="stop55" />
    <stop
       offset=".855"
       stop-color="#b4cc22"
       id="stop56" />
    <stop
       offset=".896"
       stop-color="#91bf2a"
       id="stop57" />
    <stop
       offset=".935"
       stop-color="#74b62e"
       id="stop58" />
    <stop
       offset=".971"
       stop-color="#5fb031"
       id="stop59" />
    <stop
       offset="1"
       stop-color="#58ae31"
       id="stop60" />
  </radialGradient>
  <path
     class="st3"
     d="m 19.468273,10.895593 -3.45714,-3.9252944 1.284424,-3.4411349 c 0.540178,0.4481478 1.072354,0.9923274 1.568517,1.6165329 1.216401,1.5325056 2.276751,3.6892168 1.908629,4.3254267 -0.368121,0.6362097 -1.30443,1.4244697 -1.30443,1.4244697 z"
     id="path60"
     style="fill:url(#SVGID_4_);stroke-width:0.0400132" />
  <radialGradient
     id="SVGID_5_"
     cx="343.52899"
     cy="359.513"
     r="250.826"
     gradientTransform="matrix(0.04301818,0,0,-0.04315423,0.3595726,19.981269)"
     gradientUnits="userSpaceOnUse">
    <stop
       offset=".028"
       stop-color="#fff"
       id="stop61" />
    <stop
       offset=".105"
       stop-color="#e3e2e3"
       id="stop62" />
    <stop
       offset=".259"
       stop-color="#b3b1b2"
       id="stop63" />
    <stop
       offset=".377"
       stop-color="#969696"
       id="stop64" />
    <stop
       offset=".444"
       stop-color="#8c8c8d"
       id="stop65" />
    <stop
       offset=".518"
       stop-color="#919191"
       id="stop66" />
    <stop
       offset=".606"
       stop-color="#9f9f9f"
       id="stop67" />
    <stop
       offset=".7"
       stop-color="#b8b7b7"
       id="stop68" />
    <stop
       offset=".798"
       stop-color="#dcdcdc"
       id="stop69" />
    <stop
       offset=".809"
       stop-color="#e1e1e1"
       id="stop70" />
  </radialGradient>
  <path
     class="st4"
     d="M 10.921455,9.923272 C 10.089181,8.878928 9.5890159,7.5544909 9.5890159,6.1140161 c 0,-1.6125316 0.6202041,-3.0770146 1.6405411,-4.1653735 0,0 1.064351,0.4721556 2.856942,1.5805211 -4.00132,4.1453668 -3.165044,6.3941083 -3.165044,6.3941083 z m 4.765571,-7.5744975 c 0,-0.004 -0.004,-0.004 0,0 C 18.12383,0.58419264 19.64033,1.4684842 19.64033,1.4684842 18.575979,0.55218209 17.195524,0 15.683025,0 14.170526,0 12.790071,0.55218209 11.72572,1.4684842 c 0,0 1.5165,-0.90829948 3.957305,0.876289 m -4.401451,7.9786308 c 1.108365,1.164384 2.66888,1.892624 4.401451,1.892624 1.736573,0 3.301088,-0.72824 4.409454,-1.900627 0,0 -0.644212,-2.6648782 -4.429461,-5.4658018 -3.393118,2.5088273 -4.381444,5.4738048 -4.381444,5.4738048 z m 9.171024,-0.400132 c 0.832274,-1.044344 1.332439,-2.3687811 1.332439,-3.8092559 0,-1.6125316 -0.624205,-3.0770146 -1.640541,-4.1653735 0,0 -1.064351,0.4721556 -2.856942,1.5805211 4.00132,4.1453668 3.165044,6.3941083 3.165044,6.3941083 z"
     id="path70"
     style="fill:url(#SVGID_5_);stroke-width:0.0400132" />
  <g
     id="layer1-7"
     transform="matrix(0.03262676,0,0,0.03262676,7.3278305,27.401636)">
    <path
       id="path6955"
       class="st5"
       d="M 752.6,-298.4 H 743 v -5.9 h 26.1 v 5.9 h -9.6 v 25.9 h -7 l 0.1,-25.9" />
    <path
       id="path6957"
       class="st5"
       d="m 776.2,-304.3 h 10 l 7.4,21.8 7.1,-21.8 h 9.8 v 31.7 h -6.6 V -295 h -0.1 l -7.8,22.5 h -5.3 l -7.8,-22.3 h -0.1 v 22.3 h -6.6 v -31.8" />
    <path
       id="path6959"
       class="st5"
       d="m 679,-282.8 c -10.7,0 -19.7,-3.5 -26.5,-10.4 -15.2,-15.1 -17.3,-43.2 -17.3,-58.6 0,-20.7 4.2,-68.9 43.8,-68.9 39.6,0 44,48.2 44,68.9 -0.1,20.8 -4.4,69 -44,69 z m 0,-152.1 c -37.7,0 -59.3,30.3 -59.3,83.2 0,52.8 21.6,83.1 59.3,83.1 21.4,0 37.4,-9.3 47.5,-27.8 9.7,-17.6 11.7,-39.8 11.7,-55.4 0,-24.9 -5.8,-83.1 -59.2,-83.1" />
    <path
       id="path6961"
       class="st5"
       d="m 551.7,-282.8 c -22.4,0 -40,-18 -40,-41 0,-23.9 17.2,-41.9 40,-41.9 10.4,0 20.1,4 27.3,11.3 7.9,7.9 12.4,19.1 12.4,30.6 0,23 -17.5,41 -39.7,41 z m 0,-97.1 c -17.1,0 -32.9,8.4 -42.5,22.2 1.9,-30.1 11.6,-62.9 44.3,-62.9 18.3,0 32.2,11.9 35.2,30.4 l 0.5,2.9 h 15.2 l -0.3,-3.8 c -3,-26.9 -22.4,-43.7 -50.7,-43.7 -49.6,0 -60.1,49.3 -60.1,90.7 0,49.4 20.2,75.6 58.3,75.6 31.4,0 55,-23.8 55,-55.3 0.1,-32.5 -23,-56.1 -54.9,-56.1" />
    <path
       id="path6963"
       class="st5"
       d="m 455.9,-357.5 c 13.4,-6.2 21.9,-19.5 21.9,-35.3 0,-11.1 -3.7,-20.5 -10.9,-27.8 -9.2,-9.2 -24.5,-14.5 -41.5,-14.5 -28.1,0 -47.5,16.7 -50.5,43.7 l -0.4,3.8 h 15.2 l 0.5,-2.9 c 3,-18.5 16.9,-30.4 35.2,-30.4 18.4,0 37.2,9.6 37.2,28.1 0,7.9 -2.5,14.3 -7.4,18.9 -7.8,7.6 -22.4,9.5 -29.9,9.5 -2.7,0 -6.7,0.1 -10.7,0.1 -0.1,3.9 -0.1,11.3 0,15 h 10.7 c 14.2,0.1 25.3,3.1 32.2,9.6 5.7,5.3 8.6,12.8 8.6,22.2 0,22.7 -20.5,34.5 -40.7,34.5 -13.2,0 -24,-4 -31.3,-11.6 -7.2,-7.5 -10.8,-18.2 -10.2,-31.1 l 0.1,-3.6 h -15.3 l -0.1,3.3 c -0.8,17 3.8,31.3 13.3,41.2 10,10.4 25.1,15.9 43.6,15.9 34,0 56,-19.1 56,-48.8 -0.2,-18.7 -9.9,-33.5 -25.6,-39.8" />
    <path
       id="path6965"
       class="st6"
       d="m 330.9,-272.5 -61.1,-83.1 55.7,-75.5 h -20.9 l -45.3,61.6 -45.3,-61.7 h -20.8 l 55.6,75.5 -60.9,83.1 h 20.9 l 50.5,-68.8 50.7,68.8 h 20.9" />
    <path
       id="path6967"
       class="st6"
       d="m -84.8,-272.5 -60.9,-83.1 55.6,-75.5 h -20.8 l -45.3,61.6 -45.3,-61.6 h -20.9 l 55.7,75.5 -61.1,83.1 h 20.9 l 50.7,-68.8 50.5,68.8 h 20.9" />
    <path
       id="path6969"
       class="st6"
       d="m -11.8,-289.1 h -46.6 v -57.7 h 46.6 c 17.8,0 38.8,4.8 38.8,27.6 0,26.2 -24.3,30.1 -38.8,30.1 z m -46.5,-125.5 h 46.6 c 12.6,0 33.7,3.2 33.7,25.2 0,16.7 -12.3,26.6 -33.7,26.6 h -46.6 z m 89.4,65 c -3.3,-2.9 -6.8,-5 -10.4,-6.6 11.5,-6.3 19,-18 19,-31.8 0,-10.1 -3.7,-43.2 -51.5,-43.2 h -64.3 v 68.4 h -21.4 c -2.9,3.6 -9.2,12.3 -11.6,15.9 H -76 v 74.3 h 64.3 c 35,0 56.7,-17.7 56.7,-46.3 -0.1,-12.4 -4.9,-23 -13.9,-30.7" />
    <path
       id="path6971"
       class="st6"
       d="m 128.6,-285.8 c -34,0 -57.8,-27.2 -57.8,-66.1 0,-38.9 23.8,-66.1 57.8,-66.1 33.9,0 57.5,27.2 57.5,66.1 0.1,38.9 -23.6,66.1 -57.5,66.1 z m 0,-149 c -44.7,0 -75.8,34.1 -75.8,82.9 0,48.8 31.1,82.9 75.8,82.9 44.4,0 75.5,-34.1 75.5,-82.9 0.1,-48.8 -31.1,-82.9 -75.5,-82.9" />
  </g>
</svg>
