<?xml version="1.0" encoding="UTF-8" standalone="no"?>
<!-- Created with Inkscape (http://www.inkscape.org/) -->

<svg
   width="100"
   height="100"
   viewBox="0 0 100 100"
   version="1.1"
   id="svg1"
   xml:space="preserve"
   xmlns="http://www.w3.org/2000/svg"
   xmlns:svg="http://www.w3.org/2000/svg"><defs
     id="defs1" /><g
     id="layer1"><g
       id="g1"
       transform="matrix(0.9059284,0,0,0.9059284,-10.211625,33.170568)"><path
         fill="#177d3e"
         d="m 118.932,28.65 -6.623,-8.992 -6.621,8.992 h -2.728 l 7.966,-10.864 -7.274,-9.874 h 2.727 l 5.93,8.054 5.923,-8.054 h 2.725 l -7.269,9.874 7.968,10.864 z M 82.467,18.57 a 6,6 0 0 0 -1.358,-0.865 c 1.505,-0.817 2.492,-2.361 2.492,-4.152 0,-1.327 -0.489,-5.641 -6.741,-5.641 h -8.421 v 8.94 h -2.806 a 61,61 0 0 0 -1.506,2.081 h 4.312 v 9.715 l 8.421,0.001 c 4.562,0 7.396,-2.317 7.396,-6.054 0,-1.632 -0.617,-3.021 -1.789,-4.025 m -11.7,-8.494 h 6.093 c 1.65,0 4.411,0.411 4.411,3.296 0,2.181 -1.609,3.481 -4.411,3.481 h -6.093 z m 6.092,16.41 h -6.093 v -7.55 h 6.093 c 2.311,0 5.074,0.638 5.074,3.614 10e-4,3.423 -3.177,3.936 -5.074,3.936"
         id="path1" /><path
         fill="#177d3e"
         d="m 95.209,7.433 c -5.824,0 -9.896,4.456 -9.896,10.835 0,6.389 4.071,10.842 9.896,10.842 5.82,0 9.879,-4.453 9.879,-10.842 0,-6.379 -4.059,-10.835 -9.879,-10.835 m 0,19.483 c -4.438,0 -7.546,-3.557 -7.546,-8.648 0,-5.088 3.108,-8.644 7.546,-8.644 4.431,0 7.523,3.556 7.523,8.644 0,5.091 -3.092,8.648 -7.523,8.648 M 67.306,28.648 59.334,17.785 66.608,7.912 h -2.725 l -5.93,8.056 -5.925,-8.056 h -2.717 l 7.269,9.873 -7.971,10.863 h 2.731 l 6.617,-8.99 6.621,8.99 z"
         id="path2" /><g
         transform="translate(-3.408,36.558)"
         id="g17"><path
           fill="#666666"
           d="m 48.42,-17.981 c 0,9.212 -7.553,16.679 -16.87,16.679 -9.317,0 -16.87,-7.467 -16.87,-16.679 0,-9.212 7.553,-16.679 16.87,-16.679 9.317,0 16.87,7.467 16.87,16.679"
           id="path3" /><radialGradient
           id="a"
           cx="-1186.125"
           cy="1608.61"
           r="14.351"
           gradientTransform="matrix(0,1.6935,1.5038,0,-2387.78,1988.934)"
           gradientUnits="userSpaceOnUse"><stop
             offset="0"
             stop-color="#fff"
             id="stop3" /><stop
             offset="1"
             stop-color="#fff"
             stop-opacity="0"
             id="stop4" /></radialGradient><path
           fill="url(#a)"
           d="m 48.42,-17.981 c 0,9.212 -7.553,16.679 -16.87,16.679 -9.317,0 -16.87,-7.467 -16.87,-16.679 0,-9.212 7.553,-16.679 16.87,-16.679 9.317,0 16.87,7.467 16.87,16.679"
           id="path4"
           style="fill:url(#a)" /><radialGradient
           id="b"
           cx="-1186.125"
           cy="1608.61"
           r="14.351"
           gradientTransform="matrix(0,1.6935,1.5038,0,-2387.78,1988.934)"
           gradientUnits="userSpaceOnUse"><stop
             offset="0"
             stop-color="#fff"
             id="stop5" /><stop
             offset="1"
             stop-color="#fff"
             stop-opacity="0"
             id="stop6" /></radialGradient><path
           fill="url(#b)"
           d="m 48.42,-17.981 c 0,9.212 -7.553,16.679 -16.87,16.679 -9.317,0 -16.87,-7.467 -16.87,-16.679 0,-9.212 7.553,-16.679 16.87,-16.679 9.317,0 16.87,7.467 16.87,16.679"
           id="path6"
           style="fill:url(#b)" /><radialGradient
           id="c"
           cx="-1186.125"
           cy="1608.61"
           r="14.351"
           gradientTransform="matrix(0,1.6935,1.5038,0,-2387.78,1988.934)"
           gradientUnits="userSpaceOnUse"><stop
             offset="0"
             stop-color="#fff"
             id="stop7" /><stop
             offset="1"
             stop-color="#fff"
             stop-opacity="0"
             id="stop8" /></radialGradient><path
           fill="url(#c)"
           d="m 48.42,-17.981 c 0,9.212 -7.553,16.679 -16.87,16.679 -9.317,0 -16.87,-7.467 -16.87,-16.679 0,-9.212 7.553,-16.679 16.87,-16.679 9.317,0 16.87,7.467 16.87,16.679"
           id="path8"
           style="fill:url(#c)" /><path
           fill="#00a54d"
           d="m 27.27,-25.287 c -1.863,2.258 -9.666,11.435 -8.974,17.64 0.482,0.61 1.013,1.182 1.574,1.72 -0.082,-4.75 5.492,-9.833 9.842,-13.67 z"
           id="path9" /><g
           transform="matrix(1.0075,0,0,1.00084,1.107,-34.878)"
           id="g10"><linearGradient
             id="d"
             x1="-1022.497"
             x2="-1026.453"
             y1="1131.197"
             y2="1135.837"
             gradientTransform="matrix(1.0075,0,0,-1.0008,1054.326,1153.657)"
             gradientUnits="userSpaceOnUse"><stop
               offset="0"
               stop-color="#97ca43"
               id="stop9" /><stop
               offset="1"
               stop-color="#97ca43"
               stop-opacity="0"
               id="stop10" /></linearGradient><path
             fill="url(#d)"
             d="m 25.967,9.583 c -1.848,2.256 -9.593,11.425 -8.906,17.625 0.478,0.61 1.005,1.181 1.562,1.718 -0.081,-4.745 5.451,-9.825 9.769,-13.658 z"
             id="path10"
             style="fill:url(#d)" /></g><g
           transform="matrix(1.0075,0,0,1.00084,0.968,-34.846)"
           id="g12"><path
             fill="#02a74d"
             d="m 21.561,2.677 a 17,17 0 0 0 -2.687,2.031 c 2.656,0.508 5.32,2.862 6.781,4.812 1.272,2.002 1.963,3.837 2.861,5.731 a 91,91 0 0 1 1.896,-1.587 L 30.408,5.438 C 28.429,4.2 25.158,2.571 21.592,2.677 c -0.008,0.005 -0.024,-0.005 -0.031,0"
             id="path11" /><linearGradient
             id="e"
             x1="-1022.39"
             x2="-1018.766"
             y1="1142.3361"
             y2="1150.379"
             gradientTransform="matrix(1.0075,0,0,-1.0008,1054.187,1153.625)"
             gradientUnits="userSpaceOnUse"><stop
               offset="0"
               stop-color="#97ca43"
               id="stop11" /><stop
               offset="1"
               stop-color="#97ca43"
               stop-opacity="0"
               id="stop12" /></linearGradient><path
             fill="url(#e)"
             d="m 21.561,2.677 a 17,17 0 0 0 -2.687,2.031 c 2.656,0.508 5.32,2.862 6.781,4.812 1.272,2.002 1.963,3.837 2.861,5.731 a 91,91 0 0 1 1.896,-1.587 L 30.408,5.438 C 28.429,4.2 25.158,2.571 21.592,2.677 c -0.008,0.005 -0.024,-0.005 -0.031,0"
             id="path12"
             style="fill:url(#e)" /></g><path
           fill="#00a54d"
           d="m 35.837,-25.28 c 1.856,2.26 9.633,11.445 8.943,17.654 -0.48,0.61 -1.009,1.183 -1.568,1.722 0.081,-4.754 -5.474,-9.842 -9.81,-13.682 l 2.435,-5.695 z"
           id="path13" /><g
           transform="matrix(-1.00417,0,0,1.00169,61.912,-34.88)"
           id="g14"><linearGradient
             id="f"
             x1="1745.975"
             x2="1742.02"
             y1="1130.484"
             y2="1135.124"
             gradientTransform="matrix(-1.0042,0,0,-1.0017,1777.409,1153.894)"
             gradientUnits="userSpaceOnUse"><stop
               offset="0"
               stop-color="#97ca43"
               id="stop13" /><stop
               offset="1"
               stop-color="#97ca43"
               stop-opacity="0"
               id="stop14" /></linearGradient><path
             fill="url(#f)"
             d="m 25.967,9.583 c -1.848,2.256 -9.593,11.426 -8.906,17.625 a 17,17 0 0 0 1.562,1.719 c -0.081,-4.746 5.451,-9.825 9.769,-13.659 z"
             id="path14"
             style="fill:url(#f)" /></g><g
           transform="matrix(-1.00417,0,0,1.00169,62.051,-34.848)"
           id="g16"><path
             fill="#02a74d"
             d="m 21.561,2.677 a 17,17 0 0 0 -2.688,2.031 c 2.656,0.508 5.321,2.862 6.781,4.812 1.272,2.002 1.964,3.837 2.862,5.732 0.608,-0.519 1.226,-1.047 1.896,-1.587 L 30.408,5.438 C 28.429,4.2 25.158,2.571 21.592,2.677 c -0.007,0.005 -0.024,-0.005 -0.031,0"
             id="path15" /><linearGradient
             id="g"
             x1="1746.11"
             x2="1749.2061"
             y1="1141.965"
             y2="1147.0081"
             gradientTransform="matrix(-1.0042,0,0,-1.0017,1777.548,1153.863)"
             gradientUnits="userSpaceOnUse"><stop
               offset="0"
               stop-color="#97ca43"
               id="stop15" /><stop
               offset="1"
               stop-color="#97ca43"
               stop-opacity="0"
               id="stop16" /></linearGradient><path
             fill="url(#g)"
             d="m 21.561,2.677 a 17,17 0 0 0 -2.688,2.031 c 2.656,0.508 5.321,2.862 6.781,4.812 1.272,2.002 1.964,3.837 2.862,5.732 0.608,-0.519 1.226,-1.047 1.896,-1.587 L 30.408,5.438 C 28.429,4.2 25.158,2.571 21.592,2.677 c -0.007,0.005 -0.024,-0.005 -0.031,0"
             id="path16"
             style="fill:url(#g)" /></g></g></g></g></svg>
