<?xml version="1.0" encoding="UTF-8" standalone="no"?>
<svg
   viewBox="1 1 1.2 1.2"
   width="100"
   height="100"
   version="1.1"
   id="svg1"
   xmlns="http://www.w3.org/2000/svg"
   xmlns:svg="http://www.w3.org/2000/svg">
  <defs
     id="defs1" />
  <path
     d="M 1.436,1.332 C 1.232,1.128 1.18,1.172 1.18,1.172 1.068,1.28 1,1.432 1,1.6 1,1.736 1.044,1.864 1.124,1.964 H 1.128 V 1.96 C 1.08,1.82 1.316,1.476 1.436,1.332 Z M 2.02,1.172 c 0,0 -0.052,-0.044 -0.256,0.156 0.12,0.144 0.356,0.488 0.308,0.628 V 1.96 H 2.076 C 2.152,1.86 2.2,1.732 2.2,1.596 2.2,1.432 2.132,1.28 2.02,1.172 Z M 1.6,1.176 C 1.62,1.168 1.796,1.064 1.912,1.092 H 1.916 V 1.088 C 1.82,1.032 1.72,1 1.6,1 1.48,1 1.38,1.032 1.288,1.088 v 0.004 h 0.004 c 0.1,-0.024 0.264,0.06 0.308,0.084 z m 0,0.308 c 0,-0.004 0,-0.004 0,0 C 1.416,1.62 1.108,1.96 1.204,2.052 1.312,2.144 1.448,2.2 1.6,2.2 1.752,2.2 1.888,2.144 1.996,2.052 2.088,1.956 1.78,1.62 1.6,1.484 Z"
     fill="#187e3f"
     id="path1"
     style="stroke-width:0.04" />
</svg>
