<svg height="1228" width="2500" xmlns="http://www.w3.org/2000/svg" viewBox="0 0 110 54.016"><path d="M0 0h110v54.016H0z" fill="#0f7a10"/><path d="M79.724 28.242l4.213-5.79a11.98 11.98 0 0 1-3.88-1.673 4.436 4.436 0 0 1-1.745-3.771 4.261 4.261 0 0 1 1.888-3.714 9.467 9.467 0 0 1 5.436-1.314c7.405 0 9.334 3.893 10.643 5.541l3.972-5.459a11.524 11.524 0 0 0-2.513-2.881Q93.59 5.753 85.521 5.753q-7.1 0-11.1 3.114a10.053 10.053 0 0 0-4.005 8.37c0 5.554 3.102 9.06 9.308 11.005zm20.418-.293q-2.784-2.479-8.625-3.883l-4.26 5.854a17.635 17.635 0 0 1 6.247 2.571 4.179 4.179 0 0 1 1.8 3.656 5.042 5.042 0 0 1-2.117 4.371 10.449 10.449 0 0 1-6.123 1.514c-6.158 0-9.061-2.041-12.026-7.354l-4.25 5.84a11.823 11.823 0 0 0 3.2 4.027q4.549 3.714 12.846 3.714 7.782 0 12.131-3.285a10.9 10.9 0 0 0 4.349-9.227 9.906 9.906 0 0 0-3.173-7.797zm-36.614 19.4h-1.775V6.668h1.771zM11.391 6.477a1.78 1.78 0 0 1 1.5.7 3.876 3.876 0 0 1-.07 4.037 2.136 2.136 0 0 1-1.725.746h-.01v-1.246h.009a1.19 1.19 0 0 0 1-.416 2 2 0 0 0 .3-1.2 1.677 1.677 0 0 0-.243-.981.81.81 0 0 0-.7-.337.67.67 0 0 0-.583.286 3.072 3.072 0 0 0-.359 1.052l-.111.553a3.124 3.124 0 0 1-.7 1.589 1.721 1.721 0 0 1-1.3.531 1.643 1.643 0 0 1-1.361-.649 2.864 2.864 0 0 1-.505-1.795 3.045 3.045 0 0 1 .556-1.975 2.025 2.025 0 0 1 1.559-.709h.01V7.89h-.005a1.092 1.092 0 0 0-.824.37 1.727 1.727 0 0 0-.266 1.068 1.52 1.52 0 0 0 .211.871.683.683 0 0 0 .593.3.712.712 0 0 0 .6-.277 2.643 2.643 0 0 0 .358-1l.111-.572a3.588 3.588 0 0 1 .69-1.669 1.62 1.62 0 0 1 1.265-.506zm-1.268 35.9a3.588 3.588 0 0 0-.69 1.669l-.111.572a2.643 2.643 0 0 1-.358 1 .712.712 0 0 1-.6.277.683.683 0 0 1-.593-.3 1.52 1.52 0 0 1-.211-.871 1.727 1.727 0 0 1 .266-1.068 1.091 1.091 0 0 1 .824-.37h.009v-1.234h-.01a2.026 2.026 0 0 0-1.559.709 3.045 3.045 0 0 0-.556 1.975 2.864 2.864 0 0 0 .505 1.795 1.643 1.643 0 0 0 1.361.649 1.721 1.721 0 0 0 1.3-.531 3.124 3.124 0 0 0 .7-1.589l.111-.553a3.072 3.072 0 0 1 .359-1.052.67.67 0 0 1 .583-.286.81.81 0 0 1 .7.337 1.677 1.677 0 0 1 .243.981 2 2 0 0 1-.3 1.2 1.19 1.19 0 0 1-1 .416h-.009v1.239h.01a2.136 2.136 0 0 0 1.725-.746 3.876 3.876 0 0 0 .07-4.037 1.78 1.78 0 0 0-1.5-.7 1.62 1.62 0 0 0-1.269.515zm3.153-16.046v1.305a1.612 1.612 0 0 1-.79.177l-.72.028a1.219 1.219 0 0 0-.829.269 1.089 1.089 0 0 0-.233.773v1.613h2.577v1.264h-6.6v-2.988a4.174 4.174 0 0 1 .021-.428v.136a2.57 2.57 0 0 1 .377-1.262l-.054.067a1.819 1.819 0 0 1 .157-.225 1.678 1.678 0 0 1 1.365-.612 1.535 1.535 0 0 1 1.57 1.077 1.257 1.257 0 0 1 .489-.693 1.794 1.794 0 0 1 .915-.237l.979-.055a1.427 1.427 0 0 0 .762-.2zm-4.591 1.42a.879.879 0 0 0-.713.3 1.3 1.3 0 0 0-.247.847v1.6h1.976v-1.656a1.168 1.168 0 0 0-.261-.81.971.971 0 0 0-.756-.284zm-2-4.067h6.6V22.42h-6.6zm1.137-9.187H6.685v4.861h6.6v-4.861h-1.137v3.6h-1.685v-3.255H9.372v3.255H7.817zm0 19.971H6.685v4.861h6.6v-4.861h-1.137v3.6h-1.685v-3.255H9.372v3.255H7.817zm8.323 12.88h8.754l6.65-9.139-4.377-6.016zM54.499 6.67h-8.754l-5.441 7.477 4.377 6.015zm-28.391 0h-8.755l29.6 40.672h8.754z" fill="#fff"/></svg>