<?xml version="1.0" encoding="UTF-8" standalone="no"?>
<!-- Created with Inkscape (http://www.inkscape.org/) -->

<svg
   width="100"
   height="100"
   viewBox="0 0 100 100"
   version="1.1"
   id="svg1"
   xml:space="preserve"
   xmlns="http://www.w3.org/2000/svg"
   xmlns:svg="http://www.w3.org/2000/svg"><defs
     id="defs1" /><g
     id="layer1"><g
       id="g1"
       transform="matrix(1.2279883,0,0,1.2279883,25.440234,25.447602)"><path
         fill="#0f7a10"
         d="M -20.717,0 H 60.717 V 39.988 H -20.717 Z"
         style="display:inline;stroke-width:0.740302"
         id="path1" /><path
         fill="#ffffff"
         d="m 38.303,20.908 3.12,-4.287 A 8.9,8.9 0 0 1 38.55,15.383 3.29,3.29 0 0 1 37.258,12.591 3.15,3.15 0 0 1 38.656,9.841 7,7 0 0 1 42.68,8.869 c 5.482,0 6.91,2.882 7.879,4.102 l 2.94,-4.041 a 8.5,8.5 0 0 0 -1.86,-2.133 q -3.07,-2.538 -9.044,-2.538 -5.256,0 -8.218,2.305 a 7.44,7.44 0 0 0 -2.965,6.197 c 0,4.111 2.297,6.707 6.891,8.147 M 53.419,20.691 Q 51.358,18.855 47.034,17.816 L 43.88,22.15 a 13,13 0 0 1 4.625,1.903 3.1,3.1 0 0 1 1.332,2.707 3.73,3.73 0 0 1 -1.567,3.236 7.74,7.74 0 0 1 -4.533,1.12 c -4.559,0 -6.708,-1.51 -8.903,-5.444 l -3.146,4.324 a 8.7,8.7 0 0 0 2.369,2.98 q 3.367,2.75 9.51,2.75 5.76,0 8.98,-2.432 a 8.07,8.07 0 0 0 3.22,-6.83 7.33,7.33 0 0 0 -2.349,-5.773 z M 26.313,35.053 H 25 V 4.936 h 1.311 z M -12.284,4.795 a 1.32,1.32 0 0 1 1.11,0.518 2.87,2.87 0 0 1 -0.051,2.989 1.58,1.58 0 0 1 -1.277,0.552 H -12.51 V 7.932 h 0.007 a 0.88,0.88 0 0 0 0.74,-0.308 1.48,1.48 0 0 0 0.222,-0.889 1.24,1.24 0 0 0 -0.18,-0.726 0.6,0.6 0 0 0 -0.518,-0.25 0.5,0.5 0 0 0 -0.431,0.212 2.3,2.3 0 0 0 -0.266,0.78 l -0.082,0.408 a 2.3,2.3 0 0 1 -0.518,1.177 1.27,1.27 0 0 1 -0.963,0.393 1.21,1.21 0 0 1 -1.007,-0.48 2.1,2.1 0 0 1 -0.374,-1.33 2.26,2.26 0 0 1 0.411,-1.461 1.5,1.5 0 0 1 1.155,-0.525 h 0.007 v 0.908 h -0.004 a 0.8,0.8 0 0 0 -0.61,0.274 1.28,1.28 0 0 0 -0.197,0.79 1.1,1.1 0 0 0 0.157,0.645 0.5,0.5 0 0 0 0.439,0.222 0.53,0.53 0 0 0 0.444,-0.205 1.9,1.9 0 0 0 0.265,-0.74 l 0.082,-0.423 a 2.7,2.7 0 0 1 0.51,-1.236 1.2,1.2 0 0 1 0.937,-0.375 z m -0.939,26.577 a 2.7,2.7 0 0 0 -0.51,1.235 l -0.083,0.424 a 1.9,1.9 0 0 1 -0.265,0.74 0.53,0.53 0 0 1 -0.444,0.205 0.5,0.5 0 0 1 -0.439,-0.222 1.1,1.1 0 0 1 -0.156,-0.645 1.28,1.28 0 0 1 0.197,-0.79 0.8,0.8 0 0 1 0.61,-0.274 h 0.007 v -0.914 h -0.008 a 1.5,1.5 0 0 0 -1.154,0.525 2.26,2.26 0 0 0 -0.411,1.462 2.1,2.1 0 0 0 0.373,1.329 1.21,1.21 0 0 0 1.008,0.48 1.27,1.27 0 0 0 0.962,-0.393 2.3,2.3 0 0 0 0.519,-1.176 l 0.082,-0.41 a 2.3,2.3 0 0 1 0.266,-0.778 0.5,0.5 0 0 1 0.431,-0.212 0.6,0.6 0 0 1 0.518,0.25 1.24,1.24 0 0 1 0.18,0.726 1.48,1.48 0 0 1 -0.222,0.888 0.88,0.88 0 0 1 -0.74,0.308 h -0.007 v 0.917 h 0.008 a 1.58,1.58 0 0 0 1.277,-0.552 2.87,2.87 0 0 0 0.051,-2.988 1.32,1.32 0 0 0 -1.11,-0.519 1.2,1.2 0 0 0 -0.94,0.382 z m 2.335,-11.88 v 0.967 a 1.2,1.2 0 0 1 -0.585,0.131 l -0.533,0.02 a 0.9,0.9 0 0 0 -0.614,0.2 0.8,0.8 0 0 0 -0.172,0.572 v 1.194 h 1.907 v 0.936 h -4.886 V 21.3 a 3,3 0 0 1 0.016,-0.317 v 0.1 a 1.9,1.9 0 0 1 0.279,-0.933 l -0.04,0.05 a 2,2 0 0 1 0.116,-0.167 1.24,1.24 0 0 1 1.01,-0.453 1.136,1.136 0 0 1 1.163,0.797 0.93,0.93 0 0 1 0.362,-0.513 1.33,1.33 0 0 1 0.677,-0.176 l 0.725,-0.04 a 1.06,1.06 0 0 0 0.564,-0.148 z m -3.4,1.052 a 0.65,0.65 0 0 0 -0.527,0.222 0.96,0.96 0 0 0 -0.183,0.627 v 1.185 h 1.463 v -1.226 a 0.87,0.87 0 0 0 -0.193,-0.6 0.72,0.72 0 0 0 -0.56,-0.21 z m -1.48,-3.01 h 4.886 v -0.936 h -4.886 z m 0.842,-6.802 h -0.842 v 3.599 h 4.886 v -3.599 h -0.841 v 2.665 h -1.248 v -2.41 h -0.808 v 2.41 h -1.15 z m 0,14.785 h -0.842 v 3.598 h 4.886 v -3.598 h -0.841 v 2.665 h -1.248 v -2.41 h -0.808 v 2.41 h -1.15 z m 6.162,9.535 h 6.48 l 4.923,-6.766 -3.24,-4.453 z M 19.629,4.938 h -6.48 l -4.029,5.535 3.24,4.453 z m -21.018,0 H -7.87 l 21.913,30.11 h 6.48 z"
         style="display:inline;stroke-width:0.740302"
         id="path2" /></g></g></svg>
