<?xml version="1.0" encoding="UTF-8" standalone="no"?>
<!-- Created with Inkscape (http://www.inkscape.org/) -->

<svg
   width="100"
   height="100"
   viewBox="0 0 100 100"
   version="1.1"
   id="svg1"
   xml:space="preserve"
   xmlns="http://www.w3.org/2000/svg"
   xmlns:svg="http://www.w3.org/2000/svg"><defs
     id="defs1"><style
       id="style1">.cls-1{fill:none;}.cls-2{fill:#107c10;}.cls-3{clip-path:url(#clip-path);}.cls-4{fill:#fff;}</style><clipPath
       id="clip-path"><rect
         class="cls-1"
         x="20.4"
         y="20.4"
         width="79.29"
         height="79.29"
         id="rect1" /></clipPath></defs><g
     id="layer1"><g
       id="g1"
       transform="scale(0.83333333)"><rect
         class="cls-2"
         width="120"
         height="120"
         id="rect2"
         x="0"
         y="0" /><g
         id="Xbox_2020_Sphere"
         data-name="Xbox 2020 Sphere"><g
           class="cls-3"
           clip-path="url(#clip-path)"
           id="g6"><g
             class="cls-3"
             clip-path="url(#clip-path)"
             id="g5"><path
               class="cls-4"
               d="m 60,52.18 c 0,0 0.08,0 0.12,0.08 11.86,9 32.14,31.31 25.95,37.58 a 39.64,39.64 0 0 1 -52.18,0 c -6.23,-6.31 14.09,-28.61 26,-37.58 0.08,0 0.12,-0.08 0.16,-0.08"
               id="path2" /><path
               class="cls-4"
               d="m 80.67,26.15 a 39.56,39.56 0 0 0 -41.34,0 0.15,0.15 0 0 0 -0.08,0.2 c 0,0.08 0.12,0.08 0.19,0.08 7.66,-1.67 19.37,5 20.44,5.63 a 0.12,0.12 0 0 0 0.16,0 c 1.11,-0.67 12.74,-7.3 20.44,-5.63 a 0.14,0.14 0 0 0 0.19,-0.08 0.13,0.13 0 0 0 0,-0.2"
               id="path3" /><path
               class="cls-4"
               d="M 32.26,31.75 A 0.55,0.55 0 0 0 32.1,31.87 39.62,39.62 0 0 0 28.49,84 c 0,0.08 0.12,0.08 0.2,0.08 0.08,0 0.08,-0.12 0,-0.2 -3,-9.33 12.42,-32 20.44,-41.47 a 0.15,0.15 0 0 0 0,-0.12 c 0,0 0,-0.12 -0.08,-0.12 C 37.06,30.12 32.94,31.39 32.26,31.75"
               id="path4" /><path
               class="cls-4"
               d="m 70.87,42.14 c 0,0 -0.08,0.08 -0.08,0.12 0,0.04 0,0.08 0,0.12 7.94,9.49 23.42,32.14 20.44,41.47 0,0.08 0,0.16 0,0.2 a 0.15,0.15 0 0 0 0.2,-0.08 39.71,39.71 0 0 0 -3.53,-52.14 l -0.16,-0.12 c -0.68,-0.32 -4.8,-1.59 -16.87,10.43"
               id="path5" /></g></g></g></g></g></svg>
