<?xml version="1.0" encoding="UTF-8" standalone="no"?>
<!-- Created with Inkscape (http://www.inkscape.org/) -->

<svg
   width="100"
   height="100"
   viewBox="0 0 100 100"
   version="1.1"
   id="svg1"
   xml:space="preserve"
   xmlns="http://www.w3.org/2000/svg"
   xmlns:svg="http://www.w3.org/2000/svg"><defs
     id="defs1" /><g
     id="layer1"><path
       fill="#187e3f"
       d="M 36.3325,27.6675 C 19.3325,10.6675 15,14.3325 15,14.3325 5.6674997,23.3325 -3.2228382e-7,36 -3.2228382e-7,50 -3.2228382e-7,61.3325 3.6674997,72 10.3325,80.3325 h 0.335 V 80 C 6.6674997,68.3325 26.3325,39.6675 36.3325,27.6675 M 85,14.3325 c 0,0 -4.3325,-3.665 -21.3325,13 10,12 29.665,40.6675 25.665,52.335 V 80 h 0.335 C 96,71.6675 100,61 100,49.6675 A 49.1,49.1 0 0 0 85,14.3325 m -35,0.335 c 1.6675,-0.6675 16.3325,-9.335 26,-7 h 0.3325 V 7.3325 C 68.3325,2.6675 60,0 50,0 40,0 31.6675,2.6675 24,7.3325 v 0.335 h 0.3325 c 8.335,-2 22,5 25.6675,7 m 0,25.665 q 0,-0.5 0,0 C 34.6675,51.6675 8.9999997,80 17,87.6675 26,95.3325 37.3325,100 50,100 c 12.6675,0 24,-4.6675 33,-12.3325 7.6675,-8 -18,-36 -33,-47.335"
       style="stroke-width:3.33333"
       id="path1" /></g></svg>
