<?xml version="1.0" encoding="UTF-8" standalone="no"?>
<!-- Created with Inkscape (http://www.inkscape.org/) -->

<svg
   width="100"
   height="100"
   viewBox="0 0 100 100"
   version="1.1"
   id="svg1"
   xml:space="preserve"
   xmlns="http://www.w3.org/2000/svg"
   xmlns:svg="http://www.w3.org/2000/svg"><defs
     id="defs1" /><g
     id="layer1"><path
       d="m 71.1907,0.9365 -4.7082,0.038 h -8.076 v 98.0899 h 16.7909 c 13.614,0 24.7405,-11.4053 24.7949,-25.0077 v 0 -0.079 -43.921 h 0.01 v -4.0138 c 0,-13.647 -11.149,-25.1078 -24.796,-25.1078 z m -46.3881,0 c -13.6134,0 -24.7399,11.4053 -24.7949,25.0078 v 0 43.999 h -0.01 v 4.0138 c 0,13.647 11.1496,25.1078 24.7966,25.1078 H 47.999 V 0.9745 H 28.8136 v -0.038 z m 0.3123,8.1047 v 0.01 h 3.7004 V 22.1654 9.0512 h 11.11 v 81.9379 h -11.116 v -21.045 21.045 H 25.3937 C 12.5341,89.8147 8.6033,82.3066 8.0826,72.0324 V 69.9441 H 28.8093 L 8.0826,69.9435 V 30.0589 h 7.5036 a 9.2482634,9.2482634 0 0 0 -0.022,0.4311 9.2482634,9.2482634 0 0 0 9.2483,9.2482 9.2482634,9.2482634 0 0 0 9.2483,-9.2482 9.2482634,9.2482634 0 0 0 -5.2455,-8.3246 9.2482634,9.2482634 0 0 0 -4.0028,-0.9237 9.2482634,9.2482634 0 0 0 -9.2263,8.8166 H 8.0821 V 28.1185 C 8.5687,17.8453 12.4219,10.3071 25.1144,9.0414 Z M 77.935,45.0231 c 5.527,0 9.9367,4.4097 9.9367,9.9372 0,5.5275 -4.4097,9.9366 -9.9367,9.9366 -5.5269,0 -9.9366,-4.4097 -9.9366,-9.9366 0,-5.527 4.4097,-9.9372 9.9366,-9.9372 z"
       fill="#ff0001"
       id="path1"
       style="display:inline;stroke-width:0.549839" /></g></svg>
