<?xml version="1.0" encoding="UTF-8" standalone="no"?>
<!-- Created with Inkscape (http://www.inkscape.org/) -->

<svg
   width="100"
   height="100"
   viewBox="0 0 100 100"
   version="1.1"
   id="svg1"
   xml:space="preserve"
   xmlns="http://www.w3.org/2000/svg"
   xmlns:svg="http://www.w3.org/2000/svg"><defs
     id="defs1" /><g
     id="layer1"><g
       id="g1"
       transform="matrix(0.58736461,0,0,0.58736461,2.0914e-7,5.8827158)"><path
         d="m 170.252,20.708289 c -32.996,13.642 -48.861,5.973 -63.16,-3.65 l -16.278,56.462 c 14.285,9.678 31.531,17.635 63.188,3.463 z"
         style="fill:#91c300"
         id="path4" /><path
         style="fill:#00b4f1"
         d="m 62.984,134.21329 c -14.331,-9.645 -29.91,-17.578 -62.984,-3.902 L 16.195,73.743289 c 33.081,-13.678 48.973,-5.938 63.29,3.766 L 62.984,134.21229 Z"
         id="path6" /><path
         d="m 82.235,67.298289 c -8.628,-5.81 -17.907,-11.233 -31.085,-11.333 -8.695,-0.067 -19.045,2.403 -32.184,7.836 L 35.249,7.3792887 c 33.059,-13.669 48.938,-5.933 63.245,3.7640003 z"
         style="fill:#f8682c"
         id="path8" /><path
         d="m 88.069,82.952289 c 14.313,9.637 30.212,17.313001 63.243,3.66 l -16.281,56.234001 c -33.037,13.664 -48.903,5.926 -63.201,-3.77 z"
         style="fill:#ffc300"
         id="path10" /></g></g></svg>
