<?xml version="1.0" encoding="UTF-8" standalone="no"?>
<!-- Created with Inkscape (http://www.inkscape.org/) -->

<svg
   width="100"
   height="100"
   viewBox="0 0 100 100"
   version="1.1"
   id="svg1"
   xml:space="preserve"
   xmlns="http://www.w3.org/2000/svg"
   xmlns:svg="http://www.w3.org/2000/svg"><defs
     id="defs1" /><g
     id="layer1"><g
       id="g1"
       transform="scale(0.1953125)"><path
         d="M 0,0 H 512 V 512 H 0 Z"
         id="path1" /><path
         fill="#ffffff"
         d="m 227.227,21.777 c -1.845,0 -3.704,0.05 -5.567,0.157 -15.314,0.875 -30.76,5.305 -39.494,10.863 l -0.008,73.15 c 2.884,-0.094 5.777,-0.147 8.676,-0.142 23.382,0.036 47.104,3.286 68.47,9.513 l 0.01,-87.507 c -7.034,-3.518 -19.178,-6.03 -32.087,-6.033 z m 80.74,9.16 C 296.042,31.087 284.89,33.301 278,36.533 l -0.008,77.602 v 7.658 c 38.486,15.67 64.814,42.48 58.735,78.764 l -0.96,5.73 -5.562,1.674 c -17.45,5.253 -34.872,9.703 -52.225,13.335 v 25.234 c 25.562,-0.704 51.327,-2.687 77.145,-6.098 l 0.02,-197.928 C 346.861,36.941 331.637,32.261 316.303,31.176 a 100,100 0 0 0 -8.336,-0.238 z M 143.223,46.294 a 99,99 0 0 0 -16.491,1.172 c -15.67,2.454 -31.477,8.565 -40.406,15.402 l -0.01,72.955 c 18.808,-15.81 46.704,-25.143 77.15,-28.54 l 0.007,-57.966 c -4.82,-1.752 -12.018,-2.916 -20.25,-3.023 m 258.394,3.46 c -10.804,0.117 -20.722,1.93 -27.043,4.655 l -0.02,183.182 c 25.074,-4.02 50.16,-9.412 75.122,-16.358 l 1.99,-158.447 c -8.352,-5.9 -23.648,-11.025 -39.05,-12.553 a 101,101 0 0 0 -11,-0.478 z m -222.775,74.202 c -53.72,0.702 -101.407,20.365 -97.887,66.6 15.836,-3.918 30.84,-5.893 44.94,-6.1 34.84,-0.51 64.213,9.704 87.318,27.613 34.608,-3.11 69.852,-10 105.412,-20.314 0.14,-41.287 -74.098,-68.657 -139.783,-67.8 z m -48.877,78.65 q -1.944,-0.004 -3.92,0.045 c -17.256,0.436 -36.45,4.03 -57.566,11.037 5.79,53.808 26.325,106.41 58.5,143.346 6.226,7.15 12.856,13.712 19.875,19.615 29.303,9.282 69.26,12.917 110.534,12.14 3.777,-55.805 -8.717,-108.357 -36.193,-142.74 -21.265,-26.61 -51.064,-43.39 -91.232,-43.444 z m 129.326,22.282 a 545,545 0 0 1 -27.995,4.15 139,139 0 0 1 4.502,5.346 c 3.146,3.937 6.094,8.062 8.873,12.334 9.916,0.144 19.868,0.125 29.857,-0.106 H 259.29 v -21.723 z m 191.817,15.343 c -65.406,17.826 -131.462,25.41 -195.85,25.315 16.998,35.144 23.828,78.093 21.013,122.6 42.482,-2.08 85.03,-8.23 118.187,-15.983 26.693,-32.78 47.37,-77.118 56.65,-131.932 M 400.51,389.9 c -38.334,9.145 -87.95,16.056 -136.873,17.454 -47.67,1.36 -94.336,-2.228 -129.448,-15.262 l -0.01,78.93 c 27.187,12.568 76.414,20.205 127.318,20.298 51.224,0.094 104.214,-7.173 139,-20.773 z"
         id="path2" /></g></g></svg>
