<?xml version="1.0" encoding="UTF-8" standalone="no"?>
<!-- Created with Inkscape (http://www.inkscape.org/) -->

<svg
   width="100"
   height="100"
   viewBox="0 0 100 100"
   version="1.1"
   id="svg1"
   xml:space="preserve"
   xmlns="http://www.w3.org/2000/svg"
   xmlns:svg="http://www.w3.org/2000/svg"><defs
     id="defs1" /><g
     id="layer1"><g
       id="g1"
       transform="scale(0.1953125)"><path
         d="M 0,0 H 512 V 512 H 0 Z"
         id="path1" /><path
         fill="#ffffff"
         d="m 307.723,39.623 c -25.627,-0.292 -48.63,17.365 -54.246,43.44 -6.418,29.8 12.39,58.93 42.19,65.347 29.798,6.417 58.927,-12.39 65.345,-42.19 6.417,-29.798 -12.39,-58.928 -42.188,-65.345 a 55.8,55.8 0 0 0 -11.1,-1.252 z M 270.18,157.503 237.123,311 h 47.055 l 30.97,-143.81 A 72.55,72.55 0 0 1 270.18,157.504 Z M 198.486,329 l -10,30 h 135.028 l -10,-30 z M 73,377 v 30 h 30 v -30 z m 93.486,0 -10,30 h 199.028 l -10,-30 z M 409,377 v 30 h 30 V 377 Z M 57,425 v 62 h 398 v -62 z"
         id="path2" /></g></g></svg>
