<?xml version="1.0" encoding="UTF-8" standalone="no"?>
<svg
   id="svg"
   version="1.1"
   width="80.096855"
   height="100"
   viewBox="0 0 80.096855 100"
   xmlns="http://www.w3.org/2000/svg"
   xmlns:svg="http://www.w3.org/2000/svg">
  <defs
     id="defs1" />
  <g
     id="svgg"
     transform="matrix(0.28409091,0,0,0.28409091,-16.818182,-6.8181818)">
    <path
       id="path0"
       d="m 95.478,168.787 c -4.729,1.851 -6.979,5.135 -8.23,12.013 -0.22,1.21 -0.589,3.19 -0.82,4.4 -0.231,1.21 -0.781,4.18 -1.222,6.6 -0.44,2.42 -0.982,5.39 -1.203,6.6 -0.222,1.21 -1.031,5.71 -1.798,10 -1.632,9.126 -2.142,11.943 -2.605,14.4 -0.187,0.99 -0.548,2.97 -0.802,4.4 -0.255,1.43 -0.62,3.41 -0.811,4.4 -0.192,0.99 -0.526,2.79 -0.744,4 -0.217,1.21 -0.597,3.28 -0.843,4.6 -0.246,1.32 -0.617,3.345 -0.824,4.5 -0.207,1.155 -0.545,3.045 -0.752,4.2 -0.491,2.745 -1.136,6.196 -1.438,7.7 -0.223,1.111 -0.496,2.703 -1.166,6.8 -0.144,0.88 -0.417,2.23 -0.608,3 -0.19,0.77 -0.551,2.66 -0.803,4.2 -0.251,1.54 -0.632,3.7 -0.845,4.8 -0.545,2.807 -1.058,5.602 -1.544,8.4 -0.229,1.32 -0.677,3.75 -0.995,5.4 -0.318,1.65 -0.666,3.72 -0.774,4.6 -0.108,0.88 -0.478,3.168 -0.823,5.084 -1.364,7.587 2.114,13.496 9.029,15.336 2.826,0.752 247.357,0.879 250.097,0.13 8.248,-2.256 10.825,-7.583 8.881,-18.361 -0.574,-3.184 -1.234,-6.869 -1.468,-8.189 -0.233,-1.32 -0.511,-2.76 -0.618,-3.2 -0.107,-0.44 -0.371,-1.88 -0.586,-3.2 -0.38,-2.329 -0.684,-4.02 -1.546,-8.6 -0.227,-1.21 -0.588,-3.19 -0.802,-4.4 -0.214,-1.21 -0.574,-3.19 -0.8,-4.4 -0.226,-1.21 -0.586,-3.19 -0.8,-4.4 -0.214,-1.21 -0.582,-3.19 -0.817,-4.4 -0.236,-1.21 -0.602,-3.145 -0.814,-4.3 -0.711,-3.888 -1.182,-6.488 -1.556,-8.6 -0.205,-1.155 -0.481,-2.64 -0.614,-3.3 -0.302,-1.504 -0.947,-4.955 -1.438,-7.7 -0.443,-2.475 -0.856,-4.732 -1.956,-10.7 -0.446,-2.42 -1.444,-8 -2.218,-12.4 -0.773,-4.4 -1.601,-8.99 -1.84,-10.2 -0.581,-2.943 -1.01,-5.272 -1.55,-8.4 -0.502,-2.909 -1.065,-5.996 -1.423,-7.8 -0.131,-0.66 -0.37,-2.01 -0.532,-3 -0.45,-2.757 -2.354,-6.262 -4.244,-7.811 -3.659,-2.998 -0.237,-2.776 -44.713,-2.898 l -39.9,-0.11 v 8.636 8.635 l 35.592,-0.082 c 29.365,-0.068 35.705,0.013 36.241,0.458 1.067,0.885 1.362,1.9 2.547,8.772 0.597,3.455 1.065,6.046 2.571,14.2 0.771,4.18 1.585,8.68 1.809,10 0.223,1.32 0.613,3.48 0.866,4.8 0.253,1.32 0.614,3.3 0.801,4.4 0.188,1.1 0.513,2.9 0.723,4 0.46,2.414 1.198,6.474 1.671,9.2 0.191,1.1 0.519,2.9 0.729,4 0.21,1.1 0.592,3.17 0.85,4.6 0.258,1.43 0.64,3.5 0.85,4.6 0.373,1.954 0.74,3.946 1.55,8.4 0.81,4.454 1.177,6.446 1.55,8.4 0.21,1.1 0.592,3.17 0.85,4.6 0.258,1.43 0.618,3.41 0.8,4.4 0.182,0.99 0.511,2.88 0.73,4.2 0.22,1.32 0.685,3.75 1.034,5.4 0.954,4.507 0.858,6.168 -0.418,7.171 l -1.054,0.829 H 200 86.108 l -1.097,-0.863 c -1.188,-0.935 -1.212,-1.777 -0.196,-6.937 0.328,-1.664 2.555,-13.934 4.011,-22.1 0.205,-1.155 0.554,-3.09 0.774,-4.3 0.22,-1.21 0.58,-3.19 0.8,-4.4 0.22,-1.21 0.598,-3.235 0.84,-4.5 0.431,-2.249 0.605,-3.199 1.56,-8.5 0.258,-1.43 0.618,-3.41 0.8,-4.4 0.182,-0.99 0.542,-2.97 0.8,-4.4 0.258,-1.43 0.618,-3.41 0.8,-4.4 0.182,-0.99 0.542,-2.97 0.8,-4.4 0.955,-5.301 1.129,-6.251 1.56,-8.5 0.242,-1.265 0.628,-3.335 0.858,-4.6 0.229,-1.265 0.589,-3.2 0.8,-4.3 0.211,-1.1 0.554,-2.99 0.762,-4.2 0.209,-1.21 0.559,-3.19 0.777,-4.4 0.219,-1.21 0.778,-4.36 1.243,-7 1.178,-6.687 1.557,-8.266 2.23,-9.298 l 0.586,-0.898 35.092,-0.102 L 175,185 v -8.4 -8.4 l -38.8,-0.082 c -37.133,-0.079 -38.883,-0.05 -40.722,0.669"
       stroke="none"
       fill="#02b8ee"
       fill-rule="evenodd" />
    <path
       id="path1"
       d="m 191.012,30.635 c -40.494,6.292 -59.37,54.894 -33.698,86.765 31.752,39.42 95.63,16.976 95.63,-33.6 0,-11.697 -5.375,-28.122 -10.537,-32.2 -0.139,-0.11 -0.535,-0.612 -0.879,-1.116 -0.86,-1.258 -4.987,-5.543 -7.21,-7.484 -2.808,-2.451 -3.379,-2.898 -4.386,-3.429 -0.513,-0.27 -1.022,-0.599 -1.132,-0.731 -0.276,-0.332 -1.606,-1.084 -5.8,-3.282 -9.016,-4.725 -21.198,-6.6 -31.988,-4.923 M 117.2,254.483 c -18.82,5.393 -13.572,19.731 7.2,19.668 19.064,-0.058 25.04,-12.641 9,-18.948 -3.112,-1.224 -12.921,-1.66 -16.2,-0.72 m 22.6,21.969 c -9.429,5.12 -24.396,4.878 -32.262,-0.523 -1.464,-1.006 -1.938,-0.915 -1.937,0.371 0.009,6.296 13.263,11.306 24.199,9.146 7.602,-1.501 13.439,-5.842 12.924,-9.611 -0.122,-0.891 -0.163,-0.882 -2.924,0.617 m 133.1,9.424 c 0.385,0.1 1.015,0.1 1.4,0 0.385,-0.101 0.07,-0.183 -0.7,-0.183 -0.77,0 -1.085,0.082 -0.7,0.183 m 4.4,0 c 0.385,0.1 1.015,0.1 1.4,0 0.385,-0.101 0.07,-0.183 -0.7,-0.183 -0.77,0 -1.085,0.082 -0.7,0.183"
       stroke="none"
       fill="#d91e1d"
       fill-rule="evenodd" />
    <path
       id="path2"
       d="m 181.294,188.252 0.106,47.548 1.257,2.6 c 7.22,14.928 27.609,14.349 33.905,-0.962 0.832,-2.024 0.839,-2.365 0.948,-49.387 l 0.109,-47.349 -0.909,0.28 c -9.273,2.856 -22.944,3.112 -32.11,0.601 -0.88,-0.241 -2.008,-0.538 -2.506,-0.659 l -0.907,-0.22 0.107,47.548 m 42.306,39.916 c 0,4.758 -0.156,7.881 -0.4,8.032 -0.22,0.136 -0.4,0.681 -0.4,1.212 0,5.149 -10.628,16.588 -15.411,16.588 -0.33,0 -0.912,0.161 -1.294,0.357 -3.828,1.967 -11.863,1.285 -17.495,-1.485 -5.335,-2.624 -12.2,-10.52 -12.2,-14.033 0,-0.373 -0.162,-0.85 -0.359,-1.059 -0.575,-0.609 -0.889,-3.539 -1.099,-10.266 l -0.197,-6.287 -0.872,0.487 c -0.48,0.267 -0.963,0.577 -1.073,0.689 -0.11,0.111 -1.01,0.816 -2,1.566 -9.439,7.15 -10.595,18.863 -2.678,27.136 2.383,2.49 6.579,5.695 7.456,5.695 0.232,0 0.422,0.18 0.422,0.4 0,0.22 0.253,0.4 0.562,0.4 0.309,0 1.344,0.386 2.3,0.857 2.547,1.255 2.757,1.325 8.238,2.727 3.333,0.852 4.641,0.946 12.9,0.929 8.652,-0.018 12.278,-0.284 12.98,-0.952 0.209,-0.198 0.736,-0.361 1.172,-0.361 0.995,0 3.013,-0.626 6.448,-2 18.037,-7.215 22.294,-25.484 8.2,-35.197 -0.77,-0.53 -1.49,-1.084 -1.6,-1.23 -0.11,-0.146 -0.965,-0.653 -1.9,-1.127 l -1.7,-0.862 v 7.784"
       stroke="none"
       fill="#fffefe"
       fill-rule="evenodd" />
    <path
       id="path3"
       d="m 180.984,140.9 c -0.104,0.275 -0.143,21.2 -0.085,46.5 l 0.104,46 0.099,-46.267 c 0.077,-36.565 0.203,-46.309 0.598,-46.468 0.392,-0.158 0.389,-0.209 -0.013,-0.233 -0.281,-0.018 -0.598,0.193 -0.703,0.468 m 11.516,2.176 c 0.385,0.1 1.015,0.1 1.4,0 0.385,-0.101 0.07,-0.183 -0.7,-0.183 -0.77,0 -1.085,0.082 -0.7,0.183 m 12.4,0 c 0.385,0.1 1.015,0.1 1.4,0 0.385,-0.101 0.07,-0.183 -0.7,-0.183 -0.77,0 -1.085,0.082 -0.7,0.183 M 174.855,226 c -0.005,2.75 0.127,5.72 0.292,6.6 0.167,0.884 0.232,-1.176 0.147,-4.6 -0.191,-7.643 -0.428,-8.724 -0.439,-2 m -8.984,2.5 c -1.297,1.737 -1.988,3.117 -1.703,3.401 0.127,0.128 0.232,0.04 0.232,-0.194 0,-0.235 0.618,-1.345 1.373,-2.467 1.533,-2.278 1.595,-2.746 0.098,-0.74 m 67.904,0.032 c 0.616,0.807 1.201,1.468 1.3,1.468 0.278,0 -1.454,-2.34 -1.966,-2.656 -0.25,-0.155 0.05,0.38 0.666,1.188 m -16.082,3.868 c 0,0.77 0.082,1.085 0.183,0.7 0.1,-0.385 0.1,-1.015 0,-1.4 -0.101,-0.385 -0.183,-0.07 -0.183,0.7 m 18.34,-0.326 c -0.018,0.151 0.166,0.781 0.41,1.4 0.243,0.619 0.594,2.026 0.78,3.126 l 0.337,2 -0.124,-2 c -0.101,-1.638 -1.291,-5.473 -1.403,-4.526 m -12.773,1.993 c -0.033,0.587 -0.164,1.397 -0.29,1.8 -0.218,0.693 -0.205,0.694 0.225,0.023 0.251,-0.391 0.382,-1.201 0.291,-1.8 l -0.166,-1.09 -0.06,1.067 m -47.654,2.166 c 0.003,0.422 0.189,1.037 0.412,1.367 0.297,0.438 0.334,0.276 0.138,-0.6 -0.329,-1.471 -0.558,-1.79 -0.55,-0.767 M 162.537,239 c 0.002,1.76 0.072,2.43 0.156,1.489 0.085,-0.94 0.084,-2.38 -0.002,-3.2 -0.086,-0.819 -0.155,-0.049 -0.154,1.711 m 74.764,2 c 0.004,0.88 0.086,1.193 0.182,0.695 0.096,-0.497 0.092,-1.217 -0.008,-1.6 -0.1,-0.382 -0.179,0.025 -0.174,0.905 m -51.101,3 c 1.083,1.1 2.06,2 2.17,2 0.11,0 -0.687,-0.9 -1.77,-2 -1.083,-1.1 -2.06,-2 -2.17,-2 -0.11,0 0.687,0.9 1.77,2 m -22.97,0 c -0.002,0.576 1.127,2.866 1.156,2.346 0.008,-0.14 -0.249,-0.86 -0.57,-1.6 -0.322,-0.74 -0.585,-1.076 -0.586,-0.746 m 17.793,2.825 c 0.427,0.564 1.497,1.635 2.377,2.38 1.992,1.686 3.19,2.517 1.82,1.261 -0.561,-0.513 -1.91,-1.773 -2.997,-2.8 -1.087,-1.026 -1.627,-1.405 -1.2,-0.841 m -16.035,0.975 c 1.468,2.399 3.097,4.198 5.529,6.107 2.57,2.018 5.483,3.908 5.483,3.558 0,-0.11 -0.675,-0.607 -1.5,-1.104 -2.964,-1.788 -6.485,-4.835 -7.948,-6.879 -1.779,-2.484 -2.588,-3.355 -1.564,-1.682 m 66.28,4.091 c -1.613,1.655 -2.423,2.642 -1.8,2.193 1.432,-1.033 5.512,-5.416 4.881,-5.243 -0.082,0.022 -1.468,1.395 -3.081,3.05 m -32.961,-2.401 c 0.719,0.089 1.799,0.087 2.4,-0.004 0.601,-0.091 0.013,-0.164 -1.307,-0.162 -1.32,0.002 -1.812,0.077 -1.093,0.166 m -0.659,5.821 c 1.104,0.213 2.554,0.208 3.6,-0.013 1.549,-0.327 1.334,-0.368 -1.848,-0.357 -3.244,0.011 -3.417,0.048 -1.752,0.37 M 189.2,262 c 1.368,0.438 2.419,0.438 1.4,0 -0.44,-0.189 -1.16,-0.338 -1.6,-0.332 -0.643,0.009 -0.604,0.075 0.2,0.332 m 20.2,0 c -1.019,0.438 0.032,0.438 1.4,0 0.804,-0.257 0.843,-0.323 0.2,-0.332 -0.44,-0.006 -1.16,0.143 -1.6,0.332 m -12.342,0.796 c 1.572,0.137 4.272,0.136 6,-0.003 2.457,-0.197 1.835,-0.252 -2.858,-0.249 -4.386,0.002 -5.231,0.07 -3.142,0.252 M 65.2,336.757 c 0,21.361 0.133,23.529 1.625,26.48 1.342,2.653 4.129,4.974 7.1,5.912 l 2.698,0.851 123.188,-0.005 c 132.386,-0.005 125.396,0.102 128.751,-1.971 1.852,-1.145 3.769,-3.385 4.796,-5.604 0.814,-1.76 1.634,-45.62 0.852,-45.62 -0.122,0 -1.166,0.533 -2.319,1.184 -4.838,2.73 7.739,2.498 -131.845,2.428 L 73.892,320.349 71.646,319.52 c -1.235,-0.456 -2.966,-1.307 -3.846,-1.891 -0.88,-0.584 -1.825,-1.201 -2.1,-1.369 -0.398,-0.244 -0.5,3.957 -0.5,20.497"
       stroke="none"
       fill="#464993"
       fill-rule="evenodd" />
    <path
       id="path4"
       d="m 190.4,24.4 c 0,0.222 -1.067,0.4 -2.4,0.4 -1.333,0 -2.4,0.178 -2.4,0.4 0,0.22 -0.619,0.4 -1.376,0.4 -0.757,0 -1.488,0.18 -1.624,0.4 -0.136,0.22 -0.777,0.4 -1.424,0.4 -0.647,0 -1.176,0.16 -1.176,0.355 0,0.195 -0.81,0.476 -1.8,0.624 -0.99,0.149 -1.8,0.439 -1.8,0.646 0,0.206 -0.315,0.381 -0.7,0.388 -0.385,0.006 -1.78,0.567 -3.1,1.245 -1.32,0.678 -2.804,1.437 -3.297,1.687 -0.493,0.25 -0.898,0.59 -0.9,0.755 -0.002,0.165 -0.323,0.3 -0.715,0.3 -0.391,0 -0.971,0.36 -1.288,0.8 -0.317,0.44 -0.857,0.8 -1.2,0.8 -0.343,0 -0.883,0.36 -1.2,0.8 -0.317,0.44 -0.715,0.8 -0.884,0.8 -0.323,0 -1.737,1.085 -2.414,1.854 -1.564,1.775 -2.632,2.805 -3.287,3.173 -0.419,0.234 -0.954,0.774 -1.188,1.2 -0.235,0.425 -0.759,1.043 -1.164,1.373 -1.664,1.354 -3.863,3.778 -3.863,4.258 0,0.136 -0.316,0.539 -0.703,0.895 -0.386,0.356 -0.957,1.142 -1.267,1.747 -0.311,0.605 -0.715,1.1 -0.898,1.1 -0.182,0 -0.332,0.345 -0.332,0.767 0,0.421 -0.158,0.826 -0.352,0.9 -0.527,0.199 -3.608,6.431 -3.898,7.885 -0.14,0.696 -0.41,1.362 -0.602,1.48 -0.191,0.118 -0.348,0.655 -0.348,1.192 0,0.537 -0.18,0.976 -0.4,0.976 -0.22,0 -0.4,0.54 -0.4,1.2 0,0.66 -0.18,1.2 -0.4,1.2 -0.22,0 -0.4,0.72 -0.4,1.6 0,0.88 -0.18,1.6 -0.4,1.6 -0.22,0 -0.4,0.9 -0.4,2 0,1.1 -0.18,2 -0.4,2 -0.256,0 -0.4,3.467 -0.4,9.6 0,6.133 0.144,9.6 0.4,9.6 0.22,0 0.4,0.889 0.4,1.976 0,1.087 0.18,2.088 0.4,2.224 0.22,0.136 0.4,0.867 0.4,1.624 0,0.757 0.18,1.376 0.4,1.376 0.22,0 0.4,0.63 0.4,1.4 0,0.77 0.18,1.4 0.4,1.4 0.22,0 0.4,0.439 0.4,0.976 0,0.537 0.164,1.078 0.365,1.202 0.201,0.125 0.487,0.945 0.635,1.824 0.149,0.879 0.434,1.598 0.635,1.598 0.201,0 0.365,0.36 0.365,0.8 0,0.44 0.18,0.8 0.4,0.8 0.22,0 0.4,0.36 0.4,0.8 0,0.44 0.18,0.8 0.4,0.8 0.22,0 0.4,0.36 0.4,0.8 0,0.44 0.18,0.8 0.4,0.8 0.22,0 0.4,0.236 0.4,0.525 0,0.288 0.36,0.911 0.8,1.383 0.44,0.472 0.8,1.096 0.8,1.387 0,0.291 0.36,0.788 0.8,1.105 0.44,0.317 0.8,0.78 0.8,1.029 0,0.249 0.54,1.017 1.2,1.708 0.66,0.691 1.2,1.36 1.2,1.487 0,0.308 7.526,7.776 7.836,7.776 0.134,0 0.72,0.495 1.304,1.1 0.583,0.605 1.555,1.355 2.16,1.668 0.605,0.312 1.1,0.717 1.1,0.9 0,0.182 0.236,0.332 0.525,0.332 0.288,0 0.911,0.36 1.383,0.8 0.472,0.44 1.136,0.8 1.475,0.8 0.339,0 0.617,0.16 0.617,0.355 0,0.195 1.255,0.96 2.79,1.7 l 2.79,1.345 0.01,11.1 0.01,11.1 h -39.176 c -25.687,0 -39.262,0.138 -39.424,0.4 -0.136,0.22 -0.689,0.4 -1.229,0.4 -0.54,0 -1.294,0.157 -1.676,0.35 -3.476,1.749 -4.573,2.513 -6.77,4.711 -1.389,1.388 -2.525,2.798 -2.525,3.132 0,0.334 -0.135,0.608 -0.3,0.61 -0.359,0.004 -1.3,1.941 -1.3,2.677 0,0.286 -0.18,0.52 -0.4,0.52 -0.22,0 -0.4,0.709 -0.4,1.576 0,0.867 -0.18,1.688 -0.4,1.824 -0.22,0.136 -0.4,1.101 -0.4,2.144 0,1.043 -0.163,2.067 -0.361,2.276 -0.344,0.361 -0.531,1.424 -1.052,5.98 -0.126,1.1 -0.389,2.36 -0.585,2.8 -0.376,0.843 -0.552,1.982 -1.287,8.3 -0.249,2.145 -0.602,3.9 -0.784,3.9 -0.182,0 -0.331,1.08 -0.331,2.4 0,1.333 -0.178,2.4 -0.4,2.4 -0.22,0 -0.4,0.9 -0.4,2 0,1.1 -0.18,2 -0.4,2 -0.22,0 -0.4,0.889 -0.4,1.976 0,1.087 -0.18,2.088 -0.4,2.224 -0.22,0.136 -0.4,1.137 -0.4,2.224 0,1.087 -0.18,1.976 -0.4,1.976 -0.22,0 -0.4,0.889 -0.4,1.976 0,1.087 -0.18,2.088 -0.4,2.224 -0.22,0.136 -0.4,1.227 -0.4,2.424 0,1.197 -0.18,2.176 -0.4,2.176 -0.22,0 -0.4,0.889 -0.4,1.976 0,1.087 -0.18,2.088 -0.4,2.224 -0.22,0.136 -0.4,1.137 -0.4,2.224 0,1.087 -0.18,1.976 -0.4,1.976 -0.22,0 -0.4,0.889 -0.4,1.976 0,1.087 -0.18,2.088 -0.4,2.224 -0.22,0.136 -0.4,1.126 -0.4,2.2 0,1.074 -0.18,2.064 -0.4,2.2 -0.22,0.136 -0.4,1.126 -0.4,2.2 0,1.074 -0.18,2.064 -0.4,2.2 -0.22,0.136 -0.4,1.137 -0.4,2.224 0,1.087 -0.18,1.976 -0.4,1.976 -0.22,0 -0.4,0.889 -0.4,1.976 0,1.087 -0.18,2.088 -0.4,2.224 -0.22,0.136 -0.4,1.101 -0.4,2.144 0,1.043 -0.163,2.067 -0.361,2.276 -0.345,0.363 -0.596,1.857 -1.089,6.48 -0.123,1.155 -0.387,2.1 -0.587,2.1 -0.2,0 -0.363,0.889 -0.363,1.976 0,1.087 -0.18,2.088 -0.4,2.224 -0.22,0.136 -0.4,1.101 -0.4,2.144 0,1.043 -0.163,2.067 -0.361,2.276 -0.338,0.356 -0.518,1.406 -1.091,6.38 -0.127,1.1 -0.378,2.182 -0.558,2.403 -0.18,0.222 -0.456,2.157 -0.614,4.3 -0.157,2.144 -0.441,3.897 -0.631,3.897 -0.191,0 -0.345,14.672 -0.345,32.8 0,21.6 0.137,32.8 0.4,32.8 0.22,0 0.4,0.475 0.4,1.056 0,3.817 7.527,11.344 11.344,11.344 0.581,0 1.056,0.18 1.056,0.4 0,0.266 42.8,0.4 127.6,0.4 84.8,0 127.6,-0.134 127.6,-0.4 0,-0.22 0.459,-0.4 1.02,-0.4 1.089,0 3.187,-0.95 4.089,-1.852 0.301,-0.301 0.701,-0.548 0.887,-0.548 0.544,0 3.352,-2.899 3.972,-4.1 0.312,-0.605 0.717,-1.1 0.9,-1.1 0.182,0 0.332,-0.36 0.332,-0.8 0,-0.44 0.141,-0.8 0.313,-0.8 0.172,0 0.541,-0.855 0.822,-1.9 0.28,-1.045 0.687,-2.53 0.904,-3.3 0.597,-2.113 0.227,-63.097 -0.401,-66.2 -0.267,-1.32 -0.582,-3.345 -0.699,-4.5 -0.117,-1.155 -0.376,-2.1 -0.576,-2.1 -0.2,0 -0.363,-0.889 -0.363,-1.976 0,-1.087 -0.18,-2.088 -0.4,-2.224 -0.22,-0.136 -0.4,-1.101 -0.4,-2.144 0,-1.043 -0.163,-2.067 -0.361,-2.276 -0.345,-0.363 -0.596,-1.857 -1.089,-6.48 -0.123,-1.155 -0.387,-2.1 -0.587,-2.1 -0.2,0 -0.363,-0.889 -0.363,-1.976 0,-1.087 -0.18,-2.088 -0.4,-2.224 -0.22,-0.136 -0.4,-1.137 -0.4,-2.224 0,-1.087 -0.18,-1.976 -0.4,-1.976 -0.22,0 -0.4,-0.889 -0.4,-1.976 0,-1.087 -0.18,-2.088 -0.4,-2.224 -0.22,-0.136 -0.4,-1.227 -0.4,-2.424 0,-1.197 -0.18,-2.176 -0.4,-2.176 -0.22,0 -0.4,-0.9 -0.4,-2 0,-1.1 -0.18,-2 -0.4,-2 -0.22,0 -0.4,-0.99 -0.4,-2.2 0,-1.21 -0.18,-2.2 -0.4,-2.2 -0.22,0 -0.4,-0.9 -0.4,-2 0,-1.1 -0.18,-2 -0.4,-2 -0.222,0 -0.4,-1.067 -0.4,-2.4 0,-1.333 -0.178,-2.4 -0.4,-2.4 -0.22,0 -0.4,-0.9 -0.4,-2 0,-1.1 -0.18,-2 -0.4,-2 -0.22,0 -0.4,-0.99 -0.4,-2.2 0,-1.21 -0.18,-2.2 -0.4,-2.2 -0.22,0 -0.4,-0.9 -0.4,-2 0,-1.1 -0.18,-2 -0.4,-2 -0.222,0 -0.4,-1.067 -0.4,-2.4 0,-1.333 -0.178,-2.4 -0.4,-2.4 -0.22,0 -0.4,-0.9 -0.4,-2 0,-1.1 -0.155,-2 -0.345,-2 -0.19,0 -0.474,-1.753 -0.631,-3.897 -0.158,-2.143 -0.434,-4.078 -0.614,-4.3 -0.18,-0.221 -0.424,-1.303 -0.543,-2.403 -0.118,-1.1 -0.413,-2.99 -0.656,-4.2 -0.883,-4.396 -1.263,-6.641 -1.472,-8.7 -0.117,-1.155 -0.376,-2.1 -0.576,-2.1 -0.2,0 -0.363,-0.889 -0.363,-1.976 0,-1.087 -0.18,-2.088 -0.4,-2.224 -0.22,-0.136 -0.4,-1.126 -0.4,-2.2 0,-1.074 -0.18,-2.064 -0.4,-2.2 -0.22,-0.136 -0.4,-1.036 -0.4,-2 0,-0.964 -0.18,-1.864 -0.4,-2 -0.22,-0.136 -0.4,-0.867 -0.4,-1.624 0,-0.757 -0.18,-1.376 -0.4,-1.376 -0.22,0 -0.4,-0.54 -0.4,-1.2 0,-0.66 -0.18,-1.2 -0.4,-1.2 -0.22,0 -0.4,-0.243 -0.4,-0.541 0,-0.297 -0.54,-1.105 -1.2,-1.796 -0.66,-0.691 -1.2,-1.428 -1.2,-1.639 0,-0.211 -0.675,-0.887 -1.5,-1.504 -0.824,-0.616 -1.848,-1.435 -2.275,-1.82 -0.427,-0.385 -1.012,-0.7 -1.3,-0.7 -0.289,0 -0.525,-0.141 -0.525,-0.313 0,-0.172 -0.855,-0.545 -1.9,-0.83 -1.045,-0.284 -2.313,-0.683 -2.819,-0.887 -0.541,-0.218 -17.176,-0.37 -40.5,-0.37 H 224 V 150 c 0,-9.689 0.081,-11.2 0.6,-11.2 0.33,0 0.6,-0.18 0.6,-0.4 0,-0.22 0.36,-0.4 0.8,-0.4 0.44,0 0.8,-0.18 0.8,-0.4 0,-0.22 0.36,-0.4 0.8,-0.4 0.44,0 0.8,-0.18 0.8,-0.4 0,-0.22 0.32,-0.4 0.712,-0.4 0.391,0 0.971,-0.36 1.288,-0.8 0.317,-0.44 0.897,-0.8 1.288,-0.8 0.392,0 0.712,-0.15 0.712,-0.332 0,-0.183 0.495,-0.587 1.1,-0.898 0.605,-0.31 1.391,-0.881 1.747,-1.267 0.356,-0.387 0.835,-0.703 1.065,-0.703 0.359,0 1.847,-1.416 5.972,-5.685 0.486,-0.503 1.603,-1.545 2.481,-2.315 0.879,-0.77 1.606,-1.625 1.617,-1.9 0.01,-0.275 0.198,-0.5 0.418,-0.5 0.22,0 0.4,-0.182 0.4,-0.404 0,-0.222 0.54,-0.968 1.2,-1.659 0.66,-0.691 1.2,-1.499 1.2,-1.796 0,-0.298 0.18,-0.541 0.4,-0.541 0.22,0 0.4,-0.236 0.4,-0.525 0,-0.288 0.36,-0.911 0.8,-1.383 0.44,-0.472 0.8,-1.136 0.8,-1.475 0,-0.339 0.18,-0.617 0.4,-0.617 0.22,0 0.4,-0.36 0.4,-0.8 0,-0.44 0.18,-0.8 0.4,-0.8 0.22,0 0.4,-0.36 0.4,-0.8 0,-0.44 0.18,-0.8 0.4,-0.8 0.22,0 0.4,-0.36 0.4,-0.8 0,-0.44 0.18,-0.8 0.4,-0.8 0.22,0 0.4,-0.45 0.4,-1 0,-0.55 0.18,-1 0.4,-1 0.22,0 0.4,-0.42 0.4,-0.933 0,-0.514 0.123,-1.057 0.274,-1.208 0.427,-0.426 1.313,-3.167 1.32,-4.079 0.003,-0.451 0.185,-0.999 0.405,-1.219 0.219,-0.219 0.517,-2.325 0.661,-4.68 0.144,-2.354 0.414,-4.281 0.601,-4.281 0.186,0 0.339,-2.61 0.339,-5.8 0,-3.19 -0.153,-5.8 -0.339,-5.8 -0.187,0 -0.457,-1.927 -0.601,-4.281 -0.144,-2.355 -0.442,-4.461 -0.661,-4.68 -0.22,-0.22 -0.399,-0.892 -0.399,-1.495 0,-0.603 -0.18,-1.208 -0.4,-1.344 -0.22,-0.136 -0.4,-0.676 -0.4,-1.2 0,-0.524 -0.18,-1.064 -0.4,-1.2 -0.22,-0.136 -0.4,-0.554 -0.4,-0.93 0,-1.072 -3.979,-9.27 -4.499,-9.27 -0.166,0 -0.301,-0.36 -0.301,-0.8 0,-0.44 -0.158,-0.8 -0.351,-0.8 -0.194,0 -0.576,-0.54 -0.849,-1.2 -0.273,-0.66 -0.625,-1.2 -0.781,-1.2 -0.156,0 -0.539,-0.495 -0.851,-1.1 -0.313,-0.605 -1.063,-1.577 -1.668,-2.16 -0.605,-0.584 -1.1,-1.169 -1.1,-1.302 0,-0.739 -10.213,-10.238 -11.007,-10.238 -0.229,0 -0.676,-0.36 -0.993,-0.8 -0.317,-0.44 -0.814,-0.8 -1.105,-0.8 -0.291,0 -0.915,-0.36 -1.387,-0.8 -0.472,-0.44 -1.095,-0.8 -1.383,-0.8 -0.289,0 -0.525,-0.18 -0.525,-0.4 0,-0.22 -0.36,-0.4 -0.8,-0.4 -0.44,0 -0.8,-0.18 -0.8,-0.4 0,-0.22 -0.36,-0.4 -0.8,-0.4 -0.44,0 -0.8,-0.136 -0.8,-0.302 0,-0.167 -0.585,-0.538 -1.3,-0.827 -0.715,-0.288 -1.619,-0.696 -2.009,-0.906 -0.39,-0.211 -1.515,-0.493 -2.5,-0.628 -0.985,-0.135 -1.791,-0.401 -1.791,-0.591 0,-0.19 -0.54,-0.346 -1.2,-0.346 -0.66,0 -1.2,-0.18 -1.2,-0.4 0,-0.22 -0.72,-0.4 -1.6,-0.4 -0.88,0 -1.6,-0.18 -1.6,-0.4 0,-0.22 -0.9,-0.4 -2,-0.4 -1.1,0 -2,-0.18 -2,-0.4 0,-0.255 -3.333,-0.4 -9.2,-0.4 -5.867,0 -9.2,0.145 -9.2,0.4 m 16.576,5.637 c 12.658,2.281 22.119,7.052 30.447,15.353 14.103,14.056 19.293,33.417 14.212,53.01 -4.169,16.072 -18.523,31.295 -34.435,36.52 -7.696,2.527 -9.726,2.843 -18,2.801 -7.214,-0.037 -7.861,-0.114 -14.305,-1.706 -19.012,-4.697 -35.545,-22.861 -38.969,-42.815 -0.634,-3.695 -0.847,-13.917 -0.346,-16.577 1.074,-5.7 1.32,-6.866 1.606,-7.623 0.167,-0.44 0.52,-1.52 0.785,-2.4 0.265,-0.88 0.642,-1.96 0.837,-2.4 0.195,-0.44 0.907,-2.049 1.583,-3.576 6.851,-15.487 23.043,-27.49 41.209,-30.549 3.146,-0.529 12.521,-0.553 15.376,-0.038 M 184.18,140.851 c 0.209,0.192 0.938,0.349 1.62,0.349 0.682,0 1.411,0.164 1.62,0.365 0.622,0.597 4.754,0.911 11.98,0.911 7.226,0 11.358,-0.314 11.98,-0.911 0.209,-0.201 0.938,-0.365 1.62,-0.365 0.682,0 1.411,-0.164 1.62,-0.365 0.209,-0.201 1.1,-0.426 1.98,-0.5 l 1.6,-0.135 0.102,46.8 c 0.101,46.44 0.096,46.82 -0.73,49.4 -5.774,18.046 -31.002,18.031 -36.378,-0.021 -0.772,-2.592 -0.794,-3.952 -0.794,-49.527 v -46.861 l 1.7,0.255 c 0.935,0.141 1.871,0.413 2.08,0.605 m -8.594,27.123 c 0.611,1.142 0.552,16.528 -0.066,17.146 -0.366,0.366 -8.709,0.48 -35.111,0.48 -38.715,0 -36.08,-0.208 -36.566,2.883 -0.148,0.944 -0.443,2.617 -0.655,3.717 -0.211,1.1 -0.556,2.99 -0.766,4.2 -0.21,1.21 -0.562,3.19 -0.783,4.4 -0.221,1.21 -1.126,6.25 -2.013,11.2 -2.336,13.048 -2.445,13.641 -2.826,15.4 -0.191,0.88 -0.547,2.77 -0.792,4.2 -0.555,3.242 -1.14,6.458 -1.601,8.8 -0.195,0.99 -0.561,3.06 -0.814,4.6 -0.252,1.54 -0.615,3.43 -0.805,4.2 -0.191,0.77 -0.464,2.12 -0.608,3 -0.459,2.809 -0.938,5.543 -1.33,7.6 -0.21,1.1 -0.592,3.17 -0.85,4.6 -0.258,1.43 -0.619,3.41 -0.802,4.4 -0.583,3.138 -1.607,8.808 -2.386,13.2 -1.363,7.691 -2.074,11.504 -2.26,12.12 -0.12,0.395 0.071,1.16 0.424,1.7 l 0.642,0.98 H 200 314.382 l 0.668,-1.02 c 0.575,-0.878 0.604,-1.323 0.209,-3.2 -0.252,-1.199 -0.639,-3.17 -0.859,-4.38 -0.22,-1.21 -0.58,-3.19 -0.8,-4.4 -0.22,-1.21 -0.58,-3.19 -0.8,-4.4 -0.22,-1.21 -0.58,-3.19 -0.8,-4.4 -0.22,-1.21 -0.58,-3.19 -0.8,-4.4 -0.22,-1.21 -0.58,-3.19 -0.8,-4.4 -0.704,-3.871 -1.167,-6.368 -1.409,-7.6 -0.13,-0.66 -0.396,-2.1 -0.592,-3.2 -0.195,-1.1 -0.545,-3.035 -0.777,-4.3 -0.232,-1.265 -0.602,-3.29 -0.822,-4.5 -0.22,-1.21 -0.58,-3.19 -0.8,-4.4 -0.22,-1.21 -0.571,-3.145 -0.779,-4.3 -0.209,-1.155 -1.39,-7.59 -2.625,-14.3 -1.234,-6.71 -2.429,-13.28 -2.655,-14.6 -0.526,-3.082 -0.947,-5.406 -1.521,-8.4 -0.253,-1.32 -0.646,-3.48 -0.874,-4.8 -0.228,-1.32 -0.587,-3.3 -0.797,-4.4 -0.21,-1.1 -0.484,-2.579 -0.608,-3.286 -0.427,-2.437 1.643,-2.297 -37.102,-2.514 L 223.4,185.4 v -9 -9 l 38.4,-0.121 c 27.947,-0.088 38.999,0.005 40.6,0.341 4.36,0.917 7.79,3.559 9.51,7.326 0.897,1.963 0.869,1.83 3.892,18.654 0.771,4.29 1.769,9.78 2.218,12.2 0.449,2.42 1.003,5.48 1.231,6.8 0.228,1.32 0.571,3.21 0.762,4.2 0.458,2.367 1.149,6.11 1.587,8.6 0.194,1.1 0.543,3.035 0.776,4.3 0.233,1.265 0.593,3.245 0.8,4.4 0.207,1.155 0.567,3.135 0.8,4.4 0.233,1.265 0.593,3.245 0.8,4.4 0.447,2.499 1.105,6.032 1.433,7.7 0.13,0.66 0.396,2.1 0.592,3.2 0.195,1.1 0.563,3.08 0.817,4.4 0.547,2.841 0.963,5.128 1.528,8.4 0.228,1.32 0.592,3.39 0.81,4.6 3.645,20.253 4.125,22.84 4.877,26.277 1.608,7.347 -1.222,13.911 -7.184,16.668 L 325.8,315 H 200 74.2 l -1.8,-0.872 c -6.368,-3.086 -8.549,-8.666 -6.852,-17.528 0.211,-1.1 0.57,-3.08 0.798,-4.4 0.228,-1.32 0.603,-3.435 0.834,-4.7 0.231,-1.265 0.59,-3.245 0.797,-4.4 0.208,-1.155 0.672,-3.72 1.032,-5.7 0.359,-1.98 1.011,-5.58 1.447,-8 0.768,-4.261 0.956,-5.275 1.929,-10.4 0.25,-1.32 0.641,-3.48 0.869,-4.8 0.228,-1.32 0.564,-3.21 0.746,-4.2 0.182,-0.99 0.542,-2.97 0.8,-4.4 0.258,-1.43 0.64,-3.5 0.85,-4.6 0.21,-1.1 0.554,-2.945 0.766,-4.1 0.211,-1.155 0.557,-3.045 0.768,-4.2 0.212,-1.155 0.557,-3 0.768,-4.1 0.395,-2.055 0.835,-4.455 1.65,-9 0.257,-1.43 0.616,-3.41 0.798,-4.4 0.182,-0.99 0.542,-2.97 0.8,-4.4 0.258,-1.43 0.614,-3.41 0.793,-4.4 0.178,-0.99 0.693,-3.87 1.144,-6.4 0.45,-2.53 1.016,-5.59 1.256,-6.8 0.24,-1.21 0.876,-4.72 1.412,-7.8 2.187,-12.553 3.961,-15.461 10.741,-17.599 3.122,-0.985 78.509,-0.82 79.04,0.173 m -0.386,34.569 v 11.743 l -3.1,1.834 c -23.664,14.002 -18.96,40.105 8.9,49.389 2.328,0.776 3.334,1.035 8.4,2.159 1.568,0.347 5.242,0.532 10.6,0.532 5.358,0 9.032,-0.185 10.6,-0.532 5.236,-1.162 6.121,-1.4 9.38,-2.523 28.228,-9.725 31.338,-37.032 5.72,-50.23 l -2.1,-1.082 V 202.317 190.8 h 33.773 c 31.82,0 33.785,0.04 33.979,0.7 0.113,0.385 0.319,1.42 0.458,2.3 0.14,0.88 0.578,3.31 0.975,5.4 0.397,2.09 0.932,5.06 1.189,6.6 0.257,1.54 0.626,3.52 0.82,4.4 0.194,0.88 0.553,2.77 0.798,4.2 0.464,2.712 0.92,5.216 1.566,8.6 0.21,1.1 0.589,3.17 0.842,4.6 0.253,1.43 0.613,3.41 0.8,4.4 0.187,0.99 0.547,2.97 0.8,4.4 0.253,1.43 0.613,3.41 0.8,4.4 0.187,0.99 0.547,2.97 0.8,4.4 0.253,1.43 0.615,3.41 0.803,4.4 1.483,7.801 2.214,11.751 3.629,19.6 0.892,4.95 1.98,10.98 2.419,13.4 1.286,7.089 1.476,8.383 1.284,8.7 -0.286,0.47 -25.735,0.371 -25.735,-0.1 0,-0.22 0.315,-0.403 0.7,-0.406 2.962,-0.024 10.441,-4.137 12.859,-7.071 2.858,-3.467 3.02,-4.202 3.031,-13.758 l 0.01,-8.635 -1.2,-2.309 c -2.141,-4.119 -7.279,-7.961 -12.6,-9.42 -0.99,-0.272 -2.34,-0.695 -3,-0.941 -1.85,-0.69 -13.114,-0.518 -15.8,0.241 -8.505,2.405 -13.966,6.647 -15.585,12.108 -0.823,2.776 -0.401,17.617 0.556,19.545 2.115,4.261 7.921,8.467 13.74,9.953 1.16,0.296 1.985,0.663 1.833,0.816 -0.458,0.458 -136.544,0.336 -136.544,-0.123 0,-0.22 0.316,-0.4 0.702,-0.4 0.938,0 5.463,-1.668 7.679,-2.83 2.95,-1.549 6.563,-5.413 7.557,-8.085 1.109,-2.98 1.294,-16.561 0.265,-19.478 -2.64,-7.481 -11.757,-12.12 -23.803,-12.112 -5.556,0.003 -6.156,0.087 -11.164,1.55 -9.703,2.836 -12.924,7.862 -12.86,20.07 0.066,12.798 3.817,18.041 14.724,20.585 3.93,0.916 2.11,1.1 -10.876,1.1 -14.679,0 -13.636,0.315 -12.831,-3.869 0.332,-1.722 1.594,-8.621 2.806,-15.331 1.212,-6.71 2.559,-14.09 2.994,-16.4 0.435,-2.31 1.055,-5.73 1.377,-7.6 0.559,-3.249 1.368,-7.651 2.28,-12.4 0.654,-3.41 1.051,-5.574 1.538,-8.4 0.247,-1.43 0.637,-3.59 0.866,-4.8 0.639,-3.364 1.042,-5.552 1.546,-8.4 0.504,-2.848 0.907,-5.036 1.546,-8.4 0.229,-1.21 0.605,-3.28 0.834,-4.6 0.523,-3.014 1.561,-8.511 1.831,-9.7 l 0.204,-0.9 h 33.193 33.192 v 11.743 m 50.301,17.851 c 13.607,7.213 16.571,21.858 6.473,31.976 -1.553,1.557 -2.98,2.83 -3.17,2.83 -0.191,0 -0.59,0.225 -0.888,0.5 -1.335,1.235 -6.69,3.888 -10.116,5.013 -5.273,1.731 -12.398,2.887 -17.8,2.887 -5.426,0 -14.79,-1.537 -17.295,-2.839 -0.382,-0.199 -0.969,-0.361 -1.305,-0.361 -0.336,0 -0.923,-0.162 -1.305,-0.36 -0.382,-0.197 -1.594,-0.782 -2.693,-1.3 -6.027,-2.836 -11.486,-7.812 -13.799,-12.578 -1.455,-2.999 -2.006,-10.356 -0.945,-12.612 1.807,-3.84 2.61,-5.114 4.603,-7.303 1.243,-1.366 3.043,-3.015 4,-3.664 0.956,-0.649 1.829,-1.275 1.939,-1.39 0.438,-0.458 2.335,-1.125 2.56,-0.9 0.132,0.132 0.24,3.71 0.24,7.95 0,4.708 0.156,7.806 0.4,7.957 0.22,0.136 0.4,0.689 0.4,1.229 0,0.54 0.159,1.294 0.353,1.676 0.195,0.382 0.594,1.235 0.888,1.895 5.629,12.638 22.598,17.451 34.235,9.709 3.418,-2.273 8.524,-8.286 8.524,-10.037 0,-0.281 0.149,-0.683 0.33,-0.892 0.383,-0.439 1.02,-2.662 1.638,-5.711 0.238,-1.171 0.432,-4.906 0.432,-8.3 0,-6.69 -0.033,-6.612 2.301,-5.375 M 131.6,254.213 c 18.882,4.492 13.293,20.304 -7.2,20.369 -7.171,0.022 -10.526,-0.844 -15.123,-3.905 -7.984,-5.316 -3.469,-14.533 8.15,-16.638 1.305,-0.236 2.823,-0.509 3.373,-0.607 1.776,-0.314 8.126,0.145 10.8,0.781 m 152.33,-0.034 c 6.314,1.752 10.731,5.55 10.958,9.421 0.144,2.452 -0.151,3.204 -2.085,5.321 -1.86,2.035 -2.713,2.598 -6.103,4.027 -5.101,2.151 -15.13,2.703 -18.395,1.012 -0.382,-0.198 -0.969,-0.36 -1.305,-0.36 -0.336,0 -0.923,-0.159 -1.305,-0.353 -0.382,-0.195 -1.235,-0.594 -1.895,-0.888 -11.073,-4.932 -8.143,-15.662 5,-18.308 1.21,-0.244 2.56,-0.526 3,-0.628 1.544,-0.357 10.022,0.171 12.13,0.756 m -22.13,22.58 c 0.66,0.294 1.513,0.693 1.895,0.888 0.382,0.194 0.969,0.353 1.305,0.353 0.336,0 0.923,0.161 1.305,0.357 2.284,1.173 12.193,1.674 15.989,0.808 2.433,-0.555 4.489,-1.13 5.506,-1.541 2.14,-0.864 4.877,-2.292 5.544,-2.894 1.987,-1.793 2.411,2.002 0.521,4.662 -7.704,10.841 -37.049,8.287 -37.063,-3.225 -0.003,-2.203 0.229,-2.315 2.149,-1.039 0.907,0.603 2.189,1.337 2.849,1.631 M 107,275.215 c 1.679,1.133 4.635,2.456 7,3.133 3.818,1.092 5.073,1.252 9.847,1.252 6.407,0 10.644,-0.823 14.653,-2.847 1.451,-0.732 2.522,-1.37 3.175,-1.892 2.718,-2.172 1.63,3.5 -1.184,6.175 -9.571,9.095 -35.291,5.367 -35.291,-5.114 0,-1.75 0.161,-1.813 1.8,-0.707 m -36.083,43.55 c 3.895,1.669 3.738,1.667 131.283,1.549 137.787,-0.128 124.764,0.181 129.898,-3.083 1.36,-0.865 2.615,-1.485 2.788,-1.378 0.559,0.345 0.35,40.81 -0.226,43.785 -0.873,4.504 -3.325,7.719 -7.365,9.654 l -1.895,0.908 -125,0.104 c -92.039,0.077 -125.316,-0.014 -126.2,-0.347 -4.16,-1.564 -6.504,-3.607 -8.139,-7.095 L 65,360.6 64.89,338.414 c -0.126,-25.474 -0.311,-23.659 2.22,-21.841 1.061,0.763 2.774,1.749 3.807,2.192"
       stroke="none"
       fill="#050506"
       fill-rule="evenodd" />
    <path
       id="path5"
       d="m 217.498,140.292 c 0.392,0.278 0.521,10.384 0.603,47.331 l 0.104,46.977 -0.003,-47.167 c -0.002,-41.585 -0.073,-47.186 -0.602,-47.33 -0.443,-0.121 -0.469,-0.071 -0.102,0.189 M 214.6,140.8 c -0.292,0.473 0.099,0.473 1.2,0 0.771,-0.331 0.769,-0.345 -0.076,-0.372 -0.482,-0.015 -0.988,0.152 -1.124,0.372 m -3.2,0.8 c -0.292,0.473 0.099,0.473 1.2,0 0.771,-0.331 0.769,-0.345 -0.076,-0.372 -0.482,-0.015 -0.988,0.152 -1.124,0.372 m -20.6,0.8 c 1.542,0.494 2.364,0.494 1.6,0 -0.33,-0.213 -1.05,-0.373 -1.6,-0.354 l -1,0.034 1,0.32 m 15.6,0 c -0.764,0.494 0.058,0.494 1.6,0 l 1,-0.32 -1,-0.034 c -0.55,-0.019 -1.27,0.141 -1.6,0.354 m -30.631,34.2 c 0.001,4.62 0.059,6.455 0.13,4.078 0.071,-2.377 0.07,-6.157 -0.001,-8.4 -0.071,-2.243 -0.129,-0.298 -0.129,4.322 m -67.158,15.1 c -0.27,1.189 -1.308,6.686 -1.831,9.7 -0.229,1.32 -0.605,3.39 -0.834,4.6 -0.639,3.364 -1.042,5.552 -1.546,8.4 -0.504,2.848 -0.907,5.036 -1.546,8.4 -0.229,1.21 -0.619,3.37 -0.866,4.8 -0.487,2.826 -0.884,4.99 -1.538,8.4 -0.912,4.749 -1.721,9.151 -2.28,12.4 -0.322,1.87 -0.942,5.29 -1.377,7.6 -0.435,2.31 -1.782,9.69 -2.994,16.4 -1.212,6.71 -2.474,13.609 -2.806,15.331 -0.805,4.184 -1.848,3.869 12.831,3.869 12.986,0 14.806,-0.184 10.876,-1.1 -10.907,-2.544 -14.658,-7.787 -14.724,-20.585 -0.064,-12.208 3.157,-17.234 12.86,-20.07 5.008,-1.463 5.608,-1.547 11.164,-1.55 12.046,-0.008 21.163,4.631 23.803,12.112 1.029,2.917 0.844,16.498 -0.265,19.478 -0.994,2.672 -4.607,6.536 -7.557,8.085 -2.216,1.162 -6.741,2.83 -7.679,2.83 -0.386,0 -0.702,0.18 -0.702,0.4 0,0.459 136.086,0.581 136.544,0.123 0.152,-0.153 -0.673,-0.52 -1.833,-0.816 -5.819,-1.486 -11.625,-5.692 -13.74,-9.953 -0.957,-1.928 -1.379,-16.769 -0.556,-19.545 1.619,-5.461 7.08,-9.703 15.585,-12.108 2.686,-0.759 13.95,-0.931 15.8,-0.241 0.66,0.246 2.01,0.669 3,0.941 5.321,1.459 10.459,5.301 12.6,9.42 l 1.2,2.309 -0.01,8.635 c -0.011,9.556 -0.173,10.291 -3.031,13.758 -2.418,2.934 -9.897,7.047 -12.859,7.071 -0.385,0.003 -0.7,0.186 -0.7,0.406 0,0.471 25.449,0.57 25.735,0.1 0.192,-0.317 0.002,-1.611 -1.284,-8.7 -0.439,-2.42 -1.527,-8.45 -2.419,-13.4 -1.415,-7.849 -2.146,-11.799 -3.629,-19.6 -0.188,-0.99 -0.55,-2.97 -0.803,-4.4 -0.253,-1.43 -0.613,-3.41 -0.8,-4.4 -0.187,-0.99 -0.547,-2.97 -0.8,-4.4 -0.253,-1.43 -0.613,-3.41 -0.8,-4.4 -0.187,-0.99 -0.547,-2.97 -0.8,-4.4 -0.253,-1.43 -0.632,-3.5 -0.842,-4.6 -0.646,-3.384 -1.102,-5.888 -1.566,-8.6 -0.245,-1.43 -0.604,-3.32 -0.798,-4.2 -0.194,-0.88 -0.563,-2.86 -0.82,-4.4 -0.257,-1.54 -0.792,-4.51 -1.189,-6.6 -0.397,-2.09 -0.835,-4.52 -0.975,-5.4 -0.139,-0.88 -0.345,-1.915 -0.458,-2.3 -0.194,-0.66 -2.159,-0.7 -33.979,-0.7 H 223.6 v 11.517 11.516 l 2.1,1.082 c 25.618,13.198 22.508,40.505 -5.72,50.23 -3.259,1.123 -4.144,1.361 -9.38,2.523 -1.568,0.347 -5.242,0.532 -10.6,0.532 -5.358,0 -9.032,-0.185 -10.6,-0.532 -5.066,-1.124 -6.072,-1.383 -8.4,-2.159 -27.86,-9.284 -32.564,-35.387 -8.9,-49.389 l 3.1,-1.834 V 202.543 190.8 h -33.192 -33.193 l -0.204,0.9 M 223.2,220.024 c 0,0.233 0.176,0.314 0.392,0.181 0.215,-0.133 0.8,-0.044 1.3,0.199 0.87,0.422 0.876,0.414 0.132,-0.182 -0.894,-0.716 -1.824,-0.817 -1.824,-0.198 m -48.419,0.396 c -0.484,0.306 -0.465,0.369 0.109,0.374 0.622,0.005 0.703,0.677 0.811,6.706 l 0.12,6.7 0.089,-6.876 c 0.09,-6.859 -0.031,-7.598 -1.129,-6.904 m 51.252,0.496 c 0.092,0.064 0.887,0.617 1.767,1.229 l 1.6,1.113 -1.385,-1.229 c -0.762,-0.676 -1.557,-1.229 -1.767,-1.229 -0.21,0 -0.306,0.052 -0.215,0.116 m -57.861,4.384 c -1.927,2.022 -4.194,4.732 -2.929,3.5 1.424,-1.386 5.265,-5.6 5.104,-5.6 -0.096,0 -1.075,0.945 -2.175,2.1 m 63.414,0.032 c 1.203,1.247 2.256,2.268 2.34,2.268 0.305,0 -2.156,-2.65 -3.326,-3.581 -0.66,-0.525 -0.216,0.065 0.986,1.313 m -51.118,7.868 c -0.006,0.55 0.143,1.36 0.332,1.8 l 0.344,0.8 -0.012,-0.8 c -0.006,-0.44 -0.156,-1.25 -0.332,-1.8 l -0.32,-1 -0.012,1 m 42.201,0.756 c -0.148,0.739 -0.249,1.727 -0.225,2.194 0.024,0.468 0.203,0.04 0.398,-0.95 0.195,-0.99 0.296,-1.977 0.225,-2.194 -0.071,-0.216 -0.25,0.211 -0.398,0.95 m 15.074,4.844 c 0,2.647 0.043,2.823 0.368,1.5 0.225,-0.914 0.225,-2.086 0,-3 -0.325,-1.323 -0.368,-1.147 -0.368,1.5 m -75.623,0 c 0,1.21 0.075,1.705 0.167,1.1 0.091,-0.605 0.091,-1.595 0,-2.2 -0.092,-0.605 -0.167,-0.11 -0.167,1.1 m 58.033,3.3 c -1.377,2.336 -1.467,2.535 -0.766,1.7 0.813,-0.968 1.513,-2.2 1.251,-2.2 -0.105,0 -0.323,0.225 -0.485,0.5 m -57.741,1.1 c 0,0.33 0.175,0.87 0.388,1.2 0.345,0.533 0.388,0.533 0.388,0 0,-0.33 -0.175,-0.87 -0.388,-1.2 -0.345,-0.533 -0.388,-0.533 -0.388,0 m 55.004,2.944 c -0.564,0.739 -1.968,2.089 -3.121,2.999 -3.76,2.97 -3.793,2.999 -2.495,2.233 2.549,-1.503 7.836,-6.576 6.854,-6.576 -0.117,0 -0.675,0.605 -1.238,1.344 m -36.216,0.111 c 0,0.213 0.675,1.008 1.5,1.767 l 1.5,1.378 -1.4,-1.596 c -0.77,-0.877 -1.445,-1.672 -1.5,-1.766 -0.055,-0.094 -0.1,0.003 -0.1,0.217 m 53.469,2.445 c -0.571,0.825 -1.426,2.04 -1.902,2.7 -0.475,0.66 -0.227,0.48 0.552,-0.4 1.391,-1.573 2.889,-3.8 2.557,-3.8 -0.093,0 -0.637,0.675 -1.207,1.5 m -41.069,0.482 c 0.33,0.223 0.945,0.409 1.367,0.412 1.023,0.008 0.704,-0.221 -0.767,-0.55 -0.876,-0.196 -1.038,-0.159 -0.6,0.138 M 204,249.2 c -0.824,0.264 -0.859,0.326 -0.2,0.354 0.44,0.019 1.07,-0.141 1.4,-0.354 0.701,-0.453 0.214,-0.453 -1.2,0 m -19.008,0.759 c 0.918,1.051 6.899,4.048 8.037,4.027 0.424,-0.008 -0.129,-0.34 -1.229,-0.737 -2.578,-0.931 -4.454,-1.89 -6.2,-3.17 -1.272,-0.933 -1.327,-0.944 -0.608,-0.12 m 21.408,3.466 c -0.77,0.291 -1.106,0.54 -0.746,0.552 0.36,0.013 1.26,-0.24 2,-0.561 1.666,-0.724 0.662,-0.716 -1.254,0.009 m 22.8,1.058 c -0.77,0.663 -1.04,1.008 -0.6,0.768 1.209,-0.661 2.363,-1.622 2.171,-1.808 -0.094,-0.091 -0.801,0.377 -1.571,1.04 m -31.687,0.212 c 1.163,0.081 2.963,0.081 4,-0.002 1.038,-0.082 0.087,-0.148 -2.113,-0.147 -2.2,0.001 -3.049,0.068 -1.887,0.149 m -12.313,6.887 c 0.33,0.223 0.945,0.409 1.367,0.412 1.023,0.008 0.704,-0.221 -0.767,-0.55 -0.876,-0.196 -1.038,-0.159 -0.6,0.138 m 28.4,0.018 c -0.824,0.264 -0.859,0.326 -0.2,0.354 0.44,0.019 1.07,-0.141 1.4,-0.354 0.701,-0.453 0.214,-0.453 -1.2,0 m -25,0.797 c 0.764,0.331 3.714,0.558 3.367,0.259 -0.092,-0.079 -1.067,-0.247 -2.167,-0.374 -1.287,-0.149 -1.715,-0.108 -1.2,0.115 m 20.8,0.003 -1.6,0.286 1.4,0.029 c 0.77,0.016 1.76,-0.126 2.2,-0.315 0.943,-0.405 0.262,-0.405 -2,0 m -15.177,0.853 c 0.647,0.139 3.247,0.252 5.777,0.252 2.53,0 5.13,-0.113 5.777,-0.252 C 206.425,263.114 203.825,263 200,263 c -3.825,0 -6.425,0.114 -5.777,0.253 m 80.882,11.83 c 0.497,0.096 1.217,0.092 1.6,-0.008 0.382,-0.1 -0.025,-0.179 -0.905,-0.174 -0.88,0.004 -1.193,0.086 -0.695,0.182 M 64.98,315.708 c -0.11,0.286 -0.15,10.504 -0.09,22.706 L 65,360.6 l 1.061,2.262 c 1.635,3.488 3.979,5.531 8.139,7.095 0.884,0.333 34.161,0.424 126.2,0.347 l 125,-0.104 1.895,-0.908 c 4.04,-1.935 6.492,-5.15 7.365,-9.654 0.576,-2.975 0.785,-43.44 0.226,-43.785 -0.173,-0.107 -1.428,0.513 -2.788,1.378 -3.975,2.528 -5.762,2.857 -17.098,3.155 l -10,0.263 9,0.073 c 10.604,0.086 12.797,-0.203 16.8,-2.214 1.65,-0.83 3.142,-1.57 3.316,-1.647 0.85,-0.372 0.116,43.669 -0.758,45.559 -1.027,2.219 -2.944,4.459 -4.796,5.604 -3.355,2.073 3.635,1.966 -128.751,1.971 L 76.623,370 73.925,369.149 c -2.038,-0.644 -3.146,-1.294 -4.535,-2.664 -4.161,-4.102 -4.253,-4.768 -4.108,-29.967 l 0.118,-20.481 2,1.326 c 2.739,1.817 6.245,3.047 8.515,2.988 1.88,-0.05 1.878,-0.051 -0.595,-0.406 -2.988,-0.429 -5.618,-1.509 -8.21,-3.372 -1.371,-0.985 -1.988,-1.235 -2.13,-0.865"
       stroke="none"
       fill="#313148"
       fill-rule="evenodd" />
    <path
       id="path6"
       d="m 217.793,186.2 c 0,24.86 0.048,34.971 0.107,22.469 0.059,-12.502 0.059,-32.842 0,-45.2 -0.059,-12.358 -0.107,-2.129 -0.107,22.731 m -19.088,-42.717 c 0.497,0.096 1.217,0.092 1.6,-0.008 0.382,-0.1 -0.025,-0.179 -0.905,-0.174 -0.88,0.004 -1.193,0.086 -0.695,0.182 M 167.2,250.525 c 0,0.069 0.585,0.654 1.3,1.3 l 1.3,1.175 -1.175,-1.3 c -1.095,-1.212 -1.425,-1.484 -1.425,-1.175 m 102.2,3.918 c -0.66,0.209 -1.83,0.57 -2.6,0.802 -16.661,5.018 -9.894,18.891 9.2,18.861 20.387,-0.031 25.514,-14.596 6.88,-19.543 -2.419,-0.643 -11.573,-0.724 -13.48,-0.12 m -12.189,21.211 c 0.135,11.346 30.262,13.855 36.344,3.026 1.488,-2.649 1.144,-4.012 -0.693,-2.751 -1.995,1.369 -3.874,2.122 -8.862,3.55 -2.821,0.807 -12.542,0.926 -15.4,0.187 -4.931,-1.274 -7.206,-2.21 -10.306,-4.241 -1.086,-0.712 -1.094,-0.71 -1.083,0.229"
       stroke="none"
       fill="#fcba35"
       fill-rule="evenodd" />
    <path
       id="path7"
       d="m 193.023,29.947 c -0.648,0.139 2.222,0.253 6.377,0.253 4.155,0 7.025,-0.114 6.377,-0.253 -0.647,-0.139 -3.517,-0.252 -6.377,-0.252 -2.86,0 -5.73,0.113 -6.377,0.252 M 188.2,30.81 c -0.534,0.237 -0.202,0.276 1,0.117 0.99,-0.131 1.875,-0.303 1.967,-0.383 0.347,-0.301 -2.203,-0.072 -2.967,0.266 m 19.433,-0.266 c 0.092,0.08 0.977,0.252 1.967,0.383 1.202,0.159 1.534,0.12 1,-0.117 -0.764,-0.338 -3.314,-0.567 -2.967,-0.266 M 184.8,31.6 c -0.795,0.514 0.204,0.514 1.4,0 l 0.8,-0.344 -0.8,-0.022 c -0.44,-0.012 -1.07,0.153 -1.4,0.366 m 27.8,0 c 1.196,0.514 2.195,0.514 1.4,0 -0.33,-0.213 -0.96,-0.378 -1.4,-0.366 l -0.8,0.022 0.8,0.344 m -37,3.6 c -0.77,0.422 -1.22,0.766 -1,0.766 0.22,0 1.03,-0.344 1.8,-0.766 0.77,-0.422 1.22,-0.766 1,-0.766 -0.22,0 -1.03,0.344 -1.8,0.766 m 47.564,0.407 c 1.19,0.656 2.27,1.197 2.4,1.202 0.13,0.005 0.686,0.361 1.236,0.791 0.55,0.43 1.18,0.78 1.4,0.778 0.676,-0.006 -1.065,-1.175 -3.89,-2.611 -3.307,-1.68 -4.108,-1.792 -1.146,-0.16 M 172.7,36.629 c -0.605,0.328 -1.1,0.681 -1.1,0.784 0,0.386 0.632,0.144 1.6,-0.613 1.189,-0.93 1.011,-0.991 -0.5,-0.171 m 56.1,2.098 c 0,0.189 0.45,0.55 1,0.8 0.55,0.251 1,0.39 1,0.31 0,-0.08 -0.45,-0.44 -1,-0.8 -0.55,-0.361 -1,-0.5 -1,-0.31 m -63.2,2.907 -1.8,1.631 1.9,-1.481 c 1.666,-1.298 2.159,-1.787 1.8,-1.783 -0.055,0.001 -0.91,0.735 -1.9,1.633 m 66.411,-0.55 c 0.544,0.376 1.189,0.871 1.433,1.1 2.457,2.302 3.773,3.416 4.034,3.416 0.173,0 -0.134,-0.405 -0.682,-0.9 -3.115,-2.816 -4.959,-4.3 -5.341,-4.3 -0.238,0 0.012,0.308 0.556,0.684 M 160.952,45.7 c -1.333,1.375 -3.105,3.4 -3.938,4.5 -1.428,1.888 -0.532,1.037 1.685,-1.6 0.555,-0.66 1.924,-2.145 3.042,-3.3 1.117,-1.155 1.943,-2.1 1.834,-2.1 -0.109,0 -1.289,1.125 -2.623,2.5 m 78.49,2.425 c 2.471,2.683 3.011,3.364 4.81,6.074 1.401,2.11 2.196,2.967 1.393,1.501 -1.492,-2.722 -7.157,-9.7 -7.875,-9.7 -0.157,0 0.595,0.956 1.672,2.125 M 152.2,57.2 c -0.341,0.66 -0.531,1.2 -0.421,1.2 0.11,0 0.48,-0.54 0.821,-1.2 0.341,-0.66 0.531,-1.2 0.421,-1.2 -0.11,0 -0.48,0.54 -0.821,1.2 m 93.885,-0.1 c 0.083,0.165 0.749,1.524 1.48,3.02 0.731,1.496 1.409,2.639 1.508,2.541 0.216,-0.217 -2.587,-5.861 -2.911,-5.861 -0.126,0 -0.161,0.135 -0.077,0.3 m 3.927,8.5 c 0,0.33 0.175,0.87 0.388,1.2 0.345,0.533 0.388,0.533 0.388,0 0,-0.33 -0.175,-0.87 -0.388,-1.2 -0.345,-0.533 -0.388,-0.533 -0.388,0 m 0.822,2.4 c 0.012,0.33 0.177,0.96 0.366,1.4 l 0.344,0.8 0.022,-0.8 c 0.012,-0.44 -0.153,-1.07 -0.366,-1.4 -0.345,-0.533 -0.385,-0.533 -0.366,0 m -103.785,1.415 c -0.137,0.358 -0.234,0.951 -0.215,1.318 0.019,0.367 0.193,0.136 0.387,-0.513 0.377,-1.262 0.244,-1.887 -0.172,-0.805 M 251.738,71.4 c 0.521,2.7 1.069,6.084 1.197,7.4 0.117,1.198 0.146,1.14 0.201,-0.4 0.062,-1.754 -0.963,-7.573 -1.407,-7.991 -0.122,-0.115 -0.118,0.331 0.009,0.991 m -105.489,1.215 c -0.137,0.358 -0.231,1.131 -0.209,1.718 0.033,0.858 0.112,0.762 0.406,-0.493 0.376,-1.601 0.249,-2.387 -0.197,-1.225 m -0.792,5.285 c -0.312,1.888 -0.247,10.705 0.09,12.277 0.139,0.648 0.253,-2.187 0.253,-6.3 0,-8.236 0.008,-8.101 -0.343,-5.977 m 107.885,5.9 c -0.001,1.98 0.066,2.84 0.15,1.912 0.084,-0.928 0.085,-2.548 0.003,-3.6 -0.083,-1.052 -0.152,-0.292 -0.153,1.688 M 252.87,89 c -0.039,0.88 -0.342,3.023 -0.675,4.762 -0.333,1.738 -0.513,3.253 -0.4,3.366 0.113,0.113 0.205,0.078 0.205,-0.078 0,-0.156 0.28,-1.638 0.622,-3.294 0.342,-1.655 0.553,-3.762 0.47,-4.683 L 252.94,87.4 252.87,89 m -106.864,4.433 c 0.003,0.642 0.19,1.437 0.415,1.767 0.293,0.43 0.333,0.146 0.141,-1 -0.332,-1.984 -0.564,-2.304 -0.556,-0.767 m 0.8,3.6 c 0.003,0.422 0.189,1.037 0.412,1.367 0.297,0.438 0.334,0.276 0.138,-0.6 -0.329,-1.471 -0.558,-1.79 -0.55,-0.767 m 104.223,1.596 c -0.148,0.586 -0.178,1.155 -0.068,1.265 0.11,0.11 0.32,-0.279 0.468,-0.865 0.147,-0.587 0.177,-1.156 0.067,-1.266 -0.11,-0.11 -0.32,0.279 -0.467,0.866 M 147.656,99.6 c 0,0.33 0.155,0.96 0.344,1.4 0.217,0.504 0.344,0.578 0.344,0.2 0,-0.33 -0.155,-0.96 -0.344,-1.4 -0.217,-0.504 -0.344,-0.578 -0.344,-0.2 m 102.544,1.6 c -0.15,0.473 -0.183,0.95 -0.073,1.06 0.11,0.11 0.323,-0.187 0.473,-0.66 0.15,-0.473 0.183,-0.95 0.073,-1.06 -0.11,-0.11 -0.323,0.187 -0.473,0.66 m -1.977,5.006 c -0.863,2.066 -0.749,2.3 0.224,0.456 0.446,-0.846 0.718,-1.63 0.605,-1.743 -0.113,-0.113 -0.486,0.466 -0.829,1.287 m -1.609,3.229 c -0.373,0.569 -0.587,1.126 -0.475,1.237 0.111,0.111 0.49,-0.354 0.842,-1.035 0.778,-1.504 0.563,-1.622 -0.367,-0.202 M 152.2,110.4 c 0.341,0.66 0.711,1.2 0.821,1.2 0.11,0 -0.08,-0.54 -0.421,-1.2 -0.341,-0.66 -0.711,-1.2 -0.821,-1.2 -0.11,0 0.08,0.54 0.421,1.2 m 92.143,2.9 c -4.976,7.798 -12.85,14.622 -21.969,19.04 -2.296,1.112 -4.015,2.031 -3.82,2.041 0.739,0.039 7.853,-3.555 10.295,-5.202 7.06,-4.76 13.119,-11.024 16.905,-17.479 0.867,-1.478 -0.268,-0.191 -1.411,1.6 m -88.119,3.082 c 0.967,1.407 2.575,3.256 2.564,2.949 -0.007,-0.182 -0.682,-1.059 -1.5,-1.949 -0.818,-0.889 -1.297,-1.339 -1.064,-1 m 2.976,3.473 c 0,0.213 0.675,1.008 1.5,1.767 l 1.5,1.378 -1.4,-1.596 c -0.77,-0.877 -1.445,-1.672 -1.5,-1.766 -0.055,-0.094 -0.1,0.003 -0.1,0.217 m 3.2,3.433 c 0,0.078 0.855,0.845 1.9,1.704 1.045,0.859 1.54,1.148 1.1,0.642 -0.778,-0.895 -3,-2.632 -3,-2.346 m 4.149,3.429 c 1.055,1.707 15.309,9.159 16.068,8.399 0.103,-0.103 -1.118,-0.694 -2.715,-1.312 -4.133,-1.602 -7.262,-3.219 -10.655,-5.508 -1.625,-1.096 -2.839,-1.806 -2.698,-1.579 M 216.4,134.8 c -0.533,0.345 -0.533,0.388 0,0.388 0.33,0 0.87,-0.175 1.2,-0.388 0.533,-0.345 0.533,-0.388 0,-0.388 -0.33,0 -0.87,0.175 -1.2,0.388 m -33.098,0.635 c 0.583,0.583 8.632,2.172 10.698,2.112 1.591,-0.046 1.498,-0.088 -0.8,-0.359 -1.43,-0.168 -4.189,-0.685 -6.132,-1.147 -3.832,-0.913 -4.119,-0.959 -3.766,-0.606 M 212,136 c -1.43,0.397 -2.294,0.74 -1.92,0.761 0.773,0.044 5.133,-1.041 5.447,-1.355 0.355,-0.355 -0.832,-0.155 -3.527,0.594 m -6.6,1.2 -2,0.274 2,0.023 c 1.1,0.013 2.45,-0.121 3,-0.297 l 1,-0.32 -1,0.023 c -0.55,0.012 -1.9,0.146 -3,0.297 m -7.509,0.689 c 0.71,0.088 1.97,0.09 2.8,0.003 0.83,-0.087 0.249,-0.159 -1.291,-0.161 -1.54,-0.002 -2.219,0.069 -1.509,0.158 m -17.307,3.011 c -0.104,0.275 -0.144,21.02 -0.087,46.1 l 0.103,45.6 0.2,-46.1 c 0.11,-25.355 0.149,-46.1 0.087,-46.1 -0.061,0 -0.198,0.225 -0.303,0.5 m 16.333,2.197 c 1.494,0.077 3.834,0.077 5.2,-0.001 1.365,-0.078 0.143,-0.141 -2.717,-0.141 -2.86,10e-4 -3.978,0.065 -2.483,0.142 m 26.446,83.703 c 0,3.63 0.06,5.115 0.135,3.3 0.074,-1.815 0.074,-4.785 0,-6.6 -0.075,-1.815 -0.135,-0.33 -0.135,3.3 m -48.874,-5.726 c 0.599,0.157 0.704,0.864 0.812,5.453 l 0.124,5.273 0.088,-5.5 c 0.087,-5.475 0.083,-5.5 -0.813,-5.454 -0.659,0.034 -0.716,0.095 -0.211,0.228 m -7.114,5.426 -1.175,1.3 1.3,-1.175 c 1.212,-1.095 1.484,-1.425 1.175,-1.425 -0.069,0 -0.654,0.585 -1.3,1.3 M 186,244.2 c 0.746,0.77 1.447,1.4 1.557,1.4 0.11,0 -0.411,-0.63 -1.157,-1.4 -0.746,-0.77 -1.447,-1.4 -1.557,-1.4 -0.11,0 0.411,0.63 1.157,1.4 m 26.378,0.1 -1.378,1.5 1.5,-1.378 c 1.396,-1.284 1.684,-1.622 1.378,-1.622 -0.066,0 -0.741,0.675 -1.5,1.5 m -13.673,5.583 c 0.497,0.096 1.217,0.092 1.6,-0.008 0.382,-0.1 -0.025,-0.179 -0.905,-0.174 -0.88,0.004 -1.193,0.086 -0.695,0.182 M 121.4,253.6 c -1.512,0.207 -0.837,0.29 2.767,0.337 2.621,0.035 4.691,-0.002 4.6,-0.082 -0.381,-0.332 -5.514,-0.509 -7.367,-0.255 m 151,0 c -1.194,0.186 -0.049,0.282 3.4,0.286 3.908,0.005 4.703,-0.07 3.2,-0.304 -2.365,-0.369 -4.144,-0.364 -6.6,0.018 m -156.2,0.8 -0.8,0.344 h 0.8 c 0.44,0 1.16,-0.155 1.6,-0.344 l 0.8,-0.344 h -0.8 c -0.44,0 -1.16,0.155 -1.6,0.344 m 14.4,0 c 0.44,0.189 1.16,0.338 1.6,0.332 0.643,-0.009 0.604,-0.075 -0.2,-0.332 -1.368,-0.438 -2.419,-0.438 -1.4,0 m 135.979,0.378 c -14.959,5.326 -11.95,17.124 5.021,19.679 2.876,0.433 9.313,0.152 11.8,-0.516 10.844,-2.91 14.686,-10.026 8.451,-15.649 -2.242,-2.023 -8.55,-4.671 -9.959,-4.183 -0.271,0.094 0.138,0.299 0.908,0.456 18.808,3.829 13.351,19.51 -6.8,19.541 -19.094,0.03 -25.861,-13.843 -9.2,-18.861 3.791,-1.142 3.886,-1.182 2.8,-1.184 -0.55,-0.001 -1.909,0.321 -3.021,0.717 M 113,255.578 c -0.88,0.417 -1.42,0.758 -1.2,0.76 0.546,0.004 3.702,-1.474 3.2,-1.498 -0.22,-0.01 -1.12,0.322 -2,0.738 m 20.374,-0.421 c 0.15,0.244 0.499,0.443 0.775,0.443 0.895,0 4.418,1.881 5.722,3.056 4.454,4.011 3.612,8.841 -2.158,12.389 -0.832,0.511 -1.372,0.936 -1.199,0.943 1.172,0.046 4.883,-3.258 5.921,-5.272 1.916,-3.718 -0.39,-7.916 -5.835,-10.619 -2.224,-1.104 -3.57,-1.496 -3.226,-0.94 m -24.014,2.384 c -0.858,0.628 -1.92,1.571 -2.36,2.095 -0.44,0.524 -0.078,0.325 0.804,-0.442 0.882,-0.767 2.052,-1.7 2.6,-2.073 0.548,-0.373 0.888,-0.688 0.756,-0.7 -0.132,-0.012 -0.942,0.493 -1.8,1.12 M 105.309,264 c 0,0.99 0.078,1.395 0.173,0.9 0.096,-0.495 0.096,-1.305 0,-1.8 -0.095,-0.495 -0.173,-0.09 -0.173,0.9 m 87.191,-1.324 c 0.385,0.1 1.015,0.1 1.4,0 0.385,-0.101 0.07,-0.183 -0.7,-0.183 -0.77,0 -1.085,0.082 -0.7,0.183 m 3.6,0.411 c 0.605,0.091 1.595,0.091 2.2,0 0.605,-0.092 0.11,-0.167 -1.1,-0.167 -1.21,0 -1.705,0.075 -1.1,0.167 m 5.6,0 c 0.605,0.091 1.595,0.091 2.2,0 0.605,-0.092 0.11,-0.167 -1.1,-0.167 -1.21,0 -1.705,0.075 -1.1,0.167 m -96.096,3.113 c 0.001,0.22 0.359,0.94 0.796,1.6 1.036,1.564 1.037,1.008 10e-4,-0.69 -0.439,-0.721 -0.797,-1.13 -0.797,-0.91 m 1.996,2.754 c 0,0.676 3.307,3.061 4.2,3.028 0.22,-0.007 -0.14,-0.298 -0.8,-0.646 -0.66,-0.347 -1.695,-1.093 -2.3,-1.658 -0.605,-0.565 -1.1,-0.891 -1.1,-0.724 m 6.44,4.02 c 0.524,0.523 5.029,1.454 6.351,1.312 1.386,-0.149 1.382,-0.153 -0.231,-0.219 -0.902,-0.037 -2.162,-0.232 -2.8,-0.434 -1.799,-0.569 -3.584,-0.924 -3.32,-0.659 m 17.56,0.447 c -0.99,0.312 -2.52,0.6 -3.4,0.64 l -1.6,0.073 1.463,0.155 c 1.31,0.139 5.937,-0.888 5.937,-1.317 0,-0.255 -0.411,-0.178 -2.4,0.449 m -26.228,1.507 c -0.129,0.337 -0.156,1.032 -0.058,1.543 0.159,0.832 0.183,0.815 0.232,-0.171 0.064,-1.292 0.672,-1.381 2.054,-0.3 0.55,0.43 1.175,0.786 1.389,0.791 0.383,0.009 -0.118,-0.379 -2.285,-1.773 -0.966,-0.621 -1.124,-0.632 -1.332,-0.09 m 17.735,-0.238 c 0.719,0.089 1.799,0.087 2.4,-0.004 0.601,-0.091 0.013,-0.164 -1.307,-0.162 -1.32,0.002 -1.812,0.077 -1.093,0.166 m 18.175,0.577 c -0.705,0.446 -1.282,0.899 -1.282,1.005 0,0.106 0.63,-0.196 1.4,-0.672 l 1.4,-0.865 v 1.048 c 0,1.601 -1.386,3.971 -3.258,5.574 -0.927,0.794 -1.564,1.443 -1.415,1.443 0.149,0 1.004,-0.663 1.901,-1.473 3.508,-3.169 4.537,-8.139 1.254,-6.06 m 115.785,-0.6 c -0.829,0.829 0.237,4.047 1.937,5.846 1.355,1.433 4.139,3.277 4.461,2.955 0.137,-0.137 -0.091,-0.371 -0.508,-0.52 -2.508,-0.899 -5.757,-4.98 -5.757,-7.232 0,-0.976 0.031,-0.988 0.974,-0.37 8.149,5.34 21.195,6.43 30.426,2.544 3.437,-1.447 4.593,-2.048 4.597,-2.39 0.002,-0.165 0.273,-0.3 0.603,-0.3 0.889,0 0.75,1.949 -0.256,3.6 -1.4,2.297 -3.313,3.605 -8.744,5.979 -0.967,0.423 -0.961,0.43 0.186,0.2 4.981,-0.997 9.814,-5.416 9.814,-8.971 0,-1.839 -0.151,-1.906 -1.8,-0.793 -1.396,0.943 -3.98,2.15 -6.4,2.99 -4.092,1.422 -13.956,1.869 -18.2,0.825 -4.249,-1.045 -9.618,-3.288 -10.227,-4.274 -0.261,-0.422 -0.735,-0.46 -1.106,-0.089 M 109.6,277.014 c 0,0.279 2.906,1.417 3.291,1.289 0.191,-0.064 -0.471,-0.419 -1.472,-0.79 -1,-0.371 -1.819,-0.596 -1.819,-0.499 m 26.2,0.877 c -0.88,0.329 -2.5,0.842 -3.6,1.14 -1.782,0.483 -1.825,0.519 -0.4,0.328 1.701,-0.228 4.721,-1.152 5.769,-1.765 0.912,-0.534 0.081,-0.394 -1.769,0.297 m -30.199,-0.084 c -0.002,0.656 2.046,3.48 2.323,3.202 0.139,-0.139 0.056,-0.378 -0.185,-0.531 -0.241,-0.153 -0.82,-0.908 -1.287,-1.678 -0.467,-0.77 -0.85,-1.217 -0.851,-0.993 m 8.399,0.955 c 0.33,0.191 1.41,0.454 2.4,0.585 1.18,0.155 1.456,0.124 0.8,-0.09 -1.655,-0.539 -3.866,-0.881 -3.2,-0.495 m 7.1,1.234 c 1.595,0.14 4.205,0.142 5.8,0.003 2.211,-0.193 1.521,-0.254 -2.9,-0.256 -4.424,-0.002 -5.112,0.058 -2.9,0.253 m -12.304,1.799 c 0.563,0.679 2.785,1.964 2.999,1.734 0.066,-0.071 -0.704,-0.638 -1.712,-1.26 -1.008,-0.622 -1.587,-0.836 -1.287,-0.474 m 155.424,2.171 c 0.683,0.656 5.478,2.035 6.946,1.996 1.126,-0.029 0.872,-0.149 -1.181,-0.559 -1.438,-0.286 -3.305,-0.81 -4.149,-1.162 -1.745,-0.729 -2.162,-0.8 -1.616,-0.275 M 114.4,284.8 c 0.33,0.213 0.87,0.388 1.2,0.388 0.533,0 0.533,-0.043 0,-0.388 -0.33,-0.213 -0.87,-0.388 -1.2,-0.388 -0.533,0 -0.533,0.043 0,0.388 m 3,0.8 c 0.44,0.189 1.25,0.338 1.8,0.332 l 1,-0.012 -1,-0.32 c -0.55,-0.176 -1.36,-0.326 -1.8,-0.332 l -0.8,-0.012 0.8,0.344 m 11.6,0 c -1.078,0.274 -1.098,0.306 -0.2,0.313 0.55,0.004 1.45,-0.137 2,-0.313 1.344,-0.431 -0.108,-0.431 -1.8,0 m 151.4,0 -1.4,0.295 1.6,0.024 c 0.88,0.014 1.96,-0.13 2.4,-0.319 1.042,-0.448 -0.474,-0.448 -2.6,0 m -156.895,0.683 c 0.497,0.096 1.217,0.092 1.6,-0.008 0.382,-0.1 -0.025,-0.179 -0.905,-0.174 -0.88,0.004 -1.193,0.086 -0.695,0.182 m 150.995,0.008 c 0.825,0.087 2.175,0.087 3,0 0.825,-0.086 0.15,-0.157 -1.5,-0.157 -1.65,0 -2.325,0.071 -1.5,0.157"
       stroke="none"
       fill="#71413c"
       fill-rule="evenodd" />
    <path
       id="path8"
       d="m 97.4,167.642 c -6.824,1.551 -9.187,4.972 -11.202,16.218 -0.546,3.047 -1.195,6.557 -1.442,7.801 -0.247,1.243 -0.368,2.503 -0.268,2.8 0.099,0.296 0.49,-1.261 0.868,-3.461 0.379,-2.2 0.85,-4.81 1.047,-5.8 0.197,-0.99 0.558,-2.88 0.802,-4.2 1.018,-5.511 2.295,-8.186 4.885,-10.233 3.705,-2.929 1.28,-2.783 44.319,-2.669 L 175,168.2 v 8.4 8.4 l -35.092,0.102 -35.092,0.102 -0.623,0.95 c -0.563,0.86 -1.614,5.742 -2.981,13.846 -0.278,1.65 -0.663,3.63 -0.856,4.4 -0.194,0.77 -0.338,1.85 -0.322,2.4 l 0.029,1 0.32,-1 c 0.177,-0.55 0.535,-2.26 0.797,-3.8 1.163,-6.828 2.011,-11.345 2.448,-13.046 0.205,-0.796 0.372,-1.821 0.372,-2.278 0,-2.136 -1.052,-2.075 36.189,-2.082 18.926,-0.003 34.64,-0.151 34.919,-0.329 0.391,-0.248 0.483,-2.343 0.4,-9.094 L 175.4,167.4 137.2,167.339 c -21.728,-0.034 -38.89,0.096 -39.8,0.303 m 125.983,0.058 c -0.11,0.286 -0.151,4.385 -0.091,9.11 l 0.108,8.59 35.64,0.102 c 40.568,0.116 36.452,-0.313 37.326,3.898 0.275,1.32 0.648,3.12 0.831,4 0.182,0.88 0.54,2.86 0.794,4.4 0.254,1.54 0.621,3.61 0.816,4.6 0.461,2.342 1.046,5.558 1.601,8.8 0.245,1.43 0.605,3.32 0.801,4.2 0.195,0.88 0.829,4.3 1.409,7.6 0.58,3.3 1.128,6.075 1.218,6.167 0.311,0.316 0.163,-2.651 -0.19,-3.807 -0.194,-0.638 -0.552,-2.33 -0.796,-3.76 -0.243,-1.43 -1.175,-6.65 -2.071,-11.6 -2.009,-11.091 -2.32,-12.826 -2.799,-15.6 -1.185,-6.872 -1.48,-7.887 -2.547,-8.772 -0.536,-0.445 -6.876,-0.526 -36.241,-0.458 l -35.592,0.082 v -8.635 -8.636 l 39.9,0.11 c 44.476,0.122 41.054,-0.1 44.713,2.898 1.89,1.549 3.794,5.054 4.244,7.811 0.162,0.99 0.401,2.34 0.532,3 0.358,1.804 0.921,4.891 1.423,7.8 0.54,3.128 0.969,5.457 1.55,8.4 0.239,1.21 1.067,5.8 1.84,10.2 1.247,7.093 2.015,11.336 3.438,19 0.224,1.21 0.577,3.145 0.784,4.3 0.581,3.246 1.125,6.181 1.39,7.5 0.133,0.66 0.409,2.145 0.614,3.3 0.374,2.112 0.845,4.712 1.556,8.6 0.212,1.155 0.578,3.09 0.814,4.3 0.235,1.21 0.603,3.19 0.817,4.4 0.214,1.21 0.574,3.19 0.8,4.4 0.226,1.21 0.586,3.19 0.8,4.4 0.214,1.21 0.575,3.19 0.802,4.4 0.862,4.58 1.166,6.271 1.546,8.6 0.215,1.32 0.479,2.76 0.586,3.2 0.107,0.44 0.385,1.88 0.618,3.2 0.234,1.32 0.894,5.005 1.468,8.189 1.944,10.778 -0.633,16.105 -8.881,18.361 -2.74,0.749 -247.271,0.622 -250.097,-0.13 -6.914,-1.84 -10.392,-7.747 -9.031,-15.336 0.344,-1.916 0.705,-4.114 0.802,-4.884 0.224,-1.776 1.296,-7.678 1.793,-9.877 0.208,-0.923 0.363,-2.183 0.343,-2.8 l -0.036,-1.123 -0.31,1.2 c -0.17,0.66 -0.525,2.46 -0.788,4 -0.263,1.54 -0.634,3.61 -0.824,4.6 -0.19,0.99 -0.547,2.97 -0.794,4.4 -0.247,1.43 -0.644,3.525 -0.884,4.656 -1.296,6.129 1.591,12.074 7.204,14.83 L 74.6,315 h 125.6 125.6 l 2.2,-1.156 c 4.409,-2.318 6.822,-5.969 7.123,-10.779 0.156,-2.493 -0.052,-4.181 -1.169,-9.465 -0.307,-1.453 -2.84,-15.391 -4.781,-26.3 -0.205,-1.155 -0.553,-3.09 -0.773,-4.3 -0.22,-1.21 -0.58,-3.19 -0.8,-4.4 -0.22,-1.21 -0.588,-3.235 -0.818,-4.5 -0.229,-1.265 -0.589,-3.2 -0.8,-4.3 -0.211,-1.1 -0.554,-2.99 -0.762,-4.2 -0.209,-1.21 -0.587,-3.28 -0.84,-4.6 -0.45,-2.344 -0.619,-3.265 -1.58,-8.6 -0.258,-1.43 -0.618,-3.41 -0.8,-4.4 -0.182,-0.99 -0.542,-2.97 -0.8,-4.4 -0.258,-1.43 -0.618,-3.41 -0.8,-4.4 -0.182,-0.99 -0.542,-2.97 -0.8,-4.4 -0.932,-5.173 -1.127,-6.236 -1.537,-8.4 -0.364,-1.923 -1.242,-6.712 -2.455,-13.4 -3.795,-20.926 -4.62,-22.72 -11.535,-25.08 -2.205,-0.753 -80.404,-0.965 -80.69,-0.22 m -139.56,28.9 c -0.154,0.88 -0.458,2.59 -0.675,3.8 -0.217,1.21 -0.553,3.1 -0.747,4.2 -0.685,3.884 -1.828,10.105 -2.388,13 -0.191,0.99 -0.551,2.97 -0.799,4.4 -0.775,4.469 -1.257,6.948 -1.642,8.446 -0.205,0.796 -0.372,1.945 -0.372,2.554 0,0.609 -0.167,1.758 -0.372,2.554 -0.204,0.795 -0.554,2.436 -0.776,3.646 -0.222,1.21 -0.587,3.19 -0.81,4.4 -0.223,1.21 -0.608,3.37 -0.856,4.8 -0.248,1.43 -0.623,3.41 -0.834,4.4 -0.21,0.99 -1.086,5.76 -1.948,10.6 -0.861,4.84 -1.844,10.24 -2.185,12 -0.34,1.76 -0.619,3.545 -0.619,3.967 0,1.372 0.415,0.394 0.812,-1.912 0.213,-1.24 0.578,-3.29 0.81,-4.555 0.232,-1.265 0.599,-3.29 0.815,-4.5 0.217,-1.21 0.566,-3.1 0.777,-4.2 0.21,-1.1 0.552,-2.99 0.759,-4.2 0.207,-1.21 0.484,-2.74 0.615,-3.4 0.281,-1.41 0.897,-4.705 1.46,-7.8 0.22,-1.21 0.58,-3.19 0.8,-4.4 0.22,-1.21 0.58,-3.19 0.8,-4.4 0.22,-1.21 0.578,-3.19 0.795,-4.4 0.218,-1.21 0.552,-3.01 0.744,-4 0.191,-0.99 0.556,-2.97 0.811,-4.4 0.254,-1.43 0.615,-3.41 0.802,-4.4 0.463,-2.457 0.973,-5.274 2.605,-14.4 0.767,-4.29 1.596,-8.817 1.841,-10.061 0.246,-1.243 0.359,-2.503 0.252,-2.8 -0.108,-0.296 -0.321,0.181 -0.475,1.061 m 15.571,13.3 c -0.133,0.825 -0.398,2.31 -0.588,3.3 -0.19,0.99 -0.554,2.97 -0.808,4.4 -0.255,1.43 -0.62,3.41 -0.811,4.4 -0.192,0.99 -0.537,2.835 -0.768,4.1 -0.23,1.265 -0.61,3.335 -0.843,4.6 -0.233,1.265 -0.593,3.245 -0.8,4.4 -0.207,1.155 -0.556,3.09 -0.776,4.3 -0.22,1.21 -0.569,3.145 -0.776,4.3 -0.714,3.987 -1.856,10.113 -2.294,12.3 -0.11,0.55 -0.364,1.945 -0.565,3.1 -0.201,1.155 -0.545,3.09 -0.765,4.3 -0.22,1.21 -0.569,3.145 -0.774,4.3 -1.94,10.877 -3.685,20.443 -4.019,22.031 -0.508,2.41 -0.524,4.231 -0.024,2.669 0.177,-0.55 0.528,-2.26 0.781,-3.8 0.467,-2.841 0.829,-4.878 1.636,-9.2 0.246,-1.32 0.617,-3.345 0.824,-4.5 0.207,-1.155 0.567,-3.135 0.8,-4.4 0.233,-1.265 0.582,-3.2 0.776,-4.3 0.696,-3.954 1.263,-6.825 1.628,-8.246 0.205,-0.796 0.372,-1.945 0.372,-2.554 0,-0.609 0.167,-1.758 0.372,-2.554 0.388,-1.51 0.882,-4.055 1.64,-8.446 0.472,-2.739 0.95,-5.286 1.611,-8.6 0.549,-2.752 4.379,-24.05 4.657,-25.9 0.124,-0.825 0.12,-1.5 -0.009,-1.5 -0.129,0 -0.344,0.675 -0.477,1.5 M 304,230.29 c 0,0.452 0.631,4.217 1.402,8.366 0.771,4.149 1.595,8.624 1.83,9.944 0.236,1.32 0.581,3.21 0.768,4.2 0.187,0.99 0.545,2.97 0.796,4.4 0.252,1.43 0.609,3.32 0.795,4.2 0.186,0.88 0.546,2.86 0.8,4.4 0.254,1.54 0.621,3.61 0.816,4.6 0.195,0.99 0.532,2.79 0.75,4 0.217,1.21 0.575,3.19 0.795,4.4 0.22,1.21 0.58,3.19 0.8,4.4 1.041,5.725 1.308,7.12 1.664,8.706 0.559,2.482 0.476,3.487 -0.347,4.232 -1.045,0.945 -228.864,1.032 -229.648,0.088 -0.262,-0.316 -0.629,-1.081 -0.814,-1.7 l -0.338,-1.126 -0.035,1.271 c -0.025,0.922 0.256,1.499 1.02,2.1 l 1.054,0.829 H 200 313.892 l 1.054,-0.829 c 1.276,-1.003 1.372,-2.664 0.418,-7.171 -0.349,-1.65 -0.814,-4.08 -1.034,-5.4 -0.219,-1.32 -0.548,-3.21 -0.73,-4.2 -0.182,-0.99 -0.542,-2.97 -0.8,-4.4 -0.258,-1.43 -0.64,-3.5 -0.85,-4.6 -0.373,-1.954 -0.74,-3.946 -1.55,-8.4 -0.81,-4.454 -1.177,-6.446 -1.55,-8.4 -0.21,-1.1 -0.592,-3.17 -0.85,-4.6 -0.258,-1.43 -0.64,-3.5 -0.85,-4.6 -0.21,-1.1 -0.538,-2.9 -0.729,-4 -0.191,-1.1 -0.559,-3.17 -0.818,-4.6 -0.259,-1.43 -0.603,-3.452 -0.765,-4.494 C 304.529,229.911 304,228.89 304,230.29"
       stroke="none"
       fill="#045871"
       fill-rule="evenodd" />
  </g>
</svg>
