<?xml version="1.0" encoding="UTF-8" standalone="no"?>
<!-- Created with Inkscape (http://www.inkscape.org/) -->

<svg
   width="100"
   height="100"
   viewBox="0 0 100 100"
   version="1.1"
   id="svg1"
   xml:space="preserve"
   xmlns="http://www.w3.org/2000/svg"
   xmlns:svg="http://www.w3.org/2000/svg"><defs
     id="defs1" /><g
     id="layer1"><g
       id="g1"
       transform="scale(0.1953125)"><path
         d="M 0,0 H 512 V 512 H 0 Z"
         id="path1" /><path
         fill="#ffffff"
         d="m 119.436,36 c -16.126,0 -29.2,17.237 -29.2,38.5 v 363 c 0,21.263 13.074,38.5 29.2,38.5 h 275.298 c 16.126,0 29.198,-17.237 29.198,-38.5 V 74.5 C 423.932,53.237 410.86,36 394.734,36 Z m 26.654,8.047 c 0,0 46.338,33.838 47.271,63.068 0.776,24.287 -25.024,32.122 -40.775,18.586 l 13.633,32.653 h -40.117 l 13.613,-32.635 c -15.535,13.88 -40.006,5.349 -40.758,-18.604 -0.88,-28.01 47.133,-63.068 47.133,-63.068 m 95.646,120.957 h 7.963 l 63.121,160.834 q 3.804,9.747 15.573,9.748 h 5.468 v 8.916 h -70.134 v -8.916 h 5.587 q 10.936,0 15.454,-2.377 3.09,-1.664 3.09,-5.111 0,-2.02 -0.833,-4.28 l -14.62,-37.326 h -69.423 l -8.2,21.397 q -3.21,8.559 -3.21,13.55 0,5.826 5.348,9.987 5.468,4.16 15.81,4.16 h 5.944 v 8.916 h -63.715 v -8.916 q 10.223,0 16.166,-4.399 5.945,-4.516 10.938,-16.998 z m -3.447,33.879 -31.502,78.338 h 62.17 z m 107.49,154.765 h 40.116 l -13.633,32.653 c 15.75,-13.536 41.551,-5.701 40.775,18.586 -0.933,29.23 -47.27,63.068 -47.27,63.068 0,0 -48.011,-35.058 -47.132,-63.068 0.751,-23.953 25.222,-32.485 40.758,-18.604 z"
         id="path2" /></g></g></svg>
