<?xml version="1.0" encoding="UTF-8" standalone="no"?>
<svg
   id="svg"
   version="1.1"
   width="100"
   height="83.899193"
   viewBox="0 0 100 83.899193"
   xmlns="http://www.w3.org/2000/svg"
   xmlns:svg="http://www.w3.org/2000/svg">
  <defs
     id="defs1" />
  <g
     id="svgg"
     transform="matrix(0.25020518,0,0,0.25020518,-0.03703037,-8.0762326)">
    <path
       id="path0"
       d="m 25.6,32.8 c 0,0.22 -0.9,0.4 -2,0.4 -1.1,0 -2,0.18 -2,0.4 0,0.22 -0.54,0.4 -1.2,0.4 -0.66,0 -1.2,0.18 -1.2,0.4 0,0.22 -0.253,0.4 -0.562,0.4 -0.666,0 -3.979,1.668 -4.171,2.1 -0.074,0.165 -0.439,0.3 -0.812,0.3 -0.373,0 -0.938,0.36 -1.255,0.8 -0.317,0.44 -0.72,0.8 -0.895,0.8 -0.356,0 -6.305,5.86 -6.305,6.21 0,0.123 -0.36,0.61 -0.8,1.082 C 3.96,46.564 3.6,47.187 3.6,47.475 3.6,47.764 3.42,48 3.2,48 c -0.22,0 -0.4,0.36 -0.4,0.8 0,0.44 -0.18,0.8 -0.4,0.8 -0.22,0 -0.4,0.36 -0.4,0.8 0,0.44 -0.18,0.8 -0.4,0.8 -0.22,0 -0.4,0.525 -0.4,1.167 0,0.641 -0.225,1.241 -0.5,1.333 -0.736,0.245 -0.736,271.155 0,271.4 0.275,0.092 0.5,0.692 0.5,1.333 0,0.642 0.18,1.167 0.4,1.167 0.22,0 0.4,0.36 0.4,0.8 0,0.44 0.18,0.8 0.4,0.8 0.22,0 0.4,0.36 0.4,0.8 0,0.44 0.18,0.8 0.4,0.8 0.22,0 0.4,0.32 0.4,0.712 0,0.391 0.36,0.971 0.8,1.288 0.44,0.317 0.8,0.809 0.8,1.094 0,0.786 6.035,6.677 7.507,7.329 0.711,0.315 1.293,0.708 1.293,0.875 0,0.166 0.27,0.302 0.6,0.302 0.33,0 0.6,0.18 0.6,0.4 0,0.22 0.36,0.4 0.8,0.4 0.44,0 0.8,0.18 0.8,0.4 0,0.22 0.54,0.4 1.2,0.4 0.66,0 1.2,0.18 1.2,0.4 0,0.22 0.439,0.4 0.976,0.4 0.537,0 1.088,0.18 1.224,0.4 0.136,0.22 0.957,0.4 1.824,0.4 0.867,0 1.576,0.18 1.576,0.4 0,0.265 25,0.4 74.2,0.4 49.2,0 74.2,0.135 74.2,0.4 0,0.231 1.259,0.4 2.976,0.4 1.637,0 3.088,0.18 3.224,0.4 0.136,0.22 1.587,0.4 3.224,0.4 1.717,0 2.976,0.169 2.976,0.4 0,0.233 1.333,0.4 3.2,0.4 1.867,0 3.2,0.167 3.2,0.4 0,0.231 1.267,0.4 3,0.4 1.733,0 3,0.169 3,0.4 0,0.231 1.259,0.4 2.976,0.4 1.637,0 3.088,0.18 3.224,0.4 0.136,0.22 1.486,0.4 3,0.4 1.514,0 2.864,0.18 3,0.4 0.136,0.22 1.486,0.4 3,0.4 1.514,0 2.864,0.18 3,0.4 0.136,0.22 1.587,0.4 3.224,0.4 1.717,0 2.976,0.169 2.976,0.4 0,0.233 1.333,0.4 3.2,0.4 1.867,0 3.2,0.167 3.2,0.4 0,0.231 1.259,0.4 2.976,0.4 1.637,0 3.088,0.18 3.224,0.4 0.136,0.22 1.461,0.4 2.944,0.4 1.483,0 2.867,0.166 3.076,0.369 0.209,0.203 1.73,0.475 3.38,0.605 10.665,0.842 10.144,0.903 12.437,-1.46 1.209,-1.246 1.553,-1.873 1.363,-2.49 -0.14,-0.453 -0.401,-1.364 -0.58,-2.024 -0.652,-2.4 -1.196,-3.34 -2.495,-4.309 -1.322,-0.986 -2.088,-1.168 -8.125,-1.932 -3.023,-0.382 -4.742,-0.604 -12.4,-1.6 -5.594,-0.727 -9.125,-1.145 -11.8,-1.398 -3.718,-0.35 -3.778,-0.616 -0.784,-3.475 4.2,-4.009 6.407,-7.373 8.193,-12.486 1.662,-4.758 1.762,-7.448 1.777,-47.833 0.008,-21.249 0.13,-38.75 0.272,-38.891 0.141,-0.142 2.219,2.393 4.618,5.633 2.398,3.24 4.579,6.161 4.847,6.491 0.269,0.33 0.927,1.23 1.463,2 0.537,0.77 1.082,1.49 1.213,1.6 0.131,0.11 1.669,2.164 3.419,4.565 6.01,8.245 8.094,9.875 12.982,10.157 4.435,0.256 5.988,-0.588 16,-8.69 0.77,-0.624 4.46,-3.596 8.2,-6.605 3.74,-3.01 7.07,-5.691 7.4,-5.958 0.33,-0.267 7.891,-6.349 16.802,-13.515 17.045,-13.706 18.204,-14.711 21.411,-18.554 23.949,-28.698 -3.941,-75.039 -39.413,-65.489 -4.657,1.254 -15.295,6.967 -15.933,8.557 -0.358,0.89 -1.957,0.188 -3.143,-1.38 -2.358,-3.119 -4.901,-5.773 -7.221,-7.536 -1.266,-0.962 -2.396,-1.873 -2.509,-2.023 -0.403,-0.533 -8.162,-4.329 -8.848,-4.329 -0.384,0 -0.798,-0.16 -0.919,-0.356 -0.854,-1.381 -12.135,-1.736 -19.127,-0.6 l -1.5,0.244 v -39.117 c 0,-41.549 -0.103,-44.232 -1.884,-49.171 -1.863,-5.165 -2.643,-4.966 11.684,-2.98 2.461,0.341 16.644,2.122 25.5,3.202 4.613,0.563 8.934,1.123 12.3,1.594 1.65,0.231 4.53,0.603 6.4,0.827 1.87,0.223 4.75,0.58 6.4,0.794 1.65,0.213 4.35,0.557 6,0.763 1.65,0.206 4.44,0.566 6.2,0.8 1.76,0.234 4.595,0.599 6.3,0.812 3.44,0.43 8.241,1.045 12.5,1.6 1.54,0.201 4.24,0.545 6,0.764 1.76,0.22 4.64,0.59 6.4,0.822 1.76,0.233 4.64,0.599 6.4,0.813 3.578,0.435 7.958,0.996 12.3,1.576 1.595,0.213 3.8,0.489 4.9,0.613 13.104,1.473 17.081,2.357 20.47,4.548 3.876,2.505 6.727,6.396 8.131,11.098 0.644,2.158 0.322,8.937 -0.787,16.554 -0.208,1.43 -0.576,4.22 -0.817,6.2 -0.241,1.98 -0.603,4.86 -0.805,6.4 -0.202,1.54 -0.56,4.33 -0.796,6.2 -0.236,1.87 -0.608,4.75 -0.827,6.4 -0.613,4.628 -2.694,20.975 -3.181,25 -0.24,1.98 -0.612,4.95 -0.827,6.6 -0.214,1.65 -0.569,4.44 -0.787,6.2 -0.556,4.487 -1.042,8.243 -1.577,12.2 -0.252,1.87 -0.636,4.84 -0.852,6.6 -0.386,3.152 -0.684,5.496 -1.551,12.2 -0.79,6.109 -1.187,9.15 -1.606,12.3 -0.227,1.705 -0.592,4.54 -0.812,6.3 -0.219,1.76 -0.562,4.46 -0.762,6 -0.2,1.54 -0.555,4.33 -0.789,6.2 -0.516,4.129 -1.087,8.556 -1.636,12.7 -0.226,1.705 -0.584,4.54 -0.796,6.3 -0.212,1.76 -0.554,4.46 -0.76,6 -0.207,1.54 -0.659,5.14 -1.007,8 -0.347,2.86 -1,7.964 -1.451,11.343 -0.451,3.379 -0.983,7.519 -1.182,9.2 -0.198,1.681 -0.555,4.497 -0.793,6.257 -0.238,1.76 -0.605,4.595 -0.816,6.3 -0.211,1.705 -0.577,4.585 -0.812,6.4 -0.6,4.619 -1.133,8.792 -1.572,12.3 -0.206,1.65 -0.561,4.395 -0.788,6.1 -0.501,3.77 -1.069,8.164 -1.64,12.7 -0.236,1.87 -0.586,4.57 -0.778,6 -0.192,1.43 -0.462,3.68 -0.599,5 -0.66,6.324 -4.689,12.477 -9.866,15.064 -5.6,2.799 -8.299,3.038 -17.153,1.518 C 328.353,354.172 326.744,354 326,354 c -0.744,0 -2.353,-0.175 -3.576,-0.389 -1.223,-0.214 -3.754,-0.581 -5.624,-0.815 -1.87,-0.234 -5.56,-0.698 -8.2,-1.031 -9.352,-1.18 -10.456,-1.317 -15.8,-1.96 -2.97,-0.356 -7.226,-0.902 -9.458,-1.211 -5.295,-0.734 -8.942,0.502 -8.942,3.032 0,0.372 -0.27,0.9 -0.6,1.174 -0.676,0.561 -0.848,4 -0.2,4 0.22,0 0.4,0.238 0.4,0.528 0,0.751 1.861,2.272 2.779,2.272 0.426,0 0.885,0.18 1.021,0.4 0.136,0.22 1.587,0.4 3.224,0.4 1.717,0 2.976,0.169 2.976,0.4 0,0.228 1.192,0.4 2.776,0.4 1.527,0 2.888,0.18 3.024,0.4 0.136,0.22 1.587,0.4 3.224,0.4 1.717,0 2.976,0.169 2.976,0.4 0,0.231 1.259,0.4 2.976,0.4 1.637,0 3.088,0.18 3.224,0.4 0.136,0.22 1.587,0.4 3.224,0.4 1.717,0 2.976,0.169 2.976,0.4 0,0.231 1.267,0.4 3,0.4 1.733,0 3,0.169 3,0.4 0,0.233 1.333,0.4 3.2,0.4 1.867,0 3.2,0.167 3.2,0.4 0,0.228 1.192,0.4 2.776,0.4 1.527,0 2.888,0.18 3.024,0.4 0.136,0.22 1.587,0.4 3.224,0.4 1.717,0 2.976,0.169 2.976,0.4 0,0.244 1.867,0.4 4.8,0.4 2.933,0 4.8,-0.156 4.8,-0.4 0,-0.22 0.9,-0.4 2,-0.4 1.1,0 2,-0.18 2,-0.4 0,-0.22 0.54,-0.4 1.2,-0.4 0.66,0 1.2,-0.18 1.2,-0.4 0,-0.22 0.36,-0.4 0.8,-0.4 0.44,0 0.8,-0.18 0.8,-0.4 0,-0.22 0.36,-0.4 0.8,-0.4 0.44,0 0.8,-0.18 0.8,-0.4 0,-0.22 0.36,-0.4 0.8,-0.4 0.44,0 0.8,-0.18 0.8,-0.4 0,-0.22 0.32,-0.4 0.712,-0.4 0.391,0 0.971,-0.36 1.288,-0.8 0.317,-0.44 0.807,-0.8 1.088,-0.8 0.282,0 0.512,-0.18 0.512,-0.4 0,-0.22 0.258,-0.4 0.573,-0.4 0.315,0 0.687,-0.36 0.827,-0.8 0.14,-0.44 0.394,-0.8 0.566,-0.8 0.492,0 1.784,-1.273 2.842,-2.8 0.534,-0.77 1.29,-1.749 1.681,-2.175 0.391,-0.427 0.711,-1.012 0.711,-1.3 0,-0.289 0.18,-0.525 0.4,-0.525 0.22,0 0.4,-0.36 0.4,-0.8 0,-0.44 0.18,-0.8 0.4,-0.8 0.22,0 0.4,-0.36 0.4,-0.8 0,-0.44 0.18,-0.8 0.4,-0.8 0.22,0 0.4,-0.54 0.4,-1.2 0,-0.66 0.18,-1.2 0.4,-1.2 0.22,0 0.4,-0.529 0.4,-1.176 0,-0.647 0.18,-1.288 0.4,-1.424 0.22,-0.136 0.4,-1.306 0.4,-2.6 0,-1.294 0.18,-2.464 0.4,-2.6 0.22,-0.136 0.4,-1.486 0.4,-3 0,-1.514 0.18,-2.864 0.4,-3 0.22,-0.136 0.4,-1.486 0.4,-3 0,-1.514 0.18,-2.864 0.4,-3 0.22,-0.136 0.4,-1.486 0.4,-3 0,-1.514 0.18,-2.864 0.4,-3 0.22,-0.136 0.4,-1.551 0.4,-3.144 0,-1.593 0.166,-3.067 0.369,-3.276 0.203,-0.209 0.47,-1.64 0.594,-3.18 0.123,-1.54 0.324,-4.06 0.446,-5.6 0.122,-1.54 0.388,-3.16 0.59,-3.6 0.39,-0.848 0.515,-2.012 1.26,-11.7 0.258,-3.355 0.62,-6.1 0.805,-6.1 0.185,0 0.336,-1.44 0.336,-3.2 0,-1.867 0.167,-3.2 0.4,-3.2 0.228,0 0.4,-1.192 0.4,-2.776 0,-1.527 0.18,-2.888 0.4,-3.024 0.22,-0.136 0.4,-1.486 0.4,-3 0,-1.514 0.18,-2.864 0.4,-3 0.22,-0.136 0.4,-1.587 0.4,-3.224 0,-1.717 0.169,-2.976 0.4,-2.976 0.231,0 0.4,-1.259 0.4,-2.976 0,-1.637 0.18,-3.088 0.4,-3.224 0.22,-0.136 0.4,-1.587 0.4,-3.224 0,-1.717 0.169,-2.976 0.4,-2.976 0.231,0 0.4,-1.259 0.4,-2.976 0,-1.637 0.18,-3.088 0.4,-3.224 0.22,-0.136 0.4,-1.486 0.4,-3 0,-1.514 0.18,-2.864 0.4,-3 0.22,-0.136 0.4,-1.497 0.4,-3.024 0,-1.584 0.172,-2.776 0.4,-2.776 0.233,0 0.4,-1.333 0.4,-3.2 0,-1.867 0.167,-3.2 0.4,-3.2 0.231,0 0.4,-1.267 0.4,-3 0,-1.733 0.169,-3 0.4,-3 0.233,0 0.4,-1.333 0.4,-3.2 0,-1.867 0.167,-3.2 0.4,-3.2 0.228,0 0.4,-1.192 0.4,-2.776 0,-1.527 0.18,-2.888 0.4,-3.024 0.22,-0.136 0.4,-1.486 0.4,-3 0,-1.514 0.18,-2.864 0.4,-3 0.22,-0.136 0.4,-1.576 0.4,-3.2 0,-1.624 0.18,-3.064 0.4,-3.2 0.22,-0.136 0.4,-1.486 0.4,-3 0,-1.514 0.18,-2.864 0.4,-3 0.22,-0.136 0.4,-1.587 0.4,-3.224 0,-1.717 0.169,-2.976 0.4,-2.976 0.23,0 0.4,-1.24 0.4,-2.92 0,-1.606 0.166,-3.091 0.369,-3.3 0.203,-0.209 0.468,-1.64 0.589,-3.18 0.727,-9.262 1.279,-14.575 1.542,-14.836 0.165,-0.163 0.3,-1.617 0.3,-3.231 0,-1.689 0.17,-2.933 0.4,-2.933 0.231,0 0.4,-1.259 0.4,-2.976 0,-1.637 0.18,-3.088 0.4,-3.224 0.22,-0.136 0.4,-1.497 0.4,-3.024 0,-1.584 0.172,-2.776 0.4,-2.776 0.231,0 0.4,-1.267 0.4,-3 0,-1.733 0.169,-3 0.4,-3 0.233,0 0.4,-1.333 0.4,-3.2 0,-1.867 0.167,-3.2 0.4,-3.2 0.231,0 0.4,-1.267 0.4,-3 0,-1.733 0.169,-3 0.4,-3 0.233,0 0.4,-1.333 0.4,-3.2 0,-1.867 0.167,-3.2 0.4,-3.2 0.228,0 0.4,-1.192 0.4,-2.776 0,-1.527 0.18,-2.888 0.4,-3.024 0.22,-0.136 0.4,-1.461 0.4,-2.944 0,-1.564 0.202,-2.898 0.48,-3.176 0.707,-0.707 0.726,-24.143 0.02,-24.379 -0.275,-0.092 -0.5,-0.513 -0.5,-0.934 0,-0.422 -0.18,-0.767 -0.4,-0.767 -0.22,0 -0.4,-0.458 -0.4,-1.017 0,-0.559 -0.36,-1.403 -0.8,-1.875 -0.44,-0.472 -0.8,-1.095 -0.8,-1.383 0,-0.289 -0.18,-0.525 -0.4,-0.525 -0.22,0 -0.4,-0.288 -0.4,-0.64 0,-0.351 -0.54,-1.143 -1.2,-1.76 -0.66,-0.617 -1.2,-1.319 -1.2,-1.56 0,-0.242 -0.18,-0.44 -0.4,-0.44 -0.22,0 -0.412,-0.225 -0.428,-0.5 -0.032,-0.581 -4.271,-4.089 -5.76,-4.767 -0.557,-0.254 -1.012,-0.613 -1.012,-0.797 0,-0.185 -0.36,-0.336 -0.8,-0.336 -0.44,0 -0.8,-0.18 -0.8,-0.4 0,-0.22 -0.439,-0.4 -0.976,-0.4 -0.537,0 -1.088,-0.18 -1.224,-0.4 -0.136,-0.22 -0.597,-0.4 -1.024,-0.4 -0.427,0 -0.776,-0.18 -0.776,-0.4 0,-0.22 -0.72,-0.4 -1.6,-0.4 -0.88,0 -1.6,-0.18 -1.6,-0.4 0,-0.22 -0.979,-0.4 -2.176,-0.4 -1.197,0 -2.288,-0.18 -2.424,-0.4 -0.136,-0.22 -1.587,-0.4 -3.224,-0.4 -1.717,0 -2.976,-0.169 -2.976,-0.4 0,-0.233 -1.333,-0.4 -3.2,-0.4 -1.867,0 -3.2,-0.167 -3.2,-0.4 0,-0.228 -1.192,-0.4 -2.776,-0.4 -1.527,0 -2.888,-0.18 -3.024,-0.4 -0.136,-0.22 -1.486,-0.4 -3,-0.4 -1.514,0 -2.864,-0.18 -3,-0.4 -0.136,-0.22 -1.587,-0.4 -3.224,-0.4 -1.717,0 -2.976,-0.169 -2.976,-0.4 0,-0.231 -1.259,-0.4 -2.976,-0.4 -1.637,0 -3.088,-0.18 -3.224,-0.4 -0.136,-0.22 -1.587,-0.4 -3.224,-0.4 -1.717,0 -2.976,-0.169 -2.976,-0.4 0,-0.233 -1.333,-0.4 -3.2,-0.4 -1.867,0 -3.2,-0.167 -3.2,-0.4 0,-0.227 -1.173,-0.4 -2.72,-0.4 -1.496,0 -2.891,-0.166 -3.1,-0.369 -0.209,-0.203 -1.64,-0.47 -3.18,-0.594 -1.54,-0.123 -4.06,-0.324 -5.6,-0.446 -1.54,-0.122 -3.16,-0.388 -3.6,-0.591 -0.44,-0.203 -1.97,-0.46 -3.4,-0.572 -2.471,-0.193 -4.937,-0.482 -12.2,-1.428 -1.76,-0.23 -5.751,-0.638 -8.87,-0.909 -3.118,-0.27 -5.803,-0.626 -5.967,-0.791 -0.163,-0.165 -1.516,-0.3 -3.006,-0.3 -1.49,0 -2.821,-0.18 -2.957,-0.4 C 268.064,42.18 266.613,42 264.976,42 263.259,42 262,41.831 262,41.6 c 0,-0.231 -1.259,-0.4 -2.976,-0.4 -1.637,0 -3.088,-0.18 -3.224,-0.4 -0.136,-0.22 -1.587,-0.4 -3.224,-0.4 -1.717,0 -2.976,-0.169 -2.976,-0.4 0,-0.233 -1.333,-0.4 -3.2,-0.4 -1.867,0 -3.2,-0.167 -3.2,-0.4 0,-0.231 -1.267,-0.4 -3,-0.4 -1.733,0 -3,-0.169 -3,-0.4 0,-0.228 -1.192,-0.4 -2.776,-0.4 -1.527,0 -2.888,-0.18 -3.024,-0.4 -0.136,-0.22 -1.587,-0.4 -3.224,-0.4 -1.717,0 -2.976,-0.169 -2.976,-0.4 0,-0.231 -1.259,-0.4 -2.976,-0.4 -1.637,0 -3.088,-0.18 -3.224,-0.4 -0.136,-0.22 -1.227,-0.4 -2.424,-0.4 -1.197,0 -2.176,-0.18 -2.176,-0.4 0,-0.22 -0.36,-0.4 -0.8,-0.4 -0.44,0 -0.8,-0.18 -0.8,-0.4 0,-0.22 -0.54,-0.4 -1.2,-0.4 -0.66,0 -1.2,-0.18 -1.2,-0.4 0,-0.22 -0.9,-0.4 -2,-0.4 -1.1,0 -2,-0.18 -2,-0.4 0,-0.641 -76.963,-0.543 -78.08,0.1 -4.238,2.438 -4.598,7.056 -0.823,10.555 l 1.02,0.945 h 35.925 c 34.178,0 40.43,0.171 42.958,1.176 6.294,2.503 10.185,6.3 12.144,11.851 l 0.856,2.426 v 129.614 c 0,91.426 -0.127,130.014 -0.431,130.973 -2.165,6.838 -7.091,11.578 -13.855,13.331 -3.719,0.963 -176.519,0.959 -180.256,-0.005 C 19.232,332.058 14.202,327.178 12.051,320.372 11.404,318.323 11.405,60.871 12.053,58.828 14.092,52.394 18.171,48.088 24.6,45.583 27.254,44.549 32.794,44.4 68.677,44.4 l 37.523,-10e-4 1,-0.904 c 1.252,-1.131 2,-2.441 2,-3.502 0,-0.45 0.27,-0.922 0.6,-1.048 0.664,-0.255 0.835,-1.745 0.2,-1.745 -0.22,0 -0.406,-0.405 -0.413,-0.9 -0.017,-1.203 -0.709,-2.045 -2.513,-3.058 C 105.391,32.296 25.6,31.864 25.6,32.8 m 28,28.146 c -3.275,1.081 -3.583,1.507 -6.383,8.854 -0.922,2.42 -1.826,4.76 -2.008,5.2 -0.182,0.44 -0.726,1.88 -1.209,3.2 -0.483,1.32 -1.04,2.805 -1.239,3.3 -0.199,0.495 -0.541,1.35 -0.761,1.9 -0.22,0.55 -0.58,1.45 -0.8,2 -0.22,0.55 -0.562,1.405 -0.76,1.9 -0.197,0.495 -0.576,1.53 -0.84,2.3 -0.582,1.696 -0.956,2.68 -1.52,4 -0.235,0.55 -1.717,4.42 -3.293,8.6 -1.576,4.18 -3.42,9.04 -4.098,10.8 -2.941,7.635 -0.563,12.582 5.291,11.005 2.424,-0.652 2.942,-1.429 5.736,-8.605 l 1.401,-3.6 11.988,-0.106 c 9.288,-0.082 12.078,0.008 12.388,0.4 0.221,0.278 0.857,1.766 1.415,3.306 2.233,6.167 2.505,6.716 3.842,7.739 4.768,3.647 10.813,-1.951 8.197,-7.591 -0.686,-1.479 -1.197,-2.752 -2.147,-5.348 -0.483,-1.32 -1.065,-2.85 -1.293,-3.4 -0.59,-1.423 -0.958,-2.4 -1.507,-4 -0.264,-0.77 -0.667,-1.85 -0.894,-2.4 -0.227,-0.55 -0.569,-1.405 -0.76,-1.9 -0.19,-0.495 -0.509,-1.305 -0.708,-1.8 -0.68,-1.691 -2.784,-7.296 -5.444,-14.5 -1.462,-3.96 -2.807,-7.56 -2.988,-8 C 65.025,73.76 64.302,71.87 63.599,70 61.05,63.213 60.378,62.219 57.634,61.176 55.345,60.306 55.51,60.316 53.6,60.946 m 2.44,20.678 c 0.163,0.317 0.689,1.656 1.167,2.976 1.134,3.125 1.634,4.422 2.699,7 0.227,0.55 0.63,1.63 0.894,2.4 0.264,0.77 0.624,1.76 0.8,2.2 1.762,4.415 2.037,4.245 -6.668,4.108 -8.117,-0.128 -7.622,0.157 -6.153,-3.541 1.121,-2.823 5.241,-13.747 5.771,-15.3 0.277,-0.813 1.031,-0.733 1.49,0.157 m 57.36,44.073 c -3.034,1.04 -4.751,2.23 -7.857,5.443 -1.839,1.903 -5.773,5.98 -8.743,9.06 -2.97,3.081 -8.37,8.675 -12,12.432 -3.63,3.756 -8.295,8.616 -10.366,10.799 -2.071,2.183 -6.211,6.489 -9.2,9.57 -14.734,15.186 -18.7,29.309 -12.466,44.399 1.148,2.778 4.104,8.284 4.833,9 0.112,0.11 0.739,0.92 1.394,1.8 4.648,6.248 13.577,12.32 20.405,13.875 3.531,0.805 9.317,1.435 11.299,1.23 2.35,-0.243 2.375,-0.203 1.561,2.381 -0.298,0.943 -0.954,3.064 -1.459,4.714 -0.807,2.635 -2.406,7.703 -3.605,11.428 -0.814,2.526 0.026,5.177 2.133,6.737 1.168,0.864 44.49,1.564 50.671,0.819 5.452,-0.658 6.375,-4.353 3.193,-12.784 -0.166,-0.44 -0.523,-1.61 -0.793,-2.6 -0.27,-0.99 -0.627,-2.16 -0.793,-2.6 -2.832,-7.503 -2.739,-8.195 1.093,-8.221 4.286,-0.028 11.138,-0.993 11.527,-1.623 0.121,-0.196 0.479,-0.356 0.795,-0.356 2.196,0 10.562,-5.21 14.353,-8.938 2.3,-2.262 5.825,-6.54 5.825,-7.07 0,-0.184 0.231,-0.573 0.513,-0.863 0.282,-0.291 1.172,-1.879 1.977,-3.529 6.409,-13.124 5.538,-26.197 -2.545,-38.2 -2.301,-3.416 -2.053,-3.136 -11.37,-12.837 -4.166,-4.338 -8.628,-8.984 -9.914,-10.325 -26.173,-27.278 -30.519,-31.645 -32.399,-32.561 -3.499,-1.704 -5.626,-2.016 -8.062,-1.18 m 10.651,19.55 c 4.262,4.426 8.631,8.971 9.71,10.1 3.946,4.131 20.163,20.972 24.506,25.448 5.176,5.335 7.13,7.722 8.898,10.869 7.644,13.613 0.207,32.266 -15.265,38.286 -0.495,0.193 -1.35,0.528 -1.9,0.746 -4.269,1.689 -10.68,1.316 -15.526,-0.902 -7.444,-3.408 -11.355,1.189 -8.514,10.006 0.638,1.98 1.733,5.49 2.433,7.8 0.701,2.31 1.619,5.202 2.04,6.427 0.422,1.224 0.767,2.619 0.767,3.1 V 258 H 116 c -16.833,0 -15.898,0.157 -14.827,-2.481 0.205,-0.506 0.947,-2.809 1.649,-5.119 0.702,-2.31 1.597,-5.19 1.989,-6.4 0.392,-1.21 1.115,-3.46 1.608,-5 2.615,-8.176 -1.424,-12.215 -9.064,-9.064 C 75.598,238.908 53.086,211.99 64.96,191.2 c 1.295,-2.268 3.313,-4.813 6.185,-7.8 1.48,-1.54 7.814,-8.11 14.076,-14.6 6.262,-6.49 11.924,-12.373 12.582,-13.074 4.241,-4.514 18.041,-18.524 18.248,-18.525 0.138,-0.001 3.738,3.62 8,8.046 M 247,152.96 c 7.465,1.654 11.848,4.998 18.8,14.341 5.895,7.923 6.618,7.878 17.8,-1.098 18.365,-14.742 44.8,-0.362 44.8,24.369 0,11.317 -3.148,15.987 -19.8,29.374 -4.84,3.891 -12.04,9.678 -16,12.861 -3.96,3.183 -7.47,6.006 -7.8,6.274 -8.31,6.741 -22.276,17.838 -22.807,18.123 -0.8,0.428 -1.383,-0.212 -6.195,-6.804 -1.526,-2.09 -3.499,-4.724 -4.386,-5.854 -0.887,-1.13 -2.509,-3.29 -3.606,-4.8 -1.097,-1.51 -2.212,-3.016 -2.477,-3.346 -0.266,-0.33 -3.372,-4.47 -6.902,-9.2 l -6.42,-8.6 -0.003,-31.92 -0.004,-31.921 1.431,-0.598 c 3.904,-1.631 9.424,-2.12 13.569,-1.201"
       stroke="none"
       fill="#05080a"
       fill-rule="evenodd" />
    <path
       id="path1"
       d="m 109.98,40.5 c -0.592,1.838 -2.72,4.3 -3.716,4.3 -0.339,0 -0.728,0.18 -0.864,0.4 -0.162,0.262 -13.695,0.4 -39.295,0.4 -28.097,0 -39.449,0.128 -40.477,0.455 -6.838,2.181 -11.72,7.455 -13.092,14.145 -0.181,0.88 -0.329,59.11 -0.329,129.4 0,70.29 0.148,128.52 0.329,129.4 0.18,0.88 0.493,2.005 0.696,2.5 0.833,2.037 1.395,3.129 1.868,3.629 0.275,0.29 0.5,0.699 0.5,0.909 0,2.281 7.717,6.69 12.678,7.242 6.827,0.76 176.791,0.148 178.87,-0.643 4.824,-1.838 7.882,-4.259 9.852,-7.799 0.44,-0.791 0.898,-1.528 1.017,-1.638 0.284,-0.262 1.01,-2.845 1.574,-5.6 0.51,-2.494 0.362,-254.563 -0.151,-257.4 -0.546,-3.016 -2.36,-6.533 -4.44,-8.605 -2.311,-2.303 -3.927,-3.594 -4.5,-3.595 -0.275,0 -0.5,-0.18 -0.5,-0.4 0,-0.22 -0.349,-0.4 -0.776,-0.4 -0.427,0 -0.888,-0.18 -1.024,-0.4 -0.136,-0.22 -0.676,-0.4 -1.2,-0.4 -0.524,0 -1.064,-0.18 -1.2,-0.4 -0.162,-0.262 -13.333,-0.4 -38.211,-0.4 -37.547,0 -37.981,-0.009 -39.426,-0.821 -2.312,-1.298 -3.363,-2.79 -3.363,-4.774 V 38.8 h -7.136 -7.136 l -0.548,1.7 m 119.894,10.661 c 0.122,0.468 0.381,0.949 0.574,1.069 0.194,0.119 0.352,0.569 0.352,0.999 0,0.43 0.159,1.094 0.353,1.476 1.165,2.295 1.247,5.313 1.247,45.901 0,38.591 0.094,42.459 1,40.994 0.136,-0.22 1.011,-0.4 1.944,-0.4 0.933,0 1.887,-0.191 2.121,-0.425 0.445,-0.445 8.29,-0.306 10.935,0.193 4.113,0.777 7.342,1.963 11.598,4.261 2.102,1.135 1.919,1.01 5.002,3.431 3.039,2.388 7.977,7.687 8.423,9.04 0.291,0.884 0.628,0.881 1.602,-0.011 0.426,-0.391 1.405,-1.147 2.175,-1.681 0.77,-0.533 1.49,-1.077 1.6,-1.208 0.749,-0.893 6.272,-3.686 9.6,-4.855 30.636,-10.758 61.176,22.882 49.603,54.638 -2.534,6.953 -7.652,13.531 -14.952,19.217 -0.848,0.66 -1.857,1.47 -2.243,1.8 -0.386,0.33 -1.289,1.05 -2.008,1.6 -0.719,0.55 -1.688,1.335 -2.153,1.745 -0.466,0.41 -1.477,1.219 -2.247,1.798 -0.77,0.579 -1.49,1.154 -1.6,1.278 -0.28,0.315 -6.308,5.165 -8,6.436 -0.77,0.579 -1.79,1.388 -2.266,1.798 -1.354,1.165 -2.196,1.848 -4.124,3.351 -0.985,0.766 -2.035,1.622 -2.335,1.9 -0.299,0.278 -1.201,0.998 -2.004,1.6 -0.803,0.602 -1.912,1.481 -2.465,1.955 -0.553,0.473 -2.266,1.876 -3.806,3.118 -1.54,1.243 -3.07,2.478 -3.4,2.745 -0.33,0.268 -1.406,1.115 -2.39,1.882 -0.985,0.766 -2.035,1.622 -2.335,1.9 -0.299,0.278 -1.204,0.998 -2.01,1.6 -0.806,0.602 -1.706,1.322 -2,1.6 -0.294,0.278 -1.194,0.998 -1.999,1.6 -0.806,0.602 -1.825,1.426 -2.266,1.832 -7.854,7.241 -16.332,5.435 -23.181,-4.938 -0.508,-0.77 -1.322,-1.85 -1.807,-2.4 -0.485,-0.55 -1.175,-1.495 -1.533,-2.1 -0.359,-0.605 -0.793,-1.1 -0.965,-1.1 -0.173,0 -0.314,-0.27 -0.314,-0.6 0,-0.33 -0.141,-0.6 -0.314,-0.6 -0.172,0 -0.629,-0.533 -1.014,-1.185 -0.385,-0.652 -0.925,-1.417 -1.199,-1.7 -0.275,-0.283 -0.935,-1.145 -1.467,-1.915 -0.532,-0.77 -1.075,-1.49 -1.206,-1.6 -0.131,-0.11 -0.671,-0.83 -1.2,-1.6 -0.529,-0.77 -1.069,-1.49 -1.2,-1.6 -0.131,-0.11 -0.677,-0.83 -1.214,-1.6 -2.372,-3.406 -2.165,-6.66 -2.407,37.887 -0.167,30.96 -0.341,41.144 -0.724,42.513 -0.277,0.99 -0.604,2.295 -0.725,2.9 -0.121,0.605 -0.38,1.1 -0.575,1.1 -0.195,0 -0.355,0.265 -0.355,0.588 0,0.323 -0.388,1.268 -0.863,2.1 -0.474,0.832 -1.063,1.888 -1.308,2.347 -0.669,1.251 -3.01,4.08 -4.948,5.98 -2.037,1.996 -1.896,2.139 2.619,2.654 1.595,0.182 4.205,0.501 5.8,0.709 1.595,0.208 4.43,0.578 6.3,0.821 1.87,0.243 4.66,0.537 6.2,0.653 1.54,0.116 2.971,0.376 3.18,0.579 0.209,0.203 1.593,0.369 3.076,0.369 1.483,0 2.808,0.18 2.944,0.4 0.136,0.22 0.597,0.4 1.024,0.4 1.323,0 3.975,2.997 3.981,4.5 0.012,2.783 0.28,3.1 2.618,3.1 1.171,0 2.241,0.18 2.377,0.4 0.136,0.22 1.486,0.4 3,0.4 1.514,0 2.864,0.18 3,0.4 0.517,0.836 4.2,0.481 4.2,-0.405 0,-1.458 1.632,-3.759 3.28,-4.627 1.836,-0.966 4.293,-0.802 21.32,1.424 1.76,0.23 4.73,0.608 6.6,0.841 1.87,0.233 4.75,0.596 6.4,0.808 3.769,0.482 8.413,1.061 12.8,1.595 1.87,0.228 4.75,0.586 6.4,0.797 7.887,1.006 11.483,0.885 14.095,-0.472 0.382,-0.199 0.967,-0.361 1.3,-0.361 0.333,0 0.605,-0.136 0.605,-0.302 0,-0.167 0.495,-0.525 1.1,-0.796 2.638,-1.183 7.3,-6.882 7.3,-8.925 0,-0.427 0.18,-0.777 0.4,-0.777 0.22,0 0.4,-0.684 0.4,-1.52 0,-0.836 0.166,-1.691 0.369,-1.9 0.203,-0.209 0.474,-1.73 0.604,-3.38 0.129,-1.65 0.337,-4.26 0.462,-5.8 0.125,-1.54 0.393,-2.971 0.596,-3.18 0.203,-0.209 0.369,-1.593 0.369,-3.076 0,-1.483 0.18,-2.808 0.4,-2.944 0.22,-0.136 0.4,-1.576 0.4,-3.2 0,-1.624 0.18,-3.064 0.4,-3.2 0.22,-0.136 0.4,-1.461 0.4,-2.944 0,-1.483 0.162,-2.867 0.361,-3.076 0.198,-0.209 0.468,-1.73 0.598,-3.38 0.222,-2.806 0.465,-4.868 1.426,-12.1 0.212,-1.595 0.572,-4.7 0.8,-6.9 0.227,-2.2 0.69,-5.98 1.027,-8.4 0.338,-2.42 0.808,-6.02 1.046,-8 0.587,-4.896 0.965,-7.877 2.37,-18.7 0.66,-5.077 1.111,-8.581 1.583,-12.3 0.541,-4.252 1.068,-8.299 1.604,-12.3 0.228,-1.705 0.505,-4.27 0.615,-5.7 0.111,-1.43 0.367,-2.96 0.57,-3.4 0.203,-0.44 0.466,-2.015 0.584,-3.5 0.119,-1.485 0.313,-3.915 0.432,-5.4 0.118,-1.485 0.381,-3.06 0.584,-3.5 0.203,-0.44 0.459,-1.97 0.57,-3.4 0.11,-1.43 0.394,-4.04 0.632,-5.8 0.237,-1.76 0.528,-4.46 0.646,-6 0.118,-1.54 0.38,-2.971 0.583,-3.18 0.203,-0.209 0.369,-1.568 0.369,-3.02 0,-1.452 0.166,-2.811 0.369,-3.02 0.203,-0.209 0.465,-1.64 0.582,-3.18 0.213,-2.803 0.717,-7.146 1.439,-12.4 0.212,-1.54 0.565,-4.537 0.786,-6.659 0.221,-2.123 0.683,-5.993 1.027,-8.6 0.344,-2.608 0.889,-6.901 1.212,-9.541 0.322,-2.64 0.685,-5.52 0.805,-6.4 0.5,-3.659 1.039,-7.794 1.408,-10.8 0.49,-3.99 0.982,-7.808 1.572,-12.2 0.426,-3.172 0.598,-4.506 1.596,-12.4 0.209,-1.65 0.579,-4.53 0.824,-6.4 0.629,-4.819 0.507,-7.977 -0.394,-10.2 -3.23,-7.963 -8.018,-11.39 -17.626,-12.617 -1.65,-0.211 -4.26,-0.571 -5.8,-0.799 -1.54,-0.229 -4.33,-0.599 -6.2,-0.823 -1.87,-0.224 -4.57,-0.565 -6,-0.758 -7.971,-1.074 -9.666,-1.295 -12.4,-1.622 -1.65,-0.197 -4.26,-0.533 -5.8,-0.747 -1.54,-0.213 -4.42,-0.589 -6.4,-0.836 -1.98,-0.247 -4.95,-0.621 -6.6,-0.832 -1.65,-0.21 -4.35,-0.555 -6,-0.766 -1.65,-0.211 -4.44,-0.574 -6.2,-0.806 -1.76,-0.233 -4.37,-0.514 -5.8,-0.624 -1.43,-0.111 -2.96,-0.364 -3.4,-0.563 -0.44,-0.199 -2.06,-0.463 -3.6,-0.585 -2.611,-0.208 -3.898,-0.361 -11.8,-1.405 -1.65,-0.218 -4.44,-0.564 -6.2,-0.77 -1.76,-0.206 -4.73,-0.583 -6.6,-0.839 -5.515,-0.754 -8.69,-1.15 -14.2,-1.772 -2.86,-0.323 -6.64,-0.781 -8.4,-1.017 -3.415,-0.458 -8.243,-1.065 -12.8,-1.61 -1.54,-0.185 -3.373,-0.462 -4.074,-0.617 -1.16,-0.256 -1.255,-0.205 -1.052,0.569 M 58.48,60.5 c 1.381,0.794 3.272,2.8 3.867,4.103 0.3,0.658 0.705,1.51 0.9,1.892 0.194,0.382 0.353,0.969 0.353,1.305 0,0.336 0.159,0.923 0.353,1.305 0.195,0.382 0.531,1.145 0.747,1.695 0.689,1.754 1.383,3.379 1.747,4.095 0.194,0.382 0.353,1.021 0.353,1.42 0,0.399 0.151,0.896 0.336,1.105 0.185,0.209 0.529,0.92 0.765,1.58 0.236,0.66 1.098,3 1.915,5.2 0.817,2.2 1.84,4.99 2.274,6.2 0.433,1.21 0.95,2.605 1.149,3.1 0.968,2.413 1.282,3.154 1.608,3.795 0.194,0.382 0.353,0.969 0.353,1.305 0,0.336 0.159,0.923 0.353,1.305 0.195,0.382 0.531,1.145 0.747,1.695 0.216,0.55 0.597,1.495 0.846,2.1 0.855,2.074 1.174,2.902 1.654,4.3 0.552,1.609 0.908,2.55 1.546,4.1 0.25,0.605 0.612,1.505 0.804,2 0.193,0.495 0.553,1.403 0.8,2.019 2.214,5.506 -3.576,11.075 -8.587,8.26 -2.291,-1.286 -3.021,-2.374 -4.556,-6.779 -0.268,-0.77 -0.634,-1.76 -0.814,-2.2 -0.179,-0.44 -0.566,-1.388 -0.859,-2.106 l -0.534,-1.306 -11.357,0.106 c -9.623,0.09 -11.402,0.198 -11.653,0.706 -0.164,0.33 -0.519,1.14 -0.79,1.8 -0.271,0.66 -0.652,1.513 -0.847,1.895 -0.194,0.382 -0.353,1.046 -0.353,1.476 0,0.43 -0.18,0.893 -0.4,1.029 -0.22,0.136 -0.4,0.51 -0.4,0.832 0,2.199 -3.807,5.368 -6.449,5.368 -3.853,0 -7.616,-5.223 -5.983,-8.305 0.202,-0.382 0.76,-1.775 1.239,-3.095 0.479,-1.32 1.012,-2.76 1.185,-3.2 0.172,-0.44 0.799,-2.15 1.393,-3.8 0.594,-1.65 1.246,-3.405 1.448,-3.9 0.839,-2.056 1.15,-2.859 2.367,-6.1 0.702,-1.87 1.463,-3.85 1.692,-4.4 0.228,-0.55 0.571,-1.405 0.762,-1.9 0.673,-1.749 1.243,-3.108 1.593,-3.795 0.194,-0.382 0.353,-1.057 0.353,-1.5 0,-0.443 0.18,-0.805 0.4,-0.805 0.22,0 0.4,-0.362 0.4,-0.805 0,-0.443 0.159,-1.118 0.353,-1.5 0.195,-0.382 0.576,-1.235 0.847,-1.895 0.271,-0.66 0.622,-1.47 0.779,-1.8 0.158,-0.33 0.536,-1.455 0.841,-2.5 0.305,-1.045 0.695,-1.9 0.867,-1.9 0.172,0 0.313,-0.362 0.313,-0.805 0,-0.443 0.17,-1.118 0.377,-1.5 0.207,-0.382 1.025,-2.405 1.816,-4.495 2.4,-6.338 6.943,-9.083 11.087,-6.7 m -3.679,22.4 c 10e-4,0.53 -2.544,7.477 -3.921,10.7 -0.235,0.55 -0.656,1.72 -0.935,2.6 -0.28,0.88 -0.652,1.771 -0.827,1.98 -1.054,1.259 -0.342,1.42 6.269,1.42 7.187,0 6.77,0.158 5.817,-2.2 -0.178,-0.44 -0.54,-1.43 -0.804,-2.2 -0.264,-0.77 -0.667,-1.85 -0.894,-2.4 -0.227,-0.55 -0.59,-1.45 -0.806,-2 -0.216,-0.55 -0.552,-1.313 -0.747,-1.695 -0.194,-0.382 -0.353,-1.057 -0.353,-1.5 0,-0.443 -0.18,-0.805 -0.4,-0.805 -0.22,0 -0.4,-0.362 -0.4,-0.805 0,-0.443 -0.167,-1.118 -0.371,-1.5 -0.204,-0.382 -0.468,-1.01 -0.587,-1.395 -0.248,-0.8 -1.043,-0.953 -1.041,-0.2 m 65.104,42.253 c 0.382,0.195 1.235,0.592 1.895,0.884 1.381,0.611 15.641,14.953 29.788,29.963 0.933,0.99 5.523,5.76 10.199,10.6 4.676,4.84 9.111,9.52 9.854,10.4 0.744,0.88 1.637,1.87 1.984,2.2 0.905,0.86 3.975,5.477 3.975,5.978 0,0.232 0.136,0.422 0.302,0.422 0.167,0 0.545,0.585 0.841,1.3 0.296,0.715 0.848,2.02 1.226,2.9 0.377,0.88 0.911,2.41 1.186,3.4 0.275,0.99 0.679,2.386 0.899,3.102 0.515,1.678 0.511,12.924 -0.005,14.609 -0.217,0.709 -0.608,2.099 -0.867,3.089 -0.482,1.832 -0.994,3.248 -1.629,4.495 -0.194,0.382 -0.353,0.967 -0.353,1.3 0,0.333 -0.18,0.605 -0.4,0.605 -0.22,0 -0.4,0.36 -0.4,0.8 0,0.44 -0.146,0.8 -0.325,0.8 -0.179,0 -0.573,0.63 -0.875,1.4 -0.302,0.77 -0.696,1.4 -0.875,1.4 -0.179,0 -0.325,0.27 -0.325,0.6 0,0.33 -0.168,0.6 -0.373,0.6 -0.205,0 -0.477,0.315 -0.604,0.7 -1.075,3.259 -10.232,11.066 -16.123,13.745 -1.485,0.675 -3.013,1.391 -3.395,1.591 -0.382,0.2 -1.136,0.364 -1.676,0.364 -0.54,0 -1.081,0.161 -1.203,0.358 -0.322,0.521 -3.014,0.886 -8.126,1.101 -2.475,0.104 -4.5,0.271 -4.5,0.371 0,0.099 0.162,0.493 0.361,0.875 0.199,0.382 0.576,1.505 0.839,2.495 0.263,0.99 0.64,2.113 0.839,2.495 0.199,0.382 0.361,1.046 0.361,1.476 0,0.43 0.18,0.893 0.4,1.029 0.22,0.136 0.4,0.766 0.4,1.4 0,0.634 0.18,1.264 0.4,1.4 0.22,0.136 0.4,0.676 0.4,1.2 0,0.524 0.18,1.064 0.4,1.2 0.22,0.136 0.4,0.651 0.4,1.144 0,0.493 0.196,1.092 0.436,1.332 0.862,0.862 0.613,5.85 -0.36,7.217 -2.149,3.019 -1.37,2.944 -29.326,2.819 L 90.6,270.2 89.141,269.293 c -3.491,-2.171 -3.772,-7.748 -0.695,-13.788 0.195,-0.382 0.354,-1.046 0.354,-1.476 0,-0.43 0.18,-0.893 0.4,-1.029 0.22,-0.136 0.4,-0.766 0.4,-1.4 0,-0.634 0.18,-1.264 0.4,-1.4 0.22,-0.136 0.4,-0.676 0.4,-1.2 0,-0.524 0.18,-1.064 0.4,-1.2 0.22,-0.136 0.4,-0.676 0.4,-1.2 0,-0.524 0.18,-1.064 0.4,-1.2 1.458,-0.901 0.241,-1.358 -4.1,-1.541 -5.127,-0.216 -7.929,-0.579 -8.48,-1.1 -0.209,-0.197 -0.706,-0.359 -1.105,-0.359 -0.399,0 -1.038,-0.164 -1.42,-0.364 -0.382,-0.2 -1.872,-0.898 -3.311,-1.551 -5.37,-2.438 -12.492,-8.323 -15.594,-12.885 -0.523,-0.77 -1.05,-1.49 -1.171,-1.6 -0.904,-0.825 -4.206,-7.652 -5.127,-10.6 -2.321,-7.433 -2.407,-16.169 -0.226,-23 1.17,-3.662 5.179,-11.108 6.211,-11.533 0.178,-0.074 0.323,-0.292 0.323,-0.486 0,-0.491 7.136,-8.122 17.2,-18.392 2.31,-2.357 6.9,-7.132 10.2,-10.611 3.3,-3.479 7.53,-7.88 9.4,-9.78 1.87,-1.9 5.732,-5.917 8.582,-8.926 2.851,-3.01 5.416,-5.472 5.7,-5.472 0.285,0 0.518,-0.18 0.518,-0.4 0,-0.22 0.27,-0.4 0.6,-0.4 0.33,0 0.6,-0.18 0.6,-0.4 0,-0.22 0.45,-0.4 1,-0.4 0.55,0 1,-0.18 1,-0.4 0,-0.499 6.537,-0.54 7.505,-0.047"
       stroke="none"
       fill="#d9f2fb"
       fill-rule="evenodd" />
    <path
       id="path2"
       d="m 107.4,145.827 c -4.62,4.744 -8.939,9.198 -9.597,9.899 -0.658,0.701 -6.32,6.584 -12.582,13.074 -6.262,6.49 -12.596,13.06 -14.076,14.6 -2.872,2.987 -4.89,5.532 -6.185,7.8 -11.874,20.79 10.638,47.708 32.395,38.736 7.64,-3.151 11.679,0.888 9.064,9.064 -0.493,1.54 -1.216,3.79 -1.608,5 -0.392,1.21 -1.287,4.09 -1.989,6.4 -0.702,2.31 -1.444,4.613 -1.649,5.119 C 100.102,258.157 99.167,258 116,258 h 15.2 v -0.873 c 0,-0.481 -0.345,-1.876 -0.767,-3.1 -0.421,-1.225 -1.339,-4.117 -2.04,-6.427 -0.7,-2.31 -1.795,-5.82 -2.433,-7.8 -2.841,-8.817 1.07,-13.414 8.514,-10.006 4.846,2.218 11.257,2.591 15.526,0.902 0.55,-0.218 1.405,-0.553 1.9,-0.746 15.472,-6.02 22.909,-24.673 15.265,-38.286 -1.768,-3.147 -3.722,-5.534 -8.898,-10.869 -4.343,-4.476 -20.56,-21.317 -24.506,-25.448 -9.54,-9.986 -17.504,-18.147 -17.71,-18.146 -0.138,0 -4.031,3.882 -8.651,8.626"
       stroke="none"
       fill="#045c84"
       fill-rule="evenodd" />
    <path
       id="path3"
       d="m 239.4,153.252 c -2.171,0.268 -3.353,0.533 -6.1,1.368 l -0.9,0.273 v 31.768 31.768 l 1.9,2.506 c 1.045,1.378 2.292,3.037 2.771,3.686 3.597,4.874 13.465,18.101 13.882,18.608 0.285,0.346 1.851,2.416 3.481,4.6 1.63,2.184 3.183,4.241 3.451,4.571 0.268,0.33 1.041,1.373 1.717,2.319 1.841,2.573 1.851,2.57 7.882,-2.305 3.034,-2.452 5.786,-4.676 6.116,-4.942 0.33,-0.265 1.41,-1.111 2.4,-1.878 0.99,-0.766 1.89,-1.495 2,-1.618 0.11,-0.123 3.53,-2.885 7.6,-6.138 4.07,-3.253 7.76,-6.216 8.2,-6.583 0.44,-0.367 6.2,-5.013 12.8,-10.325 15.699,-12.634 18.2,-15.381 20.147,-22.13 0.285,-0.99 0.697,-2.43 0.915,-3.2 0.66,-2.331 -0.052,-12.899 -0.904,-13.426 -0.197,-0.122 -0.358,-0.541 -0.358,-0.933 0,-3.471 -10.306,-16.841 -12.982,-16.841 -0.162,0 -0.772,-0.329 -1.356,-0.73 -0.584,-0.402 -1.692,-0.96 -2.462,-1.241 -0.77,-0.28 -1.76,-0.663 -2.2,-0.851 -7.622,-3.246 -16.28,-0.846 -26.6,7.373 -8.468,6.744 -9.469,6.582 -16.371,-2.655 -5.062,-6.776 -8.486,-9.741 -13.629,-11.804 -3.185,-1.277 -7.384,-1.734 -11.4,-1.24"
       stroke="none"
       fill="#f5338d"
       fill-rule="evenodd" />
    <path
       id="path4"
       d="m 125.2,40.586 c 0,0.419 1.606,3.014 1.865,3.014 0.11,0 -0.206,-0.675 -0.702,-1.5 -1.105,-1.838 -1.163,-1.913 -1.163,-1.514 m -96.4,4.167 c -1.316,0.232 63.088,0.17 72.6,-0.071 C 103.82,44.621 88.79,44.556 68,44.538 47.21,44.52 29.57,44.617 28.8,44.753 m 105,-0.07 c 11.232,0.259 70.188,0.293 68.762,0.04 C 201.703,44.571 184.8,44.475 165,44.51 c -19.8,0.034 -33.84,0.113 -31.2,0.173 M 24.6,45.6 c -0.292,0.473 0.099,0.473 1.2,0 0.771,-0.331 0.769,-0.345 -0.076,-0.372 C 25.242,45.213 24.736,45.38 24.6,45.6 m 181.6,0 c 1.101,0.473 1.492,0.473 1.2,0 -0.136,-0.22 -0.642,-0.387 -1.124,-0.372 -0.845,0.027 -0.847,0.041 -0.076,0.372 M 18.887,48.7 c -0.957,0.935 -0.973,0.981 -0.106,0.306 1.707,-1.33 1.788,-1.406 1.505,-1.406 -0.15,0 -0.78,0.495 -1.399,1.1 m 210.067,1.476 c -0.122,0.316 -0.051,0.88 0.158,1.252 0.298,0.533 0.369,0.41 0.333,-0.575 -0.05,-1.384 -0.161,-1.538 -0.491,-0.677 M 15.829,51.562 14.658,53 16.009,51.713 c 0.742,-0.708 1.269,-1.355 1.17,-1.438 -0.098,-0.083 -0.706,0.496 -1.35,1.287 m 199.762,-0.374 c 0.466,0.653 1.051,1.314 1.3,1.468 0.25,0.155 -0.05,-0.38 -0.666,-1.188 -1.337,-1.753 -1.841,-1.976 -0.634,-0.28 M 233.4,50.4 c 0.66,0.168 1.74,0.306 2.4,0.307 1.009,10e-4 0.945,-0.052 -0.4,-0.33 -2.026,-0.419 -3.663,-0.4 -2,0.023 m 6.4,0.823 c 2.026,0.419 3.663,0.4 2,-0.023 -0.66,-0.168 -1.74,-0.306 -2.4,-0.307 -1.009,-10e-4 -0.945,0.052 0.4,0.33 m 7.7,1.059 c 0.495,0.096 1.305,0.096 1.8,0 0.495,-0.095 0.09,-0.173 -0.9,-0.173 -0.99,0 -1.395,0.078 -0.9,0.173 m 6.4,0.8 c 0.495,0.096 1.305,0.096 1.8,0 0.495,-0.095 0.09,-0.173 -0.9,-0.173 -0.99,0 -1.395,0.078 -0.9,0.173 M 13.8,54.4 c -0.341,0.66 -0.531,1.2 -0.421,1.2 0.11,0 0.48,-0.54 0.821,-1.2 0.341,-0.66 0.531,-1.2 0.421,-1.2 -0.11,0 -0.48,0.54 -0.821,1.2 m 246.505,-0.517 c 0.497,0.096 1.217,0.092 1.6,-0.008 0.382,-0.1 -0.025,-0.179 -0.905,-0.174 -0.88,0.004 -1.193,0.086 -0.695,0.182 m 6.395,0.799 c 0.495,0.096 1.305,0.096 1.8,0 0.495,-0.095 0.09,-0.173 -0.9,-0.173 -0.99,0 -1.395,0.078 -0.9,0.173 m 6.205,0.805 c 0.609,0.092 1.509,0.09 2,-0.005 0.492,-0.095 -0.005,-0.171 -1.105,-0.168 -1.1,0.003 -1.503,0.081 -0.895,0.173 m 6.2,0.796 c 0.497,0.096 1.217,0.092 1.6,-0.008 0.382,-0.1 -0.025,-0.179 -0.905,-0.174 -0.88,0.004 -1.193,0.086 -0.695,0.182 m 6.395,0.799 c 0.495,0.096 1.305,0.096 1.8,0 0.495,-0.095 0.09,-0.173 -0.9,-0.173 -0.99,0 -1.395,0.078 -0.9,0.173 m 5.333,0.662 c 0.092,0.079 1.337,0.242 2.767,0.362 1.56,0.131 2.2,0.089 1.6,-0.104 -0.988,-0.318 -4.689,-0.537 -4.367,-0.258 M 231.488,60.2 c 0.123,1.32 0.288,2.475 0.368,2.567 0.279,0.322 0.06,-2.979 -0.263,-3.967 -0.204,-0.621 -0.244,-0.091 -0.105,1.4 m -11.854,-1.4 c 0.012,0.33 0.177,0.96 0.366,1.4 l 0.344,0.8 0.022,-0.8 c 0.012,-0.44 -0.153,-1.07 -0.366,-1.4 -0.345,-0.533 -0.385,-0.533 -0.366,0 m 77.999,-0.256 c 0.092,0.08 1.247,0.245 2.567,0.368 1.491,0.139 2.021,0.099 1.4,-0.105 -0.988,-0.323 -4.289,-0.542 -3.967,-0.263 M 11.849,59.415 c -0.137,0.358 -0.231,1.041 -0.208,1.518 0.026,0.548 0.162,0.353 0.369,-0.53 0.35,-1.487 0.255,-2.07 -0.161,-0.988 m 292.184,-0.069 c 0.092,0.08 1.157,0.248 2.367,0.373 1.42,0.147 1.846,0.11 1.2,-0.106 -0.991,-0.33 -3.887,-0.548 -3.567,-0.267 m 6,0.798 c 0.092,0.08 1.247,0.245 2.567,0.368 1.491,0.139 2.021,0.099 1.4,-0.105 -0.988,-0.323 -4.289,-0.542 -3.967,-0.263 M 53,60.8 c -0.504,0.217 -0.578,0.344 -0.2,0.344 0.33,0 0.96,-0.155 1.4,-0.344 0.504,-0.217 0.578,-0.344 0.2,-0.344 -0.33,0 -0.96,0.155 -1.4,0.344 m 3.4,-0.116 c 0.33,0.121 1.185,0.457 1.9,0.748 0.715,0.29 1.3,0.437 1.3,0.327 0,-0.285 -2.674,-1.365 -3.287,-1.327 -0.333,0.02 -0.302,0.109 0.087,0.252 m 260.433,0.265 c 0.092,0.082 1.067,0.258 2.167,0.392 1.346,0.164 1.739,0.124 1.2,-0.121 -0.761,-0.346 -3.717,-0.584 -3.367,-0.271 m 6,0.797 c 0.092,0.08 1.157,0.248 2.367,0.373 1.42,0.147 1.846,0.11 1.2,-0.106 -0.991,-0.33 -3.887,-0.548 -3.567,-0.267 M 60.606,63.312 c 0.386,0.612 0.803,1.012 0.926,0.889 0.123,-0.123 -0.193,-0.623 -0.702,-1.112 L 59.904,62.2 60.606,63.312 M 331,62.8 c 1.692,0.431 3.144,0.431 1.8,0 -0.55,-0.176 -1.45,-0.317 -2,-0.313 -0.898,0.007 -0.878,0.039 0.2,0.313 M 48.981,64.437 c -0.352,0.681 -0.569,1.308 -0.482,1.395 0.087,0.087 0.457,-0.47 0.823,-1.237 0.822,-1.725 0.537,-1.857 -0.341,-0.158 m 286.652,-1.088 c 0.092,0.082 1.067,0.252 2.167,0.379 1.349,0.156 1.674,0.121 1,-0.108 -0.999,-0.34 -3.482,-0.552 -3.167,-0.271 m 6.867,0.927 c 0.385,0.1 1.015,0.1 1.4,0 0.385,-0.101 0.07,-0.183 -0.7,-0.183 -0.77,0 -1.085,0.082 -0.7,0.183 m 6.9,0.924 c 0.66,0.168 1.65,0.309 2.2,0.313 l 1,0.007 -1,-0.32 c -0.55,-0.176 -1.54,-0.317 -2.2,-0.313 l -1.2,0.008 1.2,0.305 m 5.033,0.549 c 0.092,0.082 1.067,0.252 2.167,0.379 1.349,0.156 1.674,0.121 1,-0.108 -0.999,-0.34 -3.482,-0.552 -3.167,-0.271 m 7.767,1.074 c 2.026,0.419 3.663,0.4 2,-0.023 -0.66,-0.168 -1.74,-0.306 -2.4,-0.307 -1.009,-10e-4 -0.945,0.052 0.4,0.33 m 6,0.777 c 0.66,0.168 1.65,0.305 2.2,0.305 0.892,0 0.87,-0.033 -0.2,-0.305 -0.66,-0.168 -1.65,-0.305 -2.2,-0.305 -0.892,0 -0.87,0.033 0.2,0.305 m 5.2,0.8 c 0.44,0.189 1.07,0.344 1.4,0.344 0.378,0 0.304,-0.127 -0.2,-0.344 -0.44,-0.189 -1.07,-0.344 -1.4,-0.344 -0.378,0 -0.304,0.127 0.2,0.344 m 8.827,4.615 c 1.335,1.312 2.735,2.835 3.112,3.385 0.628,0.918 0.648,0.924 0.24,0.065 -0.596,-1.253 -3.009,-3.893 -4.541,-4.967 -0.681,-0.477 -0.146,0.205 1.189,1.517 m -338.35,4.462 c -0.377,1.016 -0.619,1.914 -0.539,1.995 0.081,0.08 0.462,-0.679 0.847,-1.687 0.385,-1.009 0.627,-1.906 0.538,-1.995 -0.088,-0.089 -0.469,0.67 -0.846,1.687 m 10.661,3.94 c -0.13,0.34 -0.125,0.73 0.013,0.867 0.137,0.137 0.249,-0.051 0.249,-0.417 0,-0.858 0.639,-0.864 0.967,-0.01 0.138,0.362 0.363,0.546 0.499,0.41 0.295,-0.295 -0.606,-1.467 -1.128,-1.467 -0.199,0 -0.47,0.278 -0.6,0.617 m 333.32,1.383 c 0.317,1.725 0.544,2.051 0.536,0.767 -0.003,-0.532 -0.183,-1.237 -0.4,-1.567 -0.276,-0.422 -0.317,-0.185 -0.136,0.8 M 52.68,86.48 c -0.604,1.559 -1.034,2.9 -0.954,2.98 0.08,0.08 0.644,-1.126 1.254,-2.68 0.61,-1.554 1.039,-2.895 0.954,-2.98 -0.085,-0.085 -0.65,1.121 -1.254,2.68 m 16.371,-2.106 c 0.376,1.465 1.32,3.512 1.304,2.826 -0.008,-0.33 -0.361,-1.32 -0.784,-2.2 -0.423,-0.88 -0.657,-1.162 -0.52,-0.626 m 1.77,4.616 c -0.03,0.561 2.078,5.845 2.259,5.663 0.083,-0.083 -0.386,-1.479 -1.044,-3.102 -0.657,-1.623 -1.204,-2.775 -1.215,-2.561 m 317.034,1.665 c -0.142,1.031 -0.181,1.953 -0.086,2.047 0.094,0.094 0.296,-0.663 0.449,-1.684 0.153,-1.02 0.192,-1.942 0.086,-2.047 -0.106,-0.106 -0.308,0.652 -0.449,1.684 m -0.8,6.4 c -0.142,1.031 -0.181,1.953 -0.086,2.047 0.094,0.094 0.296,-0.663 0.449,-1.684 0.153,-1.02 0.192,-1.942 0.086,-2.047 -0.106,-0.106 -0.308,0.652 -0.449,1.684 M 52.12,100.298 c 1.935,0.074 4.995,0.073 6.8,-0.001 1.804,-0.074 0.22,-0.134 -3.52,-0.133 -3.74,0 -5.216,0.061 -3.28,0.134 m 334.098,3.12 c -0.153,1.021 -0.196,1.937 -0.096,2.037 0.1,0.1 0.307,-0.653 0.46,-1.673 0.153,-1.021 0.196,-1.937 0.096,-2.037 -0.1,-0.1 -0.307,0.653 -0.46,1.673 m -353.56,3.486 c -0.93,2.436 -0.778,2.9 0.178,0.543 0.436,-1.074 0.722,-2.023 0.636,-2.109 -0.086,-0.086 -0.452,0.619 -0.814,1.566 m -2.781,7.373 c -0.377,1.016 -0.619,1.914 -0.539,1.995 0.081,0.08 0.462,-0.679 0.847,-1.687 0.385,-1.009 0.627,-1.906 0.538,-1.995 -0.088,-0.089 -0.469,0.67 -0.846,1.687 M 384.6,116 c -0.155,1.128 -0.198,2.136 -0.094,2.239 0.103,0.103 0.31,-0.739 0.461,-1.872 0.15,-1.133 0.192,-2.141 0.094,-2.239 -0.098,-0.099 -0.306,0.744 -0.461,1.872 m -343.542,0.904 c -0.93,2.436 -0.778,2.9 0.178,0.543 0.436,-1.074 0.722,-2.023 0.636,-2.109 -0.086,-0.086 -0.452,0.619 -0.814,1.566 m 40.329,1.865 c 0,1.307 0.135,2.164 0.3,1.904 0.369,-0.58 0.356,-2.622 -0.022,-3.577 -0.153,-0.387 -0.278,0.365 -0.278,1.673 M 28.92,118.8 c 0,1.21 0.075,1.705 0.167,1.1 0.091,-0.605 0.091,-1.595 0,-2.2 -0.092,-0.605 -0.167,-0.11 -0.167,1.1 m 10.643,1.9 c -0.657,1.735 -1.987,2.895 -3.863,3.367 -0.952,0.24 -1.652,0.514 -1.556,0.611 0.434,0.434 3.397,-0.773 4.35,-1.772 0.979,-1.026 2.142,-3.306 1.686,-3.306 -0.11,0 -0.387,0.495 -0.617,1.1 M 383.8,122 c -0.155,1.128 -0.198,2.136 -0.094,2.239 0.103,0.103 0.31,-0.739 0.461,-1.872 0.15,-1.133 0.192,-2.141 0.094,-2.239 -0.098,-0.099 -0.306,0.744 -0.461,1.872 M 29.554,121.913 c 0.634,1.185 2.726,2.577 3.548,2.362 0.53,-0.138 0.485,-0.193 -0.189,-0.229 -0.487,-0.025 -1.543,-0.703 -2.345,-1.505 -0.812,-0.812 -1.262,-1.09 -1.014,-0.628 m 50.221,0.987 -1.175,1.3 1.3,-1.175 c 0.715,-0.646 1.3,-1.231 1.3,-1.3 0,-0.309 -0.33,-0.037 -1.425,1.175 m -7.434,0.234 c 1.195,1.063 3.849,2.009 4.319,1.54 0.097,-0.098 -0.506,-0.305 -1.341,-0.46 -0.836,-0.155 -2.149,-0.729 -2.919,-1.277 l -1.4,-0.995 1.341,1.192 m 40.259,2.466 -0.8,0.344 0.8,0.022 c 0.44,0.012 1.07,-0.153 1.4,-0.366 0.795,-0.514 -0.204,-0.514 -1.4,0 m 5.6,0 c 0.44,0.189 1.07,0.344 1.4,0.344 0.378,0 0.304,-0.127 -0.2,-0.344 -0.44,-0.189 -1.07,-0.344 -1.4,-0.344 -0.378,0 -0.304,0.127 0.2,0.344 m -11.547,4.072 -2.853,2.871 3,-2.756 c 1.65,-1.516 3.075,-2.808 3.167,-2.872 0.091,-0.063 0.025,-0.115 -0.148,-0.115 -0.172,0 -1.597,1.292 -3.166,2.872 M 122,126.848 c 0.11,0.086 2.45,2.313 5.2,4.947 l 5,4.791 -4.4,-4.52 c -2.42,-2.486 -4.76,-4.712 -5.2,-4.947 -0.44,-0.235 -0.71,-0.357 -0.6,-0.271 M 382.893,130 c 0,0.77 0.082,1.085 0.183,0.7 0.1,-0.385 0.1,-1.015 0,-1.4 -0.101,-0.385 -0.183,-0.07 -0.183,0.7 M 101,135.434 c -0.44,0.481 -2.779,2.92 -5.198,5.42 -4.208,4.351 -4.166,4.319 0.983,-0.738 2.959,-2.907 5.298,-5.346 5.197,-5.42 -0.1,-0.075 -0.542,0.257 -0.982,0.738 m 281.101,0.766 c 0.004,0.88 0.086,1.193 0.182,0.695 0.096,-0.497 0.092,-1.217 -0.008,-1.6 -0.1,-0.382 -0.179,0.025 -0.174,0.905 M 133.2,137.913 c 0,0.135 2.078,2.351 4.619,4.923 2.54,2.572 4.565,4.528 4.5,4.348 -0.17,-0.469 -9.119,-9.568 -9.119,-9.271 m 248.185,3.072 c -0.155,1.238 -0.195,2.338 -0.09,2.444 0.106,0.105 0.312,-0.828 0.459,-2.075 0.146,-1.247 0.187,-2.347 0.089,-2.444 -0.097,-0.098 -0.304,0.836 -0.458,2.075 M 238.6,141.171 c -0.909,0.147 0.646,0.259 3.6,0.261 3.637,0.003 4.599,-0.081 3.2,-0.279 -2.39,-0.338 -4.626,-0.332 -6.8,0.018 m -5,0.829 c -0.804,0.257 -0.843,0.323 -0.2,0.332 0.44,0.006 1.16,-0.143 1.6,-0.332 1.019,-0.438 -0.032,-0.438 -1.4,0 m 16,-0.018 c 0.33,0.223 0.945,0.409 1.367,0.412 1.023,0.008 0.704,-0.221 -0.767,-0.55 -0.876,-0.196 -1.038,-0.159 -0.6,0.138 m 4.8,1.352 c 0,0.103 0.581,0.39 1.291,0.638 0.71,0.247 1.115,0.285 0.9,0.084 -0.456,-0.427 -2.191,-0.998 -2.191,-0.722 m -167.786,7.052 c -2.626,2.633 -4.693,4.838 -4.594,4.9 0.099,0.063 2.332,-2.091 4.962,-4.786 2.63,-2.695 4.698,-4.9 4.594,-4.9 -0.104,0 -2.337,2.154 -4.962,4.786 M 264.173,149 c 2.384,1.82 2.872,1.823 0.583,0.004 -0.966,-0.768 -1.905,-1.398 -2.087,-1.4 -0.181,-0.002 0.495,0.626 1.504,1.396 m 116.328,0 c 0.004,0.88 0.086,1.193 0.182,0.695 0.096,-0.497 0.092,-1.217 -0.008,-1.6 -0.1,-0.382 -0.179,0.025 -0.174,0.905 M 298.1,148.696 c 1.265,0.079 3.335,0.079 4.6,0 1.265,-0.08 0.23,-0.145 -2.3,-0.145 -2.53,0 -3.565,0.065 -2.3,0.145 m -6.9,0.91 c -0.422,0.276 -0.185,0.317 0.8,0.136 1.725,-0.317 2.051,-0.544 0.767,-0.536 -0.532,0.003 -1.237,0.183 -1.567,0.4 m -142.59,4.397 c 1.975,2.092 3.672,3.75 3.772,3.685 0.1,-0.065 -1.515,-1.777 -3.59,-3.803 l -3.771,-3.685 3.589,3.803 M 285.6,151.6 c -0.77,0.422 -1.22,0.766 -1,0.766 0.22,0 1.03,-0.344 1.8,-0.766 0.77,-0.422 1.22,-0.766 1,-0.766 -0.22,0 -1.03,0.344 -1.8,0.766 m 29.233,0.149 c 0.412,0.368 2.767,1.451 2.767,1.272 0,-0.231 -2.218,-1.421 -2.647,-1.421 -0.157,0 -0.211,0.067 -0.12,0.149 m -77.502,1.273 c -1.358,0.298 -3.113,0.81 -3.9,1.139 l -1.431,0.598 0.004,31.921 0.003,31.92 6.42,8.6 c 3.53,4.73 6.636,8.87 6.902,9.2 0.265,0.33 1.38,1.836 2.477,3.346 1.097,1.51 2.719,3.67 3.606,4.8 0.887,1.13 2.86,3.764 4.386,5.854 4.812,6.592 5.395,7.232 6.195,6.804 0.531,-0.285 14.497,-11.382 22.807,-18.123 0.33,-0.268 3.84,-3.091 7.8,-6.274 3.96,-3.183 11.16,-8.97 16,-12.861 16.652,-13.387 19.8,-18.057 19.8,-29.374 0,-24.731 -26.435,-39.111 -44.8,-24.369 -11.359,9.118 -11.804,9.126 -18.386,0.356 -4.082,-5.44 -7.479,-8.821 -10.872,-10.821 -2.422,-1.428 -4.2,-2.079 -3.768,-1.381 0.15,0.244 0.578,0.447 0.95,0.452 0.372,0.005 1.126,0.361 1.676,0.791 0.55,0.43 1.18,0.789 1.4,0.798 1.275,0.052 6.111,4.921 9.829,9.898 6.902,9.237 7.903,9.399 16.371,2.655 10.32,-8.219 18.978,-10.619 26.6,-7.373 0.44,0.188 1.43,0.571 2.2,0.851 0.77,0.281 1.878,0.839 2.462,1.241 0.584,0.401 1.194,0.73 1.356,0.73 2.676,0 12.982,13.37 12.982,16.841 0,0.392 0.161,0.811 0.358,0.933 0.852,0.527 1.564,11.095 0.904,13.426 -0.218,0.77 -0.63,2.21 -0.915,3.2 -1.947,6.749 -4.448,9.496 -20.147,22.13 -6.6,5.312 -12.36,9.958 -12.8,10.325 -0.44,0.367 -4.13,3.33 -8.2,6.583 -4.07,3.253 -7.49,6.015 -7.6,6.138 -0.11,0.123 -1.01,0.852 -2,1.618 -0.99,0.767 -2.07,1.613 -2.4,1.878 -0.33,0.266 -3.082,2.49 -6.116,4.942 -6.031,4.875 -6.041,4.878 -7.882,2.305 -0.676,-0.946 -1.449,-1.989 -1.717,-2.319 -0.268,-0.33 -1.821,-2.387 -3.451,-4.571 -1.63,-2.184 -3.196,-4.254 -3.481,-4.6 -0.417,-0.507 -10.285,-13.734 -13.882,-18.608 -0.479,-0.649 -1.726,-2.308 -2.771,-3.686 l -1.9,-2.506 v -31.768 -31.768 l 0.9,-0.265 c 4.333,-1.275 5.739,-1.495 9.7,-1.518 2.761,-0.015 3.953,-0.134 3.2,-0.32 -1.906,-0.469 -6.183,-0.357 -8.869,0.232 M 248,153.6 c 0.33,0.213 0.96,0.388 1.4,0.388 0.662,0 0.697,-0.067 0.2,-0.388 -0.33,-0.213 -0.96,-0.388 -1.4,-0.388 -0.662,0 -0.697,0.067 -0.2,0.388 m 131.709,1.6 c 0,0.99 0.078,1.395 0.173,0.9 0.096,-0.495 0.096,-1.305 0,-1.8 -0.095,-0.495 -0.173,-0.09 -0.173,0.9 m -109.697,-0.931 c 0.007,0.182 0.682,1.059 1.5,1.949 1.563,1.699 1.377,1.295 -0.436,-0.949 -0.592,-0.732 -1.071,-1.182 -1.064,-1 m 9.173,0.95 -1.385,1.219 1.7,-1.072 c 0.935,-0.59 1.7,-1.138 1.7,-1.219 0,-0.429 -0.783,-0.013 -2.015,1.072 m 47.615,4.97 c 1.65,1.753 3.045,3.268 3.1,3.366 0.055,0.098 0.185,0.094 0.288,-0.01 0.103,-0.103 -1.292,-1.618 -3.1,-3.366 L 323.8,157 l 3,3.189 M 74.6,162.8 c -1.971,1.98 -3.439,3.6 -3.263,3.6 0.176,0 0.532,-0.239 0.792,-0.53 0.259,-0.292 1.816,-1.912 3.461,-3.6 1.644,-1.689 2.901,-3.07 2.792,-3.07 -0.109,0 -1.811,1.62 -3.782,3.6 m 304.309,-1.2 c 0,0.99 0.078,1.395 0.173,0.9 0.096,-0.495 0.096,-1.305 0,-1.8 -0.095,-0.495 -0.173,-0.09 -0.173,0.9 m -219.698,3.404 c 1.864,1.982 3.471,3.551 3.571,3.485 0.1,-0.066 -1.425,-1.688 -3.389,-3.604 l -3.571,-3.485 3.389,3.604 M 331.814,166 c 1.727,2.606 2.121,3.045 1.258,1.4 -0.346,-0.66 -1.099,-1.74 -1.673,-2.4 -0.668,-0.769 -0.519,-0.41 0.415,1 m 46.25,1.45 c -0.035,0.688 -0.153,1.858 -0.263,2.6 l -0.198,1.35 0.421,-1.342 c 0.231,-0.738 0.349,-1.908 0.262,-2.6 l -0.158,-1.258 -0.064,1.25 m -312.17,4.456 c -2.802,2.808 -5.094,5.22 -5.094,5.36 0,0.139 2.295,-2.083 5.1,-4.938 2.805,-2.856 5.175,-5.268 5.267,-5.36 0.091,-0.092 0.089,-0.168 -0.006,-0.168 -0.095,0 -2.465,2.298 -5.267,5.106 m 102.718,2.899 c 1.753,1.873 3.27,3.352 3.37,3.285 0.1,-0.066 -1.335,-1.598 -3.189,-3.405 l -3.37,-3.285 3.189,3.405 M 377.309,174 c 0,0.99 0.078,1.395 0.173,0.9 0.096,-0.495 0.096,-1.305 0,-1.8 -0.095,-0.495 -0.173,-0.09 -0.173,0.9 m -39.698,3.3 c 0.092,0.875 1.548,5.49 1.565,4.962 0.027,-0.842 -1.144,-5.062 -1.404,-5.062 -0.095,0 -0.167,0.045 -0.161,0.1 m -278.252,1.6 c -1.752,2.021 -2.272,2.7 -2.069,2.7 0.117,0 0.877,-0.81 1.689,-1.8 1.502,-1.834 1.8,-2.537 0.38,-0.9 m 317.101,1.15 c -0.033,0.578 -0.149,1.658 -0.259,2.4 l -0.198,1.35 0.421,-1.343 c 0.231,-0.738 0.348,-1.818 0.258,-2.4 L 376.52,179 l -0.06,1.05 m -201.023,2.85 c 0.812,1.265 1.551,2.3 1.642,2.3 0.268,0 -1.179,-2.318 -2.189,-3.506 -0.511,-0.602 -0.265,-0.059 0.547,1.206 M 54.6,185.6 c -0.341,0.66 -0.531,1.2 -0.421,1.2 0.11,0 0.48,-0.54 0.821,-1.2 0.341,-0.66 0.531,-1.2 0.421,-1.2 -0.11,0 -0.48,0.54 -0.821,1.2 m 321.062,0.8 c -0.04,0.77 -0.166,1.85 -0.279,2.4 l -0.206,1 0.431,-0.986 c 0.236,-0.543 0.362,-1.623 0.278,-2.4 l -0.152,-1.414 -0.072,1.4 m -35.907,4.2 c 10e-4,2.86 0.065,3.978 0.142,2.483 0.077,-1.494 0.077,-3.834 -10e-4,-5.2 -0.078,-1.365 -0.141,-0.143 -0.141,2.717 m 35.109,1.65 c -0.035,0.688 -0.153,1.858 -0.263,2.6 l -0.198,1.35 0.421,-1.342 c 0.231,-0.738 0.349,-1.908 0.262,-2.6 l -0.158,-1.258 -0.064,1.25 m -194.452,1.35 c 0,0.33 0.175,0.87 0.388,1.2 0.345,0.533 0.388,0.533 0.388,0 0,-0.33 -0.175,-0.87 -0.388,-1.2 -0.345,-0.533 -0.388,-0.533 -0.388,0 m 0.868,3.6 c 0,0.55 0.144,1.45 0.32,2 l 0.32,1 v -1 c 0,-0.55 -0.144,-1.45 -0.32,-2 l -0.32,-1 v 1 M 339,198 c -0.154,0.91 -0.196,1.738 -0.093,1.84 0.103,0.103 0.306,-0.563 0.453,-1.48 0.147,-0.917 0.188,-1.745 0.093,-1.84 -0.095,-0.096 -0.299,0.57 -0.453,1.48 m -288.747,0.036 c -0.139,0.695 -0.232,1.737 -0.206,2.314 0.025,0.578 0.208,0.077 0.405,-1.111 0.385,-2.318 0.221,-3.305 -0.199,-1.203 m 323.807,0.814 c -0.033,0.578 -0.149,1.658 -0.259,2.4 l -0.198,1.35 0.421,-1.343 c 0.231,-0.738 0.348,-1.818 0.258,-2.4 l -0.162,-1.057 -0.06,1.05 m -36.02,2.99 c -0.23,0.833 -0.346,1.587 -0.258,1.675 0.088,0.088 0.348,-0.522 0.578,-1.355 0.23,-0.833 0.346,-1.587 0.258,-1.675 -0.088,-0.088 -0.348,0.522 -0.578,1.355 m 35.22,3.01 c -0.033,0.578 -0.149,1.657 -0.259,2.4 l -0.198,1.35 0.421,-1.343 c 0.231,-0.738 0.348,-1.818 0.258,-2.4 l -0.162,-1.057 -0.06,1.05 m -323.22,2.383 c 0.022,0.752 0.19,1.817 0.373,2.367 0.216,0.646 0.253,0.22 0.106,-1.2 -0.26,-2.517 -0.538,-3.193 -0.479,-1.167 m 131.4,1.207 c -0.147,0.917 -0.188,1.745 -0.093,1.84 0.095,0.096 0.299,-0.57 0.453,-1.48 0.154,-0.91 0.196,-1.738 0.093,-1.84 -0.103,-0.103 -0.306,0.563 -0.453,1.48 m 190.815,4.215 c -0.142,1.031 -0.181,1.953 -0.086,2.047 0.094,0.094 0.296,-0.663 0.449,-1.684 0.153,-1.02 0.192,-1.942 0.086,-2.047 -0.106,-0.106 -0.308,0.652 -0.449,1.684 M 50.856,212 c 0,0.33 0.155,0.96 0.344,1.4 0.217,0.504 0.344,0.578 0.344,0.2 0,-0.33 -0.155,-0.96 -0.344,-1.4 -0.217,-0.504 -0.344,-0.578 -0.344,-0.2 m 129.744,0.8 c -0.15,0.473 -0.183,0.95 -0.073,1.06 0.11,0.11 0.323,-0.187 0.473,-0.66 0.15,-0.473 0.183,-0.95 0.073,-1.06 -0.11,-0.11 -0.323,0.187 -0.473,0.66 m 148.824,4.026 c -0.828,0.895 -1.431,1.7 -1.341,1.79 0.09,0.091 0.837,-0.641 1.66,-1.626 1.868,-2.234 1.684,-2.329 -0.319,-0.164 m 42.031,1.829 c -0.142,1.031 -0.181,1.953 -0.086,2.047 0.094,0.094 0.296,-0.663 0.449,-1.684 0.153,-1.02 0.192,-1.942 0.086,-2.047 -0.106,-0.106 -0.308,0.652 -0.449,1.684 m -48.25,3.987 c -3.513,2.962 -3.937,3.502 -0.935,1.189 2.2,-1.694 4.134,-3.478 3.692,-3.404 -0.089,0.015 -1.33,1.011 -2.757,2.215 m 47.428,2.591 c -0.15,1.133 -0.192,2.141 -0.094,2.239 0.098,0.099 0.306,-0.744 0.461,-1.872 0.155,-1.128 0.198,-2.136 0.094,-2.239 -0.103,-0.103 -0.31,0.739 -0.461,1.872 M 56.2,224.8 c 0.341,0.66 0.711,1.2 0.821,1.2 0.11,0 -0.08,-0.54 -0.421,-1.2 -0.341,-0.66 -0.711,-1.2 -0.821,-1.2 -0.11,0 0.08,0.54 0.421,1.2 m 119.073,0.2 c -0.251,0.55 -0.39,1 -0.31,1 0.08,0 0.44,-0.45 0.8,-1 0.361,-0.55 0.5,-1 0.31,-1 -0.189,0 -0.55,0.45 -0.8,1 M 57.6,226.644 c 0,0.233 0.585,1.048 1.3,1.813 0.715,0.764 1.013,1.019 0.662,0.566 -0.35,-0.453 -0.935,-1.268 -1.3,-1.812 -0.364,-0.544 -0.662,-0.799 -0.662,-0.567 m 115.355,1.637 c -0.848,1.035 -1.333,1.753 -1.078,1.595 0.544,-0.336 3.078,-3.476 2.805,-3.476 -0.102,0 -0.879,0.847 -1.727,1.881 m 142.645,0.573 -1.8,1.631 1.694,-1.272 c 1.474,-1.106 2.42,-2.039 2.03,-2.001 -0.068,0.007 -0.934,0.746 -1.924,1.642 m 54.218,2.564 c -0.153,1.021 -0.196,1.937 -0.096,2.037 0.1,0.1 0.307,-0.653 0.46,-1.673 0.153,-1.021 0.196,-1.937 0.096,-2.037 -0.1,-0.1 -0.307,0.653 -0.46,1.673 m -199.784,0.335 -0.965,1.247 1.144,-1.088 c 0.63,-0.598 1.064,-1.159 0.966,-1.247 -0.099,-0.088 -0.614,0.402 -1.145,1.088 m 141.566,0.296 c -1.081,0.977 -1.321,1.309 -0.6,0.832 1.106,-0.732 2.937,-2.497 2.562,-2.469 -0.089,0.007 -0.972,0.743 -1.962,1.637 m -146.205,3.488 c -1.323,1.025 -2.853,2.186 -3.4,2.582 -0.547,0.395 -0.725,0.592 -0.395,0.438 1.037,-0.485 5.418,-3.655 5.97,-4.321 0.775,-0.933 0.486,-0.761 -2.175,1.301 M 66.4,235.746 c 0,0.11 0.54,0.584 1.2,1.054 0.66,0.47 1.2,0.764 1.2,0.654 0,-0.11 -0.54,-0.584 -1.2,-1.054 -0.66,-0.47 -1.2,-0.764 -1.2,-0.654 m 302.618,1.672 c -0.153,1.021 -0.188,1.945 -0.078,2.055 0.11,0.11 0.325,-0.634 0.478,-1.655 0.153,-1.02 0.188,-1.945 0.078,-2.055 -0.11,-0.11 -0.325,0.635 -0.478,1.655 m -65.636,1.294 c -1.699,1.563 -1.295,1.377 0.949,-0.436 0.732,-0.592 1.182,-1.071 1,-1.064 -0.182,0.007 -1.059,0.682 -1.949,1.5 m -69.791,1.276 c 0.466,0.653 1.051,1.314 1.3,1.468 0.25,0.155 -0.05,-0.38 -0.666,-1.188 -1.337,-1.753 -1.841,-1.976 -0.634,-0.28 M 75.2,241 c 0.55,0.314 1.27,0.571 1.6,0.57 0.33,-0.001 -0.006,-0.264 -0.746,-0.586 -1.703,-0.739 -2.16,-0.731 -0.854,0.016 m 3.633,1.144 c 0.092,0.079 0.707,0.264 1.367,0.412 0.876,0.196 1.038,0.159 0.6,-0.138 -0.54,-0.365 -2.368,-0.62 -1.967,-0.274 m 72.367,0.274 c -0.438,0.297 -0.276,0.334 0.6,0.138 1.471,-0.329 1.79,-0.558 0.767,-0.55 -0.422,0.003 -1.037,0.189 -1.367,0.412 m -67.6,0.802 c 0.99,0.177 2.34,0.312 3,0.3 0.885,-0.015 0.728,-0.104 -0.6,-0.34 -0.99,-0.177 -2.34,-0.312 -3,-0.3 -0.885,0.015 -0.728,0.104 0.6,0.34 m 59.6,-0.02 -3.8,0.247 3.6,0.053 c 1.98,0.03 4.32,-0.095 5.2,-0.277 l 1.6,-0.331 -1.4,0.031 c -0.77,0.016 -3.11,0.141 -5.2,0.277 m -52.403,0.297 c 0.768,0.092 1.53,0.378 1.693,0.636 0.195,0.306 0.3,0.226 0.304,-0.233 0.005,-0.568 -0.315,-0.688 -1.694,-0.636 -1.62,0.061 -1.634,0.072 -0.303,0.233 m 204.403,1.752 c -1.081,0.977 -1.321,1.309 -0.6,0.832 1.106,-0.732 2.937,-2.497 2.562,-2.469 -0.089,0.007 -0.972,0.743 -1.962,1.637 m -55.825,2.483 c 0.616,0.807 1.201,1.468 1.3,1.468 0.278,0 -1.454,-2.34 -1.966,-2.656 -0.25,-0.155 0.05,0.38 0.666,1.188 m 51.41,1.1 -1.385,1.231 1.288,-0.85 c 1.142,-0.754 2.005,-1.613 1.62,-1.613 -0.076,0 -0.761,0.554 -1.523,1.232 m 76.633,1.386 c -0.153,1.021 -0.196,1.937 -0.096,2.037 0.1,0.1 0.307,-0.653 0.46,-1.673 0.153,-1.021 0.196,-1.937 0.096,-2.037 -0.1,-0.1 -0.307,0.653 -0.46,1.673 m -80.636,1.698 c -4.375,3.717 -5.009,4.278 -4.4,3.893 0.953,-0.602 6.818,-5.457 6.818,-5.644 0,-0.285 -0.146,-0.179 -2.418,1.751 m -42.382,2.332 c 0,0.21 0.553,1.005 1.229,1.767 l 1.229,1.385 -1.113,-1.6 c -0.612,-0.88 -1.165,-1.675 -1.229,-1.767 -0.064,-0.091 -0.116,0.005 -0.116,0.215 m -101.572,1.228 c -0.015,0.482 0.152,0.988 0.372,1.124 0.473,0.292 0.473,-0.099 0,-1.2 -0.331,-0.771 -0.345,-0.769 -0.372,0.076 m 223.673,2.724 c 0.004,0.88 0.086,1.193 0.182,0.695 0.096,-0.497 0.092,-1.217 -0.008,-1.6 -0.1,-0.382 -0.179,0.025 -0.174,0.905 m -118.91,0.588 c 0.466,0.653 1.051,1.314 1.3,1.468 0.25,0.155 -0.05,-0.38 -0.666,-1.188 -1.337,-1.753 -1.841,-1.976 -0.634,-0.28 m 29.887,0.625 c -0.618,0.543 -0.964,0.987 -0.77,0.987 0.194,0 0.775,-0.45 1.292,-1 1.195,-1.272 0.931,-1.266 -0.522,0.013 m -26.889,3.387 c 1.775,2.261 3.681,4.099 4.811,4.639 0.66,0.315 0.84,0.345 0.4,0.068 -0.44,-0.278 -1.969,-1.675 -3.398,-3.106 -1.429,-1.43 -2.245,-2.151 -1.813,-1.601 m 115.112,1.4 c 0.004,0.88 0.086,1.193 0.182,0.695 0.096,-0.497 0.092,-1.217 -0.008,-1.6 -0.1,-0.382 -0.179,0.025 -0.174,0.905 m -0.716,4.785 c -0.155,1.238 -0.195,2.338 -0.09,2.444 0.106,0.105 0.312,-0.828 0.459,-2.075 0.146,-1.247 0.187,-2.347 0.089,-2.444 -0.097,-0.098 -0.304,0.836 -0.458,2.075 M 141,269.2 l -1.2,0.305 1.076,0.048 c 0.592,0.026 1.188,-0.133 1.324,-0.353 0.136,-0.22 0.192,-0.379 0.124,-0.353 -0.068,0.026 -0.664,0.185 -1.324,0.353 m 223.109,8 c 0,0.99 0.078,1.395 0.173,0.9 0.096,-0.495 0.096,-1.305 0,-1.8 -0.095,-0.495 -0.173,-0.09 -0.173,0.9 m -0.8,6 c 0,0.99 0.078,1.395 0.173,0.9 0.096,-0.495 0.096,-1.305 0,-1.8 -0.095,-0.495 -0.173,-0.09 -0.173,0.9 m -0.8,6 c 0,0.99 0.078,1.395 0.173,0.9 0.096,-0.495 0.096,-1.305 0,-1.8 -0.095,-0.495 -0.173,-0.09 -0.173,0.9 m -0.8,6.8 c 0,0.99 0.078,1.395 0.173,0.9 0.096,-0.495 0.096,-1.305 0,-1.8 -0.095,-0.495 -0.173,-0.09 -0.173,0.9 m -0.8,6 c 0,0.99 0.078,1.395 0.173,0.9 0.096,-0.495 0.096,-1.305 0,-1.8 -0.095,-0.495 -0.173,-0.09 -0.173,0.9 m -0.845,6.25 c -0.035,0.688 -0.153,1.858 -0.263,2.6 l -0.198,1.35 0.421,-1.342 c 0.231,-0.738 0.349,-1.908 0.262,-2.6 l -0.158,-1.258 -0.064,1.25 m -0.8,6 c -0.035,0.688 -0.153,1.858 -0.263,2.6 l -0.198,1.35 0.421,-1.342 c 0.231,-0.738 0.349,-1.908 0.262,-2.6 l -0.158,-1.258 -0.064,1.25 m -127.604,3.4 c -0.033,0.578 -0.149,1.658 -0.259,2.4 l -0.198,1.35 0.421,-1.343 c 0.231,-0.738 0.348,-1.818 0.258,-2.4 l -0.162,-1.057 -0.06,1.05 m -220.054,0.783 c 0.003,0.532 0.183,1.237 0.4,1.567 0.276,0.422 0.317,0.185 0.136,-0.8 -0.317,-1.725 -0.544,-2.051 -0.536,-0.767 m 208.244,0.817 c -0.141,0.703 -0.181,1.352 -0.091,1.442 0.091,0.091 0.289,-0.401 0.441,-1.092 0.152,-0.691 0.193,-1.341 0.091,-1.442 -0.102,-0.102 -0.3,0.389 -0.441,1.092 M 358.501,321 c 0.004,0.88 0.086,1.193 0.182,0.695 0.096,-0.497 0.092,-1.217 -0.008,-1.6 -0.1,-0.382 -0.179,0.025 -0.174,0.905 m -140.687,3.635 c -0.373,0.569 -0.609,1.103 -0.525,1.187 0.084,0.085 0.469,-0.381 0.855,-1.034 0.862,-1.46 0.604,-1.579 -0.33,-0.153 M 14.473,325.8 c 0.25,0.55 0.611,1 0.8,1 0.19,0 0.051,-0.45 -0.31,-1 -0.36,-0.55 -0.72,-1 -0.8,-1 -0.08,0 0.059,0.45 0.31,1 m 200.327,2.716 c -1.21,1.154 -2.65,2.418 -3.2,2.809 -0.962,0.683 -0.95,0.683 0.297,0.008 1.132,-0.613 5.786,-4.946 5.289,-4.925 -0.102,0.004 -1.176,0.953 -2.386,2.108 m 142.655,-0.261 c -0.142,1.031 -0.181,1.953 -0.086,2.047 0.094,0.094 0.296,-0.663 0.449,-1.684 0.153,-1.02 0.192,-1.942 0.086,-2.047 -0.106,-0.106 -0.308,0.652 -0.449,1.684 m -340.358,0.571 c 0.933,0.989 2.283,2.115 3,2.503 1.259,0.682 1.269,0.681 0.303,-0.01 -0.55,-0.394 -1.9,-1.521 -3,-2.503 l -2,-1.787 1.697,1.797 m 209.247,3.874 c -1.151,1.389 -1.638,2.1 -1.44,2.1 0.11,0 0.682,-0.63 1.269,-1.4 1.09,-1.429 1.222,-1.968 0.171,-0.7 m 130.52,0.35 c -0.035,0.468 -0.159,1.457 -0.275,2.2 -0.193,1.236 -0.174,1.267 0.219,0.364 0.237,-0.542 0.36,-1.532 0.275,-2.2 -0.092,-0.717 -0.181,-0.866 -0.219,-0.364 m -329.988,1.01 c 0.508,0.143 40.614,0.26 89.124,0.26 48.51,0 88.616,-0.117 89.124,-0.26 0.508,-0.143 -39.598,-0.26 -89.124,-0.26 -49.526,0 -89.632,0.117 -89.124,0.26 m 193.755,4.707 c -1.359,1.42 -1.072,2.054 0.893,1.969 l 1.476,-0.064 -1.3,-0.161 c -1.52,-0.189 -1.632,-0.706 -0.43,-1.985 0.478,-0.509 0.782,-0.926 0.675,-0.926 -0.108,0 -0.699,0.525 -1.314,1.167 m 135.219,1.283 c -0.141,0.703 -0.181,1.352 -0.091,1.442 0.091,0.091 0.289,-0.401 0.441,-1.092 0.152,-0.691 0.193,-1.341 0.091,-1.442 -0.102,-0.102 -0.3,0.389 -0.441,1.092 m -130.45,1.13 c 0.761,0.346 3.717,0.584 3.367,0.271 -0.092,-0.082 -1.067,-0.258 -2.167,-0.392 -1.346,-0.164 -1.739,-0.124 -1.2,0.121 m 6.4,0.824 c 0.767,0.326 4.111,0.549 3.767,0.252 -0.092,-0.079 -1.157,-0.245 -2.367,-0.368 -1.369,-0.139 -1.898,-0.096 -1.4,0.116 m 6.2,0.783 c 0.991,0.33 3.887,0.548 3.567,0.267 -0.092,-0.08 -1.157,-0.248 -2.367,-0.373 -1.42,-0.147 -1.846,-0.11 -1.2,0.106 m 7.9,1.095 c 0.495,0.096 1.305,0.096 1.8,0 0.495,-0.095 0.09,-0.173 -0.9,-0.173 -0.99,0 -1.395,0.078 -0.9,0.173 m 4.5,0.498 c 0.999,0.34 3.482,0.552 3.167,0.271 -0.092,-0.082 -1.067,-0.252 -2.167,-0.379 -1.349,-0.156 -1.674,-0.121 -1,0.108 m 4.716,1.429 c 0.723,0.59 1.576,1.64 1.896,2.332 0.438,0.952 0.521,1.015 0.338,0.259 -0.277,-1.144 -1.576,-2.688 -2.75,-3.269 -0.44,-0.218 -0.208,0.087 0.516,0.678 m 20.259,3.891 -1.175,1.3 1.398,-1.2 c 0.769,-0.66 1.474,-1.245 1.567,-1.3 0.092,-0.055 -0.008,-0.1 -0.223,-0.1 -0.216,0 -0.921,0.585 -1.567,1.3 m 7.858,-1.153 c 0.092,0.081 1.337,0.246 2.767,0.368 1.638,0.139 2.156,0.103 1.4,-0.1 -1.222,-0.326 -4.47,-0.535 -4.167,-0.268 m 7.072,0.936 c 0.497,0.096 1.217,0.092 1.6,-0.008 0.382,-0.1 -0.025,-0.179 -0.905,-0.174 -0.88,0.004 -1.193,0.086 -0.695,0.182 m 7.495,0.917 c 0.66,0.168 1.74,0.306 2.4,0.307 1.009,0.001 0.945,-0.052 -0.4,-0.33 -2.026,-0.419 -3.663,-0.4 -2,0.023 m 6.4,0.823 c 2.026,0.419 3.663,0.4 2,-0.023 -0.66,-0.168 -1.74,-0.306 -2.4,-0.307 -1.009,-10e-4 -0.945,0.052 0.4,0.33 m 5.1,0.653 c 0.385,0.1 1.015,0.1 1.4,0 0.385,-0.101 0.07,-0.183 -0.7,-0.183 -0.77,0 -1.085,0.082 -0.7,0.183 m 7.3,0.924 c 0.66,0.168 1.65,0.305 2.2,0.305 0.892,0 0.87,-0.033 -0.2,-0.305 -0.66,-0.168 -1.65,-0.305 -2.2,-0.305 -0.892,0 -0.87,0.033 0.2,0.305 m 6.2,0.8 c 0.55,0.176 1.54,0.317 2.2,0.313 l 1.2,-0.008 -1.2,-0.305 c -0.66,-0.168 -1.65,-0.309 -2.2,-0.313 l -1,-0.007 1,0.32 m 6.8,0.78 c 0.999,0.34 3.482,0.552 3.167,0.271 -0.092,-0.082 -1.067,-0.252 -2.167,-0.379 -1.349,-0.156 -1.674,-0.121 -1,0.108 m 6.5,0.711 c 0.825,0.087 2.175,0.087 3,0 0.825,-0.086 0.15,-0.157 -1.5,-0.157 -1.65,0 -2.325,0.071 -1.5,0.157"
       stroke="none"
       fill="#794c63"
       fill-rule="evenodd" />
    <path
       id="path5"
       d="m 49.3,45.1 c 10.285,0.059 27.115,0.059 37.4,0 10.285,-0.06 1.87,-0.108 -18.7,-0.108 -20.57,0 -28.985,0.048 -18.7,0.108 m 98.23,0 c 9.972,0.059 26.172,0.059 36,0 9.829,-0.06 1.67,-0.108 -18.13,-0.108 -19.8,0 -27.841,0.048 -17.87,0.108 M 302.1,59.476 c 0.385,0.1 1.015,0.1 1.4,0 0.385,-0.101 0.07,-0.183 -0.7,-0.183 -0.77,0 -1.085,0.082 -0.7,0.183 m -247.6,0.8 c 0.385,0.1 1.015,0.1 1.4,0 0.385,-0.101 0.07,-0.183 -0.7,-0.183 -0.77,0 -1.085,0.082 -0.7,0.183 m 253.6,0 c 0.385,0.1 1.015,0.1 1.4,0 0.385,-0.101 0.07,-0.183 -0.7,-0.183 -0.77,0 -1.085,0.082 -0.7,0.183 M 220.198,189.4 c 0,70.84 0.046,99.76 0.102,64.268 0.056,-35.493 0.056,-93.453 0,-128.8 -0.056,-35.348 -0.102,-6.308 -0.102,64.532 M 314.9,61.076 c 0.385,0.1 1.015,0.1 1.4,0 0.385,-0.101 0.07,-0.183 -0.7,-0.183 -0.77,0 -1.085,0.082 -0.7,0.183 M 11.798,189.6 c 0,70.51 0.046,99.355 0.102,64.1 0.056,-35.255 0.056,-92.945 0,-128.2 -0.056,-35.255 -0.102,-6.41 -0.102,64.1 M 320.9,61.876 c 0.385,0.1 1.015,0.1 1.4,0 0.385,-0.101 0.07,-0.183 -0.7,-0.183 -0.77,0 -1.085,0.082 -0.7,0.183 m 7.2,0.8 c 0.385,0.1 1.015,0.1 1.4,0 0.385,-0.101 0.07,-0.183 -0.7,-0.183 -0.77,0 -1.085,0.082 -0.7,0.183 m 12,1.6 c 0.385,0.1 1.015,0.1 1.4,0 0.385,-0.101 0.07,-0.183 -0.7,-0.183 -0.77,0 -1.085,0.082 -0.7,0.183 m 42.5,9.324 c 0.859,0.88 1.652,1.6 1.762,1.6 0.11,0 -0.503,-0.72 -1.362,-1.6 -0.859,-0.88 -1.652,-1.6 -1.762,-1.6 -0.11,0 0.503,0.72 1.362,1.6 m 5.524,13 c 0.002,1.32 0.077,1.812 0.166,1.093 0.089,-0.719 0.087,-1.799 -0.004,-2.4 -0.091,-0.601 -0.164,-0.013 -0.162,1.307 m -1.631,13.8 c 0,0.77 0.082,1.085 0.183,0.7 0.1,-0.385 0.1,-1.015 0,-1.4 -0.101,-0.385 -0.183,-0.07 -0.183,0.7 M 49.724,111.899 c 3.259,0.068 8.479,0.067 11.6,0 3.122,-0.068 0.456,-0.123 -5.924,-0.122 -6.38,0 -8.934,0.055 -5.676,0.122 M 28.493,118.8 c 0,0.77 0.082,1.085 0.183,0.7 0.1,-0.385 0.1,-1.015 0,-1.4 -0.101,-0.385 -0.183,-0.07 -0.183,0.7 m 86.407,6.287 c 0.605,0.091 1.595,0.091 2.2,0 0.605,-0.092 0.11,-0.167 -1.1,-0.167 -1.21,0 -1.705,0.075 -1.1,0.167 m 10.683,4.613 c 1.658,1.766 2.017,2.084 2.017,1.783 0,-0.064 -0.855,-0.919 -1.9,-1.9 l -1.9,-1.783 1.783,1.9 m 256.617,3.1 c -0.154,0.91 -0.196,1.738 -0.093,1.84 0.103,0.103 0.306,-0.563 0.453,-1.48 0.147,-0.917 0.188,-1.745 0.093,-1.84 -0.095,-0.096 -0.299,0.57 -0.453,1.48 m -284.415,5.7 -1.985,2.1 2.1,-1.985 c 1.155,-1.092 2.1,-2.037 2.1,-2.1 0,-0.298 -0.371,0.034 -2.215,1.985 M 137,141.6 c 1.528,1.54 2.869,2.8 2.979,2.8 0.11,0 -1.051,-1.26 -2.579,-2.8 -1.528,-1.54 -2.869,-2.8 -2.979,-2.8 -0.11,0 1.051,1.26 2.579,2.8 m 243.669,3.156 c -0.148,0.739 -0.249,1.727 -0.225,2.194 0.024,0.467 0.203,0.04 0.398,-0.95 0.195,-0.99 0.296,-1.977 0.225,-2.194 -0.071,-0.216 -0.25,0.211 -0.398,0.95 M 88.4,148.2 c -1.639,1.65 -2.89,3 -2.78,3 0.11,0 1.541,-1.35 3.18,-3 1.639,-1.65 2.89,-3 2.78,-3 -0.11,0 -1.541,1.35 -3.18,3 M 146,151 c 2.081,2.09 3.874,3.8 3.984,3.8 0.11,0 -1.503,-1.71 -3.584,-3.8 -2.081,-2.09 -3.874,-3.8 -3.984,-3.8 -0.11,0 1.503,1.71 3.584,3.8 m 159.6,-2.2 c 1.368,0.438 2.419,0.438 1.4,0 -0.44,-0.189 -1.16,-0.338 -1.6,-0.332 -0.643,0.009 -0.604,0.075 0.2,0.332 m -28.2,7.435 -1.2,1.031 1.3,-0.86 c 0.715,-0.473 1.3,-0.938 1.3,-1.033 0,-0.3 -0.169,-0.195 -1.4,0.862 m -200.609,4.065 -3.391,3.5 3.5,-3.391 c 3.251,-3.15 3.682,-3.609 3.391,-3.609 -0.06,0 -1.635,1.575 -3.5,3.5 m 250.392,-0.2 c 1.658,1.766 2.017,2.084 2.017,1.783 0,-0.064 -0.855,-0.919 -1.9,-1.9 l -1.9,-1.783 1.783,1.9 M 157,162.4 c 1.75,1.76 3.271,3.2 3.381,3.2 0.11,0 -1.231,-1.44 -2.981,-3.2 -1.75,-1.76 -3.271,-3.2 -3.381,-3.2 -0.11,0 1.231,1.44 2.981,3.2 m 221.093,2.8 c 0,0.77 0.082,1.085 0.183,0.7 0.1,-0.385 0.1,-1.015 0,-1.4 -0.101,-0.385 -0.183,-0.07 -0.183,0.7 m -309.904,4.1 -2.789,2.9 2.9,-2.789 c 2.694,-2.591 3.083,-3.011 2.789,-3.011 -0.061,0 -1.366,1.305 -2.9,2.9 M 166.2,172 c 1.306,1.32 2.465,2.4 2.575,2.4 0.11,0 -0.869,-1.08 -2.175,-2.4 -1.306,-1.32 -2.465,-2.4 -2.575,-2.4 -0.11,0 0.869,1.08 2.175,2.4 m 211.093,-0.8 c 0,0.77 0.082,1.085 0.183,0.7 0.1,-0.385 0.1,-1.015 0,-1.4 -0.101,-0.385 -0.183,-0.07 -0.183,0.7 m -0.8,6.8 c 0,0.77 0.082,1.085 0.183,0.7 0.1,-0.385 0.1,-1.015 0,-1.4 -0.101,-0.385 -0.183,-0.07 -0.183,0.7 m -317.118,0.5 -1.175,1.3 1.3,-1.175 c 0.715,-0.646 1.3,-1.231 1.3,-1.3 0,-0.309 -0.33,-0.037 -1.425,1.175 m 316.318,5.5 c 0,0.77 0.082,1.085 0.183,0.7 0.1,-0.385 0.1,-1.015 0,-1.4 -0.101,-0.385 -0.183,-0.07 -0.183,0.7 m -0.8,6 c 0,0.77 0.082,1.085 0.183,0.7 0.1,-0.385 0.1,-1.015 0,-1.4 -0.101,-0.385 -0.183,-0.07 -0.183,0.7 m -34.784,0.8 c 0,0.99 0.078,1.395 0.173,0.9 0.096,-0.495 0.096,-1.305 0,-1.8 -0.095,-0.495 -0.173,-0.09 -0.173,0.9 m 33.984,6 c 0,0.77 0.082,1.085 0.183,0.7 0.1,-0.385 0.1,-1.015 0,-1.4 -0.101,-0.385 -0.183,-0.07 -0.183,0.7 m -191.965,6.8 c 0,1.43 0.073,2.015 0.161,1.3 0.089,-0.715 0.089,-1.885 0,-2.6 -0.088,-0.715 -0.161,-0.13 -0.161,1.3 m 191.165,-0.8 c 0,0.77 0.082,1.085 0.183,0.7 0.1,-0.385 0.1,-1.015 0,-1.4 -0.101,-0.385 -0.183,-0.07 -0.183,0.7 m -0.8,6.8 c 0,0.77 0.082,1.085 0.183,0.7 0.1,-0.385 0.1,-1.015 0,-1.4 -0.101,-0.385 -0.183,-0.07 -0.183,0.7 m -0.8,6 c 0,0.77 0.082,1.085 0.183,0.7 0.1,-0.385 0.1,-1.015 0,-1.4 -0.101,-0.385 -0.183,-0.07 -0.183,0.7 m -45.118,4.5 -1.175,1.3 1.3,-1.175 c 1.212,-1.095 1.484,-1.425 1.175,-1.425 -0.069,0 -0.654,0.585 -1.3,1.3 m 44.326,1.7 c 0.004,0.88 0.086,1.193 0.182,0.695 0.096,-0.497 0.092,-1.217 -0.008,-1.6 -0.1,-0.382 -0.179,0.025 -0.174,0.905 M 87.905,243.883 c 0.497,0.096 1.217,0.092 1.6,-0.008 0.382,-0.1 -0.025,-0.179 -0.905,-0.174 -0.88,0.004 -1.193,0.086 -0.695,0.182 M 86.501,263.8 c 0.004,0.88 0.086,1.193 0.182,0.695 0.096,-0.497 0.092,-1.217 -0.008,-1.6 -0.1,-0.382 -0.179,0.025 -0.174,0.905 m 165.099,0.725 c 0,0.069 0.585,0.654 1.3,1.3 l 1.3,1.175 -1.175,-1.3 c -1.095,-1.212 -1.425,-1.484 -1.425,-1.175 M 143.999,267.7 c -0.589,0.804 -0.686,1.084 -0.254,0.733 0.656,-0.533 1.648,-2.033 1.344,-2.033 -0.076,0 -0.567,0.585 -1.09,1.3 m -40.299,2.2 c 6.765,0.061 17.835,0.061 24.6,0 6.765,-0.062 1.23,-0.112 -12.3,-0.112 -13.53,0 -19.065,0.05 -12.3,0.112 m 258.9,15.7 c -0.154,0.91 -0.196,1.738 -0.093,1.84 0.103,0.103 0.306,-0.563 0.453,-1.48 0.147,-0.917 0.188,-1.745 0.093,-1.84 -0.095,-0.096 -0.299,0.57 -0.453,1.48 m -0.907,7.6 c 0,0.77 0.082,1.085 0.183,0.7 0.1,-0.385 0.1,-1.015 0,-1.4 -0.101,-0.385 -0.183,-0.07 -0.183,0.7 m -1.6,12.8 c 0,0.77 0.082,1.085 0.183,0.7 0.1,-0.385 0.1,-1.015 0,-1.4 -0.101,-0.385 -0.183,-0.07 -0.183,0.7 m -0.8,6 c 0,0.77 0.082,1.085 0.183,0.7 0.1,-0.385 0.1,-1.015 0,-1.4 -0.101,-0.385 -0.183,-0.07 -0.183,0.7 m -0.792,6.2 c 0.004,0.88 0.086,1.193 0.182,0.695 0.096,-0.497 0.092,-1.217 -0.008,-1.6 -0.1,-0.382 -0.179,0.025 -0.174,0.905 m -0.8,6.8 c 0.004,0.88 0.086,1.193 0.182,0.695 0.096,-0.497 0.092,-1.217 -0.008,-1.6 -0.1,-0.382 -0.179,0.025 -0.174,0.905 m -0.8,6 c 0.004,0.88 0.086,1.193 0.182,0.695 0.096,-0.497 0.092,-1.217 -0.008,-1.6 -0.1,-0.382 -0.179,0.025 -0.174,0.905 m -168.025,2.899 c 2.792,0.068 7.472,0.069 10.4,0 2.928,-0.068 0.644,-0.124 -5.076,-0.125 -5.72,0 -8.116,0.056 -5.324,0.125 m 167.217,3.701 c 0,0.77 0.082,1.085 0.183,0.7 0.1,-0.385 0.1,-1.015 0,-1.4 -0.101,-0.385 -0.183,-0.07 -0.183,0.7 M 229.3,341.476 c 0.385,0.1 1.015,0.1 1.4,0 0.385,-0.101 0.07,-0.183 -0.7,-0.183 -0.77,0 -1.085,0.082 -0.7,0.183 m 12.8,1.6 c 0.385,0.1 1.015,0.1 1.4,0 0.385,-0.101 0.07,-0.183 -0.7,-0.183 -0.77,0 -1.085,0.082 -0.7,0.183 m 36.805,4.811 c 0.609,0.092 1.509,0.09 2,-0.005 0.492,-0.095 -0.005,-0.171 -1.105,-0.168 -1.1,0.003 -1.503,0.081 -0.895,0.173 m 54.395,6.789 c 0.385,0.1 1.015,0.1 1.4,0 0.385,-0.101 0.07,-0.183 -0.7,-0.183 -0.77,0 -1.085,0.082 -0.7,0.183"
       stroke="none"
       fill="#85969d"
       fill-rule="evenodd" />
    <path
       id="path6"
       d="m 214.4,50.664 c 0,0.218 0.495,0.833 1.1,1.366 l 1.1,0.97 -1,-1.2 c -0.55,-0.66 -1.045,-1.275 -1.1,-1.367 -0.055,-0.091 -0.1,0.012 -0.1,0.231 m 19.105,0.419 c 0.497,0.096 1.217,0.092 1.6,-0.008 0.382,-0.1 -0.025,-0.179 -0.905,-0.174 -0.88,0.004 -1.193,0.086 -0.695,0.182 m 6.4,0.8 c 0.497,0.096 1.217,0.092 1.6,-0.008 0.382,-0.1 -0.025,-0.179 -0.905,-0.174 -0.88,0.004 -1.193,0.086 -0.695,0.182 m 6.8,0.8 c 0.497,0.096 1.217,0.092 1.6,-0.008 0.382,-0.1 -0.025,-0.179 -0.905,-0.174 -0.88,0.004 -1.193,0.086 -0.695,0.182 m 6,0.8 c 0.497,0.096 1.217,0.092 1.6,-0.008 0.382,-0.1 -0.025,-0.179 -0.905,-0.174 -0.88,0.004 -1.193,0.086 -0.695,0.182 M 217.4,54.8 c 0.341,0.66 0.711,1.2 0.821,1.2 0.11,0 -0.08,-0.54 -0.421,-1.2 -0.341,-0.66 -0.711,-1.2 -0.821,-1.2 -0.11,0 0.08,0.54 0.421,1.2 M 12.25,60.45 c -0.333,1.667 -0.01,1.99 0.35,0.35 0.152,-0.691 0.193,-1.341 0.091,-1.442 -0.102,-0.102 -0.3,0.389 -0.441,1.092 M 219.268,60 c -0.006,0.55 0.143,1.36 0.332,1.8 l 0.344,0.8 -0.012,-0.8 C 219.926,61.36 219.776,60.55 219.6,60 l -0.32,-1 -0.012,1 m 91.532,0.794 c 0.33,0.217 1.035,0.397 1.567,0.4 1.284,0.008 0.958,-0.219 -0.767,-0.536 -0.985,-0.181 -1.222,-0.14 -0.8,0.136 m 6.4,0.788 c 0.33,0.223 0.945,0.409 1.367,0.412 1.023,0.008 0.704,-0.221 -0.767,-0.55 -0.876,-0.196 -1.038,-0.159 -0.6,0.138 m 18.4,2.412 c 0.33,0.217 1.035,0.397 1.567,0.4 1.284,0.008 0.958,-0.219 -0.767,-0.536 -0.985,-0.181 -1.222,-0.14 -0.8,0.136 m 7.7,1.082 c 0.385,0.1 1.015,0.1 1.4,0 0.385,-0.101 0.07,-0.183 -0.7,-0.183 -0.77,0 -1.085,0.082 -0.7,0.183 m 6,0.8 c 0.385,0.1 1.015,0.1 1.4,0 0.385,-0.101 0.07,-0.183 -0.7,-0.183 -0.77,0 -1.085,0.082 -0.7,0.183 m 6,0.8 c 0.385,0.1 1.015,0.1 1.4,0 0.385,-0.101 0.07,-0.183 -0.7,-0.183 -0.77,0 -1.085,0.082 -0.7,0.183 m 7.005,0.807 c 0.497,0.096 1.217,0.092 1.6,-0.008 0.382,-0.1 -0.025,-0.179 -0.905,-0.174 -0.88,0.004 -1.193,0.086 -0.695,0.182 m 3.895,0.521 c 0.767,0.326 4.111,0.549 3.767,0.252 -0.092,-0.079 -1.157,-0.245 -2.367,-0.368 -1.369,-0.139 -1.898,-0.096 -1.4,0.116 m 6,0.777 c 0.768,0.348 2.91,0.575 2.567,0.272 -0.092,-0.081 -0.887,-0.257 -1.767,-0.391 -1.115,-0.169 -1.358,-0.133 -0.8,0.119 m 5.171,1.622 c 1.303,0.648 2.554,1.362 2.78,1.588 0.225,0.225 0.598,0.408 0.829,0.406 0.585,-0.003 -1.639,-1.47 -3.658,-2.413 -2.63,-1.229 -2.591,-0.893 0.049,0.419 m 5.063,3.444 c 0.531,0.686 1.046,1.176 1.145,1.088 0.098,-0.088 -0.336,-0.649 -0.966,-1.247 l -1.144,-1.088 0.965,1.247 m 4.812,9.353 c -0.019,0.55 0.141,1.27 0.354,1.6 0.494,0.764 0.494,-0.058 0,-1.6 l -0.32,-1 -0.034,1 m 0.21,5.284 c -0.135,0.504 -0.226,1.456 -0.203,2.116 0.028,0.828 0.144,0.584 0.373,-0.787 0.35,-2.09 0.248,-2.887 -0.17,-1.329 m -0.807,6.131 c -0.137,0.358 -0.229,1.221 -0.205,1.918 0.038,1.104 0.089,1.038 0.392,-0.508 0.357,-1.82 0.258,-2.568 -0.187,-1.41 M 61.773,99.157 c 0.228,0.368 -1.288,0.452 -6.5,0.362 -3.739,-0.066 -6.714,0.016 -6.612,0.181 0.102,0.165 3.135,0.3 6.739,0.3 6.025,0 7.772,-0.276 6.545,-1.034 -0.299,-0.185 -0.361,-0.116 -0.172,0.191 m 324.076,1.858 c -0.137,0.358 -0.226,1.221 -0.199,1.918 0.042,1.054 0.1,0.965 0.349,-0.533 0.318,-1.914 0.26,-2.452 -0.15,-1.385 m -0.793,6.269 c -0.135,0.504 -0.225,1.546 -0.201,2.316 0.034,1.069 0.12,0.88 0.363,-0.798 0.335,-2.31 0.254,-3.069 -0.162,-1.518 m -0.8,6 c -0.135,0.504 -0.225,1.546 -0.201,2.316 0.034,1.069 0.12,0.88 0.363,-0.798 0.335,-2.31 0.254,-3.069 -0.162,-1.518 m -0.807,6.131 c -0.137,0.358 -0.224,1.401 -0.193,2.318 0.053,1.568 0.073,1.537 0.336,-0.533 0.298,-2.345 0.259,-2.832 -0.143,-1.785 m -0.929,8.985 c 0,1.21 0.075,1.705 0.167,1.1 0.091,-0.605 0.091,-1.595 0,-2.2 -0.092,-0.605 -0.167,-0.11 -0.167,1.1 m -275.939,0.5 -1.581,1.7 1.7,-1.581 c 1.581,-1.471 1.884,-1.819 1.581,-1.819 -0.065,0 -0.83,0.765 -1.7,1.7 M 126.2,130 c 1.528,1.54 2.869,2.8 2.979,2.8 0.11,0 -1.051,-1.26 -2.579,-2.8 -1.528,-1.54 -2.869,-2.8 -2.979,-2.8 -0.11,0 1.051,1.26 2.579,2.8 m 255.52,4.4 c 0,1.21 0.075,1.705 0.167,1.1 0.091,-0.605 0.091,-1.595 0,-2.2 -0.092,-0.605 -0.167,-0.11 -0.167,1.1 m -283.145,2.9 -1.175,1.3 1.3,-1.175 c 0.715,-0.646 1.3,-1.231 1.3,-1.3 0,-0.309 -0.33,-0.037 -1.425,1.175 m 282.289,3.7 c -0.041,0.88 -0.168,2.05 -0.281,2.6 l -0.206,1 0.431,-0.986 c 0.236,-0.542 0.363,-1.712 0.281,-2.6 l -0.149,-1.614 -0.076,1.6 m -143.412,-0.284 c -0.108,0.174 0.421,0.245 1.176,0.157 0.755,-0.088 1.372,-0.231 1.372,-0.317 0,-0.301 -2.355,-0.153 -2.548,0.16 m 6.981,-0.173 c 0.092,0.079 0.887,0.254 1.767,0.389 1.09,0.167 1.409,0.123 1,-0.137 -0.547,-0.349 -3.155,-0.586 -2.767,-0.252 M 87.6,148.6 c -1.639,1.65 -2.89,3 -2.78,3 0.11,0 1.541,-1.35 3.18,-3 1.639,-1.65 2.89,-3 2.78,-3 -0.11,0 -1.541,1.35 -3.18,3 M 380.064,147 c -0.041,0.88 -0.168,2.05 -0.281,2.6 l -0.206,1 0.431,-0.986 c 0.236,-0.542 0.363,-1.712 0.281,-2.6 l -0.149,-1.614 -0.076,1.6 m -84.564,1.282 c 0.495,0.096 1.305,0.096 1.8,0 0.495,-0.095 0.09,-0.173 -0.9,-0.173 -0.99,0 -1.395,0.078 -0.9,0.173 m 7.6,0 c 0.495,0.096 1.305,0.096 1.8,0 0.495,-0.095 0.09,-0.173 -0.9,-0.173 -0.99,0 -1.395,0.078 -0.9,0.173 M 147.4,152 c 1.528,1.54 2.869,2.8 2.979,2.8 0.11,0 -1.051,-1.26 -2.579,-2.8 -1.528,-1.54 -2.869,-2.8 -2.979,-2.8 -0.11,0 1.051,1.26 2.579,2.8 m 231.909,1.6 c 0,0.99 0.078,1.395 0.173,0.9 0.096,-0.495 0.096,-1.305 0,-1.8 -0.095,-0.495 -0.173,-0.09 -0.173,0.9 M 328.4,161 c 0.746,0.77 1.447,1.4 1.557,1.4 0.11,0 -0.411,-0.63 -1.157,-1.4 -0.746,-0.77 -1.447,-1.4 -1.557,-1.4 -0.11,0 0.411,0.63 1.157,1.4 m 49.849,0.415 c -0.137,0.358 -0.234,0.951 -0.215,1.318 0.019,0.367 0.193,0.136 0.387,-0.513 0.377,-1.262 0.244,-1.887 -0.172,-0.805 M 377.4,167.6 c -0.152,0.691 -0.186,1.347 -0.076,1.457 0.11,0.11 0.324,-0.366 0.476,-1.057 0.152,-0.691 0.186,-1.347 0.076,-1.457 -0.11,-0.11 -0.324,0.366 -0.476,1.057 m -311.211,3.3 -2.789,2.9 2.9,-2.789 C 68.994,168.42 69.383,168 69.089,168 c -0.061,0 -1.366,1.305 -2.9,2.9 M 168.6,174 c 1.083,1.1 2.06,2 2.17,2 0.11,0 -0.687,-0.9 -1.77,-2 -1.083,-1.1 -2.06,-2 -2.17,-2 -0.11,0 0.687,0.9 1.77,2 m 208.073,-0.247 c -0.15,0.392 -0.262,1.013 -0.248,1.38 0.017,0.442 0.156,0.341 0.412,-0.299 0.212,-0.531 0.324,-1.152 0.248,-1.38 -0.076,-0.227 -0.261,-0.093 -0.412,0.299 m -0.806,6.114 c -0.147,0.146 -0.256,0.641 -0.242,1.1 0.024,0.766 0.057,0.756 0.409,-0.125 0.392,-0.979 0.31,-1.453 -0.167,-0.975 m -0.8,6 c -0.147,0.146 -0.256,0.641 -0.242,1.1 0.024,0.766 0.057,0.756 0.409,-0.125 0.392,-0.979 0.31,-1.453 -0.167,-0.975 m -34.779,3.533 c 0.226,4.158 0.448,4.746 0.452,1.2 0.002,-1.54 -0.138,-3.16 -0.312,-3.6 -0.174,-0.443 -0.237,0.627 -0.14,2.4 m 33.985,2.753 c -0.15,0.392 -0.262,1.013 -0.248,1.38 0.017,0.442 0.156,0.341 0.412,-0.299 0.212,-0.531 0.324,-1.152 0.248,-1.38 -0.076,-0.227 -0.261,-0.093 -0.412,0.299 m -0.824,6.062 c -0.137,0.358 -0.233,1.041 -0.213,1.518 0.026,0.614 0.149,0.475 0.423,-0.477 0.398,-1.384 0.235,-2.198 -0.21,-1.041 M 49.709,199.6 c 0,0.99 0.078,1.395 0.173,0.9 0.096,-0.495 0.096,-1.305 0,-1.8 -0.095,-0.495 -0.173,-0.09 -0.173,0.9 m 322.958,4.667 c -0.147,0.146 -0.249,0.821 -0.226,1.5 l 0.041,1.233 0.328,-1.397 c 0.343,-1.456 0.307,-1.787 -0.143,-1.336 M 49.701,207.8 c 0.004,0.88 0.086,1.193 0.182,0.695 0.096,-0.497 0.092,-1.217 -0.008,-1.6 -0.1,-0.382 -0.179,0.025 -0.174,0.905 m 132.353,1.267 c -0.029,0.477 -0.158,1.197 -0.284,1.6 -0.218,0.694 -0.206,0.695 0.226,0.021 0.251,-0.391 0.379,-1.111 0.285,-1.6 -0.172,-0.887 -0.172,-0.887 -0.227,-0.021 m 189.795,1.548 c -0.137,0.358 -0.233,1.041 -0.213,1.518 0.026,0.614 0.149,0.475 0.423,-0.477 0.398,-1.384 0.235,-2.198 -0.21,-1.041 m -0.782,6.052 c -0.147,0.146 -0.249,0.821 -0.226,1.5 l 0.041,1.233 0.328,-1.397 c 0.343,-1.456 0.307,-1.787 -0.143,-1.336 m -0.818,6.348 c -0.137,0.358 -0.226,1.221 -0.199,1.918 0.042,1.054 0.1,0.965 0.349,-0.533 0.318,-1.914 0.26,-2.452 -0.15,-1.385 m -0.8,6 c -0.137,0.358 -0.229,1.221 -0.205,1.918 0.038,1.104 0.089,1.038 0.392,-0.508 0.357,-1.82 0.258,-2.568 -0.187,-1.41 m -0.793,6.269 c -0.135,0.504 -0.224,1.636 -0.198,2.516 0.039,1.32 0.101,1.18 0.355,-0.8 0.324,-2.522 0.257,-3.259 -0.157,-1.716 m -0.807,6.131 c -0.137,0.358 -0.224,1.401 -0.193,2.318 0.053,1.568 0.073,1.537 0.336,-0.533 0.298,-2.345 0.259,-2.832 -0.143,-1.785 M 82.8,243.582 c 0.33,0.223 0.945,0.409 1.367,0.412 1.023,0.008 0.704,-0.221 -0.767,-0.55 -0.876,-0.196 -1.038,-0.159 -0.6,0.138 m 65,0.018 c -1.107,0.282 -1.123,0.309 -0.2,0.347 0.55,0.022 1.27,-0.134 1.6,-0.347 0.681,-0.44 0.329,-0.44 -1.4,0 m 219.256,4.084 c -0.135,0.504 -0.225,1.546 -0.201,2.316 0.034,1.069 0.12,0.88 0.363,-0.798 0.335,-2.31 0.254,-3.069 -0.162,-1.518 m -0.936,8.716 c 0,1.21 0.075,1.705 0.167,1.1 0.091,-0.605 0.091,-1.595 0,-2.2 -0.092,-0.605 -0.167,-0.11 -0.167,1.1 m -0.664,3.684 c -0.135,0.504 -0.223,1.726 -0.196,2.716 0.043,1.574 0.087,1.473 0.349,-0.8 0.315,-2.734 0.258,-3.45 -0.153,-1.916 M 252.2,265.6 c 0.859,0.88 1.652,1.6 1.762,1.6 0.11,0 -0.503,-0.72 -1.362,-1.6 -0.859,-0.88 -1.652,-1.6 -1.762,-1.6 -0.11,0 0.503,0.72 1.362,1.6 m 112.32,3.2 c 0,1.21 0.075,1.705 0.167,1.1 0.091,-0.605 0.091,-1.595 0,-2.2 -0.092,-0.605 -0.167,-0.11 -0.167,1.1 m -260.591,1.5 c 6.891,0.061 18.051,0.061 24.8,0 6.749,-0.062 1.111,-0.112 -12.529,-0.112 -13.64,0 -19.162,0.05 -12.271,0.112 m 259.735,4.75 c -0.035,0.688 -0.153,1.857 -0.263,2.6 l -0.198,1.35 0.421,-1.342 c 0.231,-0.738 0.349,-1.908 0.262,-2.6 l -0.158,-1.258 -0.064,1.25 m -0.755,6.55 c 0,0.99 0.078,1.395 0.173,0.9 0.096,-0.495 0.096,-1.305 0,-1.8 -0.095,-0.495 -0.173,-0.09 -0.173,0.9 m -1.036,7.753 c -0.15,0.392 -0.262,1.013 -0.248,1.38 0.017,0.442 0.156,0.341 0.412,-0.299 0.212,-0.531 0.324,-1.152 0.248,-1.38 -0.076,-0.227 -0.261,-0.093 -0.412,0.299 m -0.8,6 c -0.15,0.392 -0.262,1.013 -0.248,1.38 0.017,0.442 0.156,0.341 0.412,-0.299 0.212,-0.531 0.324,-1.152 0.248,-1.38 -0.076,-0.227 -0.261,-0.093 -0.412,0.299 M 360.2,302 c -0.152,0.691 -0.193,1.341 -0.091,1.442 0.102,0.102 0.3,-0.389 0.441,-1.092 0.141,-0.703 0.181,-1.352 0.091,-1.442 -0.091,-0.091 -0.289,0.401 -0.441,1.092 m -0.733,5.867 c -0.147,0.146 -0.256,0.641 -0.242,1.1 0.024,0.766 0.057,0.756 0.409,-0.125 0.392,-0.979 0.31,-1.453 -0.167,-0.975 m -0.8,6 c -0.147,0.146 -0.252,0.731 -0.233,1.3 0.034,1.014 0.041,1.012 0.387,-0.147 0.364,-1.217 0.31,-1.618 -0.154,-1.153 M 219.4,318 c -0.152,0.691 -0.193,1.341 -0.091,1.442 0.102,0.102 0.3,-0.389 0.441,-1.092 0.141,-0.703 0.181,-1.352 0.091,-1.442 -0.091,-0.091 -0.289,0.401 -0.441,1.092 m 138.467,2.267 c -0.147,0.146 -0.252,0.731 -0.233,1.3 0.034,1.014 0.041,1.012 0.387,-0.147 0.364,-1.217 0.31,-1.618 -0.154,-1.153 m -0.8,6 c -0.147,0.146 -0.252,0.731 -0.233,1.3 0.034,1.014 0.041,1.012 0.387,-0.147 0.364,-1.217 0.31,-1.618 -0.154,-1.153 m -144.741,3.672 c -0.811,0.614 -2.161,1.398 -3,1.743 -3.51,1.443 -3.661,1.525 -2.326,1.25 1.574,-0.323 4.494,-1.83 6,-3.095 1.615,-1.357 1.162,-1.289 -0.674,0.102 m 143.923,2.676 c -0.137,0.358 -0.231,1.131 -0.209,1.718 0.033,0.858 0.112,0.762 0.406,-0.493 0.376,-1.601 0.249,-2.387 -0.197,-1.225 m -328.744,0.868 c 0.497,0.096 1.217,0.092 1.6,-0.008 0.382,-0.1 -0.025,-0.179 -0.905,-0.174 -0.88,0.004 -1.193,0.086 -0.695,0.182 m 161.395,0.016 c 3.025,0.068 7.975,0.068 11,0 3.025,-0.068 0.55,-0.124 -5.5,-0.124 -6.05,0 -8.525,0.056 -5.5,0.124 m 32.292,5.511 c -0.59,0.711 -0.527,0.801 0.808,1.157 l 1,0.266 -0.904,-0.532 c -0.707,-0.417 -0.798,-0.639 -0.42,-1.017 0.266,-0.266 0.38,-0.484 0.253,-0.484 -0.127,0 -0.459,0.274 -0.737,0.61 m 134.275,-0.343 c -0.147,0.146 -0.256,0.641 -0.242,1.1 0.024,0.766 0.057,0.756 0.409,-0.125 0.392,-0.979 0.31,-1.453 -0.167,-0.975 m -129.034,1.877 c 0.092,0.079 0.707,0.264 1.367,0.412 0.876,0.196 1.038,0.159 0.6,-0.138 -0.54,-0.365 -2.368,-0.62 -1.967,-0.274 M 245.8,343.2 c 1.101,0.473 1.492,0.473 1.2,0 -0.136,-0.22 -0.642,-0.387 -1.124,-0.372 -0.845,0.027 -0.847,0.041 -0.076,0.372 m 105.434,4.953 -0.965,1.247 1.144,-1.088 c 0.63,-0.598 1.064,-1.159 0.966,-1.247 -0.099,-0.088 -0.614,0.402 -1.145,1.088 m -66.129,0.13 c 0.497,0.096 1.217,0.092 1.6,-0.008 0.382,-0.1 -0.025,-0.179 -0.905,-0.174 -0.88,0.004 -1.193,0.086 -0.695,0.182 m 6.4,0.8 c 0.497,0.096 1.217,0.092 1.6,-0.008 0.382,-0.1 -0.025,-0.179 -0.905,-0.174 -0.88,0.004 -1.193,0.086 -0.695,0.182 m 6,0.8 c 0.497,0.096 1.217,0.092 1.6,-0.008 0.382,-0.1 -0.025,-0.179 -0.905,-0.174 -0.88,0.004 -1.193,0.086 -0.695,0.182 m 6.8,0.8 c 0.497,0.096 1.217,0.092 1.6,-0.008 0.382,-0.1 -0.025,-0.179 -0.905,-0.174 -0.88,0.004 -1.193,0.086 -0.695,0.182 m 5.995,0.799 c 0.495,0.096 1.305,0.096 1.8,0 0.495,-0.095 0.09,-0.173 -0.9,-0.173 -0.99,0 -1.395,0.078 -0.9,0.173 m 12.933,1.462 c 0.092,0.079 1.067,0.247 2.167,0.374 1.287,0.149 1.715,0.108 1.2,-0.115 -0.764,-0.331 -3.714,-0.558 -3.367,-0.259 m 6.8,0.8 c 0.092,0.08 0.977,0.252 1.967,0.383 1.202,0.159 1.534,0.12 1,-0.117 -0.764,-0.338 -3.314,-0.567 -2.967,-0.266"
       stroke="none"
       fill="#acc5ce"
       fill-rule="evenodd" />
    <path
       id="path7"
       d="m 232.192,102 c 0,22.11 0.049,31.155 0.108,20.1 0.059,-11.055 0.059,-29.145 0,-40.2 -0.059,-11.055 -0.108,-2.01 -0.108,20.1 M 140,144.525 c 0,0.069 0.585,0.654 1.3,1.3 l 1.3,1.175 -1.175,-1.3 C 140.33,144.488 140,144.216 140,144.525 m 159.505,3.758 c 0.497,0.096 1.217,0.092 1.6,-0.008 0.382,-0.1 -0.025,-0.179 -0.905,-0.174 -0.88,0.004 -1.193,0.086 -0.695,0.182 M 150,154.925 c 0,0.069 0.585,0.654 1.3,1.3 l 1.3,1.175 -1.175,-1.3 C 150.33,154.888 150,154.616 150,154.925 m -78.022,10.175 -1.378,1.5 1.5,-1.378 c 1.396,-1.284 1.684,-1.622 1.378,-1.622 -0.066,0 -0.741,0.675 -1.5,1.5 m -22.269,38.5 c 0,0.99 0.078,1.395 0.173,0.9 0.096,-0.495 0.096,-1.305 0,-1.8 -0.095,-0.495 -0.173,-0.09 -0.173,0.9 m 182.483,75.2 c 0,21.67 0.049,30.535 0.108,19.7 0.059,-10.835 0.059,-28.565 0,-39.4 -0.059,-10.835 -0.108,-1.97 -0.108,19.7 M 142.1,243.891 c 0.825,0.087 2.175,0.087 3,0 0.825,-0.086 0.15,-0.157 -1.5,-0.157 -1.65,0 -2.325,0.071 -1.5,0.157 m -74,90.009 c 21.285,0.057 56.115,0.057 77.4,0 21.285,-0.057 3.87,-0.104 -38.7,-0.104 -42.57,0 -59.985,0.047 -38.7,0.104"
       stroke="none"
       fill="#a4b4b4"
       fill-rule="evenodd" />
    <path
       id="path8"
       d="m 47.7,45.5 c 10.285,0.059 27.115,0.059 37.4,0 10.285,-0.06 1.87,-0.108 -18.7,-0.108 -20.57,0 -28.985,0.048 -18.7,0.108 m 101,0 c 9.955,0.059 26.245,0.059 36.2,0 9.955,-0.06 1.81,-0.108 -18.1,-0.108 -19.91,0 -28.055,0.048 -18.1,0.108 m 92.407,95.19 c 0.719,0.089 1.799,0.087 2.4,-0.004 0.601,-0.091 0.013,-0.164 -1.307,-0.162 -1.32,0.002 -1.812,0.077 -1.093,0.166 M 336.5,354.687 c 0.605,0.091 1.595,0.091 2.2,0 0.605,-0.092 0.11,-0.167 -1.1,-0.167 -1.21,0 -1.705,0.075 -1.1,0.167"
       stroke="none"
       fill="#a4b4bc"
       fill-rule="evenodd" />
  </g>
</svg>
