<?xml version="1.0" encoding="UTF-8" standalone="no"?>
<!-- Created with Inkscape (http://www.inkscape.org/) -->

<svg
   width="100"
   height="100"
   viewBox="0 0 100 100"
   version="1.1"
   id="svg1"
   xml:space="preserve"
   xmlns="http://www.w3.org/2000/svg"
   xmlns:svg="http://www.w3.org/2000/svg"><defs
     id="defs1" /><g
     id="layer1"><g
       id="g1"
       transform="scale(0.1953125)"><path
         d="M 0,0 H 512 V 512 H 0 Z"
         id="path1" /><path
         fill="#ffffff"
         d="M 256,25 C 128.3,25 25,128.3 25,256 25,383.7 128.3,487 256,487 383.7,487 487,383.7 487,256 487,128.3 383.7,25 256,25 m 0,30 c 110.9,0 201,90.1 201,201 0,110.9 -90.1,201 -201,201 C 145.1,457 55,366.9 55,256 55,145.1 145.1,55 256,55 M 80.52,203.9 c -4.71,19.2 -7.52,37 -7.52,54 144.7,30.3 121.5,62.4 148,177.8 11.4,2.1 23,3.3 35,3.3 12,0 23.6,-1.2 35,-3.3 26.5,-115.4 3.3,-147.5 148,-177.8 -0.6,-18.9 -3,-38.4 -7.5,-54 C 346.7,182.7 301.1,172 256,172 210.9,172 165.3,182.7 80.52,203.9 M 256,183 c 40.2,0 73,32.8 73,73 0,40.2 -32.8,73 -73,73 -40.2,0 -73,-32.8 -73,-73 0,-40.2 32.8,-73 73,-73 m 0,18 c -30.5,0 -55,24.5 -55,55 0,30.5 24.5,55 55,55 30.5,0 55,-24.5 55,-55 0,-30.5 -24.5,-55 -55,-55"
         id="path2" /></g></g></svg>
