<?xml version="1.0" encoding="UTF-8" standalone="no"?>
<svg
   id="svg"
   version="1.1"
   width="99.902138"
   height="100"
   viewBox="0 0 99.902138 100"
   xmlns="http://www.w3.org/2000/svg"
   xmlns:svg="http://www.w3.org/2000/svg">
  <defs
     id="defs1" />
  <g
     id="svgg"
     transform="matrix(0.24977636,0,0,0.24977636,-0.00425471,0.02834393)">
    <path
       id="path0"
       d="M 37.447,37.447 C 25.651,49.244 16,59.096 16,59.341 16,59.587 29.118,72.93 45.151,88.994 l 29.151,29.206 0.246,2.2 c 0.135,1.21 0.247,9.221 0.249,17.801 l 0.003,15.601 26.1,26.058 c 28.195,28.148 27.418,27.476 30.656,26.506 4.378,-1.312 5.496,-5.821 2.495,-10.059 -3.026,-4.271 -1.502,-9.455 3.146,-10.706 2.75,-0.741 4.426,0.009 8.36,3.737 4.012,3.802 5.691,4.564 8.176,3.709 4.457,-1.532 5.384,-5.569 2.345,-10.209 -2.941,-4.49 -1.567,-9.142 3.08,-10.433 3.045,-0.846 4.48,-0.218 8.599,3.765 4.521,4.37 7.744,5.047 10.473,2.198 3.083,-3.217 2.566,-5.81 -2.128,-10.675 -3.91,-4.052 -4.539,-5.504 -3.697,-8.535 1.291,-4.647 5.943,-6.021 10.433,-3.08 4.636,3.036 8.873,2.035 10.352,-2.447 1.012,-3.067 1.057,-3.012 -19.829,-24.031 -10.603,-10.67 -19.567,-19.976 -19.919,-20.68 -2.151,-4.291 0.993,-8.92 6.057,-8.92 h 2.544 l 4.062,3.9 c 2.234,2.145 6,5.85 8.368,8.233 l 4.306,4.334 1.276,-2.734 c 1.125,-2.408 1.275,-3.137 1.267,-6.133 -0.015,-5.283 0.164,-5.039 -14.423,-19.674 L 153.868,74.852 136.402,74.726 118.937,74.6 117.468,73.479 c -2.898,-2.211 -3.534,-5.731 -1.624,-8.991 l 1.044,-1.781 -1.012,-1.012 -1.012,-1.012 -2.024,1.058 C 107.88,64.334 108.722,64.972 82.601,38.823 70.062,26.271 59.598,16 59.349,16 59.099,16 49.244,25.651 37.447,37.447 m 208.367,169.645 c -4.921,1.249 -4.85,6.675 0.154,11.818 l 3.432,3.527 2,-0.961 c 1.1,-0.528 3.53,-1.639 5.4,-2.468 1.87,-0.829 3.538,-1.632 3.707,-1.784 0.168,-0.153 -1.902,-2.44 -4.6,-5.083 -5.418,-5.306 -6.65,-5.923 -10.093,-5.049 M 290,218.66 c -0.55,0.103 -1.54,0.427 -2.2,0.721 -0.66,0.294 -2.1,0.931 -3.2,1.415 -1.1,0.484 -2.9,1.291 -4,1.793 -3.604,1.646 -6.565,2.995 -8.7,3.965 -1.155,0.525 -3.27,1.493 -4.7,2.151 -11.255,5.184 -10.473,4.624 -9.415,6.744 2.266,4.542 3.492,4.58 19.44,0.595 13.145,-3.285 15.933,-3.703 17.895,-2.682 2.928,1.524 4.002,4.221 3.252,8.166 -1.693,8.892 -0.293,20.154 2.996,24.097 2.335,2.801 2.192,6.591 -0.339,8.97 -7.52,7.066 -16.629,-5.638 -16.629,-23.192 0,-3.888 0.261,-3.716 -3.973,-2.619 -15.53,4.023 -17.736,4.298 -22.555,2.809 -5.681,-1.755 -9.084,-5.049 -12.741,-12.333 -2.412,-4.805 -2.762,-5.276 -7.431,-9.983 -2.695,-2.717 -4.9,-5.08 -4.9,-5.251 0,-0.171 -1.035,-1.095 -2.3,-2.054 -5.481,-4.153 -11.472,-0.962 -10.266,5.468 0.418,2.228 27.813,29.669 30.49,30.542 2.035,0.663 3.763,0.208 6.076,-1.6 6.058,-4.736 13.691,1.615 9.84,8.187 -1.719,2.932 -8.385,6.631 -11.95,6.631 -0.908,0 -1.087,0.207 -1.293,1.5 -1.216,7.617 -8.481,15.7 -14.111,15.7 -2.255,0 -3.15,0.761 -3.669,3.118 -1.071,4.867 -5.077,10.668 -8.373,12.127 -1.844,0.816 -2.038,0.568 9.059,11.658 l 10.303,10.297 h 17.123 c 11.721,0 17.399,0.14 17.997,0.443 0.481,0.243 13.953,13.499 29.939,29.458 l 29.065,29.016 10.79,-10.758 c 5.934,-5.918 15.784,-15.771 21.889,-21.897 l 11.099,-11.138 -23.196,-23.262 c -14.755,-14.798 -23.381,-23.738 -23.705,-24.57 -0.688,-1.764 -0.302,-4.207 0.969,-6.128 l 1.045,-1.579 -0.988,-0.988 c -1.066,-1.066 -1.636,-1.019 -3.527,0.291 -2.443,1.693 -6.508,0.767 -8.585,-1.956 L 325.4,281.063 325.281,263.632 325.162,246.2 312.481,233.472 C 297.726,218.662 296.019,217.538 290,218.66 m -79.148,23.612 c -3.069,0.636 -5.056,4.853 -3.672,7.796 1.482,3.152 24.202,25.393 26.162,25.61 4.331,0.48 7.058,-1.741 7.058,-5.75 v -2.471 l -11.7,-11.76 c -14.152,-14.225 -14.117,-14.198 -17.848,-13.425 m -15.288,23.297 c -1.837,1.514 -2.604,3.864 -1.945,5.955 0.519,1.647 18.806,20.412 20.942,21.49 4.357,2.198 9.008,-1.788 8.05,-6.898 -0.274,-1.461 -17.071,-18.98 -20.135,-21.001 -1.811,-1.195 -5.181,-0.973 -6.912,0.454"
       stroke="none"
       fill="#f1a47c"
       fill-rule="evenodd" />
    <path
       id="path1"
       d="m 139.18,261.711 c -1.662,1.589 -4.974,4.689 -7.362,6.889 -5.558,5.123 -5.522,5.089 -9.042,8.401 -3.198,3.01 -12.25,11.408 -16.166,14.999 -1.32,1.21 -2.675,2.47 -3.011,2.8 -0.337,0.33 -1.782,1.68 -3.211,3 -8.964,8.279 -12.788,11.976 -12.784,12.361 0.002,0.241 4.946,2.404 10.986,4.806 11.811,4.696 12.83,5.314 13.805,8.369 0.603,1.887 0.296,3.585 -1.004,5.549 -0.545,0.824 -0.991,1.682 -0.991,1.906 0,0.225 -0.18,0.409 -0.4,0.409 -0.22,0 -0.4,0.186 -0.4,0.413 0,0.228 -1.26,2.292 -2.8,4.587 -1.54,2.295 -2.8,4.252 -2.8,4.348 0,0.177 -6.225,9.983 -10.279,16.193 -2.848,4.363 -3.864,6.192 -3.231,5.814 0.62,-0.369 3.293,-2.433 4.691,-3.621 0.56,-0.477 4.169,-3.414 8.019,-6.527 3.85,-3.113 7.72,-6.255 8.6,-6.982 0.88,-0.727 4.75,-3.875 8.6,-6.997 3.85,-3.121 7.793,-6.34 8.763,-7.152 0.969,-0.812 2.139,-1.736 2.6,-2.053 0.46,-0.317 0.927,-0.684 1.037,-0.814 0.11,-0.131 1.64,-1.397 3.4,-2.815 1.76,-1.417 4.37,-3.547 5.8,-4.733 3.317,-2.752 3.836,-3.173 5.927,-4.815 2.171,-1.704 2.709,-1.33 -8.127,-5.651 -5.06,-2.018 -9.92,-3.997 -10.8,-4.398 -3.58,-1.63 -5.184,-5.438 -3.638,-8.636 0.309,-0.638 0.957,-2.061 1.441,-3.161 0.484,-1.1 1.383,-3.08 1.997,-4.4 0.614,-1.32 1.515,-3.3 2.001,-4.4 0.487,-1.1 1.426,-3.17 2.089,-4.6 1.235,-2.668 5.644,-12.412 7.872,-17.4 0.688,-1.54 1.428,-3.113 1.644,-3.495 1.108,-1.953 0.136,-1.409 -3.226,1.806"
       stroke="none"
       fill="#2362c1"
       fill-rule="evenodd" />
    <path
       id="path2"
       d="M 55.485,0.279 C 55.092,0.381 42.498,12.735 27.498,27.732 L 0.225,55 0.069,58.828 c -0.128,3.13 -0.039,3.945 0.487,4.471 0.354,0.354 0.644,0.728 0.644,0.831 0,0.102 13.5,13.701 30,30.219 l 30,30.034 v 17.608 c 0,10.625 0.148,17.609 0.373,17.609 0.205,0 0.497,0.39 0.648,0.867 0.152,0.478 3.449,3.983 7.327,7.791 3.879,3.807 7.183,7.062 7.343,7.232 0.243,0.258 15.028,15.056 16.455,16.468 0.25,0.248 5.737,5.759 12.193,12.246 6.456,6.488 11.952,11.796 12.212,11.796 0.26,0 0.732,0.36 1.049,0.8 0.317,0.44 0.897,0.8 1.288,0.8 0.392,0 0.712,0.18 0.712,0.4 0,0.22 0.36,0.4 0.8,0.4 0.44,0 0.8,0.18 0.8,0.4 0,0.22 0.54,0.4 1.2,0.4 0.66,0 1.2,0.18 1.2,0.4 0,0.537 10.268,0.537 10.6,0 0.136,-0.22 0.676,-0.4 1.2,-0.4 0.524,0 1.064,-0.18 1.2,-0.4 0.136,-0.22 0.597,-0.4 1.024,-0.4 0.427,0 0.776,-0.18 0.776,-0.4 0,-0.22 0.198,-0.4 0.44,-0.4 0.241,0 0.943,-0.54 1.56,-1.2 0.617,-0.66 1.298,-1.2 1.514,-1.2 0.217,0 0.712,-0.486 1.101,-1.079 0.389,-0.594 1.121,-1.494 1.627,-1.999 0.506,-0.506 1.213,-1.595 1.572,-2.421 0.359,-0.825 0.792,-1.771 0.962,-2.101 0.238,-0.463 1.259,-0.626 4.462,-0.715 2.283,-0.063 4.325,-0.288 4.537,-0.5 0.212,-0.212 0.799,-0.385 1.305,-0.385 0.506,0 0.92,-0.18 0.92,-0.4 0,-0.22 0.36,-0.4 0.8,-0.4 0.44,0 0.8,-0.18 0.8,-0.4 0,-0.22 0.36,-0.4 0.8,-0.4 0.44,0 0.8,-0.141 0.8,-0.314 0,-0.172 0.559,-0.644 1.242,-1.047 1.488,-0.879 3.558,-2.979 3.558,-3.61 0,-0.249 0.36,-0.712 0.8,-1.029 0.44,-0.317 0.8,-0.897 0.8,-1.288 0,-0.392 0.18,-0.712 0.4,-0.712 0.22,0 0.4,-0.36 0.4,-0.8 0,-0.44 0.18,-0.8 0.4,-0.8 0.22,0 0.4,-0.36 0.4,-0.8 0,-0.751 0.267,-0.8 4.376,-0.8 2.487,0 4.484,-0.173 4.624,-0.4 0.136,-0.22 0.676,-0.4 1.2,-0.4 0.524,0 1.064,-0.18 1.2,-0.4 0.136,-0.22 0.584,-0.4 0.995,-0.4 0.411,0 1.018,-0.27 1.348,-0.6 0.33,-0.33 0.781,-0.6 1.002,-0.6 0.525,0 4.855,-4.33 4.855,-4.855 0,-0.221 0.27,-0.672 0.6,-1.002 0.33,-0.33 0.6,-0.947 0.6,-1.372 0,-0.424 0.18,-0.771 0.4,-0.771 0.22,0 0.4,-0.54 0.4,-1.2 0,-0.66 0.18,-1.2 0.4,-1.2 0.243,0 0.4,-1.8 0.4,-4.6 0,-4.333 0.046,-4.6 0.8,-4.6 0.44,0 0.8,-0.18 0.8,-0.4 0,-0.22 0.36,-0.4 0.8,-0.4 0.44,0 0.8,-0.18 0.8,-0.4 0,-0.22 0.36,-0.4 0.8,-0.4 0.44,0 0.8,-0.141 0.8,-0.314 0,-0.172 0.55,-0.639 1.223,-1.036 1.63,-0.963 3.848,-3.212 4.171,-4.23 0.143,-0.451 0.428,-0.82 0.633,-0.82 0.205,0 0.373,-0.36 0.373,-0.8 0,-0.44 0.18,-0.8 0.4,-0.8 0.22,0 0.4,-0.36 0.4,-0.8 0,-0.44 0.18,-0.8 0.4,-0.8 0.22,0 0.4,-0.439 0.4,-0.976 0,-0.537 0.18,-1.088 0.4,-1.224 0.559,-0.346 0.506,-9.216 -0.065,-10.972 -0.814,-2.501 -1.322,-3.628 -1.633,-3.628 -0.166,0 -0.302,-0.231 -0.302,-0.514 0,-0.786 -2.04,-3.083 -8.7,-9.795 -3.355,-3.381 -6.1,-6.284 -6.1,-6.451 0,-0.168 0.449,-1.19 0.998,-2.272 0.549,-1.082 0.999,-2.373 1,-2.868 10e-4,-0.495 0.182,-0.9 0.402,-0.9 0.22,0 0.4,-0.36 0.4,-0.8 0,-0.44 0.18,-0.8 0.4,-0.8 0.22,0 0.4,-0.349 0.4,-0.776 0,-0.427 0.18,-0.888 0.4,-1.024 0.22,-0.136 0.4,-0.867 0.4,-1.624 0,-0.757 0.18,-1.376 0.4,-1.376 0.249,0 0.4,-2.259 0.4,-5.976 0,-3.553 -0.162,-6.077 -0.4,-6.224 -0.22,-0.136 -0.4,-0.777 -0.4,-1.424 0,-0.647 -0.18,-1.176 -0.4,-1.176 -0.22,0 -0.4,-0.325 -0.4,-0.721 0,-0.984 -1.98,-4.928 -2.875,-5.726 -0.399,-0.356 -0.725,-0.852 -0.725,-1.103 0,-0.346 -7.331,-7.802 -14.11,-14.351 -0.17,-0.164 -3.425,-3.472 -7.232,-7.351 -3.808,-3.878 -7.313,-7.175 -7.791,-7.327 -0.477,-0.151 -0.867,-0.443 -0.867,-0.648 0,-0.226 -8.042,-0.373 -20.381,-0.373 -21.685,0 -22.686,0.081 -22.254,1.802 0.117,0.468 -0.013,1.199 -0.289,1.624 -2.185,3.364 -1.24,6.829 2.419,8.874 0.676,0.378 5.067,0.5 18.039,0.5 h 17.145 l 12.76,12.808 c 14.526,14.58 15.369,15.723 15.355,20.82 -0.008,2.978 -2.161,8.954 -3.396,9.428 -0.358,0.138 -3.485,-2.692 -8.559,-7.748 -8.766,-8.734 -9.811,-9.441 -12.589,-8.524 -3.023,0.997 -4.59,3.62 -4.055,6.786 0.236,1.397 2.178,3.473 19.359,20.691 21.334,21.381 20.846,20.826 20.846,23.706 0,5.922 -6.651,9.053 -10.954,5.156 -3.177,-2.877 -7.84,-2.224 -9.622,1.348 -1.42,2.847 -0.41,5.326 3.782,9.281 2.932,2.766 3.591,4.004 3.593,6.748 0,1.265 -0.135,2.3 -0.301,2.3 -0.167,0 -0.527,0.507 -0.801,1.126 -1.816,4.103 -7.733,3.744 -11.948,-0.723 -3.952,-4.189 -6.431,-5.199 -9.278,-3.779 -3.572,1.782 -4.225,6.445 -1.348,9.622 3.921,4.329 0.762,10.954 -5.223,10.954 -2.291,0 -3.398,-0.647 -6.7,-3.919 -3.446,-3.413 -3.887,-3.681 -6.074,-3.681 -5.531,0 -7.593,4.593 -4.278,9.53 3.65,5.435 1.21,11.27 -4.713,11.27 -3.085,0 -1.642,1.297 -30.035,-26.993 L 74,154.202 V 137.113 C 74,121.226 73.948,119.932 73.26,118.706 72.853,117.982 59.519,104.383 43.629,88.487 27.739,72.591 14.798,59.405 14.872,59.184 15.075,58.574 58.93,14.8 59.338,14.8 c 0.195,0 10.579,10.215 23.076,22.7 26.792,26.766 25.497,25.618 27.613,24.485 0.396,-0.212 1.015,-0.385 1.375,-0.385 0.36,0 0.925,-0.27 1.255,-0.6 0.33,-0.33 0.96,-0.6 1.4,-0.6 2.059,0 3.01,-6.654 1.143,-8 -0.44,-0.317 -0.8,-0.731 -0.8,-0.92 C 114.4,51.072 64.632,1.2 64.225,1.2 64.07,1.2 63.673,0.93 63.343,0.6 62.758,0.016 57.349,-0.206 55.485,0.279 M 320.74,0.558 c -0.584,0.304 -2.941,2.418 -5.24,4.698 -2.299,2.279 -4.94,4.757 -5.869,5.505 -0.929,0.749 -3.363,2.999 -5.409,5 -2.046,2.002 -4.444,4.225 -5.329,4.941 -1.416,1.147 -2.646,2.342 -5.961,5.794 -0.478,0.497 -1.631,1.534 -2.564,2.304 -3.733,3.083 -4.685,3.939 -8.224,7.4 -2.025,1.98 -4.693,4.5 -5.928,5.6 -1.236,1.1 -3.656,3.35 -5.378,5 -1.722,1.65 -3.83,3.57 -4.684,4.267 -1.768,1.441 -5.283,4.928 -7.354,7.296 -0.77,0.88 -1.59,1.608 -1.822,1.619 -0.604,0.026 -3.368,2.547 -15.371,14.018 -1.957,1.87 -4.497,4.21 -5.645,5.2 -4.97,4.285 -5.162,4.596 -5.162,8.333 0,3.162 1.209,5.667 2.736,5.667 0.255,0 0.464,0.18 0.464,0.4 0,0.22 0.36,0.4 0.8,0.4 0.44,0 0.8,0.18 0.8,0.4 0,0.22 0.54,0.4 1.2,0.4 0.66,0 1.2,0.18 1.2,0.4 0,0.22 0.36,0.4 0.8,0.4 0.44,0 0.8,0.18 0.8,0.4 0,0.22 0.54,0.4 1.2,0.4 0.66,0 1.2,0.18 1.2,0.4 0,0.22 0.36,0.4 0.8,0.4 0.44,0 0.8,0.18 0.8,0.4 0,0.22 0.45,0.4 1,0.4 0.55,0 1,0.18 1,0.4 0,0.22 0.349,0.4 0.776,0.4 0.427,0 0.888,0.18 1.024,0.4 0.136,0.22 0.687,0.4 1.224,0.4 0.537,0 0.976,0.18 0.976,0.4 0,0.22 0.349,0.4 0.776,0.4 0.427,0 0.888,0.18 1.024,0.4 0.136,0.22 0.687,0.4 1.224,0.4 0.537,0 0.976,0.18 0.976,0.4 0,0.22 0.36,0.4 0.8,0.4 0.44,0 0.8,0.18 0.8,0.4 0,0.22 0.54,0.4 1.2,0.4 1.479,0 1.741,1.833 0.4,2.8 -0.44,0.317 -0.8,0.814 -0.8,1.105 0,0.291 -0.36,0.915 -0.8,1.387 -0.44,0.472 -0.8,1.095 -0.8,1.383 0,0.289 -0.18,0.525 -0.4,0.525 -0.22,0 -0.4,0.27 -0.4,0.6 0,0.33 -0.18,0.6 -0.4,0.6 -0.22,0 -0.4,0.27 -0.4,0.6 0,0.33 -0.18,0.6 -0.4,0.6 -0.22,0 -0.4,0.188 -0.4,0.417 0,0.229 -0.36,0.803 -0.8,1.275 -0.44,0.472 -0.8,1.095 -0.8,1.383 0,0.289 -0.18,0.525 -0.4,0.525 -0.22,0 -0.4,0.236 -0.4,0.525 0,0.288 -0.36,0.911 -0.8,1.383 -0.44,0.472 -0.8,1.054 -0.8,1.292 0,0.238 -0.36,0.82 -0.8,1.292 -0.44,0.472 -0.8,1.095 -0.8,1.383 0,0.289 -0.158,0.525 -0.351,0.525 -0.194,0 -0.576,0.54 -0.849,1.2 -0.273,0.66 -0.641,1.2 -0.817,1.2 -0.176,0 -0.438,0.54 -0.583,1.2 -0.145,0.66 -0.429,1.2 -0.632,1.2 -0.202,0 -0.368,0.23 -0.368,0.512 0,0.281 -0.36,0.771 -0.8,1.088 -0.44,0.317 -0.8,0.814 -0.8,1.105 0,0.291 -0.36,0.915 -0.8,1.387 -0.44,0.472 -0.8,1.095 -0.8,1.383 0,0.289 -0.18,0.525 -0.4,0.525 -0.22,0 -0.4,0.236 -0.4,0.525 0,0.288 -0.36,0.911 -0.8,1.383 -0.44,0.472 -0.8,1.096 -0.8,1.387 0,0.291 -0.36,0.788 -0.8,1.105 -0.44,0.317 -0.8,0.857 -0.8,1.2 0,0.343 -0.36,0.883 -0.8,1.2 -0.44,0.317 -0.8,0.882 -0.8,1.255 0,0.373 -0.135,0.738 -0.3,0.812 -0.423,0.188 -2.1,2.628 -2.1,3.055 0,0.195 -0.36,0.68 -0.8,1.078 -0.44,0.398 -0.8,0.966 -0.8,1.262 0,0.296 -0.135,0.539 -0.3,0.539 -0.165,0.001 -0.84,1.036 -1.5,2.3 -0.66,1.265 -1.335,2.359 -1.5,2.432 -0.165,0.074 -0.3,0.439 -0.3,0.812 0,0.373 -0.36,0.938 -0.8,1.255 -0.44,0.317 -0.8,0.857 -0.8,1.2 0,0.343 -0.36,0.883 -0.8,1.2 -0.44,0.317 -0.8,0.814 -0.8,1.105 0,0.291 -0.331,0.884 -0.736,1.318 -0.405,0.435 -0.99,1.282 -1.3,1.884 -0.31,0.601 -0.879,1.442 -1.264,1.868 -0.385,0.427 -0.7,1.012 -0.7,1.3 0,0.289 -0.18,0.525 -0.4,0.525 -0.237,0 -0.4,1.467 -0.4,3.6 0,2.133 0.163,3.6 0.4,3.6 0.22,0 0.4,0.193 0.4,0.429 0,3.493 9.55,3.193 12.8,-0.403 0.33,-0.365 1.23,-1.097 2,-1.626 0.77,-0.529 1.67,-1.249 2,-1.6 0.33,-0.351 1.23,-1.072 2,-1.604 0.77,-0.531 1.877,-1.467 2.46,-2.081 0.584,-0.613 1.183,-1.115 1.332,-1.115 0.149,0 0.962,-0.72 1.808,-1.6 0.846,-0.88 1.696,-1.6 1.89,-1.6 0.195,0 1.064,-0.629 1.932,-1.398 1.873,-1.658 2.059,-1.803 3.452,-2.697 0.591,-0.379 1.498,-1.098 2.016,-1.597 0.518,-0.499 1.744,-1.536 2.726,-2.302 2.646,-2.069 3.093,-2.447 5.087,-4.306 1.004,-0.935 1.99,-1.7 2.192,-1.7 0.202,0 1.059,-0.72 1.905,-1.6 0.846,-0.88 1.749,-1.6 2.008,-1.6 0.259,0 0.948,-0.495 1.532,-1.1 0.583,-0.606 1.78,-1.593 2.66,-2.194 0.88,-0.602 2.175,-1.637 2.878,-2.3 0.703,-0.663 1.392,-1.206 1.532,-1.206 0.139,0 0.944,-0.72 1.79,-1.6 0.846,-0.88 1.71,-1.6 1.92,-1.6 0.211,0 1.125,-0.72 2.032,-1.6 0.907,-0.88 1.797,-1.6 1.978,-1.6 0.181,0 1.292,-0.9 2.47,-2 1.178,-1.1 2.314,-2 2.524,-2 0.21,0 0.673,-0.321 1.029,-0.714 0.356,-0.393 1.544,-1.428 2.641,-2.3 1.096,-0.872 2.409,-1.991 2.918,-2.486 0.508,-0.495 1.077,-0.9 1.264,-0.9 0.187,0 1.198,-0.81 2.246,-1.8 1.048,-0.99 2.071,-1.8 2.273,-1.8 0.202,0 1.059,-0.72 1.905,-1.6 0.846,-0.88 1.71,-1.6 1.92,-1.6 0.211,0 1.125,-0.72 2.032,-1.6 0.907,-0.88 1.747,-1.6 1.867,-1.6 0.119,0 0.651,-0.405 1.18,-0.9 1.222,-1.143 1.68,-1.509 3.394,-2.718 0.767,-0.54 1.874,-1.477 2.461,-2.082 0.587,-0.605 1.243,-1.1 1.458,-1.1 0.215,0 1.094,-0.675 1.952,-1.5 0.858,-0.825 2.234,-2.007 3.057,-2.627 0.824,-0.62 1.935,-1.565 2.47,-2.1 0.535,-0.535 1.085,-0.973 1.222,-0.973 0.137,0 0.941,-0.72 1.787,-1.6 0.846,-0.88 1.776,-1.602 2.069,-1.605 1.299,-0.012 2.331,-2.664 2.331,-5.989 0,-1.871 -0.167,-3.206 -0.4,-3.206 -0.22,0 -0.4,-0.278 -0.4,-0.619 0,-0.34 -0.539,-0.925 -1.197,-1.3 -0.659,-0.374 -1.199,-0.816 -1.2,-0.981 -0.002,-0.165 -0.275,-0.3 -0.608,-0.3 -0.333,0 -0.918,-0.159 -1.3,-0.353 -0.727,-0.37 -2.53,-1.138 -3.895,-1.66 -0.44,-0.168 -1.457,-0.594 -2.26,-0.946 -0.804,-0.353 -1.929,-0.641 -2.5,-0.641 -0.572,0 -1.04,-0.18 -1.04,-0.4 0,-0.22 -0.36,-0.4 -0.8,-0.4 -0.44,0 -0.8,-0.18 -0.8,-0.4 0,-0.22 -0.54,-0.4 -1.2,-0.4 -0.66,0 -1.2,-0.18 -1.2,-0.4 0,-0.22 -0.36,-0.4 -0.8,-0.4 -0.44,0 -0.8,-0.18 -0.8,-0.4 0,-0.22 -0.54,-0.4 -1.2,-0.4 -0.66,0 -1.201,-0.135 -1.203,-0.3 -0.004,-0.406 -1.983,-1.3 -2.877,-1.3 -0.396,0 -0.72,-0.18 -0.72,-0.4 0,-0.22 -0.36,-0.4 -0.8,-0.4 -0.533,0 -0.8,-0.267 -0.8,-0.8 0,-0.44 0.18,-0.8 0.4,-0.8 0.22,0 0.4,-0.23 0.4,-0.51 0,-0.281 0.534,-1.586 1.187,-2.9 0.654,-1.315 1.194,-2.705 1.2,-3.09 0.007,-0.385 0.193,-0.7 0.413,-0.7 0.22,0 0.4,-0.36 0.4,-0.8 0,-0.44 0.18,-0.8 0.4,-0.8 0.22,0 0.401,-0.315 0.402,-0.7 0.002,-0.385 0.272,-1.216 0.6,-1.846 0.329,-0.63 0.598,-1.395 0.598,-1.7 0,-0.305 0.18,-0.554 0.4,-0.554 0.22,0 0.4,-0.45 0.4,-1 0,-0.55 0.18,-1 0.4,-1 0.22,0 0.4,-0.36 0.4,-0.8 0,-0.44 0.18,-0.8 0.4,-0.8 0.22,0 0.4,-0.36 0.4,-0.8 0,-0.44 0.18,-0.8 0.4,-0.8 0.22,0 0.4,-0.36 0.4,-0.8 0,-0.44 0.18,-0.8 0.4,-0.8 0.22,0 0.4,-0.349 0.4,-0.776 0,-0.427 0.18,-0.888 0.4,-1.024 0.22,-0.136 0.4,-0.687 0.4,-1.224 0,-0.537 0.18,-0.976 0.4,-0.976 0.22,0 0.4,-0.36 0.4,-0.8 0,-0.44 0.18,-0.8 0.4,-0.8 0.22,0 0.4,-0.36 0.4,-0.8 0,-0.44 0.18,-0.8 0.4,-0.8 0.22,0 0.4,-0.36 0.4,-0.8 0,-0.44 0.18,-0.8 0.4,-0.8 0.22,0 0.4,-0.349 0.4,-0.776 0,-0.427 0.18,-0.888 0.4,-1.024 0.22,-0.136 0.4,-0.597 0.4,-1.024 0,-0.427 0.18,-0.776 0.4,-0.776 0.22,0 0.4,-0.36 0.4,-0.8 0,-0.44 0.18,-0.8 0.4,-0.8 0.22,0 0.4,-0.36 0.4,-0.8 0,-0.44 0.18,-0.8 0.4,-0.8 0.22,0 0.4,-0.236 0.4,-0.525 0,-0.289 0.36,-1.27 0.8,-2.181 0.44,-0.91 0.8,-1.934 0.8,-2.275 0,-0.34 0.18,-0.619 0.4,-0.619 0.22,0 0.4,-0.36 0.4,-0.8 0,-0.44 0.18,-0.8 0.4,-0.8 0.22,0 0.4,-0.249 0.4,-0.554 0,-0.305 0.269,-1.07 0.598,-1.7 0.328,-0.63 0.598,-1.461 0.6,-1.846 0.001,-0.385 0.182,-0.7 0.402,-0.7 0.22,0 0.4,-0.45 0.4,-1 0,-0.55 0.18,-1 0.4,-1 0.22,0 0.4,-0.36 0.4,-0.8 0,-0.44 0.18,-0.8 0.4,-0.8 0.22,0 0.4,-0.36 0.4,-0.8 0,-0.44 0.18,-0.8 0.4,-0.8 0.22,0 0.4,-0.36 0.4,-0.8 0,-0.44 0.18,-0.8 0.4,-0.8 0.22,0 0.4,-0.349 0.4,-0.776 0,-0.427 0.18,-0.888 0.4,-1.024 0.22,-0.136 0.4,-0.687 0.4,-1.224 0,-0.537 0.18,-0.976 0.4,-0.976 0.22,0 0.4,-0.36 0.4,-0.8 0,-0.44 0.18,-0.8 0.4,-0.8 0.235,0 0.4,-1.4 0.4,-3.4 0,-1.87 -0.137,-3.4 -0.305,-3.4 -0.168,0 -0.483,-0.402 -0.7,-0.893 -0.817,-1.847 -7.221,-2.723 -9.855,-1.349 M 306.4,32.849 c 0,0.221 -0.518,1.515 -1.15,2.876 -0.633,1.361 -1.427,3.105 -1.765,3.875 -0.338,0.77 -1.192,2.66 -1.896,4.2 -0.705,1.54 -1.728,3.79 -2.274,5 -1.408,3.121 -2.813,6.191 -4.21,9.2 -2.378,5.124 -3.442,7.442 -4.68,10.2 -0.692,1.54 -1.407,3.076 -1.59,3.413 -2.934,5.401 -0.867,7.449 13.065,12.946 6.274,2.476 10.9,4.516 10.9,4.808 0,0.466 -2.561,2.829 -4.563,4.211 -0.46,0.317 -1.107,0.859 -1.437,1.204 -0.33,0.345 -1.259,1.117 -2.065,1.716 -0.806,0.6 -1.706,1.324 -2,1.611 -0.294,0.287 -2.065,1.745 -3.935,3.241 -1.87,1.496 -3.952,3.209 -4.628,3.806 -0.675,0.598 -1.845,1.518 -2.6,2.046 -0.754,0.528 -1.642,1.241 -1.972,1.583 -0.33,0.343 -1.23,1.096 -2,1.674 -0.77,0.578 -1.79,1.386 -2.266,1.796 -1.318,1.133 -2.075,1.751 -5.334,4.349 -1.65,1.316 -3.09,2.488 -3.2,2.605 -0.11,0.116 -1.01,0.834 -2,1.596 -0.99,0.761 -2.041,1.614 -2.335,1.895 -0.294,0.282 -1.192,1.004 -1.997,1.606 -0.804,0.602 -1.846,1.454 -2.315,1.894 -0.938,0.88 -1.493,1.338 -4.134,3.406 -0.979,0.766 -2.239,1.783 -2.8,2.258 -9.635,8.166 -11.635,9.16 -8.419,4.185 0.88,-1.362 1.6,-2.65 1.6,-2.862 0,-0.213 0.18,-0.387 0.4,-0.387 0.22,0 0.4,-0.236 0.4,-0.525 0,-0.288 0.36,-0.911 0.8,-1.383 0.44,-0.472 0.8,-0.964 0.8,-1.093 0,-0.129 0.859,-1.532 1.91,-3.117 1.05,-1.585 2.161,-3.377 2.467,-3.982 0.307,-0.605 0.708,-1.1 0.891,-1.1 0.182,0 0.332,-0.169 0.332,-0.376 0,-0.207 1.443,-2.592 3.207,-5.3 1.764,-2.708 3.325,-5.194 3.47,-5.524 0.145,-0.33 1.276,-2.13 2.514,-4 3.141,-4.747 3.533,-6.12 2.42,-8.488 C 273.212,96.213 270.719,94 269.603,94 c -0.228,0 -0.726,-0.159 -1.108,-0.353 -0.907,-0.462 -3.406,-1.504 -5.995,-2.501 -0.495,-0.19 -1.305,-0.509 -1.8,-0.709 -0.495,-0.199 -1.71,-0.664 -2.7,-1.033 -0.99,-0.368 -2.34,-0.904 -3,-1.191 -0.66,-0.287 -2.235,-0.923 -3.5,-1.414 -2.865,-1.111 -2.927,-1.733 -0.4,-4.007 1.045,-0.94 4.06,-3.722 6.7,-6.181 2.64,-2.459 7.41,-6.864 10.6,-9.787 3.19,-2.924 8.14,-7.532 11,-10.239 2.86,-2.707 5.65,-5.31 6.2,-5.783 1.026,-0.883 7.256,-6.657 12.977,-12.027 7.499,-7.038 7.823,-7.283 7.823,-5.926 m 14.8,111.012 c -1.24,0.408 -5.299,2.165 -6.895,2.983 -0.382,0.196 -0.967,0.356 -1.3,0.356 -0.333,0 -0.605,0.18 -0.605,0.4 0,0.22 -0.236,0.4 -0.525,0.4 -0.289,0 -1.27,0.36 -2.181,0.8 -0.91,0.44 -1.934,0.8 -2.275,0.8 -0.34,0 -0.619,0.18 -0.619,0.4 0,0.22 -0.36,0.4 -0.8,0.4 -0.44,0 -0.8,0.18 -0.8,0.4 0,0.22 -0.349,0.4 -0.776,0.4 -0.427,0 -0.888,0.18 -1.024,0.4 -0.136,0.22 -0.687,0.4 -1.224,0.4 -0.537,0 -0.976,0.18 -0.976,0.4 0,0.22 -0.36,0.4 -0.8,0.4 -0.44,0 -0.8,0.18 -0.8,0.4 0,0.22 -0.272,0.4 -0.605,0.4 -0.333,0 -0.963,0.18 -1.4,0.4 -0.437,0.22 -1.153,0.58 -1.59,0.8 -0.437,0.22 -1.067,0.4 -1.4,0.4 -0.333,0 -0.605,0.18 -0.605,0.4 0,0.22 -0.349,0.4 -0.776,0.4 -0.427,0 -0.888,0.18 -1.024,0.4 -0.136,0.22 -0.597,0.4 -1.024,0.4 -0.427,0 -0.776,0.18 -0.776,0.4 0,0.22 -0.36,0.4 -0.8,0.4 -0.44,0 -0.8,0.18 -0.8,0.4 0,0.22 -0.45,0.4 -1,0.4 -0.55,0 -1,0.18 -1,0.4 0,0.22 -0.45,0.4 -1,0.4 -0.55,0 -1,0.16 -1,0.355 0,0.196 -0.602,0.469 -1.339,0.607 -0.736,0.138 -2.077,0.608 -2.98,1.045 -0.903,0.436 -1.786,0.796 -1.962,0.799 -0.525,0.011 -2.919,2.263 -2.919,2.747 0,0.246 -0.18,0.447 -0.4,0.447 -0.237,0 -0.4,1.467 -0.4,3.6 0,2.133 0.163,3.6 0.4,3.6 0.22,0 0.4,0.204 0.4,0.453 0,2.091 8.188,3.307 11,1.635 1.481,-0.88 6.215,-2.888 6.81,-2.888 0.325,0 0.59,-0.18 0.59,-0.4 0,-0.22 0.36,-0.4 0.8,-0.4 0.44,0 0.8,-0.147 0.8,-0.328 0,-0.18 0.9,-0.572 2,-0.872 1.1,-0.3 2,-0.692 2,-0.872 0,-0.181 0.36,-0.328 0.8,-0.328 0.44,0 0.8,-0.18 0.8,-0.4 0,-0.22 0.272,-0.4 0.605,-0.4 0.333,0 0.918,-0.16 1.3,-0.356 0.382,-0.196 1.595,-0.756 2.695,-1.244 1.1,-0.488 2.313,-1.048 2.695,-1.244 0.382,-0.196 0.967,-0.356 1.3,-0.356 0.333,0 0.605,-0.18 0.605,-0.4 0,-0.22 0.36,-0.4 0.8,-0.4 0.44,0 0.8,-0.16 0.8,-0.355 0,-0.195 0.54,-0.433 1.2,-0.53 1.225,-0.18 1.831,1.248 0.8,1.885 -0.22,0.136 -0.4,0.856 -0.4,1.6 0,0.744 -0.18,1.464 -0.4,1.6 -0.22,0.136 -0.4,0.856 -0.4,1.6 0,0.744 -0.18,1.464 -0.4,1.6 -1.672,1.033 0.377,9.759 2.3,9.791 0.275,0.005 0.5,0.189 0.5,0.409 0,0.237 1.459,0.4 3.576,0.4 1.967,0 3.688,-0.18 3.824,-0.4 0.136,-0.22 0.676,-0.4 1.2,-0.4 0.524,0 1.064,-0.18 1.2,-0.4 0.136,-0.22 0.676,-0.4 1.2,-0.4 0.524,0 1.064,-0.18 1.2,-0.4 0.136,-0.22 0.676,-0.4 1.2,-0.4 0.524,0 1.064,-0.18 1.2,-0.4 0.136,-0.22 0.599,-0.4 1.029,-0.4 0.43,0 1.139,-0.18 1.576,-0.4 0.437,-0.22 1.153,-0.58 1.59,-0.8 0.437,-0.22 1.247,-0.4 1.8,-0.4 0.553,0 1.005,-0.18 1.005,-0.4 0,-0.22 0.439,-0.4 0.976,-0.4 0.537,0 1.078,-0.163 1.201,-0.363 0.123,-0.199 1.123,-0.486 2.223,-0.637 1.1,-0.151 2.1,-0.438 2.223,-0.637 0.123,-0.2 0.653,-0.363 1.177,-0.363 0.524,0 1.064,-0.18 1.2,-0.4 0.136,-0.22 0.676,-0.4 1.2,-0.4 0.524,0 1.064,-0.18 1.2,-0.4 0.136,-0.22 0.676,-0.4 1.2,-0.4 0.524,0 1.064,-0.18 1.2,-0.4 0.136,-0.22 0.676,-0.4 1.2,-0.4 0.524,0 1.064,-0.18 1.2,-0.4 0.136,-0.22 0.676,-0.4 1.2,-0.4 0.524,0 1.064,-0.18 1.2,-0.4 0.136,-0.22 0.676,-0.4 1.2,-0.4 0.524,0 1.064,-0.18 1.2,-0.4 0.136,-0.22 0.597,-0.4 1.024,-0.4 0.427,0 0.776,-0.137 0.776,-0.305 0,-0.168 0.405,-0.483 0.9,-0.7 0.495,-0.217 1.078,-0.8 1.295,-1.295 0.217,-0.495 0.532,-0.9 0.7,-0.9 0.168,0 0.305,-1.53 0.305,-3.4 0,-2 -0.165,-3.4 -0.4,-3.4 -0.22,0 -0.4,-0.283 -0.4,-0.629 0,-0.808 -0.963,-1.771 -1.771,-1.771 -0.346,0 -0.629,-0.18 -0.629,-0.4 0,-0.237 -1.459,-0.4 -3.576,-0.4 -1.967,0 -3.688,0.18 -3.824,0.4 -0.136,0.22 -0.687,0.4 -1.224,0.4 -0.537,0 -0.976,0.18 -0.976,0.4 0,0.22 -0.54,0.4 -1.2,0.4 -0.66,0 -1.2,0.18 -1.2,0.4 0,0.22 -0.439,0.4 -0.976,0.4 -0.537,0 -1.088,0.18 -1.224,0.4 -0.136,0.22 -0.676,0.4 -1.2,0.4 -0.524,0 -1.054,0.163 -1.177,0.363 -0.123,0.199 -1.123,0.486 -2.223,0.637 -1.1,0.151 -2.1,0.438 -2.223,0.637 -0.123,0.2 -0.653,0.363 -1.177,0.363 -0.524,0 -1.064,0.18 -1.2,0.4 -0.136,0.22 -0.676,0.4 -1.2,0.4 -0.524,0 -1.064,0.18 -1.2,0.4 -0.136,0.22 -0.676,0.4 -1.2,0.4 -0.524,0 -1.064,0.18 -1.2,0.4 -0.136,0.22 -0.651,0.4 -1.144,0.4 -0.493,0 -1.112,0.216 -1.376,0.48 -0.373,0.373 -0.48,0.373 -0.48,0 0,-0.264 0.18,-0.48 0.4,-0.48 0.22,0 0.4,-0.72 0.4,-1.6 0,-0.88 0.18,-1.6 0.4,-1.6 0.22,0 0.4,-0.619 0.4,-1.376 0,-0.757 0.18,-1.488 0.4,-1.624 0.22,-0.136 0.4,-0.867 0.4,-1.624 0,-0.757 0.18,-1.376 0.4,-1.376 0.24,0 0.4,-1.6 0.4,-4 0,-2.4 -0.16,-4 -0.4,-4 -0.22,0 -0.4,-0.193 -0.4,-0.429 0,-1.812 -6.301,-3.197 -9.6,-2.11 M 242,193.867 c -0.55,0.111 -1.171,0.365 -1.38,0.567 -0.209,0.201 -0.704,0.366 -1.1,0.366 -0.396,0 -0.72,0.18 -0.72,0.4 0,0.22 -0.193,0.4 -0.428,0.4 -1.187,0 -5.97,4.014 -5.972,5.012 0,0.226 -0.36,0.671 -0.8,0.988 -0.44,0.317 -0.8,0.897 -0.8,1.288 0,0.392 -0.18,0.712 -0.4,0.712 -0.22,0 -0.4,0.234 -0.4,0.52 0,2.258 -0.792,2.674 -5.1,2.677 -2.465,0.002 -4.1,0.163 -4.1,0.403 0,0.22 -0.54,0.4 -1.2,0.4 -0.66,0 -1.2,0.18 -1.2,0.4 0,0.22 -0.45,0.4 -1,0.4 -0.55,0 -1,0.18 -1,0.4 0,0.22 -0.27,0.4 -0.6,0.4 -0.33,0 -0.6,0.18 -0.6,0.4 0,0.22 -0.322,0.4 -0.715,0.4 -0.859,0 -4.485,3.578 -4.485,4.425 0,0.329 -0.36,0.858 -0.8,1.175 -0.44,0.317 -0.8,0.897 -0.8,1.288 0,0.392 -0.18,0.712 -0.4,0.712 -0.22,0 -0.4,0.54 -0.4,1.2 0,0.66 -0.18,1.2 -0.4,1.2 -0.243,0 -0.4,1.779 -0.4,4.536 0,4.816 -0.31,5.464 -2.619,5.464 -0.319,0 -0.581,0.18 -0.581,0.4 0,0.22 -0.236,0.4 -0.525,0.4 -0.288,0 -0.911,0.36 -1.383,0.8 -0.472,0.44 -1.032,0.8 -1.244,0.8 -0.684,0 -3.492,3.142 -4.282,4.791 -0.421,0.88 -0.901,1.602 -1.066,1.604 -0.165,0.003 -0.3,0.35 -0.3,0.772 0,0.421 -0.22,0.84 -0.49,0.93 -0.345,0.115 -0.535,1.834 -0.645,5.833 l -0.156,5.67 h -1.154 c -0.635,0 -1.155,0.18 -1.155,0.4 0,0.22 -0.36,0.4 -0.8,0.4 -0.44,0 -0.8,0.18 -0.8,0.4 0,0.22 -0.267,0.4 -0.593,0.4 -0.764,0 -3.143,2.058 -5.407,4.676 -1.276,1.476 -2.8,4.381 -2.8,5.338 0,0.406 -0.18,0.85 -0.4,0.986 -0.233,0.144 -0.4,2.404 -0.4,5.424 0,3.184 0.154,5.176 0.4,5.176 0.22,0 0.4,0.54 0.4,1.2 0,0.66 0.18,1.2 0.4,1.2 0.22,0 0.4,0.36 0.4,0.8 0,0.44 0.18,0.8 0.4,0.8 0.22,0 0.4,0.36 0.4,0.8 0,0.44 0.15,0.8 0.332,0.8 0.183,0 0.588,0.495 0.9,1.1 0.313,0.605 2.548,3.028 4.968,5.385 2.42,2.356 4.557,4.45 4.748,4.652 0.296,0.312 32.289,32.319 33.449,33.463 0.223,0.22 3.104,3.145 6.401,6.5 3.298,3.355 6.267,6.1 6.599,6.1 0.332,0 0.603,0.18 0.603,0.4 0,0.261 6.114,0.4 17.543,0.4 h 17.543 l 30.372,30.371 c 20.516,20.515 30.732,30.461 31.48,30.649 0.609,0.153 2.601,0.2 4.427,0.104 l 3.321,-0.175 27.346,-27.345 27.345,-27.346 0.155,-3.857 c 0.127,-3.155 0.038,-3.974 -0.488,-4.5 -0.354,-0.354 -0.644,-0.764 -0.644,-0.911 0,-0.408 -49.857,-50.19 -50.266,-50.19 -0.196,0 -0.617,-0.36 -0.934,-0.8 -1.318,-1.828 -8,-0.924 -8,1.082 0,0.407 -0.312,1.185 -0.693,1.729 -0.455,0.649 -0.693,1.75 -0.693,3.206 -10e-4,2.732 -2.547,-0.067 25.086,27.578 12.045,12.051 21.9,22.125 21.9,22.388 0,0.608 -43.783,44.417 -44.39,44.417 -0.249,0 -13.425,-12.976 -29.281,-28.835 -15.855,-15.859 -29.441,-29.179 -30.191,-29.6 -1.283,-0.72 -2.362,-0.765 -18.453,-0.765 h -17.091 l -10.497,-10.503 c -11.279,-11.285 -11.17,-11.14 -9.139,-12.104 4.148,-1.968 8.642,-8.579 8.642,-12.714 0,-1.817 0.671,-2.679 2.086,-2.679 7.234,0 15.914,-8.934 15.914,-16.38 0,-0.786 1.771,-1.62 3.441,-1.62 1.421,0 4.365,-1.247 6.856,-2.905 4.126,-2.746 4.932,-7.024 1.911,-10.132 -2.001,-2.058 -6.796,-1.692 -8.608,0.658 -0.571,0.74 -2.204,1.179 -4.388,1.179 h -2.44 l -3.634,-3.5 c -8.575,-8.257 -25.32,-25.198 -25.998,-26.3 -1.421,-2.314 -0.766,-6.209 1.35,-8.021 3.489,-2.987 7.906,-2.167 11.683,2.17 0.455,0.522 2.897,3.093 5.427,5.714 3.853,3.991 4.929,5.396 6.627,8.651 3.622,6.946 5.107,8.914 8.284,10.983 4.265,2.777 10.722,3.799 15.289,2.42 0.88,-0.266 4.3,-1.132 7.6,-1.924 3.3,-0.793 6.587,-1.594 7.305,-1.781 1.502,-0.391 2.316,0.52 1.99,2.227 -0.991,5.184 2.293,20.188 4.85,22.161 0.143,0.11 0.763,0.875 1.378,1.7 0.615,0.825 1.379,1.5 1.697,1.5 0.319,0 0.58,0.18 0.58,0.4 0,0.222 1.067,0.4 2.4,0.4 5.123,0 7.429,-5.178 4.252,-9.546 -3.814,-5.244 -4.266,-8.833 -3.208,-25.479 0.415,-6.535 -2.929,-8.547 -10.244,-6.163 -0.55,0.179 -3.25,0.868 -6,1.532 -2.75,0.664 -7.597,1.848 -10.771,2.631 -7.69,1.899 -9.674,1.806 -11.809,-0.553 -0.697,-0.77 -2.62,-4.307 -2.62,-4.819 0,-0.233 1.31,-0.869 7.6,-3.69 0.99,-0.444 2.492,-1.146 3.338,-1.56 0.846,-0.414 1.791,-0.753 2.1,-0.753 0.309,0 0.562,-0.18 0.562,-0.4 0,-0.22 0.265,-0.4 0.588,-0.4 0.323,0 1.229,-0.36 2.012,-0.8 0.783,-0.44 1.689,-0.8 2.012,-0.8 0.323,0 0.588,-0.18 0.588,-0.4 0,-0.22 0.253,-0.4 0.562,-0.4 0.309,0 1.254,-0.351 2.1,-0.779 1.378,-0.699 3.755,-1.792 8.23,-3.786 4.224,-1.882 7.776,-2.363 10.189,-1.379 0.616,0.251 1.749,0.724 2.519,1.051 0.863,0.366 6.425,5.594 14.5,13.63 l 13.1,13.036 v 17.076 c 0,16.72 0.018,17.109 0.862,18.691 1.634,3.061 5.501,3.885 8.512,1.814 0.425,-0.293 1.156,-0.436 1.624,-0.319 1.721,0.432 1.802,-0.569 1.802,-22.254 0,-12.339 -0.147,-20.381 -0.373,-20.381 -0.205,0 -0.496,-0.388 -0.647,-0.862 -0.15,-0.473 -2.907,-3.441 -6.126,-6.595 -3.22,-3.153 -5.99,-5.87 -6.155,-6.038 -0.166,-0.168 -3.707,-3.751 -7.868,-7.963 -4.161,-4.212 -8.121,-7.986 -8.799,-8.386 -0.677,-0.401 -1.232,-0.87 -1.232,-1.042 0,-0.173 -0.255,-0.314 -0.567,-0.314 -0.311,0 -0.626,-0.135 -0.7,-0.3 -0.221,-0.499 -3.555,-2.1 -4.371,-2.1 -0.419,0 -0.762,-0.18 -0.762,-0.4 0,-0.22 -0.529,-0.4 -1.176,-0.4 -0.647,0 -1.288,-0.18 -1.424,-0.4 -0.147,-0.238 -2.671,-0.4 -6.224,-0.4 -3.717,0 -5.976,0.151 -5.976,0.4 0,0.22 -0.619,0.4 -1.376,0.4 -0.757,0 -1.488,0.18 -1.624,0.4 -0.136,0.22 -0.597,0.4 -1.024,0.4 -0.427,0 -0.776,0.18 -0.776,0.4 0,0.22 -0.36,0.4 -0.8,0.4 -0.44,0 -0.8,0.18 -0.8,0.4 0,0.22 -0.45,0.4 -1,0.4 -0.55,0 -1,0.18 -1,0.4 0,0.22 -0.345,0.4 -0.767,0.4 -0.421,0 -0.826,0.165 -0.9,0.367 -0.073,0.201 -0.763,0.482 -1.533,0.623 -1.375,0.252 -1.509,0.147 -7.487,-5.866 -10.295,-10.356 -10.41,-10.421 -18.713,-10.562 -3.08,-0.052 -6.05,-0.005 -6.6,0.105 m 9.2,12.985 c 1.549,0.94 10.4,9.687 10.4,10.278 0,0.552 -0.701,0.987 -3.8,2.358 -1.54,0.682 -3.84,1.706 -5.112,2.276 -1.271,0.57 -2.723,1.036 -3.225,1.036 -1.052,0 -7.463,-6.291 -7.463,-7.323 0,-0.347 -0.18,-0.741 -0.4,-0.877 -0.586,-0.362 -0.488,-3.092 0.167,-4.659 1.491,-3.568 6.136,-5.089 9.433,-3.089 m -193.081,5.71 c -0.704,0.256 -1.409,0.595 -1.566,0.752 -0.158,0.157 -0.696,0.286 -1.196,0.286 -0.5,0 -1.021,0.18 -1.157,0.4 -0.136,0.22 -0.676,0.4 -1.2,0.4 -0.524,0 -1.064,0.18 -1.2,0.4 -0.136,0.22 -0.676,0.4 -1.2,0.4 -0.524,0 -1.064,0.18 -1.2,0.4 -0.136,0.22 -0.676,0.4 -1.2,0.4 -0.524,0 -1.064,0.18 -1.2,0.4 -0.136,0.22 -0.676,0.4 -1.2,0.4 -0.524,0 -1.064,0.18 -1.2,0.4 -0.136,0.22 -0.651,0.4 -1.144,0.4 -0.493,0 -1.067,0.149 -1.276,0.33 -0.209,0.182 -1.19,0.563 -2.18,0.846 -1.881,0.538 -3.321,1.074 -4.495,1.671 -0.382,0.194 -1.046,0.353 -1.476,0.353 -0.43,0 -0.893,0.18 -1.029,0.4 -0.136,0.22 -0.676,0.4 -1.2,0.4 -0.524,0 -1.064,0.18 -1.2,0.4 -0.136,0.22 -0.676,0.4 -1.2,0.4 -0.524,0 -1.064,0.18 -1.2,0.4 -0.136,0.22 -0.676,0.4 -1.2,0.4 -0.524,0 -1.064,0.18 -1.2,0.4 -0.136,0.22 -0.676,0.4 -1.2,0.4 -0.524,0 -1.064,0.18 -1.2,0.4 -0.136,0.22 -0.597,0.4 -1.024,0.4 -0.427,0 -0.776,0.18 -0.776,0.4 0,0.22 -0.315,0.402 -0.7,0.405 -1.456,0.01 -2.5,2.511 -2.5,5.989 0,1.763 0.137,3.206 0.305,3.206 0.168,0 0.483,0.405 0.7,0.9 0.217,0.495 0.8,1.078 1.295,1.295 0.495,0.217 0.9,0.532 0.9,0.7 0,0.458 6.714,0.367 7,-0.095 0.136,-0.22 0.676,-0.4 1.2,-0.4 0.524,0 1.064,-0.18 1.2,-0.4 0.136,-0.22 0.676,-0.4 1.2,-0.4 0.524,0 1.064,-0.18 1.2,-0.4 0.136,-0.22 0.676,-0.4 1.2,-0.4 0.524,0 1.064,-0.18 1.2,-0.4 0.136,-0.22 0.676,-0.4 1.2,-0.4 0.524,0 1.064,-0.18 1.2,-0.4 0.136,-0.22 0.676,-0.4 1.2,-0.4 0.524,0 1.064,-0.18 1.2,-0.4 0.136,-0.22 0.676,-0.4 1.2,-0.4 0.524,0 1.042,-0.144 1.151,-0.321 0.109,-0.176 1.121,-0.572 2.249,-0.879 1.128,-0.307 2.14,-0.703 2.249,-0.879 0.109,-0.177 0.64,-0.321 1.18,-0.321 0.54,0 1.339,-0.18 1.776,-0.4 0.437,-0.22 1.155,-0.582 1.595,-0.803 0.538,-0.272 0.8,-0.272 0.8,0 0,0.221 -0.18,0.403 -0.4,0.403 -0.22,0 -0.4,0.72 -0.4,1.6 0,0.88 -0.18,1.6 -0.4,1.6 -0.22,0 -0.4,0.72 -0.4,1.6 0,0.88 -0.18,1.6 -0.4,1.6 -0.22,0 -0.4,0.72 -0.4,1.6 0,0.88 -0.18,1.6 -0.4,1.6 -0.239,0 -0.4,1.533 -0.4,3.8 0,2.09 0.141,3.8 0.314,3.8 0.172,0 0.632,0.54 1.022,1.2 0.39,0.66 0.969,1.2 1.287,1.2 0.317,0 0.577,0.18 0.577,0.4 0,0.239 1.533,0.4 3.8,0.4 2.267,0 3.8,-0.161 3.8,-0.4 0,-0.22 0.54,-0.4 1.2,-0.4 0.66,0 1.2,-0.18 1.2,-0.4 0,-0.22 0.72,-0.4 1.6,-0.4 0.88,0 1.6,-0.18 1.6,-0.4 0,-0.22 0.54,-0.4 1.2,-0.4 0.66,0 1.2,-0.18 1.2,-0.4 0,-0.22 0.619,-0.4 1.376,-0.4 0.757,0 1.488,-0.18 1.624,-0.4 0.136,-0.22 0.777,-0.4 1.424,-0.4 0.647,0 1.176,-0.18 1.176,-0.4 0,-0.22 0.63,-0.4 1.4,-0.4 0.77,0 1.4,-0.18 1.4,-0.4 0,-0.22 0.54,-0.4 1.2,-0.4 0.66,0 1.2,-0.18 1.2,-0.4 0,-0.22 0.72,-0.4 1.6,-0.4 0.88,0 1.6,-0.18 1.6,-0.4 0,-0.22 0.54,-0.4 1.2,-0.4 0.66,0 1.2,-0.18 1.2,-0.4 0,-0.22 0.6,-0.4 1.333,-0.4 0.734,0 1.468,-0.135 1.632,-0.3 0.277,-0.278 3.456,-1.039 6.535,-1.565 0.715,-0.123 1.3,-0.383 1.3,-0.579 0,-0.196 0.619,-0.356 1.376,-0.356 0.757,0 1.488,-0.18 1.624,-0.4 0.136,-0.22 0.777,-0.4 1.424,-0.4 0.647,0 1.176,-0.18 1.176,-0.4 0,-0.22 0.486,-0.4 1.081,-0.4 3.735,0 6.139,-7.601 3.499,-11.062 -0.562,-0.736 -1.282,-1.338 -1.6,-1.338 -0.319,0 -0.58,-0.18 -0.58,-0.4 0,-0.239 -1.533,-0.4 -3.8,-0.4 -2.267,0 -3.8,0.161 -3.8,0.4 0,0.22 -0.54,0.4 -1.2,0.4 -0.66,0 -1.2,0.18 -1.2,0.4 0,0.22 -0.72,0.4 -1.6,0.4 -0.88,0 -1.6,0.157 -1.6,0.348 0,0.192 -0.945,0.471 -2.1,0.62 -2.16,0.278 -4.373,0.864 -5.595,1.481 -0.382,0.193 -1.136,0.351 -1.676,0.351 -0.54,0 -1.093,0.18 -1.229,0.4 -0.136,0.22 -0.777,0.4 -1.424,0.4 -0.647,0 -1.176,0.18 -1.176,0.4 0,0.22 -0.619,0.4 -1.376,0.4 -0.757,0 -1.488,0.18 -1.624,0.4 -0.136,0.22 -0.777,0.4 -1.424,0.4 -0.647,0 -1.176,0.18 -1.176,0.4 0,0.22 -0.619,0.4 -1.376,0.4 -0.757,0 -1.488,0.18 -1.624,0.4 -0.136,0.22 -0.777,0.4 -1.424,0.4 -0.647,0 -1.176,-0.18 -1.176,-0.4 0,-0.22 0.18,-0.4 0.4,-0.4 0.22,0 0.4,-0.72 0.4,-1.6 0,-0.88 0.18,-1.6 0.4,-1.6 0.22,0 0.4,-0.72 0.4,-1.6 0,-0.88 0.18,-1.6 0.4,-1.6 0.22,0 0.4,-0.619 0.4,-1.376 0,-0.757 0.18,-1.488 0.4,-1.624 0.22,-0.136 0.4,-1.893 0.4,-3.904 v -3.657 l -1.82,-1.72 -1.82,-1.719 -3.08,0.048 c -1.694,0.026 -3.656,0.257 -4.361,0.514 M 159.2,225.2 c 0,0.22 -0.278,0.4 -0.618,0.4 -0.34,0 -1.048,0.405 -1.572,0.9 -0.525,0.495 -2.889,2.7 -5.254,4.9 -2.365,2.2 -6.122,5.8 -8.349,8 -2.227,2.2 -4.67,4.443 -5.428,4.984 -1.75,1.248 -3.243,2.583 -7.626,6.816 -3.797,3.668 -7.51,7.137 -12.53,11.708 -1.747,1.59 -5.21,4.917 -7.695,7.392 -2.486,2.475 -4.656,4.504 -4.824,4.509 -0.493,0.015 -7.629,6.585 -16.501,15.191 -2.154,2.09 -4.518,4.25 -5.252,4.8 -0.734,0.55 -3.552,3.2 -6.262,5.889 -2.71,2.689 -5.462,5.204 -6.115,5.59 -0.652,0.385 -1.408,1.2 -1.678,1.811 -0.27,0.61 -0.627,1.11 -0.794,1.11 -0.166,0 -0.302,1.53 -0.302,3.4 0,1.87 0.137,3.4 0.305,3.4 0.168,0 0.483,0.405 0.7,0.9 0.217,0.495 0.8,1.078 1.295,1.295 0.495,0.217 0.9,0.532 0.9,0.7 0,0.168 0.36,0.305 0.8,0.305 0.44,0 0.8,0.18 0.8,0.4 0,0.22 0.54,0.4 1.2,0.4 0.66,0 1.2,0.18 1.2,0.4 0,0.22 0.36,0.4 0.8,0.4 0.44,0 0.8,0.18 0.8,0.4 0,0.22 0.326,0.4 0.725,0.4 0.399,0 1.47,0.36 2.381,0.8 0.91,0.44 1.81,0.8 2,0.8 0.189,0 1.056,0.344 1.926,0.764 0.87,0.421 2.254,0.891 3.075,1.045 0.821,0.154 1.493,0.44 1.493,0.636 0,0.195 0.54,0.355 1.2,0.355 0.66,0 1.2,0.18 1.2,0.4 0,0.22 0.36,0.4 0.8,0.4 0.44,0 0.8,0.18 0.8,0.4 0,0.22 0.368,0.4 0.817,0.4 1.638,0 1.973,0.858 0.932,2.39 -0.522,0.767 -0.949,1.624 -0.949,1.903 0,0.279 -0.18,0.507 -0.4,0.507 -0.22,0 -0.4,0.27 -0.4,0.6 0,0.33 -0.18,0.6 -0.4,0.6 -0.22,0 -0.4,0.27 -0.4,0.6 0,0.33 -0.18,0.6 -0.4,0.6 -0.22,0 -0.4,0.32 -0.4,0.712 0,0.391 -0.36,0.971 -0.8,1.288 -0.44,0.317 -0.8,0.857 -0.8,1.2 0,0.343 -0.36,0.883 -0.8,1.2 -0.44,0.317 -0.8,0.897 -0.8,1.288 0,0.392 -0.158,0.712 -0.351,0.712 -0.194,0 -0.576,0.54 -0.849,1.2 -0.273,0.66 -0.655,1.2 -0.849,1.2 -0.193,0 -0.351,0.27 -0.351,0.6 0,0.33 -0.18,0.6 -0.4,0.6 -0.22,0 -0.4,0.27 -0.4,0.6 0,0.33 -0.18,0.6 -0.4,0.6 -0.22,0 -0.4,0.188 -0.4,0.417 0,0.229 -0.36,0.803 -0.8,1.275 -0.44,0.472 -0.8,1.095 -0.8,1.383 0,0.289 -0.18,0.525 -0.4,0.525 -0.22,0 -0.4,0.236 -0.4,0.525 0,0.288 -0.36,0.911 -0.8,1.383 -0.44,0.472 -0.8,1.136 -0.8,1.475 0,0.339 -0.15,0.617 -0.332,0.617 -0.183,0 -0.588,0.495 -0.9,1.1 -0.313,0.605 -0.793,1.338 -1.068,1.629 -0.275,0.29 -0.5,0.793 -0.5,1.116 0,0.324 -0.331,0.944 -0.736,1.378 -0.405,0.435 -0.989,1.282 -1.297,1.884 -0.309,0.601 -0.878,1.384 -1.264,1.74 -0.387,0.356 -0.703,0.858 -0.703,1.117 0,0.258 -0.36,0.856 -0.8,1.328 -0.44,0.472 -0.8,1.095 -0.8,1.383 0,0.289 -0.18,0.525 -0.4,0.525 -0.22,0 -0.4,0.236 -0.4,0.525 0,0.288 -0.36,0.911 -0.8,1.383 -0.44,0.472 -0.8,1.096 -0.8,1.387 0,0.291 -0.36,0.788 -0.8,1.105 -0.44,0.317 -0.8,0.897 -0.8,1.288 0,0.392 -0.15,0.712 -0.332,0.712 -0.183,0 -0.588,0.495 -0.9,1.1 -0.312,0.605 -0.657,1.19 -0.767,1.3 -0.436,0.434 -2.001,2.781 -2.001,3.001 0,0.128 -0.188,0.45 -0.417,0.716 -0.706,0.817 -3.175,4.82 -3.69,5.983 -0.269,0.605 -0.624,1.1 -0.791,1.1 -0.166,0 -0.302,0.32 -0.302,0.712 0,0.391 -0.36,0.971 -0.8,1.288 -0.44,0.317 -0.8,0.897 -0.8,1.288 0,0.392 -0.18,0.712 -0.4,0.712 -0.235,0 -0.4,1.4 -0.4,3.4 0,1.87 0.136,3.4 0.302,3.4 0.167,0 0.532,0.519 0.813,1.153 1.288,2.909 8.808,2.352 12.261,-0.91 1.073,-1.014 2.117,-1.843 2.319,-1.843 0.202,0 1.059,-0.72 1.905,-1.6 0.846,-0.88 1.649,-1.6 1.786,-1.6 0.262,0 0.67,-0.322 2.665,-2.1 0.678,-0.605 1.376,-1.1 1.549,-1.1 0.174,0 1.174,-0.81 2.222,-1.8 1.048,-0.99 2.074,-1.8 2.281,-1.8 0.207,0 0.853,-0.502 1.437,-1.115 0.583,-0.614 1.69,-1.552 2.46,-2.085 0.77,-0.533 1.877,-1.471 2.46,-2.085 0.584,-0.613 1.183,-1.115 1.332,-1.115 0.149,0 0.935,-0.675 1.747,-1.5 0.811,-0.825 2.102,-1.847 2.868,-2.272 0.766,-0.424 1.663,-1.062 1.993,-1.419 0.33,-0.356 1.23,-1.081 2,-1.613 0.77,-0.531 1.877,-1.467 2.46,-2.081 0.584,-0.613 1.182,-1.115 1.329,-1.115 0.148,0 0.503,-0.234 0.789,-0.521 0.287,-0.286 1.283,-1.141 2.214,-1.9 0.931,-0.758 2.512,-2.144 3.514,-3.079 1.002,-0.935 1.987,-1.7 2.189,-1.7 0.202,0 1.059,-0.72 1.905,-1.6 0.846,-0.88 1.776,-1.602 2.069,-1.603 0.292,-0.002 1.161,-0.595 1.931,-1.318 0.77,-0.723 1.809,-1.596 2.309,-1.94 0.499,-0.345 1.616,-1.282 2.482,-2.083 0.866,-0.801 1.686,-1.456 1.823,-1.456 0.137,0 0.94,-0.72 1.786,-1.6 0.846,-0.88 1.746,-1.6 2,-1.6 0.254,0 1.154,-0.72 2,-1.6 0.846,-0.88 1.7,-1.6 1.898,-1.6 0.198,0 1.324,-0.9 2.502,-2 1.178,-1.1 2.315,-2 2.526,-2 0.358,0 1.883,-1.265 5.581,-4.629 0.828,-0.754 1.652,-1.371 1.829,-1.371 0.177,0 1.286,-0.9 2.464,-2 1.178,-1.1 2.304,-2 2.502,-2 0.198,0 1.052,-0.72 1.898,-1.6 0.846,-0.88 1.731,-1.6 1.969,-1.6 0.237,0 0.431,-0.18 0.431,-0.4 0,-0.22 0.198,-0.4 0.44,-0.4 0.241,0 0.943,-0.54 1.56,-1.2 0.617,-0.66 1.287,-1.2 1.489,-1.2 0.202,0 1.213,-0.81 2.246,-1.8 1.034,-0.99 2.034,-1.8 2.224,-1.8 0.189,0 1.086,-0.72 1.993,-1.6 0.907,-0.88 1.819,-1.6 2.026,-1.6 0.207,0 0.696,-0.54 1.086,-1.2 0.39,-0.66 0.85,-1.2 1.022,-1.2 0.173,0 0.314,-1.53 0.314,-3.4 0,-1.87 -0.137,-3.4 -0.305,-3.4 -0.168,0 -0.483,-0.405 -0.7,-0.9 -0.217,-0.495 -0.8,-1.078 -1.295,-1.295 -0.495,-0.217 -0.9,-0.532 -0.9,-0.7 0,-0.168 -0.36,-0.305 -0.8,-0.305 -0.44,0 -0.8,-0.18 -0.8,-0.4 0,-0.22 -0.54,-0.4 -1.2,-0.4 -0.66,0 -1.2,-0.18 -1.2,-0.4 0,-0.22 -0.36,-0.4 -0.8,-0.4 -0.44,0 -0.8,-0.18 -0.8,-0.4 0,-0.22 -0.45,-0.4 -1,-0.4 -0.55,0 -1,-0.18 -1,-0.4 0,-0.22 -0.45,-0.4 -1,-0.4 -0.55,0 -1,-0.18 -1,-0.4 0,-0.22 -0.45,-0.4 -1,-0.4 -0.55,0 -1,-0.18 -1,-0.4 0,-0.22 -0.349,-0.4 -0.776,-0.4 -0.427,0 -0.888,-0.18 -1.024,-0.4 -0.136,-0.22 -0.687,-0.4 -1.224,-0.4 -0.537,0 -0.976,-0.18 -0.976,-0.4 0,-0.22 -0.349,-0.4 -0.776,-0.4 -0.427,0 -0.888,-0.18 -1.024,-0.4 -0.136,-0.22 -0.687,-0.4 -1.224,-0.4 -0.537,0 -0.976,-0.18 -0.976,-0.4 0,-0.22 -0.36,-0.4 -0.8,-0.4 -0.44,0 -0.8,-0.18 -0.8,-0.4 0,-0.22 -0.54,-0.4 -1.2,-0.4 -0.66,0 -1.2,-0.18 -1.2,-0.4 0,-0.22 -0.29,-0.4 -0.645,-0.4 -0.709,0 -0.455,-2.866 0.278,-3.133 0.202,-0.074 0.367,-0.479 0.367,-0.9 0,-0.422 0.18,-0.767 0.4,-0.767 0.22,0 0.4,-0.36 0.4,-0.8 0,-0.44 0.18,-0.8 0.4,-0.8 0.22,0 0.4,-0.45 0.4,-1 0,-0.55 0.18,-1 0.4,-1 0.22,0 0.4,-0.36 0.4,-0.8 0,-0.44 0.18,-0.8 0.4,-0.8 0.22,0 0.4,-0.36 0.4,-0.8 0,-0.44 0.18,-0.8 0.4,-0.8 0.22,0 0.4,-0.36 0.4,-0.8 0,-0.44 0.18,-0.8 0.4,-0.8 0.22,0 0.4,-0.349 0.4,-0.776 0,-0.427 0.18,-0.888 0.4,-1.024 0.22,-0.136 0.4,-0.687 0.4,-1.224 0,-0.537 0.18,-0.976 0.4,-0.976 0.22,0 0.4,-0.36 0.4,-0.8 0,-0.44 0.18,-0.8 0.4,-0.8 0.22,0 0.4,-0.36 0.4,-0.8 0,-0.44 0.18,-0.8 0.4,-0.8 0.22,0 0.4,-0.36 0.4,-0.8 0,-0.44 0.18,-0.8 0.4,-0.8 0.22,0 0.4,-0.349 0.4,-0.776 0,-0.427 0.18,-0.888 0.4,-1.024 0.22,-0.136 0.4,-0.597 0.4,-1.024 0,-0.427 0.18,-0.776 0.4,-0.776 0.22,0 0.4,-0.36 0.4,-0.8 0,-0.44 0.18,-0.8 0.4,-0.8 0.22,0 0.4,-0.23 0.4,-0.51 0,-0.281 0.534,-1.586 1.187,-2.9 0.654,-1.315 1.194,-2.705 1.2,-3.09 0.007,-0.385 0.193,-0.7 0.413,-0.7 0.22,0 0.4,-0.36 0.4,-0.8 0,-0.44 0.18,-0.8 0.4,-0.8 0.22,0 0.4,-0.249 0.4,-0.554 0,-0.305 0.269,-1.07 0.598,-1.7 0.328,-0.63 0.598,-1.461 0.6,-1.846 0.001,-0.385 0.182,-0.7 0.402,-0.7 0.22,0 0.4,-0.45 0.4,-1 0,-0.55 0.18,-1 0.4,-1 0.22,0 0.4,-0.36 0.4,-0.8 0,-0.44 0.18,-0.8 0.4,-0.8 0.22,0 0.4,-0.36 0.4,-0.8 0,-0.44 0.18,-0.8 0.4,-0.8 0.22,0 0.4,-0.36 0.4,-0.8 0,-0.44 0.18,-0.8 0.4,-0.8 0.22,0 0.4,-0.349 0.4,-0.776 0,-0.427 0.18,-0.888 0.4,-1.024 0.22,-0.136 0.4,-0.687 0.4,-1.224 0,-0.537 0.18,-0.976 0.4,-0.976 0.22,0 0.4,-0.36 0.4,-0.8 0,-0.44 0.18,-0.8 0.4,-0.8 0.22,0 0.4,-0.36 0.4,-0.8 0,-0.44 0.18,-0.8 0.4,-0.8 0.22,0 0.4,-0.36 0.4,-0.8 0,-0.44 0.18,-0.8 0.4,-0.8 0.22,0 0.4,-0.349 0.4,-0.776 0,-0.427 0.18,-0.888 0.4,-1.024 0.22,-0.136 0.4,-0.597 0.4,-1.024 0,-0.427 0.18,-0.776 0.4,-0.776 0.22,0 0.4,-0.36 0.4,-0.8 0,-0.44 0.18,-0.8 0.4,-0.8 0.234,0 0.4,-1.354 0.4,-3.262 0,-3.411 -1.115,-5.938 -2.62,-5.938 -0.319,0 -0.58,-0.18 -0.58,-0.4 0,-0.235 -1.4,-0.4 -3.4,-0.4 -2,0 -3.4,0.165 -3.4,0.4 m 55.4,16.4 c 0.136,0.22 0.553,0.4 0.926,0.4 1.036,0 25.274,24.452 25.274,25.498 0,0.47 0.18,0.966 0.4,1.102 1.552,0.959 -1.686,7.4 -3.72,7.4 -0.348,0 -0.744,0.18 -0.88,0.4 -0.43,0.696 -3.317,0.433 -4.888,-0.446 -1.571,-0.88 -23.275,-22.397 -24.828,-24.616 -1.593,-2.274 -1.027,-6.399 1.149,-8.368 1.705,-1.543 5.917,-2.421 6.567,-1.37 m -71.814,18.67 c -0.894,2.003 -1.968,4.364 -3.699,8.13 -0.556,1.21 -1.41,3.1 -1.897,4.2 -0.488,1.1 -1.746,3.89 -2.798,6.2 -2.871,6.309 -3.815,8.4 -4.783,10.6 -0.484,1.1 -1.479,3.26 -2.211,4.8 -3.566,7.5 -2.741,9.601 4.955,12.621 2.336,0.917 4.787,1.903 5.447,2.19 0.66,0.288 3.54,1.451 6.4,2.585 6.953,2.757 6.858,2.616 3.529,5.237 -1.501,1.181 -2.819,2.251 -2.929,2.376 -0.11,0.126 -2.09,1.742 -4.4,3.591 -2.31,1.849 -4.29,3.467 -4.4,3.596 -0.11,0.129 -3.08,2.558 -6.6,5.4 -3.52,2.841 -6.49,5.265 -6.6,5.387 -0.11,0.122 -0.83,0.695 -1.6,1.274 -0.77,0.579 -1.79,1.388 -2.266,1.798 -1.392,1.197 -1.914,1.622 -10.734,8.74 -4.62,3.728 -8.641,7.012 -8.935,7.298 -0.294,0.285 -1.194,1.01 -2,1.611 -0.806,0.6 -1.555,1.192 -1.665,1.314 -0.11,0.123 -1.48,1.249 -3.044,2.503 -3.504,2.807 -4.614,3.078 -3.042,0.741 0.393,-0.584 0.964,-1.557 1.268,-2.162 0.304,-0.605 0.703,-1.1 0.886,-1.1 0.182,0 0.332,-0.188 0.332,-0.418 0,-0.23 0.9,-1.752 2,-3.382 1.1,-1.63 2,-3.152 2,-3.382 0,-0.23 0.18,-0.418 0.4,-0.418 0.22,0 0.4,-0.171 0.4,-0.38 0,-0.209 1.371,-2.504 3.047,-5.1 1.676,-2.596 3.443,-5.35 3.928,-6.12 0.485,-0.77 2.083,-3.244 3.553,-5.497 1.47,-2.253 2.672,-4.263 2.672,-4.466 0,-0.204 0.143,-0.43 0.319,-0.504 1.374,-0.574 2.285,-4.547 1.483,-6.467 -1.108,-2.652 -1.41,-2.836 -10.602,-6.466 -3.19,-1.26 -6.34,-2.525 -7,-2.812 -0.66,-0.287 -2.01,-0.827 -3,-1.199 -5.958,-2.239 -6.758,-0.717 7.142,-13.589 1.663,-1.54 4.472,-4.163 6.241,-5.83 1.769,-1.666 4.477,-4.173 6.017,-5.57 1.54,-1.398 4.161,-3.815 5.824,-5.371 6.622,-6.196 14.298,-13.344 16.569,-15.429 1.318,-1.21 3.569,-3.31 5.002,-4.667 5.825,-5.517 6.547,-5.797 4.791,-1.863 m 59.007,3.553 c 1.783,0.745 19.685,18.423 20.966,20.704 2.579,4.592 -0.429,9.473 -5.837,9.473 -1.681,0 -2.922,-0.17 -2.922,-0.4 0,-0.22 -0.226,-0.4 -0.503,-0.4 -0.587,0 -19.468,-18.968 -20.202,-20.295 -2.794,-5.05 3.092,-11.341 8.498,-9.082"
       stroke="none"
       fill="#040404"
       fill-rule="evenodd" />
    <path
       id="path3"
       d="m 303.936,34.253 c -2.984,2.605 -7.858,7.347 -7.552,7.347 0.161,0 0.635,-0.38 1.054,-0.845 2.416,-2.681 7.881,-7.281 7.669,-6.455 -0.319,1.237 0.024,1.134 0.514,-0.155 0.603,-1.586 0.228,-1.562 -1.685,0.108 m -1.664,6.366 c -0.94,1.97 -0.808,2.305 0.175,0.443 0.446,-0.846 0.74,-1.608 0.654,-1.695 -0.087,-0.086 -0.46,0.477 -0.829,1.252 m -9.672,4.1 c -1.1,1.049 -5.51,5.159 -9.8,9.133 -4.29,3.974 -8.06,7.567 -8.378,7.986 -0.317,0.419 0.493,-0.24 1.8,-1.465 1.308,-1.225 3.458,-3.221 4.778,-4.434 7.995,-7.353 14.062,-13.123 13.8,-13.127 -0.11,-10e-4 -1.1,0.857 -2.2,1.907 m 6.423,3.087 c -0.863,2.066 -0.749,2.3 0.224,0.456 0.446,-0.846 0.718,-1.63 0.605,-1.743 -0.113,-0.113 -0.486,0.466 -0.829,1.287 m -2.011,4.406 c -0.557,1.216 -1.005,2.341 -0.996,2.5 0.02,0.365 1.113,-1.644 1.84,-3.384 0.919,-2.201 0.242,-1.492 -0.844,0.884 m -1.989,4.394 c -0.863,2.066 -0.749,2.3 0.224,0.456 0.446,-0.846 0.718,-1.63 0.605,-1.743 -0.113,-0.113 -0.486,0.466 -0.829,1.287 m -24.356,8.461 c -1.503,1.43 -2.672,2.661 -2.599,2.734 0.073,0.074 1.363,-1.037 2.865,-2.468 1.503,-1.43 2.672,-2.661 2.599,-2.734 -0.073,-0.074 -1.363,1.037 -2.865,2.468 m 20.338,0.333 c -0.333,0.77 -0.877,2.03 -1.21,2.8 -0.333,0.77 -0.516,1.4 -0.406,1.4 0.11,0 0.473,-0.63 0.806,-1.4 0.333,-0.77 0.877,-2.03 1.21,-2.8 0.333,-0.77 0.516,-1.4 0.406,-1.4 -0.11,0 -0.473,0.63 -0.806,1.4 m -26.065,5.008 c -1.353,1.315 -2.338,2.392 -2.188,2.392 0.15,0 1.342,-1.08 2.648,-2.4 3.074,-3.106 2.736,-3.1 -0.46,0.008 m 23.31,1.183 c -0.903,2.256 -0.763,2.592 0.187,0.451 0.429,-0.967 0.708,-1.83 0.621,-1.917 -0.087,-0.087 -0.45,0.573 -0.808,1.466 m -29.196,4.226 c -1.51,1.421 -2.56,2.583 -2.333,2.583 0.227,0 0.472,-0.135 0.546,-0.3 0.073,-0.165 1.245,-1.335 2.603,-2.6 1.359,-1.265 2.349,-2.292 2.2,-2.283 -0.148,0.01 -1.506,1.18 -3.016,2.6 M 128.3,74.3 c 4.675,0.064 12.325,0.064 17,0 4.675,-0.064 0.85,-0.117 -8.5,-0.117 -9.35,0 -13.175,0.053 -8.5,0.117 m 161.04,5.164 c 1.029,1.14 2.983,2.182 2.437,1.299 -0.123,-0.2 -0.429,-0.363 -0.679,-0.363 -0.25,0 -1.004,-0.495 -1.676,-1.1 l -1.222,-1.1 1.14,1.264 m -36.869,2.54 c -1.831,1.748 -3.215,3.362 -3.076,3.587 0.39,0.632 1.008,0.483 0.754,-0.181 -0.125,-0.324 0.023,-0.819 0.328,-1.1 3.162,-2.91 5.803,-5.508 5.588,-5.498 -0.146,0.007 -1.763,1.443 -3.594,3.192 m 57.487,6.433 c 0.967,0.429 1.83,0.708 1.917,0.621 0.173,-0.172 -2.91,-1.476 -3.383,-1.43 -0.161,0.016 0.499,0.38 1.466,0.809 m -51.125,0.93 c 0.154,0.154 1.176,0.574 6.567,2.701 1.1,0.434 1.82,0.623 1.6,0.42 -0.684,-0.632 -8.767,-3.721 -8.167,-3.121 m 51.995,1.34 c -1.563,1.245 -4.65,4.135 -3.428,3.21 2.668,-2.02 5.31,-4.291 5,-4.298 -0.11,-0.002 -0.818,0.487 -1.572,1.088 m -37.894,5 c 0.696,0.719 1.343,1.257 1.437,1.196 0.228,-0.149 -2.04,-2.503 -2.412,-2.503 -0.16,0 0.279,0.588 0.975,1.307 m 30.188,1.217 c -1.692,1.362 -3.087,2.623 -3.1,2.804 -0.022,0.329 5.84,-4.38 6.221,-4.998 0.35,-0.566 0.043,-0.35 -3.121,2.194 M 274.909,100 c 0,0.99 0.078,1.395 0.173,0.9 0.096,-0.495 0.096,-1.305 0,-1.8 -0.095,-0.495 -0.173,-0.09 -0.173,0.9 m 23.491,0.86 c -0.55,0.458 -1.349,1.078 -1.776,1.377 -0.427,0.3 -0.696,0.624 -0.599,0.721 0.097,0.097 0.986,-0.524 1.975,-1.379 1.851,-1.599 2.191,-2.211 0.4,-0.719 m -24.947,3.24 -0.72,1.3 0.825,-1 c 0.731,-0.887 1.056,-1.6 0.728,-1.6 -0.062,0 -0.437,0.585 -0.833,1.3 m 20.147,0.745 c -0.99,0.904 -1.441,1.398 -1.003,1.099 1.033,-0.705 3.263,-2.74 3.003,-2.741 -0.11,0 -1.01,0.738 -2,1.642 m -6.475,5.12 c -2.351,1.889 -4.286,3.58 -4.3,3.758 -0.014,0.177 1.91,-1.253 4.275,-3.178 2.365,-1.925 4.375,-3.555 4.467,-3.622 0.091,-0.068 0.091,-0.184 0,-0.258 -0.092,-0.075 -2.091,1.41 -4.442,3.3 M 270.322,108.9 c -1.604,2.419 -2.428,3.9 -2.172,3.9 0.145,0 2.293,-3.28 3.602,-5.5 0.821,-1.392 -0.217,-0.23 -1.43,1.6 m 10.029,6.734 -1.751,1.634 1.9,-1.482 c 1.736,-1.354 2.159,-1.786 1.751,-1.786 -0.081,0 -0.936,0.735 -1.9,1.634 m -15.719,2.204 c -1.259,1.892 -2.207,3.52 -2.108,3.619 0.099,0.1 0.95,-1.043 1.891,-2.538 0.941,-1.496 1.973,-3.124 2.294,-3.619 0.321,-0.495 0.499,-0.9 0.397,-0.9 -0.102,0 -1.216,1.547 -2.474,3.438 M 70.8,115.325 c 0,0.069 0.585,0.654 1.3,1.3 l 1.3,1.175 -1.175,-1.3 C 71.13,115.288 70.8,115.016 70.8,115.325 m 3.383,21.475 c 0,9.35 0.053,13.175 0.117,8.5 0.064,-4.675 0.064,-12.325 0,-17 -0.064,-4.675 -0.117,-0.85 -0.117,8.5 m 193.743,-11.27 c -3.45,2.789 -6.285,5.206 -6.3,5.373 -0.028,0.327 11.658,-9.04 12.414,-9.951 0.824,-0.993 0.236,-0.553 -6.114,4.578 m -7.201,-1.43 c -2.53,3.828 -2.819,4.3 -2.628,4.3 0.167,0 1.262,-1.577 3.68,-5.3 0.393,-0.605 0.63,-1.1 0.526,-1.1 -0.105,0 -0.814,0.945 -1.578,2.1 m -4.623,7.217 c -0.439,0.744 -1.112,1.832 -1.496,2.418 -0.384,0.586 -0.613,1.065 -0.509,1.065 0.317,0 3.174,-4.462 2.982,-4.655 -0.099,-0.098 -0.539,0.429 -0.977,1.172 m 3.098,1.517 -1.8,1.631 1.9,-1.481 c 1.666,-1.298 2.159,-1.787 1.8,-1.783 -0.055,0.001 -0.91,0.735 -1.9,1.633 m -4,3.215 c -1.081,0.977 -1.321,1.309 -0.6,0.832 1.106,-0.732 2.937,-2.497 2.562,-2.469 -0.089,0.007 -0.972,0.743 -1.962,1.637 m -3,1.551 c -0.602,1.165 -0.445,1.496 0.425,0.894 0.355,-0.246 0.62,-2.094 0.3,-2.094 -0.058,0 -0.384,0.54 -0.725,1.2 M 86.2,166 c 0.859,0.88 1.652,1.6 1.762,1.6 0.11,0 -0.503,-0.72 -1.362,-1.6 -0.859,-0.88 -1.652,-1.6 -1.762,-1.6 -0.11,0 0.503,0.72 1.362,1.6 m 16.4,16.4 c 0.859,0.88 1.652,1.6 1.762,1.6 0.11,0 -0.503,-0.72 -1.362,-1.6 -0.859,-0.88 -1.652,-1.6 -1.762,-1.6 -0.11,0 0.503,0.72 1.362,1.6 m 15.8,15.725 c 0,0.069 0.585,0.654 1.3,1.3 l 1.3,1.175 -1.175,-1.3 c -1.095,-1.212 -1.425,-1.484 -1.425,-1.175 M 245.8,219.6 c 1.75,1.76 3.271,3.2 3.381,3.2 0.11,0 -1.231,-1.44 -2.981,-3.2 -1.75,-1.76 -3.271,-3.2 -3.381,-3.2 -0.11,0 1.231,1.44 2.981,3.2 m 57.6,4.4 c 1.75,1.76 3.271,3.2 3.381,3.2 0.11,0 -1.231,-1.44 -2.981,-3.2 -1.75,-1.76 -3.271,-3.2 -3.381,-3.2 -0.11,0 1.231,1.44 2.981,3.2 m 12,12 c 4.176,4.18 7.682,7.6 7.792,7.6 0.11,0 -3.216,-3.42 -7.392,-7.6 -4.176,-4.18 -7.682,-7.6 -7.792,-7.6 -0.11,0 3.216,3.42 7.392,7.6 m -23.895,-2.917 c 0.497,0.096 1.217,0.092 1.6,-0.008 0.382,-0.1 -0.025,-0.179 -0.905,-0.174 -0.88,0.004 -1.193,0.086 -0.695,0.182 m 6.588,6.117 c 0,0.77 0.082,1.085 0.183,0.7 0.1,-0.385 0.1,-1.015 0,-1.4 -0.101,-0.385 -0.183,-0.07 -0.183,0.7 M 227.8,254.4 c 6.377,6.38 11.685,11.6 11.795,11.6 0.11,0 -5.018,-5.22 -11.395,-11.6 -6.377,-6.38 -11.685,-11.6 -11.795,-11.6 -0.11,0 5.018,5.22 11.395,11.6 m 97.983,8.8 c 0,9.35 0.053,13.175 0.117,8.5 0.064,-4.675 0.064,-12.325 0,-17 -0.064,-4.675 -0.117,-0.85 -0.117,8.5 m -40.874,-10 c 0,0.99 0.078,1.395 0.173,0.9 0.096,-0.495 0.096,-1.305 0,-1.8 -0.095,-0.495 -0.173,-0.09 -0.173,0.9 M 192.893,270 c 0,0.77 0.082,1.085 0.183,0.7 0.1,-0.385 0.1,-1.015 0,-1.4 -0.101,-0.385 -0.183,-0.07 -0.183,0.7 M 203,282.8 c 1.971,1.98 3.673,3.6 3.783,3.6 0.11,0 -1.412,-1.62 -3.383,-3.6 -1.971,-1.98 -3.673,-3.6 -3.783,-3.6 -0.11,0 1.412,1.62 3.383,3.6 m 32.8,32.8 c 1.971,1.98 3.673,3.6 3.783,3.6 0.11,0 -1.412,-1.62 -3.383,-3.6 -1.971,-1.98 -3.673,-3.6 -3.783,-3.6 -0.11,0 1.412,1.62 3.383,3.6 m 18.927,10.3 c 4.69,0.064 12.25,0.064 16.8,-10e-4 4.55,-0.064 0.713,-0.116 -8.527,-0.116 -9.24,0 -12.963,0.053 -8.273,0.117"
       stroke="none"
       fill="#5e352d"
       fill-rule="evenodd" />
    <path
       id="path4"
       d="m 57.4,16.822 c -1.457,1.429 -1.004,1.585 0.513,0.178 0.594,-0.55 1.261,-1 1.484,-1 0.223,0 10.754,10.35 23.403,23 12.649,12.65 23.092,23 23.207,23 C 106.122,62 95.77,51.56 83.003,38.8 70.236,26.04 59.523,15.61 59.195,15.623 58.868,15.635 58.06,16.175 57.4,16.822 m -2.798,2.776 c -0.399,0.441 -0.595,0.802 -0.435,0.802 0.421,0 1.561,-1.205 1.345,-1.421 -0.101,-0.101 -0.51,0.177 -0.91,0.619 m -2.004,2.004 c -1.04,1.149 -0.578,1.278 0.516,0.144 0.503,-0.52 0.756,-0.946 0.562,-0.946 -0.194,0 -0.679,0.361 -1.078,0.802 m -1.996,1.996 c -0.399,0.441 -0.595,0.802 -0.435,0.802 0.421,0 1.561,-1.205 1.345,-1.421 -0.101,-0.101 -0.51,0.177 -0.91,0.619 m -7.151,7.239 c -3.273,3.279 -5.793,5.954 -5.6,5.944 0.192,-0.01 3.049,-2.708 6.349,-5.994 3.3,-3.287 5.82,-5.962 5.6,-5.945 -0.22,0.017 -3.077,2.715 -6.349,5.995 M 30.672,43.68 c -3.26,3.299 -5.857,6.069 -5.771,6.155 0.086,0.086 2.822,-2.549 6.079,-5.855 3.257,-3.306 5.854,-6.076 5.771,-6.155 -0.083,-0.079 -2.818,2.556 -6.079,5.855 m -7.27,7.118 c -0.399,0.441 -0.595,0.802 -0.435,0.802 0.421,0 1.561,-1.205 1.345,-1.421 -0.101,-0.101 -0.51,0.177 -0.91,0.619 m -2.004,2.004 c -1.04,1.149 -0.578,1.278 0.516,0.144 C 22.417,52.426 22.67,52 22.476,52 c -0.194,0 -0.679,0.361 -1.078,0.802 m -1.996,1.996 c -0.399,0.441 -0.595,0.802 -0.435,0.802 0.421,0 1.561,-1.205 1.345,-1.421 -0.101,-0.101 -0.51,0.177 -0.91,0.619 m -2.736,2.798 C 16.08,58.255 15.6,59.02 15.6,59.298 c 0,0.277 12.888,13.374 28.641,29.103 19.502,19.475 28.88,29.109 29.391,30.199 0.638,1.359 0.752,1.451 0.759,0.612 C 74.398,118.432 68.248,112.067 45.2,89.005 29.14,72.936 16,59.608 16,59.39 c 0,-0.219 0.468,-0.903 1.04,-1.52 0.573,-0.617 0.963,-1.201 0.867,-1.296 -0.096,-0.096 -0.654,0.364 -1.241,1.022 m 96.328,3.683 c -0.877,0.483 -2.494,0.998 -3.594,1.144 l -2,0.264 1.707,0.057 c 1.474,0.048 5.693,-1.572 5.693,-2.186 0,-0.255 -0.131,-0.202 -1.806,0.721 m 2.677,3.48 c -0.479,0.852 -0.871,1.781 -0.871,2.063 0,0.283 0.444,-0.363 0.986,-1.435 1.19,-2.349 1.107,-2.801 -0.115,-0.628 m -0.871,4.798 c 0,1.653 3.044,4.843 4.623,4.843 0.427,0 -0.01,-0.385 -1.021,-0.9 -1.255,-0.639 -2.033,-1.41 -2.684,-2.663 -0.505,-0.97 -0.918,-1.546 -0.918,-1.28 m 22.6,5.142 16.4,0.109 12.981,12.896 c 7.14,7.093 12.63,12.461 12.2,11.928 -0.43,-0.532 -6.223,-6.427 -12.875,-13.1 L 154.012,74.4 137.506,74.495 121,74.591 l 16.4,0.108 m 18.725,26.001 c -0.419,0.385 -0.565,0.572 -0.322,0.416 0.242,-0.156 0.88,-0.46 1.419,-0.675 0.618,-0.247 0.737,-0.4 0.322,-0.416 -0.36,-0.014 -0.999,0.29 -1.419,0.675 m 5.875,0.091 c 0.77,0.415 4.811,4.179 8.979,8.365 7.36,7.39 8.664,8.344 8.609,6.295 -0.007,-0.248 -0.2,-0.129 -0.429,0.264 -0.365,0.628 -0.939,0.189 -4.704,-3.6 -8.025,-8.076 -12.41,-12.115 -13.133,-12.097 -0.472,0.011 -0.238,0.279 0.678,0.773 m -8.372,2.354 c -0.504,0.988 -0.806,2.295 -0.772,3.339 l 0.057,1.716 0.247,-2.024 c 0.136,-1.112 0.575,-2.523 0.976,-3.134 0.4,-0.611 0.636,-1.203 0.524,-1.315 -0.112,-0.113 -0.577,0.526 -1.032,1.418 m 27.761,4.455 c 0,1.76 0.125,2.885 0.278,2.5 0.152,-0.385 0.277,-1.51 0.277,-2.5 0,-0.99 -0.125,-2.115 -0.277,-2.5 -0.153,-0.385 -0.278,0.74 -0.278,2.5 m -8.498,21.4 c 11.93,11.999 19.388,19.8 19.884,20.8 0.436,0.88 0.8,1.366 0.809,1.08 0.041,-1.331 -2.375,-3.914 -20.458,-21.88 L 153.8,109.8 172.891,129 m -98.396,8.477 -0.095,16.476 26.198,26.18 c 24.106,24.088 27.631,27.372 28.478,26.525 0.1,-0.1 -0.333,-0.295 -0.961,-0.433 -0.822,-0.18 -8.464,-7.573 -27.226,-26.338 L 74.807,153.8 74.699,137.4 74.591,121 74.495,137.477 m 118.493,16.628 c -0.985,3.926 -5.752,4.853 -10.15,1.973 -5.842,-3.826 -12.226,0.309 -10.434,6.759 0.353,1.273 7.196,9.054 7.196,8.183 0,-0.157 -1.502,-1.847 -3.337,-3.755 -3.651,-3.795 -4.246,-5.156 -3.486,-7.978 1.152,-4.281 5.727,-5.716 9.683,-3.038 3.894,2.636 6.728,2.796 9.118,0.512 1.221,-1.167 2.241,-3.075 1.853,-3.464 -0.106,-0.105 -0.305,0.258 -0.443,0.808 M 179.612,172 c 0,0.33 0.175,0.87 0.388,1.2 0.345,0.533 0.388,0.533 0.388,0 0,-0.33 -0.175,-0.87 -0.388,-1.2 -0.345,-0.533 -0.388,-0.533 -0.388,0 m -20.884,0.561 c -4.392,1.568 -5.512,5.908 -2.65,10.277 1.468,2.241 1.68,2.849 1.693,4.856 0.012,1.702 0.103,2.064 0.354,1.4 0.596,-1.571 0.001,-3.805 -1.686,-6.33 -2.33,-3.49 -2.252,-5.744 0.291,-8.47 2.806,-3.009 5.977,-2.416 10.535,1.969 1.908,1.835 3.598,3.337 3.755,3.337 0.157,0 -1.297,-1.529 -3.23,-3.398 -4.288,-4.146 -5.87,-4.781 -9.062,-3.641 M 179.8,175.6 c -0.15,0.473 -0.183,0.95 -0.073,1.06 0.11,0.11 0.323,-0.187 0.473,-0.66 0.15,-0.473 0.183,-0.95 0.073,-1.06 -0.11,-0.11 -0.323,0.187 -0.473,0.66 m -1.625,2.852 c -0.98,1.043 -1.027,1.175 -0.284,0.791 0.49,-0.254 1.081,-0.817 1.314,-1.252 0.592,-1.106 0.331,-0.989 -1.03,0.461 m -6.037,1.642 c 0.254,0.162 1.182,0.294 2.062,0.294 0.88,0 1.808,-0.132 2.062,-0.294 0.254,-0.162 -0.674,-0.294 -2.062,-0.294 -1.388,0 -2.316,0.132 -2.062,0.294 m -35.235,5.553 c -1.345,0.388 -4.103,2.834 -4.103,3.638 0,0.253 0.641,-0.289 1.423,-1.204 1.564,-1.827 3.565,-2.613 5.823,-2.287 1.155,0.166 1.207,0.143 0.354,-0.16 -1.276,-0.452 -1.895,-0.45 -3.497,0.013 m 8.136,3.653 c 3.278,3.163 5.325,4.52 6.304,4.179 0.252,-0.087 -0.145,-0.294 -0.88,-0.459 -0.894,-0.2 -2.51,-1.412 -4.882,-3.66 -1.95,-1.848 -3.64,-3.36 -3.754,-3.36 -0.115,0 1.331,1.485 3.212,3.3 m -12.53,2.7 c 0,0.99 0.078,1.395 0.173,0.9 0.096,-0.495 0.096,-1.305 0,-1.8 -0.095,-0.495 -0.173,-0.09 -0.173,0.9 m 23.691,-0.4 c -0.632,0.66 -1.431,1.203 -1.775,1.206 -0.344,0.003 -0.895,0.198 -1.225,0.432 -0.456,0.324 -0.311,0.365 0.6,0.171 0.985,-0.21 4.49,-3.009 3.768,-3.009 -0.12,0 -0.736,0.54 -1.368,1.2 m -23.399,2.621 c 0,0.232 0.555,1.177 1.234,2.1 0.679,0.924 1.383,2.174 1.565,2.779 0.247,0.819 0.339,0.895 0.364,0.3 0.017,-0.44 -0.282,-1.267 -0.666,-1.837 -0.384,-0.57 -1.102,-1.65 -1.597,-2.4 -0.494,-0.75 -0.899,-1.173 -0.9,-0.942 m 2.853,7.865 c -0.073,1.466 -2.188,3.791 -3.771,4.146 -0.706,0.158 -1.066,0.363 -0.801,0.455 1.622,0.563 5.152,-2.933 4.804,-4.758 -0.161,-0.842 -0.182,-0.828 -0.232,0.157 M 245.6,206.83 c -0.446,0.311 -0.264,0.352 0.709,0.161 3.187,-0.629 4.315,-0.029 9.678,5.146 l 5.013,4.836 -4.6,-4.728 c -5.446,-5.598 -8.407,-7.082 -10.8,-5.415 m -2.204,1.574 c -0.63,0.658 -1.03,1.196 -0.889,1.196 0.365,0 2.373,-2.053 2.188,-2.238 -0.084,-0.085 -0.669,0.384 -1.299,1.042 m -1.63,3.035 c -0.476,2.539 0.342,4.094 4.137,7.868 l 3.527,3.507 2.491,-1.207 c 1.371,-0.664 2.557,-1.207 2.637,-1.207 0.42,0 4.668,-2.107 4.529,-2.246 -0.157,-0.157 -7.236,2.958 -8.865,3.9 -2.135,1.235 -8.625,-7.537 -7.977,-10.781 0.14,-0.7 0.151,-1.273 0.023,-1.273 -0.127,0 -0.353,0.647 -0.502,1.439 m 48.142,6.892 c -0.381,0.151 0.775,0.286 2.57,0.301 1.851,0.016 2.929,-0.103 2.492,-0.274 -0.962,-0.377 -4.137,-0.394 -5.062,-0.027 M 286.4,219.6 c -0.77,0.422 -1.287,0.774 -1.149,0.783 0.414,0.028 3.149,-1.178 3.149,-1.388 0,-0.349 -0.575,-0.175 -2,0.605 m 10.033,-0.651 c 0.412,0.368 2.767,1.451 2.767,1.272 0,-0.231 -2.218,-1.421 -2.647,-1.421 -0.157,0 -0.211,0.067 -0.12,0.149 m -72.695,0.957 c -0.254,0.162 0.674,0.294 2.062,0.294 1.388,0 2.316,-0.132 2.062,-0.294 -0.254,-0.162 -1.182,-0.294 -2.062,-0.294 -0.88,0 -1.808,0.132 -2.062,0.294 M 222,220.913 c -0.33,0.268 -0.863,0.847 -1.185,1.287 -0.321,0.44 -0.006,0.271 0.7,-0.375 1.152,-1.053 1.485,-1.45 1.185,-1.412 -0.055,0.007 -0.37,0.232 -0.7,0.5 m 6.95,-0.193 c 0.16,0.258 1.119,1.04 2.132,1.737 2.397,1.649 1.958,0.938 -0.519,-0.841 -1.047,-0.751 -1.772,-1.155 -1.613,-0.896 m 53.85,0.48 c -0.77,0.422 -1.287,0.774 -1.149,0.783 0.414,0.028 3.149,-1.178 3.149,-1.388 0,-0.349 -0.575,-0.175 -2,0.605 m 29.496,12.015 12.896,12.985 0.109,16.4 0.108,16.4 0.096,-16.423 0.095,-16.422 -12.816,-12.778 c -7.048,-7.027 -12.943,-12.86 -13.1,-12.962 -0.156,-0.101 5.519,5.659 12.612,12.8 m -92.453,-9.382 c -0.335,0.872 -0.294,3.467 0.063,4.029 0.162,0.254 0.294,-0.691 0.294,-2.1 0,-2.811 -0.006,-2.844 -0.357,-1.929 m 13.574,0.942 c 1.313,1.635 9.035,9.307 9.2,9.141 0.086,-0.085 -2.125,-2.396 -4.913,-5.136 -2.789,-2.739 -4.717,-4.541 -4.287,-4.005 M 274,225.2 c -0.77,0.422 -1.287,0.774 -1.149,0.783 0.414,0.028 3.149,-1.178 3.149,-1.388 0,-0.349 -0.575,-0.175 -2,0.605 m -3.4,1.578 c -0.88,0.417 -1.403,0.772 -1.161,0.79 0.489,0.036 2.961,-1.13 2.961,-1.397 0,-0.241 -0.024,-0.233 -1.8,0.607 m -3.2,1.411 c -0.66,0.315 -2.235,1.036 -3.5,1.603 -2.219,0.995 -3.241,1.753 -1.4,1.039 1.85,-0.718 6.3,-2.87 6.3,-3.047 0,-0.253 -0.042,-0.241 -1.4,0.405 m -47,0.917 c 0,1.241 29.106,29.309 30.36,29.278 0.352,-0.009 -0.037,-0.354 -0.864,-0.767 -0.856,-0.428 -7.533,-6.788 -15.5,-14.764 C 226.698,235.146 220.4,228.96 220.4,229.106 m 38.3,3.022 c -1.39,0.637 -1.888,1.086 -1.854,1.671 0.033,0.558 0.098,0.612 0.215,0.176 0.093,-0.343 1.107,-1.097 2.254,-1.675 2.514,-1.268 2.055,-1.396 -0.615,-0.172 m 29.9,1.072 -0.8,0.344 h 0.8 c 0.44,0 1.16,-0.155 1.6,-0.344 l 0.8,-0.344 h -0.8 c -0.44,0 -1.16,0.155 -1.6,0.344 m 6.377,0.507 c 2.597,1.472 3.663,4.022 3.096,7.407 -0.653,3.895 -0.934,11.02 -0.572,14.486 0.254,2.438 0.317,1.652 0.335,-4.2 0.013,-4.078 0.244,-8.359 0.533,-9.872 0.754,-3.944 -0.32,-6.642 -3.249,-8.166 -1.747,-0.909 -1.863,-0.63 -0.143,0.345 M 285.4,234 l -0.8,0.344 h 0.8 c 0.44,0 1.16,-0.155 1.6,-0.344 l 0.8,-0.344 H 287 c -0.44,0 -1.16,0.155 -1.6,0.344 m -3.2,0.8 -0.8,0.344 h 0.8 c 0.44,0 1.16,-0.155 1.6,-0.344 l 0.8,-0.344 h -0.8 c -0.44,0 -1.16,0.155 -1.6,0.344 m -9.8,2.447 c -9.203,2.351 -10.85,2.385 -13.17,0.271 l -1.43,-1.303 1.401,1.487 c 2.237,2.374 3.47,2.364 13.406,-0.1 4.616,-1.145 8.468,-2.154 8.56,-2.242 0.396,-0.38 -1.428,0.012 -8.767,1.887 m -61.793,4.719 c -0.501,0.196 0.088,0.298 1.605,0.277 3.159,-0.043 2.634,-0.472 16.488,13.454 6.435,6.468 11.7,11.664 11.7,11.547 0,-0.605 -24.389,-24.611 -25.487,-25.086 -1.399,-0.606 -3.056,-0.68 -4.306,-0.192 m -2.436,1.737 -1.171,1.294 1.2,-0.998 c 0.66,-0.55 1.275,-1.044 1.367,-1.099 0.091,-0.055 0.078,-0.188 -0.029,-0.296 -0.108,-0.108 -0.723,0.387 -1.367,1.099 m 38.629,-1.097 c 0,0.415 1.81,2.984 2.106,2.989 0.168,0.003 -0.171,-0.715 -0.753,-1.595 -0.998,-1.507 -1.353,-1.873 -1.353,-1.394 M 206.6,246 c -0.15,0.473 -0.183,0.95 -0.073,1.06 0.11,0.11 0.323,-0.187 0.473,-0.66 0.15,-0.473 0.183,-0.95 0.073,-1.06 -0.11,-0.11 -0.323,0.187 -0.473,0.66 m 44.6,1.993 c 1.592,1.332 4.518,2.985 6,3.389 0.55,0.15 -0.265,-0.373 -1.812,-1.162 -1.546,-0.789 -3.293,-1.881 -3.882,-2.427 -0.589,-0.546 -1.214,-0.988 -1.389,-0.982 -0.174,0.006 0.313,0.538 1.083,1.182 m 31,0.026 c -0.57,0.258 -0.369,0.295 0.7,0.127 l 1.5,-0.235 0.03,3.744 c 0.016,2.06 0.189,4.555 0.383,5.545 0.289,1.468 0.32,1.216 0.171,-1.36 -0.101,-1.739 -0.184,-4.304 -0.184,-5.7 0,-2.733 -0.447,-3.097 -2.6,-2.121 m -3.6,0.77 c -0.44,0.185 -1.43,0.522 -2.2,0.751 l -1.4,0.415 1.522,-0.226 c 2.27,-0.337 5.124,-1.276 3.878,-1.275 -0.55,0 -1.36,0.151 -1.8,0.335 m -72.18,0.331 c -0.011,0.286 0.237,1.006 0.551,1.6 0.533,1.007 24.206,24.88 24.672,24.88 0.117,0 -5.151,-5.345 -11.707,-11.877 -7.55,-7.523 -12.208,-12.472 -12.708,-13.5 -0.433,-0.893 -0.797,-1.389 -0.808,-1.103 m 65.98,1.28 c -0.795,0.514 0.204,0.514 1.4,0 l 0.8,-0.344 -0.8,-0.022 c -0.44,-0.012 -1.07,0.153 -1.4,0.366 m -3,0.8 c -1.019,0.438 0.032,0.438 1.4,0 0.804,-0.257 0.843,-0.323 0.2,-0.332 -0.44,-0.006 -1.16,0.143 -1.6,0.332 m -10.124,0.86 c 0.508,0.143 2.364,0.26 4.124,0.26 1.76,0 3.616,-0.117 4.124,-0.26 0.508,-0.143 -1.348,-0.26 -4.124,-0.26 -2.776,0 -4.632,0.117 -4.124,0.26 m 0.124,2.808 c -0.66,0.239 -1.825,0.906 -2.589,1.483 -0.764,0.577 -1.844,1.272 -2.4,1.545 l -1.011,0.496 1,-0.249 c 0.55,-0.138 1.63,-0.74 2.4,-1.34 3.658,-2.848 6.826,-2.398 9.837,1.397 0.439,0.553 0.408,0.38 -0.101,-0.561 -1.223,-2.263 -4.753,-3.634 -7.136,-2.771 m 38.64,4.218 c -0.082,0.999 1.279,4.362 2.301,5.689 0.583,0.756 1.278,1.746 1.545,2.2 0.267,0.454 0.492,0.614 0.5,0.356 0.008,-0.258 -0.411,-0.978 -0.93,-1.6 -1.166,-1.398 -2.184,-3.354 -2.861,-5.497 -0.284,-0.899 -0.534,-1.415 -0.555,-1.148 m -30.72,2.114 c 0,1.21 0.075,1.705 0.167,1.1 0.091,-0.605 0.091,-1.595 0,-2.2 -0.092,-0.605 -0.167,-0.11 -0.167,1.1 m 17.96,-0.8 c 0,0.55 0.144,1.45 0.32,2 l 0.32,1 v -1 c 0,-0.55 -0.144,-1.45 -0.32,-2 l -0.32,-1 v 1 m -19.407,4.612 c -0.619,0.776 -1.838,1.883 -2.708,2.458 -0.87,0.576 -1.496,1.132 -1.392,1.236 0.356,0.357 4.026,-2.635 4.75,-3.871 0.947,-1.619 0.738,-1.562 -0.65,0.177 m 20.372,-0.312 c 0.969,4.099 5.904,11.322 7.713,11.288 0.499,-0.01 0.464,-0.111 -0.158,-0.454 -2.41,-1.329 -5.532,-5.833 -6.817,-9.834 -0.715,-2.225 -1.175,-2.848 -0.738,-1 m -90.984,0.8 c -0.98,0.895 -1.727,1.984 -1.855,2.7 -0.205,1.153 -0.193,1.147 0.314,-0.163 1.264,-3.27 5.888,-4.813 8.756,-2.922 3.064,2.021 19.861,19.54 20.135,21.001 0.521,2.777 -1.129,6.684 -2.823,6.684 -0.297,0 -0.652,0.18 -0.788,0.4 -0.611,0.989 0.838,0.256 2.214,-1.12 1.684,-1.684 2.247,-3.56 1.795,-5.98 -0.296,-1.583 -18.215,-20.232 -20.689,-21.532 -2.19,-1.151 -5.217,-0.751 -7.059,0.932 m 45.259,4.5 c 0,1.21 0.075,1.705 0.167,1.1 0.091,-0.605 0.091,-1.595 0,-2.2 -0.092,-0.605 -0.167,-0.11 -0.167,1.1 m 62.037,-0.325 c 0.049,2.369 -0.807,4.195 -2.509,5.351 -0.789,0.536 -1.285,0.974 -1.103,0.974 2.232,0 5.137,-5.59 3.91,-7.525 -0.205,-0.322 -0.319,0.14 -0.298,1.2 M 255,270.8 l -1.2,0.305 1.2,0.042 c 0.66,0.022 1.47,-0.134 1.8,-0.347 0.743,-0.48 0.087,-0.48 -1.8,0 m -61.575,1 c 0.264,1.373 0.008,1.092 11.175,12.288 8.328,8.35 9.999,9.846 10.468,9.377 0.134,-0.133 -0.187,-0.413 -0.713,-0.622 -1.414,-0.562 -20.19,-19.637 -20.713,-21.043 l -0.447,-1.2 0.23,1.2 m 46.19,1.372 c -0.858,1.603 -2.757,2.533 -5.15,2.523 -1.865,-0.009 -2.089,0.057 -1.265,0.372 1.181,0.452 3.379,0.108 4.846,-0.758 0.936,-0.553 2.71,-2.909 2.191,-2.909 -0.115,0 -0.395,0.347 -0.622,0.772 m 13.014,1.457 c -0.148,0.586 -0.178,1.155 -0.068,1.265 0.11,0.11 0.32,-0.279 0.468,-0.865 0.147,-0.587 0.177,-1.156 0.067,-1.266 -0.11,-0.11 -0.32,0.279 -0.467,0.866 m 42.655,1.832 c 0.284,0.18 0.876,0.327 1.316,0.327 0.44,0 1.032,-0.147 1.316,-0.327 0.31,-0.198 -0.213,-0.328 -1.316,-0.328 -1.103,0 -1.626,0.13 -1.316,0.328 m -44.093,2.126 c -0.555,1.181 -0.867,2.06 -0.694,1.953 0.478,-0.296 1.967,-3.351 1.826,-3.75 -0.067,-0.192 -0.577,0.617 -1.132,1.797 m 74.409,1.99 c 0,1.579 3.19,4.623 4.843,4.623 0.266,0 -0.31,-0.413 -1.28,-0.918 -1.253,-0.651 -2.024,-1.429 -2.663,-2.684 -0.515,-1.011 -0.9,-1.448 -0.9,-1.021 m -78,2.739 c -1.21,1.154 -2.65,2.416 -3.2,2.803 l -1,0.704 1,-0.473 c 1.262,-0.598 3.703,-2.664 4.811,-4.073 1.226,-1.558 0.87,-1.329 -1.611,1.039 m 90.679,3.858 c -0.373,0.632 -0.678,1.302 -0.678,1.488 10e-4,0.186 0.371,-0.267 0.822,-1.007 0.451,-0.74 0.756,-1.409 0.678,-1.488 -0.079,-0.078 -0.449,0.375 -0.822,1.007 M 239.4,288 l -0.8,0.344 0.8,0.022 c 0.44,0.012 1.07,-0.153 1.4,-0.366 0.795,-0.514 -0.204,-0.514 -1.4,0 m -3.562,0.738 c -0.115,0.186 -0.299,1.131 -0.409,2.1 l -0.199,1.762 0.438,-1.685 c 0.325,-1.244 0.712,-1.784 1.486,-2.068 l 1.046,-0.384 -1.076,-0.031 c -0.592,-0.018 -1.171,0.12 -1.286,0.306 m 101.415,1.743 c -0.095,2.65 0.614,3.444 24.068,26.978 l 23.181,23.259 -10.751,10.796 c -5.913,5.937 -15.76,15.793 -21.883,21.902 l -11.132,11.107 -29.068,-29.019 c -28.451,-28.403 -30.055,-29.922 -31.542,-29.886 -0.399,0.009 -0.017,0.27 0.849,0.578 1.241,0.442 7.756,6.74 30.702,29.679 l 29.128,29.117 21.972,-21.969 c 17.225,-17.223 21.897,-22.105 21.622,-22.596 -0.192,-0.345 -10.545,-10.797 -23.005,-23.227 -12.461,-12.43 -22.85,-23.05 -23.087,-23.6 -0.238,-0.55 -0.56,-1.81 -0.716,-2.8 -0.283,-1.791 -0.284,-1.792 -0.338,-0.319 M 234.6,293.6 c -0.15,0.473 -0.183,0.95 -0.073,1.06 0.11,0.11 0.323,-0.187 0.473,-0.66 0.15,-0.473 0.183,-0.95 0.073,-1.06 -0.11,-0.11 -0.323,0.187 -0.473,0.66 m -2.185,4.576 c -0.953,1.542 -5.043,5.424 -5.714,5.424 -0.239,0 -0.325,0.109 -0.192,0.242 0.653,0.654 5.322,-3.665 6.64,-6.142 0.747,-1.403 0.213,-1.057 -0.734,0.476 m -6.783,6.291 c -0.027,0.56 17.075,18.082 20.022,20.514 0.52,0.43 -3.669,-3.89 -9.31,-9.6 -5.641,-5.709 -10.352,-10.651 -10.469,-10.981 -0.173,-0.49 -0.218,-0.478 -0.243,0.067"
       stroke="none"
       fill="#845c44"
       fill-rule="evenodd" />
    <path
       id="path5"
       d="m 73.4,28.8 c 0.859,0.88 1.652,1.6 1.762,1.6 0.11,0 -0.503,-0.72 -1.362,-1.6 -0.859,-0.88 -1.652,-1.6 -1.762,-1.6 -0.11,0 0.503,0.72 1.362,1.6 m 227.735,7.521 c -2.566,2.354 -4.681,4.43 -4.7,4.614 -0.019,0.185 1.81,-1.407 4.065,-3.536 4.74,-4.477 5.699,-5.148 5.336,-3.733 l -0.24,0.934 0.469,-0.913 c 1.196,-2.329 -0.515,-1.414 -4.93,2.634 m 0.315,6.929 c -0.815,1.788 -1.418,3.315 -1.34,3.394 0.079,0.078 0.809,-1.322 1.623,-3.111 0.815,-1.789 1.417,-3.316 1.34,-3.393 -0.077,-0.078 -0.808,1.322 -1.623,3.11 m -8.193,0.386 c -1.178,1.106 -2.078,2.076 -2,2.155 0.079,0.078 1.182,-0.832 2.453,-2.024 1.27,-1.192 2.17,-2.162 2,-2.155 -0.171,0.006 -1.274,0.917 -2.453,2.024 M 89.8,45.2 c 0.859,0.88 1.652,1.6 1.762,1.6 0.11,0 -0.503,-0.72 -1.362,-1.6 -0.859,-0.88 -1.652,-1.6 -1.762,-1.6 -0.11,0 0.503,0.72 1.362,1.6 m 197,4.471 c -6.349,5.91 -7.19,6.728 -6.908,6.714 0.342,-0.016 9.626,-8.754 9.308,-8.759 -0.11,-0.002 -1.19,0.919 -2.4,2.045 m -14.415,13.561 -3.385,3.231 3.5,-3.116 c 3.227,-2.873 3.706,-3.347 3.385,-3.347 -0.063,0 -1.638,1.454 -3.5,3.232 m -6.786,6.075 c -1.43,1.371 -3.832,3.631 -5.338,5.022 -1.505,1.39 -2.675,2.591 -2.598,2.667 0.076,0.076 1.318,-0.972 2.759,-2.329 1.442,-1.357 3.918,-3.682 5.501,-5.167 1.584,-1.485 2.744,-2.697 2.578,-2.693 -0.165,0.004 -1.471,1.129 -2.902,2.5 M 115.418,69.7 c 0.15,0.495 0.437,1.076 0.638,1.291 0.201,0.215 0.163,-0.19 -0.084,-0.9 -0.507,-1.453 -0.975,-1.783 -0.554,-0.391 M 28.6,73.6 c 0.859,0.88 1.652,1.6 1.762,1.6 0.11,0 -0.503,-0.72 -1.362,-1.6 -0.859,-0.88 -1.652,-1.6 -1.762,-1.6 -0.11,0 0.503,0.72 1.362,1.6 m 259.243,-0.167 c -0.331,0.862 -0.296,2.665 0.063,3.229 0.162,0.254 0.294,-0.511 0.294,-1.7 0,-2.391 -0.01,-2.434 -0.357,-1.529 m -129.45,5.092 c 2.527,2.571 4.678,4.675 4.782,4.675 0.103,0 -0.524,-0.733 -1.394,-1.629 -4.551,-4.689 -6.505,-6.626 -7.206,-7.146 -0.426,-0.316 1.292,1.529 3.818,4.1 M 288.4,77.883 c 0,0.202 0.54,0.885 1.2,1.517 0.66,0.632 1.2,1.045 1.2,0.917 0,-0.128 -0.54,-0.81 -1.2,-1.517 -0.66,-0.707 -1.2,-1.119 -1.2,-0.917 m -36.2,3.889 c -1.76,1.622 -3.11,3.018 -3,3.103 0.11,0.084 1.64,-1.242 3.4,-2.948 4.06,-3.934 3.807,-4.032 -0.4,-0.155 m 43.4,0.442 c 0,0.279 2.906,1.417 3.291,1.289 0.191,-0.064 -0.471,-0.419 -1.472,-0.79 -1,-0.371 -1.819,-0.596 -1.819,-0.499 m 4.2,1.698 c 0.527,0.488 9.851,4.17 10.051,3.97 0.085,-0.085 -1.241,-0.705 -2.948,-1.377 -1.707,-0.672 -4.093,-1.614 -5.303,-2.092 -1.21,-0.479 -2.02,-0.704 -1.8,-0.501 m 11.5,4.717 c 1.228,0.666 1.327,0.957 0.6,1.772 -0.425,0.477 -0.396,0.481 0.2,0.031 0.982,-0.743 0.871,-1.425 -0.319,-1.968 -1.451,-0.661 -1.789,-0.545 -0.481,0.165 m -266.319,1.3 c 0.87,0.919 1.636,1.671 1.704,1.671 0.361,0 -0.953,-1.531 -2.034,-2.371 -1.048,-0.813 -0.995,-0.7 0.33,0.7 m 129.014,4.179 c 3.187,3.241 5.867,5.892 5.956,5.892 0.324,0 -3.45,-3.894 -7.551,-7.792 -3.174,-3.017 -2.784,-2.553 1.595,1.9 m 96.405,0.023 c 0,0.112 0.612,0.582 1.359,1.044 0.752,0.464 1.726,1.596 2.18,2.532 0.452,0.931 0.83,1.405 0.841,1.052 0.031,-1.01 -1.657,-3.242 -3.081,-4.074 -0.715,-0.417 -1.299,-0.667 -1.299,-0.554 m 35.17,1.357 c -0.712,0.798 -0.757,0.931 -0.172,0.5 1.274,-0.938 1.888,-1.588 1.5,-1.588 -0.197,0 -0.795,0.49 -1.328,1.088 m -7.09,5.676 c -3.761,3.077 -5.185,4.463 -2.48,2.416 3.034,-2.296 6.459,-5.181 6.121,-5.155 -0.177,0.013 -1.815,1.246 -3.641,2.739 M 274.2,101.6 c -0.15,0.473 -0.183,0.95 -0.073,1.06 0.11,0.11 0.323,-0.187 0.473,-0.66 0.15,-0.473 0.183,-0.95 0.073,-1.06 -0.11,-0.11 -0.323,0.187 -0.473,0.66 m -3.141,5.595 c -1.023,1.538 -1.859,2.93 -1.859,3.095 0,0.165 0.6,-0.598 1.334,-1.695 2.301,-3.44 2.764,-4.195 2.571,-4.195 -0.103,0 -1.024,1.258 -2.046,2.795 M 61.8,106.8 c 1.083,1.1 2.06,2 2.17,2 0.11,0 -0.687,-0.9 -1.77,-2 -1.083,-1.1 -2.06,-2 -2.17,-2 -0.11,0 0.687,0.9 1.77,2 M 182.093,106 c 0,0.77 0.082,1.085 0.183,0.7 0.1,-0.385 0.1,-1.015 0,-1.4 -0.101,-0.385 -0.183,-0.07 -0.183,0.7 m -28.887,0.233 c 0.003,0.642 0.178,1.437 0.389,1.767 0.26,0.409 0.304,0.09 0.137,-1 -0.303,-1.977 -0.534,-2.314 -0.526,-0.767 m 139.023,-0.004 c -0.424,0.309 -0.693,0.64 -0.599,0.734 0.094,0.094 0.518,-0.082 0.941,-0.392 0.424,-0.309 0.693,-0.64 0.599,-0.734 -0.094,-0.094 -0.518,0.082 -0.941,0.392 M 182.093,109.2 c 0,0.77 0.082,1.085 0.183,0.7 0.1,-0.385 0.1,-1.015 0,-1.4 -0.101,-0.385 -0.183,-0.07 -0.183,0.7 m -25.893,2.4 c 1.306,1.32 2.465,2.4 2.575,2.4 0.11,0 -0.869,-1.08 -2.175,-2.4 -1.306,-1.32 -2.465,-2.4 -2.575,-2.4 -0.11,0 0.869,1.08 2.175,2.4 m 111.137,1.5 c -0.651,1.045 -1.509,2.395 -1.906,3 -0.398,0.605 -0.638,1.1 -0.534,1.1 0.208,0 2.687,-3.662 3.452,-5.1 0.847,-1.591 0.208,-0.96 -1.012,1 m 12.935,2.871 c -3.007,2.487 -3.863,3.45 -1.272,1.43 3.396,-2.647 4.274,-3.402 3.931,-3.379 -0.182,0.013 -1.379,0.889 -2.659,1.949 m -102.723,0.565 c 0.706,0.855 1.413,0.843 2.102,-0.036 0.503,-0.641 0.488,-0.652 -0.183,-0.124 -0.62,0.487 -0.866,0.493 -1.6,0.036 -0.791,-0.493 -0.819,-0.482 -0.319,0.124 m 97.251,3.939 -1.8,1.61 1.8,-1.32 c 0.99,-0.726 1.875,-1.375 1.967,-1.442 0.091,-0.068 0.091,-0.198 -10e-4,-0.29 -0.092,-0.092 -0.977,0.557 -1.966,1.442 m -13.531,1.964 c -0.759,1.215 -0.303,1.377 0.486,0.173 0.365,-0.556 0.523,-1.012 0.35,-1.012 -0.172,0 -0.548,0.378 -0.836,0.839 M 173.4,128.8 c 0.859,0.88 1.652,1.6 1.762,1.6 0.11,0 -0.503,-0.72 -1.362,-1.6 -0.859,-0.88 -1.652,-1.6 -1.762,-1.6 -0.11,0 0.503,0.72 1.362,1.6 m 84.014,-0.165 c -0.373,0.569 -0.609,1.103 -0.525,1.187 0.084,0.085 0.469,-0.381 0.855,-1.034 0.862,-1.46 0.604,-1.579 -0.33,-0.153 m 6.586,0.657 c -0.99,0.886 -1.26,1.23 -0.6,0.766 2.057,-1.449 2.748,-2.044 2.571,-2.213 -0.094,-0.09 -0.981,0.561 -1.971,1.447 m -8.343,1.965 c -0.282,0.452 -0.425,0.909 -0.317,1.016 0.107,0.108 0.404,-0.195 0.66,-0.673 0.605,-1.13 0.324,-1.41 -0.343,-0.343 m 2.643,2.573 c -1.705,1.429 -3.1,2.696 -3.1,2.815 0,0.119 0.945,-0.572 2.1,-1.536 1.155,-0.963 2.699,-2.237 3.431,-2.83 0.732,-0.594 1.182,-1.072 1,-1.063 -0.182,0.008 -1.726,1.184 -3.431,2.614 m -5.669,2.457 c -0.787,1.259 -1.431,2.429 -1.431,2.6 0,0.451 1.108,0.386 1.397,-0.082 0.147,-0.237 -0.038,-0.287 -0.46,-0.125 -0.737,0.282 -0.366,-0.528 1.657,-3.615 0.384,-0.586 0.601,-1.065 0.483,-1.065 -0.119,0 -0.859,1.029 -1.646,2.287 M 181.6,137 c 0.746,0.77 1.447,1.4 1.557,1.4 0.11,0 -0.411,-0.63 -1.157,-1.4 -0.746,-0.77 -1.447,-1.4 -1.557,-1.4 -0.11,0 0.411,0.63 1.157,1.4 m 8.2,8.2 c 0.859,0.88 1.652,1.6 1.762,1.6 0.11,0 -0.503,-0.72 -1.362,-1.6 -0.859,-0.88 -1.652,-1.6 -1.762,-1.6 -0.11,0 0.503,0.72 1.362,1.6 m -89.8,35 c 14.409,14.41 26.288,26.2 26.398,26.2 0.11,0 -11.589,-11.79 -25.998,-26.2 C 85.991,165.79 74.112,154 74.002,154 c -0.11,0 11.589,11.79 25.998,26.2 m 77.2,-24.994 c -0.422,0.276 -0.185,0.317 0.8,0.136 1.725,-0.317 2.051,-0.544 0.767,-0.536 -0.532,0.003 -1.237,0.183 -1.567,0.4 m 14.575,1.694 -1.175,1.3 1.3,-1.175 c 1.212,-1.095 1.484,-1.425 1.175,-1.425 -0.069,0 -0.654,0.585 -1.3,1.3 m -36.726,20.515 c -0.137,0.358 -0.231,1.041 -0.208,1.518 0.026,0.548 0.162,0.353 0.369,-0.53 0.35,-1.487 0.255,-2.07 -0.161,-0.988 m -18.392,8.892 c -0.104,0.169 0.56,0.25 1.477,0.179 2.691,-0.207 3.019,-0.39 0.79,-0.44 -1.142,-0.025 -2.162,0.092 -2.267,0.261 M 145,190 c 0.859,0.88 1.652,1.6 1.762,1.6 0.11,0 -0.503,-0.72 -1.362,-1.6 -0.859,-0.88 -1.652,-1.6 -1.762,-1.6 -0.11,0 0.503,0.72 1.362,1.6 m 11.575,2.1 -1.175,1.3 1.3,-1.175 c 1.212,-1.095 1.484,-1.425 1.175,-1.425 -0.069,0 -0.654,0.585 -1.3,1.3 m -23.363,1.778 c -0.007,0.262 0.393,0.901 0.888,1.419 0.495,0.518 0.7,0.663 0.456,0.323 -0.244,-0.341 -0.644,-0.98 -0.888,-1.42 -0.244,-0.44 -0.449,-0.585 -0.456,-0.322 m 3.07,5.922 c 0.127,1.1 0.295,2.075 0.374,2.167 0.299,0.347 0.072,-2.603 -0.259,-3.367 -0.223,-0.515 -0.264,-0.087 -0.115,1.2 M 243,208 c -0.632,0.66 -0.981,1.19 -0.775,1.178 0.353,-0.021 2.414,-2.378 2.08,-2.378 -0.085,0 -0.673,0.54 -1.305,1.2 m 13.6,4 c 1.083,1.1 2.06,2 2.17,2 0.11,0 -0.687,-0.9 -1.77,-2 -1.083,-1.1 -2.06,-2 -2.17,-2 -0.11,0 0.687,0.9 1.77,2 m -13.8,4.91 c 0,0.061 1.395,1.456 3.1,3.1 l 3.1,2.99 -2.99,-3.1 c -2.777,-2.879 -3.21,-3.283 -3.21,-2.99 m 48.291,0.979 c 0.71,0.088 1.97,0.09 2.8,0.003 0.83,-0.087 0.249,-0.159 -1.291,-0.161 -1.54,-0.002 -2.219,0.069 -1.509,0.158 m -70.116,3.411 -1.175,1.3 1.398,-1.2 c 0.769,-0.66 1.474,-1.245 1.567,-1.3 0.092,-0.055 -0.008,-0.1 -0.223,-0.1 -0.216,0 -0.921,0.585 -1.567,1.3 m 92.225,12.1 c 6.927,6.93 12.685,12.6 12.795,12.6 0.11,0 -5.468,-5.67 -12.395,-12.6 -6.927,-6.93 -12.685,-12.6 -12.795,-12.6 -0.11,0 5.468,5.67 12.395,12.6 m -55.6,3.525 c 0,0.069 0.585,0.654 1.3,1.3 l 1.3,1.175 -1.175,-1.3 c -1.095,-1.212 -1.425,-1.484 -1.425,-1.175 m 40.109,2.275 c 0,0.99 0.078,1.395 0.173,0.9 0.096,-0.495 0.096,-1.305 0,-1.8 -0.095,-0.495 -0.173,-0.09 -0.173,0.9 m -89.938,4.103 -1.171,1.294 1.2,-0.998 c 0.66,-0.55 1.275,-1.044 1.367,-1.099 0.091,-0.055 0.078,-0.188 -0.029,-0.296 -0.108,-0.108 -0.723,0.387 -1.367,1.099 M 228.2,254.4 c 6.377,6.38 11.685,11.6 11.795,11.6 0.11,0 -5.018,-5.22 -11.395,-11.6 -6.377,-6.38 -11.685,-11.6 -11.795,-11.6 -0.11,0 5.018,5.22 11.395,11.6 m 68.693,-7.6 c 0,0.77 0.082,1.085 0.183,0.7 0.1,-0.385 0.1,-1.015 0,-1.4 -0.101,-0.385 -0.183,-0.07 -0.183,0.7 m -37.593,4.676 c 0.385,0.1 1.015,0.1 1.4,0 0.385,-0.101 0.07,-0.183 -0.7,-0.183 -0.77,0 -1.085,0.082 -0.7,0.183 m 26.04,3.324 c 0,1.87 0.069,2.635 0.153,1.7 0.084,-0.935 0.084,-2.465 0,-3.4 -0.084,-0.935 -0.153,-0.17 -0.153,1.7 m -73.54,2 c 1.083,1.1 2.06,2 2.17,2 0.11,0 -0.687,-0.9 -1.77,-2 -1.083,-1.1 -2.06,-2 -2.17,-2 -0.11,0 0.687,0.9 1.77,2 m 55.101,4.2 c 0.004,0.88 0.086,1.193 0.182,0.695 0.096,-0.497 0.092,-1.217 -0.008,-1.6 -0.1,-0.382 -0.179,0.025 -0.174,0.905 m -69.163,2.506 c -0.254,0.162 0.494,0.294 1.662,0.294 1.168,0 1.916,-0.132 1.662,-0.294 -0.254,-0.162 -1.002,-0.294 -1.662,-0.294 -0.66,0 -1.408,0.132 -1.662,0.294 m 43.252,6.712 c -0.005,0.956 0.127,1.523 0.294,1.26 0.393,-0.619 0.404,-2.577 0.016,-2.814 -0.165,-0.102 -0.304,0.598 -0.31,1.554 M 302.109,270 c 0,0.99 0.078,1.395 0.173,0.9 0.096,-0.495 0.096,-1.305 0,-1.8 -0.095,-0.495 -0.173,-0.09 -0.173,0.9 m -73.509,3.6 c 0.859,0.88 1.652,1.6 1.762,1.6 0.11,0 -0.503,-0.72 -1.362,-1.6 -0.859,-0.88 -1.652,-1.6 -1.762,-1.6 -0.11,0 0.503,0.72 1.362,1.6 m 72.199,0.1 c -0.589,0.804 -0.686,1.084 -0.254,0.733 0.656,-0.533 1.648,-2.033 1.344,-2.033 -0.076,0 -0.567,0.585 -1.09,1.3 m -97.599,9.7 c 5.387,5.39 9.884,9.8 9.994,9.8 0.11,0 -4.207,-4.41 -9.594,-9.8 -5.387,-5.39 -9.884,-9.8 -9.994,-9.8 -0.11,0 4.207,4.41 9.594,9.8 m 32.014,5.374 c -0.228,0.425 -0.389,1.37 -0.36,2.1 0.043,1.045 0.088,1.114 0.212,0.326 0.354,-2.247 0.567,-2.75 1.234,-2.924 0.646,-0.169 0.647,-0.187 0.014,-0.23 -0.377,-0.025 -0.872,0.302 -1.1,0.728 m 102.635,0.641 c -0.137,0.358 -0.231,1.041 -0.208,1.518 0.026,0.548 0.162,0.353 0.369,-0.53 0.35,-1.487 0.255,-2.07 -0.161,-0.988 m 0.951,4.44 c 0,0.213 0.675,1.008 1.5,1.767 l 1.5,1.378 -1.4,-1.596 c -0.77,-0.877 -1.445,-1.672 -1.5,-1.766 -0.055,-0.094 -0.1,0.003 -0.1,0.217 m -113.871,10.386 c -0.177,0.462 2.746,3.605 10.512,11.3 l 10.757,10.659 -10.499,-10.603 c -10.194,-10.295 -11.056,-11.306 -9.999,-11.732 0.392,-0.158 0.389,-0.209 -0.013,-0.233 -0.281,-0.018 -0.623,0.256 -0.758,0.609 M 356.6,312 c 1.083,1.1 2.06,2 2.17,2 0.11,0 -0.687,-0.9 -1.77,-2 -1.083,-1.1 -2.06,-2 -2.17,-2 -0.11,0 0.687,0.9 1.77,2 m 16.8,16.8 c 0.859,0.88 1.652,1.6 1.762,1.6 0.11,0 -0.503,-0.72 -1.362,-1.6 -0.859,-0.88 -1.652,-1.6 -1.762,-1.6 -0.11,0 0.503,0.72 1.362,1.6 m -78.419,11.129 c 0.87,0.919 1.636,1.671 1.704,1.671 0.361,0 -0.953,-1.531 -2.034,-2.371 -1.048,-0.813 -0.995,-0.7 0.33,0.7 m 84.4,6.971 -1.581,1.7 1.7,-1.581 c 1.581,-1.471 1.884,-1.819 1.581,-1.819 -0.065,0 -0.83,0.765 -1.7,1.7 m -67.596,9.831 c 1.092,1.138 2.05,2.069 2.13,2.069 0.316,0 -1.763,-2.276 -2.904,-3.179 -0.666,-0.527 -0.318,-0.028 0.774,1.11 m 51.196,6.569 -1.581,1.7 1.7,-1.581 c 0.935,-0.87 1.7,-1.635 1.7,-1.7 0,-0.303 -0.348,0 -1.819,1.581 m -34.4,10.253 c 0.87,0.906 1.649,1.647 1.731,1.647 0.33,0 -1.766,-2.335 -2.512,-2.798 -0.44,-0.273 -0.088,0.245 0.781,1.151 m 18,6.147 -1.581,1.7 1.7,-1.581 c 1.581,-1.471 1.884,-1.819 1.581,-1.819 -0.065,0 -0.83,0.765 -1.7,1.7"
       stroke="none"
       fill="#321d16"
       fill-rule="evenodd" />
    <path
       id="path6"
       d="m 304.554,34.139 c -0.522,0.54 -13.813,12.885 -15.137,14.061 -0.731,0.649 -7.316,6.76 -11.207,10.4 -3.799,3.554 -7.186,6.707 -9.22,8.58 -2.87,2.645 -6.208,5.748 -13.141,12.22 -2.828,2.64 -5.301,4.86 -5.495,4.933 -1.351,0.509 0.606,1.569 9.346,5.064 5.335,2.133 10.42,4.206 11.3,4.606 3.95,1.798 5.298,5.73 3.182,9.286 -0.559,0.941 -1.12,2.026 -1.246,2.411 -0.126,0.385 -0.388,0.7 -0.583,0.7 -0.194,0 -0.353,0.174 -0.353,0.386 0,0.213 -1.195,2.238 -2.656,4.5 -1.461,2.263 -3.055,4.744 -3.544,5.514 -3.483,5.489 -7.899,12.388 -9.985,15.6 -4.082,6.286 -4.043,6.307 2.183,1.226 2.309,-1.884 4.469,-3.634 4.8,-3.887 0.331,-0.254 1.772,-1.43 3.202,-2.614 1.43,-1.184 5.93,-4.84 10,-8.124 4.07,-3.285 7.596,-6.159 7.837,-6.387 0.24,-0.228 1.029,-0.864 1.753,-1.414 0.724,-0.55 1.637,-1.27 2.03,-1.6 1.444,-1.215 2.328,-1.935 9.58,-7.806 8.353,-6.761 8.541,-6.914 9.734,-7.937 0.476,-0.409 1.917,-1.573 3.203,-2.588 1.346,-1.063 2.109,-1.907 1.8,-1.993 -0.296,-0.081 -1.077,-0.387 -1.737,-0.679 -0.66,-0.292 -5.34,-2.177 -10.4,-4.189 C 285.186,78.597 285.04,78.27 291.175,65 c 0.407,-0.88 1.189,-2.59 1.738,-3.8 0.55,-1.21 1.54,-3.37 2.202,-4.8 0.661,-1.43 1.599,-3.5 2.085,-4.6 0.486,-1.1 1.386,-3.08 2,-4.4 0.614,-1.32 1.519,-3.3 2.011,-4.4 0.492,-1.1 1.594,-3.518 2.45,-5.374 1.512,-3.278 1.807,-4.431 0.893,-3.487"
       stroke="none"
       fill="#e7284f"
       fill-rule="evenodd" />
    <path
       id="path7"
       d="m 142,258.445 c -0.77,0.672 -2.572,2.331 -4.005,3.688 -1.433,1.357 -3.684,3.457 -5.002,4.667 -2.271,2.085 -9.947,9.233 -16.569,15.429 -1.663,1.556 -4.284,3.973 -5.824,5.371 -1.54,1.397 -4.248,3.904 -6.017,5.57 -1.769,1.667 -4.578,4.29 -6.241,5.83 -13.9,12.872 -13.1,11.35 -7.142,13.589 0.99,0.372 2.34,0.912 3,1.199 0.66,0.287 3.81,1.552 7,2.812 9.192,3.63 9.494,3.814 10.602,6.466 0.802,1.92 -0.109,5.893 -1.483,6.467 -0.176,0.074 -0.319,0.3 -0.319,0.504 0,0.203 -1.202,2.213 -2.672,4.466 -1.47,2.253 -3.068,4.727 -3.553,5.497 -0.485,0.77 -2.252,3.524 -3.928,6.12 -1.676,2.596 -3.047,4.891 -3.047,5.1 0,0.209 -0.18,0.38 -0.4,0.38 -0.22,0 -0.4,0.188 -0.4,0.418 0,0.23 -0.9,1.752 -2,3.382 -1.1,1.63 -2,3.152 -2,3.382 0,0.23 -0.15,0.418 -0.332,0.418 -0.183,0 -0.582,0.495 -0.886,1.1 -0.304,0.605 -0.875,1.578 -1.268,2.162 -1.572,2.337 -0.462,2.066 3.042,-0.741 1.564,-1.254 2.934,-2.38 3.044,-2.503 0.11,-0.122 0.859,-0.714 1.665,-1.314 0.806,-0.601 1.706,-1.326 2,-1.611 0.294,-0.286 4.315,-3.57 8.935,-7.298 8.82,-7.118 9.342,-7.543 10.734,-8.74 0.476,-0.41 1.496,-1.219 2.266,-1.798 0.77,-0.579 1.49,-1.152 1.6,-1.274 0.11,-0.122 3.08,-2.546 6.6,-5.387 3.52,-2.842 6.49,-5.271 6.6,-5.4 0.11,-0.129 2.09,-1.747 4.4,-3.596 2.31,-1.849 4.29,-3.465 4.4,-3.591 0.11,-0.125 1.428,-1.195 2.929,-2.376 3.329,-2.621 3.424,-2.48 -3.529,-5.237 -2.86,-1.134 -5.74,-2.297 -6.4,-2.585 -0.66,-0.287 -3.111,-1.273 -5.447,-2.19 -7.696,-3.02 -8.521,-5.121 -4.955,-12.621 0.732,-1.54 1.727,-3.7 2.211,-4.8 0.968,-2.2 1.912,-4.291 4.783,-10.6 1.052,-2.31 2.31,-5.1 2.798,-6.2 0.487,-1.1 1.341,-2.99 1.897,-4.2 4.212,-9.165 4.569,-10.019 4.437,-10.617 -0.088,-0.395 -0.533,-0.201 -1.524,0.662 m 0.8,0.56 c 0,0.113 -0.177,0.518 -0.394,0.9 -0.216,0.382 -0.956,1.955 -1.644,3.495 -2.228,4.988 -6.637,14.732 -7.872,17.4 -0.663,1.43 -1.602,3.5 -2.089,4.6 -0.486,1.1 -1.387,3.08 -2.001,4.4 -0.614,1.32 -1.513,3.3 -1.997,4.4 -0.484,1.1 -1.132,2.523 -1.441,3.161 -1.546,3.198 0.058,7.006 3.638,8.636 0.88,0.401 5.74,2.38 10.8,4.398 10.836,4.321 10.298,3.947 8.127,5.651 -2.091,1.642 -2.61,2.063 -5.927,4.815 -1.43,1.186 -4.04,3.316 -5.8,4.733 -1.76,1.418 -3.29,2.684 -3.4,2.815 -0.11,0.13 -0.577,0.497 -1.037,0.814 -0.461,0.317 -1.631,1.241 -2.6,2.053 -0.97,0.812 -4.913,4.031 -8.763,7.152 -3.85,3.122 -7.72,6.27 -8.6,6.997 -0.88,0.727 -4.75,3.869 -8.6,6.982 -3.85,3.113 -7.459,6.05 -8.019,6.527 -1.398,1.188 -4.071,3.252 -4.691,3.621 -0.633,0.378 0.383,-1.451 3.231,-5.814 4.054,-6.21 10.279,-16.016 10.279,-16.193 0,-0.096 1.26,-2.053 2.8,-4.348 1.54,-2.295 2.8,-4.359 2.8,-4.587 0,-0.227 0.18,-0.413 0.4,-0.413 0.22,0 0.4,-0.184 0.4,-0.409 0,-0.224 0.446,-1.082 0.991,-1.906 1.3,-1.964 1.607,-3.662 1.004,-5.549 -0.975,-3.055 -1.994,-3.673 -13.805,-8.369 -6.04,-2.402 -10.984,-4.565 -10.986,-4.806 -0.004,-0.385 3.82,-4.082 12.784,-12.361 1.429,-1.32 2.874,-2.67 3.211,-3 0.336,-0.33 1.691,-1.59 3.011,-2.8 3.916,-3.591 12.968,-11.989 16.166,-14.999 3.52,-3.312 3.484,-3.278 9.042,-8.401 2.388,-2.2 5.7,-5.3 7.362,-6.889 2.751,-2.631 3.62,-3.281 3.62,-2.706"
       stroke="none"
       fill="#112951"
       fill-rule="evenodd" />
    <path
       id="path8"
       d="m 167,105.6 c 1.971,1.98 3.673,3.6 3.783,3.6 0.11,0 -1.412,-1.62 -3.383,-3.6 -1.971,-1.98 -3.673,-3.6 -3.783,-3.6 -0.11,0 1.412,1.62 3.383,3.6 m 7.2,7.2 c 1.306,1.32 2.465,2.4 2.575,2.4 0.11,0 -0.869,-1.08 -2.175,-2.4 -1.306,-1.32 -2.465,-2.4 -2.575,-2.4 -0.11,0 0.869,1.08 2.175,2.4 m 12.7,45.876 c 0.385,0.1 1.015,0.1 1.4,0 0.385,-0.101 0.07,-0.183 -0.7,-0.183 -0.77,0 -1.085,0.082 -0.7,0.183 m -13.395,22.007 c 0.497,0.096 1.217,0.092 1.6,-0.008 0.382,-0.1 -0.025,-0.179 -0.905,-0.174 -0.88,0.004 -1.193,0.086 -0.695,0.182 m -15.012,6.917 c 0,0.77 0.082,1.085 0.183,0.7 0.1,-0.385 0.1,-1.015 0,-1.4 -0.101,-0.385 -0.183,-0.07 -0.183,0.7 m 88.807,18.676 c 0.385,0.1 1.015,0.1 1.4,0 0.385,-0.101 0.07,-0.183 -0.7,-0.183 -0.77,0 -1.085,0.082 -0.7,0.183 M 219.293,226 c 0,0.77 0.082,1.085 0.183,0.7 0.1,-0.385 0.1,-1.015 0,-1.4 -0.101,-0.385 -0.183,-0.07 -0.183,0.7 m 3.09,5.7 c 0.981,1.045 1.836,1.9 1.9,1.9 0.301,0 -0.017,-0.359 -1.783,-2.017 l -1.9,-1.783 1.783,1.9 m 15.417,15.5 c 1.528,1.54 2.869,2.8 2.979,2.8 0.11,0 -1.051,-1.26 -2.579,-2.8 -1.528,-1.54 -2.869,-2.8 -2.979,-2.8 -0.11,0 1.051,1.26 2.579,2.8 m -31.699,0.6 c 0.004,0.88 0.086,1.193 0.182,0.695 0.096,-0.497 0.092,-1.217 -0.008,-1.6 -0.1,-0.382 -0.179,0.025 -0.174,0.905 m 90.836,3.2 c 0.002,1.76 0.072,2.43 0.156,1.489 0.085,-0.94 0.084,-2.38 -0.002,-3.2 -0.086,-0.819 -0.155,-0.049 -0.154,1.711 M 205.2,267 c 1.195,1.21 2.263,2.2 2.373,2.2 0.11,0 -0.778,-0.99 -1.973,-2.2 -1.195,-1.21 -2.263,-2.2 -2.373,-2.2 -0.11,0 0.778,0.99 1.973,2.2 m 14,14 c 1.417,1.43 2.667,2.6 2.777,2.6 0.11,0 -0.96,-1.17 -2.377,-2.6 -1.417,-1.43 -2.667,-2.6 -2.777,-2.6 -0.11,0 0.96,1.17 2.377,2.6 M 362.399,363.5 341,385 362.5,363.601 c 11.825,-11.769 21.5,-21.444 21.5,-21.5 0,-0.281 -1.711,1.414 -21.601,21.399"
       stroke="none"
       fill="#443424"
       fill-rule="evenodd" />
  </g>
</svg>
