<?xml version="1.0" encoding="UTF-8" standalone="no"?>
<svg
   id="svg"
   version="1.1"
   width="100"
   height="94.468735"
   viewBox="0 0 100 94.468735"
   xmlns="http://www.w3.org/2000/svg"
   xmlns:svg="http://www.w3.org/2000/svg">
  <defs
     id="defs1" />
  <g
     id="svgg"
     transform="matrix(0.26716234,0,0,0.26716234,-3.4452577,-6.1981663)">
    <path
       id="path0"
       d="m 92.4,183.555 v 19.154 h 8.2 8.2 V 183.555 164.4 h -8.2 -8.2 v 19.155 m 198.8,0.007 v 19.162 l 8.2,-0.006 8.2,-0.005 V 183.556 164.4 h -8.2 -8.2 v 19.162 M 93.8,215.639 c -4.546,0.548 -11.108,1.602 -12.4,1.991 -7.599,2.288 -18.857,7.198 -20.2,8.81 -0.11,0.132 -0.616,0.459 -1.124,0.727 -3.763,1.982 -14.127,11.313 -17.273,15.551 -0.769,1.035 -1.51,1.972 -1.648,2.082 -2.895,2.317 -10.189,17.398 -12.285,25.4 -1.929,7.364 -2.255,10.138 -2.255,19.2 0,8.355 0.147,9.976 1.437,15.8 4.2,18.969 15.255,35.165 31.315,45.88 3.936,2.625 12.741,7.32 13.729,7.32 0.283,0 0.827,0.174 1.209,0.387 1.139,0.636 4.809,1.792 9.095,2.868 9.432,2.365 24.968,2.365 34.4,0 3.781,-0.949 7.332,-2.043 9.2,-2.834 5.986,-2.538 8.013,-3.539 11.895,-5.88 8.48,-5.112 16.676,-12.653 21.891,-20.141 0.537,-0.77 1.074,-1.49 1.195,-1.6 0.12,-0.11 0.478,-0.65 0.795,-1.2 0.316,-0.55 1.225,-2.08 2.018,-3.4 19.884,-33.08 9.267,-77.742 -23.594,-99.251 -6.544,-4.283 -12.001,-6.815 -20.08,-9.317 -6.834,-2.116 -20.032,-3.272 -27.32,-2.393 m 197.6,0.185 c -10.301,1.351 -14.072,2.291 -20.8,5.182 -18.324,7.874 -33.223,23.121 -40.255,41.194 -6.721,17.272 -6.653,37.508 0.183,54.794 1.838,4.65 8.324,16.12 9.841,17.406 0.129,0.11 0.772,0.92 1.428,1.8 5.872,7.875 17.175,16.389 28.403,21.396 1.1,0.49 2.313,1.052 2.695,1.248 0.382,0.196 1.021,0.356 1.42,0.356 0.399,0 0.896,0.149 1.105,0.33 0.209,0.182 1.19,0.563 2.18,0.847 0.99,0.284 2.25,0.656 2.8,0.827 0.934,0.29 1.943,0.498 7.6,1.564 8.212,1.549 22.499,0.683 31.6,-1.914 0.77,-0.22 1.85,-0.517 2.4,-0.66 1.058,-0.276 2.542,-0.855 3.695,-1.441 0.382,-0.194 0.929,-0.353 1.217,-0.353 0.822,0 10.372,-4.957 13.165,-6.834 14.403,-9.678 24.912,-23.334 29.834,-38.766 2.917,-9.149 3.48,-13.003 3.446,-23.6 -0.044,-13.696 -2.734,-24.95 -8.251,-34.518 -0.608,-1.054 -1.106,-2.006 -1.106,-2.115 0,-0.263 -4.616,-7.139 -6.153,-9.167 -3.374,-4.45 -12.531,-12.767 -18.047,-16.392 -6.704,-4.405 -18.591,-9.236 -25.066,-10.188 -11.644,-1.712 -16.342,-1.913 -23.334,-0.996 m -185.245,11 c 3.883,0.452 7.287,1.021 9.245,1.546 4.575,1.227 5.308,1.461 7.6,2.43 0.66,0.279 1.56,0.645 2,0.813 13.893,5.309 27.752,19.186 33.442,33.487 0.197,0.495 0.562,1.395 0.812,2 0.84,2.04 1.078,2.696 1.34,3.7 0.143,0.55 0.427,1.63 0.632,2.4 2.801,10.547 2.801,21.853 0,32.4 -0.205,0.77 -0.489,1.85 -0.632,2.4 -0.144,0.55 -0.426,1.405 -0.627,1.9 -0.202,0.495 -0.523,1.305 -0.713,1.8 -3.27,8.493 -7.543,15.077 -14.163,21.824 -2.919,2.975 -10.143,8.876 -10.865,8.876 -0.155,0 -1.034,0.508 -1.954,1.129 -8.695,5.87 -24.472,9.576 -36.143,8.49 -10.602,-0.987 -19.164,-3.662 -27.729,-8.663 -1.839,-1.073 -4.041,-2.543 -4.4,-2.937 -0.11,-0.12 -0.83,-0.662 -1.6,-1.203 C 55.58,334.424 48.555,325.82 44.259,317 c -2.366,-4.858 -2.433,-5.028 -4.241,-10.8 -3.572,-11.399 -2.592,-29.191 2.211,-40.114 9.872,-22.454 27.998,-36.343 50.771,-38.904 1.98,-0.223 3.78,-0.476 4,-0.562 0.805,-0.316 5.605,-0.209 9.155,0.204 m 201.445,0.363 c 11.292,1.495 24.256,6.974 31.015,13.108 0.432,0.391 1.923,1.693 3.313,2.893 8.627,7.443 16.501,21.061 18.855,32.612 0.269,1.32 0.683,3.3 0.92,4.4 0.237,1.1 0.431,5.24 0.431,9.2 0,3.96 -0.194,8.1 -0.431,9.2 -0.237,1.1 -0.646,3.08 -0.909,4.4 -0.263,1.32 -0.615,2.76 -0.783,3.2 -0.168,0.44 -0.704,2.06 -1.19,3.6 -2.34,7.413 -7.996,16.7 -13.907,22.831 -9.759,10.123 -19.16,15.208 -34.314,18.559 -9.121,2.017 -21.902,0.981 -32.175,-2.608 -4.166,-1.456 -13.353,-6.171 -14.425,-7.405 -0.11,-0.126 -1.1,-0.842 -2.2,-1.591 -8.242,-5.61 -16.535,-16.582 -21,-27.786 -5.33,-13.371 -5.33,-31.429 0,-44.8 3.804,-9.546 8.369,-16.278 15.869,-23.406 5.934,-5.639 11.441,-9.109 20.331,-12.809 3.83,-1.594 11.674,-3.572 14.306,-3.608 0.932,-0.013 2.414,-0.184 3.294,-0.38 1.812,-0.405 8.515,-0.203 13,0.39"
       stroke="none"
       fill="#f2d661"
       fill-rule="evenodd" />
    <path
       id="path1"
       d="m 89.6,23.6 c 0,0.22 -0.405,0.4 -0.9,0.4 -1.096,0.001 -3.1,1.647 -3.1,2.547 0,0.359 -0.18,0.653 -0.4,0.653 -0.265,0 -0.4,20.933 -0.4,62 0,55.091 -0.067,62 -0.605,62 -1.311,0 -3.612,1.841 -4.499,3.6 -0.387,0.766 -0.527,6.759 -0.6,25.6 L 79,205 l -1.3,0.125 c -0.715,0.069 -1.3,0.294 -1.3,0.5 0,0.206 -0.72,0.375 -1.6,0.375 -0.88,0 -1.6,0.18 -1.6,0.4 0,0.22 -0.439,0.4 -0.976,0.4 -0.537,0 -1.088,0.18 -1.224,0.4 -0.136,0.22 -0.597,0.4 -1.024,0.4 -0.427,0 -0.776,0.18 -0.776,0.4 0,0.22 -0.54,0.4 -1.2,0.4 -0.66,0 -1.2,0.18 -1.2,0.4 0,0.22 -0.36,0.4 -0.8,0.4 -0.44,0 -0.8,0.18 -0.8,0.4 0,0.22 -0.297,0.4 -0.66,0.4 -0.777,0 -5.079,2.028 -5.273,2.485 -0.074,0.173 -0.479,0.315 -0.9,0.315 -0.422,0 -0.767,0.18 -0.767,0.4 0,0.22 -0.36,0.4 -0.8,0.4 -0.44,0 -0.8,0.158 -0.8,0.351 0,0.194 -0.54,0.576 -1.2,0.849 -0.66,0.273 -1.2,0.655 -1.2,0.849 0,0.193 -0.236,0.351 -0.525,0.351 -0.288,0 -0.911,0.36 -1.383,0.8 -0.472,0.44 -1.019,0.8 -1.216,0.8 -0.197,0 -0.897,0.516 -1.558,1.147 -0.66,0.631 -1.39,1.216 -1.622,1.3 -1.059,0.384 -12.496,11.067 -12.496,11.673 0,0.165 -0.81,1.111 -1.8,2.101 -0.99,0.99 -1.8,1.967 -1.8,2.171 0,0.205 -0.405,0.785 -0.9,1.29 -0.495,0.505 -1.155,1.413 -1.468,2.018 -0.312,0.605 -0.702,1.1 -0.868,1.1 -0.165,0 -0.419,0.54 -0.564,1.2 -0.145,0.66 -0.429,1.2 -0.632,1.2 -0.202,0 -0.368,0.27 -0.368,0.6 0,0.33 -0.18,0.6 -0.4,0.6 -0.22,0 -0.4,0.27 -0.4,0.6 0,0.33 -0.18,0.6 -0.4,0.6 -0.22,0 -0.4,0.27 -0.4,0.6 0,0.33 -0.18,0.6 -0.4,0.6 -0.22,0 -0.4,0.36 -0.4,0.8 0,0.44 -0.18,0.8 -0.4,0.8 -0.22,0 -0.4,0.36 -0.4,0.8 0,0.44 -0.18,0.8 -0.4,0.8 -0.22,0 -0.4,0.36 -0.4,0.8 0,0.44 -0.18,0.8 -0.4,0.8 -0.22,0 -0.4,0.36 -0.4,0.8 0,0.44 -0.18,0.8 -0.4,0.8 -0.22,0 -0.4,0.36 -0.4,0.8 0,0.44 -0.18,0.8 -0.4,0.8 -0.22,0 -0.4,0.54 -0.4,1.2 0,0.66 -0.18,1.2 -0.4,1.2 -0.22,0 -0.4,0.36 -0.4,0.8 0,0.44 -0.18,0.8 -0.4,0.8 -0.22,0 -0.4,0.439 -0.4,0.976 0,0.537 -0.18,1.088 -0.4,1.224 -0.22,0.136 -0.4,0.676 -0.4,1.2 0,0.524 -0.18,1.064 -0.4,1.2 -0.22,0.136 -0.4,0.766 -0.4,1.4 0,0.634 -0.18,1.264 -0.4,1.4 -0.22,0.136 -0.4,0.766 -0.4,1.4 0,0.634 -0.18,1.264 -0.4,1.4 -0.22,0.136 -0.4,1.047 -0.4,2.024 0,0.977 -0.18,1.776 -0.4,1.776 -0.222,0 -0.4,1.067 -0.4,2.4 0,1.32 -0.17,2.4 -0.377,2.4 -0.208,0 -0.461,2.205 -0.564,4.9 -0.102,2.695 -0.313,5.683 -0.469,6.641 -0.169,1.046 -0.107,2.083 0.156,2.6 0.24,0.472 0.522,2.929 0.626,5.459 0.25,6.081 0.625,9.6 1.023,9.6 0.179,0 0.424,0.765 0.546,1.7 0.439,3.363 0.753,4.7 1.103,4.7 0.196,0 0.356,0.72 0.356,1.6 0,0.88 0.18,1.6 0.4,1.6 0.22,0 0.4,0.439 0.4,0.976 0,0.537 0.18,1.088 0.4,1.224 0.22,0.136 0.4,0.676 0.4,1.2 0,0.524 0.18,1.064 0.4,1.2 0.22,0.136 0.4,0.597 0.4,1.024 0,0.427 0.18,0.776 0.4,0.776 0.22,0 0.4,0.45 0.4,1 0,0.55 0.18,1 0.4,1 0.22,0 0.4,0.36 0.4,0.8 0,0.44 0.18,0.8 0.4,0.8 0.22,0 0.4,0.36 0.4,0.8 0,0.44 0.18,0.8 0.4,0.8 0.22,0 0.4,0.36 0.4,0.8 0,0.44 0.18,0.8 0.4,0.8 0.22,0 0.4,0.36 0.4,0.8 0,0.44 0.18,0.8 0.4,0.8 0.22,0 0.4,0.278 0.4,0.617 0,0.339 0.36,1.003 0.8,1.475 0.44,0.472 0.8,1.095 0.8,1.383 0,0.289 0.18,0.525 0.4,0.525 0.22,0 0.4,0.36 0.4,0.8 0,0.44 0.168,0.8 0.373,0.8 0.205,0 0.501,0.402 0.657,0.894 0.298,0.939 2.277,3.649 3.47,4.753 0.385,0.356 0.7,0.832 0.7,1.059 0,0.227 0.9,1.332 2,2.455 1.1,1.124 2,2.183 2,2.354 0,0.446 4.791,5.265 5.99,6.024 0.556,0.352 1.527,1.228 2.159,1.948 0.632,0.719 1.802,1.705 2.6,2.19 0.798,0.485 1.742,1.206 2.098,1.602 0.356,0.397 0.901,0.721 1.212,0.721 0.31,0 0.824,0.36 1.141,0.8 0.317,0.44 0.857,0.8 1.2,0.8 0.343,0 0.883,0.36 1.2,0.8 0.317,0.44 0.897,0.8 1.288,0.8 0.392,0 0.712,0.18 0.712,0.4 0,0.22 0.236,0.4 0.525,0.4 0.288,0 0.911,0.36 1.383,0.8 0.472,0.44 1.121,0.8 1.442,0.8 0.321,0 0.643,0.137 0.717,0.304 0.211,0.482 6.858,3.703 7.633,3.699 0.385,-0.002 0.7,0.177 0.7,0.397 0,0.22 0.349,0.4 0.776,0.4 0.427,0 0.888,0.18 1.024,0.4 0.136,0.22 0.676,0.4 1.2,0.4 0.524,0 1.064,0.18 1.2,0.4 0.136,0.22 0.599,0.4 1.029,0.4 0.43,0 1.094,0.158 1.476,0.351 1.128,0.569 3.491,1.249 4.343,1.249 0.436,0 0.965,0.173 1.177,0.385 0.212,0.212 2.138,0.509 4.28,0.659 2.142,0.151 3.895,0.428 3.895,0.615 0,0.188 1.8,0.341 4,0.341 2.4,0 4,0.16 4,0.4 0,0.534 9.07,0.534 9.4,0 0.138,-0.223 2.004,-0.4 4.224,-0.4 2.187,0 3.976,-0.154 3.976,-0.343 0,-0.188 1.665,-0.468 3.7,-0.621 2.035,-0.153 3.871,-0.449 4.08,-0.657 0.209,-0.209 0.873,-0.379 1.476,-0.379 0.603,0 1.208,-0.18 1.344,-0.4 0.136,-0.22 0.777,-0.4 1.424,-0.4 0.647,0 1.176,-0.18 1.176,-0.4 0,-0.22 0.54,-0.4 1.2,-0.4 0.66,0 1.2,-0.18 1.2,-0.4 0,-0.22 0.54,-0.4 1.2,-0.4 0.66,0 1.2,-0.18 1.2,-0.4 0,-0.22 0.439,-0.4 0.976,-0.4 0.537,0 1.088,-0.18 1.224,-0.4 0.136,-0.22 0.597,-0.4 1.024,-0.4 0.427,0 0.776,-0.18 0.776,-0.4 0,-0.22 0.36,-0.4 0.8,-0.4 0.44,0 0.8,-0.18 0.8,-0.4 0,-0.22 0.36,-0.4 0.8,-0.4 0.44,0 0.8,-0.18 0.8,-0.4 0,-0.22 0.36,-0.4 0.8,-0.4 0.44,0 0.8,-0.18 0.8,-0.4 0,-0.22 0.27,-0.4 0.6,-0.4 0.33,0 0.6,-0.18 0.6,-0.4 0,-0.22 0.36,-0.4 0.8,-0.4 0.44,0 0.8,-0.18 0.8,-0.4 0,-0.22 0.36,-0.4 0.8,-0.4 0.44,0 0.8,-0.18 0.8,-0.4 0,-0.22 0.32,-0.4 0.712,-0.4 0.391,0 0.971,-0.36 1.288,-0.8 0.317,-0.44 0.857,-0.8 1.2,-0.8 0.343,0 0.883,-0.36 1.2,-0.8 0.317,-0.44 0.857,-0.8 1.2,-0.8 0.343,0 0.883,-0.36 1.2,-0.8 0.317,-0.44 0.807,-0.8 1.088,-0.8 0.282,0 0.512,-0.18 0.512,-0.4 0,-0.22 0.197,-0.4 0.437,-0.4 0.907,0 13.563,-11.935 13.563,-12.791 0,-0.21 0.585,-0.975 1.3,-1.699 0.715,-0.724 1.75,-1.989 2.3,-2.811 0.55,-0.821 1.135,-1.495 1.3,-1.496 0.165,-0.002 0.3,-0.245 0.3,-0.541 0,-0.296 0.36,-0.864 0.8,-1.262 0.44,-0.398 0.8,-0.889 0.8,-1.091 0,-0.201 0.27,-0.636 0.6,-0.966 0.33,-0.33 0.6,-0.947 0.6,-1.372 0,-0.424 0.18,-0.771 0.4,-0.771 0.22,0 0.4,-0.32 0.4,-0.712 0,-0.391 0.36,-0.971 0.8,-1.288 0.44,-0.317 0.8,-0.897 0.8,-1.288 0,-0.392 0.18,-0.712 0.4,-0.712 0.22,0 0.4,-0.36 0.4,-0.8 0,-0.44 0.18,-0.8 0.4,-0.8 0.22,0 0.4,-0.36 0.4,-0.8 0,-0.44 0.18,-0.8 0.4,-0.8 0.22,0 0.4,-0.45 0.4,-1 0,-0.55 0.18,-1 0.4,-1 0.22,0 0.4,-0.272 0.4,-0.605 0,-0.333 0.18,-0.963 0.4,-1.4 0.22,-0.437 0.58,-1.153 0.8,-1.59 0.22,-0.437 0.4,-1.067 0.4,-1.4 0,-0.333 0.18,-0.605 0.4,-0.605 0.22,0 0.4,-0.54 0.4,-1.2 0,-0.66 0.18,-1.2 0.4,-1.2 0.22,0 0.4,-0.529 0.4,-1.176 0,-0.647 0.18,-1.288 0.4,-1.424 0.22,-0.136 0.4,-0.867 0.4,-1.624 0,-0.757 0.18,-1.376 0.4,-1.376 0.22,0 0.4,-0.72 0.4,-1.6 0,-0.88 0.18,-1.6 0.4,-1.6 0.22,0 0.4,-0.99 0.4,-2.2 0,-1.21 0.18,-2.2 0.4,-2.2 0.233,0 0.4,-1.325 0.4,-3.176 0,-1.747 0.18,-3.288 0.4,-3.424 0.512,-0.316 0.54,-14.696 0.03,-15.22 -0.203,-0.209 -0.467,-1.73 -0.587,-3.38 -0.383,-5.311 -0.709,-7.6 -1.08,-7.6 -0.2,0 -0.363,-0.72 -0.363,-1.6 0,-0.88 -0.18,-1.6 -0.4,-1.6 -0.22,0 -0.4,-0.619 -0.4,-1.376 0,-0.757 -0.18,-1.488 -0.4,-1.624 -0.22,-0.136 -0.4,-0.676 -0.4,-1.2 0,-0.524 -0.18,-1.064 -0.4,-1.2 -0.22,-0.136 -0.4,-0.687 -0.4,-1.224 0,-0.537 -0.18,-0.976 -0.4,-0.976 -0.22,0 -0.4,-0.54 -0.4,-1.2 0,-0.66 -0.18,-1.2 -0.4,-1.2 -0.22,0 -0.4,-0.36 -0.4,-0.8 0,-0.44 -0.18,-0.8 -0.4,-0.8 -0.22,0 -0.4,-0.439 -0.4,-0.976 0,-0.537 -0.18,-1.088 -0.4,-1.224 -0.22,-0.136 -0.4,-0.597 -0.4,-1.024 0,-0.427 -0.18,-0.776 -0.4,-0.776 -0.22,0 -0.4,-0.36 -0.4,-0.8 0,-0.44 -0.18,-0.8 -0.4,-0.8 -0.22,0 -0.4,-0.36 -0.4,-0.8 0,-0.44 -0.18,-0.8 -0.4,-0.8 -0.22,0 -0.4,-0.36 -0.4,-0.8 0,-0.44 -0.18,-0.8 -0.4,-0.8 -0.22,0 -0.4,-0.27 -0.4,-0.6 0,-0.33 -0.18,-0.6 -0.4,-0.6 -0.22,0 -0.4,-0.27 -0.4,-0.6 0,-0.33 -0.135,-0.601 -0.3,-0.601 -0.165,-0.001 -0.633,-0.811 -1.04,-1.8 -0.406,-0.99 -0.889,-1.799 -1.073,-1.799 -0.183,0 -0.449,-0.366 -0.591,-0.813 -0.142,-0.447 -0.694,-1.249 -1.227,-1.782 -0.533,-0.533 -0.969,-1.175 -0.969,-1.426 0,-0.252 -0.54,-0.962 -1.2,-1.579 -0.66,-0.617 -1.2,-1.29 -1.2,-1.497 0,-0.498 -12.074,-12.503 -12.575,-12.503 -0.128,0 -0.797,-0.54 -1.488,-1.2 -0.691,-0.66 -1.459,-1.2 -1.708,-1.2 -0.249,0 -0.712,-0.36 -1.029,-0.8 -0.317,-0.44 -0.807,-0.8 -1.088,-0.8 -0.282,0 -0.512,-0.18 -0.512,-0.4 0,-0.22 -0.27,-0.4 -0.6,-0.4 -0.33,0 -0.6,-0.18 -0.6,-0.4 0,-0.22 -0.236,-0.4 -0.525,-0.4 -0.288,0 -0.911,-0.36 -1.383,-0.8 -0.472,-0.44 -1.121,-0.8 -1.442,-0.8 -0.321,0 -0.643,-0.153 -0.717,-0.34 -0.226,-0.578 -6.991,-4.06 -7.887,-4.06 -0.465,0 -0.846,-0.18 -0.846,-0.4 0,-0.22 -0.45,-0.4 -1,-0.4 -0.55,0 -1,-0.18 -1,-0.4 0,-0.22 -0.36,-0.4 -0.8,-0.4 -0.44,0 -0.8,-0.18 -0.8,-0.4 0,-0.22 -0.54,-0.4 -1.2,-0.4 -0.66,0 -1.2,-0.18 -1.2,-0.4 0,-0.22 -0.54,-0.4 -1.2,-0.4 -0.66,0 -1.2,-0.18 -1.2,-0.4 0,-0.22 -0.54,-0.4 -1.2,-0.4 -0.66,0 -1.2,-0.18 -1.2,-0.4 0,-0.22 -0.63,-0.4 -1.4,-0.4 h -1.4 v -23.976 c 0,-15.553 -0.141,-24.064 -0.4,-24.224 -0.22,-0.136 -0.4,-0.777 -0.4,-1.424 0,-0.647 -0.18,-1.176 -0.4,-1.176 -0.22,0 -0.4,-0.23 -0.4,-0.511 0,-0.574 -1.396,-1.889 -2.005,-1.889 -0.217,0 -0.395,-0.18 -0.395,-0.4 0,-0.22 -0.36,-0.4 -0.8,-0.4 -0.797,0 -0.8,-0.267 -0.8,-61.376 0,-40.487 -0.136,-61.461 -0.4,-61.624 C 116.18,28.064 116,27.687 116,27.363 116,26.374 113.327,24 112.213,24 c -0.557,0 -1.013,-0.18 -1.013,-0.4 0,-0.257 -3.867,-0.4 -10.8,-0.4 -6.933,0 -10.8,0.143 -10.8,0.4 m 199.2,0 c 0,0.22 -0.456,0.4 -1.013,0.4 -1.114,0 -3.787,2.374 -3.787,3.363 0,0.324 -0.18,0.701 -0.4,0.837 -0.264,0.163 -0.4,21.137 -0.4,61.624 0,61.109 -0.003,61.376 -0.8,61.376 -0.44,0 -0.8,0.18 -0.8,0.4 0,0.22 -0.23,0.4 -0.512,0.4 -0.281,0 -0.776,0.382 -1.1,0.849 -0.323,0.467 -0.787,1.058 -1.03,1.313 -0.959,1.008 -1.098,4.089 -1.232,27.138 l -0.138,23.9 h -1.394 c -0.767,0 -1.394,0.18 -1.394,0.4 0,0.22 -0.54,0.4 -1.2,0.4 -0.66,0 -1.2,0.18 -1.2,0.4 0,0.22 -0.54,0.4 -1.2,0.4 -0.66,0 -1.2,0.18 -1.2,0.4 0,0.22 -0.439,0.4 -0.976,0.4 -0.537,0 -1.088,0.18 -1.224,0.4 -0.136,0.22 -0.597,0.4 -1.024,0.4 -0.427,0 -0.776,0.18 -0.776,0.4 0,0.22 -0.45,0.4 -1,0.4 -0.55,0 -1,0.18 -1,0.4 0,0.22 -0.322,0.4 -0.716,0.4 -0.394,0 -2.059,0.726 -3.7,1.614 -1.641,0.888 -3.299,1.719 -3.684,1.847 -0.385,0.128 -0.7,0.391 -0.7,0.586 0,0.194 -0.278,0.353 -0.617,0.353 -0.339,0 -1.003,0.36 -1.475,0.8 -0.472,0.44 -1.095,0.8 -1.383,0.8 -0.289,0 -0.525,0.18 -0.525,0.4 0,0.22 -0.27,0.4 -0.6,0.4 -0.33,0 -0.6,0.18 -0.6,0.4 0,0.22 -0.23,0.4 -0.512,0.4 -0.281,0 -0.771,0.36 -1.088,0.8 -0.317,0.44 -0.762,0.801 -0.988,0.802 -0.227,0.001 -0.987,0.541 -1.69,1.2 -0.703,0.659 -1.381,1.198 -1.507,1.198 -0.125,0 -1.571,1.305 -3.212,2.9 -1.641,1.595 -4.031,3.89 -5.311,5.1 -1.28,1.21 -2.769,2.819 -3.31,3.576 -0.54,0.758 -1.477,1.909 -2.082,2.56 -0.605,0.65 -1.1,1.344 -1.1,1.542 0,0.197 -0.45,0.808 -1,1.358 -0.55,0.55 -1,1.312 -1,1.694 0,0.381 -0.36,0.953 -0.8,1.27 -0.44,0.317 -0.8,0.897 -0.8,1.288 0,0.392 -0.18,0.712 -0.4,0.712 -0.22,0 -0.4,0.27 -0.4,0.6 0,0.33 -0.18,0.6 -0.4,0.6 -0.22,0 -0.4,0.27 -0.4,0.6 0,0.33 -0.18,0.6 -0.4,0.6 -0.22,0 -0.4,0.27 -0.4,0.6 0,0.33 -0.18,0.6 -0.4,0.6 -0.22,0 -0.4,0.36 -0.4,0.8 0,0.44 -0.18,0.8 -0.4,0.8 -0.22,0 -0.4,0.36 -0.4,0.8 0,0.44 -0.18,0.8 -0.4,0.8 -0.22,0 -0.4,0.36 -0.4,0.8 0,0.44 -0.18,0.8 -0.4,0.8 -0.22,0 -0.4,0.349 -0.4,0.776 0,0.427 -0.18,0.888 -0.4,1.024 -0.22,0.136 -0.4,0.687 -0.4,1.224 0,0.537 -0.18,0.976 -0.4,0.976 -0.22,0 -0.4,0.36 -0.4,0.8 0,0.44 -0.18,0.8 -0.4,0.8 -0.22,0 -0.4,0.54 -0.4,1.2 0,0.66 -0.18,1.2 -0.4,1.2 -0.22,0 -0.4,0.439 -0.4,0.976 0,0.537 -0.18,1.088 -0.4,1.224 -0.22,0.136 -0.4,0.676 -0.4,1.2 0,0.524 -0.18,1.064 -0.4,1.2 -0.22,0.136 -0.4,0.867 -0.4,1.624 0,0.757 -0.18,1.376 -0.4,1.376 -0.22,0 -0.4,0.684 -0.4,1.52 0,0.836 -0.163,1.691 -0.361,1.9 -0.199,0.209 -0.475,1.28 -0.613,2.38 -0.138,1.1 -0.443,3.53 -0.677,5.4 -0.763,6.086 -0.4,24.8 0.48,24.8 0.204,0 0.371,0.889 0.371,1.976 0,1.087 0.18,2.088 0.4,2.224 0.22,0.136 0.4,0.957 0.4,1.824 0,0.867 0.18,1.576 0.4,1.576 0.22,0 0.4,0.619 0.4,1.376 0,0.757 0.18,1.488 0.4,1.624 0.22,0.136 0.4,0.777 0.4,1.424 0,0.647 0.18,1.176 0.4,1.176 0.22,0 0.4,0.362 0.4,0.805 0,0.443 0.159,1.118 0.353,1.5 0.195,0.382 0.576,1.235 0.847,1.895 0.271,0.66 0.652,1.513 0.847,1.895 0.194,0.382 0.353,0.967 0.353,1.3 0,0.333 0.18,0.605 0.4,0.605 0.22,0 0.4,0.45 0.4,1 0,0.55 0.18,1 0.4,1 0.22,0 0.4,0.36 0.4,0.8 0,0.44 0.18,0.8 0.4,0.8 0.22,0 0.4,0.36 0.4,0.8 0,0.44 0.18,0.8 0.4,0.8 0.22,0 0.4,0.32 0.4,0.712 0,0.391 0.36,0.971 0.8,1.288 0.44,0.317 0.8,0.897 0.8,1.288 0,0.392 0.18,0.712 0.4,0.712 0.22,0 0.4,0.32 0.4,0.712 0,0.391 0.36,0.971 0.8,1.288 0.44,0.317 0.8,0.882 0.8,1.255 0,0.373 0.135,0.738 0.3,0.812 0.165,0.073 1.02,1.212 1.9,2.531 0.88,1.319 2.185,2.99 2.9,3.713 0.715,0.724 1.3,1.488 1.3,1.698 0,0.902 10.973,11.211 13.779,12.946 0.672,0.415 1.512,1.09 1.868,1.5 0.356,0.41 0.901,0.745 1.212,0.745 0.31,0 0.824,0.36 1.141,0.8 0.317,0.44 0.814,0.8 1.105,0.8 0.291,0 0.915,0.36 1.387,0.8 0.472,0.44 1.095,0.8 1.383,0.8 0.289,0 0.525,0.18 0.525,0.4 0,0.22 0.36,0.4 0.8,0.4 0.44,0 0.8,0.18 0.8,0.4 0,0.22 0.36,0.4 0.8,0.4 0.44,0 0.8,0.18 0.8,0.4 0,0.22 0.36,0.4 0.8,0.4 0.44,0 0.8,0.18 0.8,0.4 0,0.22 0.27,0.4 0.6,0.4 0.33,0 0.6,0.18 0.6,0.4 0,0.22 0.36,0.4 0.8,0.4 0.44,0 0.8,0.18 0.8,0.4 0,0.22 0.36,0.4 0.8,0.4 0.44,0 0.8,0.18 0.8,0.4 0,0.22 0.349,0.4 0.776,0.4 0.427,0 0.888,0.18 1.024,0.4 0.136,0.22 0.687,0.4 1.224,0.4 0.537,0 0.976,0.18 0.976,0.4 0,0.22 0.54,0.4 1.2,0.4 0.66,0 1.2,0.18 1.2,0.4 0,0.22 0.54,0.4 1.2,0.4 0.66,0 1.2,0.18 1.2,0.4 0,0.22 0.529,0.4 1.176,0.4 0.647,0 1.288,0.18 1.424,0.4 0.136,0.22 0.831,0.4 1.544,0.4 0.713,0 1.472,0.176 1.687,0.391 0.215,0.215 1.961,0.511 3.88,0.659 1.919,0.147 3.489,0.421 3.489,0.609 0,0.188 1.789,0.341 3.976,0.341 2.22,0 4.086,0.177 4.224,0.4 0.326,0.528 9.274,0.528 9.6,0 0.137,-0.221 1.937,-0.4 4.024,-0.4 2.077,0 3.776,-0.153 3.776,-0.341 0,-0.187 1.709,-0.461 3.799,-0.608 2.089,-0.147 4.204,-0.425 4.7,-0.617 0.495,-0.193 1.711,-0.567 2.701,-0.831 0.99,-0.265 2.113,-0.643 2.495,-0.842 0.382,-0.199 1.147,-0.361 1.7,-0.361 0.553,0 1.005,-0.18 1.005,-0.4 0,-0.22 0.439,-0.4 0.976,-0.4 0.537,0 1.088,-0.18 1.224,-0.4 0.136,-0.22 0.597,-0.4 1.024,-0.4 0.427,0 0.776,-0.18 0.776,-0.4 0,-0.22 0.355,-0.4 0.788,-0.4 0.433,0 1.429,-0.36 2.212,-0.8 0.783,-0.44 1.689,-0.8 2.012,-0.8 0.323,0 0.588,-0.18 0.588,-0.4 0,-0.22 0.36,-0.4 0.8,-0.4 0.44,0 0.8,-0.146 0.8,-0.325 0,-0.179 0.63,-0.573 1.4,-0.875 0.77,-0.302 1.4,-0.696 1.4,-0.875 0,-0.179 0.236,-0.325 0.525,-0.325 0.288,0 0.911,-0.36 1.383,-0.8 0.472,-0.44 1.096,-0.8 1.387,-0.8 0.291,0 0.788,-0.36 1.105,-0.8 0.317,-0.44 0.857,-0.8 1.2,-0.8 0.343,0 0.883,-0.36 1.2,-0.8 0.317,-0.44 0.831,-0.8 1.141,-0.8 0.311,0 0.856,-0.322 1.212,-0.716 0.356,-0.393 1.206,-1.068 1.89,-1.5 2.646,-1.669 10.95,-9.485 10.955,-10.31 10e-4,-0.179 0.902,-1.203 2.002,-2.274 1.1,-1.071 2,-2.158 2,-2.414 0,-0.256 0.54,-0.969 1.2,-1.586 0.66,-0.617 1.2,-1.319 1.2,-1.56 0,-0.242 0.15,-0.44 0.332,-0.44 0.183,0 0.588,-0.495 0.9,-1.1 0.313,-0.605 1.04,-1.82 1.618,-2.7 0.577,-0.88 1.174,-2.005 1.327,-2.5 0.152,-0.495 0.445,-0.9 0.65,-0.9 0.205,0 0.373,-0.36 0.373,-0.8 0,-0.44 0.18,-0.8 0.4,-0.8 0.22,0 0.4,-0.36 0.4,-0.8 0,-0.44 0.18,-0.8 0.4,-0.8 0.22,0 0.4,-0.36 0.4,-0.8 0,-0.44 0.18,-0.8 0.4,-0.8 0.22,0 0.4,-0.36 0.4,-0.8 0,-0.44 0.18,-0.8 0.4,-0.8 0.22,0 0.4,-0.36 0.4,-0.8 0,-0.44 0.18,-0.8 0.4,-0.8 0.22,0 0.4,-0.45 0.4,-1 0,-0.55 0.18,-1 0.4,-1 0.22,0 0.4,-0.349 0.4,-0.776 0,-0.427 0.18,-0.888 0.4,-1.024 0.22,-0.136 0.4,-0.687 0.4,-1.224 0,-0.537 0.18,-0.976 0.4,-0.976 0.22,0 0.4,-0.54 0.4,-1.2 0,-0.66 0.18,-1.2 0.4,-1.2 0.22,0 0.4,-0.72 0.4,-1.6 0,-0.88 0.18,-1.6 0.4,-1.6 0.22,0 0.4,-0.619 0.4,-1.376 0,-0.757 0.18,-1.488 0.4,-1.624 0.22,-0.136 0.4,-0.957 0.4,-1.824 0,-0.867 0.18,-1.576 0.4,-1.576 0.22,0 0.4,-0.979 0.4,-2.176 0,-1.197 0.18,-2.288 0.4,-2.424 0.232,-0.143 0.4,-2.33 0.4,-5.2 0,-2.87 0.168,-5.057 0.4,-5.2 0.22,-0.136 0.4,-1.036 0.4,-2 0,-0.964 -0.18,-1.864 -0.4,-2 -0.232,-0.143 -0.4,-2.337 -0.4,-5.224 0,-3.051 -0.155,-4.976 -0.4,-4.976 -0.222,0 -0.4,-1.067 -0.4,-2.4 0,-1.333 -0.178,-2.4 -0.4,-2.4 -0.22,0 -0.4,-0.799 -0.4,-1.776 0,-0.977 -0.18,-1.888 -0.4,-2.024 -0.22,-0.136 -0.4,-0.766 -0.4,-1.4 0,-0.634 -0.18,-1.264 -0.4,-1.4 -0.22,-0.136 -0.4,-0.867 -0.4,-1.624 0,-0.757 -0.18,-1.376 -0.4,-1.376 -0.22,0 -0.4,-0.439 -0.4,-0.976 0,-0.537 -0.18,-1.088 -0.4,-1.224 -0.22,-0.136 -0.4,-0.687 -0.4,-1.224 0,-0.537 -0.18,-0.976 -0.4,-0.976 -0.22,0 -0.4,-0.36 -0.4,-0.8 0,-0.44 -0.18,-0.8 -0.4,-0.8 -0.22,0 -0.4,-0.54 -0.4,-1.2 0,-0.66 -0.18,-1.2 -0.4,-1.2 -0.22,0 -0.4,-0.36 -0.4,-0.8 0,-0.44 -0.18,-0.8 -0.4,-0.8 -0.22,0 -0.4,-0.36 -0.4,-0.8 0,-0.44 -0.18,-0.8 -0.4,-0.8 -0.22,0 -0.4,-0.36 -0.4,-0.8 0,-0.44 -0.18,-0.8 -0.4,-0.8 -0.22,0 -0.4,-0.36 -0.4,-0.8 0,-0.44 -0.18,-0.8 -0.4,-0.8 -0.22,0 -0.4,-0.36 -0.4,-0.8 0,-0.44 -0.135,-0.802 -0.3,-0.804 -0.165,-0.002 -0.655,-0.812 -1.09,-1.8 -0.434,-0.988 -0.907,-1.796 -1.051,-1.796 -0.144,0 -0.486,-0.54 -0.759,-1.2 -0.273,-0.66 -0.625,-1.2 -0.781,-1.2 -0.156,0 -0.539,-0.495 -0.851,-1.1 -0.313,-0.605 -0.973,-1.513 -1.468,-2.018 -0.495,-0.505 -0.9,-1.075 -0.9,-1.268 0,-0.192 -0.675,-1.055 -1.5,-1.918 -0.825,-0.863 -1.95,-2.167 -2.5,-2.896 -1.151,-1.527 -0.956,-1.331 -4.974,-5 -1.687,-1.54 -3.896,-3.565 -4.91,-4.5 -1.014,-0.935 -1.996,-1.7 -2.183,-1.7 -0.187,0 -0.905,-0.54 -1.596,-1.2 -0.691,-0.66 -1.416,-1.2 -1.613,-1.2 -0.197,0 -0.744,-0.36 -1.216,-0.8 -0.472,-0.44 -1.095,-0.8 -1.383,-0.8 -0.289,0 -0.525,-0.158 -0.525,-0.351 0,-0.194 -0.54,-0.576 -1.2,-0.849 -0.66,-0.273 -1.2,-0.655 -1.2,-0.849 0,-0.193 -0.345,-0.351 -0.767,-0.351 -0.421,0 -0.826,-0.141 -0.9,-0.314 -0.198,-0.467 -6.086,-3.286 -6.863,-3.286 -0.368,0 -0.67,-0.18 -0.67,-0.4 0,-0.22 -0.36,-0.4 -0.8,-0.4 -0.44,0 -0.8,-0.18 -0.8,-0.4 0,-0.22 -0.54,-0.4 -1.2,-0.4 -0.66,0 -1.2,-0.18 -1.2,-0.4 0,-0.22 -0.36,-0.4 -0.8,-0.4 -0.44,0 -0.8,-0.18 -0.8,-0.4 0,-0.22 -0.54,-0.4 -1.2,-0.4 -0.66,0 -1.2,-0.18 -1.2,-0.4 0,-0.22 -0.619,-0.4 -1.376,-0.4 -0.757,0 -1.488,-0.18 -1.624,-0.4 -0.136,-0.22 -0.757,-0.4 -1.381,-0.4 -1.665,0 -1.619,0.72 -1.619,-25.438 0,-18.606 -0.115,-24.374 -0.5,-25.045 -1.012,-1.766 -3.25,-3.517 -4.495,-3.517 -0.538,0 -0.605,-6.909 -0.605,-62 0,-41.067 -0.135,-62 -0.4,-62 -0.22,0 -0.4,-0.294 -0.4,-0.653 0,-0.9 -2.004,-2.546 -3.1,-2.547 -0.495,0 -0.9,-0.18 -0.9,-0.4 0,-0.257 -3.867,-0.4 -10.8,-0.4 -6.933,0 -10.8,0.143 -10.8,0.4 M 104.157,36.233 c 0.373,0.97 0.276,115.095 -0.097,115.684 -0.237,0.373 -1.272,0.485 -3.694,0.4 L 97,152.2 96.899,93.9 96.797,35.6 h 3.559 c 2.876,0 3.605,0.121 3.801,0.633 m 199.2,0 c 0.505,1.316 0.272,115.178 -0.237,115.687 -0.296,0.296 -1.751,0.48 -3.8,0.48 H 296 V 94 35.6 h 3.557 c 2.875,0 3.604,0.121 3.8,0.633 M 109.4,183.533 v 20.134 h -8.684 c -4.777,0 -8.872,-0.116 -9.1,-0.257 -0.641,-0.396 -0.571,-39.095 0.072,-39.738 0.36,-0.36 2.737,-0.459 9.1,-0.38 l 8.612,0.108 v 20.133 M 308.32,163.68 c 0.622,0.622 0.701,39.911 0.08,39.937 -0.22,0.009 -4.315,0.024 -9.1,0.033 l -8.7,0.017 -0.104,-19.734 c -0.057,-10.853 -0.018,-19.958 0.087,-20.233 0.269,-0.702 17.037,-0.72 17.737,-0.02 M 111,215.145 c 1.32,0.211 3.21,0.499 4.2,0.639 3.231,0.458 12.884,3.329 13.133,3.907 0.074,0.17 0.391,0.309 0.706,0.309 0.314,0 0.884,0.161 1.266,0.358 0.382,0.197 1.955,0.958 3.495,1.692 1.54,0.734 2.89,1.442 3,1.574 0.11,0.132 0.785,0.495 1.5,0.806 0.715,0.311 1.3,0.701 1.3,0.868 0,0.166 0.27,0.302 0.6,0.302 0.33,0 0.6,0.15 0.6,0.332 0,0.183 0.495,0.588 1.1,0.9 0.605,0.312 1.19,0.663 1.3,0.781 0.11,0.118 1.46,1.1 3,2.183 3.01,2.115 11.064,9.907 12.616,12.204 0.52,0.77 1.27,1.691 1.665,2.047 0.395,0.356 0.719,0.806 0.72,1 0,0.194 0.54,0.983 1.199,1.753 0.659,0.77 1.199,1.625 1.199,1.9 0.001,0.275 0.181,0.5 0.401,0.5 0.22,0 0.4,0.27 0.4,0.6 0,0.33 0.135,0.601 0.3,0.603 0.326,0.004 0.305,-0.036 3.214,5.797 3.143,6.301 5.253,12.763 6.531,20 1.029,5.83 1.027,21.309 -0.003,26.4 -1.35,6.665 -1.862,8.61 -3.32,12.6 -1.569,4.295 -5.389,12.269 -6.323,13.2 -0.11,0.11 -0.455,0.695 -0.767,1.3 -0.312,0.605 -0.717,1.1 -0.9,1.1 -0.182,0 -0.332,0.236 -0.332,0.525 0,0.288 -0.315,0.874 -0.7,1.301 -0.385,0.427 -1.51,1.856 -2.5,3.174 -1.722,2.293 -9.142,9.966 -11.18,11.561 -3.602,2.82 -5.909,4.413 -9.42,6.504 -4.333,2.581 -9.101,4.935 -9.994,4.935 -0.307,0 -0.67,0.18 -0.806,0.4 -0.136,0.22 -0.687,0.4 -1.224,0.4 -0.537,0 -0.976,0.18 -0.976,0.4 0,0.22 -0.439,0.4 -0.976,0.4 -0.537,0 -1.088,0.18 -1.224,0.4 -0.136,0.22 -0.777,0.4 -1.424,0.4 -0.647,0 -1.176,0.18 -1.176,0.4 0,0.22 -0.619,0.4 -1.376,0.4 -0.757,0 -1.488,0.18 -1.624,0.4 -0.136,0.22 -0.946,0.4 -1.8,0.4 -0.854,0 -1.664,0.18 -1.8,0.4 -0.136,0.22 -1.306,0.4 -2.6,0.4 -1.294,0 -2.464,0.18 -2.6,0.4 -0.152,0.246 -3.53,0.4 -8.8,0.4 -5.27,0 -8.648,-0.154 -8.8,-0.4 -0.136,-0.22 -1.306,-0.4 -2.6,-0.4 -1.294,0 -2.464,-0.18 -2.6,-0.4 -0.136,-0.22 -0.946,-0.4 -1.8,-0.4 -0.854,0 -1.664,-0.18 -1.8,-0.4 -0.136,-0.22 -0.856,-0.4 -1.6,-0.4 -0.744,0 -1.464,-0.18 -1.6,-0.4 -0.136,-0.22 -0.676,-0.4 -1.2,-0.4 -0.524,0 -1.064,-0.18 -1.2,-0.4 -0.136,-0.22 -0.599,-0.4 -1.029,-0.4 -0.43,0 -1.094,-0.159 -1.476,-0.353 -0.665,-0.339 -1.851,-0.838 -3.795,-1.599 -3.527,-1.382 -8.884,-4.277 -12.848,-6.945 -4.68,-3.15 -13.385,-11.218 -16.078,-14.903 -0.643,-0.88 -1.269,-1.69 -1.391,-1.8 -0.122,-0.11 -0.658,-0.83 -1.191,-1.6 -0.534,-0.77 -1.29,-1.749 -1.681,-2.175 -0.391,-0.427 -0.711,-0.997 -0.711,-1.267 0,-0.27 -0.135,-0.551 -0.3,-0.625 C 36.068,328.763 31.21,318.794 29.818,314.6 28.194,309.705 28,309.01 28,308.095 c 0,-0.466 -0.18,-0.959 -0.4,-1.095 -0.22,-0.136 -0.4,-1.036 -0.4,-2 0,-0.964 -0.18,-1.864 -0.4,-2 -0.22,-0.136 -0.4,-1.306 -0.4,-2.6 0,-1.294 -0.18,-2.464 -0.4,-2.6 -0.54,-0.334 -0.54,-16.466 0,-16.8 0.22,-0.136 0.4,-1.306 0.4,-2.6 0,-1.294 0.18,-2.464 0.4,-2.6 0.22,-0.136 0.4,-1.036 0.4,-2 0,-0.964 0.18,-1.864 0.4,-2 0.22,-0.136 0.4,-0.629 0.4,-1.095 0,-2.878 5.096,-15.363 8.073,-19.777 0.62,-0.92 1.127,-1.865 1.127,-2.1 0,-0.235 0.18,-0.428 0.4,-0.428 0.22,0 0.4,-0.27 0.4,-0.6 0,-0.33 0.18,-0.6 0.4,-0.6 0.22,0 0.4,-0.27 0.4,-0.6 0,-0.33 0.141,-0.6 0.314,-0.6 0.172,0 0.626,-0.529 1.008,-1.176 0.383,-0.647 1.366,-1.916 2.187,-2.819 0.82,-0.903 2.391,-2.67 3.491,-3.926 1.783,-2.036 3.324,-3.476 8.2,-7.664 0.77,-0.661 1.507,-1.205 1.638,-1.209 0.131,-0.003 0.761,-0.456 1.4,-1.006 0.639,-0.549 1.387,-0.999 1.662,-1 0.275,0 0.5,-0.15 0.5,-0.332 0,-0.183 0.495,-0.588 1.1,-0.9 0.605,-0.312 1.19,-0.657 1.3,-0.767 0.677,-0.68 7.996,-4.401 8.655,-4.401 0.3,0 0.545,-0.18 0.545,-0.4 0,-0.22 0.272,-0.4 0.605,-0.4 0.333,0 0.963,-0.18 1.4,-0.4 0.437,-0.22 1.153,-0.58 1.59,-0.8 0.437,-0.22 1.069,-0.4 1.405,-0.4 0.336,0 0.923,-0.162 1.305,-0.361 0.382,-0.199 1.415,-0.544 2.295,-0.767 0.88,-0.223 2.32,-0.588 3.2,-0.811 0.88,-0.223 2.86,-0.591 4.4,-0.819 1.54,-0.228 3.79,-0.585 5,-0.794 2.618,-0.452 15.591,-0.25 19,0.297 m 199.3,0.027 c 1.375,0.235 3.535,0.593 4.8,0.794 1.265,0.202 3.02,0.574 3.9,0.828 0.88,0.254 2.05,0.563 2.6,0.688 0.55,0.124 1.18,0.349 1.4,0.5 0.22,0.15 1.21,0.518 2.2,0.816 0.99,0.297 1.971,0.69 2.18,0.872 0.209,0.181 0.704,0.33 1.1,0.33 0.396,0 0.72,0.18 0.72,0.4 0,0.22 0.245,0.4 0.545,0.4 0.659,0 7.978,3.721 8.655,4.401 0.11,0.11 0.695,0.455 1.3,0.767 0.605,0.312 1.1,0.717 1.1,0.9 0,0.182 0.236,0.332 0.525,0.332 0.288,0 0.873,0.315 1.3,0.7 0.426,0.385 1.54,1.22 2.476,1.855 2.989,2.03 9.918,8.655 11.636,11.126 0.352,0.505 1.036,1.319 1.522,1.808 0.486,0.489 1.205,1.434 1.598,2.1 0.394,0.666 0.857,1.211 1.029,1.211 0.173,0 0.314,0.27 0.314,0.6 0,0.33 0.18,0.6 0.4,0.6 0.22,0 0.4,0.27 0.4,0.6 0,0.33 0.18,0.6 0.4,0.6 0.22,0 0.4,0.27 0.4,0.6 0,0.33 0.18,0.6 0.4,0.6 0.22,0 0.4,0.27 0.4,0.6 0,0.33 0.135,0.601 0.3,0.601 0.165,0.001 0.75,0.991 1.3,2.199 0.55,1.208 1.135,2.198 1.3,2.199 0.165,0 0.3,0.361 0.3,0.801 0,0.44 0.18,0.8 0.4,0.8 0.22,0 0.4,0.242 0.4,0.539 0,0.296 0.25,1.061 0.556,1.7 1.529,3.192 2.539,6.006 4.035,11.243 0.331,1.16 0.953,4.44 1.501,7.918 0.586,3.717 0.579,18.867 -0.011,22.4 -0.892,5.348 -1.221,6.914 -2.07,9.849 -1.2,4.154 -1.945,6.16 -3.455,9.312 -0.306,0.639 -0.556,1.404 -0.556,1.7 0,0.297 -0.18,0.539 -0.4,0.539 -0.22,0 -0.4,0.36 -0.4,0.8 0,0.44 -0.138,0.8 -0.306,0.8 -0.168,0 -0.612,0.675 -0.988,1.5 -0.687,1.512 -1.935,3.73 -2.307,4.1 -0.11,0.11 -0.455,0.695 -0.767,1.3 -0.312,0.605 -0.717,1.1 -0.9,1.1 -0.182,0 -0.332,0.193 -0.332,0.429 0,0.235 -0.225,0.665 -0.5,0.955 -0.986,1.039 -1.9,2.23 -1.9,2.475 0,1.061 -12.417,13.327 -13.5,13.337 -0.275,0.002 -0.501,0.139 -0.503,0.304 -0.001,0.165 -0.676,0.748 -1.5,1.296 -0.823,0.548 -1.587,1.095 -1.697,1.215 -0.905,0.988 -9.426,5.578 -12.7,6.842 -1.773,0.684 -3.111,1.246 -3.795,1.594 -0.382,0.194 -1.057,0.353 -1.5,0.353 -0.443,0 -0.805,0.18 -0.805,0.4 0,0.22 -0.529,0.4 -1.176,0.4 -0.647,0 -1.288,0.18 -1.424,0.4 -0.136,0.22 -0.856,0.4 -1.6,0.4 -0.744,0 -1.464,0.18 -1.6,0.4 -0.136,0.22 -0.921,0.4 -1.744,0.4 -0.823,0 -1.667,0.164 -1.876,0.365 -0.912,0.875 -21.914,1.661 -22.724,0.851 -0.229,-0.229 -1.449,-0.416 -2.712,-0.416 -1.263,0 -2.408,-0.18 -2.544,-0.4 -0.136,-0.22 -0.946,-0.4 -1.8,-0.4 -0.854,0 -1.664,-0.18 -1.8,-0.4 -0.136,-0.22 -0.867,-0.4 -1.624,-0.4 -0.757,0 -1.376,-0.18 -1.376,-0.4 0,-0.22 -0.54,-0.4 -1.2,-0.4 -0.66,0 -1.2,-0.18 -1.2,-0.4 0,-0.22 -0.54,-0.4 -1.2,-0.4 -0.66,0 -1.2,-0.18 -1.2,-0.4 0,-0.22 -0.362,-0.4 -0.805,-0.4 -0.443,0 -1.118,-0.165 -1.5,-0.366 -0.382,-0.202 -1.325,-0.631 -2.095,-0.953 -9.844,-4.122 -21.247,-12.601 -27.606,-20.526 -0.333,-0.415 -1.233,-1.559 -2,-2.541 -0.766,-0.982 -1.709,-2.141 -2.094,-2.576 -0.385,-0.434 -0.7,-1.025 -0.7,-1.313 0,-0.289 -0.147,-0.525 -0.326,-0.525 -0.179,0 -0.697,-0.675 -1.151,-1.5 -0.453,-0.825 -1.527,-2.76 -2.386,-4.3 -1.983,-3.558 -4.537,-9.493 -4.537,-10.546 0,-0.444 -0.18,-0.918 -0.4,-1.054 -0.22,-0.136 -0.4,-0.676 -0.4,-1.2 0,-0.524 -0.18,-1.064 -0.4,-1.2 -0.22,-0.136 -0.4,-0.867 -0.4,-1.624 0,-0.757 -0.18,-1.376 -0.4,-1.376 -0.22,0 -0.4,-0.709 -0.4,-1.576 0,-0.867 -0.18,-1.688 -0.4,-1.824 -0.22,-0.136 -0.4,-1.101 -0.4,-2.144 0,-1.043 -0.19,-2.086 -0.422,-2.318 -0.275,-0.275 -0.422,-4.032 -0.422,-10.738 0,-6.706 0.147,-10.463 0.422,-10.738 0.232,-0.232 0.422,-1.275 0.422,-2.318 0,-1.043 0.18,-2.008 0.4,-2.144 0.22,-0.136 0.4,-0.946 0.4,-1.8 0,-0.854 0.18,-1.664 0.4,-1.8 0.22,-0.136 0.4,-0.689 0.4,-1.229 0,-0.54 0.162,-1.294 0.361,-1.676 0.199,-0.382 0.595,-1.505 0.881,-2.495 1.132,-3.921 4.17,-10.704 6.033,-13.472 0.619,-0.92 1.125,-1.865 1.125,-2.1 0,-0.235 0.18,-0.428 0.4,-0.428 0.22,0 0.4,-0.236 0.4,-0.525 0,-0.288 0.32,-0.873 0.711,-1.3 0.391,-0.426 1.147,-1.405 1.681,-2.175 0.533,-0.77 1.069,-1.49 1.191,-1.6 0.122,-0.11 0.755,-0.92 1.406,-1.8 1.996,-2.696 9.451,-9.905 12.411,-12.002 1.54,-1.09 2.86,-2.121 2.933,-2.291 0.074,-0.169 0.355,-0.307 0.625,-0.307 0.27,0 0.849,-0.315 1.287,-0.7 0.74,-0.651 1.544,-1.163 3.555,-2.262 0.44,-0.241 0.89,-0.528 1,-0.638 0.462,-0.462 3.721,-2 4.238,-2 0.309,0 0.562,-0.18 0.562,-0.4 0,-0.22 0.272,-0.4 0.605,-0.4 0.333,0 0.918,-0.165 1.3,-0.366 4.71,-2.485 10.668,-4.097 19.273,-5.217 1.858,-0.241 3.478,-0.54 3.6,-0.663 0.357,-0.36 14.782,0.149 17.522,0.618 M 92.2,228 c -0.136,0.22 -1.227,0.4 -2.424,0.4 -1.197,0 -2.176,0.18 -2.176,0.4 0,0.22 -0.709,0.4 -1.576,0.4 -0.867,0 -1.688,0.18 -1.824,0.4 -0.136,0.22 -0.676,0.4 -1.2,0.4 -0.524,0 -1.064,0.18 -1.2,0.4 -0.136,0.22 -0.599,0.4 -1.029,0.4 -0.43,0 -1.094,0.159 -1.476,0.353 -0.382,0.195 -1.145,0.531 -1.695,0.747 -4.399,1.729 -14.258,7.482 -15.608,9.11 -0.269,0.324 -0.661,0.59 -0.871,0.59 -0.587,0 -7.349,7.058 -9.368,9.777 -0.988,1.333 -2.058,2.74 -2.375,3.128 -0.318,0.387 -0.578,0.848 -0.578,1.024 0,0.176 -0.315,0.669 -0.7,1.096 -0.385,0.426 -0.964,1.315 -1.286,1.975 -0.322,0.66 -0.907,1.678 -1.3,2.262 -0.393,0.584 -0.714,1.349 -0.714,1.7 0,0.351 -0.18,0.638 -0.4,0.638 -0.22,0 -0.4,0.349 -0.4,0.776 0,0.427 -0.18,0.888 -0.4,1.024 -0.22,0.136 -0.4,0.597 -0.4,1.024 0,0.427 -0.18,0.776 -0.4,0.776 -0.22,0 -0.4,0.439 -0.4,0.976 0,0.537 -0.159,1.075 -0.354,1.195 -0.195,0.121 -0.45,0.716 -0.567,1.324 -0.117,0.608 -0.42,1.825 -0.674,2.705 -2.356,8.185 -2.535,25.482 -0.328,31.8 0.763,2.183 1.123,3.571 1.123,4.328 0,0.48 0.18,0.872 0.4,0.872 0.22,0 0.4,0.349 0.4,0.776 0,0.427 0.18,0.888 0.4,1.024 0.22,0.136 0.4,0.687 0.4,1.224 0,0.537 0.18,0.976 0.4,0.976 0.22,0 0.4,0.36 0.4,0.8 0,0.44 0.18,0.8 0.4,0.8 0.22,0 0.4,0.345 0.4,0.767 0,0.421 0.135,0.826 0.3,0.9 0.165,0.073 0.75,1.033 1.299,2.133 0.55,1.1 1.315,2.349 1.7,2.775 0.386,0.427 0.701,1.012 0.701,1.3 0,0.289 0.15,0.525 0.332,0.525 0.183,0 0.587,0.495 0.898,1.1 0.31,0.605 0.838,1.37 1.172,1.7 0.334,0.33 1.08,1.23 1.659,2 1.524,2.029 6.277,6.819 8.139,8.202 0.88,0.654 1.87,1.462 2.2,1.796 0.33,0.334 1.095,0.862 1.7,1.172 0.605,0.311 1.1,0.715 1.1,0.898 0,0.182 0.27,0.332 0.6,0.332 0.33,0 0.6,0.18 0.6,0.4 0,0.22 0.27,0.4 0.6,0.4 0.33,0 0.601,0.135 0.601,0.3 0.001,0.165 0.991,0.75 2.199,1.3 1.208,0.55 2.198,1.135 2.199,1.3 0,0.165 0.361,0.3 0.801,0.3 0.44,0 0.8,0.159 0.8,0.353 0,0.195 0.405,0.454 0.9,0.576 0.495,0.122 2.365,0.748 4.156,1.391 1.791,0.644 3.771,1.293 4.4,1.443 0.629,0.15 1.864,0.457 2.744,0.683 3.811,0.976 7.246,1.294 14,1.296 9.471,0.002 11.809,-0.364 20.6,-3.227 2.824,-0.919 9.563,-3.932 10,-4.47 0.11,-0.135 0.74,-0.516 1.4,-0.846 0.66,-0.329 1.549,-0.914 1.975,-1.299 0.427,-0.385 0.997,-0.7 1.267,-0.7 0.27,0 0.551,-0.142 0.625,-0.315 0.073,-0.173 0.943,-0.938 1.933,-1.7 2.896,-2.228 8.331,-7.588 10.329,-10.185 1.015,-1.32 2.077,-2.638 2.359,-2.929 0.281,-0.29 0.512,-0.682 0.512,-0.871 0,-0.189 0.225,-0.588 0.5,-0.887 0.468,-0.51 0.745,-0.953 2,-3.213 0.275,-0.495 0.594,-0.99 0.708,-1.1 0.115,-0.11 0.808,-1.46 1.542,-3 0.734,-1.54 1.495,-3.113 1.692,-3.495 0.197,-0.382 0.358,-0.967 0.358,-1.3 0,-0.333 0.18,-0.605 0.4,-0.605 0.22,0 0.4,-0.54 0.4,-1.2 0,-0.66 0.16,-1.2 0.356,-1.2 0.196,0 0.453,-0.585 0.571,-1.3 0.119,-0.715 0.42,-2.11 0.67,-3.1 1.102,-4.366 1.354,-7.09 1.354,-14.6 0,-7.51 -0.252,-10.234 -1.354,-14.6 -0.25,-0.99 -0.551,-2.385 -0.67,-3.1 -0.118,-0.715 -0.375,-1.3 -0.571,-1.3 -0.196,0 -0.356,-0.362 -0.356,-0.805 0,-0.778 -0.142,-1.164 -1.138,-3.09 -0.254,-0.492 -0.462,-1.167 -0.462,-1.5 0,-0.333 -0.18,-0.605 -0.4,-0.605 -0.22,0 -0.4,-0.253 -0.4,-0.562 0,-0.528 -1.553,-3.802 -2.01,-4.238 -0.115,-0.11 -0.655,-1.055 -1.199,-2.1 -0.544,-1.045 -1.125,-1.9 -1.29,-1.9 -0.166,0 -0.301,-0.178 -0.301,-0.396 0,-1.6 -10.777,-13.012 -15,-15.882 -4.856,-3.301 -9.467,-5.854 -13.4,-7.418 -0.55,-0.218 -1.313,-0.556 -1.695,-0.751 -0.382,-0.194 -1.046,-0.353 -1.476,-0.353 -0.43,0 -0.893,-0.18 -1.029,-0.4 -0.136,-0.22 -0.766,-0.4 -1.4,-0.4 -0.634,0 -1.264,-0.18 -1.4,-0.4 -0.136,-0.22 -0.856,-0.4 -1.6,-0.4 -0.744,0 -1.464,-0.18 -1.6,-0.4 -0.136,-0.22 -1.126,-0.4 -2.2,-0.4 -1.074,0 -2.064,-0.18 -2.2,-0.4 -0.152,-0.245 -3.396,-0.4 -8.4,-0.4 -5.004,0 -8.248,0.155 -8.4,0.4 m 198.8,0 c -0.136,0.22 -1.126,0.4 -2.2,0.4 -1.074,0 -2.064,0.18 -2.2,0.4 -0.136,0.22 -0.856,0.4 -1.6,0.4 -0.744,0 -1.464,0.18 -1.6,0.4 -0.136,0.22 -0.766,0.4 -1.4,0.4 -0.634,0 -1.264,0.18 -1.4,0.4 -0.136,0.22 -0.599,0.4 -1.029,0.4 -0.43,0 -1.184,0.208 -1.676,0.462 -1.877,0.971 -2.302,1.138 -2.89,1.138 -0.333,0 -0.605,0.18 -0.605,0.4 0,0.22 -0.265,0.4 -0.588,0.4 -0.623,0 -1.675,0.559 -7.628,4.052 -3.43,2.012 -5.264,3.503 -9.774,7.948 -4.379,4.315 -8.41,9.111 -8.41,10.004 0,0.218 -0.159,0.396 -0.353,0.396 -0.195,0 -0.454,0.315 -0.576,0.7 -0.217,0.685 -1.475,2.904 -1.871,3.3 -0.462,0.462 -2,3.721 -2,4.238 0,0.309 -0.18,0.562 -0.4,0.562 -0.22,0 -0.4,0.272 -0.4,0.605 0,0.333 -0.18,0.963 -0.4,1.4 -0.22,0.437 -0.58,1.153 -0.8,1.59 -0.22,0.437 -0.4,1.069 -0.4,1.405 0,0.336 -0.167,0.923 -0.37,1.305 -0.342,0.642 -0.741,2.304 -2.089,8.695 -0.673,3.191 -0.673,16.809 0,20 1.19,5.643 1.752,8.049 2.055,8.8 0.178,0.44 0.54,1.43 0.804,2.2 0.264,0.77 0.621,1.76 0.791,2.2 0.493,1.269 2.971,6.379 3.201,6.6 0.19,0.183 0.489,0.687 1.77,2.985 0.241,0.431 0.663,1.029 0.938,1.328 0.275,0.299 0.5,0.698 0.5,0.887 0,0.189 0.228,0.581 0.506,0.871 0.278,0.291 1.119,1.339 1.868,2.329 2.062,2.723 8.694,9.191 11.626,11.34 1.43,1.047 2.873,2.12 3.206,2.382 0.333,0.263 1.143,0.748 1.8,1.077 0.657,0.33 1.284,0.69 1.394,0.8 2.023,2.03 13.021,5.883 20.8,7.287 4.768,0.861 18.273,0.572 22.4,-0.479 0.77,-0.196 2.3,-0.565 3.4,-0.821 1.1,-0.255 2.27,-0.563 2.6,-0.683 0.33,-0.12 1.77,-0.652 3.2,-1.182 1.43,-0.53 3.005,-1.065 3.5,-1.189 0.495,-0.124 0.9,-0.384 0.9,-0.579 0,-0.194 0.36,-0.353 0.8,-0.353 0.44,0 0.8,-0.18 0.8,-0.4 0,-0.22 0.36,-0.4 0.8,-0.4 0.44,0 0.8,-0.18 0.8,-0.4 0,-0.22 0.36,-0.4 0.8,-0.4 0.44,0 0.8,-0.18 0.8,-0.4 0,-0.22 0.27,-0.4 0.6,-0.4 0.33,0 0.6,-0.18 0.6,-0.4 0,-0.22 0.27,-0.4 0.6,-0.4 0.33,0 0.6,-0.18 0.6,-0.4 0,-0.22 0.27,-0.4 0.6,-0.4 0.33,0 0.6,-0.18 0.6,-0.4 0,-0.22 0.27,-0.4 0.6,-0.4 0.33,0 0.6,-0.18 0.6,-0.4 0,-0.22 0.255,-0.4 0.567,-0.4 0.311,0 0.626,-0.142 0.7,-0.315 0.073,-0.173 0.933,-0.938 1.911,-1.7 2.341,-1.824 7.016,-6.48 9.022,-8.986 0.88,-1.099 1.813,-2.224 2.074,-2.501 0.26,-0.276 0.588,-0.862 0.727,-1.3 0.139,-0.439 0.399,-0.798 0.577,-0.798 0.179,0 0.549,-0.54 0.822,-1.2 0.273,-0.66 0.622,-1.2 0.774,-1.2 0.152,0 0.524,-0.63 0.826,-1.4 0.302,-0.77 0.696,-1.4 0.875,-1.4 0.179,0 0.325,-0.36 0.325,-0.8 0,-0.44 0.18,-0.8 0.4,-0.8 0.22,0 0.4,-0.36 0.4,-0.8 0,-0.44 0.18,-0.8 0.4,-0.8 0.22,0 0.4,-0.36 0.4,-0.8 0,-0.44 0.18,-0.8 0.4,-0.8 0.22,0 0.4,-0.439 0.4,-0.976 0,-0.537 0.18,-1.088 0.4,-1.224 0.22,-0.136 0.4,-0.597 0.4,-1.024 0,-0.427 0.18,-0.776 0.4,-0.776 0.22,0 0.4,-0.54 0.4,-1.2 0,-0.66 0.18,-1.2 0.4,-1.2 0.22,0 0.4,-0.594 0.4,-1.32 0,-0.726 0.162,-1.491 0.359,-1.7 0.197,-0.209 0.471,-1.19 0.607,-2.18 0.136,-0.99 0.453,-3.06 0.704,-4.6 0.588,-3.606 0.588,-13.194 0,-16.8 -0.251,-1.54 -0.568,-3.61 -0.704,-4.6 -0.136,-0.99 -0.41,-1.971 -0.607,-2.18 -0.197,-0.209 -0.359,-0.873 -0.359,-1.476 0,-0.603 -0.18,-1.208 -0.4,-1.344 -0.22,-0.136 -0.4,-0.676 -0.4,-1.2 0,-0.524 -0.18,-1.064 -0.4,-1.2 -0.22,-0.136 -0.4,-0.687 -0.4,-1.224 0,-0.537 -0.18,-0.976 -0.4,-0.976 -0.22,0 -0.4,-0.272 -0.4,-0.605 0,-0.333 -0.162,-0.918 -0.36,-1.3 -0.197,-0.382 -0.948,-1.865 -1.668,-3.295 -1.738,-3.454 -2.127,-4.162 -2.412,-4.4 -0.132,-0.11 -0.472,-0.639 -0.754,-1.175 -0.283,-0.536 -0.669,-1.166 -0.859,-1.4 -0.19,-0.234 -1.335,-1.732 -2.545,-3.33 -2.008,-2.651 -8.696,-9.695 -9.205,-9.695 -0.118,0 -1.335,-0.872 -2.706,-1.938 -2.53,-1.969 -6.233,-4.247 -8.591,-5.285 -0.715,-0.315 -1.3,-0.708 -1.3,-0.875 0,-0.166 -0.272,-0.302 -0.605,-0.302 -0.333,0 -0.918,-0.159 -1.3,-0.353 -0.716,-0.364 -2.341,-1.058 -4.095,-1.747 -0.55,-0.216 -1.313,-0.552 -1.695,-0.747 -0.382,-0.194 -1.136,-0.353 -1.676,-0.353 -0.54,0 -1.093,-0.18 -1.229,-0.4 -0.136,-0.22 -0.957,-0.4 -1.824,-0.4 -0.867,0 -1.576,-0.18 -1.576,-0.4 0,-0.22 -0.979,-0.4 -2.176,-0.4 -1.197,0 -2.288,-0.18 -2.424,-0.4 -0.152,-0.245 -3.396,-0.4 -8.4,-0.4 -5.004,0 -8.248,0.155 -8.4,0.4 m -185.58,11.965 c 0.209,0.2 1.37,0.461 2.58,0.578 3.667,0.356 8,1.185 8,1.531 0,0.179 0.439,0.326 0.976,0.326 0.537,0 1.088,0.18 1.224,0.4 0.136,0.22 0.597,0.4 1.024,0.4 0.427,0 0.776,0.18 0.776,0.4 0,0.22 0.36,0.4 0.8,0.4 0.44,0 0.8,0.18 0.8,0.4 0,0.22 0.36,0.4 0.8,0.4 0.44,0 0.8,0.18 0.8,0.4 0,0.22 0.36,0.4 0.8,0.4 0.44,0 0.8,0.18 0.8,0.4 0,0.22 0.32,0.4 0.712,0.4 0.391,0 0.971,0.36 1.288,0.8 0.317,0.44 0.807,0.8 1.088,0.8 0.282,0 0.512,0.15 0.512,0.332 0,0.183 0.494,0.588 1.097,0.9 0.603,0.313 1.657,1.108 2.342,1.768 0.685,0.66 2.037,1.932 3.003,2.827 0.967,0.895 2.44,2.38 3.274,3.3 0.834,0.92 1.689,1.673 1.9,1.673 0.211,0 0.384,0.32 0.384,0.712 0,0.391 0.36,0.971 0.8,1.288 0.44,0.317 0.8,0.857 0.8,1.2 0,0.343 0.36,0.883 0.8,1.2 0.44,0.317 0.8,0.801 0.8,1.075 0,0.273 0.81,2.149 1.8,4.168 0.99,2.019 1.8,3.995 1.8,4.391 0,0.395 0.18,0.83 0.4,0.966 0.22,0.136 0.4,0.687 0.4,1.224 0,0.537 0.18,0.976 0.4,0.976 0.22,0 0.4,0.72 0.4,1.6 0,0.88 0.18,1.6 0.4,1.6 0.222,0 0.4,1.059 0.4,2.376 0,1.307 0.18,2.488 0.4,2.624 0.232,0.143 0.4,2.33 0.4,5.2 0,2.87 -0.168,5.057 -0.4,5.2 -0.22,0.136 -0.4,1.216 -0.4,2.4 0,1.184 -0.18,2.264 -0.4,2.4 -0.22,0.136 -0.4,0.856 -0.4,1.6 0,0.744 -0.18,1.464 -0.4,1.6 -0.22,0.136 -0.4,0.777 -0.4,1.424 0,0.647 -0.18,1.176 -0.4,1.176 -0.22,0 -0.4,0.439 -0.4,0.976 0,0.537 -0.18,1.088 -0.4,1.224 -0.22,0.136 -0.4,0.597 -0.4,1.024 0,0.427 -0.18,0.776 -0.4,0.776 -0.22,0 -0.4,0.264 -0.4,0.586 0,0.322 -0.45,1.392 -1,2.377 -0.55,0.985 -1,2.032 -1,2.326 0,0.294 -0.36,0.794 -0.8,1.111 -0.44,0.317 -0.8,0.809 -0.8,1.092 0,0.283 -0.54,1.08 -1.2,1.771 -0.66,0.691 -1.2,1.416 -1.2,1.612 0,0.435 -6.657,7.014 -8.222,8.125 -0.62,0.44 -1.614,1.205 -2.21,1.7 -0.596,0.495 -1.283,0.9 -1.526,0.9 -0.243,0 -0.442,0.158 -0.442,0.351 0,0.194 -0.54,0.576 -1.2,0.849 -0.66,0.273 -1.2,0.655 -1.2,0.849 0,0.193 -0.36,0.351 -0.8,0.351 -0.44,0 -0.8,0.18 -0.8,0.4 0,0.22 -0.36,0.4 -0.8,0.4 -0.44,0 -0.8,0.18 -0.8,0.4 0,0.22 -0.36,0.4 -0.8,0.4 -0.44,0 -0.8,0.18 -0.8,0.4 0,0.22 -0.54,0.4 -1.2,0.4 -0.66,0 -1.2,0.18 -1.2,0.4 0,0.22 -0.439,0.4 -0.976,0.4 -0.537,0 -1.088,0.18 -1.224,0.4 -0.136,0.22 -0.777,0.4 -1.424,0.4 -0.647,0 -1.176,0.18 -1.176,0.4 0,0.22 -0.81,0.4 -1.8,0.4 -0.99,0 -1.8,0.18 -1.8,0.4 0,0.233 -1.333,0.4 -3.2,0.4 -1.867,0 -3.2,0.167 -3.2,0.4 0,0.222 -1.067,0.4 -2.4,0.4 -1.333,0 -2.4,-0.178 -2.4,-0.4 0,-0.233 -1.333,-0.4 -3.2,-0.4 -1.867,0 -3.2,-0.167 -3.2,-0.4 0,-0.22 -0.709,-0.4 -1.576,-0.4 -0.867,0 -1.688,-0.18 -1.824,-0.4 -0.136,-0.22 -0.777,-0.4 -1.424,-0.4 -0.647,0 -1.176,-0.18 -1.176,-0.4 0,-0.22 -0.54,-0.4 -1.2,-0.4 -0.66,0 -1.2,-0.18 -1.2,-0.4 0,-0.22 -0.36,-0.4 -0.8,-0.4 -0.44,0 -0.8,-0.18 -0.8,-0.4 0,-0.22 -0.212,-0.4 -0.472,-0.4 -0.755,0 -4.328,-1.71 -4.328,-2.071 0,-0.181 -0.36,-0.329 -0.8,-0.329 -0.44,0 -0.8,-0.18 -0.8,-0.4 0,-0.22 -0.236,-0.4 -0.525,-0.4 -0.288,0 -0.911,-0.36 -1.383,-0.8 -0.472,-0.44 -0.964,-0.8 -1.093,-0.8 -0.129,0 -0.701,-0.433 -1.271,-0.962 -0.57,-0.528 -1.507,-1.203 -2.082,-1.5 -1.19,-0.612 -6.446,-5.786 -6.446,-6.344 0,-0.202 -0.63,-0.997 -1.4,-1.767 -0.77,-0.77 -1.4,-1.676 -1.4,-2.014 0,-0.337 -0.142,-0.613 -0.317,-0.613 -0.174,0 -0.601,-0.585 -0.949,-1.3 -0.347,-0.715 -1.195,-2.346 -1.883,-3.624 -0.688,-1.278 -1.251,-2.583 -1.251,-2.9 0,-0.317 -0.18,-0.576 -0.4,-0.576 -0.22,0 -0.4,-0.36 -0.4,-0.8 0,-0.44 -0.18,-0.8 -0.4,-0.8 -0.22,0 -0.4,-0.54 -0.4,-1.2 0,-0.66 -0.18,-1.2 -0.4,-1.2 -0.22,0 -0.4,-0.619 -0.4,-1.376 0,-0.757 -0.18,-1.488 -0.4,-1.624 -0.22,-0.136 -0.4,-0.942 -0.4,-1.79 0,-0.849 -0.184,-1.605 -0.409,-1.68 -0.262,-0.087 -0.409,-3.165 -0.409,-8.53 0,-5.365 0.147,-8.443 0.409,-8.53 0.225,-0.075 0.409,-0.694 0.409,-1.375 0,-1.235 0.583,-3.472 1.249,-4.79 0.193,-0.382 0.351,-0.933 0.351,-1.224 0,-0.292 0.36,-1.276 0.8,-2.187 0.44,-0.91 0.8,-1.934 0.8,-2.275 0,-0.34 0.18,-0.619 0.4,-0.619 0.22,0 0.4,-0.36 0.4,-0.8 0,-0.44 0.135,-0.803 0.3,-0.807 0.165,-0.003 0.834,-1.083 1.486,-2.4 0.653,-1.316 1.328,-2.393 1.5,-2.393 0.173,0 0.314,-0.288 0.314,-0.64 0,-0.351 0.54,-1.143 1.2,-1.76 0.66,-0.617 1.2,-1.231 1.2,-1.366 0,-0.415 6.514,-6.781 8,-7.818 0.77,-0.538 1.49,-1.088 1.6,-1.223 0.11,-0.135 1.1,-0.853 2.2,-1.596 1.1,-0.743 2.06,-1.496 2.133,-1.674 0.074,-0.178 0.479,-0.323 0.9,-0.323 0.422,0 0.767,-0.18 0.767,-0.4 0,-0.22 0.36,-0.4 0.8,-0.4 0.44,0 0.8,-0.18 0.8,-0.4 0,-0.22 0.36,-0.4 0.8,-0.4 0.44,0 0.8,-0.18 0.8,-0.4 0,-0.22 0.54,-0.4 1.2,-0.4 0.66,0 1.2,-0.18 1.2,-0.4 0,-0.22 0.439,-0.4 0.976,-0.4 0.537,0 1.077,-0.162 1.2,-0.361 0.122,-0.198 1.303,-0.486 2.624,-0.639 1.321,-0.153 2.502,-0.441 2.624,-0.639 0.123,-0.199 1.248,-0.364 2.5,-0.367 1.252,-0.003 2.546,-0.181 2.876,-0.394 0.762,-0.492 8.912,-0.523 9.42,-0.035 m 200.98,0.254 c 1.43,0.141 2.78,0.4 3,0.575 0.22,0.174 1.525,0.445 2.9,0.601 1.375,0.156 2.5,0.446 2.5,0.644 0,0.199 0.45,0.361 1,0.361 0.55,0 1,0.18 1,0.4 0,0.22 0.54,0.4 1.2,0.4 0.66,0 1.2,0.18 1.2,0.4 0,0.22 0.36,0.4 0.8,0.4 0.44,0 0.8,0.18 0.8,0.4 0,0.22 0.36,0.4 0.8,0.4 0.44,0 0.8,0.18 0.8,0.4 0,0.22 0.32,0.4 0.712,0.4 0.391,0 0.971,0.36 1.288,0.8 0.317,0.44 0.82,0.8 1.117,0.8 0.297,0 0.777,0.225 1.067,0.5 0.815,0.774 1.886,1.62 3.416,2.699 2.49,1.755 10.4,10.061 10.4,10.92 0,0.277 0.36,0.764 0.8,1.081 0.44,0.317 0.8,0.882 0.8,1.255 0,0.373 0.135,0.738 0.3,0.812 0.473,0.21 1.7,2.589 1.7,3.295 0,0.351 0.18,0.638 0.4,0.638 0.22,0 0.4,0.279 0.4,0.619 0,0.341 0.36,1.365 0.8,2.275 0.44,0.911 0.8,1.895 0.8,2.187 0,0.291 0.158,0.842 0.351,1.224 0.666,1.318 1.249,3.555 1.249,4.79 0,0.681 0.184,1.3 0.409,1.375 0.556,0.185 0.558,16.323 0.001,16.88 -0.226,0.226 -0.41,1.083 -0.41,1.906 0,0.823 -0.18,1.608 -0.4,1.744 -0.22,0.136 -0.4,0.867 -0.4,1.624 0,0.757 -0.18,1.376 -0.4,1.376 -0.22,0 -0.4,0.362 -0.4,0.805 0,0.443 -0.164,1.118 -0.365,1.5 -0.414,0.788 -2.063,4.444 -2.883,6.395 -0.301,0.715 -0.683,1.3 -0.85,1.3 -0.166,0 -0.302,0.32 -0.302,0.712 0,0.391 -0.36,0.971 -0.8,1.288 -0.44,0.317 -0.8,0.807 -0.8,1.088 0,0.281 -0.72,1.253 -1.6,2.16 -0.88,0.907 -1.6,1.81 -1.6,2.008 0,0.454 -5.068,5.544 -5.521,5.544 -0.184,0 -1.071,0.63 -1.971,1.4 -0.899,0.77 -1.792,1.4 -1.983,1.4 -0.192,0 -0.608,0.36 -0.925,0.8 -0.317,0.44 -0.882,0.8 -1.255,0.8 -0.373,0 -0.738,0.137 -0.812,0.304 -0.179,0.408 -6.8,3.703 -7.433,3.699 -0.275,-0.002 -0.5,0.177 -0.5,0.397 0,0.22 -0.54,0.4 -1.2,0.4 -0.66,0 -1.2,0.18 -1.2,0.4 0,0.22 -0.529,0.4 -1.176,0.4 -0.647,0 -1.288,0.18 -1.424,0.4 -0.136,0.22 -0.957,0.4 -1.824,0.4 -0.867,0 -1.576,0.18 -1.576,0.4 0,0.233 -1.333,0.4 -3.2,0.4 -1.867,0 -3.2,0.167 -3.2,0.4 0,0.222 -1.067,0.4 -2.4,0.4 -1.333,0 -2.4,-0.178 -2.4,-0.4 0,-0.233 -1.333,-0.4 -3.2,-0.4 -1.867,0 -3.2,-0.167 -3.2,-0.4 0,-0.22 -0.81,-0.4 -1.8,-0.4 -0.99,0 -1.8,-0.18 -1.8,-0.4 0,-0.22 -0.54,-0.4 -1.2,-0.4 -0.66,0 -1.2,-0.18 -1.2,-0.4 0,-0.22 -0.54,-0.4 -1.2,-0.4 -0.66,0 -1.2,-0.18 -1.2,-0.4 0,-0.22 -0.54,-0.4 -1.2,-0.4 -0.66,0 -1.2,-0.18 -1.2,-0.4 0,-0.22 -0.36,-0.4 -0.8,-0.4 -0.44,0 -0.8,-0.18 -0.8,-0.4 0,-0.22 -0.36,-0.4 -0.8,-0.4 -0.44,0 -0.8,-0.18 -0.8,-0.4 0,-0.22 -0.278,-0.4 -0.617,-0.4 -0.339,0 -0.972,-0.331 -1.406,-0.736 -0.435,-0.405 -1.282,-0.99 -1.884,-1.299 -0.601,-0.31 -1.183,-0.663 -1.293,-0.784 -0.11,-0.121 -0.83,-0.656 -1.6,-1.189 -2.063,-1.429 -2.142,-1.499 -5.921,-5.194 -1.913,-1.871 -3.734,-3.896 -4.047,-4.5 -0.312,-0.604 -0.689,-1.098 -0.839,-1.098 -0.149,0 -0.596,-0.72 -0.993,-1.6 -0.397,-0.88 -0.829,-1.601 -0.961,-1.601 -0.131,-0.001 -0.689,-0.991 -1.239,-2.199 -0.55,-1.208 -1.135,-2.198 -1.3,-2.199 -0.165,0 -0.3,-0.361 -0.3,-0.801 0,-0.44 -0.18,-0.8 -0.4,-0.8 -0.22,0 -0.4,-0.349 -0.4,-0.776 0,-0.427 -0.18,-0.888 -0.4,-1.024 -0.22,-0.136 -0.4,-0.687 -0.4,-1.224 0,-0.537 -0.18,-0.976 -0.4,-0.976 -0.22,0 -0.4,-0.529 -0.4,-1.176 0,-0.647 -0.18,-1.288 -0.4,-1.424 -0.22,-0.136 -0.4,-0.856 -0.4,-1.6 0,-0.744 -0.18,-1.464 -0.4,-1.6 -0.22,-0.136 -0.4,-1.317 -0.4,-2.624 0,-1.317 -0.178,-2.376 -0.4,-2.376 -0.245,0 -0.4,-1.925 -0.4,-4.976 0,-2.887 0.168,-5.081 0.4,-5.224 0.22,-0.136 0.4,-1.317 0.4,-2.624 0,-1.317 0.178,-2.376 0.4,-2.376 0.22,0 0.4,-0.72 0.4,-1.6 0,-0.88 0.18,-1.6 0.4,-1.6 0.22,0 0.4,-0.439 0.4,-0.976 0,-0.537 0.18,-1.088 0.4,-1.224 0.22,-0.136 0.4,-0.687 0.4,-1.224 0,-0.537 0.18,-0.976 0.4,-0.976 0.22,0 0.4,-0.256 0.4,-0.569 0,-0.647 3.156,-6.988 3.831,-7.697 0.244,-0.256 0.674,-1.021 0.955,-1.7 0.281,-0.679 0.669,-1.234 0.863,-1.234 0.193,0 0.351,-0.36 0.351,-0.8 0,-0.44 0.173,-0.8 0.384,-0.8 0.211,0 1.066,-0.753 1.9,-1.674 0.834,-0.921 2.123,-2.226 2.864,-2.9 0.742,-0.674 2.094,-1.946 3.005,-2.826 0.911,-0.88 2.15,-1.855 2.752,-2.168 0.602,-0.312 1.095,-0.717 1.095,-0.9 0,-0.182 0.27,-0.332 0.6,-0.332 0.33,0 0.6,-0.18 0.6,-0.4 0,-0.22 0.27,-0.4 0.6,-0.4 0.33,0 0.6,-0.18 0.6,-0.4 0,-0.22 0.27,-0.4 0.6,-0.4 0.33,0 0.6,-0.18 0.6,-0.4 0,-0.22 0.36,-0.4 0.8,-0.4 0.44,0 0.8,-0.18 0.8,-0.4 0,-0.22 0.36,-0.4 0.8,-0.4 0.44,0 0.8,-0.18 0.8,-0.4 0,-0.22 0.36,-0.4 0.8,-0.4 0.44,0 0.8,-0.18 0.8,-0.4 0,-0.22 0.36,-0.4 0.8,-0.4 0.44,0 0.8,-0.18 0.8,-0.4 0,-0.22 0.54,-0.4 1.2,-0.4 0.66,0 1.2,-0.147 1.2,-0.326 0,-0.346 4.333,-1.175 8,-1.531 1.21,-0.117 2.38,-0.387 2.6,-0.6 0.398,-0.384 6.603,-0.24 11.8,0.276"
       stroke="none"
       fill="#041c64"
       fill-rule="evenodd" />
    <path
       id="path2"
       d="M 97.385,36.5 C 97.28,36.775 97.241,62.83 97.297,94.4 L 97.4,151.8 97.6,93.9 C 97.71,62.055 97.749,36 97.687,36 c -0.061,0 -0.198,0.225 -0.302,0.5 m 5.715,-0.235 c 0.397,0.16 0.5,12.086 0.5,57.751 v 57.549 l -2.9,0.148 -2.9,0.148 3,-0.031 3,-0.03 0.101,-57.9 c 0.097,-54.967 0.066,-57.898 -0.6,-57.868 -0.418,0.018 -0.499,0.113 -0.201,0.233 M 296.185,36.5 c -0.105,0.275 -0.144,26.33 -0.088,57.9 l 0.103,57.4 2.8,0.026 2.8,0.026 -2.7,-0.143 -2.7,-0.144 V 94.016 c 0,-45.665 0.103,-57.591 0.5,-57.751 0.392,-0.158 0.389,-0.209 -0.013,-0.233 -0.281,-0.018 -0.598,0.193 -0.702,0.468 m 6.115,36.6 c 0.055,20.405 0.147,46.46 0.204,57.9 0.057,11.44 0.147,-5.255 0.2,-37.1 C 302.757,62.055 302.665,36 302.5,36 c -0.165,0 -0.255,16.695 -0.2,37.1 M 91.785,183.6 c 0,10.67 0.052,15.035 0.115,9.7 0.063,-5.335 0.063,-14.065 0,-19.4 -0.063,-5.335 -0.115,-0.97 -0.115,9.7 m 17.6,0 c 0,10.67 0.052,15.035 0.115,9.7 0.063,-5.335 0.063,-14.065 0,-19.4 -0.063,-5.335 -0.115,-0.97 -0.115,9.7 m 198.8,0 c 0,10.67 0.052,15.035 0.115,9.7 0.063,-5.335 0.063,-14.065 0,-19.4 -0.063,-5.335 -0.115,-0.97 -0.115,9.7 M 99.5,227.089 c 0.715,0.089 1.885,0.089 2.6,0 0.715,-0.088 0.13,-0.161 -1.3,-0.161 -1.43,0 -2.015,0.073 -1.3,0.161 m 198.8,0 c 0.715,0.089 1.885,0.089 2.6,0 0.715,-0.088 0.13,-0.161 -1.3,-0.161 -1.43,0 -2.015,0.073 -1.3,0.161 M 351.4,236 c 1.306,1.32 2.465,2.4 2.575,2.4 0.11,0 -0.869,-1.08 -2.175,-2.4 -1.306,-1.32 -2.465,-2.4 -2.575,-2.4 -0.11,0 0.869,1.08 2.175,2.4 m -304.019,0.9 -1.581,1.7 1.7,-1.581 c 0.935,-0.87 1.7,-1.635 1.7,-1.7 0,-0.303 -0.348,0 -1.819,1.581 m 127.512,46.7 c 0,0.77 0.082,1.085 0.183,0.7 0.1,-0.385 0.1,-1.015 0,-1.4 -0.101,-0.385 -0.183,-0.07 -0.183,0.7 m 50,0 c 0,0.77 0.082,1.085 0.183,0.7 0.1,-0.385 0.1,-1.015 0,-1.4 -0.101,-0.385 -0.183,-0.07 -0.183,0.7 m 136.853,5.8 c 0.001,2.2 0.068,3.049 0.149,1.887 0.081,-1.163 0.081,-2.963 -0.002,-4 -0.082,-1.038 -0.148,-0.087 -0.147,2.113 m 12.4,0 c 10e-4,2.2 0.068,3.049 0.149,1.887 0.081,-1.163 0.081,-2.963 -0.002,-4 -0.082,-1.038 -0.148,-0.087 -0.147,2.113 m -211.215,0 c 0.002,1.54 0.074,2.121 0.161,1.291 0.087,-0.83 0.085,-2.09 -0.003,-2.8 -0.089,-0.71 -0.16,-0.031 -0.158,1.509 m -137.207,0 c 0.002,1.32 0.077,1.812 0.166,1.093 0.089,-0.719 0.087,-1.799 -0.004,-2.4 -0.091,-0.601 -0.164,-0.013 -0.162,1.307 m 12.4,0 c 0.002,1.32 0.077,1.812 0.166,1.093 0.089,-0.719 0.087,-1.799 -0.004,-2.4 -0.091,-0.601 -0.164,-0.013 -0.162,1.307 m 198.777,0 c 0.004,0.88 0.086,1.193 0.182,0.695 0.096,-0.497 0.092,-1.217 -0.008,-1.6 -0.1,-0.382 -0.179,0.025 -0.174,0.905 m -62.008,5.8 c 0,0.77 0.082,1.085 0.183,0.7 0.1,-0.385 0.1,-1.015 0,-1.4 -0.101,-0.385 -0.183,-0.07 -0.183,0.7 m 50,0 c 0,0.77 0.082,1.085 0.183,0.7 0.1,-0.385 0.1,-1.015 0,-1.4 -0.101,-0.385 -0.183,-0.07 -0.183,0.7"
       stroke="none"
       fill="#606872"
       fill-rule="evenodd" />
    <path
       id="path3"
       d="m 97.785,36.9 c -0.105,0.275 -0.144,26.15 -0.088,57.5 l 0.103,57 2.9,0.118 2.9,0.117 V 94.018 36.4 h -2.813 c -1.881,0 -2.875,0.165 -3.002,0.5 M 296.4,94.018 v 57.617 l 2.9,-0.117 2.9,-0.118 0.101,-57.5 0.102,-57.5 h -3.002 -3.001 v 57.618"
       stroke="none"
       fill="#c4c7cd"
       fill-rule="evenodd" />
    <path
       id="path4"
       d="m 99.091,152.289 c 0.71,0.088 1.97,0.09 2.8,0.003 0.83,-0.087 0.249,-0.159 -1.291,-0.161 -1.54,-0.002 -2.219,0.069 -1.509,0.158 m 199.209,0 c 0.715,0.089 1.885,0.089 2.6,0 0.715,-0.088 0.13,-0.161 -1.3,-0.161 -1.43,0 -2.015,0.073 -1.3,0.161 M 91.385,183.6 c 0,10.67 0.052,15.035 0.115,9.7 0.063,-5.335 0.063,-14.065 0,-19.4 -0.063,-5.335 -0.115,-0.97 -0.115,9.7 m 217.2,0 c 0,10.67 0.052,15.035 0.115,9.7 0.063,-5.335 0.063,-14.065 0,-19.4 -0.063,-5.335 -0.115,-0.97 -0.115,9.7 m -214.28,19.883 c 0.497,0.096 1.217,0.092 1.6,-0.008 0.382,-0.1 -0.025,-0.179 -0.905,-0.174 -0.88,0.004 -1.193,0.086 -0.695,0.182 m 10.995,-0.007 c 0.385,0.1 1.015,0.1 1.4,0 0.385,-0.101 0.07,-0.183 -0.7,-0.183 -0.77,0 -1.085,0.082 -0.7,0.183 m 188,0 c 0.385,0.1 1.015,0.1 1.4,0 0.385,-0.101 0.07,-0.183 -0.7,-0.183 -0.77,0 -1.085,0.082 -0.7,0.183 m 11.005,0.007 c 0.497,0.096 1.217,0.092 1.6,-0.008 0.382,-0.1 -0.025,-0.179 -0.905,-0.174 -0.88,0.004 -1.193,0.086 -0.695,0.182 M 98.912,214.695 c 1.052,0.082 2.672,0.081 3.6,-0.003 0.928,-0.084 0.068,-0.151 -1.912,-0.15 -1.98,0.001 -2.74,0.07 -1.688,0.153 m 198.8,0 c 1.052,0.082 2.672,0.081 3.6,-0.003 0.928,-0.084 0.068,-0.151 -1.912,-0.15 -1.98,0.001 -2.74,0.07 -1.688,0.153 m -198.8,12.8 c 1.052,0.082 2.672,0.081 3.6,-0.003 0.928,-0.084 0.068,-0.151 -1.912,-0.15 -1.98,10e-4 -2.74,0.07 -1.688,0.153 m 198.8,0 c 1.052,0.082 2.672,0.081 3.6,-0.003 0.928,-0.084 0.068,-0.151 -1.912,-0.15 -1.98,10e-4 -2.74,0.07 -1.688,0.153 M 352,236.2 c 1.195,1.21 2.263,2.2 2.373,2.2 0.11,0 -0.778,-0.99 -1.973,-2.2 -1.195,-1.21 -2.263,-2.2 -2.373,-2.2 -0.11,0 0.778,0.99 1.973,2.2 m -189.48,53.4 c 0,1.21 0.075,1.705 0.167,1.1 0.091,-0.605 0.091,-1.595 0,-2.2 -0.092,-0.605 -0.167,-0.11 -0.167,1.1 m 74.781,-0.2 c 0.004,0.88 0.086,1.193 0.182,0.695 0.096,-0.497 0.092,-1.217 -0.008,-1.6 -0.1,-0.382 -0.179,0.025 -0.174,0.905 M 96.707,351.49 c 0.719,0.089 1.799,0.087 2.4,-0.004 0.601,-0.091 0.013,-0.164 -1.307,-0.162 -1.32,0.002 -1.812,0.077 -1.093,0.166 m 5.6,0 c 0.719,0.089 1.799,0.087 2.4,-0.004 0.601,-0.091 0.013,-0.164 -1.307,-0.162 -1.32,0.002 -1.812,0.077 -1.093,0.166 m 193.2,0 c 0.719,0.089 1.799,0.087 2.4,-0.004 0.601,-0.091 0.013,-0.164 -1.307,-0.162 -1.32,0.002 -1.812,0.077 -1.093,0.166 m 5.793,-0.003 c 0.605,0.091 1.595,0.091 2.2,0 0.605,-0.092 0.11,-0.167 -1.1,-0.167 -1.21,0 -1.705,0.075 -1.1,0.167"
       stroke="none"
       fill="#2c3e64"
       fill-rule="evenodd" />
    <path
       id="path5"
       d="m 97.862,36.3 c -0.102,0.165 0.652,0.247 1.676,0.183 3.174,-0.199 3.571,-0.372 0.986,-0.429 -1.362,-0.029 -2.56,0.081 -2.662,0.246 M 298.3,36.289 c 0.715,0.089 1.885,0.089 2.6,0 0.715,-0.088 0.13,-0.161 -1.3,-0.161 -1.43,0 -2.015,0.073 -1.3,0.161 M 92,183.6 v 19.6 h 8.6 8.6 V 183.6 164 H 100.6 92 v 19.6 m 198.8,0 v 19.6 h 8.6 8.6 V 183.6 164 h -8.6 -8.6 v 19.6 m -182,-0.045 v 19.154 h -8.2 -8.2 V 183.555 164.4 h 8.2 8.2 v 19.155 m 198.8,0.001 v 19.157 l -8.2,0.005 -8.2,0.006 V 183.562 164.4 h 8.2 8.2 v 19.156 M 94.8,215.153 c -0.77,0.136 1.821,0.247 5.758,0.247 3.937,0 6.457,-0.125 5.6,-0.277 -1.882,-0.334 -9.408,-0.315 -11.358,0.03 m 199,0.004 c -0.88,0.134 1.621,0.243 5.558,0.243 3.937,0 6.457,-0.125 5.6,-0.277 -1.859,-0.33 -8.903,-0.309 -11.158,0.034 m -205.392,0.83 c -0.385,0.243 0.246,0.292 1.8,0.138 1.315,-0.129 2.467,-0.301 2.559,-0.38 0.384,-0.334 -3.818,-0.101 -4.359,0.242 m 20.025,-0.242 c 0.092,0.079 1.247,0.242 2.567,0.362 1.449,0.131 2.083,0.085 1.6,-0.117 -0.77,-0.321 -4.507,-0.541 -4.167,-0.245 M 287.4,215.99 c -0.483,0.202 0.151,0.248 1.6,0.117 1.32,-0.12 2.475,-0.283 2.567,-0.362 0.34,-0.296 -3.397,-0.076 -4.167,0.245 m 19.833,-0.245 c 0.092,0.079 1.244,0.251 2.559,0.38 1.554,0.154 2.185,0.105 1.8,-0.138 -0.541,-0.343 -4.743,-0.576 -4.359,-0.242 M 83.6,216.813 c -0.646,0.216 -0.22,0.253 1.2,0.106 1.21,-0.125 2.275,-0.293 2.367,-0.373 0.32,-0.281 -2.576,-0.063 -3.567,0.267 m 30.433,-0.269 c 0.092,0.079 1.157,0.245 2.367,0.368 1.369,0.139 1.898,0.096 1.4,-0.116 -0.767,-0.326 -4.111,-0.549 -3.767,-0.252 m 168.567,0.252 c -0.498,0.212 0.031,0.255 1.4,0.116 1.21,-0.123 2.275,-0.289 2.367,-0.368 0.344,-0.297 -3,-0.074 -3.767,0.252 m 30.233,-0.252 c 0.092,0.079 1.157,0.245 2.367,0.368 1.369,0.139 1.898,0.096 1.4,-0.116 -0.767,-0.326 -4.111,-0.549 -3.767,-0.252 M 80.4,217.6 c -0.533,0.345 -0.533,0.388 0,0.388 0.33,0 0.87,-0.175 1.2,-0.388 0.533,-0.345 0.533,-0.388 0,-0.388 -0.33,0 -0.87,0.175 -1.2,0.388 m 39.2,0 c 0.33,0.213 0.87,0.388 1.2,0.388 0.533,0 0.533,-0.043 0,-0.388 -0.33,-0.213 -0.87,-0.388 -1.2,-0.388 -0.533,0 -0.533,0.043 0,0.388 m 159.6,0 c -0.795,0.514 0.204,0.514 1.4,0 l 0.8,-0.344 -0.8,-0.022 c -0.44,-0.012 -1.07,0.153 -1.4,0.366 m -201.6,0.8 c -0.533,0.345 -0.533,0.388 0,0.388 0.33,0 0.87,-0.175 1.2,-0.388 0.533,-0.345 0.533,-0.388 0,-0.388 -0.33,0 -0.87,0.175 -1.2,0.388 m 243.6,0 c 0.33,0.213 0.87,0.388 1.2,0.388 0.533,0 0.533,-0.043 0,-0.388 -0.33,-0.213 -0.87,-0.388 -1.2,-0.388 -0.533,0 -0.533,0.043 0,0.388 m -246,0.8 c -0.533,0.345 -0.533,0.388 0,0.388 0.33,0 0.87,-0.175 1.2,-0.388 0.533,-0.345 0.533,-0.388 0,-0.388 -0.33,0 -0.87,0.175 -1.2,0.388 m 49.6,0 c 0.33,0.213 0.87,0.388 1.2,0.388 0.533,0 0.533,-0.043 0,-0.388 -0.33,-0.213 -0.87,-0.388 -1.2,-0.388 -0.533,0 -0.533,0.043 0,0.388 m 198.8,0 c 0.33,0.213 0.87,0.388 1.2,0.388 0.533,0 0.533,-0.043 0,-0.388 -0.33,-0.213 -0.87,-0.388 -1.2,-0.388 -0.533,0 -0.533,0.043 0,0.388 m -54.4,2 c -0.77,0.422 -1.287,0.774 -1.149,0.783 0.414,0.028 3.149,-1.178 3.149,-1.388 0,-0.349 -0.575,-0.175 -2,0.605 m -205.087,3.085 c -1.368,0.811 -2.425,1.537 -2.349,1.613 0.077,0.076 1.069,-0.41 2.205,-1.08 1.136,-0.67 2.228,-1.218 2.425,-1.218 0.197,0 0.47,-0.18 0.606,-0.4 0.442,-0.716 -0.354,-0.416 -2.887,1.085 m 269.832,-0.662 c 0.74,0.451 1.432,0.734 1.537,0.628 0.202,-0.201 -2.009,-1.452 -2.562,-1.45 -0.176,0.001 0.285,0.371 1.025,0.822 m -197.785,0.471 c 0.418,0.278 2.668,1.743 5,3.255 8.522,5.525 15.473,12.35 20.832,20.451 2.338,3.533 3.469,4.899 1.988,2.4 -5.815,-9.814 -18.286,-21.72 -27.18,-25.946 -0.77,-0.366 -1.058,-0.438 -0.64,-0.16 m 126.44,0.431 c -6.923,3.961 -14.473,10.156 -19.102,15.675 -1.46,1.742 -1.092,1.447 1.345,-1.075 5.499,-5.693 15.75,-13.889 17.427,-13.934 0.355,-0.009 2.463,-1.571 2.13,-1.577 -0.11,-0.003 -0.92,0.408 -1.8,0.911 m 74.2,0.639 c 0.55,0.45 1.18,0.819 1.4,0.821 0.428,0.003 -0.295,-0.551 -1.6,-1.225 -0.531,-0.275 -0.464,-0.139 0.2,0.404 m -276.808,1.565 c -1.937,1.289 -5.592,4.098 -5.592,4.298 0,0.11 0.945,-0.527 2.1,-1.417 1.155,-0.89 2.685,-1.92 3.4,-2.288 0.715,-0.369 1.3,-0.817 1.3,-0.996 0,-0.405 0.014,-0.41 -1.208,0.403 m 279.474,-0.053 c 0.476,0.398 2.366,1.802 4.2,3.119 1.834,1.317 5.45,4.467 8.035,7 2.586,2.533 4.701,4.512 4.7,4.398 -0.003,-0.566 -9.41,-9.387 -12.201,-11.441 -3.491,-2.569 -6.353,-4.429 -4.734,-3.076 M 95.8,226.765 c -0.88,0.138 1.28,0.251 4.8,0.251 3.859,0 5.685,-0.111 4.6,-0.279 -2.166,-0.334 -7.189,-0.32 -9.4,0.028 m 199,-0.005 c -0.77,0.14 1.39,0.256 4.8,0.258 3.808,0.001 5.506,-0.106 4.4,-0.278 -2.184,-0.341 -7.28,-0.329 -9.2,0.02 m -205.4,0.843 c -0.515,0.223 -0.087,0.264 1.2,0.115 1.1,-0.127 2.075,-0.295 2.167,-0.374 0.347,-0.299 -2.603,-0.072 -3.367,0.259 m 19.033,-0.254 c 0.092,0.082 1.067,0.258 2.167,0.392 1.346,0.164 1.739,0.124 1.2,-0.121 -0.761,-0.346 -3.717,-0.584 -3.367,-0.271 M 288.2,227.62 c -0.539,0.245 -0.146,0.285 1.2,0.121 1.1,-0.134 2.075,-0.31 2.167,-0.392 0.35,-0.313 -2.606,-0.075 -3.367,0.271 m 19.033,-0.276 c 0.092,0.079 1.067,0.247 2.167,0.374 1.287,0.149 1.715,0.108 1.2,-0.115 -0.764,-0.331 -3.714,-0.558 -3.367,-0.259 M 85.6,228.4 c -0.764,0.494 0.058,0.494 1.6,0 l 1,-0.32 -1,-0.034 c -0.55,-0.019 -1.27,0.141 -1.6,0.354 m 28.4,0 c 1.542,0.494 2.364,0.494 1.6,0 -0.33,-0.213 -1.05,-0.373 -1.6,-0.354 l -1,0.034 1,0.32 m 170.4,0 c -0.764,0.494 0.058,0.494 1.6,0 l 1,-0.32 -1,-0.034 c -0.55,-0.019 -1.27,0.141 -1.6,0.354 m 28.4,0 c 1.542,0.494 2.364,0.494 1.6,0 -0.33,-0.213 -1.05,-0.373 -1.6,-0.354 l -1,0.034 1,0.32 m -230.2,0.8 c -1.019,0.438 0.032,0.438 1.4,0 0.804,-0.257 0.843,-0.323 0.2,-0.332 -0.44,-0.006 -1.16,0.143 -1.6,0.332 m 33.833,-0.256 c 0.092,0.079 0.707,0.264 1.367,0.412 0.876,0.196 1.038,0.159 0.6,-0.138 -0.54,-0.365 -2.368,-0.62 -1.967,-0.274 m 165.167,0.274 c -0.438,0.297 -0.276,0.334 0.6,0.138 1.471,-0.329 1.79,-0.558 0.767,-0.55 -0.422,0.003 -1.037,0.189 -1.367,0.412 m 34.6,-0.018 c 0.44,0.189 1.07,0.344 1.4,0.344 0.378,0 0.304,-0.127 -0.2,-0.344 -0.44,-0.189 -1.07,-0.344 -1.4,-0.344 -0.378,0 -0.304,0.127 0.2,0.344 M 80,230 c -0.533,0.345 -0.533,0.388 0,0.388 0.33,0 0.87,-0.175 1.2,-0.388 0.533,-0.345 0.533,-0.388 0,-0.388 -0.33,0 -0.87,0.175 -1.2,0.388 m -30.88,5.553 c -4.338,4.17 -8.748,9.247 -8.033,9.247 0.187,0 0.68,-0.585 1.096,-1.3 0.415,-0.715 3.235,-3.775 6.266,-6.8 3.031,-3.025 5.441,-5.5 5.355,-5.5 -0.086,0 -2.194,1.959 -4.684,4.353 m 22.78,-2.124 c -1.551,0.841 -1.375,1.132 0.2,0.33 1.508,-0.766 1.775,-0.965 1.267,-0.943 -0.202,0.009 -0.862,0.285 -1.467,0.613 m 55.7,-0.458 c 0,0.276 2.514,1.449 2.702,1.26 0.095,-0.095 -0.375,-0.455 -1.045,-0.802 -1.248,-0.645 -1.657,-0.758 -1.657,-0.458 m 198.833,-0.022 c 0.412,0.368 2.767,1.451 2.767,1.272 0,-0.231 -2.218,-1.421 -2.647,-1.421 -0.157,0 -0.211,0.067 -0.12,0.149 m -56.933,1.28 c -1.495,0.811 -1.404,1.149 0.1,0.371 0.66,-0.341 1.2,-0.706 1.2,-0.81 0,-0.258 -0.043,-0.243 -1.3,0.439 m -201.724,1.6 c -5.547,3.337 -11.474,8.5 -15.712,13.687 -2.247,2.749 -5.264,7.068 -5.264,7.533 0,0.162 0.988,-1.133 2.196,-2.878 5.249,-7.579 11.813,-13.642 20.837,-19.247 0.422,-0.263 0.666,-0.488 0.543,-0.5 -0.122,-0.013 -1.292,0.619 -2.6,1.405 M 131,234.697 c 0.22,0.236 1.39,1.001 2.6,1.701 1.21,0.699 1.93,1.009 1.6,0.688 -0.717,-0.698 -4.776,-3.007 -4.2,-2.389 m 198.6,-0.105 c 0,0.105 0.675,0.536 1.5,0.958 0.825,0.421 2.906,1.774 4.624,3.008 3.41,2.447 4.661,3.059 1.821,0.891 -3.542,-2.705 -7.945,-5.397 -7.945,-4.857 m -63.519,1.58 c -0.725,0.512 -1.445,1.067 -1.6,1.231 -0.417,0.444 1.992,-0.844 2.919,-1.56 1.275,-0.984 0.137,-0.701 -1.319,0.329 M 136,237.697 c 0,0.106 1.305,1.193 2.9,2.416 3.362,2.578 8.998,8.268 11.478,11.587 0.945,1.265 1.808,2.3 1.918,2.3 0.523,0 -4.426,-6.033 -7.345,-8.951 C 142.056,242.154 136,237.18 136,237.697 m 125.4,1.754 c -2.901,2.237 -7.654,6.815 -9.912,9.549 -0.908,1.1 0.189,0.078 2.44,-2.272 2.251,-2.35 5.437,-5.285 7.082,-6.523 2.585,-1.945 3.318,-2.606 2.89,-2.605 -0.055,0 -1.18,0.833 -2.5,1.851 m 81.711,5.329 c 2.04,2.059 4.706,5.065 5.922,6.681 2.202,2.926 3.445,4.116 1.712,1.639 -2.055,-2.937 -6.448,-7.867 -8.817,-9.897 -2.066,-1.769 -1.849,-1.48 1.183,1.577 M 357.572,243 c 0.47,0.66 1.953,2.82 3.295,4.8 2.302,3.397 3.685,5.196 2.922,3.8 -0.87,-1.593 -4.736,-7.158 -5.834,-8.4 -0.984,-1.112 -1.062,-1.153 -0.383,-0.2 m -116.828,0.5 c -1.269,1.532 -1.725,2.242 -1.263,1.965 0.512,-0.307 2.288,-2.665 2.008,-2.665 -0.091,0 -0.426,0.315 -0.745,0.7 m -201.457,3.4 c -1.46,2.156 -1.775,2.7 -1.567,2.7 0.092,0 0.824,-0.99 1.627,-2.2 0.804,-1.21 1.378,-2.2 1.276,-2.2 -0.101,0 -0.703,0.765 -1.336,1.7 m 198.635,0.4 c -1.371,1.831 -3.583,5.599 -5.278,8.99 -2.306,4.615 -1.656,3.937 0.945,-0.986 1.307,-2.473 3.111,-5.578 4.009,-6.9 1.738,-2.56 1.947,-3.272 0.324,-1.104 M 35.8,252.4 c -0.341,0.66 -0.531,1.2 -0.421,1.2 0.11,0 0.48,-0.54 0.821,-1.2 0.341,-0.66 0.531,-1.2 0.421,-1.2 -0.11,0 -0.48,0.54 -0.821,1.2 m 213.321,-0.5 c -1.096,1.271 -3.996,5.759 -3.829,5.925 0.09,0.09 1.184,-1.364 2.431,-3.231 2.204,-3.298 2.635,-4.13 1.398,-2.694 m -83.721,1.3 c 0.341,0.66 0.711,1.2 0.821,1.2 0.11,0 -0.08,-0.54 -0.421,-1.2 -0.341,-0.66 -0.711,-1.2 -0.821,-1.2 -0.11,0 0.08,0.54 0.421,1.2 m 200,2 c 0.341,0.66 0.711,1.2 0.821,1.2 0.11,0 -0.08,-0.54 -0.421,-1.2 -0.341,-0.66 -0.711,-1.2 -0.821,-1.2 -0.11,0 0.08,0.54 0.421,1.2 M 166.433,255 c 0.005,0.454 2.319,4.936 2.348,4.549 0.026,-0.339 -1.034,-2.712 -1.763,-3.949 -0.324,-0.55 -0.588,-0.82 -0.585,-0.6 m 185.998,1.3 c 1.017,1.7 1.569,2.394 1.569,1.971 0,-0.365 -2.045,-3.471 -2.286,-3.471 -0.098,0 0.224,0.675 0.717,1.5 m -319.864,2.343 c -0.773,1.673 -1.352,3.188 -1.286,3.366 0.065,0.178 0.782,-1.191 1.593,-3.043 1.838,-4.196 1.599,-4.448 -0.307,-0.323 m 122.819,0.857 c 0.349,0.715 0.72,1.3 0.824,1.3 0.398,0 0.142,-0.637 -0.643,-1.6 l -0.815,-1 0.634,1.3 m 88.935,-0.2 c -0.833,1.313 -2.39,4.764 -2.224,4.93 0.078,0.078 0.806,-1.202 1.619,-2.844 1.458,-2.948 1.717,-3.839 0.605,-2.086 m 110.761,1.689 c 0.591,1.204 1.141,2.122 1.223,2.04 0.179,-0.18 -1.838,-4.229 -2.107,-4.229 -0.104,0 0.294,0.985 0.884,2.189 m 12.135,-1.889 c 0.022,0.401 1.545,3.17 1.566,2.849 0.028,-0.414 -1.178,-3.149 -1.388,-3.149 -0.107,0 -0.187,0.135 -0.178,0.3 m -136.666,1.6 c -0.123,0.385 -0.38,1.06 -0.57,1.5 -0.714,1.646 -2.404,7.11 -2.248,7.267 0.09,0.089 0.667,-1.419 1.284,-3.352 0.616,-1.933 1.243,-3.695 1.394,-3.915 0.355,-0.519 0.767,-2.2 0.539,-2.2 -0.096,0 -0.276,0.315 -0.399,0.7 m -186.37,0.937 c -0.352,0.681 -0.569,1.308 -0.482,1.395 0.087,0.087 0.457,-0.47 0.823,-1.237 0.822,-1.725 0.537,-1.857 -0.341,-0.158 M 156.417,261.5 c 0.009,0.165 0.361,0.93 0.783,1.7 0.921,1.682 1.065,1.055 0.171,-0.739 -0.604,-1.209 -0.99,-1.598 -0.954,-0.961 m -125.862,2 c -0.121,0.385 -0.385,1.113 -0.588,1.619 -0.202,0.505 -0.356,1.135 -0.342,1.4 0.014,0.264 0.213,0.031 0.441,-0.519 0.631,-1.52 1.101,-3.2 0.894,-3.2 -0.102,0 -0.284,0.315 -0.405,0.7 m 339.084,1.3 c -0.015,0.11 0.336,1.28 0.781,2.6 0.444,1.32 0.72,1.834 0.612,1.143 -0.176,-1.134 -1.328,-4.229 -1.393,-3.743 m -327.688,1.9 c -0.899,2.304 -2.35,7.116 -2.32,7.695 0.016,0.333 0.354,-0.475 0.75,-1.795 0.396,-1.32 1.089,-3.435 1.539,-4.7 0.818,-2.297 0.844,-3.283 0.031,-1.2 m 129.497,0.8 c 0.144,0.605 0.418,1.403 0.607,1.774 0.19,0.37 0.359,1.09 0.377,1.6 0.017,0.509 0.127,0.686 0.244,0.393 0.117,-0.293 -0.094,-1.508 -0.469,-2.7 -0.712,-2.263 -1.214,-2.969 -0.759,-1.067 m 69.107,0 c -0.121,0.385 -0.385,1.113 -0.588,1.619 -0.202,0.505 -0.356,1.135 -0.342,1.4 0.014,0.264 0.213,0.031 0.441,-0.519 0.631,-1.52 1.101,-3.2 0.894,-3.2 -0.102,0 -0.284,0.315 -0.405,0.7 m -211.709,1.367 c -0.025,0.367 -0.15,0.997 -0.276,1.4 -0.218,0.695 -0.207,0.696 0.227,0.02 0.251,-0.391 0.376,-1.021 0.276,-1.4 -0.162,-0.619 -0.185,-0.621 -0.227,-0.02 m 130.782,0.209 c 0.09,1.039 0.716,1.92 0.744,1.048 0.015,-0.482 -0.152,-0.988 -0.372,-1.124 -0.22,-0.136 -0.387,-0.102 -0.372,0.076 m 67.626,1.591 c -0.029,0.477 -0.158,1.197 -0.284,1.6 -0.218,0.694 -0.206,0.695 0.226,0.021 0.251,-0.391 0.379,-1.111 0.285,-1.6 -0.172,-0.887 -0.172,-0.887 -0.227,-0.021 m 144.147,0.334 c 0.146,0.659 0.43,1.721 0.632,2.359 0.202,0.638 0.394,1.718 0.427,2.4 0.052,1.077 0.081,1.107 0.218,0.229 0.087,-0.557 -0.117,-2.069 -0.454,-3.361 -0.635,-2.439 -1.29,-3.732 -0.823,-1.627 m -343.717,2.512 c -0.261,1.258 -0.562,3.007 -0.669,3.887 l -0.195,1.6 0.402,-1.6 c 0.835,-3.325 1.3,-5.811 1.122,-5.989 -0.102,-0.102 -0.398,0.844 -0.66,2.102 m 132.935,-1.312 c 0.774,3.272 1.331,5.131 1.355,4.519 0.032,-0.835 -1.071,-5.15 -1.4,-5.48 -0.132,-0.131 -0.111,0.301 0.045,0.961 m 199.027,0.199 c 0.019,0.33 0.178,1.05 0.354,1.6 l 0.32,1 0.034,-1 c 0.019,-0.55 -0.141,-1.27 -0.354,-1.6 -0.345,-0.533 -0.384,-0.533 -0.354,0 m -121.159,1.907 c -0.595,2.446 -1.045,5.688 -0.54,3.893 0.744,-2.648 1.33,-5.457 1.17,-5.617 -0.093,-0.093 -0.377,0.683 -0.63,1.724 m -65.259,-0.074 c 0.016,0.642 0.188,1.527 0.382,1.967 0.237,0.534 0.276,0.202 0.117,-1 -0.281,-2.12 -0.539,-2.62 -0.499,-0.967 m 53.226,-0.033 c -0.035,0.44 -0.165,1.25 -0.287,1.8 -0.192,0.863 -0.16,0.903 0.231,0.29 0.249,-0.391 0.379,-1.201 0.288,-1.8 -0.108,-0.711 -0.189,-0.811 -0.232,-0.29 m 134.219,2.6 c 0.131,0.99 0.303,1.875 0.383,1.967 0.301,0.347 0.072,-2.203 -0.266,-2.967 -0.237,-0.534 -0.276,-0.202 -0.117,1 m -322.274,3.305 c -0.736,4.466 -0.636,15.619 0.175,19.295 0.38,1.725 0.536,2.109 0.407,1 -1.025,-8.786 -1.054,-14.153 -0.111,-20.309 0.246,-1.599 0.362,-2.992 0.259,-3.095 -0.102,-0.103 -0.431,1.296 -0.73,3.109 m 135.624,-1.472 c 0.013,0.862 0.18,2.287 0.371,3.167 0.258,1.186 0.29,0.824 0.125,-1.4 -0.242,-3.253 -0.533,-4.29 -0.496,-1.767 m 51.441,1.517 c -0.163,1.513 -0.214,2.833 -0.113,2.934 0.263,0.263 0.759,-4.034 0.568,-4.931 -0.088,-0.414 -0.293,0.485 -0.455,1.997 M 162.5,280.6 c -0.007,0.88 0.121,2.68 0.285,4 0.272,2.192 0.299,2.244 0.317,0.6 0.01,-0.99 -0.118,-2.79 -0.285,-4 -0.261,-1.889 -0.306,-1.974 -0.317,-0.6 m 199.007,1.6 c 0.111,1.76 0.268,3.275 0.348,3.367 0.277,0.317 0.064,-4.572 -0.243,-5.567 -0.169,-0.55 -0.217,0.44 -0.105,2.2 m 11.893,7.2 c 0,5.72 0.114,9.23 0.253,7.8 0.14,-1.43 0.253,-4.94 0.253,-7.8 0,-2.86 -0.113,-6.37 -0.253,-7.8 -0.139,-1.43 -0.253,2.08 -0.253,7.8 M 26.262,282.9 c -0.306,3.927 -0.267,10.287 0.085,13.9 0.139,1.43 0.253,-1.855 0.253,-7.3 0,-5.445 -0.018,-9.9 -0.041,-9.9 -0.022,0 -0.156,1.485 -0.297,3.3 m 210.734,0.406 c -0.154,1.85 -0.207,3.708 -0.118,4.129 0.089,0.421 0.293,-1.015 0.454,-3.19 0.16,-2.175 0.214,-4.033 0.118,-4.128 -0.095,-0.096 -0.3,1.34 -0.454,3.189 m -62.043,6.094 c 0,2.64 0.065,3.668 0.144,2.284 0.078,-1.383 0.077,-3.543 -0.002,-4.8 -0.079,-1.256 -0.143,-0.124 -0.142,2.516 m 50,0 c 0,2.64 0.065,3.668 0.144,2.284 0.078,-1.383 0.077,-3.543 -0.002,-4.8 -0.079,-1.256 -0.143,-0.124 -0.142,2.516 m 137.178,0 c 0.002,1.54 0.074,2.121 0.161,1.291 0.087,-0.83 0.085,-2.09 -0.003,-2.8 -0.089,-0.71 -0.16,-0.031 -0.158,1.509 m -198.822,0.2 c 0,0.99 0.078,1.395 0.173,0.9 0.096,-0.495 0.096,-1.305 0,-1.8 -0.095,-0.495 -0.173,-0.09 -0.173,0.9 m 73.521,3.433 c 0.016,1.302 0.18,3.177 0.365,4.167 0.23,1.23 0.267,0.534 0.118,-2.2 -0.243,-4.456 -0.529,-5.62 -0.483,-1.967 m -74.21,2.587 c -0.157,2.006 -0.201,3.733 -0.097,3.836 0.104,0.104 0.318,-1.451 0.477,-3.456 0.159,-2.005 0.202,-3.731 0.097,-3.836 -0.105,-0.106 -0.32,1.45 -0.477,3.456 m 199.054,-0.57 c -0.041,1.128 -0.163,2.657 -0.273,3.4 l -0.198,1.35 0.418,-1.332 c 0.23,-0.733 0.353,-2.263 0.273,-3.4 l -0.146,-2.068 -0.074,2.05 m -187.482,3.088 c -0.153,1.431 -0.199,2.84 -0.102,3.132 0.097,0.291 0.3,-0.802 0.452,-2.429 0.151,-1.627 0.197,-3.036 0.101,-3.131 -0.095,-0.095 -0.298,0.998 -0.451,2.428 m 51.283,0.062 c 0.123,1.54 0.291,2.875 0.374,2.967 0.277,0.306 0.061,-3.351 -0.27,-4.567 -0.206,-0.757 -0.244,-0.166 -0.104,1.6 m 12.336,3.122 c 0.158,1.057 0.537,2.677 0.844,3.6 0.585,1.761 0.527,1.17 -0.29,-2.922 -0.553,-2.77 -0.935,-3.238 -0.554,-0.678 M 27.01,301.8 c 0.157,1.1 0.535,2.9 0.841,4 0.59,2.118 0.522,1.251 -0.235,-2.99 -0.552,-3.091 -1.012,-3.858 -0.606,-1.01 m 333.844,-1 c -0.035,0.55 -0.158,1.45 -0.271,2 l -0.206,1 0.43,-0.985 c 0.236,-0.541 0.358,-1.441 0.271,-2 l -0.158,-1.015 -0.066,1 m -199.579,3.048 c -0.288,1.293 -0.626,2.712 -0.749,3.152 -0.124,0.44 -0.11,0.692 0.03,0.561 0.385,-0.36 1.49,-4.828 1.359,-5.489 -0.063,-0.317 -0.351,0.482 -0.64,1.776 m 12.181,-0.964 c -0.135,0.504 -0.228,1.366 -0.207,1.916 0.023,0.589 0.182,0.271 0.387,-0.775 0.367,-1.873 0.237,-2.698 -0.18,-1.141 m 52.782,0.516 c 0.332,1.984 0.564,2.304 0.556,0.767 -0.003,-0.642 -0.19,-1.437 -0.415,-1.767 -0.293,-0.43 -0.333,-0.146 -0.141,1 m 146.222,-0.36 c -0.033,0.682 -0.225,1.762 -0.427,2.4 -0.569,1.799 -0.924,3.584 -0.659,3.32 0.474,-0.475 1.458,-4.962 1.304,-5.949 -0.137,-0.878 -0.166,-0.848 -0.218,0.229 M 39.458,303.8 c 0.134,0.88 0.398,1.87 0.586,2.2 0.414,0.726 -0.01,-1.829 -0.498,-3 -0.21,-0.505 -0.243,-0.209 -0.088,0.8 m 320.596,0.667 c -0.029,0.367 -0.17,0.997 -0.313,1.4 -0.2,0.566 -0.146,0.629 0.234,0.279 0.271,-0.249 0.412,-0.879 0.313,-1.4 -0.098,-0.52 -0.204,-0.646 -0.234,-0.279 M 227.058,307.2 c 0.317,1.725 0.544,2.051 0.536,0.767 -0.003,-0.532 -0.183,-1.237 -0.4,-1.567 -0.276,-0.422 -0.317,-0.185 -0.136,0.8 M 40.432,307.173 c -0.041,0.737 1.548,5.305 2.021,5.814 0.198,0.212 -0.076,-0.868 -0.61,-2.4 -0.533,-1.533 -1.062,-3.057 -1.175,-3.387 -0.168,-0.491 -0.211,-0.496 -0.236,-0.027 m 198.976,0.527 c 0.679,2.336 1.182,3.732 1.467,4.073 0.171,0.205 0.121,-0.245 -0.112,-1 -0.233,-0.755 -0.599,-1.958 -0.812,-2.673 -0.214,-0.715 -0.482,-1.3 -0.597,-1.3 -0.114,0 -0.09,0.405 0.054,0.9 m 119.838,-0.433 c -0.025,0.367 -0.15,0.997 -0.276,1.4 -0.218,0.695 -0.207,0.696 0.227,0.02 0.251,-0.391 0.376,-1.021 0.276,-1.4 -0.162,-0.619 -0.185,-0.621 -0.227,-0.02 m -186.82,0.533 c -0.021,0.44 -0.312,1.588 -0.647,2.551 -0.336,0.963 -0.533,1.828 -0.439,1.922 0.297,0.297 1.559,-4.181 1.336,-4.74 -0.129,-0.324 -0.227,-0.22 -0.25,0.267 M 28.644,309 c 0.329,1.471 0.558,1.79 0.55,0.767 -0.003,-0.422 -0.189,-1.037 -0.412,-1.367 -0.297,-0.438 -0.334,-0.276 -0.138,0.6 m 131.402,-0.733 c -0.025,0.257 -0.162,0.797 -0.305,1.2 -0.201,0.569 -0.147,0.63 0.238,0.275 0.273,-0.251 0.41,-0.791 0.305,-1.2 -0.105,-0.408 -0.212,-0.532 -0.238,-0.275 m 67.554,1.058 c 0,1.046 3.221,9.587 3.508,9.3 0.088,-0.088 -0.114,-0.76 -0.45,-1.493 -0.336,-0.732 -1.085,-2.77 -1.664,-4.528 -0.968,-2.939 -1.394,-3.941 -1.394,-3.279 m 143.246,0.342 c -0.025,0.367 -0.15,0.997 -0.276,1.4 -0.218,0.695 -0.207,0.696 0.227,0.02 0.251,-0.391 0.376,-1.021 0.276,-1.4 -0.162,-0.619 -0.185,-0.621 -0.227,-0.02 M 29.631,312.2 c -0.025,0.535 0.952,3.317 1.283,3.647 0.144,0.144 0.105,-0.258 -0.086,-0.893 -0.503,-1.673 -1.174,-3.219 -1.197,-2.754 m 127.424,3.655 c -0.379,0.794 -0.607,1.526 -0.506,1.627 0.1,0.101 0.492,-0.468 0.869,-1.264 0.378,-0.796 0.605,-1.528 0.506,-1.627 -0.099,-0.1 -0.491,0.469 -0.869,1.264 M 242,314.559 c 0,0.53 2.479,5.443 2.868,5.683 0.21,0.13 -0.281,-1.087 -1.09,-2.703 -1.529,-3.053 -1.778,-3.471 -1.778,-2.98 m 113.082,3.252 c -0.59,1.204 -0.988,2.189 -0.884,2.189 0.269,0 2.286,-4.049 2.107,-4.229 -0.082,-0.082 -0.632,0.836 -1.223,2.04 M 31.225,316.698 c -0.029,0.58 2.653,6.502 2.945,6.502 0.108,0 -0.354,-1.215 -1.026,-2.7 -0.672,-1.485 -1.374,-3.06 -1.558,-3.5 -0.184,-0.44 -0.347,-0.576 -0.361,-0.302 m 124.161,2.602 -0.634,1.3 0.815,-1 c 0.785,-0.963 1.041,-1.6 0.643,-1.6 -0.104,0 -0.475,0.585 -0.824,1.3 m 12.073,2.159 c -0.603,1.23 -1.028,2.305 -0.944,2.39 0.085,0.084 0.647,-0.854 1.25,-2.084 0.602,-1.231 1.027,-2.307 0.943,-2.39 -0.084,-0.084 -0.646,0.854 -1.249,2.084 m 63.741,-2.116 c 0,0.435 2.787,5.857 3.01,5.857 0.11,0 -0.453,-1.305 -1.252,-2.9 -1.498,-2.993 -1.758,-3.43 -1.758,-2.957 m 121.916,1.945 c -0.865,1.334 -1.568,2.712 -1.383,2.712 0.292,0 2.331,-3.27 2.151,-3.449 -0.097,-0.097 -0.442,0.235 -0.768,0.737 m -199.146,0.378 c -0.272,0.514 -0.757,1.339 -1.078,1.834 -0.321,0.495 -0.497,0.9 -0.391,0.9 0.335,0 2.368,-3.264 2.161,-3.471 -0.108,-0.109 -0.42,0.223 -0.692,0.737 m 91.23,-0.715 c 0,0.416 3.913,6.148 4.403,6.451 0.229,0.141 -0.599,-1.241 -1.841,-3.072 -2.527,-3.729 -2.562,-3.775 -2.562,-3.379 M 46.808,321.82 c 0.029,1.373 8.257,11.334 11.792,14.276 1.1,0.915 -0.07,-0.493 -2.6,-3.13 -2.53,-2.637 -5.494,-6.138 -6.586,-7.78 -2.35,-3.534 -2.617,-3.879 -2.606,-3.366 M 365.4,323.6 c -0.341,0.66 -0.531,1.2 -0.421,1.2 0.11,0 0.48,-0.54 0.821,-1.2 0.341,-0.66 0.531,-1.2 0.421,-1.2 -0.11,0 -0.48,0.54 -0.821,1.2 m -330.994,0.05 c -0.009,0.355 2.027,3.95 2.236,3.95 0.096,0 -0.182,-0.675 -0.618,-1.5 -0.946,-1.789 -1.609,-2.794 -1.618,-2.45 M 165.4,325.6 c -0.341,0.66 -0.531,1.2 -0.421,1.2 0.11,0 0.48,-0.54 0.821,-1.2 0.341,-0.66 0.531,-1.2 0.421,-1.2 -0.11,0 -0.48,0.54 -0.821,1.2 m 184.001,1.3 c -0.994,1.375 -3.651,4.381 -5.904,6.68 -2.988,3.049 -3.447,3.629 -1.697,2.145 3.018,-2.559 10.479,-11.325 9.639,-11.325 -0.126,0 -1.043,1.125 -2.038,2.5 m -197.857,-1.4 c -1.269,1.532 -1.725,2.242 -1.263,1.965 0.512,-0.307 2.288,-2.665 2.008,-2.665 -0.091,0 -0.426,0.315 -0.745,0.7 m 11.909,3.291 c -1,1.511 -1.438,2.605 -0.717,1.789 0.556,-0.628 2.143,-3.38 1.95,-3.38 -0.099,0 -0.654,0.716 -1.233,1.591 m -125.765,0.795 c 0.502,0.873 1.418,2.178 2.036,2.9 0.618,0.723 0.277,0.009 -0.759,-1.586 -2.039,-3.141 -2.745,-3.867 -1.277,-1.314 m 107.712,2.983 c -2.42,2.486 -5.21,5.194 -6.2,6.018 -0.99,0.823 -1.22,1.11 -0.511,0.636 2.493,-1.667 8.13,-7.105 10.542,-10.171 1.408,-1.79 0.724,-1.162 -3.831,3.517 m 106.067,-2.768 c 2.102,2.562 7.915,8.137 9.733,9.335 1.024,0.675 0.917,0.521 -0.4,-0.571 -0.99,-0.822 -3.865,-3.58 -6.388,-6.129 -2.523,-2.55 -3.849,-3.735 -2.945,-2.635 M 361,330.9 c -3.721,5.627 -10.265,12.72 -15.3,16.585 -3.288,2.524 -3.848,3.222 -1,1.247 4.578,-3.174 14.444,-13.921 17.658,-19.232 1.556,-2.573 0.653,-1.642 -1.358,1.4 m -123.533,-0.094 c 0.392,0.664 1.131,1.699 1.643,2.3 0.511,0.602 0.265,0.059 -0.547,-1.206 -1.539,-2.397 -2.335,-3.193 -1.096,-1.094 m -76.363,1.506 c -2.605,4.331 -10.151,12.108 -15.88,16.365 -2.534,1.883 -3.376,2.838 -1.124,1.275 6.175,-4.286 18.873,-17.512 17.823,-18.563 -0.091,-0.09 -0.459,0.325 -0.819,0.923 M 42.556,336.2 c 1.656,2.189 9.444,10.256 9.444,9.783 0,-0.111 -1.847,-2.088 -4.104,-4.392 -2.258,-2.305 -4.791,-5.001 -5.63,-5.991 -1.113,-1.313 -1.035,-1.151 0.29,0.6 m 200.931,2.4 c 2.366,2.773 6.044,6.434 6.204,6.176 0.06,-0.097 -1.772,-2.066 -4.072,-4.376 -2.509,-2.521 -3.362,-3.241 -2.132,-1.8 M 60.8,337.786 c 0,0.179 0.315,0.574 0.7,0.877 0.836,0.658 2.473,1.588 1.9,1.08 -2.082,-1.847 -2.6,-2.237 -2.6,-1.957 m 277.639,0.367 c -0.261,0.314 -1.861,1.516 -3.557,2.671 -3.205,2.184 -4.766,3.46 -2.682,2.193 0.66,-0.401 2.36,-1.559 3.779,-2.573 1.418,-1.014 2.763,-1.969 2.988,-2.122 0.225,-0.153 0.306,-0.383 0.178,-0.51 -0.127,-0.127 -0.445,0.026 -0.706,0.341 m -274.432,2.184 c 0.009,0.337 4.02,2.97 4.22,2.769 0.083,-0.082 -0.835,-0.799 -2.038,-1.591 -1.204,-0.793 -2.186,-1.323 -2.182,-1.178 m 71.674,0.635 c -1.652,1.168 -1.913,1.428 -1.433,1.428 0.21,0 1.005,-0.533 1.767,-1.184 1.657,-1.416 1.493,-1.536 -0.334,-0.244 M 264,341.127 c 0,0.189 0.45,0.55 1,0.8 0.55,0.251 1,0.39 1,0.31 0,-0.08 -0.45,-0.44 -1,-0.8 -0.55,-0.361 -1,-0.5 -1,-0.31 m 2.4,1.421 c 0,0.239 4.212,2.752 5.3,3.163 1.274,0.48 0.727,-0.016 -1,-0.908 -0.935,-0.483 -2.285,-1.236 -3,-1.673 -0.715,-0.438 -1.3,-0.699 -1.3,-0.582 M 69,343.535 c 0.539,0.527 3.901,2.371 5.275,2.894 1.727,0.656 1,0.179 -2.476,-1.625 -1.76,-0.913 -3.019,-1.484 -2.799,-1.269 m 60.252,1.266 c -3.017,1.598 -4.041,2.274 -2.64,1.742 1.994,-0.756 6.608,-3.415 5.768,-3.323 -0.099,0.01 -1.507,0.722 -3.128,1.581 m 197.689,0.591 c -1.792,0.917 -3.952,1.965 -4.8,2.327 -0.848,0.363 -1.091,0.551 -0.541,0.419 2.01,-0.482 10.517,-4.719 8.989,-4.476 -0.214,0.034 -1.856,0.812 -3.648,1.73 m -75.095,1.286 c 0.905,0.837 2.525,2.136 3.6,2.886 2.721,1.898 1.76,0.985 -2.046,-1.945 -1.76,-1.355 -2.459,-1.778 -1.554,-0.941 M 52.902,346.64 c 0.386,0.455 1.556,1.412 2.6,2.127 2.01,1.377 0.237,-0.287 -2.515,-2.36 -0.764,-0.576 -0.766,-0.569 -0.085,0.233 M 274.4,347 c 0.99,0.53 2.07,0.97 2.4,0.978 0.33,0.008 -0.363,-0.434 -1.54,-0.982 -2.712,-1.262 -3.221,-1.26 -0.86,0.004 m -198,0.366 c 0.55,0.294 1.45,0.646 2,0.783 0.55,0.137 0.28,-0.097 -0.6,-0.52 -1.81,-0.871 -2.932,-1.081 -1.4,-0.263 m 47,0.263 c -0.88,0.423 -1.15,0.657 -0.6,0.52 1.133,-0.282 3.212,-1.324 2.6,-1.303 -0.22,0.007 -1.12,0.36 -2,0.783 m 154.6,0.704 c 0.33,0.203 1.05,0.491 1.6,0.638 0.695,0.186 0.817,0.154 0.4,-0.104 -0.33,-0.203 -1.05,-0.491 -1.6,-0.638 -0.695,-0.186 -0.817,-0.154 -0.4,0.104 M 82.6,349.6 c 0.44,0.189 1.07,0.344 1.4,0.344 0.378,0 0.304,-0.127 -0.2,-0.344 -0.44,-0.189 -1.07,-0.344 -1.4,-0.344 -0.378,0 -0.304,0.127 0.2,0.344 m 34.6,0 c -0.795,0.514 0.204,0.514 1.4,0 l 0.8,-0.344 -0.8,-0.022 c -0.44,-0.012 -1.07,0.153 -1.4,0.366 m 164.2,0 c 1.196,0.514 2.195,0.514 1.4,0 -0.33,-0.213 -0.96,-0.378 -1.4,-0.366 l -0.8,0.022 0.8,0.344 m 34.8,0 c -0.504,0.217 -0.578,0.344 -0.2,0.344 0.33,0 0.96,-0.155 1.4,-0.344 0.504,-0.217 0.578,-0.344 0.2,-0.344 -0.33,0 -0.96,0.155 -1.4,0.344 m -257.911,1.23 c 0.489,0.509 0.989,0.825 1.112,0.702 0.123,-0.123 -0.277,-0.54 -0.889,-0.926 l -1.112,-0.702 0.889,0.926 M 85.8,350.4 c 0.44,0.189 1.07,0.344 1.4,0.344 0.378,0 0.304,-0.127 -0.2,-0.344 -0.44,-0.189 -1.07,-0.344 -1.4,-0.344 -0.378,0 -0.304,0.127 0.2,0.344 m 28,0 -0.8,0.344 h 0.8 c 0.44,0 1.16,-0.155 1.6,-0.344 l 0.8,-0.344 h -0.8 c -0.44,0 -1.16,0.155 -1.6,0.344 m 170.8,0 c 0.44,0.189 1.16,0.344 1.6,0.344 h 0.8 l -0.8,-0.344 c -0.44,-0.189 -1.16,-0.344 -1.6,-0.344 h -0.8 l 0.8,0.344 m 28.4,0 c -0.504,0.217 -0.578,0.344 -0.2,0.344 0.33,0 0.96,-0.155 1.4,-0.344 0.504,-0.217 0.578,-0.344 0.2,-0.344 -0.33,0 -0.96,0.155 -1.4,0.344 m 27.287,0.968 c -2.487,1.722 -2.908,2.216 -0.887,1.041 1.451,-0.843 3.452,-2.441 2.989,-2.387 -0.104,0.012 -1.05,0.618 -2.102,1.346 M 89.6,351.2 c 0.55,0.176 1.45,0.317 2,0.313 0.898,-0.007 0.878,-0.039 -0.2,-0.313 -1.692,-0.431 -3.144,-0.431 -1.8,0 m 20,0 -1,0.32 h 1 c 0.55,0 1.45,-0.144 2,-0.32 l 1,-0.32 h -1 c -0.55,0 -1.45,0.144 -2,0.32 m 178.8,0 c 0.55,0.176 1.45,0.32 2,0.32 h 1 l -1,-0.32 c -0.55,-0.176 -1.45,-0.32 -2,-0.32 h -1 l 1,0.32 m 20.2,0 c -1.078,0.274 -1.098,0.306 -0.2,0.313 0.55,0.004 1.45,-0.137 2,-0.313 1.344,-0.431 -0.108,-0.431 -1.8,0 M 60,351.701 c 0,0.254 3.096,2.299 3.48,2.299 0.164,0 -0.057,-0.242 -0.491,-0.539 C 61.081,352.159 60,351.522 60,351.701 m 37.342,0.387 c 1.999,0.196 4.961,0.195 6.8,0 2.911,-0.311 2.535,-0.347 -3.542,-0.347 -6.295,0 -6.537,0.026 -3.258,0.347 m 42.206,0.489 c -0.79,0.537 -2.722,1.639 -4.292,2.449 -2.731,1.409 -3.653,2.045 -2.156,1.488 1.636,-0.609 8.1,-4.404 8.1,-4.756 0,-0.272 -0.174,-0.185 -1.652,0.819 M 258.8,351.714 c 0,0.241 3.106,2.286 3.471,2.286 0.159,0 0.118,-0.151 -0.091,-0.336 -0.628,-0.556 -3.38,-2.143 -3.38,-1.95 m 37.3,0.371 c 1.948,0.19 5.052,0.189 7,-0.003 3.175,-0.312 2.85,-0.344 -3.5,-0.342 -6.348,0.003 -6.674,0.035 -3.5,0.345 m 38.605,2.601 c -1.482,0.802 -2.631,1.522 -2.552,1.601 0.156,0.156 4.611,-2.18 5.227,-2.741 0.656,-0.598 0.102,-0.362 -2.675,1.14 M 64.2,354.321 c 0.571,0.577 3.466,2.146 3.639,1.973 0.08,-0.08 -0.796,-0.647 -1.947,-1.261 -1.15,-0.614 -1.912,-0.934 -1.692,-0.712 M 263,354.317 c 0.739,0.753 4.6,2.692 4.6,2.311 0,-0.081 -1.125,-0.725 -2.5,-1.432 -1.375,-0.707 -2.32,-1.102 -2.1,-0.879 m 66.4,3.074 c -1.1,0.53 -1.855,0.973 -1.678,0.986 0.442,0.032 3.878,-1.551 3.878,-1.787 0,-0.262 0.038,-0.276 -2.2,0.801 m -199.3,0.043 c -0.715,0.312 -1.3,0.66 -1.3,0.773 0,0.208 2.806,-0.88 3.146,-1.22 0.34,-0.34 -0.526,-0.13 -1.846,0.447 m 137.954,-0.447 c 0.313,0.313 3.146,1.436 3.146,1.248 0,-0.244 -2.431,-1.435 -2.928,-1.435 -0.223,0 -0.321,0.084 -0.218,0.187 M 75.8,359.751 c 1.399,0.605 3.4,1.136 3.4,0.903 0,-0.187 -3.789,-1.462 -4.275,-1.438 -0.179,0.008 0.215,0.249 0.875,0.535 M 274.2,359.6 c 1.101,0.473 1.492,0.473 1.2,0 -0.136,-0.22 -0.642,-0.387 -1.124,-0.372 -0.845,0.027 -0.847,0.041 -0.076,0.372 m 47,0.818 c -0.438,0.297 -0.276,0.334 0.6,0.138 1.471,-0.329 1.79,-0.558 0.767,-0.55 -0.422,0.003 -1.037,0.189 -1.367,0.412 m -241.567,0.526 c 0.092,0.079 0.707,0.264 1.367,0.412 0.876,0.196 1.038,0.159 0.6,-0.138 -0.54,-0.365 -2.368,-0.62 -1.967,-0.274 m 238.767,0.274 c -0.438,0.297 -0.276,0.334 0.6,0.138 1.471,-0.329 1.79,-0.558 0.767,-0.55 -0.422,0.003 -1.037,0.189 -1.367,0.412 m -235.567,0.526 c 0.092,0.079 0.707,0.264 1.367,0.412 0.876,0.196 1.038,0.159 0.6,-0.138 -0.54,-0.365 -2.368,-0.62 -1.967,-0.274 m 33.567,0.274 c -0.438,0.297 -0.276,0.334 0.6,0.138 1.471,-0.329 1.79,-0.558 0.767,-0.55 -0.422,0.003 -1.037,0.189 -1.367,0.412 M 282.4,362 c 1.368,0.438 2.419,0.438 1.4,0 -0.44,-0.189 -1.16,-0.338 -1.6,-0.332 -0.643,0.009 -0.604,0.075 0.2,0.332 m 32.8,0 c -0.764,0.494 0.058,0.494 1.6,0 l 1,-0.32 -1,-0.034 c -0.55,-0.019 -1.27,0.141 -1.6,0.354 m -227.8,0.8 c 0.66,0.168 1.56,0.314 2,0.325 l 0.8,0.019 -0.8,-0.344 c -0.44,-0.189 -1.34,-0.335 -2,-0.325 l -1.2,0.02 1.2,0.305 m 24.4,0 -0.8,0.344 0.8,-0.012 c 0.44,-0.006 1.25,-0.156 1.8,-0.332 l 1,-0.32 -1,-0.012 c -0.55,-0.006 -1.36,0.143 -1.8,0.332 m 174.6,0 c 0.55,0.176 1.45,0.32 2,0.32 h 1 l -1,-0.32 c -0.55,-0.176 -1.45,-0.32 -2,-0.32 h -1 l 1,0.32 m 24.2,0 -0.8,0.344 0.8,-0.019 c 0.44,-0.011 1.34,-0.157 2,-0.325 l 1.2,-0.305 -1.2,-0.02 c -0.66,-0.01 -1.56,0.136 -2,0.325 m -217.2,0.865 c 1.1,0.146 4.34,0.265 7.2,0.265 2.86,0 6.1,-0.119 7.2,-0.265 1.1,-0.146 -2.14,-0.265 -7.2,-0.265 -5.06,0 -8.3,0.119 -7.2,0.265 m 199.2,0 c 1.1,0.146 4.25,0.265 7,0.265 2.75,0 5.9,-0.119 7,-0.265 1.1,-0.146 -2.05,-0.265 -7,-0.265 -4.95,0 -8.1,0.119 -7,0.265"
       stroke="none"
       fill="#847c5c"
       fill-rule="evenodd" />
    <path
       id="path6"
       d="m 96.522,163.899 c 2.377,0.071 6.157,0.07 8.4,-0.001 2.243,-0.071 0.298,-0.129 -4.322,-0.129 -4.62,0.001 -6.455,0.059 -4.078,0.13 m 198.8,0 c 2.377,0.071 6.157,0.07 8.4,-0.001 2.243,-0.071 0.298,-0.129 -4.322,-0.129 -4.62,0.001 -6.455,0.059 -4.078,0.13 m -4.728,19.801 0.006,19.7 1.2,0.058 c 1.133,0.055 1.138,0.047 0.104,-0.126 l -1.096,-0.184 -0.11,-19.574 -0.109,-19.574 0.005,19.7 m -182.394,19.5 -1.2,0.305 1.076,0.048 c 0.592,0.026 1.188,-0.133 1.324,-0.353 0.136,-0.22 0.192,-0.379 0.124,-0.353 -0.068,0.026 -0.664,0.185 -1.324,0.353 m -13.095,24.283 c 0.497,0.096 1.217,0.092 1.6,-0.008 0.382,-0.1 -0.025,-0.179 -0.905,-0.174 -0.88,0.004 -1.193,0.086 -0.695,0.182 m 9.395,-0.007 c 0.385,0.1 1.015,0.1 1.4,0 0.385,-0.101 0.07,-0.183 -0.7,-0.183 -0.77,0 -1.085,0.082 -0.7,0.183 m 189.6,0 c 0.385,0.1 1.015,0.1 1.4,0 0.385,-0.101 0.07,-0.183 -0.7,-0.183 -0.77,0 -1.085,0.082 -0.7,0.183 m 9.405,0.007 c 0.497,0.096 1.217,0.092 1.6,-0.008 0.382,-0.1 -0.025,-0.179 -0.905,-0.174 -0.88,0.004 -1.193,0.086 -0.695,0.182 M 50.175,234.1 49,235.4 l 1.3,-1.175 c 1.212,-1.095 1.484,-1.425 1.175,-1.425 -0.069,0 -0.654,0.585 -1.3,1.3 m 198,0.8 -1.175,1.3 1.3,-1.175 c 1.212,-1.095 1.484,-1.425 1.175,-1.425 -0.069,0 -0.654,0.585 -1.3,1.3 m -3.6,3.6 -1.175,1.3 1.3,-1.175 c 1.212,-1.095 1.484,-1.425 1.175,-1.425 -0.069,0 -0.654,0.585 -1.3,1.3 m -186.597,5.4 -1.378,1.5 1.5,-1.378 c 1.396,-1.284 1.684,-1.622 1.378,-1.622 -0.066,0 -0.741,0.675 -1.5,1.5 m -3.003,3 -1.175,1.3 1.3,-1.175 c 1.212,-1.095 1.484,-1.425 1.175,-1.425 -0.069,0 -0.654,0.585 -1.3,1.3 m 319.118,37.5 c 0,0.77 0.082,1.085 0.183,0.7 0.1,-0.385 0.1,-1.015 0,-1.4 -0.101,-0.385 -0.183,-0.07 -0.183,0.7 m -348.379,1 c 0.003,1.1 0.081,1.503 0.173,0.895 0.092,-0.609 0.09,-1.509 -0.005,-2 -0.095,-0.492 -0.171,0.005 -0.168,1.105 m 136.787,0.8 c 0.004,0.88 0.086,1.193 0.182,0.695 0.096,-0.497 0.092,-1.217 -0.008,-1.6 -0.1,-0.382 -0.179,0.025 -0.174,0.905 m 74.8,0.4 c 0.004,0.88 0.086,1.193 0.182,0.695 0.096,-0.497 0.092,-1.217 -0.008,-1.6 -0.1,-0.382 -0.179,0.025 -0.174,0.905 m 0,5.6 c 0.004,0.88 0.086,1.193 0.182,0.695 0.096,-0.497 0.092,-1.217 -0.008,-1.6 -0.1,-0.382 -0.179,0.025 -0.174,0.905 m -211.592,1 c 0,0.99 0.078,1.395 0.173,0.9 0.096,-0.495 0.096,-1.305 0,-1.8 -0.095,-0.495 -0.173,-0.09 -0.173,0.9 m 136.784,-0.4 c 0,0.77 0.082,1.085 0.183,0.7 0.1,-0.385 0.1,-1.015 0,-1.4 -0.101,-0.385 -0.183,-0.07 -0.183,0.7 m 211.6,1.6 c 0,0.77 0.082,1.085 0.183,0.7 0.1,-0.385 0.1,-1.015 0,-1.4 -0.101,-0.385 -0.183,-0.07 -0.183,0.7 m -229.707,39.1 -2.186,2.3 2.3,-2.186 c 2.137,-2.032 2.483,-2.414 2.186,-2.414 -0.062,0 -1.097,1.035 -2.3,2.3 m 111.197,0.2 c 0.981,1.045 1.836,1.9 1.9,1.9 0.301,0 -0.017,-0.359 -1.783,-2.017 l -1.9,-1.783 1.783,1.9 m -100.608,6.8 -1.175,1.3 1.3,-1.175 c 1.212,-1.095 1.484,-1.425 1.175,-1.425 -0.069,0 -0.654,0.585 -1.3,1.3 M 246.2,342 c 1.528,1.54 2.869,2.8 2.979,2.8 0.11,0 -1.051,-1.26 -2.579,-2.8 -1.528,-1.54 -2.869,-2.8 -2.979,-2.8 -0.11,0 1.051,1.26 2.579,2.8 m -95.225,2.5 -1.175,1.3 1.3,-1.175 c 1.212,-1.095 1.484,-1.425 1.175,-1.425 -0.069,0 -0.654,0.585 -1.3,1.3 m 153.925,6.976 c 0.385,0.1 1.015,0.1 1.4,0 0.385,-0.101 0.07,-0.183 -0.7,-0.183 -0.77,0 -1.085,0.082 -0.7,0.183 M 98.117,364.297 c 1.494,0.077 3.834,0.077 5.2,-0.001 1.365,-0.078 0.143,-0.141 -2.717,-0.141 -2.86,0.001 -3.978,0.065 -2.483,0.142 m 198.8,0 c 1.494,0.077 3.834,0.077 5.2,-0.001 1.365,-0.078 0.143,-0.141 -2.717,-0.141 -2.86,0.001 -3.978,0.065 -2.483,0.142"
       stroke="none"
       fill="#3c4c64"
       fill-rule="evenodd" />
    <path
       id="path7"
       d="m 99.3,35.891 c 0.825,0.087 2.175,0.087 3,0 0.825,-0.086 0.15,-0.157 -1.5,-0.157 -1.65,0 -2.325,0.071 -1.5,0.157 M 296.261,35.9 c -0.103,0.165 0.832,0.249 2.076,0.187 3.907,-0.195 4.378,-0.365 1.187,-0.427 -1.692,-0.033 -3.161,0.075 -3.263,0.24 M 96.899,93.867 c 0.089,51.04 0.172,57.886 0.701,58.03 0.447,0.122 0.472,0.073 0.097,-0.192 -0.4,-0.283 -0.482,-12.087 -0.4,-58.03 C 97.354,61.954 97.264,36 97.099,36 c -0.166,0 -0.256,26.04 -0.2,57.867 m 206,-0.2 c -0.079,45.845 -0.203,57.908 -0.599,58.068 -0.392,0.158 -0.389,0.209 0.013,0.233 0.894,0.056 0.894,0.053 0.788,-58.568 l -0.104,-57.6 -0.098,57.867"
       stroke="none"
       fill="#344c84"
       fill-rule="evenodd" />
    <path
       id="path8"
       d="m 104.195,94 c 0,31.79 0.047,44.795 0.105,28.9 0.058,-15.895 0.058,-41.905 0,-57.8 -0.058,-15.895 -0.105,-2.89 -0.105,28.9 m 199.104,-0.12 c -0.093,54.452 -0.138,57.703 -0.799,58.088 -0.385,0.224 -0.497,0.413 -0.249,0.42 1.34,0.036 1.353,-0.547 1.249,-58.631 L 303.397,36.2 303.299,93.88 M 91.549,163.9 c -0.49,0.625 -0.478,0.645 0.111,0.185 0.502,-0.393 2.707,-0.488 9.262,-0.4 4.731,0.063 8.519,-0.02 8.417,-0.185 -0.444,-0.715 -17.211,-0.338 -17.79,0.4 m 199.112,-0.4 c -0.102,0.165 3.686,0.248 8.417,0.185 6.555,-0.088 8.76,0.007 9.262,0.4 0.589,0.46 0.601,0.44 0.111,-0.185 -0.579,-0.738 -17.346,-1.115 -17.79,-0.4 m 16.939,39.961 c -0.551,0.291 -0.731,0.527 -0.4,0.527 0.69,0 1.87,-0.668 1.588,-0.899 -0.103,-0.085 -0.638,0.082 -1.188,0.372 m -209.085,0.035 c 1.273,0.08 3.253,0.079 4.4,-0.002 1.147,-0.08 0.105,-0.145 -2.315,-0.144 -2.42,0.001 -3.358,0.066 -2.085,0.146 m 198.8,0 c 1.273,0.08 3.253,0.079 4.4,-0.002 1.147,-0.08 0.105,-0.145 -2.315,-0.144 -2.42,0.001 -3.358,0.066 -2.085,0.146 M 94.7,214.682 c 0.495,0.096 1.305,0.096 1.8,0 0.495,-0.095 0.09,-0.173 -0.9,-0.173 -0.99,0 -1.395,0.078 -0.9,0.173 m 10,0 c 0.495,0.096 1.305,0.096 1.8,0 0.495,-0.095 0.09,-0.173 -0.9,-0.173 -0.99,0 -1.395,0.078 -0.9,0.173 m 188.8,0 c 0.495,0.096 1.305,0.096 1.8,0 0.495,-0.095 0.09,-0.173 -0.9,-0.173 -0.99,0 -1.395,0.078 -0.9,0.173 m 10.205,0.005 c 0.609,0.092 1.509,0.09 2,-0.005 0.492,-0.095 -0.005,-0.171 -1.105,-0.168 -1.1,0.003 -1.503,0.081 -0.895,0.173 M 49.978,233.9 l -1.378,1.5 1.5,-1.378 c 1.396,-1.284 1.684,-1.622 1.378,-1.622 -0.066,0 -0.741,0.675 -1.5,1.5 m 101.222,0.3 c 0.746,0.77 1.447,1.4 1.557,1.4 0.11,0 -0.411,-0.63 -1.157,-1.4 -0.746,-0.77 -1.447,-1.4 -1.557,-1.4 -0.11,0 0.411,0.63 1.157,1.4 m 96.4,0.8 c -0.972,0.99 -1.677,1.8 -1.567,1.8 0.11,0 0.995,-0.81 1.967,-1.8 0.972,-0.99 1.677,-1.8 1.567,-1.8 -0.11,0 -0.995,0.81 -1.967,1.8 m -93.6,1.925 c 0,0.069 0.585,0.654 1.3,1.3 l 1.3,1.175 -1.175,-1.3 C 154.33,236.888 154,236.616 154,236.925 m -9.8,8.675 c 1.306,1.32 2.465,2.4 2.575,2.4 0.11,0 -0.869,-1.08 -2.175,-2.4 -1.306,-1.32 -2.465,-2.4 -2.575,-2.4 -0.11,0 0.869,1.08 2.175,2.4 m 111.386,-0.1 -2.186,2.3 2.3,-2.186 c 2.137,-2.032 2.483,-2.414 2.186,-2.414 -0.062,0 -1.097,1.035 -2.3,2.3 M 39.293,279.2 c 0,0.77 0.082,1.085 0.183,0.7 0.1,-0.385 0.1,-1.015 0,-1.4 -0.101,-0.385 -0.183,-0.07 -0.183,0.7 m 198.421,3.8 c 0.003,1.1 0.081,1.503 0.173,0.895 0.092,-0.609 0.09,-1.509 -0.005,-2 -0.095,-0.492 -0.171,0.005 -0.168,1.105 m 123.142,-1 c 0,0.33 0.155,0.96 0.344,1.4 0.217,0.504 0.344,0.578 0.344,0.2 0,-0.33 -0.155,-0.96 -0.344,-1.4 -0.217,-0.504 -0.344,-0.578 -0.344,-0.2 M 38.56,289.4 c 10e-4,3.3 0.062,4.597 0.138,2.882 0.075,-1.715 0.074,-4.415 -10e-4,-6 -0.076,-1.585 -0.138,-0.182 -0.137,3.118 m 199.154,6.4 c 0.003,1.1 0.081,1.503 0.173,0.895 0.092,-0.609 0.09,-1.509 -0.005,-2 -0.095,-0.492 -0.171,0.005 -0.168,1.105 m 123.315,0.029 c -0.148,0.586 -0.191,1.143 -0.097,1.237 0.095,0.094 0.292,-0.308 0.439,-0.895 0.148,-0.586 0.191,-1.143 0.097,-1.237 -0.095,-0.094 -0.292,0.308 -0.439,0.895 M 39.293,299.6 c 0,0.77 0.082,1.085 0.183,0.7 0.1,-0.385 0.1,-1.015 0,-1.4 -0.101,-0.385 -0.183,-0.07 -0.183,0.7 m 135.336,0.229 c -0.148,0.586 -0.191,1.143 -0.097,1.237 0.095,0.094 0.292,-0.308 0.439,-0.895 0.148,-0.586 0.191,-1.143 0.097,-1.237 -0.095,-0.094 -0.292,0.308 -0.439,0.895 m -31.043,34.071 -2.186,2.3 2.3,-2.186 c 2.137,-2.032 2.483,-2.414 2.186,-2.414 -0.062,0 -1.097,1.035 -2.3,2.3 m 111.997,-0.6 c 0.981,1.045 1.836,1.9 1.9,1.9 0.301,0 -0.017,-0.359 -1.783,-2.017 l -1.9,-1.783 1.783,1.9 m 99.195,6.6 -1.378,1.5 1.5,-1.378 c 1.396,-1.284 1.684,-1.622 1.378,-1.622 -0.066,0 -0.741,0.675 -1.5,1.5 M 48.4,343.325 c 0,0.069 0.585,0.654 1.3,1.3 L 51,345.8 49.825,344.5 C 48.73,343.288 48.4,343.016 48.4,343.325 m 102.975,1.175 -1.175,1.3 1.3,-1.175 c 1.212,-1.095 1.484,-1.425 1.175,-1.425 -0.069,0 -0.654,0.585 -1.3,1.3 M 61.2,353.379 c 0,0.11 0.54,0.48 1.2,0.821 0.66,0.341 1.2,0.531 1.2,0.421 0,-0.11 -0.54,-0.48 -1.2,-0.821 -0.66,-0.341 -1.2,-0.531 -1.2,-0.421 m 47,10.621 -1.2,0.305 1.076,0.048 c 0.592,0.026 1.188,-0.133 1.324,-0.353 0.136,-0.22 0.192,-0.379 0.124,-0.353 -0.068,0.026 -0.664,0.185 -1.324,0.353 m 182.541,0.101 c 0.202,0.202 0.792,0.3 1.313,0.218 0.801,-0.126 0.744,-0.182 -0.367,-0.367 -0.794,-0.131 -1.168,-0.073 -0.946,0.149 M 307.2,364 c -0.824,0.264 -0.859,0.326 -0.2,0.354 0.44,0.019 1.07,-0.141 1.4,-0.354 0.701,-0.453 0.214,-0.453 -1.2,0"
       stroke="none"
       fill="#1c3464"
       fill-rule="evenodd" />
  </g>
</svg>
