<?xml version="1.0" encoding="UTF-8" standalone="no"?>
<!-- Created with Inkscape (http://www.inkscape.org/) -->

<svg
   width="100"
   height="100"
   viewBox="0 0 100 100"
   version="1.1"
   id="svg1"
   xml:space="preserve"
   xmlns="http://www.w3.org/2000/svg"
   xmlns:svg="http://www.w3.org/2000/svg"><defs
     id="defs1" /><g
     id="layer1"><g
       id="g1"
       transform="scale(0.1953125)"><path
         d="M 0,0 H 512 V 512 H 0 Z"
         id="path1" /><path
         fill="#ffffff"
         d="m 256,106 c -20.835,0 -39,20.24 -39,47 0,26.76 18.165,47 39,47 20.835,0 39,-20.24 39,-47 0,-26.76 -18.165,-47 -39,-47 m -56.154,58.045 c -31.257,8.56 -47.236,34.018 -61.975,61.45 -17.314,32.592 -28.125,71.052 -36.09,102.505 H 89 V 273 H 71 v 55 H 55 V 289 H 37 v 39 H 20 v 18 h 17 v 39 h 18 v -39 h 16 v 55 h 18 v -55 h 84.592 c 5.427,13 11.908,26 18.408,39 l -48,6 v 15 h 72.79 l -12.35,-60 h 103.12 l -12.35,60 H 368 v -15 l -48,-6 c 6.5,-13 12.98,-26 18.408,-39 H 423 v 55 h 18 v -55 h 16 v 39 h 18 v -39 h 17 v -18 h -17 v -39 h -18 v 39 h -16 v -55 h -18 v 55 H 410.22 C 402.253,296.537 391.402,257.983 373.363,225.273 358.346,198.043 343.726,173.747 312.047,164.73 307.244,194.506 284.524,218 256,218 c -28.743,0 -51.593,-23.856 -56.154,-53.955 m -3.608,48.385 10.04,50.24 C 176,273 160,273 160,289 c 0,13 2.64,26 6.85,39 h -32.032 c 7.596,-28.945 17.637,-61.754 31.31,-87.494 9.008,-14.526 17.53,-18.784 30.11,-28.076 m 119.3,1.35 c 11.32,8.253 20.97,10.93 29.804,26.947 14.136,25.632 24.233,58.35 31.836,87.273 H 345.15 c 4.21,-13 6.85,-26 6.85,-39 0,-16 -16,-16 -46.28,-26.33 z M 256,289 c 22.95,0 60,16 60,16 l -4.734,23 H 200.734 L 196,305 c 0,0 37.05,-16 60,-16"
         id="path2" /></g></g></svg>
