<?xml version="1.0" encoding="UTF-8" standalone="no"?>
<!-- Created with Inkscape (http://www.inkscape.org/) -->

<svg
   width="100"
   height="100"
   viewBox="0 0 100 100"
   version="1.1"
   id="svg1"
   xml:space="preserve"
   xmlns="http://www.w3.org/2000/svg"
   xmlns:svg="http://www.w3.org/2000/svg"><defs
     id="defs1" /><g
     id="layer1"><g
       id="g1"
       transform="scale(0.1953125)"><path
         d="M 0,0 H 512 V 512 H 0 Z"
         id="path1" /><path
         fill="#ffffff"
         d="m 461.5,31.85 c -5,1.2 -10.4,3.4 -16.4,6.4 -12,6 -26.7,15.3 -42.1,26.1 -26.7,18.7 -55.5,41.75 -75,59.95 l 39.8,19.9 19.9,39.8 c 18.2,-19.5 41.2,-48.3 59.9,-75 10.8,-15.35 20.1,-30.05 26.2,-42.15 3,-6 5.2,-11.3 6.3,-16.3 1.2,-5 1.9,-10.9 -2.9,-15.7 -4.8,-4.56 -10,-4.25 -15.7,-3 m -14.8,33.4 c 4.9,4.71 5.6,12.1 3.8,18.7 -1.8,6.6 -6.1,13.3 -12.9,20.15 L 395.4,146.3 365.8,116.6 408,74.45 c 6.8,-6.8 13.5,-11.06 20.1,-12.9 6.1,-1.71 14.3,-0.44 18.6,3.7 m -263.5,44.25 -21.3,21.2 45.6,5 v -26.2 z m 129.9,25.2 -43.5,21.8 -153,200.1 13.7,13.8 97.5,-97.5 11.3,11.3 c -32.5,32.5 -65,65.1 -97.5,97.6 l 13.8,13.6 200.1,-153 21.8,-43.5 -21.4,-42.8 z m -256.59,0.4 7.4,22.2 120.99,83.5 64.5,-84.3 z m 38.1,62.8 -13.1,13.2 24.39,24.3 17.6,-17.5 z m 260.89,64.7 -84.3,64.5 83.5,121 22.2,7.3 z m -190.9,4.8 -110.99,9.1 -22.6,22.6 82.39,35.4 z m 212.1,41.2 4.6,41.5 17.1,-17.2 v -24.3 z m -132.1,38.8 -67,51.2 35.3,82.4 22.6,-22.6 z m -138.7,21.2 -13.09,13.1 37.49,37.4 13.1,-13 z m 188.2,19.9 -17.5,17.6 24.3,24.3 13.2,-13.1 z"
         id="path2" /></g></g></svg>
