<?xml version="1.0" encoding="UTF-8" standalone="no"?>
<svg
   id="svg"
   version="1.1"
   width="99.990242"
   height="100"
   viewBox="0 0 99.990242 100"
   xmlns="http://www.w3.org/2000/svg"
   xmlns:svg="http://www.w3.org/2000/svg">
  <defs
     id="defs1" />
  <g
     id="svgg"
     transform="matrix(0.25009003,0,0,0.25009003,0.00425153,0.00325117)">
    <path
       id="path0"
       d="m 120.039,1.562 c -0.901,0.867 -1.639,1.782 -1.639,2.035 0,0.792 -1.099,1.603 -2.171,1.603 -0.566,0 -1.029,0.18 -1.029,0.4 0,0.22 -0.54,0.4 -1.2,0.4 -0.66,0 -1.2,0.18 -1.2,0.4 0,0.22 -0.439,0.4 -0.976,0.4 -0.537,0 -1.088,0.18 -1.224,0.4 -0.136,0.22 -0.687,0.4 -1.224,0.4 -0.537,0 -0.976,0.18 -0.976,0.4 0,0.22 -0.36,0.4 -0.8,0.4 -0.44,0 -0.8,0.18 -0.8,0.4 0,0.22 -0.54,0.4 -1.2,0.4 -0.66,0 -1.2,0.164 -1.2,0.365 0,0.201 -0.72,0.486 -1.6,0.635 -0.88,0.149 -1.6,0.434 -1.6,0.635 0,0.201 -0.236,0.365 -0.525,0.365 -0.289,0 -1.27,0.36 -2.181,0.8 -0.91,0.44 -1.829,0.8 -2.041,0.8 -0.213,0 -0.446,0.135 -0.52,0.3 -0.073,0.165 -1.348,0.928 -2.833,1.696 -1.485,0.767 -2.7,1.532 -2.7,1.7 0,0.167 -0.36,0.304 -0.8,0.304 -0.44,0 -0.8,0.18 -0.8,0.4 0,0.22 -0.278,0.4 -0.617,0.4 -0.339,0 -1.003,0.36 -1.475,0.8 -0.472,0.44 -1.095,0.8 -1.383,0.8 -0.289,0 -0.525,0.18 -0.525,0.4 0,0.22 -0.236,0.4 -0.525,0.4 -0.288,0 -0.873,0.315 -1.3,0.7 -0.426,0.385 -1.27,0.955 -1.875,1.268 -0.605,0.312 -1.1,0.717 -1.1,0.9 0,0.182 -0.27,0.332 -0.6,0.332 -0.33,0 -0.6,0.18 -0.6,0.4 0,0.22 -0.258,0.4 -0.573,0.4 -0.315,0 -0.687,0.36 -0.827,0.8 -0.14,0.44 -0.536,0.8 -0.88,0.8 -0.344,0 -0.917,0.333 -1.273,0.741 -0.356,0.407 -1.187,1.019 -1.847,1.359 -0.66,0.341 -1.74,1.134 -2.4,1.764 -0.66,0.63 -1.83,1.587 -2.6,2.127 -2.658,1.865 -4,3.993 -4,6.341 0,1.659 0.768,3.66 1.407,3.665 0.224,0.002 1.07,0.453 1.879,1.003 2.759,1.875 5.14,1.485 8.725,-1.43 4.222,-3.432 10.615,-8.186 13.139,-9.77 0.35,-0.22 1.399,-0.9 2.331,-1.511 7.034,-4.611 25.242,-12.833 26.619,-12.019 0.165,0.097 0.3,7.469 0.3,16.382 v 16.204 l 1.169,1.699 c 1.885,2.74 0.566,2.645 36.877,2.643 34.66,-0.003 34.641,-0.002 36.577,-2.021 l 1.177,-1.229 0.117,-16.453 c 0.074,-10.378 0.267,-16.635 0.524,-16.944 0.879,-1.059 15.686,5.158 23.3,9.784 1.507,0.916 2.82,1.665 2.918,1.665 0.309,0 6.24,4.071 8.941,6.138 9.558,7.313 16.759,14.31 23.736,23.062 1.491,1.87 2.927,3.67 3.192,4 7.685,9.576 17.335,28.093 22.645,43.455 l 1.264,3.655 -1.055,1.545 c -2.864,4.193 1.32,10.083 6.117,8.612 1.214,-0.373 10.987,-9.91 51.09,-49.855 27.274,-27.167 49.713,-49.263 49.864,-49.103 0.257,0.272 0.04,2.929 -0.871,10.691 -0.206,1.76 -0.563,4.82 -0.793,6.8 -0.386,3.327 -0.605,5.159 -1.596,13.4 -0.198,1.65 -0.552,5.07 -0.786,7.6 -0.234,2.53 -0.597,6.4 -0.807,8.6 -0.21,2.2 -0.562,6.52 -0.782,9.6 -0.22,3.08 -0.606,8.48 -0.857,12 -0.266,3.732 -0.524,20.905 -0.617,41.2 -0.089,19.14 -0.26,35.573 -0.38,36.517 -0.534,4.199 -5.166,6.092 -8.038,3.285 C 370.048,169.161 370,168.725 370,155 c 0,-14.184 -0.006,-14.227 -2.224,-16.445 -3.965,-3.965 -9.351,-2.457 -12.013,3.364 -3.921,8.571 -10.109,20.44 -15.371,29.481 -1.152,1.98 -2.42,4.169 -2.817,4.865 -0.794,1.39 -2.755,4.453 -7.898,12.335 -3.116,4.776 -10.738,15.73 -11.272,16.2 -0.125,0.11 -1.267,1.595 -2.539,3.3 -2.774,3.721 -2.586,3.693 -4.027,0.596 -3.891,-8.368 -13.587,-12.67 -23.639,-10.488 -11.504,2.496 -13.146,2.531 -15.494,0.324 -1.569,-1.474 -2.303,-3.251 -2.32,-5.619 -0.103,-13.816 -13.426,-24.772 -27.386,-22.52 -4.927,0.795 -6.2,0.918 -6.2,0.601 0,-0.171 7.31,-7.62 16.244,-16.553 8.935,-8.932 16.405,-16.658 16.6,-17.167 1.855,-4.83 -2.814,-9.314 -7.569,-7.268 -1.849,0.795 -2.043,0.803 -5.695,0.21 -6.27,-1.017 -7.7,-0.917 -31.38,2.176 -1.54,0.201 -4.42,0.556 -6.4,0.79 -5.798,0.684 -10.229,1.247 -12.8,1.626 -1.32,0.194 -4.2,0.551 -6.4,0.793 -2.2,0.242 -5.17,0.601 -6.6,0.798 -1.43,0.196 -4.13,0.557 -6,0.8 -10.956,1.427 -20.183,6.105 -21.039,10.667 -0.806,4.299 4.384,7.956 8.239,5.805 3.852,-2.15 6.699,-3.565 7.6,-3.778 0.55,-0.131 1.72,-0.434 2.6,-0.673 0.88,-0.24 3.13,-0.624 5,-0.853 1.87,-0.228 4.705,-0.585 6.3,-0.791 1.595,-0.207 4.205,-0.545 5.8,-0.752 1.595,-0.206 4.52,-0.577 6.5,-0.824 5.251,-0.654 8.762,-1.098 12.6,-1.591 1.87,-0.24 4.75,-0.599 6.4,-0.796 2.753,-0.329 4.39,-0.533 13.2,-1.638 5.595,-0.702 9.082,-0.89 9.322,-0.501 0.129,0.209 -2.14,2.726 -5.044,5.593 l -5.278,5.213 -3.2,0.444 c -3.668,0.508 -8.026,1.064 -13.2,1.682 -1.98,0.236 -4.77,0.593 -6.2,0.794 -1.43,0.201 -4.22,0.558 -6.2,0.794 -4.626,0.553 -9.268,1.134 -12.8,1.602 -1.54,0.204 -4.51,0.579 -6.6,0.834 -9.359,1.14 -14.638,5.061 -17.16,12.744 -2.792,8.504 1.528,25.317 8.842,34.417 0.615,0.765 1.118,1.576 1.118,1.802 0,0.43 -118.423,119.007 -118.853,119.007 -1.13,0 -13.121,-21.706 -17.512,-31.7 -0.459,-1.045 -1.179,-2.665 -1.598,-3.6 -3.544,-7.892 -9.295,-23.988 -12.042,-33.7 -0.638,-2.254 -2.058,-7.597 -2.445,-9.2 -0.213,-0.88 -0.558,-2.275 -0.768,-3.1 -0.665,-2.612 -1.176,-4.843 -1.534,-6.7 -0.191,-0.99 -0.633,-3.15 -0.981,-4.8 -1.13,-5.358 -1.081,-6.105 0.423,-6.422 1.672,-0.353 3.122,-1.319 4.004,-2.666 C 32.955,223.504 33,221.235 33,189.218 V 155 l -0.892,-1.251 c -1.183,-1.657 -3.17,-2.549 -5.681,-2.549 -2.848,0 -2.904,-0.488 -1.215,-10.5 0.986,-5.844 1.265,-7.409 1.587,-8.9 1.069,-4.956 2.769,-12.102 3.186,-13.4 0.177,-0.55 0.551,-1.81 0.831,-2.8 3.807,-13.467 12.532,-33.705 17.598,-40.82 0.432,-0.607 0.786,-1.218 0.786,-1.357 0,-0.312 4.329,-6.776 6.663,-9.949 2.594,-3.527 2.697,-6.215 0.338,-8.76 C 55.65,54.121 55.2,53.524 55.2,53.389 55.2,53.254 54.943,52.886 54.629,52.571 53.98,51.922 50.4,51.777 50.4,52.4 c 0,0.22 -0.425,0.4 -0.945,0.4 -0.915,0 -3.055,1.733 -3.055,2.473 0,0.2 -0.419,0.782 -0.93,1.293 -0.512,0.512 -1.163,1.494 -1.449,2.182 C 43.736,59.437 43.345,60 43.151,60 42.958,60 42.8,60.27 42.8,60.6 c 0,0.33 -0.15,0.6 -0.332,0.6 -0.183,0 -0.587,0.495 -0.898,1.1 -0.31,0.605 -0.881,1.391 -1.267,1.747 -0.387,0.356 -0.703,0.941 -0.703,1.3 0,0.359 -0.18,0.653 -0.4,0.653 -0.22,0 -0.4,0.27 -0.4,0.6 0,0.33 -0.18,0.6 -0.4,0.6 -0.22,0 -0.4,0.27 -0.4,0.6 0,0.33 -0.18,0.6 -0.4,0.6 -0.22,0 -0.4,0.36 -0.4,0.8 0,0.44 -0.18,0.8 -0.4,0.8 -0.22,0 -0.4,0.236 -0.4,0.525 0,0.288 -0.36,0.911 -0.8,1.383 -0.44,0.472 -0.8,1.136 -0.8,1.475 0,0.339 -0.18,0.617 -0.4,0.617 -0.22,0 -0.4,0.36 -0.4,0.8 0,0.44 -0.18,0.8 -0.4,0.8 -0.22,0 -0.4,0.36 -0.4,0.8 0,0.44 -0.146,0.8 -0.325,0.8 -0.179,0 -0.573,0.63 -0.875,1.4 -0.302,0.77 -0.696,1.4 -0.875,1.4 -0.179,0 -0.325,0.36 -0.325,0.8 0,0.44 -0.18,0.8 -0.4,0.8 -0.22,0 -0.4,0.36 -0.4,0.8 0,0.44 -0.18,0.8 -0.4,0.8 -0.22,0 -0.4,0.239 -0.4,0.532 0,0.293 -0.449,1.418 -0.998,2.5 -0.549,1.082 -0.999,2.463 -1,3.068 -0.001,0.605 -0.182,1.1 -0.402,1.1 -0.22,0 -0.4,0.36 -0.4,0.8 0,0.44 -0.18,0.8 -0.4,0.8 -0.22,0 -0.4,0.45 -0.4,1 0,0.55 -0.18,1 -0.4,1 -0.22,0 -0.4,0.45 -0.4,1 0,0.55 -0.18,1 -0.4,1 -0.22,0 -0.4,0.45 -0.4,1 0,0.55 -0.18,1 -0.4,1 -0.22,0 -0.4,0.54 -0.4,1.2 0,0.66 -0.18,1.2 -0.4,1.2 -0.22,0 -0.4,0.362 -0.4,0.805 0,0.443 -0.208,1.208 -0.462,1.7 -1.01,1.954 -1.138,2.32 -1.138,3.266 0,0.54 -0.18,1.093 -0.4,1.229 -0.22,0.136 -0.4,0.777 -0.4,1.424 0,0.647 -0.18,1.176 -0.4,1.176 -0.22,0 -0.4,0.54 -0.4,1.2 0,0.66 -0.18,1.2 -0.4,1.2 -0.22,0 -0.4,0.63 -0.4,1.4 0,0.77 -0.18,1.4 -0.4,1.4 -0.22,0 -0.4,0.619 -0.4,1.376 0,0.757 -0.18,1.488 -0.4,1.624 -0.22,0.136 -0.4,0.957 -0.4,1.824 0,0.867 -0.18,1.576 -0.4,1.576 -0.22,0 -0.4,0.72 -0.4,1.6 0,0.88 -0.18,1.6 -0.4,1.6 -0.22,0 -0.4,0.799 -0.4,1.776 0,0.977 -0.18,1.888 -0.4,2.024 -0.22,0.136 -0.4,1.036 -0.4,2 0,0.964 -0.18,1.864 -0.4,2 -0.22,0.136 -0.4,1.101 -0.4,2.144 0,1.043 -0.165,2.067 -0.366,2.276 -0.202,0.209 -0.466,1.46 -0.587,2.78 -0.345,3.752 -0.946,8.292 -1.257,9.5 l -0.283,1.1 H 7.353 c -2.235,0 -3.753,0.162 -3.753,0.4 0,0.22 -0.278,0.4 -0.618,0.4 -0.34,0 -1.105,0.487 -1.7,1.082 l -1.082,1.081 -0.108,35.477 -0.109,35.477 1.577,1.642 c 1.028,1.07 1.928,1.641 2.585,1.641 0.554,0 1.119,0.18 1.255,0.4 0.14,0.227 2.137,0.4 4.624,0.4 H 14.4 v 1.376 c 0,0.757 0.18,1.488 0.4,1.624 0.22,0.136 0.4,1.137 0.4,2.224 0,1.087 0.18,1.976 0.4,1.976 0.22,0 0.4,0.799 0.4,1.776 0,0.977 0.18,1.888 0.4,2.024 0.22,0.136 0.4,1.047 0.4,2.024 0,0.977 0.18,1.776 0.4,1.776 0.22,0 0.4,0.72 0.4,1.6 0,0.88 0.18,1.6 0.4,1.6 0.22,0 0.4,0.709 0.4,1.576 0,0.867 0.18,1.688 0.4,1.824 0.22,0.136 0.4,0.867 0.4,1.624 0,0.757 0.18,1.376 0.4,1.376 0.22,0 0.4,0.72 0.4,1.6 0,0.88 0.18,1.6 0.4,1.6 0.22,0 0.4,0.63 0.4,1.4 0,0.77 0.18,1.4 0.4,1.4 0.22,0 0.4,0.54 0.4,1.2 0,0.66 0.18,1.2 0.4,1.2 0.22,0 0.4,0.72 0.4,1.6 0,0.88 0.18,1.6 0.4,1.6 0.22,0 0.4,0.54 0.4,1.2 0,0.66 0.18,1.2 0.4,1.2 0.22,0 0.4,0.54 0.4,1.2 0,0.66 0.18,1.2 0.4,1.2 0.22,0 0.4,0.529 0.4,1.176 0,0.647 0.18,1.288 0.4,1.424 0.22,0.136 0.4,0.687 0.4,1.224 0,0.537 0.18,0.976 0.4,0.976 0.22,0 0.4,0.45 0.4,1 0,0.55 0.157,1 0.348,1 0.192,0 0.474,0.941 0.626,2.09 0.153,1.15 0.42,2.275 0.594,2.5 0.173,0.226 0.561,1.265 0.861,2.31 0.3,1.045 0.686,1.9 0.858,1.9 0.172,0 0.313,0.439 0.313,0.976 0,0.537 0.18,1.088 0.4,1.224 0.22,0.136 0.4,0.597 0.4,1.024 0,0.427 0.18,0.776 0.4,0.776 0.22,0 0.4,0.324 0.4,0.72 0,0.894 0.894,2.873 1.3,2.877 0.165,0.002 0.3,0.543 0.3,1.203 0,0.66 0.18,1.2 0.4,1.2 0.22,0 0.4,0.36 0.4,0.8 0,0.44 0.18,0.8 0.4,0.8 0.22,0 0.4,0.36 0.4,0.8 0,0.44 0.18,0.8 0.4,0.8 0.22,0 0.4,0.439 0.4,0.976 0,0.537 0.18,1.088 0.4,1.224 0.22,0.136 0.4,0.597 0.4,1.024 0,0.427 0.18,0.776 0.4,0.776 0.22,0 0.4,0.36 0.4,0.8 0,0.44 0.18,0.8 0.4,0.8 0.22,0 0.4,0.36 0.4,0.8 0,0.44 0.18,0.8 0.4,0.8 0.22,0 0.4,0.36 0.4,0.8 0,0.44 0.18,0.8 0.4,0.8 0.22,0 0.4,0.36 0.4,0.8 0,0.44 0.18,0.8 0.4,0.8 0.22,0 0.4,0.27 0.4,0.6 0,0.33 0.18,0.6 0.4,0.6 0.22,0 0.4,0.36 0.4,0.8 0,0.44 0.18,0.8 0.4,0.8 0.22,0 0.4,0.36 0.4,0.8 0,0.44 0.18,0.8 0.4,0.8 0.22,0 0.4,0.36 0.4,0.8 0,0.44 0.18,0.8 0.4,0.8 0.22,0 0.4,0.276 0.4,0.613 0,0.62 1.89,4.617 2.358,4.987 0.139,0.11 0.697,1.1 1.241,2.2 0.543,1.1 1.305,2.291 1.694,2.647 0.389,0.356 0.707,0.941 0.707,1.3 0,0.359 0.18,0.653 0.4,0.653 0.22,0 0.4,0.32 0.4,0.712 0,0.391 0.36,0.971 0.8,1.288 0.44,0.317 0.8,0.814 0.8,1.105 0,0.291 0.36,0.915 0.8,1.387 0.44,0.472 0.8,1.095 0.8,1.383 0,0.289 0.159,0.525 0.353,0.525 1.862,0 0.492,1.937 -6.003,8.485 -3.732,3.763 -7.175,7.399 -7.649,8.079 -0.475,0.68 -1.187,1.527 -1.582,1.883 -0.395,0.356 -0.719,0.941 -0.719,1.3 0,0.359 -0.18,0.653 -0.4,0.653 -0.22,0 -0.4,0.36 -0.4,0.8 0,0.44 -0.18,0.8 -0.4,0.8 -0.22,0 -0.4,0.349 -0.4,0.776 0,0.427 -0.18,0.888 -0.4,1.024 -0.22,0.136 -0.4,0.867 -0.4,1.624 0,0.757 -0.18,1.376 -0.4,1.376 -0.228,0 -0.4,1.189 -0.4,2.767 0,1.85 -0.166,2.826 -0.5,2.947 -0.4,0.145 -0.4,0.351 0,1.028 0.275,0.466 0.5,2.02 0.5,3.453 0,1.47 0.174,2.605 0.4,2.605 0.22,0 0.4,0.54 0.4,1.2 0,0.66 0.18,1.2 0.4,1.2 0.22,0 0.4,0.439 0.4,0.976 0,0.537 0.18,1.088 0.4,1.224 0.22,0.136 0.4,0.557 0.4,0.935 0,0.379 0.36,0.948 0.8,1.265 0.44,0.317 0.8,0.81 0.8,1.096 0,0.498 2.157,2.858 7.499,8.203 5.451,5.454 7.714,7.501 8.294,7.501 0.334,0 0.607,0.18 0.607,0.4 0,0.22 0.27,0.4 0.6,0.4 0.33,0 0.6,0.18 0.6,0.4 0,0.22 0.349,0.4 0.776,0.4 0.427,0 0.888,0.18 1.024,0.4 0.136,0.22 0.582,0.4 0.99,0.4 0.409,0 0.818,0.225 0.91,0.5 0.242,0.724 17.959,0.724 18.2,0 0.092,-0.275 0.512,-0.5 0.933,-0.5 0.422,0 0.767,-0.18 0.767,-0.4 0,-0.22 0.36,-0.4 0.8,-0.4 0.44,0 0.8,-0.18 0.8,-0.4 0,-0.22 0.32,-0.4 0.712,-0.4 0.391,0 0.971,-0.36 1.288,-0.8 0.317,-0.44 0.817,-0.8 1.11,-0.8 0.564,0 4.535,-3.889 5.89,-5.769 0.44,-0.61 1.565,-1.93 2.5,-2.934 0.935,-1.003 1.7,-1.98 1.7,-2.171 0,-1.215 3.664,-3.976 4.324,-3.257 0.372,0.405 1.171,0.991 1.776,1.301 0.605,0.311 1.1,0.715 1.1,0.898 0,0.182 0.32,0.332 0.712,0.332 0.391,0 0.971,0.36 1.288,0.8 0.317,0.44 0.897,0.8 1.288,0.8 0.392,0 0.712,0.158 0.712,0.351 0,0.194 0.54,0.576 1.2,0.849 0.66,0.273 1.2,0.655 1.2,0.849 0,0.193 0.345,0.351 0.767,0.351 0.421,0 0.826,0.141 0.9,0.314 0.198,0.467 6.086,3.286 6.863,3.286 0.368,0 0.67,0.18 0.67,0.4 0,0.22 0.36,0.4 0.8,0.4 0.44,0 0.8,0.18 0.8,0.4 0,0.22 0.54,0.4 1.2,0.4 0.66,0 1.2,0.18 1.2,0.4 0,0.22 0.36,0.4 0.8,0.4 0.44,0 0.8,0.18 0.8,0.4 0,0.22 0.54,0.4 1.2,0.4 0.66,0 1.2,0.18 1.2,0.4 0,0.22 0.439,0.4 0.976,0.4 0.537,0 1.088,0.18 1.224,0.4 0.136,0.22 0.687,0.4 1.224,0.4 0.537,0 0.976,0.18 0.976,0.4 0,0.22 0.619,0.4 1.376,0.4 0.757,0 1.488,0.18 1.624,0.4 0.136,0.22 0.856,0.4 1.6,0.4 0.744,0 1.464,0.18 1.6,0.4 0.136,0.22 0.921,0.4 1.744,0.4 0.823,0 1.721,0.225 1.996,0.5 0.384,0.384 4.305,0.5 16.86,0.5 12.555,0 16.476,-0.116 16.86,-0.5 0.275,-0.275 1.274,-0.5 2.22,-0.5 0.946,0 1.72,-0.18 1.72,-0.4 0,-0.22 0.72,-0.4 1.6,-0.4 0.88,0 1.6,-0.18 1.6,-0.4 0,-0.22 0.72,-0.4 1.6,-0.4 0.88,0 1.6,-0.18 1.6,-0.4 0,-0.22 0.54,-0.4 1.2,-0.4 0.66,0 1.2,-0.18 1.2,-0.4 0,-0.22 0.54,-0.4 1.2,-0.4 0.66,0 1.2,-0.18 1.2,-0.4 0,-0.22 0.45,-0.4 1,-0.4 0.55,0 1,-0.18 1,-0.4 0,-0.22 0.36,-0.4 0.8,-0.4 0.44,0 0.8,-0.18 0.8,-0.4 0,-0.22 0.54,-0.4 1.2,-0.4 0.66,0 1.2,-0.18 1.2,-0.4 0,-0.22 0.36,-0.4 0.8,-0.4 0.44,0 0.8,-0.164 0.8,-0.365 0,-0.201 0.72,-0.486 1.6,-0.635 0.88,-0.149 1.6,-0.434 1.6,-0.635 0,-0.201 0.36,-0.365 0.8,-0.365 0.44,0 0.8,-0.18 0.8,-0.4 0,-0.22 0.36,-0.4 0.8,-0.4 0.44,0 0.8,-0.136 0.8,-0.302 0,-0.167 0.585,-0.556 1.3,-0.866 0.715,-0.309 2.052,-1.073 2.972,-1.697 0.92,-0.624 1.825,-1.135 2.012,-1.135 0.187,0 0.599,-0.36 0.916,-0.8 0.317,-0.44 0.857,-0.8 1.2,-0.8 0.343,0 0.883,-0.36 1.2,-0.8 0.317,-0.44 0.857,-0.8 1.2,-0.8 0.343,0 0.883,-0.36 1.2,-0.8 0.317,-0.44 0.825,-0.8 1.128,-0.8 0.303,0 1.055,-0.54 1.672,-1.2 0.617,-0.66 1.337,-1.2 1.6,-1.2 0.263,0 0.983,-0.54 1.6,-1.2 0.617,-0.66 1.236,-1.2 1.377,-1.2 0.35,0 1.212,-0.706 3.176,-2.6 0.912,-0.88 2.376,-2.136 3.253,-2.791 1.731,-1.294 10.594,-10.16 10.594,-10.598 0,-0.147 0.945,-1.267 2.1,-2.488 2.36,-2.494 3.5,-3.839 3.5,-4.127 0,-0.107 0.72,-0.937 1.6,-1.844 0.88,-0.907 1.6,-1.825 1.6,-2.04 0,-0.215 0.54,-0.895 1.2,-1.512 0.66,-0.617 1.2,-1.337 1.2,-1.6 0,-0.263 0.54,-0.983 1.2,-1.6 0.66,-0.617 1.2,-1.343 1.2,-1.614 0,-0.27 0.335,-0.783 0.744,-1.139 0.931,-0.809 6.056,-8.596 6.056,-9.201 0,-0.245 0.18,-0.446 0.4,-0.446 0.22,0 0.4,-0.32 0.4,-0.712 0,-0.391 0.36,-0.971 0.8,-1.288 0.44,-0.317 0.8,-0.814 0.8,-1.105 0,-0.291 0.36,-0.915 0.8,-1.387 0.44,-0.472 0.8,-1.095 0.8,-1.383 0,-0.289 0.18,-0.525 0.4,-0.525 0.22,0 0.4,-0.255 0.4,-0.567 0,-0.311 0.135,-0.626 0.3,-0.7 0.376,-0.167 1.675,-2.297 1.971,-3.233 0.122,-0.385 0.381,-0.7 0.576,-0.7 0.194,0 0.353,-0.36 0.353,-0.8 0,-0.44 0.18,-0.8 0.4,-0.8 0.22,0 0.4,-0.345 0.4,-0.767 0,-0.421 0.135,-0.826 0.3,-0.9 0.448,-0.199 1.429,-1.991 4.124,-7.533 1.337,-2.75 2.599,-5.313 2.804,-5.695 0.205,-0.382 0.372,-0.967 0.372,-1.3 0,-0.333 0.18,-0.605 0.4,-0.605 0.22,0 0.4,-0.45 0.4,-1 0,-0.55 0.18,-1 0.4,-1 0.22,0 0.4,-0.36 0.4,-0.8 0,-0.44 0.18,-0.8 0.4,-0.8 0.22,0 0.4,-0.36 0.4,-0.8 0,-0.44 0.18,-0.8 0.4,-0.8 0.22,0 0.4,-0.349 0.4,-0.776 0,-0.427 0.18,-0.888 0.4,-1.024 0.22,-0.136 0.4,-0.687 0.4,-1.224 0,-0.537 0.18,-0.976 0.4,-0.976 0.22,0 0.4,-0.36 0.4,-0.8 0,-0.44 0.18,-0.8 0.4,-0.8 0.22,0 0.4,-0.45 0.4,-1 0,-0.55 0.18,-1 0.4,-1 0.22,0 0.4,-0.349 0.4,-0.776 0,-0.427 0.18,-0.888 0.4,-1.024 0.22,-0.136 0.4,-0.687 0.4,-1.224 0,-0.537 0.18,-0.976 0.4,-0.976 0.22,0 0.4,-0.349 0.4,-0.776 0,-0.427 0.18,-0.888 0.4,-1.024 0.22,-0.136 0.4,-0.687 0.4,-1.224 0,-0.537 0.18,-0.976 0.4,-0.976 0.22,0 0.4,-0.362 0.4,-0.805 0,-0.778 0.142,-1.164 1.138,-3.09 0.254,-0.492 0.462,-1.246 0.462,-1.676 0,-0.43 0.18,-0.893 0.4,-1.029 0.22,-0.136 0.4,-0.687 0.4,-1.224 0,-0.537 0.18,-0.976 0.4,-0.976 0.22,0 0.4,-0.362 0.4,-0.805 0,-0.443 0.162,-1.118 0.361,-1.5 0.199,-0.382 0.576,-1.505 0.839,-2.495 0.263,-0.99 0.624,-2.086 0.802,-2.436 0.178,-0.349 0.452,-1.654 0.607,-2.9 0.156,-1.245 0.442,-2.264 0.637,-2.264 0.195,0 0.354,-0.63 0.354,-1.4 0,-0.77 0.18,-1.4 0.4,-1.4 0.22,0 0.4,-0.63 0.4,-1.4 0,-0.77 0.18,-1.4 0.4,-1.4 0.22,0 0.4,-0.542 0.4,-1.205 0,-0.992 0.723,-1.933 4.1,-5.338 3.643,-3.673 6.897,-7.159 11,-11.783 0.715,-0.806 1.3,-1.601 1.3,-1.767 0,-0.166 1.08,-1.399 2.4,-2.739 1.32,-1.341 2.4,-2.607 2.4,-2.813 0,-0.207 0.765,-1.157 1.7,-2.111 1.764,-1.801 1.991,-2.066 4.306,-5.03 0.766,-0.982 1.724,-2.152 2.128,-2.6 0.404,-0.448 1.015,-1.354 1.359,-2.014 0.344,-0.66 0.959,-1.491 1.366,-1.847 0.408,-0.356 0.741,-0.824 0.741,-1.041 0,-0.216 0.54,-0.958 1.2,-1.649 0.66,-0.691 1.2,-1.411 1.2,-1.6 0,-0.189 0.54,-0.909 1.2,-1.6 0.66,-0.691 1.2,-1.437 1.2,-1.659 0,-0.222 0.141,-0.404 0.314,-0.404 0.172,0 0.607,-0.495 0.965,-1.1 0.358,-0.605 1.117,-1.64 1.686,-2.3 0.569,-0.66 1.034,-1.425 1.035,-1.7 0,-0.275 0.15,-0.5 0.332,-0.5 0.183,0 0.588,-0.495 0.9,-1.1 0.313,-0.605 0.883,-1.449 1.268,-1.875 0.385,-0.427 0.7,-1.012 0.7,-1.3 0,-0.289 0.15,-0.525 0.332,-0.525 0.183,0 0.588,-0.495 0.9,-1.1 0.313,-0.605 0.793,-1.338 1.068,-1.629 0.275,-0.29 0.5,-0.836 0.5,-1.211 0,-0.376 0.36,-0.943 0.8,-1.26 0.44,-0.317 0.8,-0.807 0.8,-1.088 0,-0.282 0.18,-0.512 0.4,-0.512 0.22,0 0.4,-0.27 0.4,-0.6 0,-0.33 0.18,-0.6 0.4,-0.6 0.22,0 0.4,-0.27 0.4,-0.6 0,-0.33 0.18,-0.6 0.4,-0.6 0.22,0 0.4,-0.32 0.4,-0.712 0,-0.391 0.36,-0.971 0.8,-1.288 0.44,-0.317 0.8,-0.897 0.8,-1.288 0,-0.392 0.18,-0.712 0.4,-0.712 0.22,0 0.4,-0.32 0.4,-0.712 0,-0.391 0.36,-0.971 0.8,-1.288 0.44,-0.317 0.8,-0.897 0.8,-1.288 0,-0.392 0.18,-0.712 0.4,-0.712 0.22,0 0.4,-0.32 0.4,-0.712 0,-0.391 0.36,-0.971 0.8,-1.288 0.44,-0.317 0.8,-0.897 0.8,-1.288 0,-0.392 0.136,-0.712 0.302,-0.712 0.167,0 0.556,-0.585 0.866,-1.3 0.309,-0.715 1.04,-2.02 1.624,-2.9 0.584,-0.88 1.409,-2.32 1.835,-3.2 l 0.773,-1.6 0.122,1.9 c 0.067,1.045 0.292,1.9 0.5,1.9 0.208,0 0.378,0.504 0.378,1.12 0,1.216 0.816,3.272 1.3,3.277 0.165,0.002 0.3,0.335 0.3,0.742 0,0.406 0.358,1.171 0.794,1.7 0.437,0.528 1.202,1.451 1.7,2.049 0.499,0.598 1.091,1.093 1.318,1.1 0.226,0.007 0.671,0.372 0.988,0.812 0.317,0.44 0.897,0.8 1.288,0.8 0.392,0 0.712,0.18 0.712,0.4 0,0.22 0.36,0.4 0.8,0.4 0.44,0 0.8,0.18 0.8,0.4 0,0.22 0.72,0.4 1.6,0.4 0.88,0 1.6,0.18 1.6,0.4 0,0.235 1.4,0.4 3.4,0.4 2,0 3.4,-0.165 3.4,-0.4 0,-0.22 0.619,-0.4 1.376,-0.4 0.757,0 1.488,-0.18 1.624,-0.4 0.136,-0.22 0.597,-0.4 1.024,-0.4 0.427,0 0.776,-0.18 0.776,-0.4 0,-0.22 0.277,-0.4 0.616,-0.4 2.068,0 7.346,-7.071 7.678,-10.287 0.12,-1.162 0.373,-2.113 0.562,-2.113 0.189,0 0.344,-16.16 0.344,-35.976 0,-23.553 0.138,-36.062 0.4,-36.224 0.243,-0.15 0.4,-3.071 0.4,-7.424 0,-4.517 0.148,-7.176 0.4,-7.176 0.246,0 0.4,-2 0.4,-5.2 0,-3.2 0.154,-5.2 0.4,-5.2 0.241,0 0.4,-1.667 0.4,-4.2 0,-2.533 0.159,-4.2 0.4,-4.2 0.24,0 0.4,-1.6 0.4,-4 0,-2.4 0.16,-4 0.4,-4 0.235,0 0.4,-1.4 0.4,-3.4 0,-2 0.165,-3.4 0.4,-3.4 0.233,0 0.4,-1.333 0.4,-3.2 0,-1.867 0.167,-3.2 0.4,-3.2 0.233,0 0.4,-1.325 0.4,-3.176 0,-1.747 0.18,-3.288 0.4,-3.424 0.22,-0.136 0.4,-1.842 0.4,-3.79 0,-2.143 0.168,-3.599 0.425,-3.685 0.286,-0.095 0.449,-4.534 0.5,-13.618 L 399.8,2.03 398.888,1.115 C 398.051,0.275 397.623,0.2 393.688,0.2 H 389.4 l -49.28,49.3 c -50.17,50.19 -49.72,49.749 -49.72,48.695 0,-0.588 -0.167,-1.013 -1.138,-2.89 -0.254,-0.492 -0.462,-1.257 -0.462,-1.7 0,-0.443 -0.18,-0.805 -0.4,-0.805 -0.22,0 -0.4,-0.36 -0.4,-0.8 0,-0.44 -0.18,-0.8 -0.4,-0.8 -0.22,0 -0.4,-0.439 -0.4,-0.976 0,-0.537 -0.18,-1.088 -0.4,-1.224 -0.22,-0.136 -0.4,-0.597 -0.4,-1.024 0,-0.427 -0.18,-0.776 -0.4,-0.776 -0.22,0 -0.4,-0.36 -0.4,-0.8 0,-0.44 -0.18,-0.8 -0.4,-0.8 -0.22,0 -0.4,-0.36 -0.4,-0.8 0,-0.44 -0.18,-0.8 -0.4,-0.8 -0.22,0 -0.4,-0.36 -0.4,-0.8 0,-0.44 -0.18,-0.8 -0.4,-0.8 -0.22,0 -0.4,-0.36 -0.4,-0.8 0,-0.44 -0.18,-0.8 -0.4,-0.8 -0.22,0 -0.4,-0.36 -0.4,-0.8 0,-0.44 -0.18,-0.8 -0.4,-0.8 -0.22,0 -0.4,-0.36 -0.4,-0.8 0,-0.44 -0.18,-0.8 -0.4,-0.8 -0.22,0 -0.4,-0.27 -0.4,-0.6 0,-0.33 -0.18,-0.6 -0.4,-0.6 -0.22,0 -0.4,-0.36 -0.4,-0.8 0,-0.44 -0.18,-0.8 -0.4,-0.8 -0.22,0 -0.4,-0.36 -0.4,-0.8 0,-0.44 -0.18,-0.8 -0.4,-0.8 -0.22,0 -0.4,-0.36 -0.4,-0.8 0,-0.44 -0.18,-0.8 -0.4,-0.8 -0.22,0 -0.4,-0.27 -0.4,-0.6 0,-0.33 -0.18,-0.6 -0.4,-0.6 -0.22,0 -0.4,-0.27 -0.4,-0.6 0,-0.33 -0.18,-0.6 -0.4,-0.6 -0.22,0 -0.4,-0.36 -0.4,-0.8 0,-0.44 -0.18,-0.8 -0.4,-0.8 -0.22,0 -0.4,-0.226 -0.4,-0.503 0,-0.627 -5.065,-8.263 -6.066,-9.144 -0.404,-0.356 -0.734,-0.852 -0.734,-1.104 0,-0.251 -0.54,-1.021 -1.2,-1.712 -0.66,-0.691 -1.2,-1.427 -1.2,-1.636 0,-0.209 -0.54,-0.884 -1.2,-1.501 -0.66,-0.617 -1.2,-1.319 -1.2,-1.56 0,-0.242 -0.18,-0.44 -0.4,-0.44 -0.22,0 -0.4,-0.194 -0.4,-0.431 0,-0.238 -0.675,-1.093 -1.5,-1.9 -0.825,-0.808 -1.994,-2.131 -2.598,-2.939 -1.471,-1.97 -11.052,-11.53 -11.555,-11.53 -0.22,0 -1.276,-0.9 -2.347,-2 -1.071,-1.1 -2.066,-2 -2.21,-2 -0.145,0 -0.999,-0.63 -1.898,-1.4 -0.9,-0.77 -1.785,-1.4 -1.968,-1.4 -0.182,0 -0.896,-0.54 -1.587,-1.2 -0.691,-0.66 -1.459,-1.2 -1.708,-1.2 -0.249,0 -0.712,-0.36 -1.029,-0.8 -0.317,-0.44 -0.857,-0.8 -1.2,-0.8 -0.343,0 -0.883,-0.36 -1.2,-0.8 -0.317,-0.44 -0.857,-0.8 -1.2,-0.8 -0.343,0 -0.883,-0.36 -1.2,-0.8 -0.317,-0.44 -0.897,-0.8 -1.288,-0.8 -0.392,0 -0.712,-0.18 -0.712,-0.4 0,-0.22 -0.236,-0.4 -0.525,-0.4 -0.288,0 -0.873,-0.325 -1.3,-0.722 -0.426,-0.398 -1.36,-0.981 -2.075,-1.298 -0.715,-0.316 -1.3,-0.711 -1.3,-0.878 0,-0.166 -0.36,-0.302 -0.8,-0.302 -0.44,0 -0.8,-0.18 -0.8,-0.4 0,-0.22 -0.36,-0.4 -0.8,-0.4 -0.44,0 -0.8,-0.18 -0.8,-0.4 0,-0.22 -0.36,-0.4 -0.8,-0.4 -0.44,0 -0.8,-0.18 -0.8,-0.4 0,-0.22 -0.36,-0.4 -0.8,-0.4 -0.44,0 -0.8,-0.18 -0.8,-0.4 0,-0.22 -0.36,-0.4 -0.8,-0.4 -0.44,0 -0.8,-0.18 -0.8,-0.4 0,-0.22 -0.249,-0.4 -0.554,-0.4 -0.305,0 -1.07,-0.269 -1.7,-0.598 -0.63,-0.328 -1.456,-0.598 -1.834,-0.6 C 209.934,10.001 208.983,9.64 208.2,9.2 207.417,8.76 206.421,8.4 205.988,8.4 205.555,8.4 205.2,8.22 205.2,8 c 0,-0.22 -0.349,-0.4 -0.776,-0.4 -0.427,0 -0.888,-0.18 -1.024,-0.4 -0.136,-0.22 -0.676,-0.4 -1.2,-0.4 -0.524,0 -1.064,-0.18 -1.2,-0.4 -0.136,-0.22 -0.676,-0.4 -1.2,-0.4 -0.524,0 -1.064,-0.18 -1.2,-0.4 -0.136,-0.22 -0.867,-0.4 -1.624,-0.4 -1.109,0 -1.376,-0.155 -1.376,-0.8 0,-0.44 -0.18,-0.8 -0.4,-0.8 -0.22,0 -0.4,-0.278 -0.4,-0.618 0,-0.34 -0.487,-1.105 -1.082,-1.7 L 192.637,0.2 157.157,0.094 121.678,-0.013 120.039,1.562 m 62.928,10.281 c 0.562,0.215 0.633,1.964 0.633,15.592 v 15.35 l -0.9,0.218 c -0.495,0.12 -12.42,0.168 -26.5,0.107 L 130.6,43 130.495,27.801 c -0.058,-8.359 -0.018,-15.424 0.088,-15.7 0.202,-0.528 51.027,-0.779 52.384,-0.258 m -60.925,53.788 c -4.365,2.661 -4.394,7.555 -0.058,9.848 l 1.742,0.921 33.237,-0.019 c 30.472,-0.018 33.351,-0.076 34.602,-0.7 4.345,-2.168 4.192,-8.439 -0.252,-10.333 -2.46,-1.048 -67.524,-0.782 -69.271,0.283 M 59.2,129.866 c -11.414,1.798 -18.4,5.524 -18.4,9.813 0,4.985 4.462,6.949 10.003,4.403 6.608,-3.035 12.135,-3.541 23.197,-2.123 1.65,0.211 4.53,0.583 6.4,0.827 1.87,0.244 4.93,0.627 6.8,0.853 1.87,0.225 4.705,0.579 6.3,0.785 6.962,0.902 9.302,1.197 12.5,1.576 3.041,0.36 4.794,0.578 11.2,1.389 0.99,0.126 3.33,0.414 5.2,0.641 7.905,0.958 12.512,2.434 16.593,5.315 4.243,2.995 9.944,-0.968 8.811,-6.126 -0.543,-2.471 -5.727,-5.976 -11.804,-7.979 -4.635,-1.528 -5.043,-1.64 -6.004,-1.64 -0.521,0 -1.949,-0.175 -3.172,-0.389 -1.223,-0.214 -3.798,-0.577 -5.723,-0.808 -8.104,-0.969 -11.152,-1.356 -18.701,-2.373 -1.65,-0.222 -4.8,-0.6 -7,-0.84 -2.2,-0.24 -5.17,-0.597 -6.6,-0.794 -17.731,-2.445 -25.775,-3.132 -29.6,-2.53 m 1.6,21.573 c -14.573,2.635 -20.558,15.88 -16.188,35.832 5.734,26.189 33.394,43.27 59.188,36.551 20.781,-5.412 34.993,-22.11 36.96,-43.422 0.774,-8.396 -1.868,-14.796 -7.751,-18.775 -3.173,-2.146 -4.8,-2.541 -16.609,-4.039 -1.87,-0.238 -4.375,-0.601 -5.567,-0.809 -1.191,-0.207 -2.891,-0.377 -3.776,-0.377 -0.885,0 -2.61,-0.173 -3.833,-0.385 -1.223,-0.212 -3.709,-0.572 -5.524,-0.8 -6.693,-0.842 -9.584,-1.201 -13.1,-1.627 -7.785,-0.944 -10.092,-1.24 -12.4,-1.59 -2.993,-0.454 -10.062,-0.8 -11.4,-0.559 m -39.297,37.873 0.103,26.313 -4.903,-0.113 L 11.8,215.4 11.69,190 c -0.061,-13.97 -0.011,-25.811 0.11,-26.313 0.217,-0.894 0.317,-0.91 4.911,-0.8 L 21.4,163 21.503,189.312 M 71.4,163.591 c 1.32,0.202 4.2,0.566 6.4,0.808 2.2,0.242 5.08,0.599 6.4,0.794 2.321,0.342 5.569,0.751 12.9,1.624 1.925,0.229 4.67,0.579 6.1,0.777 1.43,0.198 4.4,0.559 6.6,0.803 13.097,1.45 15.775,1.983 17.416,3.465 2.647,2.391 2.826,7.674 0.522,15.331 -9.672,32.148 -53.998,35.782 -68.946,5.654 -4.773,-9.62 -5.427,-23.466 -1.291,-27.324 2.907,-2.711 6,-3.141 13.899,-1.932 m 137.127,18.873 -16.473,16.462 -1.011,-1.202 c -4.739,-5.631 -8.271,-20.235 -5.884,-24.324 1.477,-2.529 3.125,-3.078 12.641,-4.212 1.98,-0.235 4.86,-0.593 6.4,-0.795 4.598,-0.604 14.783,-1.87 17.2,-2.139 3.988,-0.445 4.733,-1.384 -12.873,16.21 m 41.132,-0.691 c 5.269,1.599 9.141,6.186 9.141,10.83 0,13.221 10.993,21.317 24.8,18.265 5.095,-1.126 6.465,-1.348 9.495,-1.541 4.604,-0.292 7.018,1.139 8.804,5.219 0.771,1.764 0.377,8.825 -0.644,11.528 -0.593,1.567 -7.955,9.398 -23.616,25.121 -6.248,6.273 -11.692,11.945 -12.098,12.605 -1.443,2.346 -0.366,6.346 2.043,7.592 2.408,1.245 4.602,0.795 7.899,-1.62 0.867,-0.635 0.876,-0.626 0.536,0.491 -1.536,5.038 -4.916,14.139 -6.798,18.305 -0.406,0.897 -1.223,2.802 -1.816,4.232 -0.593,1.43 -2.676,5.84 -4.63,9.8 -3.214,6.516 -4.424,8.811 -7.114,13.5 -0.474,0.825 -1.211,2.118 -1.639,2.873 -7.477,13.195 -20.555,29.732 -31.822,40.238 -25.991,24.236 -55.657,33.931 -83.1,27.159 -7.275,-1.795 -11.37,-3.292 -19.7,-7.199 -4.15,-1.947 -12.982,-7.37 -13.581,-8.34 -0.175,-0.284 3.219,-4.765 4.568,-6.031 0.117,-0.11 1.203,-1.37 2.413,-2.8 1.21,-1.43 2.588,-3.05 3.063,-3.6 0.474,-0.55 6.216,-7.3 12.758,-15 6.543,-7.7 12.662,-14.9 13.598,-16 0.936,-1.1 5.545,-6.512 10.242,-12.027 4.696,-5.515 9.349,-10.999 10.339,-12.186 8.675,-10.401 10.032,-11.393 15.572,-11.377 3.525,0.01 5.964,0.787 7.871,2.507 0.416,0.376 3.007,2.389 5.757,4.475 11.068,8.393 17.431,13.239 18.003,13.711 8.696,7.163 11.439,8.395 14.997,6.731 2.515,-1.176 30.359,-29.364 31.002,-31.385 1.419,-4.46 -3.67,-8.701 -7.836,-6.53 -0.641,0.334 -6.774,6.204 -13.628,13.044 -6.854,6.84 -12.645,12.437 -12.869,12.437 -0.224,0 -1.277,-0.664 -2.338,-1.475 -2.944,-2.249 -10.953,-8.322 -16.531,-12.534 -2.75,-2.077 -5.09,-3.878 -5.2,-4.003 -0.11,-0.124 -0.83,-0.659 -1.6,-1.188 -0.77,-0.529 -1.49,-1.077 -1.6,-1.219 -2.818,-3.628 -12.833,-6.827 -18.745,-5.989 -7.696,1.092 -11.166,3.431 -19.586,13.208 l -1.206,1.4 -10.432,-10.448 C 138.694,278.806 134,273.945 134,273.751 c 0,-0.194 19.587,-19.939 43.527,-43.878 47.894,-47.892 43.186,-43.617 49.273,-44.741 2.895,-0.534 4.733,-0.893 8.6,-1.679 1.76,-0.358 4.19,-0.845 5.4,-1.082 1.21,-0.237 2.74,-0.579 3.4,-0.76 1.837,-0.504 3.419,-0.457 5.459,0.162 m 120.376,12.496 c -1.835,1.39 -4.035,3.608 -4.035,4.069 0,0.254 -0.15,0.462 -0.332,0.462 -0.183,0 -0.588,0.495 -0.9,1.1 -0.312,0.605 -0.657,1.19 -0.767,1.3 -0.462,0.46 -2.001,3.72 -2.001,4.238 0,0.309 -0.18,0.562 -0.4,0.562 -0.22,0 -0.4,0.249 -0.4,0.554 0,0.305 -0.269,1.07 -0.598,1.7 -0.328,0.63 -0.598,1.641 -0.6,2.246 -0.001,0.605 -0.182,1.1 -0.402,1.1 -0.22,0 -0.4,0.54 -0.4,1.2 0,0.66 -0.18,1.2 -0.4,1.2 -0.22,0 -0.4,0.81 -0.4,1.8 0,0.99 -0.18,1.8 -0.4,1.8 -0.237,0 -0.4,1.459 -0.4,3.576 0,1.967 0.18,3.688 0.4,3.824 0.22,0.136 0.4,0.777 0.4,1.424 0,0.647 0.18,1.176 0.4,1.176 0.22,0 0.4,0.36 0.4,0.8 0,0.44 0.158,0.8 0.35,0.8 0.193,0 0.45,0.502 0.573,1.116 0.33,1.649 4.763,6.084 6.082,6.084 0.327,0 0.595,0.18 0.595,0.4 0,0.22 0.36,0.4 0.8,0.4 0.44,0 0.8,0.18 0.8,0.4 0,0.22 0.529,0.4 1.176,0.4 0.647,0 1.288,0.18 1.424,0.4 0.136,0.221 1.93,0.4 4,0.4 2.07,0 3.864,-0.179 4,-0.4 0.136,-0.22 0.777,-0.4 1.424,-0.4 0.647,0 1.176,-0.18 1.176,-0.4 0,-0.22 0.36,-0.4 0.8,-0.4 0.44,0 0.8,-0.18 0.8,-0.4 0,-0.22 0.278,-0.4 0.618,-0.4 0.34,0 1.038,-0.405 1.55,-0.9 0.512,-0.495 1.269,-1.186 1.682,-1.535 2.458,-2.081 4.55,-5.879 4.55,-8.262 0,-0.937 0.18,-1.703 0.4,-1.703 0.229,0 0.4,-1.2 0.4,-2.8 0,-1.54 -0.154,-2.8 -0.342,-2.8 -0.188,0 -0.45,-1.288 -0.582,-2.862 -0.132,-1.574 -0.428,-3.05 -0.658,-3.28 -0.23,-0.23 -0.418,-0.832 -0.418,-1.338 0,-0.506 -0.18,-0.92 -0.4,-0.92 -0.22,0 -0.4,-0.439 -0.4,-0.976 0,-0.537 -0.18,-1.088 -0.4,-1.224 -0.22,-0.136 -0.4,-0.597 -0.4,-1.024 0,-0.427 -0.18,-0.776 -0.4,-0.776 -0.22,0 -0.4,-0.36 -0.4,-0.8 0,-0.44 -0.18,-0.8 -0.4,-0.8 -0.22,0 -0.4,-0.36 -0.4,-0.8 0,-0.44 -0.18,-0.8 -0.4,-0.8 -0.22,0 -0.4,-0.36 -0.4,-0.8 0,-0.44 -0.18,-0.8 -0.4,-0.8 -0.22,0 -0.4,-0.27 -0.4,-0.6 0,-0.33 -0.18,-0.6 -0.4,-0.6 -0.22,0 -0.4,-0.23 -0.4,-0.512 0,-0.281 -0.36,-0.771 -0.8,-1.088 -0.44,-0.317 -0.802,-0.762 -0.804,-0.988 -0.002,-0.227 -0.573,-0.862 -1.27,-1.412 -0.697,-0.55 -1.535,-1.268 -1.864,-1.596 -0.985,-0.983 -8.769,-1.088 -10.027,-0.135 m 6.68,16.864 c 4.448,9.948 3.78,14.867 -2.018,14.867 -5.314,0 -5.867,-5.79 -1.444,-15.1 1.504,-3.165 1.956,-3.135 3.462,0.233 M 340.4,236.8 c 0,0.22 -0.54,0.4 -1.2,0.4 -0.66,0 -1.2,0.18 -1.2,0.4 0,0.22 -0.274,0.4 -0.609,0.4 -0.636,0 -4.991,4.126 -4.991,4.729 0,0.191 -0.36,0.673 -0.8,1.071 -0.44,0.398 -0.8,0.966 -0.8,1.262 0,0.296 -0.159,0.538 -0.352,0.538 -0.447,0 -3.248,5.632 -3.248,6.53 0,0.368 -0.18,0.67 -0.4,0.67 -0.22,0 -0.4,0.439 -0.4,0.976 0,0.537 -0.18,1.088 -0.4,1.224 -0.22,0.136 -0.4,0.597 -0.4,1.024 0,0.427 -0.18,0.776 -0.4,0.776 -0.22,0 -0.4,0.54 -0.4,1.2 0,0.66 -0.18,1.2 -0.4,1.2 -0.22,0 -0.4,0.45 -0.4,1 0,0.55 -0.18,1 -0.4,1 -0.22,0 -0.4,0.529 -0.4,1.176 0,0.647 -0.18,1.288 -0.4,1.424 -0.22,0.136 -0.4,1.047 -0.4,2.024 0,0.977 -0.18,1.776 -0.4,1.776 -0.241,0 -0.4,1.667 -0.4,4.2 0,2.533 0.159,4.2 0.4,4.2 0.22,0 0.4,0.72 0.4,1.6 0,0.88 0.18,1.6 0.4,1.6 0.22,0 0.4,0.36 0.4,0.8 0,0.44 0.18,0.8 0.4,0.8 0.22,0 0.4,0.36 0.4,0.8 0,0.44 0.18,0.8 0.4,0.8 0.22,0 0.4,0.288 0.4,0.64 0,0.351 0.54,1.143 1.2,1.76 0.66,0.617 1.2,1.296 1.2,1.511 0,1.198 6.384,5.289 8.255,5.289 0.494,0 1.009,0.18 1.145,0.4 0.305,0.494 11.263,0.545 11.567,0.054 0.117,-0.19 0.861,-0.451 1.653,-0.58 1.696,-0.275 3.78,-1.142 3.78,-1.572 0,-0.166 0.252,-0.302 0.559,-0.302 0.308,0 1.433,-0.894 2.5,-1.986 3.141,-3.213 3.741,-3.951 3.741,-4.6 0,-0.338 0.18,-0.614 0.4,-0.614 0.22,0 0.4,-0.36 0.4,-0.8 0,-0.44 0.18,-0.8 0.4,-0.8 0.22,0 0.4,-0.54 0.4,-1.2 0,-0.66 0.18,-1.2 0.4,-1.2 0.22,0 0.4,-0.72 0.4,-1.6 0,-0.88 0.18,-1.6 0.4,-1.6 0.235,0 0.4,-1.4 0.4,-3.4 0,-2 -0.165,-3.4 -0.4,-3.4 -0.22,0 -0.4,-0.9 -0.4,-2 0,-1.1 -0.18,-2 -0.4,-2 -0.22,0 -0.4,-0.63 -0.4,-1.4 0,-0.77 -0.18,-1.4 -0.4,-1.4 -0.22,0 -0.4,-0.54 -0.4,-1.2 0,-0.66 -0.18,-1.2 -0.4,-1.2 -0.22,0 -0.4,-0.439 -0.4,-0.976 0,-0.537 -0.18,-1.088 -0.4,-1.224 -0.22,-0.136 -0.4,-0.597 -0.4,-1.024 0,-0.427 -0.16,-0.776 -0.355,-0.776 -0.196,0 -0.48,-0.663 -0.632,-1.473 -0.401,-2.134 -3.724,-8.487 -5.113,-9.773 -0.385,-0.356 -0.7,-0.823 -0.7,-1.037 0,-0.597 -3.26,-3.846 -4.5,-4.485 -0.605,-0.312 -1.1,-0.717 -1.1,-0.9 0,-0.182 -0.54,-0.332 -1.2,-0.332 -0.66,0 -1.2,-0.18 -1.2,-0.4 0,-0.22 -0.99,-0.4 -2.2,-0.4 -1.21,0 -2.2,0.18 -2.2,0.4 m 5.562,19.4 c 6.386,12.972 6.492,20.349 0.334,23.216 -6.143,2.86 -12.124,-1.03 -12.017,-7.816 0.071,-4.503 4.098,-15.474 7.364,-20.06 l 0.88,-1.237 0.735,0.949 c 0.404,0.521 1.621,2.748 2.704,4.948 m -178.206,-2.427 c -5.185,2.257 -4.852,6.391 0.985,12.212 4.611,4.597 7.536,5.277 10.396,2.417 2.811,-2.811 2.158,-5.513 -2.495,-10.322 -4.543,-4.696 -6.175,-5.487 -8.886,-4.307 m -30.786,39.375 10.37,10.398 -1.57,1.917 c -0.863,1.054 -2.74,3.283 -4.17,4.952 -1.43,1.669 -3.41,4.007 -4.4,5.195 -1.927,2.314 -4.465,5.262 -4.811,5.59 -0.117,0.11 -2.181,2.54 -4.588,5.4 -2.407,2.86 -4.771,5.65 -5.254,6.2 -0.781,0.891 -12.519,14.711 -17.307,20.378 -1.012,1.198 -2.65,3.1 -3.64,4.226 -0.99,1.127 -5.04,5.887 -9,10.579 -3.96,4.691 -7.383,8.729 -7.606,8.973 -0.223,0.244 -1.386,1.614 -2.585,3.044 -4.822,5.753 -6.158,6.803 -10.009,7.867 -3.771,1.042 -7.142,0.506 -10.6,-1.685 -2.534,-1.606 -12.69,-11.985 -13.512,-13.809 -1.924,-4.269 -1.958,-7.973 -0.107,-11.793 1.524,-3.147 76.779,-78.747 77.812,-78.169 0.334,0.186 5.274,5.018 10.977,10.737 m -19.754,15.9 c -2.314,1.947 -3.032,4.608 -1.854,6.872 2.503,4.811 9.173,4.328 10.702,-0.775 1.52,-5.076 -4.847,-9.464 -8.848,-6.097 M 75.8,351.285 c -6.386,2.2 -5.037,11.115 1.683,11.115 6.186,0 7.647,-9.346 1.717,-10.987 -1.91,-0.528 -2.207,-0.54 -3.4,-0.128"
       stroke="none"
       fill="#060505"
       fill-rule="evenodd" />
    <path
       id="path1"
       d="m 242.2,182.617 c -1.54,0.329 -6.04,1.231 -10,2.003 -3.96,0.772 -8.01,1.602 -9,1.844 -1.675,0.41 -4.818,3.455 -45.258,43.846 l -43.459,43.405 10.186,10.243 10.185,10.242 1.009,-1.2 c 5.521,-6.569 9.579,-10.134 12.937,-11.367 0.77,-0.282 1.76,-0.652 2.2,-0.82 3.039,-1.163 9.161,-1.615 11.64,-0.86 0.638,0.195 1.97,0.587 2.96,0.872 3.274,0.943 6.116,2.628 11.004,6.525 1.138,0.908 3.191,2.451 4.564,3.43 1.372,0.979 2.825,2.059 3.229,2.4 1.707,1.439 2.275,1.881 3.603,2.806 0.77,0.537 1.49,1.074 1.6,1.195 0.11,0.12 0.83,0.661 1.6,1.201 0.77,0.54 1.58,1.123 1.8,1.294 0.22,0.172 0.94,0.734 1.6,1.25 4.728,3.695 6.635,5.074 7.018,5.074 0.242,0 5.873,-5.445 12.514,-12.1 6.64,-6.655 12.597,-12.438 13.236,-12.852 1.297,-0.839 5.217,-1.023 5.96,-0.28 0.909,0.909 1.817,0.276 6.924,-4.82 l 5.263,-5.252 -0.749,-1.648 c -1.742,-3.837 -1.384,-4.377 11.482,-17.293 20.775,-20.855 24.392,-24.893 24.74,-27.625 0.136,-1.061 0.437,-3.044 0.67,-4.405 0.673,-3.933 -1.882,-9.325 -4.418,-9.325 -0.374,0 -0.878,-0.198 -1.119,-0.439 -0.475,-0.475 -3.345,-0.305 -6.721,0.397 -8.259,1.718 -11.282,2.106 -14.167,1.819 -2.645,-0.263 -3.36,-0.477 -6.432,-1.928 -5.881,-2.776 -10.401,-9.886 -10.401,-16.359 0,-2.146 -0.15,-2.733 -1.491,-5.824 -2.025,-4.668 -8.005,-6.883 -14.709,-5.449 m -70.08,70.824 c 1.561,0.782 7.718,6.744 8.509,8.239 2.994,5.662 -3.814,11.246 -9.197,7.542 -3.084,-2.122 -7.329,-7.026 -7.631,-8.817 -0.891,-5.273 3.82,-9.217 8.319,-6.964"
       stroke="none"
       fill="#d0e3ed"
       fill-rule="evenodd" />
    <path
       id="path2"
       d="m 112.8,20.21 c -2.53,0.977 -4.96,1.939 -5.4,2.136 -2.213,0.991 -8.025,3.862 -8.2,4.05 -0.11,0.118 -1.1,0.662 -2.2,1.209 -1.1,0.547 -2.06,1.13 -2.133,1.295 -0.074,0.165 -0.305,0.3 -0.514,0.3 -0.844,0 -14.178,9.401 -16.288,11.484 -0.294,0.291 -1.194,1.019 -2,1.62 -0.806,0.6 -1.555,1.19 -1.665,1.31 -0.642,0.701 -3.253,1.073 -4.485,0.639 C 68.311,43.688 66,42.329 66,41.951 c 0,-0.152 -0.354,-0.184 -0.786,-0.071 -0.432,0.113 -0.747,0.329 -0.7,0.48 0.047,0.15 -0.949,1.285 -2.214,2.522 -1.265,1.237 -2.3,2.366 -2.3,2.509 0,0.144 -0.855,1.106 -1.9,2.139 -3.132,3.095 -3.086,2.966 -1.604,4.588 2.133,2.335 2.841,7.882 1.007,7.882 -0.167,0 -0.303,0.236 -0.303,0.525 0,0.288 -0.364,0.915 -0.808,1.392 -0.844,0.906 -8.071,11.837 -8.518,12.883 -0.141,0.33 -0.795,1.5 -1.454,2.6 -1.217,2.031 -5.29,10.119 -6.748,13.4 -2.387,5.372 -4.526,11.285 -8.473,23.428 -0.219,0.676 -0.399,1.61 -0.399,2.077 0,0.466 -0.16,0.947 -0.356,1.068 -0.195,0.121 -0.452,0.806 -0.571,1.523 -0.118,0.717 -0.418,2.114 -0.666,3.104 -0.787,3.144 -1.252,5.353 -1.474,7 -0.118,0.88 -0.377,1.771 -0.574,1.98 -0.197,0.209 -0.359,1.208 -0.359,2.22 0,1.012 -0.163,2.011 -0.363,2.22 -0.2,0.209 -0.464,1.28 -0.588,2.38 -0.575,5.119 -1.028,8.492 -1.274,9.5 -0.266,1.093 -0.254,1.1 1.794,1.1 3.524,0 6.366,1.977 7.19,5 0.621,2.278 0.612,65.166 -0.01,67.635 -0.549,2.182 -3.066,4.565 -4.821,4.565 -1.173,0 -1.716,2.421 -0.767,3.42 0.199,0.209 0.456,1.19 0.571,2.18 0.116,0.99 0.403,2.655 0.639,3.7 0.236,1.045 0.599,2.665 0.806,3.6 0.691,3.118 1.207,5.285 1.644,6.9 0.238,0.88 0.583,2.23 0.767,3 1.237,5.172 5.729,20.073 6.419,21.295 0.216,0.382 0.393,1.046 0.393,1.476 0,0.43 0.18,0.893 0.4,1.029 0.22,0.136 0.4,0.687 0.4,1.224 0,0.537 0.141,0.976 0.313,0.976 0.172,0 0.562,0.855 0.867,1.9 0.305,1.045 0.683,2.17 0.841,2.5 0.382,0.801 1.216,2.809 1.579,3.8 0.494,1.348 1.061,2.715 1.949,4.7 0.468,1.045 1.184,2.665 1.591,3.6 1.167,2.683 10.153,20.878 10.421,21.1 0.132,0.11 0.51,0.74 0.839,1.4 0.329,0.66 0.689,1.29 0.799,1.4 0.396,0.394 1.655,2.613 1.872,3.3 0.122,0.385 0.381,0.7 0.576,0.7 0.194,0 0.353,0.193 0.353,0.428 0,0.332 1.854,3.347 2.672,4.346 0.181,0.221 118.117,-117.668 118.123,-118.076 0.003,-0.166 -1.038,-1.876 -2.313,-3.8 -1.275,-1.924 -2.735,-4.398 -3.244,-5.498 -0.509,-1.1 -1.086,-2.313 -1.282,-2.695 -0.196,-0.382 -0.356,-0.967 -0.356,-1.3 0,-0.333 -0.16,-0.605 -0.355,-0.605 -0.195,0 -0.45,-0.495 -0.567,-1.1 -0.117,-0.605 -0.421,-1.82 -0.675,-2.7 -1.062,-3.667 -1.304,-5.492 -1.478,-11.146 -0.124,-4.009 -0.031,-6.354 0.287,-7.2 0.764,-2.036 2.165,-4.844 2.488,-4.987 0.165,-0.074 0.3,-0.345 0.3,-0.603 0,-1.413 6.963,-6.664 8.838,-6.664 0.419,0 0.762,-0.162 0.762,-0.36 0,-0.198 0.855,-0.464 1.9,-0.592 1.045,-0.127 3.43,-0.427 5.3,-0.665 1.87,-0.238 4.66,-0.589 6.2,-0.78 1.54,-0.19 4.33,-0.544 6.2,-0.786 6.434,-0.833 9.408,-1.21 12.6,-1.598 3.162,-0.385 5.969,-0.746 12.6,-1.622 1.87,-0.248 4.57,-0.547 6,-0.666 l 2.6,-0.215 5.2,-5.191 5.2,-5.19 -2.4,0.257 c -1.32,0.141 -3.66,0.422 -5.2,0.624 -1.54,0.202 -4.42,0.56 -6.4,0.795 -3.481,0.412 -6.525,0.798 -12.4,1.57 -1.54,0.203 -4.42,0.57 -6.4,0.816 -4.746,0.589 -8.961,1.128 -12.4,1.585 -2.802,0.372 -6.797,0.863 -12.8,1.575 -6.018,0.713 -7.868,1.135 -10.896,2.486 -0.932,0.416 -1.765,0.757 -1.851,0.757 -0.086,0 -1.202,0.63 -2.481,1.4 -5.055,3.044 -10.572,0.688 -10.572,-4.513 0,-2.316 1.557,-5.287 2.771,-5.287 0.236,0 0.429,-0.18 0.429,-0.4 0,-0.22 0.27,-0.4 0.6,-0.4 0.33,0 0.6,-0.146 0.6,-0.325 0,-0.179 0.63,-0.573 1.4,-0.875 0.77,-0.302 1.4,-0.696 1.4,-0.875 0,-0.179 0.36,-0.325 0.8,-0.325 0.44,0 0.8,-0.18 0.8,-0.4 0,-0.22 0.349,-0.4 0.776,-0.4 0.427,0 0.888,-0.18 1.024,-0.4 0.136,-0.22 0.599,-0.4 1.029,-0.4 0.43,0 1.094,-0.162 1.476,-0.361 1.273,-0.662 7.281,-2.039 8.893,-2.039 0.653,0 2.405,-0.175 3.895,-0.388 1.489,-0.213 4.237,-0.579 6.107,-0.812 1.87,-0.234 4.66,-0.59 6.2,-0.792 3.838,-0.503 8.171,-1.035 17.8,-2.185 11.992,-1.432 11.955,-1.428 15,-1.818 8.693,-1.114 11.066,-1.35 13.6,-1.358 3.341,-0.009 7.595,0.467 9.047,1.012 0.829,0.312 1.327,0.223 2.4,-0.431 1.528,-0.932 3.835,-1.067 5.838,-0.343 l 1.341,0.485 5.684,-5.684 c 5.172,-5.172 5.639,-5.755 5.187,-6.479 -0.836,-1.34 -0.627,-5.101 0.362,-6.489 l 0.858,-1.206 -1.276,-3.856 c -0.702,-2.121 -1.473,-4.306 -1.712,-4.856 -0.24,-0.55 -0.613,-1.45 -0.829,-2 -0.216,-0.55 -0.552,-1.313 -0.747,-1.695 -0.194,-0.382 -0.353,-0.967 -0.353,-1.3 0,-0.333 -0.18,-0.605 -0.4,-0.605 -0.22,0 -0.4,-0.45 -0.4,-1 0,-0.55 -0.18,-1 -0.4,-1 -0.22,0 -0.4,-0.241 -0.4,-0.535 0,-0.904 -8.286,-16.937 -9.457,-18.296 -0.298,-0.348 -0.543,-0.76 -0.543,-0.916 0,-0.419 -4.879,-7.63 -5.268,-7.786 -0.182,-0.074 -0.332,-0.389 -0.332,-0.7 0,-0.312 -0.18,-0.567 -0.4,-0.567 -0.22,0 -0.4,-0.255 -0.4,-0.567 0,-0.311 -0.142,-0.626 -0.315,-0.7 -0.173,-0.073 -0.938,-0.943 -1.7,-1.933 -0.762,-0.99 -1.481,-1.89 -1.599,-2 -0.118,-0.11 -1.322,-1.55 -2.676,-3.2 -5.836,-7.115 -16.19,-16.709 -23.31,-21.6 -0.77,-0.529 -1.49,-1.06 -1.6,-1.181 -0.11,-0.121 -0.695,-0.475 -1.3,-0.787 -0.605,-0.312 -1.1,-0.717 -1.1,-0.9 0,-0.182 -0.193,-0.332 -0.428,-0.332 -0.235,0 -1.213,-0.54 -2.172,-1.2 -0.959,-0.66 -1.937,-1.2 -2.172,-1.2 -0.235,0 -0.429,-0.135 -0.431,-0.3 -0.002,-0.165 -0.407,-0.498 -0.9,-0.74 -2.408,-1.182 -4.51,-2.39 -4.63,-2.66 -0.074,-0.165 -0.353,-0.3 -0.621,-0.3 -0.709,0 -2.639,-0.949 -2.643,-1.3 -0.002,-0.165 -0.245,-0.3 -0.542,-0.3 -0.296,0 -1.061,-0.25 -1.7,-0.556 -0.638,-0.306 -1.791,-0.833 -2.561,-1.171 -1.669,-0.733 -9.072,-3.473 -9.383,-3.473 -0.119,0 -0.217,7.172 -0.217,15.939 0,17.525 0.039,17.217 -2.493,19.489 L 191.8,55 H 157 122.2 l -1.306,-0.932 C 118.373,52.27 118.4,52.483 118.4,34.62 c 0,-12.718 -0.108,-16.217 -0.5,-16.204 -0.275,0.009 -2.57,0.816 -5.1,1.794 m 79.12,44.752 c 2.994,1.558 4.561,5.473 3.18,7.943 -0.795,1.423 -2.402,3.095 -2.975,3.095 -0.289,0 -0.525,0.18 -0.525,0.4 0,0.641 -68.565,0.542 -69.675,-0.1 -4.683,-2.709 -4.859,-8.917 -0.317,-11.199 1.914,-0.962 68.478,-1.093 70.312,-0.139 M 71.1,129.603 c 1.815,0.218 4.695,0.572 6.4,0.786 1.705,0.214 4.63,0.559 6.5,0.766 1.87,0.206 5.56,0.66 8.2,1.007 2.64,0.347 6.42,0.813 8.4,1.035 1.98,0.222 4.95,0.583 6.6,0.803 3.533,0.471 8.607,1.111 12.8,1.615 4.75,0.57 8.898,1.137 10.2,1.393 2.452,0.481 4.827,1.077 5.7,1.429 0.495,0.2 1.35,0.543 1.9,0.763 3.434,1.373 7.28,3.584 8.848,5.085 5.447,5.214 -1.141,13.43 -7.736,9.648 -6.141,-3.522 -8.101,-4.152 -16.112,-5.175 -1.65,-0.211 -4.44,-0.571 -6.2,-0.801 -1.76,-0.229 -4.55,-0.57 -6.2,-0.757 -1.65,-0.187 -4.53,-0.539 -6.4,-0.784 -1.87,-0.244 -4.84,-0.622 -6.6,-0.84 -1.76,-0.219 -4.46,-0.561 -6,-0.761 -1.54,-0.201 -4.42,-0.567 -6.4,-0.815 -5.449,-0.682 -9.263,-1.172 -12.8,-1.645 -5.792,-0.775 -16.6,-0.459 -16.6,0.485 0,0.198 -0.54,0.36 -1.2,0.36 -0.66,0 -1.2,0.18 -1.2,0.4 0,0.22 -0.265,0.4 -0.588,0.4 -0.323,0 -1.178,0.323 -1.9,0.719 -5.513,3.018 -10.312,0.718 -10.312,-4.943 0,-3.842 2.821,-6.233 10,-8.474 7.722,-2.411 11.922,-2.756 20.7,-1.699 m -0.3,21.596 c 1.65,0.225 4.53,0.592 6.4,0.816 1.87,0.223 4.795,0.582 6.5,0.796 1.705,0.214 4.54,0.569 6.3,0.789 1.76,0.22 4.685,0.593 6.5,0.828 1.815,0.236 4.56,0.585 6.1,0.775 5.136,0.636 9.971,1.244 12.9,1.622 1.595,0.206 4.205,0.536 5.8,0.733 4.588,0.567 6.44,0.879 7.3,1.229 7.148,2.913 10.39,6.476 12.592,13.836 0.768,2.568 0.222,10.367 -1.118,15.977 -1.262,5.281 -5.936,15.151 -8.05,17 -0.126,0.11 -0.75,0.9 -1.388,1.755 -1.492,1.999 -5.682,6.189 -7.681,7.681 -0.855,0.638 -1.645,1.272 -1.755,1.409 -0.953,1.187 -10.848,6.355 -12.168,6.355 -0.322,0 -0.683,0.159 -0.803,0.354 -0.121,0.195 -0.716,0.453 -1.324,0.575 -0.608,0.122 -1.915,0.425 -2.905,0.674 -5.578,1.402 -14.022,1.771 -19.4,0.848 -1.54,-0.265 -3.476,-0.583 -4.303,-0.708 -0.826,-0.125 -1.602,-0.388 -1.723,-0.585 -0.122,-0.197 -0.65,-0.358 -1.174,-0.358 -0.524,0 -1.064,-0.18 -1.2,-0.4 -0.136,-0.22 -0.525,-0.4 -0.865,-0.4 -2.705,0 -12.704,-6.261 -17.412,-10.903 C 52.278,206.33 46,196.808 46,193.812 c 0,-0.311 -0.18,-0.676 -0.4,-0.812 -0.22,-0.136 -0.4,-0.676 -0.4,-1.2 0,-0.524 -0.18,-1.064 -0.4,-1.2 -0.22,-0.136 -0.4,-0.831 -0.4,-1.544 0,-0.713 -0.163,-1.467 -0.361,-1.676 -0.876,-0.921 -1.432,-17.829 -0.683,-20.78 1.122,-4.423 4.47,-9.341 8.023,-11.786 3.175,-2.184 4.238,-2.655 9.021,-4 1.505,-0.423 5.576,-0.272 10.4,0.385 m 189.31,124.901 -5.28,5.3 0.761,0.998 c 1.038,1.362 1.381,4.236 0.732,6.122 -0.687,1.996 -28.825,30.271 -31.332,31.484 -3.274,1.585 -5.027,0.984 -11.284,-3.87 -1.929,-1.497 -3.745,-2.949 -4.036,-3.228 -0.29,-0.278 -0.652,-0.506 -0.804,-0.506 -0.151,0 -0.723,-0.405 -1.271,-0.901 -0.914,-0.826 -3.952,-3.145 -17.396,-13.278 -2.64,-1.99 -5.149,-3.933 -5.575,-4.319 -0.427,-0.386 -1.091,-0.702 -1.477,-0.702 -0.385,0 -0.812,-0.18 -0.948,-0.4 -0.137,-0.221 -1.937,-0.4 -4.024,-0.4 -2.251,0 -3.776,0.162 -3.776,0.4 0,0.22 -0.367,0.4 -0.815,0.4 -0.763,0 -4.102,3.029 -6.393,5.8 -1.836,2.221 -5.385,6.362 -6.192,7.225 -0.44,0.471 -1.16,1.31 -1.6,1.866 -0.44,0.556 -1.61,1.967 -2.6,3.135 -3.595,4.244 -7.315,8.601 -8.346,9.775 -0.58,0.661 -1.862,2.191 -2.85,3.4 -0.988,1.21 -2.249,2.649 -2.801,3.199 -0.553,0.55 -1.48,1.63 -2.059,2.4 -0.579,0.77 -1.389,1.782 -1.799,2.25 -0.41,0.467 -2.545,2.969 -4.745,5.561 -2.2,2.591 -4.45,5.204 -5,5.807 -0.55,0.604 -1.621,1.859 -2.379,2.79 -0.759,0.931 -1.569,1.895 -1.8,2.143 -0.232,0.247 -1.768,2.069 -3.414,4.049 -2.584,3.107 -4.057,4.821 -5.809,6.756 -0.221,0.244 -1.211,1.433 -2.2,2.643 -0.989,1.209 -2.158,2.581 -2.598,3.049 -0.44,0.468 -1.138,1.279 -1.552,1.802 -0.413,0.522 -1.293,1.524 -1.954,2.225 -1.021,1.083 -1.119,1.356 -0.648,1.819 0.923,0.907 4.269,3.106 4.726,3.106 0.235,0 0.428,0.159 0.428,0.353 0,0.195 0.315,0.457 0.7,0.583 0.385,0.126 1.6,0.777 2.7,1.446 1.942,1.182 3.418,1.926 7.238,3.645 3.434,1.546 7.693,3.173 8.305,3.173 0.335,0 0.708,0.159 0.828,0.354 0.121,0.195 0.716,0.45 1.324,0.567 0.608,0.117 1.825,0.42 2.705,0.673 18.928,5.436 38.728,3.308 57.866,-6.218 6.422,-3.197 6.327,-3.145 6.331,-3.476 0.002,-0.165 0.196,-0.3 0.431,-0.3 0.235,0 1.213,-0.54 2.172,-1.2 0.959,-0.66 1.922,-1.2 2.139,-1.2 0.217,0 0.454,-0.147 0.528,-0.328 0.073,-0.18 1.303,-1.111 2.733,-2.07 1.43,-0.958 2.69,-1.845 2.8,-1.972 0.11,-0.126 2,-1.67 4.2,-3.43 5.097,-4.078 12.918,-11.657 17.335,-16.8 1.89,-2.2 3.537,-4.09 3.661,-4.2 0.123,-0.11 0.845,-1.01 1.604,-2 0.759,-0.99 1.48,-1.89 1.602,-2 0.122,-0.11 1.082,-1.37 2.133,-2.8 1.05,-1.43 2.17,-2.917 2.487,-3.305 0.318,-0.387 0.578,-0.867 0.578,-1.066 0,-0.199 0.158,-0.422 0.35,-0.496 0.354,-0.134 7.25,-10.574 7.25,-10.974 0,-0.118 0.51,-0.967 1.133,-1.887 0.623,-0.92 1.249,-1.942 1.391,-2.272 0.142,-0.33 0.804,-1.5 1.472,-2.6 0.668,-1.1 1.524,-2.675 1.903,-3.5 0.379,-0.825 0.827,-1.5 0.995,-1.5 0.168,0 0.306,-0.345 0.306,-0.767 0,-0.421 0.145,-0.826 0.321,-0.9 0.177,-0.073 1.144,-1.843 2.15,-3.933 1.608,-3.343 2.552,-5.409 6.027,-13.2 0.442,-0.99 0.961,-2.205 1.153,-2.7 0.192,-0.495 0.553,-1.395 0.803,-2 0.249,-0.605 0.609,-1.505 0.8,-2 1.015,-2.637 2,-5.023 2.393,-5.795 0.194,-0.382 0.353,-1.057 0.353,-1.5 0,-0.443 0.18,-0.805 0.4,-0.805 0.22,0 0.4,-0.439 0.4,-0.976 0,-0.537 0.18,-1.088 0.4,-1.224 0.22,-0.136 0.4,-0.684 0.4,-1.217 v -0.969 l -1.488,0.835 c -1.863,1.047 -4.815,0.869 -6.521,-0.393 -0.637,-0.471 -1.213,-0.856 -1.28,-0.856 -0.067,0 -2.498,2.385 -5.401,5.3"
       stroke="none"
       fill="#fbc141"
       fill-rule="evenodd" />
    <path
       id="path3"
       d="m 337.79,70.035 c -27.055,27.069 -49.676,49.475 -50.27,49.791 -1.539,0.818 -3.896,0.707 -5.478,-0.257 l -1.358,-0.828 -2.194,2.13 c -2.782,2.7 -4.917,4.835 -7.668,7.669 l -2.179,2.244 0.879,1.562 c 2.131,3.792 1.832,4.196 -16.879,22.852 -15.995,15.948 -16.298,16.287 -14.143,15.82 17.159,-3.722 30.525,5.008 31.883,20.823 0.639,7.452 3.57,9.223 12.217,7.384 7.286,-1.549 13.221,-1.994 16.117,-1.209 5.405,1.467 10.611,5.635 12.976,10.388 1.677,3.371 1.463,3.466 5.909,-2.604 1.612,-2.2 3.412,-4.63 4.002,-5.4 1.747,-2.284 9.345,-13.531 11.618,-17.2 5.355,-8.641 5.054,-8.139 8.857,-14.8 4.335,-7.595 8.064,-14.795 13.526,-26.119 3.308,-6.858 9.38,-8.031 13.279,-2.565 0.903,1.265 0.919,1.488 1.116,15.323 0.166,11.662 0.302,14.168 0.8,14.795 2.145,2.7 5.214,3.032 7.44,0.806 l 1.36,-1.36 v -19.994 c 0,-35.044 0.918,-61.752 2.8,-81.486 0.21,-2.2 0.573,-6.07 0.807,-8.6 0.234,-2.53 0.594,-5.996 0.801,-7.701 0.207,-1.706 0.564,-4.63 0.792,-6.499 1.004,-8.213 1.191,-9.811 1.574,-13.4 0.223,-2.09 0.565,-5.24 0.761,-7 0.196,-1.76 0.241,-3.331 0.1,-3.49 -0.141,-0.16 -22.391,21.857 -49.445,48.925 M 373.704,210.1 c -5.02,10.392 -4.501,15.9 1.498,15.9 5.192,0 5.742,-5.408 1.513,-14.867 -1.425,-3.186 -1.893,-3.346 -3.011,-1.033 m -32.061,41.44 c -5.394,7.575 -8.716,20.477 -6.324,24.559 4.45,7.593 15.481,4.459 15.481,-4.399 0,-4.502 -4.347,-16.278 -7.548,-20.448 l -0.729,-0.949 -0.88,1.237"
       stroke="none"
       fill="#fa2a3a"
       fill-rule="evenodd" />
    <path
       id="path4"
       d="m 130.583,12.101 c -0.106,0.276 -0.146,7.341 -0.088,15.7 L 130.6,43 l 25.6,0.11 c 14.08,0.061 26.005,0.013 26.5,-0.107 l 0.9,-0.218 v -15.35 c 0,-13.628 -0.071,-15.377 -0.633,-15.592 -1.357,-0.521 -52.182,-0.27 -52.384,0.258 M 11.8,163.687 C 11.679,164.189 11.629,176.03 11.69,190 l 0.11,25.4 4.903,0.112 4.903,0.113 L 21.503,189.312 21.4,163 16.711,162.887 c -4.594,-0.11 -4.694,-0.094 -4.911,0.8 m 49.777,-0.533 c -4.799,1.575 -6.777,4.868 -6.777,11.284 0,6.886 1.34,13.063 3.992,18.409 14.948,30.128 59.274,26.494 68.946,-5.654 2.304,-7.657 2.125,-12.94 -0.522,-15.331 -1.641,-1.482 -4.319,-2.015 -17.416,-3.465 -2.2,-0.244 -5.17,-0.605 -6.6,-0.803 -1.43,-0.198 -4.175,-0.548 -6.1,-0.777 -7.331,-0.873 -10.579,-1.282 -12.9,-1.624 -1.32,-0.195 -4.2,-0.552 -6.4,-0.794 -2.2,-0.242 -5.08,-0.606 -6.4,-0.808 -3.818,-0.585 -8.71,-0.802 -9.823,-0.437 m 159.823,3.1 c -2.417,0.269 -12.602,1.535 -17.2,2.139 -1.54,0.202 -4.42,0.56 -6.4,0.795 -9.516,1.134 -11.164,1.683 -12.641,4.212 -2.387,4.089 1.145,18.693 5.884,24.324 l 1.011,1.202 16.473,-16.462 c 17.606,-17.594 16.861,-16.655 12.873,-16.21"
       stroke="none"
       fill="#047393"
       fill-rule="evenodd" />
    <path
       id="path5"
       d="m 273.975,124.201 c -3.204,3.187 -5.721,5.963 -5.593,6.17 0.219,0.354 12.018,-11.136 12.018,-11.704 0,-0.718 -1.039,0.177 -6.425,5.534 M 87.402,320.599 c -41.534,41.656 -39.783,39.7 -40.123,44.815 -0.347,5.202 1.092,7.694 8.779,15.207 10.048,9.822 17.062,10.041 24.742,0.772 1.672,-2.018 5.382,-6.38 5.606,-6.593 0.117,-0.11 1.108,-1.279 2.203,-2.597 1.095,-1.319 2.171,-2.594 2.391,-2.834 0.22,-0.24 1.21,-1.396 2.2,-2.569 0.99,-1.173 1.984,-2.328 2.21,-2.566 0.225,-0.239 3.195,-3.747 6.6,-7.797 3.404,-4.05 6.55,-7.74 6.99,-8.201 0.44,-0.461 1.608,-1.828 2.595,-3.037 0.986,-1.21 1.886,-2.289 2,-2.399 0.488,-0.476 6.09,-7.059 11.376,-13.369 1.304,-1.557 2.474,-2.921 2.6,-3.031 0.126,-0.11 1.219,-1.37 2.429,-2.8 4.402,-5.201 11.017,-12.976 12.251,-14.4 2.727,-3.144 4.549,-5.381 4.549,-5.586 0,-0.301 -20.975,-21.229 -21.217,-21.17 -0.101,0.025 -17.282,17.194 -38.181,38.155 M 123.785,308.5 c 3.899,2.555 3.799,8.013 -0.189,10.254 -6.262,3.519 -12.329,-4.626 -7.024,-9.429 2.32,-2.1 4.829,-2.387 7.213,-0.825 m -43.381,43.2 c 4.04,2.75 4.029,7.985 -0.022,10.262 -5.254,2.953 -11,-2.354 -8.389,-7.748 1.554,-3.21 5.608,-4.422 8.411,-2.514"
       stroke="none"
       fill="#f56c33"
       fill-rule="evenodd" />
    <path
       id="path6"
       d="m 116.59,18.416 c -0.167,0.27 0.106,0.325 0.776,0.157 l 1.034,-0.26 v 16.264 c 0,17.779 -0.009,17.708 2.356,19.391 0.642,0.458 1.41,0.831 1.706,0.831 0.296,-10e-4 -0.022,-0.344 -0.707,-0.761 -3.052,-1.861 -2.955,-1.22 -2.955,-19.6 V 18 h -0.976 c -0.537,0 -1.092,0.187 -1.234,0.416 M 195.113,34.33 195,50.66 l -1.16,1.77 c -0.918,1.4 -0.98,1.61 -0.297,1.005 2.033,-1.801 2.057,-2.025 2.057,-19.096 0,-8.767 0.098,-15.939 0.217,-15.939 0.12,0 1.936,0.644 4.037,1.43 2.1,0.787 3.902,1.348 4.003,1.247 0.101,-0.102 -0.32,-0.369 -0.937,-0.595 -0.616,-0.226 -2.379,-0.877 -3.918,-1.447 C 197.463,18.466 195.983,18 195.715,18 c -0.376,0 -0.515,3.793 -0.602,16.33 M 114.268,19.065 c -0.146,0.146 -1.121,0.575 -2.167,0.954 -3.327,1.203 -4.217,1.599 -4.027,1.789 0.102,0.101 1.972,-0.523 4.156,-1.388 2.183,-0.864 3.595,-1.583 3.137,-1.596 -0.459,-0.013 -0.953,0.095 -1.099,0.241 m 90.132,2.33 c 0,0.293 2.895,1.443 3.105,1.234 0.1,-0.1 -0.49,-0.463 -1.311,-0.806 -1.626,-0.679 -1.794,-0.719 -1.794,-0.428 M 99.597,25.703 c -2.972,1.593 -5.97,3.302 -6.662,3.797 -0.692,0.495 -1.374,0.9 -1.514,0.9 -0.578,0 -10.538,7.191 -12.621,9.112 -3.064,2.825 -5.258,4.193 -7.048,4.395 -1.236,0.139 -1.655,0.316 -1.266,0.533 0.534,0.299 3.447,-0.316 3.914,-0.826 0.11,-0.12 0.859,-0.71 1.665,-1.31 0.806,-0.601 1.706,-1.329 2,-1.62 2.11,-2.083 15.444,-11.484 16.288,-11.484 0.209,0 0.44,-0.135 0.514,-0.3 0.073,-0.165 1.033,-0.748 2.133,-1.295 1.1,-0.547 2.09,-1.095 2.2,-1.218 0.11,-0.122 1.595,-0.905 3.3,-1.74 2.879,-1.408 3.552,-1.851 2.8,-1.844 -0.165,10e-4 -2.732,1.306 -5.703,2.9 M 210,23.909 c 0,0.357 2.374,1.451 2.618,1.206 0.095,-0.094 -0.456,-0.471 -1.223,-0.837 C 210.628,23.912 210,23.746 210,23.909 m 3.2,1.589 c 0,0.172 0.675,0.62 1.5,0.996 1.957,0.89 3.865,2.028 4.033,2.406 0.074,0.165 0.311,0.3 0.528,0.3 0.217,0 1.18,0.54 2.139,1.2 0.959,0.66 1.937,1.2 2.172,1.2 0.235,0 0.428,0.15 0.428,0.332 0,0.183 0.495,0.588 1.1,0.9 0.605,0.312 1.19,0.666 1.3,0.787 0.11,0.121 0.83,0.652 1.6,1.181 7.12,4.891 17.474,14.485 23.31,21.6 1.354,1.65 2.558,3.09 2.676,3.2 0.118,0.11 0.837,1.01 1.599,2 0.762,0.99 1.527,1.86 1.7,1.933 0.173,0.074 0.315,0.389 0.315,0.7 0,0.312 0.18,0.567 0.4,0.567 0.22,0 0.4,0.255 0.4,0.567 0,0.311 0.15,0.626 0.332,0.7 0.389,0.156 5.268,7.367 5.268,7.786 0,0.156 0.245,0.568 0.543,0.916 1.171,1.359 9.457,17.392 9.457,18.296 0,0.294 0.18,0.535 0.4,0.535 0.596,0 0.615,0.049 -2.386,-6.095 -12.62,-25.838 -29.889,-45.208 -52.414,-58.792 -3.9,-2.352 -6.4,-3.608 -6.4,-3.215 M 67.326,43.027 c 0.831,0.565 1.728,0.939 1.993,0.832 0.309,-0.126 0.266,-0.21 -0.119,-0.236 C 68.87,43.6 68.15,43.23 67.6,42.8 c -0.55,-0.43 -1.177,-0.786 -1.393,-0.791 -0.216,-0.005 0.287,0.453 1.119,1.018 M 55.2,53.101 c 0,0.22 0.299,0.648 0.665,0.95 0.365,0.302 0.995,1.089 1.398,1.749 0.418,0.682 0.735,0.932 0.736,0.578 0,-0.342 -0.629,-1.309 -1.399,-2.15 -0.77,-0.841 -1.4,-1.348 -1.4,-1.127 m 84.93,1.999 c 9.421,0.06 24.721,0.06 34,0 9.278,-0.06 1.57,-0.109 -17.13,-0.109 -18.7,0 -26.292,0.049 -16.87,0.109 m -82.076,3.7 c 0,1.58 0.053,1.69 0.434,0.9 0.312,-0.647 0.312,-1.153 0,-1.8 -0.381,-0.79 -0.434,-0.68 -0.434,0.9 m -2.514,5.5 c -4.881,6.508 -15.32,24.453 -14.628,25.145 0.111,0.112 1.126,-1.653 2.255,-3.921 1.128,-2.268 2.592,-5.024 3.251,-6.124 0.66,-1.1 1.315,-2.27 1.456,-2.6 0.447,-1.046 7.674,-11.977 8.518,-12.883 0.704,-0.756 1.05,-1.517 0.69,-1.517 -0.065,0 -0.759,0.855 -1.542,1.9 m 66.068,0.801 c -4.542,2.282 -4.366,8.49 0.317,11.199 0.972,0.562 69.675,0.759 69.675,0.2 0,-0.165 -15.393,-0.252 -34.207,-0.193 -37.794,0.117 -35.505,0.266 -37.572,-2.444 -2.051,-2.689 -0.985,-6.827 2.18,-8.463 1.824,-0.944 68.075,-0.9 69.972,0.046 3.554,1.773 4.064,6.704 0.989,9.554 -0.593,0.55 -0.906,1 -0.695,1 0.453,0 2.122,-1.823 2.833,-3.095 1.381,-2.47 -0.186,-6.385 -3.18,-7.943 -1.834,-0.954 -68.398,-0.823 -70.312,0.139 m -81.79,26.317 c -0.346,0.828 -0.547,1.587 -0.447,1.687 0.1,0.1 0.465,-0.496 0.811,-1.323 0.346,-0.828 0.547,-1.587 0.447,-1.687 -0.1,-0.1 -0.465,0.496 -0.811,1.323 m -1.363,3.027 c -1.252,3.253 -3.38,8.677 -3.67,9.355 -2.545,5.953 -9.003,30.58 -7.657,29.2 0.214,-0.22 0.487,-1.12 0.605,-2 0.222,-1.647 0.687,-3.856 1.474,-7 0.248,-0.99 0.548,-2.387 0.666,-3.104 0.119,-0.717 0.376,-1.402 0.571,-1.523 0.196,-0.121 0.356,-0.602 0.356,-1.068 0,-0.467 0.179,-1.401 0.398,-2.077 2.646,-8.174 5.073,-15.161 6.39,-18.397 0.887,-2.18 1.527,-4.049 1.423,-4.153 -0.104,-0.104 -0.354,0.241 -0.556,0.767 M 274.8,94.733 c 0,0.477 0.18,0.867 0.4,0.867 0.22,0 0.4,0.272 0.4,0.605 0,0.333 0.159,0.918 0.353,1.3 0.195,0.382 0.531,1.145 0.747,1.695 0.216,0.55 0.589,1.45 0.829,2 0.239,0.55 1.01,2.735 1.712,4.856 l 1.276,3.856 -0.858,1.206 c -1.005,1.41 -1.189,5.414 -0.302,6.582 0.813,1.071 1.065,0.833 0.422,-0.4 -0.901,-1.727 -0.735,-4.495 0.367,-6.103 l 0.945,-1.38 -1.711,-4.808 c -1.713,-4.813 -4.027,-10.59 -4.388,-10.951 -0.106,-0.105 -0.192,0.199 -0.192,0.675 M 60.4,129.2 c -0.884,0.186 0.442,0.297 3.6,0.301 3.646,0.005 4.567,-0.083 3.4,-0.324 -1.91,-0.395 -5.063,-0.385 -7,0.023 m 185.8,0 c -0.747,0.19 0.611,0.305 3.6,0.305 2.989,0 4.347,-0.115 3.6,-0.305 -0.66,-0.168 -2.28,-0.305 -3.6,-0.305 -1.32,0 -2.94,0.137 -3.6,0.305 m 15.265,0.247 c -0.625,0.339 -1.057,0.695 -0.96,0.791 0.097,0.097 0.698,-0.096 1.335,-0.428 1.475,-0.77 3,-0.771 4.834,-0.005 1.803,0.753 2.231,0.477 0.583,-0.376 -1.534,-0.793 -4.311,-0.784 -5.792,0.018 M 55,130 c -1.094,0.47 0.733,0.47 2.2,0 0.975,-0.312 0.97,-0.321 -0.2,-0.332 -0.66,-0.006 -1.56,0.143 -2,0.332 m 16.4,0.023 c 2.218,0.459 4.451,0.442 3,-0.023 -0.55,-0.176 -1.81,-0.317 -2.8,-0.314 l -1.8,0.006 1.6,0.331 M 239.4,130 c -1.105,0.475 0.551,0.488 2.8,0.023 l 1.6,-0.331 -1.8,-0.018 c -0.99,-0.01 -2.16,0.137 -2.6,0.326 m 17.2,0 c 1.876,0.477 2.939,0.477 2.2,0 -0.33,-0.213 -1.23,-0.369 -2,-0.347 l -1.4,0.042 1.2,0.305 M 52,130.8 c -0.795,0.514 0.204,0.514 1.4,0 l 0.8,-0.344 -0.8,-0.022 c -0.44,-0.012 -1.07,0.153 -1.4,0.366 m 25.8,0.023 c 2.218,0.459 4.451,0.442 3,-0.023 -0.55,-0.176 -1.81,-0.317 -2.8,-0.314 l -1.8,0.006 1.6,0.331 M 233.2,130.8 c -1.451,0.465 0.782,0.482 3,0.023 l 1.6,-0.331 -1.8,-0.006 c -0.99,-0.003 -2.25,0.138 -2.8,0.314 m -184.404,0.974 c -6.136,2.262 -8.396,4.416 -8.396,8.002 0,5.661 4.799,7.961 10.312,4.943 0.722,-0.396 1.577,-0.719 1.9,-0.719 0.323,0 0.588,-0.176 0.588,-0.39 0,-0.422 -0.633,-0.22 -3.6,1.144 -5.839,2.686 -11.29,-2.865 -8.043,-8.19 0.719,-1.179 6.704,-4.554 8.104,-4.57 0.296,-0.003 0.809,-0.181 1.139,-0.394 0.897,-0.58 -0.223,-0.483 -2.004,0.174 M 84.6,131.602 c 0.88,0.174 3.4,0.526 5.6,0.783 2.2,0.257 5.35,0.638 7,0.848 1.65,0.21 4.44,0.564 6.2,0.787 1.76,0.222 4.46,0.57 6,0.772 1.54,0.202 4.42,0.562 6.4,0.8 16.011,1.925 19.476,2.691 25.247,5.58 8.334,4.173 9.855,10.529 3.111,13.001 -1.15,0.421 -1.321,0.578 -0.652,0.599 2.239,0.07 5.294,-3.478 5.294,-6.149 0,-3.547 -4.151,-6.817 -13,-10.239 -0.797,-0.309 -3.317,-0.928 -5.6,-1.376 -1.302,-0.256 -5.45,-0.823 -10.2,-1.393 -4.228,-0.509 -9.29,-1.147 -12.8,-1.615 -1.65,-0.221 -4.71,-0.59 -6.8,-0.822 -2.09,-0.232 -6.41,-0.771 -9.6,-1.197 -5.847,-0.782 -9.307,-0.993 -6.2,-0.379 m 138,0.418 c -2.86,0.403 -6.91,0.923 -9,1.157 -4.371,0.489 -8.903,1.047 -13.2,1.625 -1.65,0.222 -4.53,0.583 -6.4,0.802 -6.17,0.724 -9.374,1.175 -11.4,1.606 -1.1,0.234 -2.497,0.529 -3.105,0.654 -0.608,0.126 -1.203,0.387 -1.324,0.582 -0.12,0.195 -0.647,0.354 -1.171,0.354 -0.524,0 -1.064,0.18 -1.2,0.4 -0.136,0.22 -0.597,0.4 -1.024,0.4 -0.427,0 -0.776,0.18 -0.776,0.4 0,0.22 -0.36,0.4 -0.8,0.4 -0.44,0 -0.8,0.146 -0.8,0.325 0,0.179 -0.63,0.573 -1.4,0.875 -0.77,0.302 -1.4,0.696 -1.4,0.875 0,0.179 -0.27,0.325 -0.6,0.325 -0.33,0 -0.6,0.195 -0.6,0.433 0,0.238 0.584,0.08 1.3,-0.351 3.213,-1.936 5.299,-2.929 8.182,-3.897 3.733,-1.253 6.57,-1.731 20.217,-3.405 1.815,-0.223 4.561,-0.57 6.101,-0.772 1.54,-0.202 4.374,-0.56 6.299,-0.795 11.797,-1.443 16.129,-2.002 18.501,-2.385 4.241,-0.685 -1.047,-0.361 -6.4,0.392 m -196.133,2.43 c -0.037,0.358 -0.181,1.258 -0.32,2 -0.195,1.04 -0.142,1.247 0.227,0.903 0.277,-0.258 0.413,-1.106 0.321,-2 -0.088,-0.854 -0.191,-1.26 -0.228,-0.903 m -0.8,4.6 c -0.037,0.468 -0.169,1.458 -0.294,2.2 -0.185,1.103 -0.144,1.221 0.224,0.643 0.248,-0.389 0.38,-1.379 0.294,-2.2 -0.086,-0.821 -0.187,-1.11 -0.224,-0.643 m 36.833,2.441 c 0.825,0.087 2.175,0.087 3,0 0.825,-0.086 0.15,-0.157 -1.5,-0.157 -1.65,0 -2.325,0.071 -1.5,0.157 m 185.23,0.056 c 1.106,0.248 1.022,0.359 -4.003,5.3 l -5.133,5.047 -2.597,0.229 c -1.428,0.126 -4.127,0.43 -5.997,0.676 -7.486,0.984 -9.531,1.247 -12.6,1.62 -1.76,0.214 -4.55,0.562 -6.2,0.774 -1.65,0.211 -4.489,0.543 -6.308,0.737 -1.819,0.194 -3.439,0.489 -3.6,0.656 -0.298,0.311 2.562,0.086 7.908,-0.621 1.65,-0.218 4.26,-0.564 5.8,-0.768 2.803,-0.372 6.345,-0.813 12.901,-1.604 1.925,-0.233 4.6,-0.596 5.945,-0.808 1.345,-0.212 2.968,-0.385 3.606,-0.385 0.955,0 2.095,-0.938 6.468,-5.319 5.282,-5.294 5.683,-5.924 3.713,-5.834 -1.03,0.048 -1.03,0.048 0.097,0.3 M 57.2,142 c -0.98,0.314 -0.976,0.321 0.2,0.354 0.66,0.019 1.47,-0.141 1.8,-0.354 0.758,-0.49 -0.47,-0.49 -2,0 m 12,0 c 0.33,0.213 1.59,0.368 2.8,0.344 l 2.2,-0.044 -1.8,-0.32 c -2.655,-0.473 -3.95,-0.465 -3.2,0.02 m 172.2,0 -1.6,0.286 2,0.029 c 1.1,0.016 2.36,-0.126 2.8,-0.315 1.015,-0.436 -0.763,-0.436 -3.2,0 m -187.2,0.8 c -0.709,0.305 -0.675,0.347 0.3,0.372 0.605,0.015 1.1,-0.152 1.1,-0.372 0,-0.469 -0.307,-0.469 -1.4,0 m 21.4,-0.018 c 0.538,0.364 5.17,0.627 4.767,0.271 -0.092,-0.081 -1.337,-0.266 -2.767,-0.412 -1.81,-0.184 -2.418,-0.141 -2,0.141 m 159.2,0.018 -1.8,0.28 2.4,0.054 c 1.32,0.029 2.67,-0.121 3,-0.334 0.701,-0.453 -0.685,-0.453 -3.6,0 m -209.926,1.244 c -0.041,0.574 -0.169,1.924 -0.284,3 -0.175,1.624 -0.138,1.789 0.218,0.972 0.235,-0.54 0.363,-1.89 0.284,-3 -0.079,-1.109 -0.177,-1.546 -0.218,-0.972 M 81.8,143.582 c 0.751,0.34 5.727,0.59 5.367,0.27 -0.092,-0.081 -1.517,-0.257 -3.167,-0.39 -1.918,-0.154 -2.711,-0.111 -2.2,0.12 m 146.4,0.018 -2,0.274 2.4,0.035 c 1.32,0.019 2.76,-0.12 3.2,-0.309 0.989,-0.425 -0.501,-0.425 -3.6,0 m -61.257,0.553 c -3.395,3.876 -1.097,10.771 3.537,10.616 0.719,-0.024 0.613,-0.133 -0.483,-0.5 -4.626,-1.547 -5.907,-6.223 -2.677,-9.769 0.451,-0.495 0.653,-0.893 0.45,-0.885 -0.204,0.009 -0.576,0.25 -0.827,0.538 M 88.2,144.382 c 0.751,0.34 5.727,0.59 5.367,0.27 -0.092,-0.081 -1.517,-0.257 -3.167,-0.39 -1.918,-0.154 -2.711,-0.111 -2.2,0.12 m 133.2,0.058 c -1.32,0.186 -3.57,0.512 -5,0.724 l -2.6,0.385 2.8,-0.175 c 5.033,-0.315 8.928,-0.768 9.234,-1.074 0.363,-0.364 -1.216,-0.314 -4.434,0.14 m -127.271,0.606 c 0.181,0.19 1.711,0.476 3.4,0.636 1.689,0.159 4.601,0.49 6.471,0.734 1.87,0.245 4.75,0.597 6.4,0.784 1.65,0.187 4.44,0.528 6.2,0.757 1.76,0.23 4.55,0.59 6.2,0.801 7.481,0.955 11.646,2.221 14.923,4.536 0.618,0.436 1.217,0.7 1.331,0.585 0.428,-0.428 -5.147,-3.246 -8.254,-4.173 -1.842,-0.549 -5.361,-1.158 -9.8,-1.694 -1.98,-0.239 -4.996,-0.606 -6.701,-0.816 -1.706,-0.209 -4.676,-0.574 -6.6,-0.809 -1.925,-0.236 -4.759,-0.593 -6.299,-0.793 -5.717,-0.746 -7.593,-0.887 -7.271,-0.548 M 210.4,145.85 c -0.55,0.078 -2.53,0.332 -4.4,0.564 -1.87,0.233 -4.57,0.585 -6,0.782 -1.43,0.197 -4.4,0.558 -6.6,0.802 -9.244,1.026 -13.97,2.381 -18.2,5.217 -0.55,0.369 -1.54,0.862 -2.2,1.096 -0.913,0.324 -1.003,0.433 -0.376,0.457 0.452,0.018 1.869,-0.598 3.148,-1.368 1.279,-0.77 2.395,-1.4 2.481,-1.4 0.086,0 0.919,-0.341 1.851,-0.757 3.028,-1.351 4.878,-1.773 10.896,-2.486 6.301,-0.747 10.041,-1.209 12.6,-1.557 1.43,-0.194 4.176,-0.515 6.102,-0.712 1.926,-0.197 3.621,-0.478 3.767,-0.623 0.267,-0.268 -1.229,-0.275 -3.069,-0.015 m -186.173,4.594 c 0.087,0.14 1.107,0.336 2.266,0.435 2.555,0.217 4.633,1.176 5.707,2.634 1.147,1.559 1.475,68.366 0.347,70.743 -0.761,1.602 -1.994,2.533 -3.857,2.911 -1.145,0.232 -1.294,0.417 -1.326,1.647 l -0.036,1.386 0.16,-1.3 c 0.137,-1.114 0.318,-1.3 1.264,-1.3 1.73,0 4.252,-2.4 4.797,-4.565 0.622,-2.469 0.631,-65.357 0.01,-67.635 -0.819,-3.006 -3.111,-4.634 -7.025,-4.989 -1.356,-0.123 -2.394,-0.108 -2.307,0.033 m 36.173,0.37 c -4.625,1.3 -5.854,1.828 -8.6,3.696 -1.684,1.145 -4.183,3.539 -4.687,4.49 -0.233,0.44 0.846,-0.417 2.398,-1.905 4.855,-4.654 11.037,-6.738 17.474,-5.891 1.768,0.233 4.61,0.597 6.315,0.81 1.705,0.212 4.585,0.573 6.4,0.803 4.669,0.589 8.734,1.091 12.9,1.593 3.416,0.411 6.005,0.744 12.4,1.594 4.783,0.635 8.008,0.871 7.699,0.562 -0.162,-0.163 -1.871,-0.458 -3.797,-0.656 -3.601,-0.37 -6.651,-0.735 -12.402,-1.482 -1.815,-0.235 -4.74,-0.608 -6.5,-0.828 -1.76,-0.22 -4.595,-0.575 -6.3,-0.789 -1.705,-0.214 -4.63,-0.573 -6.5,-0.796 -1.87,-0.224 -4.75,-0.591 -6.4,-0.816 -4.824,-0.657 -8.895,-0.808 -10.4,-0.385 m 79.4,3.586 c 0.136,0.22 0.642,0.387 1.124,0.372 0.845,-0.027 0.847,-0.041 0.076,-0.372 -1.101,-0.473 -1.492,-0.473 -1.2,0 m -26.567,2.551 c 0.092,0.083 1.427,0.271 2.967,0.418 1.972,0.189 2.623,0.146 2.2,-0.144 -0.539,-0.371 -5.568,-0.637 -5.167,-0.274 m 82.167,0.267 c -0.511,0.231 0.282,0.274 2.2,0.12 1.65,-0.133 3.075,-0.309 3.167,-0.39 0.36,-0.32 -4.616,-0.07 -5.367,0.27 m -76.167,0.53 c 0.092,0.081 1.517,0.257 3.167,0.39 1.918,0.154 2.711,0.111 2.2,-0.12 -0.751,-0.34 -5.727,-0.59 -5.367,-0.27 m 69.767,0.27 c -0.511,0.231 0.282,0.274 2.2,0.12 1.65,-0.133 3.075,-0.309 3.167,-0.39 0.36,-0.32 -4.616,-0.07 -5.367,0.27 m -62.2,0.782 c 1.436,0.46 2.084,0.46 1.8,0 -0.136,-0.22 -0.822,-0.382 -1.524,-0.36 -1.219,0.038 -1.231,0.054 -0.276,0.36 m 58.4,0.008 c 0,0.242 0.447,0.3 1.1,0.143 1.57,-0.376 1.623,-0.551 0.167,-0.551 -0.697,0 -1.267,0.183 -1.267,0.408 m -54,1.569 c 4.247,2.199 6.771,4.992 8.658,9.58 0.508,1.234 0.927,1.909 0.933,1.5 0.016,-1.281 -2.312,-5.585 -3.953,-7.307 -2.22,-2.328 -6.169,-4.977 -7.35,-4.931 -0.268,0.011 0.502,0.532 1.712,1.158 m 50.611,-0.242 c -1.69,0.92 -6.211,5.013 -6.211,5.623 0,0.2 1.017,-0.653 2.259,-1.896 1.243,-1.242 3.342,-2.8 4.664,-3.46 1.323,-0.661 2.061,-1.186 1.641,-1.167 -0.42,0.02 -1.479,0.425 -2.353,0.9 m -136.757,2.038 c -0.36,0.55 -0.654,1.265 -0.654,1.589 0,0.325 -0.18,0.702 -0.4,0.838 -0.22,0.136 -0.388,0.642 -0.373,1.124 0.026,0.832 0.049,0.826 0.458,-0.124 0.237,-0.55 0.759,-1.71 1.161,-2.578 0.851,-1.838 0.75,-2.286 -0.192,-0.849 m 129.095,6.134 c -1.771,3.939 -1.814,4.212 -1.624,10.347 0.174,5.654 0.416,7.479 1.478,11.146 0.254,0.88 0.558,2.095 0.675,2.7 0.117,0.605 0.392,1.1 0.61,1.1 0.219,0 0.271,-0.315 0.117,-0.7 -1.35,-3.372 -2.314,-8.749 -2.5,-13.946 -0.214,-5.976 -0.036,-7.076 1.726,-10.654 0.515,-1.045 0.808,-1.897 0.652,-1.893 -0.155,0.004 -0.666,0.859 -1.134,1.9 M 43.043,167.833 c -0.347,0.903 -0.29,14.674 0.063,15.229 0.162,0.254 0.294,-3.21 0.294,-7.699 0,-4.49 -0.026,-8.163 -0.057,-8.163 -0.032,0 -0.167,0.285 -0.3,0.633 m 97.943,10.032 c -0.008,2.963 0.114,5.061 0.271,4.661 0.381,-0.965 0.412,-8.999 0.037,-9.587 -0.162,-0.254 -0.301,1.963 -0.308,4.926 m -0.522,6.585 c -0.035,0.358 -0.166,1.258 -0.291,2 -0.185,1.105 -0.144,1.221 0.225,0.641 0.248,-0.389 0.379,-1.289 0.291,-2 -0.089,-0.71 -0.19,-0.998 -0.225,-0.641 m -96.824,1.426 c -0.022,0.702 0.14,1.388 0.36,1.524 0.46,0.284 0.46,-0.364 0,-1.8 -0.306,-0.955 -0.322,-0.943 -0.36,0.276 m 96.009,2.524 c -0.033,0.33 -0.16,1.05 -0.282,1.6 -0.192,0.864 -0.16,0.903 0.232,0.288 0.249,-0.391 0.376,-1.111 0.282,-1.6 -0.095,-0.488 -0.199,-0.618 -0.232,-0.288 m -95.221,0.876 c -0.015,0.592 0.152,1.188 0.372,1.324 0.478,0.295 0.478,-0.489 0,-1.6 -0.307,-0.714 -0.347,-0.685 -0.372,0.276 m 0.778,2.6 c -0.003,0.482 0.174,0.988 0.394,1.124 0.509,0.315 0.509,-0.612 0,-1.4 -0.315,-0.488 -0.389,-0.436 -0.394,0.276 M 138.6,192 c -0.15,0.473 -0.183,0.95 -0.073,1.06 0.11,0.11 0.323,-0.187 0.473,-0.66 0.15,-0.473 0.183,-0.95 0.073,-1.06 -0.11,-0.11 -0.323,0.187 -0.473,0.66 M 46,193.921 c 0,2.89 6.383,12.513 11.923,17.976 4.668,4.602 14.84,10.986 17.336,10.88 0.298,-0.013 -0.359,-0.433 -1.459,-0.934 -4.563,-2.077 -5.349,-2.499 -8.6,-4.618 C 57.698,212.334 51.01,204.493 47.438,196.4 46.184,193.557 46,193.241 46,193.921 m 91.892,-0.079 c -0.161,0.16 -0.292,0.567 -0.292,0.905 0,0.45 0.118,0.495 0.445,0.168 0.245,-0.245 0.376,-0.652 0.292,-0.905 -0.085,-0.253 -0.285,-0.329 -0.445,-0.168 m -1.611,3.893 c -3.865,8.443 -13.862,18.624 -22.013,22.42 -0.843,0.392 -1.446,0.801 -1.339,0.907 0.33,0.331 7.521,-3.684 8.271,-4.617 0.11,-0.137 0.9,-0.771 1.755,-1.409 1.999,-1.492 6.189,-5.682 7.681,-7.681 0.638,-0.855 1.262,-1.645 1.388,-1.755 1.152,-1.007 5.827,-9.482 5.443,-9.867 -0.102,-0.101 -0.635,0.8 -1.186,2.002 m 40.13,-1.476 c -0.017,0.724 2.251,4.842 4.414,8.016 1.086,1.594 1.973,3.039 1.97,3.211 C 182.789,207.902 64.857,325.799 64.672,325.574 63.892,324.621 62,321.568 62,321.261 c 0,-0.217 -0.135,-0.454 -0.3,-0.528 -0.376,-0.167 -1.675,-2.297 -1.971,-3.233 -0.122,-0.385 -0.398,-0.7 -0.614,-0.7 -0.215,0 0.109,0.855 0.721,1.9 2.003,3.422 4.597,7.3 4.883,7.3 0.154,0 26.95,-26.669 59.546,-59.265 l 59.265,-59.264 -2.065,-3.031 c -1.136,-1.666 -2.735,-4.292 -3.554,-5.835 -0.82,-1.543 -1.495,-2.598 -1.5,-2.346 M 110.2,222 c -0.88,0.407 -1.397,0.754 -1.149,0.77 0.559,0.037 3.349,-1.109 3.349,-1.375 0,-0.318 -0.509,-0.178 -2.2,0.605 m -34,1.2 c 0.136,0.22 0.642,0.387 1.124,0.372 0.845,-0.027 0.847,-0.041 0.076,-0.372 -1.101,-0.473 -1.492,-0.473 -1.2,0 m 30.6,0 c -0.488,0.315 -0.436,0.389 0.276,0.394 0.482,0.003 0.988,-0.174 1.124,-0.394 0.315,-0.509 -0.612,-0.509 -1.4,0 M 78.6,224 c 0.136,0.22 0.732,0.387 1.324,0.372 0.961,-0.025 0.99,-0.065 0.276,-0.372 -1.111,-0.478 -1.895,-0.478 -1.6,0 m 25.6,0 -0.8,0.344 0.8,0.022 c 0.44,0.012 1.07,-0.153 1.4,-0.366 0.795,-0.514 -0.204,-0.514 -1.4,0 M 82,224.777 c 0.539,0.369 3.968,0.633 3.567,0.274 -0.092,-0.082 -1.067,-0.269 -2.167,-0.416 -1.42,-0.19 -1.826,-0.149 -1.4,0.142 m 18,0.023 -1.4,0.295 1.6,0.046 c 0.88,0.026 1.87,-0.128 2.2,-0.341 0.724,-0.468 -0.177,-0.468 -2.4,0 m -12.956,0.847 c 0.416,0.163 2.736,0.297 5.156,0.297 2.42,0 4.74,-0.134 5.156,-0.297 0.416,-0.163 -1.904,-0.297 -5.156,-0.297 -3.252,0 -5.572,0.134 -5.156,0.297 m -59.427,5.573 c 0.01,0.319 0.168,1.3 0.352,2.18 1.341,6.413 1.823,8.583 2.888,13 0.663,2.75 1.368,5.54 1.566,6.2 0.198,0.66 0.743,2.55 1.21,4.2 0.468,1.65 1,3.45 1.183,4 0.184,0.55 0.814,2.586 1.402,4.524 0.587,1.938 1.157,3.434 1.266,3.325 0.109,-0.109 -0.165,-1.334 -0.609,-2.723 -1.762,-5.514 -3.678,-12.142 -4.487,-15.526 -0.184,-0.77 -0.529,-2.12 -0.767,-3 -0.437,-1.615 -0.953,-3.782 -1.644,-6.9 -0.207,-0.935 -0.57,-2.555 -0.806,-3.6 -0.236,-1.045 -0.523,-2.71 -0.639,-3.7 -0.195,-1.674 -0.955,-3.319 -0.915,-1.98 m 9.995,38.38 c 0,0.33 0.175,0.87 0.388,1.2 0.345,0.533 0.388,0.533 0.388,0 0,-0.33 -0.175,-0.87 -0.388,-1.2 -0.345,-0.533 -0.388,-0.533 -0.388,0 m 236.772,1.017 c -1.787,1.903 -6.142,2.121 -7.586,0.38 -0.273,-0.328 -0.676,-0.597 -0.896,-0.597 -0.727,0 0.674,1.314 1.985,1.862 1.823,0.762 3.858,0.667 5.501,-0.255 l 1.412,-0.793 0.012,0.893 c 0.011,0.818 0.048,0.832 0.434,0.169 0.231,-0.399 0.318,-0.993 0.192,-1.321 -0.129,-0.337 -0.057,-0.49 0.167,-0.352 0.217,0.134 0.395,0.064 0.395,-0.156 0,-0.854 -0.725,-0.778 -1.616,0.17 m -235.978,1.459 c 0.012,1.005 0.781,1.832 0.788,0.848 0.003,-0.482 -0.174,-0.988 -0.394,-1.124 -0.22,-0.136 -0.397,-0.012 -0.394,0.276 m 235.861,1.391 c -0.147,0.146 -0.267,0.686 -0.267,1.2 0,0.513 -0.18,0.933 -0.4,0.933 -0.22,0 -0.4,0.362 -0.4,0.805 0,0.443 -0.159,1.118 -0.353,1.5 -0.35,0.687 -0.92,2.046 -1.593,3.795 -0.442,1.146 -1.023,2.6 -1.6,4 -0.25,0.605 -0.611,1.505 -0.803,2 -0.192,0.495 -0.711,1.71 -1.153,2.7 -3.475,7.791 -4.419,9.857 -6.027,13.2 -1.006,2.09 -1.973,3.86 -2.15,3.933 -0.176,0.074 -0.321,0.479 -0.321,0.9 0,0.422 -0.138,0.767 -0.306,0.767 -0.168,0 -0.616,0.675 -0.995,1.5 -0.379,0.825 -1.235,2.4 -1.903,3.5 -0.668,1.1 -1.33,2.27 -1.472,2.6 -0.142,0.33 -0.768,1.352 -1.391,2.272 -0.623,0.92 -1.133,1.769 -1.133,1.887 0,0.4 -6.896,10.84 -7.25,10.974 -0.192,0.074 -0.35,0.297 -0.35,0.496 0,0.199 -0.26,0.679 -0.578,1.066 -0.317,0.388 -1.437,1.875 -2.487,3.305 -1.051,1.43 -2.011,2.69 -2.133,2.8 -0.122,0.11 -0.843,1.01 -1.602,2 -0.759,0.99 -1.481,1.89 -1.604,2 -0.124,0.11 -1.771,2 -3.661,4.2 -4.417,5.143 -12.238,12.722 -17.335,16.8 -2.2,1.76 -4.09,3.304 -4.2,3.43 -0.11,0.127 -1.37,1.014 -2.8,1.972 -1.43,0.959 -2.66,1.89 -2.733,2.07 -0.074,0.181 -0.311,0.328 -0.528,0.328 -0.217,0 -1.18,0.54 -2.139,1.2 -0.959,0.66 -1.937,1.2 -2.172,1.2 -0.235,0 -0.429,0.135 -0.431,0.3 -0.004,0.331 0.091,0.279 -6.331,3.476 -19.138,9.526 -38.938,11.654 -57.866,6.218 -0.88,-0.253 -2.097,-0.556 -2.705,-0.673 -0.608,-0.117 -1.203,-0.372 -1.324,-0.567 -0.12,-0.195 -0.492,-0.354 -0.826,-0.354 -0.892,0 -9.666,-3.569 -11.884,-4.834 -0.406,-0.232 -0.836,-0.324 -0.954,-0.206 -0.197,0.197 1.162,0.878 6.893,3.453 15.657,7.038 36.311,8.604 52,3.942 37.424,-11.121 69.077,-44.04 91.111,-94.755 0.43,-0.99 1.016,-2.34 1.302,-3 0.607,-1.402 3.137,-7.912 4.198,-10.8 1.26,-3.431 1.421,-4.299 0.656,-3.533 m -235.039,0.809 c 0.09,1.039 0.716,1.92 0.744,1.048 0.015,-0.482 -0.152,-0.988 -0.372,-1.124 -0.22,-0.136 -0.387,-0.102 -0.372,0.076 m 0.802,2.424 c 0.016,0.165 0.379,1.02 0.807,1.9 0.438,0.902 0.673,1.164 0.538,0.6 -0.132,-0.55 -0.336,-1.405 -0.454,-1.9 -0.193,-0.81 -0.963,-1.329 -0.891,-0.6 m 1.57,3.866 c 0,1.773 13.369,30.597 14.521,31.309 0.211,0.13 0.309,0.076 0.219,-0.119 -0.09,-0.196 -2.027,-4.136 -4.304,-8.756 -2.277,-4.62 -4.476,-9.165 -4.888,-10.1 -0.411,-0.935 -1.131,-2.555 -1.599,-3.6 -0.468,-1.045 -0.983,-2.26 -1.146,-2.7 -0.453,-1.224 -1.256,-3.121 -1.65,-3.895 -0.194,-0.382 -0.353,-0.956 -0.353,-1.276 0,-0.32 -0.18,-0.693 -0.4,-0.829 -0.22,-0.136 -0.4,-0.151 -0.4,-0.034 m 213.696,2.418 c 0.497,0.761 0.96,1.222 1.029,1.024 0.162,-0.465 -1.108,-2.408 -1.575,-2.408 -0.196,0 0.049,0.623 0.546,1.384 M 125.649,282.5 c 0.1,0.055 4.945,4.78 10.766,10.5 L 147,303.4 136.603,292.9 c -5.719,-5.775 -10.564,-10.5 -10.767,-10.5 -0.203,0 -0.287,0.045 -0.187,0.1 m -5.462,5.2 -2.387,2.5 2.5,-2.387 c 1.375,-1.314 2.5,-2.439 2.5,-2.5 0,-0.296 -0.395,0.065 -2.613,2.387 m 136.306,-1.3 c 0,0.77 0.082,1.085 0.183,0.7 0.1,-0.385 0.1,-1.015 0,-1.4 -0.101,-0.385 -0.183,-0.07 -0.183,0.7 m -0.718,2.378 c -1.009,2.262 -29.845,30.381 -31.832,31.041 -2.41,0.8 -5.701,-0.16 -7.543,-2.202 -0.11,-0.122 -1.64,-1.308 -3.4,-2.636 -4.464,-3.367 -13.132,-9.969 -16,-12.186 -5.713,-4.414 -10.986,-8.365 -12.051,-9.027 -2.15,-1.336 0.095,0.567 5.251,4.453 13.444,10.133 16.482,12.452 17.396,13.278 0.548,0.496 1.12,0.901 1.271,0.901 0.152,0 0.514,0.228 0.804,0.506 1.297,1.242 7.703,6.04 9.236,6.916 4.38,2.505 5.111,2.006 22.267,-15.169 14.506,-14.522 15.411,-15.497 15.138,-16.318 -0.08,-0.239 -0.322,-0.04 -0.537,0.443 m -80.175,3.197 c -0.709,0.245 0.069,0.357 2.676,0.385 2.022,0.022 3.788,0.22 3.924,0.44 0.136,0.22 0.552,0.393 0.924,0.384 0.456,-0.011 0.317,-0.211 -0.429,-0.616 -1.317,-0.714 -5.685,-1.079 -7.095,-0.593 m -3.407,1.497 c -1.821,1.224 -2.932,2.416 -9.999,10.728 -2.806,3.3 -5.867,6.9 -6.803,8 -0.935,1.1 -4.402,5.15 -7.703,9 -3.3,3.85 -5.941,7.064 -5.869,7.142 0.181,0.195 1.627,-1.313 3.781,-3.942 0.99,-1.209 2.274,-2.738 2.854,-3.399 1.031,-1.174 4.751,-5.531 8.346,-9.775 0.99,-1.168 2.16,-2.579 2.6,-3.135 0.44,-0.556 1.16,-1.395 1.6,-1.866 0.807,-0.863 4.356,-5.004 6.192,-7.225 2.291,-2.771 5.63,-5.8 6.393,-5.8 0.448,0 0.815,-0.18 0.815,-0.4 0,-0.631 -0.496,-0.48 -2.207,0.672 m -68.004,10.228 -2.789,2.9 2.9,-2.789 c 2.694,-2.591 3.083,-3.011 2.789,-3.011 -0.061,0 -1.366,1.305 -2.9,2.9 m 22.011,9.9 c 0,1.058 0.135,1.84 0.3,1.738 0.165,-0.102 0.3,-0.884 0.3,-1.738 0,-0.854 -0.135,-1.636 -0.3,-1.738 -0.165,-0.102 -0.3,0.68 -0.3,1.738 m -68.381,1.637 c 0.352,0.681 0.715,1.163 0.806,1.071 0.244,-0.243 -0.77,-2.301 -1.135,-2.305 -0.171,-0.002 -0.023,0.554 0.329,1.234 M 87.387,320.5 85,323 l 2.5,-2.387 c 2.322,-2.218 2.683,-2.613 2.387,-2.613 -0.061,0 -1.186,1.125 -2.5,2.5 m 38.388,8 -1.175,1.3 1.3,-1.175 c 1.212,-1.095 1.484,-1.425 1.175,-1.425 -0.069,0 -0.654,0.585 -1.3,1.3 m 13.583,2.6 c -1.067,1.265 -2.035,2.39 -2.152,2.5 -0.116,0.11 -1.2,1.367 -2.408,2.793 -2.776,3.275 -3.272,3.859 -6.809,8.007 -1.594,1.87 -3.663,4.3 -4.598,5.4 -0.934,1.1 -3.474,4.087 -5.645,6.638 -13.628,16.018 -12.326,13.97 -9.943,15.65 3.18,2.241 4.197,2.811 4.197,2.351 0,-0.241 -0.193,-0.439 -0.428,-0.439 -0.457,0 -3.803,-2.199 -4.726,-3.106 -0.471,-0.463 -0.373,-0.736 0.648,-1.819 0.661,-0.701 1.541,-1.703 1.954,-2.225 0.414,-0.523 1.112,-1.334 1.552,-1.802 0.44,-0.468 1.61,-1.84 2.6,-3.048 1.607,-1.962 3.44,-4.091 4.611,-5.356 0.226,-0.244 1.756,-2.064 3.4,-4.044 1.644,-1.98 3.178,-3.802 3.41,-4.049 0.231,-0.248 1.041,-1.212 1.8,-2.143 0.758,-0.931 1.829,-2.186 2.379,-2.79 0.55,-0.603 2.8,-3.216 5,-5.807 2.2,-2.592 4.415,-5.184 4.923,-5.761 1.246,-1.417 2.573,-3.25 2.353,-3.25 -0.098,0 -1.052,1.035 -2.118,2.3 m -69.171,6.6 -2.387,2.5 2.5,-2.387 c 2.322,-2.218 2.683,-2.613 2.387,-2.613 -0.061,0 -1.186,1.125 -2.5,2.5 m 37.447,12.053 -0.965,1.247 1.144,-1.088 c 0.63,-0.598 1.064,-1.159 0.966,-1.247 -0.099,-0.088 -0.614,0.402 -1.145,1.088 m -2.259,2.747 -1.175,1.3 1.3,-1.175 c 1.212,-1.095 1.484,-1.425 1.175,-1.425 -0.069,0 -0.654,0.585 -1.3,1.3 m -51.588,1.6 -2.387,2.5 2.5,-2.387 c 2.322,-2.218 2.683,-2.613 2.387,-2.613 -0.061,0 -1.186,1.125 -2.5,2.5 m 17.506,2.7 c 0,0.77 0.082,1.085 0.183,0.7 0.1,-0.385 0.1,-1.015 0,-1.4 -0.101,-0.385 -0.183,-0.07 -0.183,0.7 m -24.379,9.4 c 0.003,1.1 0.081,1.503 0.173,0.895 0.092,-0.609 0.09,-1.509 -0.005,-2 -0.095,-0.492 -0.171,0.005 -0.168,1.105 m 65.706,8.956 c 0.209,0.196 1.46,0.934 2.78,1.641 1.534,0.822 2.039,0.985 1.4,0.453 -0.55,-0.458 -1.18,-0.84 -1.4,-0.85 -0.22,-0.01 -0.85,-0.37 -1.4,-0.8 -0.999,-0.782 -2.128,-1.145 -1.38,-0.444 m -44.315,13.127 c 0.497,0.096 1.217,0.092 1.6,-0.008 0.382,-0.1 -0.025,-0.179 -0.905,-0.174 -0.88,0.004 -1.193,0.086 -0.695,0.182"
       stroke="none"
       fill="#bc9434"
       fill-rule="evenodd" />
    <path
       id="path7"
       d="m 246.1,181.876 c 0.385,0.1 1.015,0.1 1.4,0 0.385,-0.101 0.07,-0.183 -0.7,-0.183 -0.77,0 -1.085,0.082 -0.7,0.183 m 2.733,0.268 c 0.092,0.079 0.707,0.264 1.367,0.412 0.876,0.196 1.038,0.159 0.6,-0.138 -0.54,-0.365 -2.368,-0.62 -1.967,-0.274 M 222.2,186.4 c -0.504,0.217 -0.578,0.344 -0.2,0.344 0.33,0 0.96,-0.155 1.4,-0.344 0.504,-0.217 0.578,-0.344 0.2,-0.344 -0.33,0 -0.96,0.155 -1.4,0.344 m -44.601,43.9 -43.399,43.5 43.5,-43.399 c 40.441,-40.347 43.679,-43.601 43.399,-43.601 -0.055,0 -19.63,19.575 -43.5,43.5 m 80.839,-35.5 c -0.014,0.99 0.132,2.049 0.325,2.354 0.216,0.341 0.278,-0.196 0.161,-1.4 -0.264,-2.709 -0.456,-3.087 -0.486,-0.954 m 31.162,15.2 -1,0.32 1,0.034 c 0.55,0.019 1.27,-0.141 1.6,-0.354 0.764,-0.494 -0.058,-0.494 -1.6,0 m -4.2,0.8 -1.2,0.305 1.2,0.042 c 0.66,0.022 1.47,-0.134 1.8,-0.347 0.743,-0.48 0.087,-0.48 -1.8,0 m -4,0.8 -1.2,0.305 1.2,0.042 c 0.66,0.022 1.47,-0.134 1.8,-0.347 0.743,-0.48 0.087,-0.48 -1.8,0 m -5.3,0.687 c 0.605,0.091 1.595,0.091 2.2,0 0.605,-0.092 0.11,-0.167 -1.1,-0.167 -1.21,0 -1.705,0.075 -1.1,0.167 m 24.731,1.575 c 0.423,0.829 0.769,1.769 0.769,2.089 0,0.32 0.108,0.474 0.24,0.342 0.342,-0.341 -0.576,-2.942 -1.229,-3.484 -0.34,-0.282 -0.257,0.116 0.22,1.053 m 0.59,7.038 c -0.618,5.106 -0.605,5.073 -3.496,8.446 l -2.789,3.254 2.841,-3 c 3.008,-3.177 3.354,-3.932 3.805,-8.3 0.311,-3.021 -0.002,-3.368 -0.361,-0.4 M 291,236.671 c -1.98,2.108 -3.656,3.978 -3.725,4.155 -0.144,0.373 6.301,-6.286 7.091,-7.326 1.134,-1.492 0.093,-0.512 -3.366,3.171 m -18.935,19.192 c -2.495,2.53 -4.466,4.669 -4.381,4.755 0.086,0.085 2.304,-1.999 4.93,-4.632 2.625,-2.632 4.596,-4.772 4.38,-4.754 -0.217,0.017 -2.435,2.101 -4.929,4.631 M 168.7,253.082 c 0.495,0.096 1.305,0.096 1.8,0 0.495,-0.095 0.09,-0.173 -0.9,-0.173 -0.99,0 -1.395,0.078 -0.9,0.173 m 7.9,4.518 c 1.971,1.98 3.673,3.6 3.783,3.6 0.11,0 -1.412,-1.62 -3.383,-3.6 -1.971,-1.98 -3.673,-3.6 -3.783,-3.6 -0.11,0 1.412,1.62 3.383,3.6 m -12.899,1.4 c 0.004,0.88 0.086,1.193 0.182,0.695 0.096,-0.497 0.092,-1.217 -0.008,-1.6 -0.1,-0.382 -0.179,0.025 -0.174,0.905 m 102.012,3.478 c -1.485,1.82 -1.982,3.796 -1.358,5.401 l 0.436,1.121 -0.227,-1.3 c -0.335,-1.918 0.16,-3.586 1.528,-5.143 0.668,-0.761 1.146,-1.445 1.061,-1.52 -0.084,-0.075 -0.732,0.574 -1.44,1.441 M 164,261.528 c 0,0.24 1.485,1.94 3.3,3.777 1.815,1.838 2.204,2.161 0.864,0.718 -1.34,-1.443 -2.825,-3.142 -3.3,-3.777 -0.475,-0.635 -0.864,-0.958 -0.864,-0.718 m -23.829,18.383 c 0.644,0.704 1.25,1.201 1.347,1.104 0.193,-0.193 -0.465,-0.881 -1.72,-1.8 -0.439,-0.321 -0.271,-0.008 0.373,0.696 m 34.029,0.092 c -0.515,0.223 -0.087,0.264 1.2,0.115 1.1,-0.127 2.075,-0.295 2.167,-0.374 0.347,-0.299 -2.603,-0.072 -3.367,0.259 m 5.033,-0.259 c 0.092,0.079 1.067,0.247 2.167,0.374 1.287,0.149 1.715,0.108 1.2,-0.115 -0.764,-0.331 -3.714,-0.558 -3.367,-0.259 m 9.567,2.435 c 0,0.11 0.54,0.48 1.2,0.821 0.66,0.341 1.2,0.531 1.2,0.421 0,-0.11 -0.54,-0.48 -1.2,-0.821 -0.66,-0.341 -1.2,-0.531 -1.2,-0.421 m 3.4,2.092 c 0.22,0.203 1.3,1.05 2.4,1.882 l 2,1.513 -1.6,-1.468 c -0.88,-0.807 -1.96,-1.654 -2.4,-1.882 -0.44,-0.228 -0.62,-0.248 -0.4,-0.045 m -30.813,2.629 -2.387,2.5 2.5,-2.387 c 2.322,-2.218 2.683,-2.613 2.387,-2.613 -0.061,0 -1.186,1.125 -2.5,2.5 m 77.476,2.16 c -1.395,1.43 -2.465,2.671 -2.378,2.759 0.088,0.087 1.404,-1.097 2.926,-2.63 1.522,-1.534 2.592,-2.775 2.378,-2.759 -0.214,0.017 -1.531,1.201 -2.926,2.63 m -39.123,0.843 c 0.156,0.253 0.851,0.864 1.544,1.357 0.693,0.494 1.133,0.69 0.976,0.437 -0.156,-0.253 -0.851,-0.864 -1.544,-1.357 -0.693,-0.494 -1.133,-0.69 -0.976,-0.437 m -44.12,3.473 c -0.263,0.317 -0.735,0.478 -1.049,0.357 -0.314,-0.12 -0.571,-0.129 -0.571,-0.019 0,0.615 1.226,0.52 1.824,-0.141 0.385,-0.425 0.604,-0.773 0.487,-0.773 -0.117,0 -0.428,0.259 -0.691,0.576 m 55.58,5.341 c 0.77,0.663 1.477,1.131 1.571,1.04 0.192,-0.186 -0.962,-1.147 -2.171,-1.808 -0.44,-0.24 -0.17,0.105 0.6,0.768 m 2,1.408 c 0,0.388 8.011,6.275 8.539,6.275 0.277,0 1.115,-0.63 1.861,-1.4 0.746,-0.77 1.214,-1.4 1.039,-1.4 -0.175,0 -0.822,0.54 -1.439,1.2 -1.485,1.589 -1.498,1.586 -5.224,-1.3 -4.07,-3.153 -4.776,-3.651 -4.776,-3.375 m 12.486,2.099 c -0.503,0.537 -0.759,0.976 -0.57,0.976 0.19,0 0.767,-0.45 1.284,-1 0.517,-0.55 0.773,-0.989 0.57,-0.976 -0.204,0.014 -0.781,0.464 -1.284,1"
       stroke="none"
       fill="#7c848c"
       fill-rule="evenodd" />
    <path
       id="path8"
       d="m 194.982,34.2 c 0,8.8 0.053,12.343 0.118,7.873 0.064,-4.469 0.064,-11.669 -0.001,-16 -0.064,-4.33 -0.117,-0.673 -0.117,8.127 M 70.3,43.882 c 0.495,0.096 1.305,0.096 1.8,0 0.495,-0.095 0.09,-0.173 -0.9,-0.173 -0.99,0 -1.395,0.078 -0.9,0.173 M 242.2,46 c 1.306,1.32 2.465,2.4 2.575,2.4 0.11,0 -0.869,-1.08 -2.175,-2.4 -1.306,-1.32 -2.465,-2.4 -2.575,-2.4 -0.11,0 0.869,1.08 2.175,2.4 m 4.4,4.4 c 0.859,0.88 1.652,1.6 1.762,1.6 0.11,0 -0.503,-0.72 -1.362,-1.6 -0.859,-0.88 -1.652,-1.6 -1.762,-1.6 -0.11,0 0.503,0.72 1.362,1.6 m 96.6,13.8 c -0.972,0.99 -1.677,1.8 -1.567,1.8 0.11,0 0.995,-0.81 1.967,-1.8 0.972,-0.99 1.677,-1.8 1.567,-1.8 -0.11,0 -0.995,0.81 -1.967,1.8 m -10.4,10.4 c -0.972,0.99 -1.677,1.8 -1.567,1.8 0.11,0 0.995,-0.81 1.967,-1.8 0.972,-0.99 1.677,-1.8 1.567,-1.8 -0.11,0 -0.995,0.81 -1.967,1.8 m -8.4,8.4 c -0.972,0.99 -1.677,1.8 -1.567,1.8 0.11,0 0.995,-0.81 1.967,-1.8 0.972,-0.99 1.677,-1.8 1.567,-1.8 -0.11,0 -0.995,0.81 -1.967,1.8 M 314,93.4 c -0.972,0.99 -1.677,1.8 -1.567,1.8 0.11,0 0.995,-0.81 1.967,-1.8 0.972,-0.99 1.677,-1.8 1.567,-1.8 -0.11,0 -0.995,0.81 -1.967,1.8 m -20.8,20.8 c -0.972,0.99 -1.677,1.8 -1.567,1.8 0.11,0 0.995,-0.81 1.967,-1.8 0.972,-0.99 1.677,-1.8 1.567,-1.8 -0.11,0 -0.995,0.81 -1.967,1.8 m 86.587,31 c 0,12.43 0.051,17.515 0.113,11.3 0.062,-6.215 0.062,-16.385 0,-22.6 -0.062,-6.215 -0.113,-1.13 -0.113,11.3 M 244.1,129.876 c 0.385,0.1 1.015,0.1 1.4,0 0.385,-0.101 0.07,-0.183 -0.7,-0.183 -0.77,0 -1.085,0.082 -0.7,0.183 M 270.101,135 c 0.004,0.88 0.086,1.193 0.182,0.695 0.096,-0.497 0.092,-1.217 -0.008,-1.6 -0.1,-0.382 -0.179,0.025 -0.174,0.905 M 67.3,141.476 c 0.385,0.1 1.015,0.1 1.4,0 0.385,-0.101 0.07,-0.183 -0.7,-0.183 -0.77,0 -1.085,0.082 -0.7,0.183 m 177.6,0 c 0.385,0.1 1.015,0.1 1.4,0 0.385,-0.101 0.07,-0.183 -0.7,-0.183 -0.77,0 -1.085,0.082 -0.7,0.183 m 4.014,-0.059 c 0.173,0.189 -2.075,2.738 -4.994,5.664 -2.92,2.925 -5.219,5.319 -5.109,5.319 0.731,0 10.807,-10.739 10.333,-11.013 -0.3,-0.174 -0.403,-0.161 -0.23,0.03 M 264,143.4 c -0.972,0.99 -1.677,1.8 -1.567,1.8 0.11,0 0.995,-0.81 1.967,-1.8 0.972,-0.99 1.677,-1.8 1.567,-1.8 -0.11,0 -0.995,0.81 -1.967,1.8 M 74.5,142.276 c 0.385,0.1 1.015,0.1 1.4,0 0.385,-0.101 0.07,-0.183 -0.7,-0.183 -0.77,0 -1.085,0.082 -0.7,0.183 m 163.6,0 c 0.385,0.1 1.015,0.1 1.4,0 0.385,-0.101 0.07,-0.183 -0.7,-0.183 -0.77,0 -1.085,0.082 -0.7,0.183 M 24.093,148.8 c 0,0.77 0.082,1.085 0.183,0.7 0.1,-0.385 0.1,-1.015 0,-1.4 -0.101,-0.385 -0.183,-0.07 -0.183,0.7 m 0.272,2.126 c 0.179,0.179 1.116,0.265 2.081,0.192 l 1.754,-0.133 -2.081,-0.192 c -1.144,-0.106 -1.934,-0.046 -1.754,0.133 m 38.935,0.15 c 0.385,0.1 1.015,0.1 1.4,0 0.385,-0.101 0.07,-0.183 -0.7,-0.183 -0.77,0 -1.085,0.082 -0.7,0.183 M 135.8,164 c 0.859,0.88 1.652,1.6 1.762,1.6 0.11,0 -0.503,-0.72 -1.362,-1.6 -0.859,-0.88 -1.652,-1.6 -1.762,-1.6 -0.11,0 0.503,0.72 1.362,1.6 m 107.4,0.2 c -0.972,0.99 -1.677,1.8 -1.567,1.8 0.11,0 0.995,-0.81 1.967,-1.8 0.972,-0.99 1.677,-1.8 1.567,-1.8 -0.11,0 -0.995,0.81 -1.967,1.8 M 140.901,179 c 0.004,0.88 0.086,1.193 0.182,0.695 0.096,-0.497 0.092,-1.217 -0.008,-1.6 -0.1,-0.382 -0.179,0.025 -0.174,0.905 m 103.764,2.546 c -0.409,0.161 0.541,0.289 2.135,0.289 1.594,0 2.544,-0.128 2.135,-0.289 -0.404,-0.159 -1.365,-0.29 -2.135,-0.29 -0.77,0 -1.731,0.131 -2.135,0.29 M 240.6,182.4 c -1.019,0.438 0.032,0.438 1.4,0 0.804,-0.257 0.843,-0.323 0.2,-0.332 -0.44,-0.006 -1.16,0.143 -1.6,0.332 m -4.2,0.8 c -0.792,0.254 -0.833,0.32 -0.2,0.32 0.44,0 1.25,-0.144 1.8,-0.32 0.792,-0.254 0.833,-0.32 0.2,-0.32 -0.44,0 -1.25,0.144 -1.8,0.32 m 18.116,1.593 c 1.2,1.096 2.409,2.542 2.687,3.213 0.277,0.671 0.584,1.141 0.68,1.044 0.553,-0.552 -4.278,-6.25 -5.298,-6.25 -0.137,0 0.732,0.897 1.931,1.993 M 232.6,184 c -1.019,0.438 0.032,0.438 1.4,0 0.804,-0.257 0.843,-0.323 0.2,-0.332 -0.44,-0.006 -1.16,0.143 -1.6,0.332 m -4,0.8 -0.8,0.344 h 0.8 c 0.44,0 1.16,-0.155 1.6,-0.344 l 0.8,-0.344 h -0.8 c -0.44,0 -1.16,0.155 -1.6,0.344 m -4.2,0.8 c -0.792,0.254 -0.833,0.32 -0.2,0.32 0.44,0 1.25,-0.144 1.8,-0.32 0.792,-0.254 0.833,-0.32 0.2,-0.32 -0.44,0 -1.25,0.144 -1.8,0.32 m -46.696,44.098 C 153.667,253.731 134,273.589 134,273.825 c 0,0.237 0.45,0.822 1,1.3 0.55,0.478 1,0.692 1,0.476 0,-0.217 -0.36,-0.619 -0.8,-0.894 -0.44,-0.275 -0.8,-0.681 -0.8,-0.904 0,-0.661 86.511,-86.937 87.6,-87.362 0.841,-0.328 0.874,-0.394 0.204,-0.416 -0.539,-0.017 -14.869,14.046 -44.5,43.673 m 80.578,-38.477 c 0.126,0.978 0.293,1.854 0.373,1.946 0.326,0.375 0.105,-2.612 -0.234,-3.146 -0.237,-0.375 -0.286,0.049 -0.139,1.2 m 0.605,4.579 c 0.004,0.44 0.145,1.34 0.313,2 0.274,1.078 0.306,1.098 0.313,0.2 0.004,-0.55 -0.137,-1.45 -0.313,-2 -0.251,-0.784 -0.319,-0.827 -0.313,-0.2 m 2.985,8.143 c 0.772,1.424 4.328,4.857 5.031,4.857 0.229,0 -0.285,-0.511 -1.143,-1.136 -0.858,-0.625 -1.957,-1.66 -2.443,-2.3 -1.949,-2.569 -2.204,-2.819 -1.445,-1.421 M 124.199,266.9 65,326.2 124.3,267.001 c 32.615,-32.56 59.3,-59.245 59.3,-59.3 0,-0.28 -4.362,4.067 -59.401,59.199 m 144.012,-57.166 c 0.885,0.598 2.189,1.124 2.189,0.883 0,-0.18 -2.402,-1.417 -2.75,-1.417 -0.126,0 0.127,0.24 0.561,0.534 m 21.589,-0.131 c -0.515,0.223 -0.087,0.264 1.2,0.115 1.1,-0.127 2.075,-0.295 2.167,-0.374 0.347,-0.299 -2.603,-0.072 -3.367,0.259 m 6.102,-0.012 c 1.679,0.398 3.782,1.846 4.729,3.256 0.411,0.61 0.812,1.043 0.893,0.963 0.799,-0.8 -4.213,-4.643 -5.959,-4.569 -0.783,0.033 -0.72,0.099 0.337,0.35 M 285.8,210.41 c -0.534,0.237 -0.202,0.276 1,0.117 0.99,-0.131 1.875,-0.303 1.967,-0.383 0.347,-0.301 -2.203,-0.072 -2.967,0.266 m -14.4,0.79 c 1.196,0.514 2.195,0.514 1.4,0 -0.33,-0.213 -0.96,-0.378 -1.4,-0.366 l -0.8,0.022 0.8,0.344 m 10.4,0.019 c -0.558,0.252 -0.315,0.288 0.8,0.119 0.88,-0.134 1.675,-0.31 1.767,-0.391 0.343,-0.303 -1.799,-0.076 -2.567,0.272 m -6.3,0.674 c 0.935,0.084 2.465,0.084 3.4,0 0.935,-0.084 0.17,-0.153 -1.7,-0.153 -1.87,0 -2.635,0.069 -1.7,0.153 m 26.358,3.707 c 0.317,1.725 0.544,2.051 0.536,0.767 -0.003,-0.532 -0.183,-1.237 -0.4,-1.567 -0.276,-0.422 -0.317,-0.185 -0.136,0.8 m -0.012,4.646 c -0.146,1.247 -0.187,2.347 -0.089,2.444 0.097,0.098 0.304,-0.836 0.458,-2.075 0.155,-1.238 0.195,-2.338 0.09,-2.444 -0.106,-0.105 -0.312,0.828 -0.459,2.075 m -0.646,4.923 c 0,0.423 -0.47,1.368 -1.045,2.1 l -1.046,1.331 1.246,-1.306 c 1.057,-1.109 1.702,-2.894 1.045,-2.894 -0.11,0 -0.2,0.346 -0.2,0.769 M 86.1,225.076 c 0.385,0.1 1.015,0.1 1.4,0 0.385,-0.101 0.07,-0.183 -0.7,-0.183 -0.77,0 -1.085,0.082 -0.7,0.183 m 10.8,0 c 0.385,0.1 1.015,0.1 1.4,0 0.385,-0.101 0.07,-0.183 -0.7,-0.183 -0.77,0 -1.085,0.082 -0.7,0.183 m -5.793,0.414 c 0.719,0.089 1.799,0.087 2.4,-0.004 0.601,-0.091 0.013,-0.164 -1.307,-0.162 -1.32,0.002 -1.812,0.077 -1.093,0.166 m 201.735,9.71 c -2.917,3.08 -5.21,5.6 -5.094,5.6 0.22,0 6.048,-6 9.035,-9.3 3.575,-3.951 1.155,-1.679 -3.941,3.7 m -11.294,11.727 c -2.281,2.27 -4.395,4.43 -4.697,4.8 -1.333,1.634 0.099,0.335 4.549,-4.127 2.633,-2.64 4.677,-4.8 4.542,-4.8 -0.135,0 -2.113,1.857 -4.394,4.127 m -115.205,7.253 c -0.793,0.539 -1.563,1.304 -1.71,1.7 -0.169,0.454 0.128,0.298 0.805,-0.423 0.591,-0.628 1.634,-1.386 2.318,-1.684 0.684,-0.298 0.971,-0.549 0.637,-0.557 -0.334,-0.009 -1.256,0.425 -2.05,0.964 m 10.075,3.641 c 2.08,2.211 3.864,3.959 3.964,3.884 0.1,-0.075 -1.602,-1.884 -3.782,-4.02 l -3.963,-3.885 3.781,4.021 m -12.393,2.635 c -0.014,0.36 0.29,0.999 0.675,1.419 0.385,0.419 0.572,0.565 0.416,0.322 -0.156,-0.242 -0.46,-0.88 -0.675,-1.419 -0.247,-0.618 -0.4,-0.737 -0.416,-0.322 M 268,260.513 c -1.132,0.919 -3.2,3.515 -3.188,4.001 0.007,0.267 0.21,0.126 0.452,-0.314 0.241,-0.44 1.173,-1.565 2.071,-2.5 1.588,-1.655 1.879,-2.173 0.665,-1.187 m -87.429,4.128 c 0,1.297 0.119,1.911 0.287,1.485 0.387,-0.983 0.398,-2.618 0.022,-3.211 -0.17,-0.267 -0.309,0.51 -0.309,1.726 M 168.2,266 c 2.645,2.665 3.739,3.58 2.549,2.132 -1.047,-1.275 -4.802,-4.932 -5.064,-4.932 -0.145,0 0.987,1.26 2.515,2.8 m 96.293,0.4 c 0,0.77 0.082,1.085 0.183,0.7 0.1,-0.385 0.1,-1.015 0,-1.4 -0.101,-0.385 -0.183,-0.07 -0.183,0.7 m 0.334,2 c -10e-4,0.33 0.263,0.949 0.586,1.376 0.747,0.988 0.739,0.339 -0.013,-0.976 -0.332,-0.58 -0.572,-0.748 -0.573,-0.4 m -91.489,1.694 c 0.607,0.386 3.762,0.391 4,0.006 0.102,-0.165 -0.86,-0.3 -2.138,-0.3 -1.278,0 -2.116,0.132 -1.862,0.294 m -32.155,11.213 c 0.981,1.041 1.934,1.893 2.118,1.893 0.351,0 -0.736,-1.114 -2.724,-2.793 -0.648,-0.547 -0.375,-0.142 0.606,0.9 m 34.117,-1.031 c 0.385,0.1 1.015,0.1 1.4,0 0.385,-0.101 0.07,-0.183 -0.7,-0.183 -0.77,0 -1.085,0.082 -0.7,0.183 m 4.8,0 c 0.385,0.1 1.015,0.1 1.4,0 0.385,-0.101 0.07,-0.183 -0.7,-0.183 -0.77,0 -1.085,0.082 -0.7,0.183 m -8.3,0.524 c -1.019,0.438 0.032,0.438 1.4,0 0.804,-0.257 0.843,-0.323 0.2,-0.332 -0.44,-0.006 -1.16,0.143 -1.6,0.332 m 10.633,-0.257 c 0.092,0.078 0.797,0.258 1.567,0.399 0.985,0.181 1.222,0.14 0.8,-0.136 -0.542,-0.356 -2.763,-0.603 -2.367,-0.263 m 65.367,0.593 c -1.254,0.766 -3.58,2.934 -4.59,4.279 -0.324,0.432 0.595,-0.33 2.042,-1.693 2.85,-2.682 3.906,-3.14 6.451,-2.799 1.08,0.145 1.454,0.095 1.076,-0.144 -0.971,-0.615 -3.709,-0.419 -4.979,0.357 m -123.822,2.364 -1.378,1.5 1.5,-1.378 c 1.396,-1.284 1.684,-1.622 1.378,-1.622 -0.066,0 -0.741,0.675 -1.5,1.5 m 41.784,0.042 c -2.293,1.497 -5.884,5.018 -9.188,9.009 -1.52,1.835 -1.655,1.91 -2.295,1.271 -0.373,-0.373 -0.679,-0.493 -0.679,-0.265 0,1.632 1.589,1.141 3.445,-1.065 3.804,-4.521 6.998,-7.57 9.447,-9.019 1.369,-0.81 2.297,-1.473 2.061,-1.473 -0.236,0 -1.492,0.694 -2.791,1.542 m 23.838,-0.629 c 0.11,0.118 1.19,0.871 2.4,1.673 1.41,0.934 1.769,1.083 1,0.415 -1.029,-0.894 -3.97,-2.7 -3.4,-2.088 m -45.2,1.687 c 0.517,0.55 1.096,1 1.288,1 0.192,0 -0.102,-0.45 -0.652,-1 -0.55,-0.55 -1.129,-1 -1.288,-1 -0.158,0 0.135,0.45 0.652,1 m 4.189,4.189 c 1.522,1.533 2.839,2.717 2.926,2.629 0.201,-0.201 -4.996,-5.418 -5.397,-5.418 -0.163,0 0.949,1.255 2.471,2.789 m 49.034,-0.094 c 0.012,0.168 2.127,1.863 4.7,3.767 2.572,1.904 6.375,4.776 8.451,6.381 2.075,1.606 3.655,2.728 3.51,2.493 -0.145,-0.234 -1.753,-1.565 -3.574,-2.958 -10.439,-7.983 -13.108,-9.958 -13.087,-9.683 M 114,293.4 c -0.972,0.99 -1.677,1.8 -1.567,1.8 0.11,0 0.995,-0.81 1.967,-1.8 0.972,-0.99 1.677,-1.8 1.567,-1.8 -0.11,0 -0.995,0.81 -1.967,1.8 m 117.548,3.527 c -2.281,2.27 -4.395,4.43 -4.697,4.8 -1.333,1.634 0.099,0.335 4.549,-4.127 2.633,-2.64 4.677,-4.8 4.542,-4.8 -0.135,0 -2.113,1.857 -4.394,4.127 m -13.408,7.376 c 0.156,0.253 0.851,0.864 1.544,1.357 0.693,0.494 1.133,0.69 0.976,0.437 -0.156,-0.253 -0.851,-0.864 -1.544,-1.357 -0.693,-0.494 -1.133,-0.69 -0.976,-0.437 M 93.2,314.2 c -0.972,0.99 -1.677,1.8 -1.567,1.8 0.11,0 0.995,-0.81 1.967,-1.8 0.972,-0.99 1.677,-1.8 1.567,-1.8 -0.11,0 -0.995,0.81 -1.967,1.8 m -10.4,10.4 c -0.972,0.99 -1.677,1.8 -1.567,1.8 0.11,0 0.995,-0.81 1.967,-1.8 0.972,-0.99 1.677,-1.8 1.567,-1.8 -0.11,0 -0.995,0.81 -1.967,1.8 m -8.4,8.4 c -0.972,0.99 -1.677,1.8 -1.567,1.8 0.11,0 0.995,-0.81 1.967,-1.8 0.972,-0.99 1.677,-1.8 1.567,-1.8 -0.11,0 -0.995,0.81 -1.967,1.8 M 64,343.4 c -0.972,0.99 -1.677,1.8 -1.567,1.8 0.11,0 0.995,-0.81 1.967,-1.8 0.972,-0.99 1.677,-1.8 1.567,-1.8 -0.11,0 -0.995,0.81 -1.967,1.8 m 86.5,44.876 c 0.385,0.1 1.015,0.1 1.4,0 0.385,-0.101 0.07,-0.183 -0.7,-0.183 -0.77,0 -1.085,0.082 -0.7,0.183 m 11.2,0 c 0.385,0.1 1.015,0.1 1.4,0 0.385,-0.101 0.07,-0.183 -0.7,-0.183 -0.77,0 -1.085,0.082 -0.7,0.183"
       stroke="none"
       fill="#747c7c"
       fill-rule="evenodd" />
  </g>
</svg>
