<?xml version="1.0" encoding="UTF-8" standalone="no"?>
<!-- Created with Inkscape (http://www.inkscape.org/) -->

<svg
   width="100"
   height="100"
   viewBox="0 0 100 100"
   version="1.1"
   id="svg1"
   xml:space="preserve"
   xmlns="http://www.w3.org/2000/svg"
   xmlns:svg="http://www.w3.org/2000/svg"><defs
     id="defs1" /><g
     id="layer1"><g
       id="g1"
       transform="scale(0.1953125)"><path
         d="M 0,0 H 512 V 512 H 0 Z"
         id="path1" /><path
         fill="#ffffff"
         d="M 256,23 C 127.4,23 23,127.4 23,256 23,384.6 127.4,489 256,489 384.6,489 489,384.6 489,256 489,127.4 384.6,23 256,23 M 222.3,43.63 C 190,66.85 163.6,92.25 143.2,119 H 90.26 C 122.9,79.54 169.4,51.95 222.3,43.63 m 67.4,0 c 52.9,8.32 99.4,35.91 132,75.37 H 368.8 C 348.4,92.25 322,66.85 289.7,43.63 M 229.5,60.61 C 219,80.42 210,99.85 202.5,119 h -36.3 c 17.1,-20.39 38.2,-40 63.3,-58.39 m 53,0 c 25.1,18.39 46.2,38 63.3,58.39 H 309.5 C 302,99.85 293,80.42 282.5,60.61 M 247,65.99 V 119 h -25.1 c 7,-17.3 15.4,-34.95 25.1,-53.01 m 18,0 c 9.7,18.06 18.1,35.71 25.1,53.01 H 265 Z M 76.89,137 h 53.51 c -9.8,15 -17.8,30.4 -23.9,46 H 53.71 c 5.89,-16.3 13.71,-31.8 23.18,-46 m 75.21,0 h 43.8 c -5.4,15.5 -9.6,30.8 -12.9,46 h -57.1 c 6.7,-15.6 15.5,-30.9 26.2,-46 m 62.8,0 H 247 v 46 h -45.6 c 3.4,-15.2 7.9,-30.5 13.5,-46 m 50.1,0 h 32.1 c 5.6,15.5 10.1,30.8 13.5,46 H 265 Z m 51.1,0 h 43.8 c 10.7,15.1 19.5,30.4 26.2,46 H 329 c -3.3,-15.2 -7.5,-30.5 -12.9,-46 m 65.5,0 h 53.5 c 9.5,14.2 17.3,29.7 23.2,46 h -52.8 c -6.1,-15.6 -14.1,-31 -23.9,-46 M 48.1,201 h 52.1 c -4.63,15.2 -7.5,30.6 -8.64,46 H 41.2 c 0.65,-15.8 3.01,-31.2 6.9,-46 m 70.9,0 h 60.5 c -2.5,15.4 -3.9,30.7 -4.4,46 h -65.5 c 1.2,-15.3 4.4,-30.7 9.4,-46 m 78.8,0 H 247 v 46 h -53.9 c 0.5,-15.3 2,-30.6 4.7,-46 m 67.2,0 h 49.2 c 2.7,15.4 4.2,30.7 4.7,46 H 265 Z m 67.5,0 H 393 c 5,15.3 8.2,30.7 9.4,46 h -65.5 c -0.5,-15.3 -1.9,-30.6 -4.4,-46 m 79.3,0 h 52.1 c 3.9,14.8 6.2,30.2 6.9,46 h -50.4 c -1.1,-15.4 -4,-30.8 -8.6,-46 M 41.2,265 h 49.83 c 0.23,15.5 2.24,30.9 6.02,46 H 48.1 c -3.89,-14.8 -6.25,-30.2 -6.9,-46 m 67.8,0 h 66.1 c 0.5,15.3 1.9,30.6 4.4,46 h -63.9 c -4.1,-15.2 -6.3,-30.6 -6.6,-46 m 84.1,0 H 247 v 46 h -49.2 c -2.7,-15.4 -4.2,-30.7 -4.7,-46 m 71.9,0 h 53.9 c -0.5,15.3 -2,30.6 -4.7,46 H 265 Z m 71.9,0 H 403 c -0.3,15.4 -2.5,30.8 -6.6,46 h -63.9 c 2.5,-15.4 3.9,-30.7 4.4,-46 m 84.1,0 h 49.8 c -0.7,15.8 -3,31.2 -6.9,46 H 415 c 3.7,-15.1 5.7,-30.5 6,-46 M 53.71,329 h 48.69 c 5.4,15.7 12.8,31.1 22.1,46 H 76.89 C 67.42,360.8 59.6,345.3 53.71,329 m 67.69,0 H 183 c 3.3,15.2 7.5,30.5 12.9,46 h -50 c -10.4,-14.9 -18.5,-30.3 -24.5,-46 m 80,0 H 247 v 46 h -32.1 c -5.6,-15.5 -10.1,-30.8 -13.5,-46 m 63.6,0 h 45.6 c -3.4,15.2 -7.9,30.5 -13.5,46 H 265 Z m 64,0 h 61.6 c -6,15.7 -14.1,31.1 -24.5,46 h -50 c 5.4,-15.5 9.6,-30.8 12.9,-46 m 80.6,0 h 48.7 c -5.9,16.3 -13.7,31.8 -23.2,46 h -47.6 c 9.3,-14.9 16.7,-30.3 22.1,-46 M 90.26,393 h 46.64 c 20.3,27.1 47.3,52.3 80.9,74.6 C 166.8,458.5 122,431.3 90.26,393 m 69.34,0 h 42.9 c 7.9,20.4 17.6,41 29,62.1 -29.3,-18.9 -53.2,-39.8 -71.9,-62.1 m 62.3,0 H 247 v 53 c -9.7,-18 -18.1,-35.7 -25.1,-53 m 43.1,0 h 25.1 c -7,17.3 -15.4,35 -25.1,53 z m 44.5,0 h 42.9 c -18.7,22.3 -42.6,43.2 -71.9,62.1 11.4,-21.1 21.1,-41.7 29,-62.1 m 65.6,0 h 46.6 c -31.7,38.3 -76.5,65.5 -127.5,74.6 33.6,-22.3 60.6,-47.5 80.9,-74.6"
         id="path2" /></g></g></svg>
