<?xml version="1.0" encoding="UTF-8" standalone="no"?>
<!-- Created with Inkscape (http://www.inkscape.org/) -->

<svg
   width="100"
   height="100"
   viewBox="0 0 100 100"
   version="1.1"
   id="svg1"
   xml:space="preserve"
   xmlns="http://www.w3.org/2000/svg"
   xmlns:svg="http://www.w3.org/2000/svg"><defs
     id="defs1" /><g
     id="layer1"><g
       id="g1"
       transform="scale(0.1953125)"><path
         d="M 0,0 H 512 V 512 H 0 Z"
         id="path1" /><path
         fill="#ffffff"
         d="m 203.97,23 -18.032,4.844 11.656,43.468 c -25.837,8.076 -50.32,21.653 -71.594,40.75 l -31.47,-31.468 -13.218,13.22 31.376,31.374 c -19.467,21.125 -33.414,45.53 -41.813,71.343 l -42.313,-11.343 -4.843,18.063 42.25,11.313 c -6.057,27.3 -6.157,55.656 -0.345,83 l -41.904,11.216 4.843,18.064 41.812,-11.22 a 193.3,193.3 0 0 0 31.25,59.876 l -29.97,52.688 -16.81,29.593 29.56,-16.842 52.657,-29.97 a 193.3,193.3 0 0 0 60.094,31.407 l -11.22,41.844 18.033,4.81 11.218,-41.905 a 195.7,195.7 0 0 0 83,-0.375 l 11.312,42.28 18.063,-4.81 -11.344,-42.376 c 25.812,-8.4 50.217,-22.315 71.342,-41.78 l 31.375,31.373 13.22,-13.218 -31.47,-31.47 a 193.3,193.3 0 0 0 40.72,-71.563 l 43.53,11.657 4.813,-18.063 -43.625,-11.686 a 195.7,195.7 0 0 0 -0.344,-82.063 l 43.97,-11.78 -4.813,-18.063 L 440.908,197 c -6.73,-20.866 -17.08,-40.79 -31.032,-58.844 l 29.97,-52.656 16.842,-29.563 -29.593,16.844 -52.656,29.97 C 356.441,88.876 336.565,78.553 315.782,71.845 l 11.783,-44 L 309.5,23 297.72,66.97 c -27,-5.925 -55.02,-6.05 -82.064,-0.376 z m 201.56,85 -108.28,190.313 -0.75,0.437 -40.844,-40.875 -148.72,148.72 -2.186,1.25 109.125,-191.75 41.78,41.78 L 405.532,108 Z m -149.686,10.594 c 21.858,0 43.717,5.166 63.594,15.47 l -116.625,66.342 -2.22,1.28 -1.28,2.22 -66.25,116.406 c -26.942,-52.04 -18.616,-117.603 25.03,-161.25 26.99,-26.988 62.38,-40.468 97.75,-40.468 z m 122.72,74.594 c 26.994,52.054 18.67,117.672 -25.002,161.343 -43.66,43.662 -109.263,52.005 -161.312,25.033 l 116.438,-66.282 2.25,-1.25 1.25,-2.25 66.375,-116.592 z"
         id="path2" /></g></g></svg>
