<?xml version="1.0" encoding="UTF-8" standalone="no"?>
<svg
   id="svg"
   version="1.1"
   width="99.400948"
   height="100"
   viewBox="0 0 99.400948 100"
   xmlns="http://www.w3.org/2000/svg"
   xmlns:svg="http://www.w3.org/2000/svg">
  <defs
     id="defs1" />
  <g
     id="svgg"
     transform="matrix(0.25000238,0,0,0.25000238,-0.30000286,-0.0183882)">
    <path
       id="path0"
       d="m 196.8,6.538 c 0,0.124 0.644,0.53 1.431,0.904 0.787,0.373 1.912,1.305 2.5,2.071 2.641,3.441 3.35,4.087 4.48,4.087 1.117,0 3.589,-1.698 3.589,-2.466 0,-0.218 -0.554,0.158 -1.231,0.835 -2.016,2.017 -3.705,1.531 -5.711,-1.643 C 200.621,8.369 196.8,5.508 196.8,6.538 M 213.2,6.8 c -0.533,0.345 -0.533,0.388 0,0.388 0.33,0 0.87,-0.175 1.2,-0.388 0.533,-0.345 0.533,-0.388 0,-0.388 -0.33,0 -0.87,0.175 -1.2,0.388 m 3.774,-0.043 c 0.15,0.244 0.578,0.444 0.95,0.445 3.239,0.01 6.165,9.177 4.162,13.041 -0.216,0.416 -0.629,1.297 -0.918,1.957 -1.821,4.157 -7.682,9.861 -13.691,13.323 -2.248,1.295 -3.345,1.062 -7.077,-1.504 -1.41,-0.97 -2,-1.293 -2,-1.096 0,0.206 2.69,2.004 4.624,3.09 2.437,1.369 4.931,0.301 11.08,-4.745 9.427,-7.735 12.055,-19.069 5.496,-23.697 -1.269,-0.895 -3.01,-1.435 -2.626,-0.814 m -26.778,1.647 c -0.63,0.658 -1.03,1.196 -0.889,1.196 0.365,0 2.373,-2.053 2.188,-2.238 -0.084,-0.085 -0.669,0.384 -1.299,1.042 m 20.195,0.252 c -0.887,0.801 -1.547,1.521 -1.467,1.601 0.079,0.079 0.901,-0.576 1.827,-1.456 2.103,-2.001 1.82,-2.115 -0.36,-0.145 m -22.518,3.897 c -0.15,0.392 -0.257,1.193 -0.237,1.78 0.034,0.995 0.062,0.976 0.421,-0.27 0.416,-1.444 0.266,-2.681 -0.184,-1.51 m -0.198,4.847 c -0.01,0.66 0.136,1.56 0.325,2 l 0.344,0.8 -0.019,-0.8 c -0.011,-0.44 -0.157,-1.34 -0.325,-2 l -0.305,-1.2 -0.02,1.2 m 0.742,3.7 c 0.022,0.401 1.545,3.17 1.566,2.849 0.028,-0.414 -1.178,-3.149 -1.388,-3.149 -0.107,0 -0.187,0.135 -0.178,0.3 m 6.309,8.801 c 1.653,1.596 3.099,2.807 3.215,2.691 0.116,-0.116 -0.228,-0.513 -0.765,-0.883 -0.537,-0.369 -1.984,-1.58 -3.215,-2.69 -1.232,-1.111 -0.888,-0.713 0.765,0.882 M 8,92.8 v 12 h 23.6 23.6 v -12 -12 H 31.6 8 v 12 m 136.8,0 v 12 h 10.769 10.77 l 1.204,1.014 c 0.663,0.557 1.262,1.412 1.331,1.9 0.122,0.857 0.299,0.89 5.326,0.991 l 5.2,0.106 0.67,-1.604 c 1.047,-2.508 -0.735,-2.407 42.556,-2.407 H 262.4 v -12 -12 h -58.8 -58.8 v 12 m 189.862,83.5 c -0.102,0.165 3.65,0.3 8.338,0.3 4.688,0 8.44,-0.135 8.338,-0.3 -0.102,-0.165 -3.854,-0.3 -8.338,-0.3 -4.484,0 -8.236,0.135 -8.338,0.3 m -107.768,61 0.106,12.1 82.5,0.101 82.5,0.101 V 237.401 225.2 h -82.606 -82.606 l 0.106,12.1 m 81.306,53.9 c -0.733,0.315 -0.716,0.346 0.2,0.366 0.55,0.012 1.27,-0.153 1.6,-0.366 0.787,-0.509 -0.616,-0.509 -1.8,0 m 6.2,0 c 0.33,0.213 1.05,0.378 1.6,0.366 0.916,-0.02 0.933,-0.051 0.2,-0.366 -1.184,-0.509 -2.587,-0.509 -1.8,0 m -9.331,1.243 c -8.221,4.338 -9.796,16.017 -3.069,22.754 7.025,7.036 18.994,5.107 23.129,-3.726 0.998,-2.134 1.652,-4.911 0.911,-3.871 -0.235,0.33 -0.431,0.994 -0.434,1.476 -0.003,0.482 -0.186,0.988 -0.406,1.124 -0.22,0.136 -0.4,0.586 -0.4,1.001 0,3.175 -7.444,7.767 -12.6,7.773 -14.468,0.016 -19.469,-20.227 -6.5,-26.308 0.825,-0.387 1.5,-0.785 1.5,-0.885 0,-0.334 -0.59,-0.151 -2.131,0.662 m 12.131,-0.662 c 0,0.1 0.675,0.5 1.5,0.889 2.814,1.326 6.886,6.32 6.906,8.468 0.003,0.364 0.194,0.932 0.424,1.262 0.766,1.099 -0.069,-2.083 -1.049,-4 -1.57,-3.069 -7.781,-8.353 -7.781,-6.619 M 326.514,305 c 0.003,1.1 0.081,1.503 0.173,0.895 0.092,-0.609 0.09,-1.509 -0.005,-2 -0.095,-0.492 -0.171,0.005 -0.168,1.105 m -152.324,22.494 5.392,0.128 0.123,6.889 0.123,6.889 -0.014,-7 -0.014,-7 -5.501,-0.018 -5.5,-0.017 5.391,0.129 M 8,381.6 v 12 h 8.414 c 9.501,0 9.896,0.103 10.788,2.805 L 27.728,398 h 4.487 4.488 l 0.513,-1.3 c 0.283,-0.715 0.876,-1.705 1.318,-2.2 l 0.805,-0.9 H 215.67 392 v -12 -12 H 200 8 v 12"
       stroke="none"
       fill="#b37254"
       fill-rule="evenodd" />
    <path
       id="path1"
       d="M 8,66.8 V 74 H 31.6 55.2 V 66.8 59.6 H 31.6 8 v 7.2 m 136.8,0 V 74 h 58.8 58.8 v -7.2 -7.2 h -58.8 -58.8 v 7.2 m 82,144.6 v 7.4 h 82.6 82.6 v -7.4 -7.4 h -82.6 -82.6 v 7.4 m -54.093,83.69 c 0.719,0.089 1.799,0.087 2.4,-0.004 0.601,-0.091 0.013,-0.164 -1.307,-0.162 -1.32,0.002 -1.812,0.077 -1.093,0.166 m -4.002,0.393 c 0.497,0.096 1.217,0.092 1.6,-0.008 0.382,-0.1 -0.025,-0.179 -0.905,-0.174 -0.88,0.004 -1.193,0.086 -0.695,0.182 m 8.8,0 c 0.497,0.096 1.217,0.092 1.6,-0.008 0.382,-0.1 -0.025,-0.179 -0.905,-0.174 -0.88,0.004 -1.193,0.086 -0.695,0.182 M 194.2,303.2 c 0.859,0.88 1.652,1.6 1.762,1.6 0.11,0 -0.503,-0.72 -1.362,-1.6 -0.859,-0.88 -1.652,-1.6 -1.762,-1.6 -0.11,0 0.503,0.72 1.362,1.6 m 8.398,14.395 c 10e-4,1.059 0.137,1.843 0.302,1.742 0.385,-0.236 0.379,-2.593 -0.008,-3.202 -0.163,-0.256 -0.295,0.401 -0.294,1.46 m -57.64,-0.57 c -0.142,0.564 -0.1,1.379 0.092,1.81 0.264,0.591 0.35,0.338 0.35,-1.026 0,-2.075 -0.082,-2.22 -0.442,-0.784 M 8.091,355.7 8.2,363 200.1,363.1 392,363.201 V 355.8 348.4 H 199.991 7.982 l 0.109,7.3"
       stroke="none"
       fill="#90de70"
       fill-rule="evenodd" />
    <path
       id="path2"
       d="m 193.4,6.8 c -0.136,0.22 -0.525,0.4 -0.864,0.4 -3.669,0 -5.833,8.855 -3.494,14.3 1.323,3.081 1.871,4.1 2.204,4.1 0.195,0 0.354,0.243 0.354,0.539 0,0.846 5.04,5.437 8.317,7.574 4.6,3.002 5.229,3.152 7.56,1.81 6.009,-3.462 11.87,-9.166 13.691,-13.323 0.289,-0.66 0.702,-1.541 0.918,-1.957 1.935,-3.735 -0.909,-13.029 -3.991,-13.041 -0.278,-0.001 -0.838,-0.209 -1.244,-0.463 -1.627,-1.016 -8.051,2.451 -8.051,4.345 0,0.808 -2.436,2.516 -3.589,2.516 -1.127,0 -1.828,-0.637 -4.452,-4.047 C 198.951,7.203 194.24,5.441 193.4,6.8"
       stroke="none"
       fill="#fd5f7b"
       fill-rule="evenodd" />
    <path
       id="path3"
       d="m 189.7,0.264 c -0.495,0.105 -0.9,0.359 -0.9,0.564 0,0.205 -0.32,0.372 -0.712,0.372 -0.391,0 -0.971,0.36 -1.288,0.8 -0.317,0.44 -0.813,0.8 -1.101,0.8 -0.288,0 -0.645,0.315 -0.792,0.699 -0.148,0.384 -0.639,1.069 -1.092,1.522 -0.453,0.453 -1.155,1.624 -1.56,2.601 -0.406,0.978 -0.899,2.091 -1.096,2.473 -0.498,0.962 -0.461,11.395 0.041,11.705 0.22,0.136 0.4,0.777 0.4,1.424 0,0.647 0.18,1.176 0.4,1.176 0.22,0 0.4,0.36 0.4,0.8 0,0.44 0.18,0.8 0.4,0.8 0.22,0 0.4,0.36 0.4,0.8 0,0.44 0.18,0.8 0.4,0.8 0.22,0 0.4,0.32 0.4,0.712 0,0.391 0.36,0.971 0.8,1.288 0.44,0.317 0.8,0.799 0.8,1.071 0,0.64 6.681,7.329 7.321,7.329 0.268,0 0.711,0.36 0.986,0.8 0.275,0.44 0.67,0.8 0.879,0.8 0.208,0 1.042,0.45 1.852,1 0.811,0.55 1.809,1 2.218,1 0.409,0 0.744,0.18 0.744,0.4 0,0.22 0.36,0.4 0.8,0.4 0.44,0 0.8,0.18 0.8,0.4 0,0.22 0.36,0.4 0.8,0.4 0.44,0 0.8,0.18 0.8,0.4 0,0.573 4.436,0.495 5.717,-0.1 0.592,-0.275 1.078,-0.635 1.08,-0.8 0.002,-0.165 0.363,-0.3 0.803,-0.3 0.44,0 0.8,-0.145 0.8,-0.323 0,-0.178 0.72,-0.641 1.6,-1.029 0.88,-0.388 1.6,-0.873 1.6,-1.077 0,-0.204 0.243,-0.371 0.541,-0.371 0.297,0 1.105,-0.54 1.796,-1.2 0.691,-0.66 1.416,-1.2 1.613,-1.2 0.641,0 5.962,-5.621 6.461,-6.825 0.267,-0.646 0.644,-1.175 0.838,-1.175 0.193,0 0.351,-0.236 0.351,-0.525 0,-0.288 0.36,-0.911 0.8,-1.383 0.44,-0.472 0.8,-1.136 0.8,-1.475 0,-0.339 0.18,-0.617 0.4,-0.617 0.22,0 0.4,-0.439 0.4,-0.976 0,-0.537 0.18,-1.088 0.4,-1.224 0.22,-0.136 0.4,-0.867 0.4,-1.624 0,-0.757 0.18,-1.376 0.4,-1.376 0.241,0 0.4,-1.667 0.4,-4.2 0,-2.533 -0.159,-4.2 -0.4,-4.2 -0.22,0 -0.4,-0.54 -0.4,-1.2 0,-0.66 -0.18,-1.2 -0.4,-1.2 -0.22,0 -0.4,-0.54 -0.4,-1.2 0,-0.66 -0.18,-1.2 -0.4,-1.2 -0.22,0 -0.4,-0.246 -0.4,-0.546 0,-0.74 -3.919,-4.736 -5.362,-5.466 C 220.691,0.005 209.556,-0.07 209.3,0.7 c -0.092,0.275 -0.446,0.5 -0.786,0.5 -0.341,0 -0.911,0.327 -1.267,0.728 -1.113,1.252 -1.959,1.324 -3.025,0.258 C 203.68,1.644 202.973,1.2 202.652,1.2 202.33,1.2 201.992,0.975 201.9,0.7 201.732,0.194 191.713,-0.164 189.7,0.264 m 8.779,6.236 c 1.595,0.919 3.037,2.35 4.164,4.133 1.584,2.506 5.757,2.099 5.757,-0.561 0,-1.472 4.559,-4.069 7.146,-4.071 6.704,-0.004 9.838,7.307 6.744,15.735 -1.745,4.754 -8.901,11.738 -15.389,15.02 l -1.698,0.859 -2.102,-1.063 C 198.53,34.24 190.4,27.329 190.4,25.755 c 0,-0.305 -0.147,-0.555 -0.326,-0.555 -1.091,0 -2.864,-5.886 -2.87,-9.525 -0.01,-6.997 6.235,-12.079 11.275,-9.175 M 71.5,32.157 c -0.385,0.292 -0.7,0.826 -0.7,1.187 C 70.8,33.705 70.62,34 70.4,34 70.134,34 70,85.467 70,187.6 V 341.2 H 36.7 l -33.3,0.001 -1.1,0.946 -1.1,0.946 v 28.211 c 0,25.355 0.064,28.235 0.633,28.453 1.555,0.597 24.967,0.262 24.967,-0.357 0,-0.33 0.18,-0.6 0.4,-0.6 0.635,0 0.464,-1.49 -0.2,-1.745 -0.33,-0.126 -0.6,-0.591 -0.6,-1.032 C 26.4,394.33 24.675,394 15.814,394 H 7.589 L 7.694,381.5 7.8,369 H 200 392.2 l 0.106,12.5 0.105,12.5 H 216.425 c -130.751,0 -176.244,0.117 -176.987,0.455 -1.806,0.824 -3,4.767 -1.605,5.302 0.827,0.318 359.507,0.318 360.334,0 0.569,-0.218 0.633,-3.098 0.633,-28.453 v -28.211 l -1.1,-0.946 -1.1,-0.946 L 291.9,341.2 H 187.2 v -6.8 -6.8 h 8.176 c 5.02,0 8.272,-0.154 8.424,-0.4 0.136,-0.22 0.574,-0.4 0.974,-0.4 0.922,0 4.026,-2.894 4.026,-3.753 0,-0.356 0.18,-0.647 0.4,-0.647 0.22,0 0.4,-0.63 0.4,-1.4 0,-0.77 0.18,-1.4 0.4,-1.4 0.22,0 0.4,-0.709 0.4,-1.576 0,-0.867 -0.18,-1.688 -0.4,-1.824 -0.22,-0.136 -0.4,-0.766 -0.4,-1.4 0,-0.634 -0.18,-1.264 -0.4,-1.4 -0.22,-0.136 -0.4,-0.544 -0.4,-0.906 0,-0.84 -2.857,-6.494 -3.281,-6.494 -0.176,0 -0.319,-0.32 -0.319,-0.712 0,-0.391 -0.36,-0.971 -0.8,-1.288 -0.44,-0.317 -0.8,-0.816 -0.8,-1.108 0,-0.812 -7.66,-8.254 -9.117,-8.857 -0.705,-0.293 -1.283,-0.69 -1.283,-0.884 0,-0.193 -0.36,-0.351 -0.8,-0.351 -0.44,0 -0.8,-0.18 -0.8,-0.4 0,-0.22 -0.27,-0.4 -0.6,-0.4 -0.33,0 -0.6,-0.18 -0.6,-0.4 0,-0.22 -0.36,-0.4 -0.8,-0.4 -0.44,0 -0.8,-0.18 -0.8,-0.4 0,-0.22 -0.54,-0.4 -1.2,-0.4 -0.66,0 -1.2,-0.18 -1.2,-0.4 0,-0.22 -0.54,-0.4 -1.2,-0.4 -0.66,0 -1.2,-0.18 -1.2,-0.4 0,-0.22 -0.889,-0.4 -1.976,-0.4 -1.087,0 -2.088,-0.18 -2.224,-0.4 -0.33,-0.534 -11.67,-0.534 -12,0 -0.136,0.22 -1.036,0.4 -2,0.4 -0.964,0 -1.864,0.18 -2,0.4 -0.136,0.22 -0.777,0.4 -1.424,0.4 -0.647,0 -1.176,0.18 -1.176,0.4 0,0.22 -0.45,0.4 -1,0.4 -0.55,0 -1,0.18 -1,0.4 0,0.22 -0.36,0.4 -0.8,0.4 -0.44,0 -0.8,0.18 -0.8,0.4 0,0.22 -0.36,0.4 -0.8,0.4 -0.44,0 -0.8,0.18 -0.8,0.4 0,0.22 -0.36,0.4 -0.8,0.4 -0.44,0 -0.8,0.158 -0.8,0.351 0,0.194 -0.56,0.584 -1.244,0.867 -1.272,0.527 -8.356,7.355 -8.356,8.053 0,0.213 -0.225,0.637 -0.5,0.944 -1.244,1.387 -1.5,1.791 -1.5,2.368 0,0.339 -0.18,0.617 -0.4,0.617 -0.22,0 -0.4,0.36 -0.4,0.8 0,0.44 -0.18,0.8 -0.4,0.8 -0.22,0 -0.4,0.36 -0.4,0.8 0,0.44 -0.18,0.8 -0.4,0.8 -0.22,0 -0.4,0.27 -0.4,0.6 0,0.33 -0.18,0.6 -0.4,0.6 -0.22,0 -0.4,0.45 -0.4,1 0,0.55 -0.18,1 -0.4,1 -0.22,0 -0.4,0.45 -0.4,1 0,0.55 -0.18,1 -0.4,1 -0.237,0 -0.4,1.467 -0.4,3.6 0,2.133 0.163,3.6 0.4,3.6 0.22,0 0.4,0.36 0.4,0.8 0,0.44 0.18,0.8 0.4,0.8 0.22,0 0.4,0.188 0.4,0.418 0,0.642 1.886,2.382 2.582,2.382 0.34,0 0.619,0.135 0.621,0.3 0.01,0.993 2.534,1.3 10.677,1.3 H 162 v 6.8 6.8 H 146 130 V 187.382 33.564 l -0.982,-0.982 c -1.731,-1.732 -5.818,-1.177 -5.818,0.789 0,0.346 -0.18,0.629 -0.4,0.629 -0.249,0 -0.4,2.333 -0.4,6.2 v 6.2 H 100 77.6 v -6.418 c 0,-6.281 -0.021,-6.439 -0.982,-7.4 -1.118,-1.119 -3.9,-1.35 -5.118,-0.425 M 1.7,53.398 C 1.31,53.841 1.2,60.143 1.2,82.001 v 28.035 L 2.182,111.018 3.164,112 H 31.6 60.036 L 61.018,111.018 62,110.036 V 82.4 54.764 L 61.018,53.782 60.036,52.8 31.118,52.815 C 6.655,52.828 2.123,52.918 1.7,53.398 M 138.872,53.803 138,54.806 v 27.615 27.615 l 0.982,0.982 0.982,0.982 h 13.636 13.636 l 0.982,-0.982 c 1.234,-1.234 1.217,-1.639 -0.15,-3.618 l -1.106,-1.6 -11.181,-0.2 -11.181,-0.2 -0.106,-12.501 -0.105,-12.502 59.305,0.102 59.306,0.101 0.106,11.715 c 0.069,7.604 -0.041,11.99 -0.313,12.498 -0.411,0.769 -1.173,0.785 -40.903,0.885 l -40.484,0.102 -0.706,1.5 c -0.388,0.825 -0.885,1.5 -1.103,1.5 -0.788,0 -0.373,1.327 0.703,2.253 l 1.1,0.946 42.917,0.001 c 47.848,0 43.641,0.244 45.124,-2.613 0.693,-1.337 0.847,-53.562 0.159,-53.987 -0.22,-0.136 -0.4,-0.519 -0.4,-0.852 0,-1.825 2.882,-1.748 -65.299,-1.748 h -64.157 l -0.872,1.003 M 122.4,69.2 V 84.8 H 100 77.6 V 69.2 53.6 H 100 122.4 V 69.2 M 55.6,66.753 c 0,7.495 -0.007,7.556 -0.9,7.795 C 53.52,74.864 9.056,74.873 8.233,74.557 7.687,74.348 7.6,73.279 7.6,66.757 V 59.2 h 24 24 v 7.553 m 207.51,-0.155 c 0.097,6.417 0.035,7.253 -0.577,7.7 -0.721,0.528 -115.285,0.772 -117.233,0.25 -0.893,-0.239 -0.9,-0.3 -0.9,-7.796 v -7.555 l 59.3,0.102 59.3,0.101 0.11,7.198 M 55.506,92.9 55.4,105.4 H 31.6 7.8 L 7.694,92.9 7.589,80.4 H 31.6 55.611 l -0.105,12.5 m 66.894,14.9 v 15.4 H 100 77.6 V 107.8 92.4 h 22.4 22.4 v 15.4 M 338.2,126 c -0.136,0.22 -1.587,0.4 -3.224,0.4 -1.637,0 -2.976,0.154 -2.976,0.343 0,0.189 -1.107,0.459 -2.459,0.6 -1.353,0.141 -2.658,0.411 -2.9,0.599 -0.243,0.188 -1.296,0.587 -2.341,0.887 -1.045,0.3 -1.9,0.686 -1.9,0.858 0,0.172 -0.36,0.313 -0.8,0.313 -0.44,0 -0.8,0.18 -0.8,0.4 0,0.22 -0.36,0.4 -0.8,0.4 -0.44,0 -0.8,0.18 -0.8,0.4 0,0.22 -0.36,0.4 -0.8,0.4 -0.44,0 -0.8,0.15 -0.8,0.332 0,0.183 -0.495,0.587 -1.1,0.898 -0.605,0.31 -1.391,0.881 -1.747,1.267 -0.356,0.387 -0.806,0.704 -1,0.706 -0.194,0.001 -1.019,0.676 -1.833,1.5 -4.938,4.995 -6.72,6.929 -6.72,7.29 0,0.224 -0.138,0.407 -0.306,0.407 -0.168,0 -0.75,0.72 -1.294,1.6 -0.544,0.88 -1.126,1.6 -1.294,1.6 -0.168,0 -0.306,0.278 -0.306,0.617 0,0.339 -0.36,1.003 -0.8,1.475 -0.44,0.472 -0.8,1.095 -0.8,1.383 0,0.289 -0.18,0.525 -0.4,0.525 -0.22,0 -0.4,0.36 -0.4,0.8 0,0.44 -0.18,0.8 -0.4,0.8 -0.22,0 -0.4,0.36 -0.4,0.8 0,0.44 -0.18,0.8 -0.4,0.8 -0.22,0 -0.4,0.272 -0.4,0.605 0,0.333 -0.159,0.918 -0.353,1.3 -0.195,0.382 -0.576,1.235 -0.847,1.895 -0.271,0.66 -0.669,1.539 -0.883,1.953 -0.538,1.038 -0.499,8.225 0.047,8.771 0.24,0.24 0.436,0.76 0.436,1.156 0,0.396 0.18,0.72 0.4,0.72 0.22,0 0.4,0.247 0.4,0.549 0,0.721 3.407,3.851 4.191,3.851 0.335,0 0.609,0.18 0.609,0.4 0,0.22 0.619,0.4 1.376,0.4 0.757,0 1.488,0.18 1.624,0.4 0.155,0.251 4.404,0.4 11.424,0.4 H 327.6 v 10.2 10.2 h -52.818 -52.818 l -0.982,0.982 -0.982,0.982 v 27.846 c 0,29.56 -0.082,28.276 1.882,29.327 0.648,0.347 22.701,0.463 87.792,0.463 l 86.926,-0.001 1.1,-0.946 1.1,-0.946 v -28.192 c 0,-26.803 -0.036,-28.224 -0.731,-28.853 -0.66,-0.597 -2.632,-0.662 -20,-0.662 H 358.8 V 187 176.8 h 11 c 7.067,0 11,-0.143 11,-0.4 0,-0.22 0.54,-0.4 1.2,-0.4 0.66,0 1.2,-0.18 1.2,-0.4 0,-0.22 0.341,-0.4 0.758,-0.4 1.644,0 5.054,-4.333 5.746,-7.301 0.646,-2.767 0.29,-7.899 -0.548,-7.899 -0.196,0 -0.356,-0.439 -0.356,-0.976 0,-0.537 -0.18,-1.088 -0.4,-1.224 -0.22,-0.136 -0.4,-0.597 -0.4,-1.024 0,-0.427 -0.18,-0.776 -0.4,-0.776 -0.22,0 -0.4,-0.36 -0.4,-0.8 0,-0.44 -0.18,-0.8 -0.4,-0.8 -0.22,0 -0.4,-0.36 -0.4,-0.8 0,-0.44 -0.18,-0.8 -0.4,-0.8 -0.22,0 -0.4,-0.36 -0.4,-0.8 0,-0.44 -0.18,-0.8 -0.4,-0.8 -0.22,0 -0.4,-0.27 -0.4,-0.6 0,-0.33 -0.18,-0.6 -0.4,-0.6 -0.22,0 -0.4,-0.27 -0.4,-0.6 0,-0.33 -0.18,-0.6 -0.4,-0.6 -0.22,0 -0.4,-0.236 -0.4,-0.525 0,-0.288 -0.36,-0.911 -0.8,-1.383 -0.44,-0.472 -0.8,-1.019 -0.8,-1.215 0,-1.386 -4.224,-1.92 -4.638,-0.586 -0.121,0.39 -0.387,1.022 -0.591,1.404 -0.592,1.108 -0.431,3.026 0.329,3.912 1.002,1.168 2.624,4.021 4.772,8.393 2.809,5.718 2.567,8.606 -0.892,10.633 l -1.65,0.967 h -36.078 c -39.469,0 -37.681,0.107 -39.771,-2.376 -1.151,-1.368 -1.532,-4.81 -0.701,-6.329 0.209,-0.382 1.143,-2.315 2.075,-4.295 11.554,-24.535 38.86,-32.7 60.945,-18.224 3.249,2.129 3.601,2.22 4.929,1.274 0.657,-0.467 1.462,-0.85 1.79,-0.85 0.879,0 1.096,-0.966 0.557,-2.471 -0.509,-1.422 -1.199,-2.329 -1.772,-2.329 -0.194,0 -0.71,-0.315 -1.146,-0.7 -1.005,-0.888 -2.949,-2.083 -3.858,-2.371 -0.385,-0.122 -0.7,-0.381 -0.7,-0.576 0,-0.194 -0.36,-0.353 -0.8,-0.353 -0.44,0 -0.8,-0.18 -0.8,-0.4 0,-0.22 -0.36,-0.4 -0.8,-0.4 -0.44,0 -0.8,-0.18 -0.8,-0.4 0,-0.22 -0.54,-0.4 -1.2,-0.4 -0.66,0 -1.2,-0.136 -1.2,-0.303 0,-0.445 -3.087,-1.337 -5.5,-1.589 -1.155,-0.121 -2.1,-0.375 -2.1,-0.564 0,-0.189 -1.44,-0.344 -3.2,-0.344 -1.867,0 -3.2,-0.167 -3.2,-0.4 0,-0.237 -1.459,-0.4 -3.576,-0.4 -1.967,0 -3.688,0.18 -3.824,0.4 M 122.4,146.4 V 162 H 100 77.6 v -15.6 -15.6 h 22.4 22.4 v 15.6 m 0,38.8 v 15.2 H 100 77.6 V 185.2 170 h 22.4 22.4 v 15.2 m 229.506,1.708 0.107,11.107 -8.907,-0.107 -8.906,-0.108 -0.107,-10.594 c -0.059,-5.826 -0.018,-10.825 0.091,-11.108 0.154,-0.401 2.102,-0.49 8.906,-0.406 l 8.71,0.108 0.106,11.108 m 40.403,24.593 0.108,7.701 -82.908,-0.101 L 226.6,219 l -0.11,-7.187 c -0.06,-3.952 -0.02,-7.418 0.088,-7.701 0.16,-0.417 15.802,-0.495 82.91,-0.413 l 82.712,0.101 0.109,7.701 M 122.4,224 v 15.6 H 100 77.6 V 224 208.4 H 100 122.4 V 224 m 270,13.4 V 250 h -83 -83 v -12.6 -12.6 h 83 83 v 12.6 m -270,24.6 v 15.6 H 100 77.6 V 262 246.4 H 100 122.4 V 262 m 216.63,20.579 -4.23,4.18 v 2.249 c 0,2.924 0.486,3.392 3.523,3.392 h 2.381 l 4.048,-3.972 4.048,-3.973 v -2.045 c 0,-5.686 -3.912,-5.618 -9.77,0.169 m -63.73,-2.781 c -0.275,0.313 -0.5,0.936 -0.5,1.385 0,0.449 -0.18,0.817 -0.4,0.817 -0.22,0 -0.4,0.45 -0.4,1 0,0.55 0.18,1 0.4,1 0.22,0 0.4,0.286 0.4,0.636 0,0.35 1.772,2.42 3.939,4.6 l 3.939,3.964 h 2.517 c 5.552,0 5.29,-3.596 -0.702,-9.649 l -4.308,-4.351 -2.192,0.015 c -1.376,0.01 -2.379,0.227 -2.693,0.583 m 31.5,4.602 c 0,0.22 -0.54,0.4 -1.2,0.4 -0.66,0 -1.2,0.18 -1.2,0.4 0,0.22 -0.416,0.4 -0.925,0.4 -0.508,0 -1.311,0.36 -1.783,0.8 -0.472,0.44 -1.064,0.8 -1.315,0.8 -0.251,0 -0.96,0.54 -1.577,1.2 -0.617,0.66 -1.319,1.2 -1.56,1.2 -0.242,0 -0.44,0.157 -0.44,0.35 0,0.192 -0.637,1.045 -1.417,1.896 -0.779,0.85 -1.518,1.953 -1.643,2.45 -0.125,0.497 -0.387,0.904 -0.583,0.904 -0.197,0 -0.357,0.45 -0.357,1 0,0.55 -0.18,1 -0.4,1 -0.22,0 -0.4,0.54 -0.4,1.2 0,0.66 -0.18,1.2 -0.4,1.2 -0.247,0 -0.4,2.067 -0.4,5.4 0,3.333 0.153,5.4 0.4,5.4 0.22,0 0.4,0.54 0.4,1.2 0,0.66 0.18,1.2 0.4,1.2 0.22,0 0.4,0.36 0.4,0.8 0,0.44 0.16,0.8 0.355,0.8 0.196,0 0.474,0.629 0.618,1.398 0.284,1.515 5.73,7.402 6.846,7.402 0.32,0 0.582,0.135 0.584,0.3 0.005,0.484 2.061,1.313 3.897,1.57 0.935,0.131 1.7,0.394 1.7,0.584 0,0.19 2.43,0.346 5.4,0.346 2.97,0 5.4,-0.156 5.4,-0.346 0,-0.19 0.825,-0.458 1.834,-0.597 1.009,-0.138 2.342,-0.612 2.962,-1.054 0.62,-0.442 1.292,-0.803 1.494,-0.803 0.201,0 0.756,-0.405 1.232,-0.9 0.477,-0.495 1.406,-1.35 2.065,-1.9 0.66,-0.55 1.202,-1.137 1.206,-1.304 0.004,-0.167 0.547,-0.868 1.207,-1.559 0.66,-0.691 1.2,-1.499 1.2,-1.796 0,-0.298 0.18,-0.541 0.4,-0.541 0.22,0 0.4,-0.272 0.4,-0.605 0,-0.333 0.158,-0.918 0.351,-1.3 0.943,-1.868 1.249,-3.973 1.249,-8.6 0,-2.934 -0.168,-5.151 -0.4,-5.295 -0.22,-0.136 -0.4,-0.599 -0.4,-1.029 0,-0.43 -0.159,-1.094 -0.353,-1.476 -0.195,-0.382 -0.6,-1.235 -0.9,-1.895 -0.301,-0.66 -1.042,-1.677 -1.647,-2.26 -0.605,-0.584 -1.1,-1.267 -1.1,-1.519 0,-0.516 -1.793,-2.42 -2.282,-2.423 -0.175,-10e-4 -0.858,-0.496 -1.518,-1.1 -0.66,-0.604 -1.74,-1.344 -2.4,-1.645 -0.66,-0.3 -1.513,-0.705 -1.895,-0.9 -0.382,-0.194 -1.046,-0.353 -1.476,-0.353 -0.43,0 -0.893,-0.18 -1.029,-0.4 -0.145,-0.235 -2.471,-0.4 -5.624,-0.4 -3.317,0 -5.376,0.153 -5.376,0.4 M 122.4,300.8 V 316 H 100 77.6 v -15.2 -15.2 h 22.4 22.4 v 15.2 m 193.905,-10.063 c 0.382,0.185 1.545,0.748 2.584,1.25 1.728,0.834 5.511,3.984 5.511,4.587 0,0.14 0.315,0.735 0.7,1.322 1.572,2.4 2.4,9.55 1.344,11.609 -0.196,0.382 -0.766,1.554 -1.267,2.603 -3.028,6.343 -11.586,9.43 -18.577,6.699 -11.557,-4.513 -12.24,-21.436 -1.081,-26.824 1.034,-0.5 2.151,-1.05 2.481,-1.222 0.814,-0.426 7.439,-0.445 8.305,-0.024 M 180.4,295.005 c 0.99,0.153 1.971,0.439 2.18,0.636 0.209,0.197 0.706,0.359 1.104,0.359 8.263,0 24.048,20.672 18.818,24.642 -0.569,0.431 -5.981,0.535 -28.476,0.545 l -27.774,0.013 -0.926,-0.87 c -1.59,-1.493 -1.214,-3.49 1.75,-9.302 3.129,-6.138 8.974,-12.025 13.724,-13.826 0.77,-0.291 1.571,-0.681 1.78,-0.866 0.209,-0.185 0.783,-0.336 1.276,-0.336 0.493,0 1.008,-0.18 1.144,-0.4 0.136,-0.22 0.912,-0.403 1.724,-0.406 0.812,-0.003 1.746,-0.186 2.076,-0.407 0.629,-0.42 8.395,-0.274 11.6,0.218 m 158.9,4.06 c -0.275,0.111 -0.5,0.457 -0.5,0.768 0,0.312 -0.18,0.567 -0.4,0.567 -0.22,0 -0.4,0.9 -0.4,2 0,1.1 0.159,2 0.353,2 0.195,0 0.448,0.36 0.563,0.8 0.2,0.766 0.546,0.8 8.075,0.8 9.233,0 9.142,0.036 9.142,-3.6 0,-3.627 0.053,-3.606 -8.804,-3.568 -4.141,0.017 -7.754,0.122 -8.029,0.233 m -71.595,1.643 c -3.281,4.006 0.268,6.88 8.495,6.88 8.248,0 11.852,-2.936 8.453,-6.888 l -0.946,-1.1 -7.554,0.008 -7.553,0.007 -0.895,1.093 m 69.695,10.978 c -1.497,0.865 -1.8,1.455 -1.8,3.511 v 2.055 l 4.444,4.374 c 4.294,4.226 4.504,4.374 6.2,4.374 0.966,0 1.756,-0.168 1.756,-0.373 0,-0.205 0.36,-0.487 0.8,-0.627 0.685,-0.217 0.8,-0.605 0.8,-2.692 v -2.437 l -4.43,-4.336 c -4.67,-4.569 -5.667,-5.063 -7.77,-3.849 m -55.162,0.838 c -1.498,0.936 -8.238,7.859 -8.238,8.462 0,0.338 -0.18,0.614 -0.4,0.614 -0.56,0 -0.499,2.027 0.1,3.317 0.275,0.592 0.815,1.078 1.2,1.08 0.385,0.002 0.7,0.183 0.7,0.403 0,0.81 3.192,0.433 4.229,-0.5 6.125,-5.509 8.171,-7.944 8.171,-9.725 0,-0.976 -0.18,-1.775 -0.4,-1.775 -0.22,0 -0.4,-0.237 -0.4,-0.526 0,-1.25 -3.569,-2.221 -4.962,-1.35 M 122.4,332.6 v 8.6 H 100 77.6 v -8.6 -8.6 h 22.4 22.4 v 8.6 m 58.309,1.662 c 0.14,8.75 0.597,8.196 -6.649,8.049 l -5.46,-0.111 -0.109,-7.51 -0.109,-7.511 6.109,0.111 6.109,0.11 0.109,6.862 M 392.2,355.6 v 7.8 H 200 7.8 l -0.109,-7.387 c -0.061,-4.063 -0.025,-7.608 0.078,-7.877 0.148,-0.386 41.029,-0.474 192.31,-0.413 L 392.2,347.8 v 7.8"
       stroke="none"
       fill="#040404"
       fill-rule="evenodd" />
    <path
       id="path4"
       d="m 336.2,133.233 c -10.185,1.752 -17.577,5.686 -23.526,12.521 -2.844,3.268 -4.022,5.009 -6.999,10.346 -3.815,6.839 -3.984,11.085 -0.513,12.881 1.481,0.765 73.26,0.957 74.919,0.2 4.161,-1.9 3.209,-7.408 -2.921,-16.892 -2.088,-3.231 -2.227,-3.932 -1.177,-5.947 l 0.869,-1.666 -0.829,-0.838 c -0.456,-0.461 -1.35,-1.423 -1.986,-2.138 -1.247,-1.4 -2.441,-1.659 -3.237,-0.7 -0.779,0.939 -2.699,0.708 -4.528,-0.545 -8.784,-6.012 -20.601,-8.85 -30.072,-7.222 m -1.62,43.674 c -0.107,0.279 -0.143,5.004 -0.08,10.5 l 0.115,9.993 0.092,-10.292 0.093,-10.292 8.3,-0.116 8.3,-0.117 -8.313,-0.092 c -6.411,-0.07 -8.357,0.025 -8.507,0.416 m -162.863,164.59 c 1.494,0.077 3.834,0.077 5.2,-0.001 1.365,-0.078 0.143,-0.141 -2.717,-0.141 -2.86,10e-4 -3.978,0.065 -2.483,0.142"
       stroke="none"
       fill="#aa78ef"
       fill-rule="evenodd" />
    <path
       id="path5"
       d="m 334.8,187.208 v 10.408 l 8.3,-0.108 8.3,-0.108 0.107,-10.3 0.107,-10.3 h -8.407 -8.407 v 10.408 m -165,108.223 c -11.238,1.562 -19.255,8.239 -23.831,19.848 -2.258,5.729 -3.316,5.521 28.076,5.521 29.751,0 28.733,0.108 28.749,-3.059 0.006,-1.232 -3.203,-8.205 -4.266,-9.27 -0.29,-0.29 -0.528,-0.679 -0.528,-0.864 0,-0.72 -6.317,-6.813 -8.4,-8.103 -5.24,-3.244 -13.513,-4.946 -19.8,-4.073 m -1,38.969 v 6.8 h 5.4 5.4 v -6.8 -6.8 h -5.4 -5.4 v 6.8"
       stroke="none"
       fill="#94f7fe"
       fill-rule="evenodd" />
    <path
       id="path6"
       d="m 310,291.182 c -0.33,0.223 -0.988,0.409 -1.462,0.412 -2.424,0.017 -7.018,3.638 -8.68,6.84 -7.61,14.669 11.518,28.02 22.755,15.883 1.203,-1.3 2.187,-2.625 2.187,-2.945 0,-0.321 0.158,-0.895 0.351,-1.277 3.533,-6.994 -1.621,-16.878 -9.751,-18.702 -2.303,-0.517 -4.804,-0.615 -5.4,-0.211"
       stroke="none"
       fill="#fed341"
       fill-rule="evenodd" />
    <path
       id="path7"
       d="m 194.5,6.276 c 0.385,0.1 1.015,0.1 1.4,0 0.385,-0.101 0.07,-0.183 -0.7,-0.183 -0.77,0 -1.085,0.082 -0.7,0.183 m 10.9,6.524 -1.2,0.305 1.076,0.048 c 0.592,0.026 1.188,-0.133 1.324,-0.353 0.136,-0.22 0.192,-0.379 0.124,-0.353 -0.068,0.026 -0.664,0.185 -1.324,0.353 m -11.817,16.5 c 1.658,1.766 2.017,2.084 2.017,1.783 0,-0.064 -0.855,-0.919 -1.9,-1.9 l -1.9,-1.783 1.783,1.9 M 7.778,59.714 C 7.669,59.997 7.63,63.372 7.69,67.214 L 7.8,74.2 h 23.8 23.8 l 0.014,-7.4 0.015,-7.4 -0.124,7.3 -0.123,7.3 H 31.591 8 V 66.803 59.606 L 31.5,59.5 55,59.393 31.487,59.297 C 12.634,59.219 7.936,59.302 7.778,59.714 M 203.9,59.499 262.4,59.603 V 66.801 74 h -58.791 -58.791 l -0.123,-7.2 -0.123,-7.201 0.014,7.301 0.014,7.3 h 59 59 V 66.8 59.4 L 204,59.398 145.4,59.396 203.9,59.499 M 7.782,80.902 C 7.675,81.181 7.638,86.628 7.7,93.005 L 7.813,104.6 7.906,92.7 8,80.8 h 23.594 23.594 l 0.115,11.7 0.115,11.7 L 55.409,92.4 55.4,80.6 31.689,80.497 c -18.876,-0.082 -23.751,0 -23.907,0.405 m 136.8,0.002 c -0.107,0.278 -0.144,5.724 -0.082,12.101 l 0.113,11.595 0.093,-11.9 0.094,-11.9 h 58.794 58.794 l 0.115,11.7 0.115,11.7 -0.009,-11.8 -0.009,-11.8 -58.912,-0.101 c -47.219,-0.082 -58.951,-10e-4 -59.106,0.405 M 19.729,105.1 c 6.56,0.062 17.18,0.061 23.6,0 6.419,-0.062 1.051,-0.113 -11.929,-0.112 -12.98,0 -18.232,0.05 -11.671,0.112 M 147.8,105.075 c 6.703,0.279 19.287,0.3 18.863,0.031 -0.254,-0.162 -5.233,-0.261 -11.063,-0.22 -5.83,0.04 -9.34,0.125 -7.8,0.189 m 54.5,0.025 c 11.055,0.059 29.145,0.059 40.2,0 11.055,-0.059 2.01,-0.108 -20.1,-0.108 -22.11,0 -31.155,0.049 -20.1,0.108 m 138.8,27.589 c 0.715,0.089 1.885,0.089 2.6,0 0.715,-0.088 0.13,-0.161 -1.3,-0.161 -1.43,0 -2.015,0.073 -1.3,0.161 m -7.1,0.511 -1,0.32 1,0.017 c 0.55,0.009 1.72,-0.132 2.6,-0.314 l 1.6,-0.331 -1.6,-0.006 c -0.88,-0.003 -2.05,0.138 -2.6,0.314 m 12.033,-0.25 c 0.092,0.082 1.247,0.254 2.567,0.381 1.555,0.149 2.048,0.111 1.4,-0.11 -0.986,-0.337 -4.29,-0.562 -3.967,-0.271 M 330.4,134 c -0.787,0.509 0.616,0.509 1.8,0 0.733,-0.315 0.716,-0.346 -0.2,-0.366 -0.55,-0.012 -1.27,0.153 -1.6,0.366 m 21.6,0 c 0.33,0.213 0.96,0.388 1.4,0.388 0.662,0 0.697,-0.067 0.2,-0.388 -0.33,-0.213 -0.96,-0.388 -1.4,-0.388 -0.662,0 -0.697,0.067 -0.2,0.388 m -25,1.229 c -0.88,0.423 -1.15,0.657 -0.6,0.521 1.505,-0.375 3.484,-1.284 2.8,-1.288 -0.33,-10e-4 -1.32,0.344 -2.2,0.767 m 27.8,-0.429 c 0.33,0.213 0.87,0.388 1.2,0.388 0.533,0 0.533,-0.043 0,-0.388 -0.33,-0.213 -0.87,-0.388 -1.2,-0.388 -0.533,0 -0.533,0.043 0,0.388 m 5.705,2.357 c 2.148,1.107 4.701,2.559 5.672,3.228 1.918,1.319 3.828,1.573 4.623,0.615 0.274,-0.33 0.791,-0.614 1.149,-0.632 0.398,-0.019 0.461,-0.108 0.161,-0.229 -0.269,-0.11 -0.894,0.085 -1.389,0.431 -1.376,0.964 -2.377,0.772 -5.08,-0.975 -2.8,-1.81 -6.544,-3.752 -8.041,-4.17 -0.55,-0.154 0.757,0.625 2.905,1.732 m -39.307,0.916 C 315.625,141.502 309,148.732 306.235,154.4 l -0.683,1.4 0.815,-1 c 0.448,-0.55 0.819,-1.145 0.824,-1.322 0.076,-2.74 10.185,-13.045 15.615,-15.917 2.209,-1.169 2.748,-1.561 2.144,-1.561 -0.211,0 -1.899,0.933 -3.752,2.073 m 54.62,8.547 c -0.94,1.979 -0.221,3.744 4.088,10.041 0.957,1.399 -0.794,-1.99 -2.297,-4.447 -2.01,-3.283 -2.189,-3.97 -1.435,-5.482 0.346,-0.694 0.562,-1.329 0.48,-1.411 -0.082,-0.082 -0.459,0.502 -0.836,1.299 m -71.377,11.182 c -1.366,2.907 -2.157,5.016 -1.955,5.217 0.102,0.102 0.691,-1.12 1.308,-2.717 0.617,-1.596 1.302,-3.131 1.521,-3.412 0.22,-0.28 0.306,-0.602 0.193,-0.715 -0.113,-0.113 -0.593,0.619 -1.067,1.627 m 76.791,1.623 c -0.018,0.234 0.328,1.17 0.768,2.081 1.039,2.15 1.023,4.257 -0.044,5.755 -0.464,0.652 -0.743,1.285 -0.621,1.407 0.481,0.481 1.862,-2.542 1.858,-4.068 -0.003,-1.383 -1.876,-6.325 -1.961,-5.175 m -79.061,5.644 c 0.176,2.029 1.166,3.472 3.029,4.409 1.486,0.748 70.778,1.211 73.2,0.489 0.55,-0.164 -15.47,-0.314 -35.6,-0.334 -42.535,-0.042 -39.304,0.344 -40.461,-4.833 -0.303,-1.356 -0.308,-1.348 -0.168,0.269 m 49.342,21.743 0.112,10.772 -8.613,0.12 -8.612,0.12 8.7,-0.012 8.7,-0.012 0.107,-10.573 c 0.059,-5.815 -0.031,-10.712 -0.2,-10.881 -0.169,-0.169 -0.256,4.541 -0.194,10.466 M 334.174,187 c 0.001,5.72 0.057,8.004 0.125,5.076 0.069,-2.928 0.068,-7.608 0,-10.4 -0.069,-2.792 -0.125,-0.396 -0.125,5.324 m -107.609,24.4 c 0.001,3.96 0.061,5.526 0.133,3.48 0.073,-2.046 0.073,-5.286 0,-7.2 -0.074,-1.914 -0.133,-0.24 -0.133,3.72 m 165.6,0 c 10e-4,3.96 0.061,5.526 0.133,3.48 0.073,-2.046 0.073,-5.286 0,-7.2 -0.074,-1.914 -0.133,-0.24 -0.133,3.72 m -82.371,13.7 82.194,0.102 0.115,11.999 0.115,11.999 -0.009,-12.1 -0.009,-12.1 -82.3,-0.001 -82.3,-0.002 82.194,0.103 m -83.217,12.3 c 0,6.38 0.055,8.934 0.122,5.676 0.068,-3.259 0.067,-8.479 0,-11.6 -0.068,-3.122 -0.123,-0.456 -0.122,5.924 m -56.533,57.348 c -0.526,0.147 1.164,0.267 3.756,0.267 2.592,0 4.282,-0.12 3.756,-0.267 -0.526,-0.148 -2.216,-0.268 -3.756,-0.268 -1.54,0 -3.23,0.12 -3.756,0.268 M 165.6,295.6 c -0.764,0.494 0.058,0.494 1.6,0 l 1,-0.32 -1,-0.034 c -0.55,-0.019 -1.27,0.141 -1.6,0.354 m 14.8,0 c 1.542,0.494 2.364,0.494 1.6,0 -0.33,-0.213 -1.05,-0.373 -1.6,-0.354 l -1,0.034 1,0.32 m -21.9,3.026 c -0.935,0.561 -1.7,1.114 -1.7,1.229 0,0.216 2.699,-1.317 3.38,-1.919 0.687,-0.608 0.047,-0.345 -1.68,0.69 m -4.103,3.15 c -0.989,0.944 -2.243,2.236 -2.787,2.87 -0.545,0.635 0.26,-0.016 1.789,-1.446 1.529,-1.43 2.86,-2.645 2.957,-2.7 0.098,-0.055 0.101,-0.177 0.007,-0.27 -0.093,-0.094 -0.978,0.602 -1.966,1.546 m 39.643,1.039 c 1.673,1.659 3.804,4.224 4.736,5.7 1.643,2.601 2.543,3.619 1.579,1.785 -1.612,-3.064 -4.942,-7.04 -7.729,-9.225 -0.894,-0.701 -0.258,0.082 1.414,1.74 m -44.138,3.885 c -0.939,1.057 -3.165,4.97 -2.95,5.186 0.104,0.103 0.498,-0.413 0.875,-1.149 0.377,-0.735 1.209,-2.102 1.848,-3.037 1.205,-1.761 1.308,-2.217 0.227,-1 m 51.732,6.7 c 0,0.22 0.344,1.03 0.766,1.8 0.422,0.77 0.766,1.22 0.766,1 0,-0.22 -0.344,-1.03 -0.766,-1.8 -0.422,-0.77 -0.766,-1.22 -0.766,-1 m -57.09,3.601 c -0.354,0.923 0.171,2.489 1.136,3.388 1.373,1.278 55.272,1.274 56.645,-0.005 0.481,-0.448 0.875,-0.93 0.875,-1.069 0,-0.14 -0.417,0.137 -0.926,0.615 l -0.926,0.87 h -27.445 -27.445 l -0.861,-1.094 c -0.558,-0.71 -0.803,-1.482 -0.698,-2.2 0.178,-1.21 0.008,-1.451 -0.355,-0.505 m 35.455,17.318 0.199,7.081 0.111,-6.77 c 0.061,-3.724 -0.029,-6.91 -0.199,-7.081 -0.171,-0.171 -0.22,2.875 -0.111,6.77 m -11.413,0.381 0.014,7.1 5.501,0.018 5.5,0.017 -5.391,-0.129 -5.392,-0.128 -0.123,-6.99 -0.124,-6.989 0.015,7.101 M 24.3,348.3 c 8.855,0.06 23.345,0.06 32.2,0 8.855,-0.06 1.61,-0.109 -16.1,-0.109 -17.71,0 -24.955,0.049 -16.1,0.109 m 63.8,0 c 6.765,0.061 17.835,0.061 24.6,0 6.765,-0.062 1.23,-0.112 -12.3,-0.112 -13.53,0 -19.065,0.05 -12.3,0.112 m 49.2,0 c 5.005,0.063 13.195,0.063 18.2,0 5.005,-0.064 0.91,-0.116 -9.1,-0.116 -10.01,0 -14.105,0.052 -9.1,0.116 m 150.791,0 103.891,0.102 0.123,7.099 0.122,7.099 -0.013,-7.2 -0.014,-7.2 -104,-10e-4 -104,-0.001 103.891,0.102 M 7.765,355.6 c 0,3.85 0.06,5.425 0.133,3.5 0.073,-1.925 0.073,-5.075 0,-7 -0.073,-1.925 -0.133,-0.35 -0.133,3.5 M 200,369.5 l 192,0.101 v 11.999 12 H 215.624 c -97.007,0 -176.46,0.135 -176.562,0.3 -0.102,0.165 79.312,0.21 176.476,0.1 L 392.2,393.8 V 381.6 369.4 L 200.1,369.399 H 8 l 192,0.101 m -192.209,12.3 0.009,12 8.862,0.2 c 4.875,0.11 8.779,0.065 8.677,-0.1 -0.102,-0.165 -4.043,-0.3 -8.757,-0.3 h -8.57 l -0.115,-11.9 -0.115,-11.9 0.009,12"
       stroke="none"
       fill="#3c2c5c"
       fill-rule="evenodd" />
    <path
       id="path8"
       d="m 212.8,6.406 c -0.422,0.276 -0.185,0.317 0.8,0.136 1.725,-0.317 2.051,-0.544 0.767,-0.536 -0.532,0.003 -1.237,0.183 -1.567,0.4 m 3.633,-0.262 c 0.092,0.079 0.707,0.264 1.367,0.412 0.876,0.196 1.038,0.159 0.6,-0.138 -0.54,-0.365 -2.368,-0.62 -1.967,-0.274 m -15.639,2.459 c 1.593,1.918 1.727,2.042 1.292,1.193 -0.227,-0.443 -0.834,-1.162 -1.349,-1.598 -0.904,-0.764 -0.902,-0.75 0.057,0.405 m 8.61,0.193 c -0.63,0.658 -1.062,1.279 -0.96,1.381 0.102,0.102 0.682,-0.436 1.288,-1.196 1.355,-1.698 1.204,-1.784 -0.328,-0.185 m -2.111,2.804 c -0.275,0.44 -0.362,0.8 -0.193,0.8 0.169,0 0.532,-0.36 0.807,-0.8 0.275,-0.44 0.362,-0.8 0.193,-0.8 -0.169,0 -0.532,0.36 -0.807,0.8 m -19.844,0.615 c -0.137,0.358 -0.217,2.121 -0.179,3.918 l 0.07,3.267 0.239,-3.8 c 0.257,-4.11 0.247,-4.367 -0.13,-3.385 m 17.051,0.461 c 0.385,0.1 1.015,0.1 1.4,0 0.385,-0.101 0.07,-0.183 -0.7,-0.183 -0.77,0 -1.085,0.082 -0.7,0.183 M 223,15.8 c 0,1.828 0.132,3.116 0.294,2.862 0.162,-0.254 0.294,-1.542 0.294,-2.862 0,-1.32 -0.132,-2.608 -0.294,-2.862 C 223.132,12.684 223,13.972 223,15.8 m -34.978,5.4 c 0.014,0.596 1.925,4.438 1.96,3.94 0.01,-0.143 -0.43,-1.223 -0.978,-2.4 -0.548,-1.177 -0.99,-1.87 -0.982,-1.54 m 27.778,8.702 c -1.98,1.909 -3.22,3.207 -2.756,2.884 1.648,-1.146 7.051,-6.416 6.531,-6.371 -0.096,0.009 -1.795,1.578 -3.775,3.487 m -19.804,1.84 c 0.694,0.901 6.004,4.561 6.004,4.138 0,-0.092 -1.035,-0.845 -2.3,-1.674 -1.265,-0.829 -2.745,-1.889 -3.288,-2.356 -0.759,-0.654 -0.856,-0.678 -0.416,-0.108 m 14.604,2.493 -1.2,1.031 1.3,-0.86 c 0.715,-0.473 1.3,-0.938 1.3,-1.033 0,-0.3 -0.169,-0.195 -1.4,0.862 m -2.7,1.594 c -1.495,0.811 -1.404,1.149 0.1,0.371 0.66,-0.341 1.2,-0.706 1.2,-0.81 0,-0.258 -0.043,-0.243 -1.3,0.439 m -3.331,1.458 c 0.365,0.204 0.897,0.204 1.262,0 0.47,-0.263 0.309,-0.354 -0.631,-0.354 -0.94,0 -1.101,0.091 -0.631,0.354 M 262.6,66.8 c 0,4.138 0.135,7.44 0.3,7.338 0.165,-0.102 0.3,-3.404 0.3,-7.338 0,-3.934 -0.135,-7.236 -0.3,-7.338 -0.165,-0.102 -0.3,3.2 -0.3,7.338 M 19.929,74.7 c 6.45,0.062 16.89,0.062 23.2,0 6.309,-0.062 1.031,-0.113 -11.729,-0.113 -12.76,0 -17.922,0.051 -11.471,0.113 m 154.802,0 c 16.133,0.058 42.413,0.058 58.4,0 15.988,-0.058 2.789,-0.105 -29.331,-0.105 -32.12,0 -45.201,0.047 -29.069,0.105 m 87.984,17.238 c 0.064,6.304 0.015,11.867 -0.107,12.362 l -0.223,0.9 -40.293,0.098 -40.292,0.098 40.2,0.105 c 37.44,0.098 40.234,0.059 40.7,-0.574 0.559,-0.76 0.75,-23.925 0.2,-24.266 -0.165,-0.102 -0.248,4.973 -0.185,11.277 M 7.763,104.89 c 0.168,0.829 47.5,0.74 47.754,-0.09 0.148,-0.484 0.081,-0.504 -0.347,-0.1 -0.689,0.65 -46.985,0.738 -47.307,0.09 -0.111,-0.225 -0.156,-0.18 -0.1,0.1 m 136.705,-0.09 c 0.17,0.514 1.778,0.601 11.165,0.61 l 10.967,0.01 -10.567,-0.117 c -7.637,-0.084 -10.733,-0.253 -11.165,-0.61 -0.488,-0.402 -0.562,-0.382 -0.4,0.107 m 23.25,2.146 c 0.485,0.74 0.938,1.201 1.007,1.024 0.163,-0.418 -1.116,-2.37 -1.553,-2.37 -0.184,0 0.062,0.605 0.546,1.346 m 13.208,-0.846 c -0.782,1.215 -1.326,2.433 -1.161,2.598 0.098,0.099 0.535,-0.558 0.971,-1.459 0.76,-1.574 0.862,-2.184 0.19,-1.139 M 341.5,132.282 c 0.495,0.096 1.305,0.096 1.8,0 0.495,-0.095 0.09,-0.173 -0.9,-0.173 -0.99,0 -1.395,0.078 -0.9,0.173 m -4.195,0.405 c 0.609,0.092 1.509,0.09 2,-0.005 0.492,-0.095 -0.005,-0.171 -1.105,-0.168 -1.1,0.003 -1.503,0.081 -0.895,0.173 m 8.195,-0.005 c 0.495,0.096 1.305,0.096 1.8,0 0.495,-0.095 0.09,-0.173 -0.9,-0.173 -0.99,0 -1.395,0.078 -0.9,0.173 m 10.5,2.051 c 0.33,0.203 1.05,0.491 1.6,0.638 0.695,0.186 0.817,0.154 0.4,-0.104 -0.33,-0.203 -1.05,-0.491 -1.6,-0.638 -0.695,-0.186 -0.817,-0.154 -0.4,0.104 m 14.4,5.711 c -0.55,0.454 -0.774,0.709 -0.499,0.566 2.305,-1.191 2.625,-1.404 2.099,-1.399 -0.33,0.004 -1.05,0.378 -1.6,0.833 m -56.619,3.256 -1.581,1.7 1.7,-1.581 c 1.581,-1.471 1.884,-1.819 1.581,-1.819 -0.065,0 -0.83,0.765 -1.7,1.7 m 63.379,7.7 c 0.674,1.305 1.228,2.028 1.225,1.6 -0.002,-0.22 -0.371,-0.85 -0.821,-1.4 -0.543,-0.664 -0.679,-0.731 -0.404,-0.2 m 3.518,6.395 c 0.366,0.767 0.736,1.324 0.823,1.237 0.183,-0.183 -1.031,-2.632 -1.305,-2.632 -0.101,0 0.116,0.628 0.482,1.395 M 378.4,170 c -0.824,0.264 -0.859,0.326 -0.2,0.354 0.44,0.019 1.07,-0.141 1.4,-0.354 0.701,-0.453 0.214,-0.453 -1.2,0 m -42.326,0.299 c 3.671,0.066 9.791,0.066 13.6,0 3.809,-0.065 0.806,-0.119 -6.674,-0.119 -7.48,-0.001 -10.597,0.053 -6.926,0.119 m -1.807,5.568 c -0.147,0.146 -0.264,0.461 -0.261,0.7 0.004,0.246 0.147,0.211 0.333,-0.083 0.255,-0.4 2.25,-0.489 8.957,-0.4 4.746,0.064 8.545,-0.019 8.443,-0.184 -0.23,-0.371 -17.103,-0.403 -17.472,-0.033 M 226.662,203.9 c -0.102,0.165 37.13,0.3 82.738,0.3 45.608,0 82.84,-0.135 82.738,-0.3 -0.242,-0.392 -165.234,-0.392 -165.476,0 m 0,15 c 0.102,0.165 37.435,0.3 82.962,0.3 45.527,0 82.776,-0.135 82.776,-0.3 0,-0.165 -37.333,-0.3 -82.962,-0.3 -45.629,0 -82.878,0.135 -82.776,0.3 m -0.256,30.4 c -0.006,0.664 4.211,0.7 82.994,0.7 45.65,0 83,-0.135 83,-0.3 0,-0.165 -37.204,-0.254 -82.675,-0.198 -65.96,0.081 -82.74,0 -82.994,-0.4 -0.228,-0.36 -0.32,-0.304 -0.325,0.198 m 81.839,41.428 c -0.112,0.18 0.328,0.249 0.976,0.154 0.649,-0.095 1.179,-0.242 1.179,-0.327 0,-0.305 -1.957,-0.148 -2.155,0.173 M 314,290.555 c 0,0.085 0.53,0.232 1.179,0.327 0.648,0.095 1.088,0.026 0.976,-0.154 C 315.957,290.407 314,290.25 314,290.555 m -12.473,4.145 c -0.563,0.605 -1.33,1.64 -1.706,2.3 -0.676,1.189 -0.675,1.191 0.049,0.209 0.401,-0.544 1.244,-1.579 1.871,-2.3 1.384,-1.586 1.217,-1.749 -0.214,-0.209 M 168.8,294.818 c -0.438,0.297 -0.276,0.334 0.6,0.138 1.471,-0.329 1.79,-0.558 0.767,-0.55 -0.422,0.003 -1.037,0.189 -1.367,0.412 m 8.033,-0.274 c 0.092,0.079 0.707,0.264 1.367,0.412 0.876,0.196 1.038,0.159 0.6,-0.138 -0.54,-0.365 -2.368,-0.62 -1.967,-0.274 m 12.367,3.98 c 0,0.093 0.765,0.675 1.7,1.293 0.935,0.617 2.707,2.036 3.937,3.153 1.329,1.206 1.148,0.975 -0.447,-0.57 -2.328,-2.255 -5.19,-4.392 -5.19,-3.876 m 108.629,2.505 c -0.148,0.586 -0.191,1.143 -0.097,1.237 0.095,0.094 0.292,-0.308 0.439,-0.895 0.148,-0.586 0.191,-1.143 0.097,-1.237 -0.095,-0.094 -0.292,0.308 -0.439,0.895 m -143.851,0.871 -1.378,1.5 1.5,-1.378 c 1.396,-1.284 1.684,-1.622 1.378,-1.622 -0.066,0 -0.741,0.675 -1.5,1.5 m -2.619,2.6 c -1.752,2.021 -2.272,2.7 -2.069,2.7 0.117,0 0.877,-0.81 1.689,-1.8 1.502,-1.834 1.8,-2.537 0.38,-0.9 m 146.297,3.5 c 0,0.33 0.155,0.96 0.344,1.4 0.217,0.504 0.344,0.578 0.344,0.2 0,-0.33 -0.155,-0.96 -0.344,-1.4 -0.217,-0.504 -0.344,-0.578 -0.344,-0.2 m 28.79,-0.133 c -0.025,0.257 -0.162,0.797 -0.305,1.2 -0.201,0.569 -0.147,0.63 0.238,0.275 0.273,-0.251 0.41,-0.791 0.305,-1.2 -0.105,-0.408 -0.212,-0.532 -0.238,-0.275 m -125.165,4.324 c 0.478,0.985 0.938,1.723 1.022,1.639 0.181,-0.181 -1.435,-3.43 -1.706,-3.43 -0.103,0 0.205,0.806 0.684,1.791 m 97.119,-1.638 c 0,0.429 1.19,2.647 1.421,2.647 0.11,0 -0.098,-0.585 -0.462,-1.3 -0.742,-1.46 -0.959,-1.764 -0.959,-1.347 m 25.293,3.236 c -1.098,1.558 -2.141,2.473 -5.149,4.517 -0.409,0.278 -0.148,0.223 0.58,-0.123 2.183,-1.036 6.567,-5.425 5.992,-6 -0.094,-0.094 -0.734,0.629 -1.423,1.606 m -22.493,1.158 c 0.77,0.837 1.94,1.896 2.6,2.353 1.409,0.974 1.156,0.704 -1.8,-1.922 -1.758,-1.561 -1.918,-1.648 -0.8,-0.431 m -97.944,1.453 c 0,0.33 0.155,0.96 0.344,1.4 0.217,0.504 0.344,0.578 0.344,0.2 0,-0.33 -0.155,-0.96 -0.344,-1.4 -0.217,-0.504 -0.344,-0.578 -0.344,-0.2 m 108.049,3.487 c 0.609,0.092 1.509,0.09 2,-0.005 0.492,-0.095 -0.005,-0.171 -1.105,-0.168 -1.1,0.003 -1.503,0.081 -0.895,0.173 m -130.986,14.187 c 0.149,8.597 0.633,7.999 -6.348,7.846 -3.023,-0.066 -5.413,0.015 -5.31,0.18 0.397,0.64 10.84,0.342 11.51,-0.329 0.673,-0.672 0.977,-13.908 0.329,-14.31 -0.165,-0.102 -0.247,2.874 -0.181,6.613 M 7.843,347.89 c -0.48,0.481 -0.239,1.005 0.269,0.583 0.359,-0.298 57.518,-0.402 192.361,-0.349 105.518,0.042 191.768,-0.057 191.668,-0.22 C 391.923,347.551 8.196,347.537 7.843,347.89 m -0.14,14.91 c 0.178,0.654 383.704,1.153 384.357,0.5 0.165,-0.165 -86.125,-0.255 -191.756,-0.199 -153.45,0.08 -192.127,0 -192.41,-0.4 -0.263,-0.372 -0.313,-0.346 -0.191,0.099 m 0.164,6.267 c -0.147,0.146 -0.264,0.461 -0.261,0.7 0.004,0.256 0.136,0.229 0.324,-0.068 0.254,-0.4 38.905,-0.48 192.356,-0.4 105.621,0.056 191.954,-0.034 191.852,-0.199 -0.229,-0.371 -383.901,-0.404 -384.271,-0.033 m 31.028,25.199 c -0.277,0.112 -0.692,0.593 -0.922,1.069 -0.356,0.738 -0.34,0.772 0.105,0.236 0.287,-0.346 0.882,-0.836 1.322,-1.088 0.797,-0.457 0.456,-0.603 -0.505,-0.217"
       stroke="none"
       fill="#2a1f3a"
       fill-rule="evenodd" />
  </g>
</svg>
