<?xml version="1.0" encoding="UTF-8" standalone="no"?>
<svg
   id="svg"
   version="1.1"
   width="100"
   height="97.395172"
   viewBox="0 0 100 97.395172"
   xmlns="http://www.w3.org/2000/svg"
   xmlns:svg="http://www.w3.org/2000/svg">
  <defs
     id="defs1" />
  <g
     id="svgg"
     transform="matrix(0.24998761,0,0,0.24998761,-0.03699817,-1.2999356)">
    <path
       id="path0"
       d="m 78,113.465 c -11.912,1.105 -20.648,9.551 -22.831,22.074 -0.964,5.533 1.035,13.042 4.531,17.016 0.385,0.438 0.7,0.954 0.7,1.148 0,0.194 0.515,1.105 1.145,2.025 3.255,4.752 3.456,7.022 0.817,9.243 L 61.139,166 H 35.367 9.595 l 0.112,63.1 c 0.079,44.147 0.243,63.535 0.549,64.549 1.888,6.263 7.559,11.705 13.926,13.363 1.96,0.511 10.704,0.577 64.542,0.489 L 151,307.4 l 0.2,-25.868 0.2,-25.868 0.97,-1.033 c 2.149,-2.286 4.662,-2.021 9.075,0.958 0.987,0.666 1.863,1.211 1.947,1.211 0.083,0 1.199,0.68 2.48,1.511 5.398,3.503 10.872,4.738 16.197,3.656 4.261,-0.866 9.131,-2.606 9.131,-3.261 0,-0.168 0.225,-0.308 0.5,-0.311 1.352,-0.014 6.648,-5.31 8.559,-8.559 4.919,-8.362 4.475,-20.743 -0.988,-27.528 -5.962,-7.406 -12.108,-10.478 -20.871,-10.433 -6.312,0.032 -7.861,0.585 -15.963,5.701 -5.026,3.175 -6.488,3.617 -8.616,2.607 -2.721,-1.291 -2.621,-0.217 -2.621,-28.083 0,-19.02 -0.117,-25.257 -0.48,-25.62 -0.363,-0.363 -6.6,-0.48 -25.62,-0.48 -27.866,0 -26.792,0.1 -28.083,-2.621 -1.172,-2.47 -0.831,-3.381 4.304,-11.498 C 112.558,134.119 98.846,111.532 78,113.465"
       stroke="none"
       fill="#7bd33b"
       fill-rule="evenodd" />
    <path
       id="path1"
       d="m 160.8,35.4 c 0,11.11 0.066,20.2 0.146,20.2 0.081,0 1.843,-0.803 3.916,-1.785 16.356,-7.748 37.186,0.001 45.121,16.785 3.99,8.44 4.66,15.425 2.339,24.4 -0.672,2.6 -3.399,8.659 -4.02,8.933 -0.166,0.074 -0.305,0.344 -0.309,0.6 -0.019,1.185 -6.156,7.656 -9.306,9.813 -10.596,7.256 -25.213,8.347 -35.417,2.644 -0.974,-0.545 -1.93,-0.99 -2.124,-0.99 -0.201,0 -0.309,8.659 -0.25,20.1 l 0.104,20.1 20.1,0.104 c 13.134,0.067 20.1,-0.035 20.1,-0.295 0,-0.218 -0.598,-1.525 -1.328,-2.903 -0.731,-1.378 -1.459,-2.956 -1.618,-3.506 -1.434,-4.94 -1.535,-5.672 -1.535,-11.06 0,-3.112 0.183,-6.262 0.407,-7 2.267,-7.465 3.61,-10.36 6.618,-14.264 2.452,-3.183 7.857,-8.053 8.956,-8.069 0.275,-0.004 0.503,-0.142 0.506,-0.307 0.006,-0.269 4.561,-2.568 6.594,-3.328 22.306,-8.343 46.376,8.907 46.367,33.228 -0.003,6.888 -2.479,15.773 -4.664,16.733 -1.609,0.708 2.088,0.867 20.097,0.867 H 302 V 93.873 c 0,-56.318 -0.064,-62.744 -0.644,-64.7 -0.684,-2.308 -1.823,-4.751 -2.743,-5.885 -0.306,-0.378 -1.038,-1.275 -1.625,-1.993 -1.552,-1.897 -4.979,-4.036 -8.229,-5.136 L 285.923,15.2 H 223.362 160.8 v 20.2"
       stroke="none"
       fill="#fb3434"
       fill-rule="evenodd" />
    <path
       id="path2"
       d="M 23.197,16.15 C 18.345,17.832 13.829,21.427 12.34,24.791 12.045,25.456 11.669,26 11.502,26 11.336,26 11.2,26.349 11.2,26.776 c 0,0.427 -0.16,0.876 -0.356,0.997 C 9.969,28.314 9.864,34.53 9.733,93.7 l -0.138,62.7 h 20.203 c 11.111,0 20.202,-0.148 20.202,-0.329 0,-0.181 -0.52,-1.306 -1.156,-2.5 -6.756,-12.69 -3.749,-29.696 7.081,-40.042 2.701,-2.58 6.087,-5.129 6.814,-5.129 0.217,0 0.454,-0.143 0.528,-0.319 0.341,-0.816 6.967,-3.282 10.943,-4.073 3.608,-0.717 15.034,-0.107 15.616,0.834 0.122,0.197 0.573,0.358 1.003,0.358 0.43,0 1.094,0.164 1.476,0.365 0.382,0.201 1.685,0.832 2.895,1.402 2.211,1.041 4.428,2.259 4.8,2.635 0.11,0.112 0.894,0.72 1.741,1.352 1.972,1.47 4.635,4.133 6.105,6.105 0.632,0.847 1.24,1.631 1.352,1.741 0.765,0.757 3.386,6.054 4.155,8.4 1.806,5.505 2.476,14.107 1.415,18.154 -1.022,3.897 -1.427,5.005 -2.857,7.801 -0.831,1.626 -1.511,3.022 -1.511,3.104 0,0.082 9.045,0.102 20.1,0.045 l 20.1,-0.104 0.2,-25.639 c 0.169,-21.617 0.291,-25.758 0.783,-26.4 2.379,-3.108 4.982,-3.046 9.984,0.239 2.011,1.32 3.83,2.4 4.044,2.4 0.214,0 0.389,0.146 0.389,0.325 0,0.179 0.63,0.573 1.4,0.875 0.77,0.302 1.4,0.696 1.4,0.875 0,0.179 0.324,0.325 0.72,0.325 0.396,0 0.891,0.151 1.1,0.336 0.894,0.789 4.964,1.324 8.78,1.153 4.85,-0.218 6.341,-0.535 9.095,-1.936 0.382,-0.194 0.967,-0.353 1.3,-0.353 0.333,0 0.605,-0.18 0.605,-0.4 0,-0.22 0.209,-0.4 0.464,-0.4 2.759,0 9.299,-7.815 11.547,-13.8 3.854,-10.258 -1.31,-24.314 -10.811,-29.431 -0.99,-0.533 -1.86,-1.104 -1.933,-1.269 -0.074,-0.165 -0.468,-0.3 -0.877,-0.3 -0.408,0 -0.854,-0.18 -0.99,-0.4 -0.136,-0.22 -0.676,-0.4 -1.2,-0.4 -0.524,0 -1.064,-0.18 -1.2,-0.4 -0.136,-0.22 -0.721,-0.4 -1.3,-0.4 -0.578,0 -2.08,-0.212 -3.336,-0.472 -2.239,-0.462 -6.636,-0.04 -8.964,0.861 -2.262,0.876 -5.181,2.448 -8.6,4.632 -5.755,3.678 -7.534,4.172 -9.926,2.759 -2.372,-1.401 -2.264,-0.138 -2.385,-28.08 L 150.777,15.2 88.289,15.223 25.8,15.247 23.197,16.15"
       stroke="none"
       fill="#1ba3fb"
       fill-rule="evenodd" />
    <path
       id="path3"
       d="M 21.8,5.6 C 21.664,5.82 21.023,6 20.376,6 19.729,6 19.2,6.18 19.2,6.4 c 0,0.22 -0.54,0.4 -1.2,0.4 -0.66,0 -1.2,0.18 -1.2,0.4 0,0.22 -0.36,0.4 -0.8,0.4 -0.44,0 -0.8,0.18 -0.8,0.4 0,0.22 -0.32,0.4 -0.712,0.4 -0.391,0 -0.971,0.36 -1.288,0.8 -0.317,0.44 -0.852,0.8 -1.188,0.801 -1.018,0.001 -6.83,5.909 -7.98,8.111 C 3.72,18.711 3.315,19.2 3.132,19.2 2.95,19.2 2.8,19.56 2.8,20 c 0,0.44 -0.18,0.8 -0.4,0.8 -0.22,0 -0.4,0.36 -0.4,0.8 0,0.44 -0.18,0.8 -0.4,0.8 -0.22,0 -0.4,0.525 -0.4,1.167 0,0.641 -0.225,1.241 -0.5,1.333 -0.736,0.245 -0.736,272.755 0,273 0.275,0.092 0.5,0.692 0.5,1.333 0,0.642 0.18,1.167 0.4,1.167 0.22,0 0.4,0.36 0.4,0.8 0,0.44 0.18,0.8 0.4,0.8 0.22,0 0.4,0.236 0.4,0.525 0,0.288 0.36,0.911 0.8,1.383 0.44,0.472 0.8,1.052 0.8,1.289 0,0.236 0.585,1.038 1.3,1.783 0.715,0.744 1.724,1.818 2.242,2.386 0.518,0.569 1.181,1.034 1.473,1.034 0.292,0 0.636,0.331 0.765,0.736 0.128,0.405 0.725,0.989 1.327,1.299 0.601,0.31 1.186,0.686 1.299,0.836 0.423,0.559 4.903,2.729 5.635,2.729 0.417,0 0.759,0.18 0.759,0.4 0,0.22 0.72,0.4 1.6,0.4 0.88,0 1.6,0.18 1.6,0.4 0,0.265 22.939,0.4 68.018,0.4 h 68.018 l 0.882,-0.922 c 1.93,-2.018 1.88,-1.341 1.914,-25.973 0.017,-12.818 0.122,-23.08 0.233,-22.805 0.111,0.275 0.457,0.5 0.768,0.5 0.312,0 0.567,0.18 0.567,0.4 0,0.22 0.36,0.4 0.8,0.4 0.44,0 0.8,0.18 0.8,0.4 0,0.22 0.349,0.4 0.776,0.4 0.427,0 0.888,0.18 1.024,0.4 0.136,0.22 0.676,0.4 1.2,0.4 0.524,0 1.064,0.18 1.2,0.4 0.136,0.22 0.856,0.4 1.6,0.4 0.744,0 1.464,0.18 1.6,0.4 0.148,0.239 2.796,0.4 6.6,0.4 3.804,0 6.452,-0.161 6.6,-0.4 0.136,-0.22 0.946,-0.4 1.8,-0.4 0.854,0 1.664,-0.18 1.8,-0.4 0.136,-0.22 0.599,-0.4 1.029,-0.4 0.43,0 1.094,-0.161 1.476,-0.358 0.382,-0.197 1.91,-0.944 3.395,-1.66 1.485,-0.716 2.7,-1.455 2.7,-1.642 0,-0.187 0.32,-0.34 0.712,-0.34 0.391,0 0.971,-0.36 1.288,-0.8 0.317,-0.44 0.786,-0.8 1.042,-0.8 1.124,0 8.558,-8.223 8.558,-9.466 0,-0.294 0.18,-0.534 0.4,-0.534 0.22,0 0.4,-0.36 0.4,-0.8 0,-0.44 0.18,-0.8 0.4,-0.8 0.22,0 0.4,-0.36 0.4,-0.8 0,-0.44 0.18,-0.8 0.4,-0.8 0.22,0 0.4,-0.36 0.4,-0.8 0,-0.44 0.18,-0.8 0.4,-0.8 0.22,0 0.4,-0.54 0.4,-1.2 0,-0.66 0.18,-1.2 0.4,-1.2 0.22,0 0.4,-0.72 0.4,-1.6 0,-0.88 0.18,-1.6 0.4,-1.6 0.222,0 0.4,-1.059 0.4,-2.376 0,-1.307 0.18,-2.488 0.4,-2.624 0.22,-0.136 0.4,-1.396 0.4,-2.8 0,-1.404 -0.18,-2.664 -0.4,-2.8 -0.22,-0.136 -0.4,-1.396 -0.4,-2.8 0,-1.404 -0.18,-2.664 -0.4,-2.8 -0.22,-0.136 -0.4,-0.867 -0.4,-1.624 0,-0.757 -0.18,-1.376 -0.4,-1.376 -0.22,0 -0.4,-0.36 -0.4,-0.8 0,-0.44 -0.18,-0.8 -0.4,-0.8 -0.22,0 -0.4,-0.54 -0.4,-1.2 0,-0.66 -0.18,-1.2 -0.4,-1.2 -0.22,0 -0.4,-0.36 -0.4,-0.8 0,-0.44 -0.135,-0.803 -0.3,-0.806 -0.165,-0.004 -0.748,-0.919 -1.296,-2.034 -0.995,-2.027 -6.125,-7.96 -6.882,-7.96 -0.221,0 -0.905,-0.54 -1.522,-1.2 -0.617,-0.66 -1.369,-1.2 -1.672,-1.2 -0.303,0 -0.811,-0.36 -1.128,-0.8 -0.317,-0.44 -0.897,-0.8 -1.288,-0.8 -0.392,0 -0.712,-0.18 -0.712,-0.4 0,-0.22 -0.36,-0.4 -0.8,-0.4 -0.44,0 -0.8,-0.18 -0.8,-0.4 0,-0.22 -0.36,-0.4 -0.8,-0.4 -0.44,0 -0.8,-0.18 -0.8,-0.4 0,-0.22 -0.439,-0.4 -0.976,-0.4 -0.537,0 -1.088,-0.18 -1.224,-0.4 -0.136,-0.22 -0.867,-0.4 -1.624,-0.4 -0.757,0 -1.376,-0.18 -1.376,-0.4 0,-0.22 -0.889,-0.4 -1.976,-0.4 -1.087,0 -2.088,-0.18 -2.224,-0.4 -0.14,-0.227 -2.137,-0.4 -4.624,-0.4 -2.651,0 -4.376,0.158 -4.376,0.4 0,0.22 -0.979,0.4 -2.176,0.4 -1.197,0 -2.288,0.18 -2.424,0.4 -0.136,0.22 -0.777,0.4 -1.424,0.4 -0.647,0 -1.176,0.18 -1.176,0.4 0,0.22 -0.36,0.4 -0.8,0.4 -0.44,0 -0.8,0.18 -0.8,0.4 0,0.22 -0.36,0.4 -0.8,0.4 -0.44,0 -0.8,0.18 -0.8,0.4 0,0.22 -0.36,0.4 -0.8,0.4 -0.44,0 -0.8,0.18 -0.8,0.4 0,0.22 -0.18,0.4 -0.4,0.4 -0.261,0 -0.4,-6.8 -0.4,-19.6 V 166.8 H 187 c 16.933,0 25.8,-0.137 25.8,-0.4 0,-0.22 0.283,-0.4 0.629,-0.4 0.808,0 1.771,-0.963 1.771,-1.771 0,-0.346 0.18,-0.629 0.4,-0.629 0.22,0 0.4,-0.99 0.4,-2.2 0,-1.21 -0.18,-2.2 -0.4,-2.2 -0.22,0 -0.4,-0.36 -0.4,-0.8 0,-0.44 -0.18,-0.8 -0.4,-0.8 -0.22,0 -0.4,-0.32 -0.4,-0.712 0,-0.391 -0.36,-0.971 -0.8,-1.288 -0.44,-0.317 -0.8,-0.857 -0.8,-1.2 0,-0.343 -0.36,-0.883 -0.8,-1.2 -0.44,-0.317 -0.8,-0.897 -0.8,-1.288 0,-0.392 -0.15,-0.712 -0.332,-0.712 -0.183,0 -0.588,-0.495 -0.9,-1.1 -0.312,-0.605 -0.657,-1.19 -0.767,-1.3 -0.362,-0.36 -1.601,-4.289 -1.601,-5.074 0,-0.421 -0.194,-0.96 -0.431,-1.197 -0.671,-0.671 0.043,-10.13 0.84,-11.129 0.176,-0.22 0.452,-1.111 0.615,-1.981 0.162,-0.869 0.628,-1.938 1.036,-2.375 0.407,-0.437 0.74,-1.031 0.74,-1.319 0,-0.289 0.18,-0.525 0.4,-0.525 0.22,0 0.4,-0.183 0.4,-0.406 0,-0.541 5.868,-6.394 6.41,-6.394 0.233,0 0.81,-0.36 1.282,-0.8 0.472,-0.44 1.095,-0.8 1.383,-0.8 0.289,0 0.525,-0.18 0.525,-0.4 0,-0.22 0.45,-0.4 1,-0.4 0.55,0 1,-0.18 1,-0.4 0,-0.22 0.439,-0.4 0.976,-0.4 0.537,0 1.088,-0.18 1.224,-0.4 0.136,-0.22 1.036,-0.4 2,-0.4 0.964,0 1.864,-0.18 2,-0.4 0.136,-0.22 1.317,-0.4 2.624,-0.4 1.317,0 2.376,0.178 2.376,0.4 0,0.22 0.9,0.4 2,0.4 1.1,0 2,0.18 2,0.4 0,0.22 0.54,0.4 1.2,0.4 0.66,0 1.2,0.18 1.2,0.4 0,0.22 0.36,0.4 0.8,0.4 0.44,0 0.8,0.18 0.8,0.4 0,0.22 0.36,0.4 0.8,0.4 0.44,0 0.8,0.141 0.8,0.314 0,0.172 0.514,0.617 1.143,0.989 1.994,1.177 7.257,6.618 7.257,7.502 0,0.217 0.135,0.396 0.3,0.398 0.359,0.004 1.3,1.941 1.3,2.677 0,0.286 0.18,0.52 0.4,0.52 0.22,0 0.4,0.36 0.4,0.8 0,0.44 0.18,0.8 0.4,0.8 0.22,0 0.4,0.72 0.4,1.6 0,0.88 0.18,1.6 0.4,1.6 0.244,0 0.4,1.867 0.4,4.8 0,2.933 -0.156,4.8 -0.4,4.8 -0.22,0 -0.4,0.54 -0.4,1.2 0,0.66 -0.18,1.2 -0.4,1.2 -0.22,0 -0.4,0.45 -0.4,1 0,0.55 -0.18,1 -0.4,1 -0.22,0 -0.4,0.236 -0.4,0.525 0,0.288 -0.36,0.911 -0.8,1.383 -0.44,0.472 -0.8,1.054 -0.8,1.292 0,0.238 -0.36,0.82 -0.8,1.292 -0.44,0.472 -0.8,1.095 -0.8,1.383 0,0.289 -0.158,0.525 -0.351,0.525 -0.194,0 -0.576,0.54 -0.849,1.2 -0.273,0.66 -0.655,1.2 -0.849,1.2 -0.193,0 -0.351,0.345 -0.351,0.767 0,0.421 -0.203,0.834 -0.45,0.916 -1.718,0.573 0.159,7.517 2.032,7.517 0.23,0 0.418,0.18 0.418,0.4 0,0.596 58.18,0.546 59.296,-0.051 0.463,-0.248 1.262,-0.87 1.773,-1.382 L 312,164.036 V 95.818 C 312,50.606 311.865,27.6 311.6,27.6 c -0.22,0 -0.4,-0.63 -0.4,-1.4 0,-0.77 -0.18,-1.4 -0.4,-1.4 -0.22,0 -0.4,-0.54 -0.4,-1.2 0,-0.66 -0.18,-1.2 -0.4,-1.2 -0.22,0 -0.4,-0.36 -0.4,-0.8 0,-0.44 -0.18,-0.8 -0.4,-0.8 -0.22,0 -0.4,-0.347 -0.4,-0.771 0,-0.425 -0.27,-1.042 -0.6,-1.372 -0.33,-0.33 -0.6,-0.778 -0.6,-0.996 C 307.6,16.93 300.473,10 299.721,10 299.311,10 298.717,9.64 298.4,9.2 298.083,8.76 297.503,8.4 297.112,8.4 296.72,8.4 296.4,8.22 296.4,8 c 0,-0.22 -0.36,-0.4 -0.8,-0.4 -0.44,0 -0.8,-0.18 -0.8,-0.4 0,-0.22 -0.54,-0.4 -1.2,-0.4 -0.66,0 -1.2,-0.18 -1.2,-0.4 C 292.4,6.18 291.77,6 291,6 290.23,6 289.6,5.82 289.6,5.6 289.6,5.334 244.741,5.2 155.824,5.2 67.071,5.2 21.964,5.335 21.8,5.6 m 129.696,35 c 0.103,27.655 0.04,26.899 2.322,27.982 2.466,1.17 3.647,0.776 9.782,-3.268 7.365,-4.856 12.891,-6.196 19.6,-4.756 17.106,3.674 25.849,21.445 18.182,36.957 -1.503,3.041 -6.523,8.885 -7.633,8.885 -0.302,0 -0.549,0.159 -0.549,0.352 0,0.544 -5.61,3.189 -8.245,3.888 -7.622,2.021 -14.743,0.348 -23.155,-5.44 -4.659,-3.206 -6.852,-3.607 -8.958,-1.64 l -1.242,1.161 v 25.825 c 0,25.124 -0.021,25.837 -0.774,26.24 -0.914,0.489 -39.95,0.577 -40.715,0.091 -0.361,-0.229 -0.121,-1.039 0.915,-3.094 3.403,-6.746 4.686,-14.628 3.333,-20.477 -0.869,-3.76 -1.243,-5.117 -1.598,-5.801 -0.199,-0.382 -0.361,-0.948 -0.361,-1.259 0,-3.248 -10.903,-16.646 -13.545,-16.646 -0.214,0 -0.448,-0.136 -0.522,-0.302 -0.213,-0.482 -5.111,-2.77 -7.733,-3.613 -5.213,-1.675 -11.629,-2.184 -15.694,-1.244 -3.76,0.869 -5.117,1.243 -5.801,1.598 -0.382,0.199 -0.948,0.361 -1.259,0.361 -0.783,0 -4.497,1.994 -7.304,3.921 -13.812,9.482 -18.8,28.931 -11.091,43.247 2.129,3.954 3.79,3.654 -19.54,3.536 L 9.4,157 9.285,94.2 C 9.2,47.893 9.29,30.98 9.628,29.8 11.624,22.831 16.732,17.59 23.8,15.258 24.575,15.002 47.385,14.886 88.2,14.931 L 151.4,15 151.496,40.6 M 287.754,15.267 c 0.905,0.258 1.817,0.618 2.026,0.8 0.209,0.183 0.624,0.333 0.922,0.333 3.158,0 9.358,7.246 11.261,13.16 0.309,0.96 0.437,19.851 0.437,64.3 v 62.94 h -20.8 c -14.81,0 -20.8,-0.126 -20.8,-0.438 0,-0.241 0.323,-0.916 0.718,-1.5 3.602,-5.328 5.543,-17.495 3.733,-23.393 -0.248,-0.808 -0.643,-2.144 -0.877,-2.969 -1.6,-5.626 -6.011,-12.379 -10.467,-16.024 -3.609,-2.952 -4.334,-3.421 -7.907,-5.116 -19.866,-9.424 -43.298,2.088 -48.248,23.705 -1.748,7.633 -0.396,17.703 3.079,22.935 0.365,0.55 0.79,1.405 0.943,1.9 l 0.28,0.9 H 181.227 160.4 v -20.827 -20.827 l 0.861,0.273 c 0.473,0.151 1.724,0.782 2.778,1.404 6.965,4.107 18.337,4.612 26.955,1.198 3.054,-1.209 7.544,-3.825 9.268,-5.399 9.124,-8.327 13.386,-17.588 12.807,-27.83 -0.772,-13.665 -7.794,-24.485 -19.562,-30.142 -2.306,-1.108 -3.067,-1.378 -7.107,-2.522 -2.869,-0.812 -12.587,-0.927 -15.4,-0.183 -2.982,0.789 -6.627,2.362 -8.662,3.737 -0.584,0.395 -1.259,0.718 -1.5,0.718 -0.312,0 -0.438,-5.99 -0.438,-20.8 V 14.8 h 62.854 c 46.741,0 63.275,0.12 64.5,0.467 m -201.28,98.379 c 0.37,0.195 0.957,0.354 1.304,0.354 0.347,0 1.484,0.393 2.526,0.873 7.571,3.485 12.018,8.65 14.92,17.327 0.686,2.049 0.717,12.019 0.04,12.696 -0.255,0.255 -0.464,0.7 -0.464,0.988 0,0.893 -1.672,4.169 -3.835,7.516 -4.479,6.93 -4.966,8.932 -2.695,11.066 l 0.994,0.934 26.068,0.2 26.068,0.2 0.2,26.039 c 0.217,28.261 0.086,26.764 2.451,27.987 1.978,1.023 3.235,0.572 9.315,-3.339 3.723,-2.395 6.95,-4.087 7.795,-4.087 0.373,0 0.889,-0.21 1.146,-0.467 0.687,-0.687 10.217,-0.677 12.493,0.013 7.248,2.197 12.371,6.048 15.972,12.008 0.896,1.482 1.628,2.911 1.628,3.175 0,0.265 0.158,0.794 0.351,1.176 1.349,2.672 1.85,11.575 0.831,14.775 -3.017,9.475 -8.569,15.371 -17.382,18.458 -3.942,1.381 -12.258,1.409 -14.994,0.05 -0.333,-0.165 -1.506,-0.72 -2.606,-1.232 -1.1,-0.512 -3.53,-1.938 -5.4,-3.168 -6.323,-4.16 -8.425,-4.612 -10.5,-2.259 -0.385,0.436 -0.742,0.811 -0.793,0.832 -0.051,0.022 -0.186,11.739 -0.3,26.039 l -0.207,26 -62.8,0.115 C 41.949,308.001 25.389,307.912 24.2,307.568 17.066,305.505 11.695,300.134 9.632,293 9.288,291.811 9.199,275.251 9.285,228.6 l 0.115,-62.8 26,-0.207 c 14.3,-0.114 26.017,-0.249 26.039,-0.3 0.021,-0.051 0.381,-0.408 0.8,-0.793 2.377,-2.186 1.923,-4.232 -2.362,-10.655 -8.985,-13.467 -6.358,-28.318 6.523,-36.874 5.349,-3.553 16.219,-5.353 20.074,-3.325 M 337.2,175.2 c 0,0.222 -1.067,0.4 -2.4,0.4 -1.333,0 -2.4,0.178 -2.4,0.4 0,0.22 -0.529,0.4 -1.176,0.4 -0.647,0 -1.288,0.18 -1.424,0.4 -0.136,0.22 -0.651,0.4 -1.145,0.4 -0.958,0 -5.165,1.933 -5.388,2.476 -0.074,0.178 -0.439,0.324 -0.812,0.324 -0.373,0 -0.938,0.36 -1.255,0.8 -0.317,0.44 -0.814,0.8 -1.104,0.8 -0.7,0 -7.559,6.939 -7.891,7.983 -0.142,0.449 -0.409,0.817 -0.592,0.817 -0.184,0 -0.667,0.809 -1.073,1.799 -0.407,0.989 -0.875,1.799 -1.04,1.8 -0.165,0 -0.3,0.35 -0.3,0.777 0,0.427 -0.18,0.888 -0.4,1.024 -0.22,0.136 -0.4,0.597 -0.4,1.024 0,0.427 -0.18,0.776 -0.4,0.776 -0.22,0 -0.4,0.439 -0.4,0.976 0,0.537 -0.18,1.088 -0.4,1.224 -0.22,0.136 -0.4,1.036 -0.4,2 0,0.964 -0.18,1.864 -0.4,2 -0.22,0.136 -0.4,1.599 -0.4,3.251 v 3.003 l -1.162,-0.827 c -0.639,-0.455 -1.359,-0.827 -1.6,-0.827 -0.241,0 -0.438,-0.18 -0.438,-0.4 0,-0.22 -0.278,-0.4 -0.617,-0.4 -0.339,0 -1.003,-0.36 -1.475,-0.8 -0.472,-0.44 -1.095,-0.8 -1.383,-0.8 -0.289,0 -0.525,-0.18 -0.525,-0.4 0,-0.22 -0.36,-0.4 -0.8,-0.4 -0.44,0 -0.8,-0.18 -0.8,-0.4 0,-0.22 -0.32,-0.4 -0.712,-0.4 -0.391,0 -0.971,-0.36 -1.288,-0.8 -0.317,-0.44 -0.897,-0.8 -1.288,-0.8 -0.392,0 -0.712,-0.18 -0.712,-0.4 0,-0.22 -0.36,-0.4 -0.8,-0.4 -0.44,0 -0.8,-0.18 -0.8,-0.4 0,-0.22 -0.27,-0.4 -0.6,-0.4 -0.33,0 -0.6,-0.152 -0.6,-0.337 0,-0.186 -0.855,-0.768 -1.9,-1.295 -1.045,-0.526 -1.99,-1.05 -2.1,-1.163 -0.248,-0.254 -1.699,-1.085 -3.8,-2.175 -0.88,-0.456 -1.69,-0.94 -1.8,-1.074 -0.376,-0.459 -2.759,-1.556 -3.38,-1.556 -0.341,0 -0.62,-0.18 -0.62,-0.4 0,-0.22 -0.236,-0.4 -0.525,-0.4 -0.288,0 -0.873,-0.315 -1.3,-0.7 -0.426,-0.385 -1.315,-0.97 -1.975,-1.299 -0.66,-0.33 -1.29,-0.69 -1.4,-0.8 -0.394,-0.396 -2.613,-1.655 -3.3,-1.872 -0.385,-0.122 -0.7,-0.381 -0.7,-0.576 0,-0.772 -5.805,-0.397 -6.625,0.428 -1.373,1.382 -1.775,1.972 -1.775,2.602 0,0.339 -0.18,0.617 -0.4,0.617 -0.22,0 -0.4,0.278 -0.4,0.617 0,0.339 -0.36,1.003 -0.8,1.475 -0.44,0.472 -1.024,1.364 -1.297,1.983 -0.274,0.619 -0.634,1.125 -0.801,1.125 -0.166,0 -0.302,0.278 -0.302,0.617 0,0.339 -0.36,1.003 -0.8,1.475 -0.44,0.472 -0.8,1.095 -0.8,1.383 0,0.289 -0.18,0.525 -0.4,0.525 -0.22,0 -0.4,0.36 -0.4,0.8 0,0.44 -0.18,0.8 -0.4,0.8 -0.22,0 -0.4,0.32 -0.4,0.712 0,0.391 -0.36,0.971 -0.8,1.288 -0.44,0.317 -0.8,0.897 -0.8,1.288 0,0.392 -0.18,0.712 -0.4,0.712 -0.22,0 -0.4,0.36 -0.4,0.8 0,0.44 -0.158,0.8 -0.351,0.8 -0.194,0 -0.576,0.54 -0.849,1.2 -0.273,0.66 -0.611,1.2 -0.751,1.2 -0.139,0 -0.498,0.552 -0.797,1.227 -0.299,0.675 -1.153,2.24 -1.898,3.477 -0.745,1.237 -1.354,2.535 -1.354,2.884 0,0.35 -0.36,0.895 -0.8,1.212 -0.44,0.317 -0.8,0.897 -0.8,1.288 0,0.392 -0.18,0.712 -0.4,0.712 -0.22,0 -0.4,0.36 -0.4,0.8 0,0.44 -0.18,0.8 -0.4,0.8 -0.22,0 -0.4,0.236 -0.4,0.525 0,0.288 -0.36,0.911 -0.8,1.383 -0.44,0.472 -0.8,1.136 -0.8,1.475 0,0.339 -0.18,0.617 -0.4,0.617 -0.22,0 -0.4,0.255 -0.4,0.567 0,0.311 -0.135,0.626 -0.3,0.7 -0.376,0.167 -1.675,2.297 -1.971,3.233 -0.122,0.385 -0.381,0.7 -0.576,0.7 -0.194,0 -0.353,0.278 -0.353,0.617 0,0.339 -0.36,1.003 -0.8,1.475 -0.44,0.472 -0.8,1.095 -0.8,1.383 0,0.289 -0.18,0.525 -0.4,0.525 -0.22,0 -0.4,0.36 -0.4,0.8 0,0.44 -0.18,0.8 -0.4,0.8 -0.22,0 -0.4,0.99 -0.4,2.2 0,1.21 0.18,2.2 0.4,2.2 0.22,0 0.4,0.283 0.4,0.629 0,0.345 0.232,0.84 0.515,1.1 1.492,1.363 2.302,1.471 11.08,1.471 5.603,0 8.805,0.145 8.805,0.4 0,0.22 0.54,0.4 1.2,0.4 0.66,0 1.2,0.18 1.2,0.4 0,0.22 0.36,0.4 0.8,0.4 0.44,0 0.8,0.18 0.8,0.4 0,0.22 0.36,0.4 0.8,0.4 0.44,0 0.8,0.18 0.8,0.4 0,0.22 0.225,0.401 0.5,0.402 0.275,10e-4 1.075,0.541 1.778,1.2 0.703,0.659 1.387,1.198 1.518,1.198 0.37,0 1.913,1.645 3.002,3.2 0.539,0.77 1.3,1.749 1.691,2.175 0.391,0.427 0.711,1.012 0.711,1.3 0,0.289 0.18,0.525 0.4,0.525 0.22,0 0.4,0.27 0.4,0.6 0,0.33 0.18,0.6 0.4,0.6 0.22,0 0.4,0.54 0.4,1.2 0,0.66 0.18,1.2 0.4,1.2 0.22,0 0.4,0.54 0.4,1.2 0,0.66 0.18,1.2 0.4,1.2 0.248,0 0.4,2.133 0.4,5.6 0,3.467 -0.152,5.6 -0.4,5.6 -0.22,0 -0.4,0.54 -0.4,1.2 0,0.66 -0.18,1.2 -0.4,1.2 -0.22,0 -0.4,0.45 -0.4,1 0,0.55 -0.18,1 -0.4,1 -0.22,0 -0.4,0.36 -0.4,0.8 0,0.44 -0.15,0.8 -0.332,0.8 -0.183,0 -0.585,0.495 -0.893,1.1 -0.664,1.303 -6.886,7.7 -7.49,7.7 -0.23,0 -0.478,0.135 -0.552,0.3 -0.192,0.432 -3.505,2.1 -4.171,2.1 -0.309,0 -0.562,0.18 -0.562,0.4 0,0.22 -0.54,0.4 -1.2,0.4 -0.66,0 -1.2,0.18 -1.2,0.4 0,0.248 -2.133,0.4 -5.6,0.4 -3.467,0 -5.6,-0.152 -5.6,-0.4 0,-0.22 -0.529,-0.4 -1.176,-0.4 -0.647,0 -1.288,-0.18 -1.424,-0.4 -0.136,-0.22 -0.597,-0.4 -1.024,-0.4 -0.427,0 -0.776,-0.18 -0.776,-0.4 0,-0.22 -0.36,-0.4 -0.8,-0.4 -0.44,0 -0.8,-0.18 -0.8,-0.4 0,-0.22 -0.32,-0.4 -0.712,-0.4 -0.391,0 -0.971,-0.36 -1.288,-0.8 -0.317,-0.44 -0.778,-0.8 -1.025,-0.8 -0.66,0 -4.175,-3.428 -4.175,-4.072 0,-0.303 -0.36,-0.811 -0.8,-1.128 -0.44,-0.317 -0.8,-0.897 -0.8,-1.288 0,-0.392 -0.18,-0.712 -0.4,-0.712 -0.22,0 -0.4,-0.213 -0.4,-0.474 0,-0.653 -2.83,-6.095 -3.255,-6.259 -0.19,-0.074 -0.345,-0.407 -0.345,-0.74 0,-0.334 -0.612,-1.219 -1.36,-1.967 -2.454,-2.454 -9.035,-1.603 -9.04,1.169 0,0.18 -0.27,0.598 -0.6,0.928 -0.33,0.33 -0.6,0.947 -0.6,1.372 0,0.424 -0.18,0.771 -0.4,0.771 -0.22,0 -0.4,0.255 -0.4,0.567 0,0.311 -0.135,0.626 -0.3,0.7 -0.376,0.167 -1.675,2.297 -1.971,3.233 -0.122,0.385 -0.381,0.7 -0.576,0.7 -0.194,0 -0.353,0.36 -0.353,0.8 0,0.44 -0.18,0.8 -0.4,0.8 -0.22,0 -0.4,0.27 -0.4,0.6 0,0.33 -0.18,0.6 -0.4,0.6 -0.22,0 -0.4,0.27 -0.4,0.6 0,0.33 -0.18,0.6 -0.4,0.6 -0.22,0 -0.4,0.36 -0.4,0.8 0,0.44 -0.18,0.8 -0.4,0.8 -0.22,0 -0.4,0.278 -0.4,0.617 0,0.339 -0.36,1.003 -0.8,1.475 -0.44,0.472 -0.8,1.095 -0.8,1.383 0,0.289 -0.18,0.525 -0.4,0.525 -0.22,0 -0.4,0.36 -0.4,0.8 0,0.44 -0.18,0.8 -0.4,0.8 -0.22,0 -0.4,0.27 -0.4,0.6 0,0.33 -0.18,0.6 -0.4,0.6 -0.22,0 -0.4,0.27 -0.4,0.6 0,0.33 -0.136,0.6 -0.302,0.6 -0.167,0 -0.557,0.585 -0.868,1.3 -0.311,0.715 -0.67,1.39 -0.798,1.5 -0.281,0.242 -0.667,0.935 -2.679,4.81 -0.854,1.644 -1.688,3.05 -1.853,3.123 -0.165,0.074 -0.3,0.479 -0.3,0.9 0,0.422 -0.18,0.767 -0.4,0.767 -0.22,0 -0.4,0.294 -0.4,0.653 0,0.359 -0.316,0.944 -0.703,1.3 -0.386,0.356 -0.971,1.187 -1.299,1.847 -0.328,0.66 -0.687,1.29 -0.797,1.4 -0.396,0.394 -1.655,2.613 -1.872,3.3 -0.122,0.385 -0.381,0.7 -0.576,0.7 -0.194,0 -0.353,0.36 -0.353,0.8 0,0.44 -0.135,0.801 -0.3,0.803 -0.359,0.004 -1.3,1.941 -1.3,2.677 0,0.286 -0.18,0.52 -0.4,0.52 -0.22,0 -0.4,0.613 -0.4,1.362 0,1.781 1.524,4.638 2.474,4.638 0.399,0 0.726,0.18 0.726,0.4 0,0.22 0.236,0.4 0.525,0.4 0.288,0 0.911,0.36 1.383,0.8 0.472,0.44 1.136,0.8 1.475,0.8 0.339,0 0.617,0.18 0.617,0.4 0,0.22 0.278,0.4 0.617,0.4 0.339,0 1.003,0.36 1.475,0.8 0.472,0.44 1.095,0.8 1.383,0.8 0.289,0 0.525,0.146 0.525,0.325 0,0.179 0.63,0.573 1.4,0.875 0.77,0.302 1.4,0.696 1.4,0.875 0,0.179 0.27,0.325 0.6,0.325 0.33,0 0.6,0.146 0.6,0.325 0,0.179 0.63,0.573 1.4,0.875 0.77,0.302 1.4,0.696 1.4,0.875 0,0.179 0.278,0.325 0.617,0.325 0.339,0 1.003,0.36 1.475,0.8 0.472,0.44 1.095,0.8 1.383,0.8 0.289,0 0.525,0.18 0.525,0.4 0,0.22 0.36,0.4 0.8,0.4 0.44,0 0.8,0.14 0.8,0.31 0,0.171 0.808,0.666 1.796,1.1 0.988,0.435 1.798,0.925 1.8,1.09 0.002,0.165 0.364,0.3 0.804,0.3 0.44,0 0.8,0.18 0.8,0.4 0,0.22 0.27,0.4 0.6,0.4 0.33,0 0.6,0.18 0.6,0.4 0,0.22 0.27,0.4 0.6,0.4 0.33,0 0.6,0.18 0.6,0.4 0,0.22 0.36,0.4 0.8,0.4 0.44,0 0.8,0.18 0.8,0.4 0,0.22 0.278,0.4 0.617,0.4 0.339,0 1.003,0.36 1.475,0.8 0.472,0.44 1.095,0.8 1.383,0.8 0.289,0 0.525,0.18 0.525,0.4 0,0.22 0.36,0.4 0.8,0.4 0.44,0 0.8,0.18 0.8,0.4 0,0.22 0.32,0.4 0.712,0.4 0.391,0 0.971,0.36 1.288,0.8 0.317,0.44 0.897,0.8 1.288,0.8 0.392,0 0.712,0.18 0.712,0.4 0,0.22 0.36,0.4 0.8,0.4 0.44,0 0.8,0.18 0.8,0.4 0,0.22 0.27,0.4 0.6,0.4 0.33,0 0.6,0.152 0.6,0.337 0,0.186 0.855,0.768 1.9,1.295 1.045,0.526 1.99,1.05 2.1,1.163 0.11,0.113 1.01,0.642 2,1.176 3.195,1.723 3.361,1.822 3.913,2.329 0.299,0.275 0.891,0.5 1.316,0.5 0.424,0 0.771,0.18 0.771,0.4 0,0.22 0.36,0.4 0.8,0.4 0.44,0 0.8,0.18 0.8,0.4 0,0.22 0.294,0.4 0.653,0.4 0.359,0 0.944,0.329 1.3,0.73 0.356,0.402 1.232,0.986 1.947,1.298 0.715,0.312 1.3,0.703 1.3,0.87 0,0.166 0.27,0.302 0.6,0.302 0.33,0 0.6,0.18 0.6,0.4 0,0.22 0.27,0.4 0.6,0.4 0.33,0 0.6,0.18 0.6,0.4 0,0.22 0.36,0.4 0.8,0.4 0.44,0 0.8,0.18 0.8,0.4 0,0.22 0.278,0.4 0.617,0.4 0.339,0 1.003,0.36 1.475,0.8 0.472,0.44 1.095,0.8 1.383,0.8 0.289,0 0.525,0.18 0.525,0.4 0,0.22 0.36,0.4 0.8,0.4 0.44,0 0.8,0.18 0.8,0.4 0,0.22 0.278,0.4 0.617,0.4 0.339,0 0.977,0.336 1.417,0.746 0.441,0.411 1.648,1.175 2.684,1.699 1.035,0.524 2.602,1.413 3.482,1.975 0.88,0.562 2.363,1.372 3.295,1.801 0.933,0.428 1.698,0.914 1.7,1.079 0.003,0.165 0.365,0.3 0.805,0.3 0.44,0 0.8,0.18 0.8,0.4 0,0.22 0.32,0.4 0.712,0.4 0.391,0 0.971,0.36 1.288,0.8 0.317,0.44 0.897,0.8 1.288,0.8 0.392,0 0.712,0.18 0.712,0.4 0,0.22 0.36,0.4 0.8,0.4 0.44,0 0.8,0.18 0.8,0.4 0,0.22 0.188,0.4 0.417,0.4 0.229,0 0.803,0.36 1.275,0.8 0.472,0.44 1.095,0.8 1.383,0.8 0.289,0 0.525,0.18 0.525,0.4 0,0.22 0.36,0.4 0.8,0.4 0.44,0 0.8,0.18 0.8,0.4 0,0.22 0.236,0.4 0.525,0.4 0.288,0 0.911,0.36 1.383,0.8 0.472,0.44 1.136,0.8 1.475,0.8 0.339,0 0.617,0.18 0.617,0.4 0,0.22 0.36,0.4 0.8,0.4 0.44,0 0.8,0.158 0.8,0.351 0,0.194 0.54,0.576 1.2,0.849 0.66,0.273 1.2,0.655 1.2,0.849 0,0.193 0.36,0.351 0.8,0.351 0.44,0 0.8,0.18 0.8,0.4 0,0.22 0.36,0.4 0.8,0.4 0.44,0 0.8,0.162 0.8,0.36 0,0.199 0.809,0.694 1.799,1.1 0.989,0.407 1.799,0.875 1.8,1.04 0,0.165 0.361,0.3 0.801,0.3 0.44,0 0.8,0.18 0.8,0.4 0,0.22 0.54,0.4 1.2,0.4 0.66,0 1.2,0.18 1.2,0.4 0,0.22 0.54,0.4 1.2,0.4 0.66,0 1.2,0.18 1.2,0.4 0,0.251 2.592,0.4 6.976,0.4 4.22,0 7.074,-0.158 7.224,-0.4 0.136,-0.22 0.867,-0.4 1.624,-0.4 0.757,0 1.376,-0.18 1.376,-0.4 0,-0.22 0.45,-0.4 1,-0.4 0.55,0 1,-0.18 1,-0.4 0,-0.22 0.21,-0.4 0.466,-0.4 0.746,0 3.534,-1.323 3.534,-1.677 0,-0.178 0.235,-0.323 0.522,-0.323 1.038,0 8.278,-7.017 8.278,-8.023 0,-0.226 0.36,-0.797 0.8,-1.269 0.44,-0.472 0.8,-1.095 0.8,-1.383 0,-0.289 0.18,-0.525 0.4,-0.525 0.22,0 0.4,-0.345 0.4,-0.767 0,-0.421 0.135,-0.826 0.3,-0.9 0.483,-0.215 2.874,-4.292 3.142,-5.357 0.134,-0.537 0.405,-0.976 0.601,-0.976 0.197,0 0.357,-0.27 0.357,-0.6 0,-0.33 0.18,-0.6 0.4,-0.6 0.22,0 0.4,-0.36 0.4,-0.8 0,-0.44 0.18,-0.8 0.4,-0.8 0.22,0 0.4,-0.32 0.4,-0.712 0,-0.391 0.36,-0.971 0.8,-1.288 0.44,-0.317 0.8,-0.897 0.8,-1.288 0,-0.392 0.18,-0.712 0.4,-0.712 0.22,0 0.4,-0.278 0.4,-0.617 0,-0.339 0.36,-1.003 0.8,-1.475 0.44,-0.472 0.8,-1.095 0.8,-1.383 0,-0.289 0.18,-0.525 0.4,-0.525 0.22,0 0.4,-0.36 0.4,-0.8 0,-0.44 0.18,-0.8 0.4,-0.8 0.22,0 0.4,-0.255 0.4,-0.567 0,-0.311 0.135,-0.626 0.3,-0.7 0.376,-0.167 1.675,-2.297 1.971,-3.233 0.122,-0.385 0.381,-0.7 0.576,-0.7 0.194,0 0.353,-0.36 0.353,-0.8 0,-0.44 0.158,-0.8 0.351,-0.8 0.194,0 0.576,-0.54 0.849,-1.2 0.273,-0.66 0.655,-1.2 0.849,-1.2 0.193,0 0.351,-0.36 0.351,-0.8 0,-0.44 0.135,-0.801 0.3,-0.803 0.165,-0.002 0.493,-0.407 0.729,-0.9 0.997,-2.082 2.749,-5.312 2.983,-5.497 0.139,-0.11 0.507,-0.785 0.818,-1.5 0.311,-0.715 0.701,-1.3 0.868,-1.3 0.166,0 0.302,-0.278 0.302,-0.617 0,-0.339 0.36,-1.003 0.8,-1.475 0.44,-0.472 0.8,-1.095 0.8,-1.383 0,-0.289 0.18,-0.525 0.4,-0.525 0.22,0 0.4,-0.36 0.4,-0.8 0,-0.44 0.18,-0.8 0.4,-0.8 0.22,0 0.4,-0.32 0.4,-0.712 0,-0.391 0.36,-0.971 0.8,-1.288 0.44,-0.317 0.8,-0.897 0.8,-1.288 0,-0.392 0.18,-0.712 0.4,-0.712 0.22,0 0.4,-0.36 0.4,-0.8 0,-0.44 0.18,-0.8 0.4,-0.8 0.22,0 0.4,-0.236 0.4,-0.525 0,-0.288 0.315,-0.873 0.7,-1.3 0.385,-0.426 0.97,-1.315 1.299,-1.975 0.33,-0.66 0.69,-1.29 0.8,-1.4 0.252,-0.251 1.095,-1.727 2.171,-3.8 0.456,-0.88 0.94,-1.69 1.074,-1.8 0.459,-0.376 1.556,-2.759 1.556,-3.38 0,-0.341 0.18,-0.62 0.4,-0.62 0.22,0 0.4,-0.32 0.4,-0.712 0,-0.391 0.36,-0.971 0.8,-1.288 0.44,-0.317 0.8,-0.897 0.8,-1.288 0,-0.392 0.18,-0.712 0.4,-0.712 0.22,0 0.4,-0.255 0.4,-0.567 0,-0.311 0.135,-0.626 0.3,-0.7 0.376,-0.167 1.675,-2.297 1.971,-3.233 0.122,-0.385 0.381,-0.7 0.576,-0.7 0.194,0 0.353,-0.278 0.353,-0.617 0,-0.339 0.36,-1.003 0.8,-1.475 0.44,-0.472 0.8,-1.095 0.8,-1.383 0,-0.289 0.18,-0.525 0.4,-0.525 0.22,0 0.4,-0.36 0.4,-0.8 0,-0.44 0.18,-0.8 0.4,-0.8 0.22,0 0.4,-0.278 0.4,-0.617 0,-0.339 0.36,-1.003 0.8,-1.475 0.44,-0.472 0.8,-1.095 0.8,-1.383 0,-0.289 0.18,-0.525 0.4,-0.525 0.22,0 0.4,-0.36 0.4,-0.8 0,-0.44 0.18,-0.8 0.4,-0.8 0.22,0 0.4,-0.193 0.4,-0.428 0,-0.235 0.502,-1.18 1.115,-2.1 0.613,-0.92 1.468,-2.392 1.9,-3.272 0.432,-0.88 0.92,-1.66 1.085,-1.733 0.165,-0.074 0.3,-0.479 0.3,-0.9 0,-0.422 0.18,-0.767 0.4,-0.767 0.22,0 0.4,-0.278 0.4,-0.617 0,-0.339 0.36,-1.003 0.8,-1.475 0.44,-0.472 0.8,-1.095 0.8,-1.383 0,-0.289 0.18,-0.525 0.4,-0.525 0.22,0 0.4,-0.36 0.4,-0.8 0,-0.44 0.18,-0.8 0.4,-0.8 0.22,0 0.4,-0.294 0.4,-0.653 0,-0.359 0.316,-0.944 0.703,-1.3 0.386,-0.356 0.971,-1.187 1.299,-1.847 0.328,-0.66 0.777,-1.328 0.997,-1.485 1.677,-1.193 0.354,-9.515 -1.513,-9.515 -0.34,0 -0.679,-0.135 -0.753,-0.3 -0.196,-0.441 -4.148,-2.5 -4.799,-2.5 -0.306,0 -0.817,-0.36 -1.134,-0.8 -0.317,-0.44 -0.807,-0.8 -1.088,-0.8 -0.282,0 -0.512,-0.18 -0.512,-0.4 0,-0.22 -0.36,-0.4 -0.8,-0.4 -0.44,0 -0.8,-0.18 -0.8,-0.4 0,-0.22 -0.278,-0.4 -0.617,-0.4 -0.339,0 -1.003,-0.36 -1.475,-0.8 -0.472,-0.44 -1.095,-0.8 -1.383,-0.8 -0.289,0 -0.525,-0.18 -0.525,-0.4 0,-0.22 -0.36,-0.4 -0.8,-0.4 -0.44,0 -0.8,-0.18 -0.8,-0.4 0,-0.22 -0.236,-0.4 -0.525,-0.4 -0.288,0 -0.911,-0.36 -1.383,-0.8 -0.472,-0.44 -1.136,-0.8 -1.475,-0.8 -0.339,0 -0.617,-0.18 -0.617,-0.4 0,-0.22 -0.36,-0.4 -0.8,-0.4 -0.44,0 -0.8,-0.158 -0.8,-0.351 0,-0.194 -0.54,-0.576 -1.2,-0.849 -0.66,-0.273 -1.2,-0.611 -1.2,-0.751 0,-0.139 -0.585,-0.508 -1.3,-0.819 -0.715,-0.311 -1.39,-0.67 -1.5,-0.798 -0.234,-0.271 -1.558,-1.039 -3.8,-2.202 -0.88,-0.456 -1.838,-1.055 -2.129,-1.33 -0.29,-0.275 -0.875,-0.5 -1.3,-0.5 -0.424,0 -0.771,-0.18 -0.771,-0.4 0,-0.22 -0.278,-0.4 -0.617,-0.4 -0.339,0 -1.003,-0.36 -1.475,-0.8 -0.472,-0.44 -1.095,-0.8 -1.383,-0.8 -0.942,0 -0.553,-0.692 0.675,-1.2 0.66,-0.273 1.2,-0.655 1.2,-0.849 0,-0.193 0.254,-0.351 0.563,-0.351 0.722,0 7.056,-6.249 7.805,-7.7 0.312,-0.605 0.717,-1.1 0.9,-1.1 0.182,0 0.332,-0.36 0.332,-0.8 0,-0.44 0.148,-0.8 0.329,-0.8 0.581,0 2.966,-5.574 3.174,-7.418 0.111,-0.98 0.358,-1.782 0.549,-1.782 0.191,0 0.348,-0.99 0.348,-2.2 0,-1.21 0.18,-2.2 0.4,-2.2 0.242,0 0.4,-1.733 0.4,-4.4 0,-2.667 -0.158,-4.4 -0.4,-4.4 -0.22,0 -0.4,-0.979 -0.4,-2.176 0,-1.197 -0.155,-2.272 -0.344,-2.389 -0.189,-0.117 -0.455,-1.021 -0.59,-2.007 -0.248,-1.811 -1.757,-5.515 -2.347,-5.761 -0.176,-0.074 -0.319,-0.479 -0.319,-0.9 0,-0.422 -0.168,-0.767 -0.373,-0.767 -0.205,0 -0.489,-0.366 -0.631,-0.813 -0.142,-0.447 -0.694,-1.249 -1.227,-1.782 -0.533,-0.533 -0.969,-1.147 -0.969,-1.365 0,-0.516 -5.124,-5.64 -5.64,-5.64 -0.218,0 -0.846,-0.45 -1.396,-1 -0.55,-0.55 -1.159,-1 -1.354,-1 -0.194,0 -0.591,-0.231 -0.881,-0.513 -0.923,-0.897 -4.967,-2.687 -6.069,-2.687 -0.583,0 -1.06,-0.18 -1.06,-0.4 0,-0.22 -0.54,-0.4 -1.2,-0.4 -0.66,0 -1.2,-0.18 -1.2,-0.4 0,-0.22 -0.889,-0.4 -1.976,-0.4 -1.087,0 -2.088,-0.18 -2.224,-0.4 -0.14,-0.227 -2.137,-0.4 -4.624,-0.4 -2.651,0 -4.376,0.158 -4.376,0.4 m 8.536,9.8 c 15.204,2.651 24.926,18.777 20.035,33.232 -2.527,7.47 -5.998,11.172 -14.771,15.755 -6.262,3.272 -7,3.963 -7,6.562 0,2.051 1.061,3.851 2.27,3.851 0.291,0 0.53,0.159 0.53,0.353 0,0.195 0.315,0.457 0.7,0.583 0.385,0.126 1.51,0.712 2.5,1.303 0.99,0.591 2.385,1.409 3.1,1.818 0.715,0.408 1.885,1.081 2.6,1.494 0.715,0.413 2.47,1.425 3.9,2.249 1.43,0.824 3.185,1.836 3.9,2.249 1.554,0.898 3.605,2.07 5.447,3.114 0.74,0.42 2.559,1.5 4.041,2.4 1.481,0.9 2.756,1.637 2.831,1.637 0.076,0 1.273,0.671 2.66,1.491 4.258,2.519 4.504,2.661 7.449,4.309 3.265,1.827 3.559,2.259 2.543,3.736 -0.402,0.585 -1.551,2.504 -2.553,4.264 -1.002,1.76 -2.18,3.83 -2.619,4.6 -0.438,0.77 -1.743,3.02 -2.899,5 -2.138,3.661 -2.971,5.1 -4.4,7.6 -0.44,0.77 -1.16,2.03 -1.6,2.8 -1.254,2.195 -1.92,3.347 -8.2,14.2 -7.641,13.204 -8.185,14.149 -9.843,17.1 -0.463,0.825 -0.986,1.68 -1.161,1.9 -0.176,0.22 -0.907,1.48 -1.624,2.8 -0.717,1.32 -2.804,4.968 -4.638,8.107 -1.834,3.139 -3.334,5.811 -3.334,5.938 0,0.127 -0.339,0.709 -0.753,1.293 -0.414,0.584 -1.134,1.737 -1.6,2.562 -0.466,0.825 -1.207,2.13 -1.647,2.9 -0.44,0.77 -1.16,2.03 -1.6,2.8 -0.9,1.574 -1.153,2.013 -5.19,9 -3.417,5.914 -4.652,8.084 -5.729,10.07 -4.943,9.112 -15.54,13.635 -24.391,10.408 -2.268,-0.826 -9.615,-4.786 -12.69,-6.839 -0.55,-0.367 -1.54,-0.931 -2.2,-1.253 -0.66,-0.321 -1.29,-0.675 -1.4,-0.785 -0.11,-0.111 -0.63,-0.443 -1.155,-0.739 -0.525,-0.295 -1.605,-0.907 -2.4,-1.359 -0.795,-0.451 -2.435,-1.362 -3.645,-2.023 -1.21,-0.661 -2.65,-1.503 -3.2,-1.871 -0.55,-0.368 -2.44,-1.489 -4.2,-2.491 -1.76,-1.002 -3.83,-2.18 -4.6,-2.619 -0.77,-0.438 -3.02,-1.743 -5,-2.899 -3.661,-2.138 -5.1,-2.971 -7.6,-4.4 -0.77,-0.44 -2.03,-1.16 -2.8,-1.6 -0.77,-0.44 -1.985,-1.14 -2.7,-1.555 -0.715,-0.415 -3.1,-1.787 -5.3,-3.05 -5.575,-3.199 -6.116,-3.514 -8.6,-4.995 -1.21,-0.721 -2.785,-1.647 -3.5,-2.056 -0.715,-0.409 -1.975,-1.131 -2.8,-1.603 -0.825,-0.472 -2.49,-1.4 -3.7,-2.061 -1.21,-0.661 -2.678,-1.535 -3.262,-1.941 -0.584,-0.406 -1.146,-0.739 -1.249,-0.739 -0.103,0 -1.515,-0.781 -3.138,-1.736 -1.623,-0.954 -4.841,-2.829 -7.151,-4.166 -2.31,-1.337 -5.01,-2.904 -6,-3.482 -0.99,-0.578 -2.115,-1.154 -2.5,-1.28 -0.385,-0.126 -0.7,-0.388 -0.7,-0.583 0,-0.194 -0.183,-0.353 -0.407,-0.353 -0.224,0 -1.531,-0.675 -2.905,-1.5 -1.374,-0.825 -2.991,-1.755 -3.593,-2.068 -0.602,-0.312 -1.095,-0.771 -1.095,-1.02 0,-0.683 0.958,-2.605 1.3,-2.609 0.165,-0.002 0.3,-0.186 0.3,-0.41 0,-0.224 0.785,-1.709 1.745,-3.3 0.961,-1.591 2.871,-4.873 4.246,-7.293 1.375,-2.42 2.84,-4.985 3.255,-5.7 0.723,-1.246 1.666,-2.902 2.816,-4.945 0.296,-0.525 0.628,-1.045 0.739,-1.155 0.11,-0.11 0.464,-0.74 0.785,-1.4 0.322,-0.66 0.892,-1.657 1.267,-2.216 0.375,-0.559 1.26,-2.089 1.966,-3.4 2.232,-4.143 2.429,-4.18 4.331,-0.811 13.496,23.914 53.215,18.227 61.275,-8.773 0.262,-0.88 0.617,-1.976 0.788,-2.436 0.561,-1.506 0.827,-9.503 0.412,-12.364 -0.705,-4.856 -0.904,-5.802 -1.269,-6.027 -0.196,-0.121 -0.356,-0.66 -0.356,-1.197 0,-0.537 -0.18,-0.976 -0.4,-0.976 -0.22,0 -0.4,-0.252 -0.4,-0.559 0,-1.405 -3.158,-6.535 -5.787,-9.399 -3.776,-4.115 -5.749,-5.636 -10.858,-8.371 -3.405,-1.822 -7.656,-2.871 -11.636,-2.871 -3.131,0 -5.29,-0.746 -4.319,-1.492 0.22,-0.17 0.642,-0.738 0.938,-1.263 2.444,-4.342 9.763,-17.066 10.724,-18.645 0.535,-0.88 1.076,-1.915 1.202,-2.3 0.126,-0.385 0.388,-0.7 0.583,-0.7 0.194,0 0.353,-0.172 0.353,-0.382 0,-0.211 0.565,-1.336 1.256,-2.5 0.691,-1.165 1.702,-2.928 2.247,-3.918 1.292,-2.35 3.34,-5.6 3.528,-5.6 0.081,0 2.538,1.376 5.458,3.057 2.921,1.682 5.851,3.366 6.511,3.744 0.66,0.377 2.01,1.169 3,1.76 0.99,0.591 2.115,1.177 2.5,1.303 0.385,0.126 0.7,0.388 0.7,0.583 0,0.194 0.172,0.353 0.382,0.353 0.211,0 1.336,0.565 2.5,1.256 1.165,0.691 2.703,1.591 3.418,2 1.22,0.698 2.255,1.29 5.4,3.087 0.715,0.408 3.73,2.144 6.7,3.857 2.97,1.713 5.99,3.449 6.712,3.857 4.702,2.662 7.223,-0.96 6.46,-9.278 -1.041,-11.357 2.882,-19.901 11.69,-25.454 5.364,-3.382 11.75,-4.628 18.074,-3.525"
       stroke="none"
       fill="#040404"
       fill-rule="evenodd" />
    <path
       id="path4"
       d="m 335.567,185.772 c -7.01,1.538 -13.6,6.839 -16.963,13.647 -1.999,4.046 -2.346,6.439 -2.034,14.052 0.302,7.386 -10e-4,8.75 -2.246,10.119 -1.859,1.133 -5.907,0.799 -5.921,-0.49 -0.002,-0.165 -0.167,-0.3 -0.368,-0.3 -0.2,0 -4.295,-2.274 -9.1,-5.052 -9.01,-5.212 -10.353,-5.987 -12.735,-7.348 -3.465,-1.98 -4.124,-2.362 -6.118,-3.544 -1.164,-0.691 -2.289,-1.256 -2.5,-1.256 -0.21,0 -0.382,-0.18 -0.382,-0.4 0,-0.22 -0.171,-0.4 -0.381,-0.4 -0.209,0 -2.545,-1.26 -5.191,-2.8 -2.646,-1.54 -4.979,-2.8 -5.184,-2.8 -0.308,0 -2.257,3.089 -4.671,7.4 -0.246,0.44 -0.836,1.475 -1.31,2.3 -0.475,0.825 -1.242,2.175 -1.706,3 -0.463,0.825 -0.984,1.68 -1.157,1.9 -0.173,0.22 -0.694,1.075 -1.157,1.9 -0.464,0.825 -1.203,2.13 -1.643,2.9 -0.44,0.77 -1.134,1.985 -1.542,2.7 -0.408,0.715 -2.208,3.857 -4,6.983 -3.879,6.767 -3.785,6.117 -0.893,6.117 8.113,0 16.045,3.579 22.714,10.249 2.047,2.046 3.721,3.894 3.721,4.107 0,0.213 0.225,0.632 0.5,0.931 1.392,1.514 3.305,5.563 4.78,10.113 0.787,2.429 0.908,3.648 0.914,9.2 0.007,7.246 -0.434,9.376 -3.104,15 -11.542,24.311 -47.107,26.916 -60.357,4.42 -1.663,-2.822 -1.156,-3.005 -3.824,1.38 -0.669,1.1 -1.662,2.81 -2.206,3.8 -1.822,3.312 -2.792,4.992 -3.464,6 -0.367,0.55 -0.925,1.54 -1.239,2.2 -0.314,0.66 -0.872,1.65 -1.239,2.2 -0.367,0.55 -1.024,1.63 -1.461,2.4 -0.436,0.77 -2.529,4.443 -4.651,8.162 -2.122,3.72 -3.811,6.805 -3.753,6.858 0.057,0.052 1.094,0.679 2.304,1.393 2.047,1.208 3.243,1.897 5.645,3.249 0.525,0.296 1.045,0.628 1.155,0.738 0.2,0.2 3.01,1.731 4.697,2.56 0.493,0.242 0.898,0.575 0.9,0.74 0.002,0.165 0.167,0.3 0.368,0.3 0.2,0 4.295,2.274 9.1,5.052 9.01,5.212 10.353,5.987 12.735,7.348 0.77,0.44 2.03,1.16 2.8,1.6 2.864,1.637 4.169,2.392 11.4,6.597 4.07,2.368 8.39,4.847 9.6,5.511 1.21,0.664 2.38,1.342 2.6,1.507 0.22,0.165 1.075,0.679 1.9,1.142 0.825,0.464 2.13,1.203 2.9,1.643 0.77,0.44 2.006,1.143 2.747,1.563 0.74,0.42 2.559,1.5 4.041,2.4 1.481,0.9 2.75,1.637 2.818,1.637 0.069,0 2.795,1.554 6.059,3.454 5.748,3.345 6.963,4.048 9.935,5.746 0.77,0.44 2.03,1.16 2.8,1.6 0.77,0.44 2.075,1.181 2.9,1.647 0.825,0.466 1.95,1.162 2.5,1.547 0.55,0.385 2.62,1.489 4.6,2.453 l 3.6,1.753 h 5 c 8.527,0 13.311,-2.941 17.899,-11.002 0.438,-0.769 3.07,-5.329 5.849,-10.133 2.778,-4.805 5.052,-8.827 5.052,-8.939 0,-0.111 0.339,-0.68 0.753,-1.264 0.414,-0.584 1.134,-1.737 1.6,-2.562 0.466,-0.825 1.19,-2.105 1.609,-2.845 0.42,-0.74 1.005,-1.775 1.3,-2.3 0.296,-0.525 0.628,-1.045 0.738,-1.155 0.11,-0.11 0.579,-0.92 1.042,-1.8 0.463,-0.88 2.398,-4.283 4.3,-7.562 1.902,-3.28 3.458,-6.006 3.458,-6.06 0,-0.053 0.737,-1.309 1.637,-2.79 0.9,-1.482 1.98,-3.301 2.4,-4.041 0.42,-0.741 1.123,-1.977 1.563,-2.747 0.44,-0.77 1.16,-2.03 1.6,-2.8 1.36,-2.38 2.178,-3.798 5.748,-9.962 1.898,-3.28 3.452,-6.006 3.452,-6.06 0,-0.053 0.737,-1.309 1.637,-2.79 0.9,-1.482 1.98,-3.301 2.4,-4.041 0.42,-0.741 1.123,-1.977 1.563,-2.747 0.44,-0.77 1.16,-2.03 1.6,-2.8 0.44,-0.77 1.16,-2.03 1.6,-2.8 0.44,-0.77 1.138,-1.985 1.552,-2.7 7.842,-13.559 7.736,-13.338 6.613,-13.769 -0.349,-0.134 -3.274,-1.772 -6.5,-3.64 -6.064,-3.511 -7.485,-4.331 -9.865,-5.691 -3.504,-2.002 -4.131,-2.366 -6.2,-3.6 -1.21,-0.721 -2.83,-1.666 -3.6,-2.098 -17.615,-9.896 -18.098,-10.253 -18.144,-13.396 -0.04,-2.787 0.906,-3.697 7.182,-6.906 5.121,-2.618 8.446,-4.964 10.012,-7.064 0.63,-0.845 1.236,-1.626 1.348,-1.736 0.739,-0.73 2.56,-4.519 3.462,-7.2 1.032,-3.068 1.045,-11.265 0.023,-14.4 -4.236,-12.988 -16.798,-20.306 -29.916,-17.428"
       stroke="none"
       fill="#fba324"
       fill-rule="evenodd" />
    <path
       id="path5"
       d="m 160.4,35.6 c 0,14.81 0.126,20.8 0.438,20.8 0.241,0 0.916,-0.323 1.5,-0.718 1.712,-1.157 5.354,-2.798 8.062,-3.632 l 1.4,-0.432 -1.6,0.221 c -0.88,0.122 -3.289,1.018 -5.354,1.991 -2.064,0.974 -3.819,1.77 -3.9,1.77 -0.08,0 -0.146,-9.09 -0.146,-20.2 V 15.2 h 62.562 62.561 l 2.836,0.959 c 3.25,1.1 6.677,3.239 8.229,5.136 0.587,0.718 1.317,1.613 1.622,1.989 0.305,0.376 0.914,1.366 1.354,2.2 0.441,0.834 0.809,1.374 0.818,1.2 0.129,-2.302 -7.694,-10.284 -10.08,-10.284 -0.298,0 -0.713,-0.15 -0.922,-0.333 C 288.39,14.851 285.719,14.8 223.254,14.8 H 160.4 v 20.8 m 140.404,-8.38 c 0.003,0.099 0.273,1.064 0.6,2.144 0.517,1.703 0.596,10.259 0.596,64.5 V 156.4 h -20.4 c -18.009,0 -21.706,-0.159 -20.097,-0.867 2.185,-0.96 4.661,-9.845 4.664,-16.733 0.009,-24.321 -24.061,-41.571 -46.367,-33.228 -2.033,0.76 -6.588,3.059 -6.594,3.328 -0.003,0.165 -0.231,0.303 -0.506,0.307 -2.36,0.035 -13.797,13.029 -12.558,14.268 0.132,0.132 0.365,-0.101 0.519,-0.518 5.183,-14.015 27.245,-22.849 42.339,-16.953 2.537,0.991 6.76,3.198 8.173,4.272 6.682,5.078 11.26,11.398 13.201,18.224 0.234,0.825 0.629,2.161 0.877,2.969 1.81,5.898 -0.131,18.065 -3.733,23.393 -0.395,0.584 -0.718,1.259 -0.718,1.5 0,0.312 5.99,0.438 20.8,0.438 h 20.8 V 93.946 c 0,-62.465 -0.051,-65.136 -1.267,-66.526 -0.183,-0.209 -0.331,-0.299 -0.329,-0.2 M 173.4,51.132 c -0.941,0.16 0.954,0.29 4.6,0.317 7.034,0.052 10.401,0.747 15.507,3.201 19.036,9.151 25.445,32.763 13.666,50.35 -1.55,2.315 -3.732,4.721 -6.911,7.622 -0.947,0.865 -5.433,3.778 -5.816,3.778 -0.22,0 -0.509,0.178 -0.643,0.395 -0.413,0.669 1.042,-0.026 3.946,-1.884 3.7,-2.366 10.222,-8.974 10.244,-10.378 0.004,-0.256 0.143,-0.526 0.309,-0.6 0.621,-0.274 3.348,-6.333 4.02,-8.933 2.321,-8.975 1.651,-15.96 -2.339,-24.4 C 203.632,57.168 187.716,48.697 173.4,51.132 M 160.4,136 v 20.8 h 20.827 20.827 l -0.285,-0.9 c -0.369,-1.169 -1.424,-2.778 -1.664,-2.538 -0.103,0.102 0.102,0.598 0.454,1.101 1.41,2.013 2.054,1.952 -19.459,1.841 L 161,156.2 160.896,136.1 c -0.057,-11.055 0.046,-20.1 0.229,-20.1 0.183,0 1.31,0.521 2.504,1.157 1.194,0.637 2.621,1.276 3.171,1.421 0.55,0.144 0.19,-0.17 -0.8,-0.698 -0.99,-0.529 -2.517,-1.348 -3.394,-1.821 -0.877,-0.472 -1.732,-0.859 -1.9,-0.859 -0.168,0 -0.306,9.36 -0.306,20.8 M 191,118.029 c -0.88,0.423 -1.15,0.657 -0.6,0.52 1.133,-0.282 3.212,-1.324 2.6,-1.303 -0.22,0.007 -1.12,0.36 -2,0.783 m -22.6,1.171 c 0.33,0.213 0.96,0.378 1.4,0.366 l 0.8,-0.022 -0.8,-0.344 c -1.196,-0.514 -2.195,-0.514 -1.4,0 m 19.129,-0.196 c -0.113,0.113 -1.448,0.467 -2.967,0.788 -2.441,0.514 -2.529,0.562 -0.762,0.413 2.211,-0.188 6.102,-1.302 4.767,-1.365 -0.459,-0.022 -0.926,0.052 -1.038,0.164 M 171.4,120 c 0.44,0.189 1.43,0.335 2.2,0.325 l 1.4,-0.02 -1.2,-0.305 c -1.797,-0.457 -3.464,-0.457 -2.4,0 m 5.707,0.69 c 0.719,0.089 1.799,0.087 2.4,-0.004 0.601,-0.091 0.013,-0.164 -1.307,-0.162 -1.32,0.002 -1.812,0.077 -1.093,0.166 m 21.916,4.716 c -0.901,2.158 -0.712,2.722 0.214,0.636 0.429,-0.967 0.697,-1.842 0.595,-1.944 -0.102,-0.101 -0.466,0.487 -0.809,1.308 m -1.174,3.209 c -0.137,0.358 -0.233,1.041 -0.213,1.518 0.026,0.614 0.149,0.475 0.423,-0.477 0.398,-1.384 0.235,-2.198 -0.21,-1.041 m -0.8,3.2 c -0.137,0.358 -0.226,1.581 -0.198,2.718 l 0.05,2.067 0.334,-2.582 c 0.338,-2.608 0.272,-3.394 -0.186,-2.203 M 196.501,139 c 0.004,0.88 0.086,1.193 0.182,0.695 0.096,-0.497 0.092,-1.217 -0.008,-1.6 -0.1,-0.382 -0.179,0.025 -0.174,0.905 m 0.351,3.84 c -0.028,1.012 0.113,2.362 0.315,3 0.202,0.638 0.481,1.676 0.619,2.307 0.139,0.631 0.346,1.054 0.46,0.941 0.114,-0.114 -0.009,-0.99 -0.273,-1.948 -0.264,-0.957 -0.612,-2.73 -0.774,-3.94 l -0.294,-2.2 -0.053,1.84 m 1.566,6.999 c -0.025,0.618 1.226,3.05 1.453,2.824 0.103,-0.103 -0.178,-0.879 -0.624,-1.725 -0.447,-0.846 -0.82,-1.341 -0.829,-1.099 m 141.493,35.254 c 0.94,0.085 2.38,0.084 3.2,-0.002 0.819,-0.086 0.049,-0.155 -1.711,-0.154 -1.76,0.002 -2.43,0.072 -1.489,0.156 m -5.311,0.507 -0.8,0.344 0.8,-0.019 c 0.44,-0.011 1.34,-0.157 2,-0.325 l 1.2,-0.305 -1.2,-0.02 c -0.66,-0.01 -1.56,0.136 -2,0.325 m 11.6,0 c 0.66,0.168 1.56,0.314 2,0.325 l 0.8,0.019 -0.8,-0.344 c -0.44,-0.189 -1.34,-0.335 -2,-0.325 l -1.2,0.02 1.2,0.305 m -17.721,2.7 c -5.3,3.224 -11.297,10.344 -11.275,13.387 0.002,0.282 0.637,-0.757 1.412,-2.309 2.447,-4.903 6.068,-8.641 11.004,-11.362 1.199,-0.661 1.988,-1.205 1.753,-1.209 -0.236,-0.004 -1.537,0.668 -2.894,1.493 m 24.321,-0.519 c 0,0.1 0.664,0.497 1.476,0.882 0.811,0.385 2.737,1.918 4.279,3.406 1.542,1.488 2.858,2.651 2.924,2.586 0.065,-0.066 -0.917,-1.143 -2.183,-2.393 -2.842,-2.808 -6.496,-5.328 -6.496,-4.481 m 10.4,9.869 c 0,0.348 1.237,2.75 1.417,2.75 0.087,0 0.044,-0.315 -0.096,-0.7 -0.288,-0.794 -1.321,-2.397 -1.321,-2.05 m -98.264,2.65 c -0.447,0.825 -1.201,2.175 -1.674,3 -0.474,0.825 -1.197,2.085 -1.607,2.8 -0.41,0.715 -1.425,2.47 -2.254,3.9 -0.83,1.43 -1.862,3.23 -2.294,4 l -0.786,1.4 0.818,-1 c 0.45,-0.55 1.16,-1.63 1.578,-2.4 0.418,-0.77 1.176,-2.12 1.684,-3 0.508,-0.88 1.126,-1.96 1.372,-2.4 4.711,-8.413 4.072,-7.995 8.353,-5.467 4.019,2.373 5.397,3.093 4.874,2.548 -0.676,-0.705 -8.123,-4.881 -8.705,-4.881 -0.3,0 -0.912,0.675 -1.359,1.5 m 99.876,0.9 c 0,0.33 0.175,0.87 0.388,1.2 0.345,0.533 0.388,0.533 0.388,0 0,-0.33 -0.175,-0.87 -0.388,-1.2 -0.345,-0.533 -0.388,-0.533 -0.388,0 m -48.163,1.815 c -0.137,0.358 -0.228,1.131 -0.203,1.718 0.034,0.799 0.124,0.665 0.358,-0.533 0.331,-1.7 0.258,-2.26 -0.155,-1.185 m 49.019,0.585 c 0.02,1.039 0.65,2.746 0.664,1.8 0.006,-0.44 -0.143,-1.16 -0.332,-1.6 -0.211,-0.49 -0.339,-0.568 -0.332,-0.2 m -88.468,1.567 c 0,0.238 0.183,0.433 0.407,0.433 0.224,0 1.593,0.72 3.041,1.6 1.449,0.88 2.723,1.6 2.831,1.6 0.109,0 0.731,0.38 1.382,0.844 0.652,0.464 1.262,0.766 1.356,0.672 0.094,-0.094 -1.311,-1.04 -3.123,-2.102 -1.812,-1.062 -3.879,-2.279 -4.594,-2.705 -0.721,-0.43 -1.3,-0.582 -1.3,-0.342 M 316.148,210 c 0,2.31 0.066,3.255 0.147,2.1 0.081,-1.155 0.081,-3.045 0,-4.2 -0.081,-1.155 -0.147,-0.21 -0.147,2.1 m 50.394,0.2 c -10e-4,1.98 0.066,2.84 0.15,1.912 0.084,-0.928 0.085,-2.548 0.003,-3.6 -0.083,-1.052 -0.152,-0.292 -0.153,1.688 M 287,210.713 c 0.22,0.226 1.03,0.765 1.8,1.198 2.327,1.307 9.313,5.336 10.7,6.172 0.715,0.43 1.3,0.686 1.3,0.569 0,-0.225 -3.505,-2.351 -7.2,-4.367 -1.21,-0.66 -2.38,-1.335 -2.6,-1.501 -0.835,-0.627 -4.382,-2.464 -4,-2.071 m 29.534,6.887 c 0,1.65 0.071,2.325 0.157,1.5 0.087,-0.825 0.087,-2.175 0,-3 -0.086,-0.825 -0.157,-0.15 -0.157,1.5 m 49.316,-1.55 c -0.141,0.703 -0.181,1.352 -0.091,1.442 0.091,0.091 0.289,-0.401 0.441,-1.092 0.152,-0.691 0.193,-1.341 0.091,-1.442 -0.102,-0.102 -0.3,0.389 -0.441,1.092 m -110.397,0.85 -0.72,1.3 0.825,-1 c 0.731,-0.887 1.056,-1.6 0.728,-1.6 -0.062,0 -0.437,0.585 -0.833,1.3 m 109.214,2.767 c -0.854,2.172 -0.607,2.419 0.333,0.333 0.399,-0.884 0.635,-1.698 0.525,-1.808 -0.11,-0.111 -0.496,0.553 -0.858,1.475 m -110.881,0.033 -0.634,1.3 0.815,-1 c 0.785,-0.963 1.041,-1.6 0.643,-1.6 -0.104,0 -0.475,0.585 -0.824,1.3 m 47.634,-0.56 c 0.593,0.53 4.98,2.941 4.98,2.736 0,-0.218 -4.747,-3.076 -5.109,-3.076 -0.138,0 -0.08,0.153 0.129,0.34 m 14.208,2.585 c -0.762,2.005 -3.782,2.836 -6.048,1.665 -0.649,-0.336 -1.179,-0.471 -1.177,-0.3 0.005,0.51 2.069,1.31 3.377,1.309 1.999,-0.003 5.339,-2.613 4.464,-3.489 -0.122,-0.121 -0.399,0.245 -0.616,0.815 m -63.251,0.341 c -0.268,0.514 -0.929,1.699 -1.47,2.634 -0.541,0.935 -0.897,1.7 -0.792,1.7 0.312,0 3.13,-4.889 2.932,-5.087 -0.1,-0.1 -0.401,0.239 -0.67,0.753 m 110.645,0.956 c -0.377,0.576 -0.606,1.127 -0.508,1.225 0.098,0.098 0.486,-0.293 0.864,-0.869 0.377,-0.576 0.606,-1.127 0.508,-1.225 -0.098,-0.098 -0.486,0.293 -0.864,0.869 m -2.117,3.17 c -1.02,1.574 -4.298,4.282 -6.616,5.465 -0.862,0.439 -1.486,0.879 -1.389,0.977 0.289,0.288 3.581,-1.684 5.38,-3.224 1.834,-1.57 4.38,-4.613 3.854,-4.605 -0.184,0.003 -0.737,0.627 -1.229,1.387 m -111.67,1.308 c -0.215,0.385 -0.763,1.33 -1.215,2.1 -3.16,5.374 -3.287,5.035 1.98,5.303 2.74,0.139 3.644,0.097 2.6,-0.122 -0.88,-0.184 -2.725,-0.345 -4.1,-0.358 -2.955,-0.027 -2.89,0.19 -0.954,-3.153 2.042,-3.528 2.523,-4.47 2.282,-4.47 -0.11,0 -0.377,0.315 -0.593,0.7 m 97.965,7.935 c -2.291,1.304 -3.607,2.532 -3.575,3.335 0.016,0.4 0.158,0.301 0.388,-0.271 0.199,-0.495 1.159,-1.395 2.133,-2 2.842,-1.764 3.266,-2.051 3.054,-2.071 -0.11,-0.01 -1.01,0.443 -2,1.007 M 255,235.6 c 0.44,0.189 1.16,0.344 1.6,0.344 h 0.8 l -0.8,-0.344 c -0.44,-0.189 -1.16,-0.344 -1.6,-0.344 h -0.8 l 0.8,0.344 m 2.774,0.757 c 0.15,0.244 0.612,0.443 1.026,0.443 0.414,0 0.864,0.18 1,0.4 0.136,0.22 0.552,0.393 0.924,0.384 0.484,-0.011 0.392,-0.168 -0.324,-0.55 -1.572,-0.84 -2.946,-1.194 -2.626,-0.677 m 3.826,1.409 c 0,0.11 0.855,0.694 1.9,1.298 1.045,0.604 2.575,1.631 3.4,2.284 0.825,0.652 1.572,1.111 1.661,1.019 0.089,-0.092 -0.586,-0.722 -1.5,-1.401 -1.902,-1.412 -5.461,-3.498 -5.461,-3.2 m 7.241,5.134 c 0.096,0.055 1.071,0.91 2.166,1.9 l 1.993,1.8 -1.783,-1.9 c -0.981,-1.045 -1.956,-1.9 -2.167,-1.9 -0.211,0 -0.305,0.045 -0.209,0.1 m 76.03,1.216 c 0.291,0.284 2.059,1.386 3.929,2.449 1.87,1.063 3.985,2.286 4.7,2.717 0.715,0.431 1.3,0.694 1.3,0.584 0,-0.201 -5.951,-3.866 -6.279,-3.866 -0.097,0 -0.962,-0.54 -1.921,-1.2 -1.813,-1.248 -2.642,-1.576 -1.729,-0.684 m -69.934,5.784 c 2.444,3.618 3.273,5.301 4.288,8.7 0.262,0.88 0.634,2.013 0.826,2.519 0.192,0.505 0.37,1.585 0.396,2.4 0.026,0.814 0.196,2.021 0.378,2.681 0.222,0.806 0.264,0.347 0.128,-1.4 -0.18,-2.301 -1.16,-6.292 -2.11,-8.6 -0.783,-1.902 -2.809,-5.77 -3.247,-6.2 -0.112,-0.11 -0.652,-0.874 -1.2,-1.697 -0.548,-0.824 -1.121,-1.499 -1.274,-1.5 -0.153,-0.002 0.664,1.392 1.815,3.097 m 80.874,0.638 c 1.599,1.09 4.589,2.731 4.589,2.519 0,-0.247 -4.697,-3.057 -5.11,-3.057 -0.148,0 0.087,0.242 0.521,0.538 m 7.189,4.058 c 0.894,0.743 3.428,2.113 2.8,1.514 -0.22,-0.21 -1.12,-0.786 -2,-1.28 -0.88,-0.495 -1.24,-0.6 -0.8,-0.234 m 3.6,2.121 c 0.22,0.224 1.075,0.785 1.9,1.245 1.529,0.854 3.273,1.847 5.6,3.187 0.715,0.411 3.1,1.784 5.3,3.05 2.2,1.265 4.585,2.653 5.3,3.084 0.715,0.43 1.3,0.686 1.3,0.569 0,-0.118 -1.125,-0.877 -2.5,-1.687 -2.383,-1.405 -3.311,-1.943 -6.5,-3.765 -3.464,-1.98 -4.123,-2.361 -6.101,-3.535 -2.777,-1.646 -4.797,-2.656 -4.299,-2.148 m 21.635,12.631 c 0.125,0.324 0.023,1.009 -0.226,1.521 -0.432,0.888 -0.424,0.895 0.169,0.155 0.712,-0.89 0.8,-1.667 0.227,-2.021 -0.223,-0.138 -0.297,0.014 -0.17,0.345 M 280.627,273.5 c -0.146,1.485 -0.416,3.15 -0.6,3.7 -0.184,0.55 -0.572,1.81 -0.862,2.8 -0.29,0.99 -0.819,2.34 -1.174,3 -0.81,1.505 -1.222,2.6 -0.979,2.6 0.303,0 1.962,-3.653 2.543,-5.6 0.296,-0.99 0.688,-2.25 0.872,-2.8 0.406,-1.216 0.946,-6.4 0.666,-6.4 -0.11,0 -0.32,1.215 -0.466,2.7 m 105.959,-0.2 -0.634,1.3 0.815,-1 c 0.785,-0.963 1.041,-1.6 0.643,-1.6 -0.104,0 -0.475,0.585 -0.824,1.3 m -1.6,2.8 -0.634,1.3 0.815,-1 c 0.785,-0.963 1.041,-1.6 0.643,-1.6 -0.104,0 -0.475,0.585 -0.824,1.3 m -1.6,2.8 -0.634,1.3 0.815,-1 c 0.785,-0.963 1.041,-1.6 0.643,-1.6 -0.104,0 -0.475,0.585 -0.824,1.3 m -1.564,2.522 c -0.377,0.576 -0.606,1.127 -0.508,1.225 0.098,0.098 0.486,-0.293 0.864,-0.869 0.377,-0.576 0.606,-1.127 0.508,-1.225 -0.098,-0.098 -0.486,0.293 -0.864,0.869 m -1.608,2.813 c -0.373,0.569 -0.587,1.126 -0.475,1.237 0.111,0.111 0.49,-0.354 0.842,-1.035 0.778,-1.504 0.563,-1.622 -0.367,-0.202 M 214.9,286.999 c -0.495,0.765 -0.904,1.527 -0.909,1.695 -0.005,0.168 -0.361,0.756 -0.791,1.306 -0.43,0.55 -0.784,1.18 -0.786,1.4 -0.004,0.348 1.194,-1.413 3.085,-4.536 0.56,-0.926 0.582,-0.909 2.034,1.564 2.504,4.266 11.683,12.489 12.75,11.422 0.127,-0.127 -0.109,-0.356 -0.526,-0.509 -3.38,-1.242 -8.689,-6.152 -11.572,-10.703 -2.224,-3.51 -2.11,-3.453 -3.285,-1.639 m 60.584,0.771 c -0.6,0.949 -1.825,2.56 -2.722,3.578 -0.896,1.019 -1.501,1.852 -1.343,1.852 0.627,0 5.662,-6.653 5.305,-7.009 -0.081,-0.081 -0.639,0.629 -1.24,1.579 m 103.584,-1.47 c -0.2,0.333 -1.42,2.498 -2.706,4.8 -0.46,0.825 -1,1.671 -1.2,1.88 -0.199,0.209 -0.362,0.564 -0.362,0.789 0,0.486 0.76,-0.562 2.008,-2.769 2.482,-4.388 2.804,-5 2.628,-5 -0.104,0 -0.27,0.135 -0.368,0.3 m -168.703,8.6 c -0.919,1.595 -2.025,3.53 -2.457,4.3 l -0.787,1.4 0.818,-1 c 0.45,-0.55 1.16,-1.63 1.578,-2.4 0.419,-0.77 1.244,-2.255 1.835,-3.3 0.591,-1.045 0.986,-1.9 0.878,-1.9 -0.107,0 -0.946,1.305 -1.865,2.9 m 57.429,1.228 c -1.103,0.92 -2.453,1.992 -3,2.384 -0.766,0.548 -0.797,0.618 -0.135,0.307 0.892,-0.419 4.345,-2.969 5.27,-3.892 1.17,-1.167 -0.255,-0.365 -2.135,1.201 m 105.17,0.772 c -2.611,4.428 -3.538,6.247 -2.6,5.1 0.45,-0.55 0.822,-1.152 0.827,-1.338 0.005,-0.186 0.337,-0.816 0.737,-1.4 1.155,-1.684 2.925,-4.862 2.708,-4.862 -0.109,0 -0.861,1.125 -1.672,2.5 m -166.412,4.618 c -1.505,2.459 -2.551,4.579 -1.815,3.682 0.925,-1.129 2.549,-4.047 2.358,-4.238 -0.069,-0.069 -0.313,0.181 -0.543,0.556 m 27.248,0.104 c 0.88,0.416 1.87,0.753 2.2,0.749 0.33,-0.005 -0.3,-0.36 -1.4,-0.789 -2.504,-0.978 -2.908,-0.958 -0.8,0.04 m 23,0.378 c -0.533,0.345 -0.533,0.388 0,0.388 0.33,0 0.87,-0.175 1.2,-0.388 0.533,-0.345 0.533,-0.388 0,-0.388 -0.33,0 -0.87,0.175 -1.2,0.388 m -19.4,0.8 c 0.44,0.189 1.07,0.344 1.4,0.344 0.378,0 0.304,-0.127 -0.2,-0.344 -0.44,-0.189 -1.07,-0.344 -1.4,-0.344 -0.378,0 -0.304,0.127 0.2,0.344 m 16.4,0 -0.8,0.344 h 0.8 c 0.44,0 1.16,-0.155 1.6,-0.344 l 0.8,-0.344 h -0.8 c -0.44,0 -1.16,0.155 -1.6,0.344 m -12.524,0.86 c 1.177,0.332 8.548,0.326 10.101,-0.007 0.648,-0.139 -1.568,-0.253 -4.923,-0.253 -3.356,0 -5.686,0.117 -5.178,0.26 m 127.31,0.84 -0.634,1.3 0.815,-1 c 0.785,-0.963 1.041,-1.6 0.643,-1.6 -0.104,0 -0.475,0.585 -0.824,1.3 m -1.409,2.366 c -0.268,0.514 -0.929,1.699 -1.47,2.634 -0.541,0.935 -0.897,1.7 -0.792,1.7 0.312,0 3.13,-4.889 2.932,-5.087 -0.1,-0.1 -0.401,0.239 -0.67,0.753 m -164.191,0.834 -0.634,1.3 0.815,-1 c 0.785,-0.963 1.041,-1.6 0.643,-1.6 -0.104,0 -0.475,0.585 -0.824,1.3 m -3.449,5.961 c -1.396,2.453 -2.962,5.193 -3.481,6.088 l -0.943,1.628 0.913,0.612 c 1.649,1.104 4.774,2.831 4.774,2.638 0,-0.104 -1.125,-0.846 -2.5,-1.649 -1.375,-0.803 -2.55,-1.506 -2.611,-1.563 -0.061,-0.057 1.172,-2.333 2.739,-5.059 3.318,-5.771 4.057,-7.156 3.819,-7.156 -0.096,0 -1.315,2.007 -2.71,4.461 m 164.309,-1.075 c -0.355,0.542 -0.646,1.099 -0.646,1.238 0,0.139 -0.38,0.786 -0.844,1.437 -0.464,0.652 -0.756,1.273 -0.648,1.38 0.175,0.175 1.393,-1.727 2.651,-4.141 0.627,-1.203 0.295,-1.147 -0.513,0.086 m -3.2,5.6 c -0.355,0.542 -0.65,1.127 -0.655,1.3 -0.005,0.173 -0.361,0.764 -0.791,1.314 -0.43,0.55 -0.786,1.175 -0.791,1.389 -0.012,0.499 0.812,-0.682 2.156,-3.089 1.121,-2.008 1.171,-2.578 0.081,-0.914 m -4.082,7.114 c -2.611,4.428 -3.538,6.247 -2.6,5.1 0.45,-0.55 0.822,-1.152 0.827,-1.338 0.005,-0.186 0.337,-0.816 0.737,-1.4 1.155,-1.684 2.925,-4.862 2.708,-4.862 -0.109,0 -0.861,1.125 -1.672,2.5 m -154.753,0.039 c 2.314,1.579 2.989,1.92 2.989,1.507 0,-0.245 -0.225,-0.45 -0.5,-0.455 -0.275,-0.005 -0.95,-0.361 -1.5,-0.791 -0.55,-0.43 -1.175,-0.786 -1.389,-0.791 -0.214,-0.005 -0.034,0.233 0.4,0.53 m 4,2.388 c 2.092,1.396 4.589,2.668 4.589,2.337 0,-0.204 -0.315,-0.474 -0.7,-0.6 -0.385,-0.126 -1.47,-0.687 -2.411,-1.246 -1.772,-1.055 -2.866,-1.418 -1.478,-0.491 m 6.789,3.781 c 0.478,0.512 7.346,4.495 7.732,4.484 0.333,-0.009 -2.545,-1.806 -5.732,-3.578 -1.32,-0.734 -2.22,-1.141 -2,-0.906 m 139.777,0.958 c -0.268,0.514 -0.929,1.699 -1.47,2.634 -0.541,0.935 -0.885,1.7 -0.764,1.7 0.332,0 3.117,-4.873 2.906,-5.084 -0.101,-0.102 -0.403,0.236 -0.672,0.75 M 221,336.304 c 0.344,0.372 1.909,1.313 8.8,5.291 0.66,0.381 2.146,1.254 3.301,1.94 2.777,1.646 4.797,2.656 4.299,2.148 -0.22,-0.224 -1.075,-0.785 -1.9,-1.245 -2.257,-1.261 -5.525,-3.131 -9.5,-5.437 -1.43,-0.83 -3.23,-1.873 -4,-2.319 -0.77,-0.445 -1.22,-0.615 -1,-0.378 m 128,2.096 c -0.341,0.66 -0.531,1.2 -0.421,1.2 0.11,0 0.48,-0.54 0.821,-1.2 0.341,-0.66 0.531,-1.2 0.421,-1.2 -0.11,0 -0.48,0.54 -0.821,1.2 m -1.586,2.635 c -0.373,0.569 -0.587,1.126 -0.475,1.237 0.111,0.111 0.49,-0.354 0.842,-1.035 0.778,-1.504 0.563,-1.622 -0.367,-0.202 m -2.223,3.865 c -0.005,0.275 -0.361,0.95 -0.791,1.5 -0.761,0.973 -1.164,2.172 -0.464,1.38 0.886,-1.003 2.08,-3.38 1.697,-3.38 -0.238,0 -0.437,0.225 -0.442,0.5 M 238,346.12 c 0,0.293 4.885,3.128 5.071,2.943 0.091,-0.092 -0.878,-0.773 -2.153,-1.514 C 238.214,345.976 238,345.871 238,346.12 m 104.614,3.315 c -0.373,0.569 -0.609,1.103 -0.525,1.187 0.084,0.085 0.469,-0.381 0.855,-1.034 0.862,-1.46 0.604,-1.579 -0.33,-0.153 M 243.6,349.343 c 0,0.332 4.873,3.117 5.084,2.906 0.102,-0.101 -0.236,-0.403 -0.75,-0.672 -0.514,-0.268 -1.699,-0.929 -2.634,-1.47 -0.935,-0.541 -1.7,-0.885 -1.7,-0.764 m 97.446,2.844 c -0.356,0.542 -1.119,1.847 -1.696,2.9 -0.577,1.052 -1.404,2.543 -1.839,3.313 -0.696,1.234 -0.702,1.293 -0.051,0.502 0.407,-0.494 1.186,-1.754 1.73,-2.8 0.545,-1.046 1.085,-1.992 1.2,-2.102 0.369,-0.352 1.662,-2.8 1.479,-2.8 -0.098,0 -0.468,0.444 -0.823,0.987 M 249.2,352.55 c 0,0.194 5.971,3.85 6.289,3.85 0.103,0 0.665,0.332 1.249,0.738 1.767,1.229 6.736,3.769 5.662,2.894 -0.55,-0.448 -1.117,-0.818 -1.259,-0.823 -0.143,-0.005 -1.444,-0.729 -2.893,-1.609 -1.448,-0.88 -2.744,-1.6 -2.879,-1.6 -0.135,0 -0.723,-0.328 -1.307,-0.728 -1.632,-1.12 -4.862,-2.928 -4.862,-2.722 m 86.952,8.168 c -1.53,2.499 -2.596,4.482 -2.409,4.482 0.28,0 3.135,-4.856 2.959,-5.032 -0.073,-0.072 -0.32,0.175 -0.55,0.55 M 263.6,360.99 c 0,0.104 0.585,0.475 1.3,0.824 l 1.3,0.634 -1,-0.815 c -0.963,-0.785 -1.6,-1.041 -1.6,-0.643 m 2.8,1.572 c 0,0.089 0.855,0.653 1.9,1.253 1.045,0.6 2.485,1.441 3.2,1.87 0.715,0.429 1.3,0.691 1.3,0.581 0,-0.19 -5.942,-3.866 -6.251,-3.866 -0.082,0 -0.149,0.073 -0.149,0.162 m 66.186,4.338 -0.634,1.3 0.815,-1 c 0.785,-0.963 1.041,-1.6 0.643,-1.6 -0.104,0 -0.475,0.585 -0.824,1.3 M 275,367.51 c 0.373,0.398 3.773,2.418 11.6,6.89 2.757,1.576 4.038,2.313 6.6,3.799 1.43,0.83 3.23,1.862 4,2.294 l 1.4,0.786 -1,-0.818 c -0.55,-0.45 -1.63,-1.16 -2.4,-1.578 -0.77,-0.418 -2.075,-1.148 -2.9,-1.621 -0.825,-0.474 -2.13,-1.222 -2.9,-1.662 -3.148,-1.799 -4.214,-2.414 -9,-5.196 -6.019,-3.498 -5.912,-3.44 -5.4,-2.894 m 55.338,3.19 c -0.735,1.265 -1.41,2.48 -1.498,2.7 -0.089,0.22 -0.861,1.435 -1.716,2.7 -0.854,1.265 -1.464,2.3 -1.354,2.3 0.308,0 3.127,-4.287 4.8,-7.3 1.824,-3.286 1.637,-3.612 -0.232,-0.4 m -8.257,10.672 c -1.858,1.313 -2.119,1.689 -0.55,0.79 0.732,-0.419 1.519,-0.987 1.749,-1.262 0.591,-0.707 0.313,-0.598 -1.199,0.472 m -22.881,0.25 c 1.014,0.691 3.55,1.978 3.884,1.971 0.174,-0.004 -0.658,-0.544 -1.848,-1.2 -2.112,-1.164 -3.236,-1.59 -2.036,-0.771 m 18.6,2 c -0.88,0.416 -1.397,0.762 -1.149,0.768 0.581,0.013 3.349,-1.14 3.349,-1.395 0,-0.318 -0.509,-0.173 -2.2,0.627 m -11.262,1.272 c 0.576,0.366 7.815,0.348 8.747,-0.022 0.377,-0.15 -1.541,-0.272 -4.262,-0.272 -2.721,0 -4.739,0.132 -4.485,0.294"
       stroke="none"
       fill="#8c3e15"
       fill-rule="evenodd" />
    <path
       id="path6"
       d="m 24.2,15.219 c -0.558,0.252 -0.315,0.288 0.8,0.119 0.88,-0.134 1.675,-0.31 1.767,-0.391 0.343,-0.303 -1.799,-0.076 -2.567,0.272 m 127,25.301 0.2,25.68 0.103,-25.377 C 151.56,26.866 151.47,15.31 151.303,15.143 151.136,14.976 151.09,26.396 151.2,40.52 M 14.961,20.5 c -1.459,1.545 -3.297,3.855 -2.308,2.9 1.065,-1.028 4.237,-4.6 4.085,-4.6 -0.094,0 -0.894,0.765 -1.777,1.7 m -3.58,4.737 c -0.352,0.681 -0.569,1.308 -0.482,1.395 0.087,0.087 0.457,-0.47 0.823,-1.237 0.822,-1.725 0.537,-1.857 -0.341,-0.158 M 9.398,30.5 C 9.279,30.995 9.23,59.66 9.291,94.2 L 9.4,157 l 20.511,0.104 c 21.527,0.108 22.209,0.056 20.564,-1.589 -0.307,-0.307 -0.366,-0.185 -0.206,0.427 l 0.224,0.858 H 30.043 9.593 L 9.696,93.2 C 9.753,58.22 9.758,29.6 9.708,29.6 c -0.051,0 -0.19,0.405 -0.31,0.9 m 165.204,29.868 c -0.438,0.171 0.732,0.237 2.6,0.147 4.637,-0.223 5.257,-0.418 1.398,-0.44 -1.76,-0.011 -3.559,0.121 -3.998,0.293 M 169,62.167 c -1.54,0.736 -3.16,1.637 -3.6,2.003 -0.44,0.365 0.217,0.11 1.461,-0.569 1.243,-0.678 3.223,-1.579 4.4,-2.002 1.176,-0.424 1.779,-0.77 1.339,-0.77 -0.44,0 -2.06,0.602 -3.6,1.338 m 14.633,-1.224 c 0.092,0.078 0.797,0.258 1.567,0.399 0.985,0.181 1.222,0.14 0.8,-0.136 -0.542,-0.356 -2.763,-0.603 -2.367,-0.263 m 5.2,1.606 c 0.412,0.368 2.767,1.451 2.767,1.272 0,-0.231 -2.218,-1.421 -2.647,-1.421 -0.157,0 -0.211,0.067 -0.12,0.149 m 7.567,5.242 c 1.21,1.315 2.245,2.47 2.3,2.566 0.055,0.097 0.185,0.091 0.29,-0.013 0.104,-0.104 -0.931,-1.259 -2.3,-2.567 l -2.49,-2.377 2.2,2.391 M 154.262,69.3 c 0.237,0.384 2.593,0.38 3.2,-0.006 C 157.716,69.132 157.058,69 156,69 c -1.058,0 -1.84,0.135 -1.738,0.3 m 48.984,10.3 c 0.019,0.33 0.178,1.05 0.354,1.6 l 0.32,1 0.034,-1 c 0.019,-0.55 -0.141,-1.27 -0.354,-1.6 -0.345,-0.533 -0.384,-0.533 -0.354,0 m 0.4,10.467 c -0.025,0.367 -0.15,0.997 -0.276,1.4 -0.218,0.695 -0.207,0.696 0.227,0.02 0.251,-0.391 0.376,-1.021 0.276,-1.4 -0.162,-0.619 -0.185,-0.621 -0.227,-0.02 m -3.032,8.168 c -0.373,0.569 -0.587,1.126 -0.475,1.237 0.111,0.111 0.49,-0.354 0.842,-1.035 0.778,-1.504 0.563,-1.622 -0.367,-0.202 m -1.835,2.804 c -0.305,0.571 -1.606,2.011 -2.89,3.2 -1.284,1.188 -2.184,2.161 -2,2.161 0.331,0 4.676,-4.357 5.684,-5.7 0.289,-0.385 0.353,-0.7 0.144,-0.7 -0.21,0 -0.632,0.467 -0.938,1.039 m -43.479,1.237 c 0.385,0.1 1.015,0.1 1.4,0 0.385,-0.101 0.07,-0.183 -0.7,-0.183 -0.77,0 -1.085,0.082 -0.7,0.183 m -2.778,1.09 c -0.617,0.531 -1.032,1.03 -0.922,1.108 0.11,0.078 0.718,-0.357 1.35,-0.966 1.415,-1.363 1.109,-1.465 -0.428,-0.142 m 6.678,-0.071 c 0,0.302 5.66,3.979 5.842,3.796 0.092,-0.091 -0.69,-0.7 -1.738,-1.352 -1.047,-0.652 -2.399,-1.511 -3.004,-1.908 -0.605,-0.398 -1.1,-0.639 -1.1,-0.536 M 73.6,104.4 c -1.367,0.288 -1.372,0.295 -0.2,0.319 0.66,0.014 1.56,-0.13 2,-0.319 0.962,-0.413 0.164,-0.413 -1.8,0 m 11.6,0 c 0.55,0.176 1.45,0.317 2,0.313 0.898,-0.007 0.878,-0.039 -0.2,-0.313 -1.692,-0.431 -3.144,-0.431 -1.8,0 m -14.8,0.8 c -0.824,0.264 -0.859,0.326 -0.2,0.354 0.44,0.019 1.07,-0.141 1.4,-0.354 0.701,-0.453 0.214,-0.453 -1.2,0 m 80.897,25.42 c -0.073,18.972 -0.216,25.339 -0.577,25.7 -0.361,0.361 -5.45,0.48 -20.447,0.48 h -19.966 l 0.191,-1 c 0.238,-1.244 -0.012,-1.298 -0.461,-0.1 -0.216,0.577 -0.175,1.005 0.113,1.194 0.843,0.55 40.018,0.364 40.778,-0.194 0.63,-0.463 0.672,-2.374 0.573,-25.9 l -0.107,-25.4 -0.097,25.22 M 93.6,106.541 c 0,0.251 4.105,2.287 4.273,2.119 0.108,-0.107 -1.136,-0.784 -3.973,-2.162 -0.165,-0.08 -0.3,-0.061 -0.3,0.043 m -32.405,2.908 c -3.821,2.523 -11.871,11.208 -11.102,11.978 0.095,0.095 0.778,-0.773 1.517,-1.927 1.922,-3.001 6.485,-7.608 9.45,-9.539 2.204,-1.436 2.856,-1.961 2.435,-1.961 -0.058,0 -1.093,0.652 -2.3,1.449 M 166.8,108.196 c 0,0.274 2.449,1.488 2.632,1.305 0.087,-0.087 -0.47,-0.457 -1.237,-0.823 -0.767,-0.366 -1.395,-0.583 -1.395,-0.482 m 20.2,1.422 c -1.1,0.412 -1.707,0.756 -1.349,0.765 0.728,0.019 3.549,-1.085 3.549,-1.388 0,-0.107 -0.045,-0.179 -0.1,-0.16 -0.055,0.019 -1,0.371 -2.1,0.783 m -85.8,1.435 c 2.925,2.458 5.89,5.723 7.649,8.422 0.905,1.389 1.724,2.525 1.822,2.525 1.201,0 -5.509,-8.105 -8.717,-10.53 -1.405,-1.061 -1.744,-1.249 -0.754,-0.417 m 72.7,0.029 c 0.495,0.096 1.305,0.096 1.8,0 0.495,-0.095 0.09,-0.173 -0.9,-0.173 -0.99,0 -1.395,0.078 -0.9,0.173 m 7.005,0.005 c 0.609,0.092 1.509,0.09 2,-0.005 0.492,-0.095 -0.005,-0.171 -1.105,-0.168 -1.1,0.003 -1.503,0.081 -0.895,0.173 M 113.234,128.6 c -0.012,0.44 0.153,1.07 0.366,1.4 0.514,0.795 0.514,-0.204 0,-1.4 l -0.344,-0.8 -0.022,0.8 m -66.978,2.284 c -0.135,0.504 -0.228,1.366 -0.207,1.916 0.023,0.589 0.182,0.271 0.387,-0.775 0.367,-1.873 0.237,-2.698 -0.18,-1.141 m 67.772,0.949 c 0.016,0.642 0.188,1.527 0.382,1.967 0.237,0.534 0.276,0.202 0.117,-1 -0.281,-2.12 -0.539,-2.62 -0.499,-0.967 M 45.701,135.8 c 0.004,0.88 0.086,1.193 0.182,0.695 0.096,-0.497 0.092,-1.217 -0.008,-1.6 -0.1,-0.382 -0.179,0.025 -0.174,0.905 m 69.2,3.2 c 0.004,0.88 0.086,1.193 0.182,0.695 0.096,-0.497 0.092,-1.217 -0.008,-1.6 -0.1,-0.382 -0.179,0.025 -0.174,0.905 m -69.208,2.6 c 0,0.77 0.082,1.085 0.183,0.7 0.1,-0.385 0.1,-1.015 0,-1.4 -0.101,-0.385 -0.183,-0.07 -0.183,0.7 m 68.507,3.2 c -0.154,0.91 -0.196,1.738 -0.093,1.84 0.103,0.103 0.306,-0.563 0.453,-1.48 0.147,-0.917 0.188,-1.745 0.093,-1.84 -0.095,-0.096 -0.299,0.57 -0.453,1.48 m -68.194,0.233 c 0.003,0.642 0.178,1.437 0.389,1.767 0.26,0.409 0.304,0.09 0.137,-1 -0.303,-1.977 -0.534,-2.314 -0.526,-0.767 m 65.423,7.828 c -0.346,0.694 -0.629,1.364 -0.629,1.489 0,0.347 1.033,-1.256 1.321,-2.05 0.415,-1.145 -0.015,-0.796 -0.692,0.561"
       stroke="none"
       fill="#11588b"
       fill-rule="evenodd" />
    <path
       id="path7"
       d="m 76.4,113.174 c -13.92,1.835 -24.304,16.415 -21.44,30.103 0.724,3.462 1.988,6.177 4.917,10.568 4.285,6.423 4.739,8.469 2.362,10.655 -0.419,0.385 -0.779,0.742 -0.8,0.793 -0.022,0.051 -11.739,0.186 -26.039,0.3 l -26,0.207 -0.115,62.8 c -0.086,46.651 0.003,63.211 0.347,64.4 2.063,7.134 7.434,12.505 14.568,14.568 1.189,0.344 17.749,0.433 64.4,0.347 l 62.8,-0.115 0.207,-26 c 0.114,-14.3 0.249,-26.017 0.3,-26.039 0.051,-0.021 0.408,-0.396 0.793,-0.832 2.075,-2.353 4.177,-1.901 10.5,2.259 1.87,1.23 4.3,2.656 5.4,3.168 1.1,0.512 2.277,1.07 2.616,1.239 0.339,0.169 1.599,0.412 2.8,0.54 2.042,0.219 2.08,0.208 0.584,-0.168 -4.606,-1.156 -5.897,-1.712 -9.32,-4.011 -0.946,-0.636 -1.792,-1.156 -1.88,-1.156 -0.088,0 -0.968,-0.545 -1.955,-1.211 -4.413,-2.979 -6.926,-3.244 -9.075,-0.958 l -0.97,1.033 -0.2,25.868 -0.2,25.868 -62.276,0.101 c -53.838,0.088 -62.582,0.022 -64.542,-0.489 -6.367,-1.658 -12.038,-7.1 -13.926,-13.363 C 9.95,292.635 9.786,273.247 9.707,229.1 L 9.595,166 h 25.772 25.772 l 1.223,-1.029 c 2.639,-2.221 2.438,-4.491 -0.817,-9.243 -0.63,-0.92 -1.145,-1.831 -1.145,-2.025 0,-0.194 -0.315,-0.71 -0.7,-1.148 -1.153,-1.31 -2.905,-4.519 -3.581,-6.555 -3.447,-10.392 1.043,-22.58 10.561,-28.669 22.611,-14.464 48.999,11.855 34.641,34.55 -5.135,8.117 -5.476,9.028 -4.304,11.498 1.291,2.721 0.217,2.621 28.083,2.621 19.02,0 25.257,0.117 25.62,0.48 0.363,0.363 0.48,6.6 0.48,25.62 0,27.866 -0.1,26.792 2.621,28.083 2.128,1.01 3.59,0.568 8.616,-2.607 10.879,-6.87 18.628,-7.735 27.725,-3.093 3.345,1.706 9.038,6.729 9.038,7.973 0,0.189 0.186,0.344 0.414,0.344 1.279,0 -3.268,-4.842 -6.614,-7.043 -3.052,-2.008 -4.557,-2.707 -8.2,-3.811 -2.276,-0.69 -11.806,-0.7 -12.493,-0.013 -0.257,0.257 -0.773,0.467 -1.146,0.467 -0.845,0 -4.072,1.692 -7.795,4.087 -6.08,3.911 -7.337,4.362 -9.315,3.339 -2.365,-1.223 -2.234,0.274 -2.451,-27.987 l -0.2,-26.039 -26.068,-0.2 -26.068,-0.2 -0.994,-0.934 c -2.271,-2.134 -1.784,-4.136 2.695,-11.066 2.163,-3.347 3.835,-6.623 3.835,-7.516 0,-0.288 0.209,-0.733 0.464,-0.988 0.677,-0.677 0.646,-10.647 -0.04,-12.696 -2.902,-8.677 -7.349,-13.842 -14.92,-17.327 -1.042,-0.48 -2.179,-0.873 -2.526,-0.873 -0.347,0 -0.934,-0.159 -1.304,-0.354 -0.967,-0.509 -7.483,-0.814 -10.074,-0.472 m 264.3,71.508 c 0.495,0.096 1.305,0.096 1.8,0 0.495,-0.095 0.09,-0.173 -0.9,-0.173 -0.99,0 -1.395,0.078 -0.9,0.173 M 315.734,209.6 c 0,1.65 0.071,2.325 0.157,1.5 0.087,-0.825 0.087,-2.175 0,-3 -0.086,-0.825 -0.157,-0.15 -0.157,1.5 m 51.167,0.6 c 0.004,0.88 0.086,1.193 0.182,0.695 0.096,-0.497 0.092,-1.217 -0.008,-1.6 -0.1,-0.382 -0.179,0.025 -0.174,0.905 m -166.892,13.077 c -0.005,0.153 0.358,0.9 0.808,1.661 1.209,2.05 2.408,5.712 2.766,8.448 l 0.316,2.414 0.05,-1.972 c 0.046,-1.774 -0.259,-3.248 -1.164,-5.628 -0.167,-0.44 -0.509,-1.34 -0.758,-2 -0.456,-1.204 -2.001,-3.442 -2.018,-2.923 m 47.491,11.812 c 0.715,0.089 1.885,0.089 2.6,0 0.715,-0.088 0.13,-0.161 -1.3,-0.161 -1.43,0 -2.015,0.073 -1.3,0.161 m -43.833,4.76 c -0.094,2.307 -1.757,7.181 -3.408,9.987 -1.911,3.249 -7.207,8.545 -8.559,8.559 -0.275,0.003 -0.5,0.143 -0.5,0.311 0,1.072 -7.927,3.308 -13.6,3.836 -1.211,0.112 -1.162,0.139 0.367,0.194 9.88,0.358 20.47,-6.487 24.129,-15.595 1.561,-3.886 1.98,-5.593 1.802,-7.341 l -0.164,-1.6 -0.067,1.649 m 140.034,0.751 c 0.004,0.88 0.086,1.193 0.182,0.695 0.096,-0.497 0.092,-1.217 -0.008,-1.6 -0.1,-0.382 -0.179,0.025 -0.174,0.905 m -73.301,3.925 c 0,0.069 0.585,0.654 1.3,1.3 l 1.3,1.175 -1.175,-1.3 c -1.095,-1.212 -1.425,-1.484 -1.425,-1.175 M 280.914,269 c 0.003,1.1 0.081,1.503 0.173,0.895 0.092,-0.609 0.09,-1.509 -0.005,-2 -0.095,-0.492 -0.171,0.005 -0.168,1.105 M 221.2,292.925 c 0,0.069 0.585,0.654 1.3,1.3 l 1.3,1.175 -1.175,-1.3 c -1.095,-1.212 -1.425,-1.484 -1.425,-1.175 m 88.5,92.562 c 0.605,0.091 1.595,0.091 2.2,0 0.605,-0.092 0.11,-0.167 -1.1,-0.167 -1.21,0 -1.705,0.075 -1.1,0.167"
       stroke="none"
       fill="#38611b"
       fill-rule="evenodd" />
    <path
       id="path8"
       d="m 88.697,15.099 62.097,0.104 0.108,25.298 L 151.009,65.8 151.005,40.4 151,15 88.8,14.998 26.6,14.996 88.697,15.099 M 22,16.2 c -1.278,0.73 -1.004,0.734 1,0.012 0.88,-0.317 1.24,-0.578 0.8,-0.58 C 23.36,15.63 22.55,15.886 22,16.2 m -3.6,1.836 c -0.664,0.543 -0.731,0.679 -0.2,0.404 1.305,-0.674 2.028,-1.228 1.6,-1.225 -0.22,0.002 -0.85,0.371 -1.4,0.821 M 15.2,20.6 c -0.972,0.99 -1.677,1.8 -1.567,1.8 0.11,0 0.995,-0.81 1.967,-1.8 0.972,-0.99 1.677,-1.8 1.567,-1.8 -0.11,0 -0.995,0.81 -1.967,1.8 m 166,40.2 c 0.55,0.176 1.36,0.32 1.8,0.32 0.633,0 0.592,-0.066 -0.2,-0.32 -0.55,-0.176 -1.36,-0.32 -1.8,-0.32 -0.633,0 -0.592,0.066 0.2,0.32 m -17.407,4.656 c -2.041,1.353 -2.761,2.067 -1.167,1.158 1.404,-0.8 3.275,-2.192 2.967,-2.205 -0.114,-0.005 -0.924,0.466 -1.8,1.047 m 29.85,0.244 c 0.096,0.055 1.251,1.09 2.566,2.3 l 2.391,2.2 -2.186,-2.3 c -1.203,-1.265 -2.358,-2.3 -2.567,-2.3 -0.209,0 -0.301,0.045 -0.204,0.1 m -42.405,0.7 c -0.017,0.824 0.736,1.724 2.162,2.584 1.146,0.691 1.14,0.674 -0.133,-0.385 -0.734,-0.61 -1.487,-1.489 -1.675,-1.954 -0.202,-0.5 -0.346,-0.6 -0.354,-0.245 m 52.508,19.4 c 0.001,2.2 0.068,3.049 0.149,1.887 0.081,-1.163 0.081,-2.963 -0.002,-4 -0.082,-1.038 -0.148,-0.087 -0.147,2.113 M 77.7,103.897 c 1.485,0.077 3.915,0.077 5.4,0 1.485,-0.077 0.27,-0.14 -2.7,-0.14 -2.97,0 -4.185,0.063 -2.7,0.14 m 73.098,27.103 -0.198,25.2 -20.2,0.206 -20.2,0.205 20.051,0.095 c 16.516,0.077 20.131,-0.002 20.503,-0.451 0.328,-0.395 0.423,-7.398 0.347,-25.5 L 150.997,105.8 150.798,131 M 172.2,110.4 c 0.44,0.189 1.07,0.344 1.4,0.344 0.378,0 0.304,-0.127 -0.2,-0.344 -0.44,-0.189 -1.07,-0.344 -1.4,-0.344 -0.378,0 -0.304,0.127 0.2,0.344 m 5.105,0.687 c 0.609,0.092 1.509,0.09 2,-0.005 0.492,-0.095 -0.005,-0.171 -1.105,-0.168 -1.1,0.003 -1.503,0.081 -0.895,0.173 M 54.786,114.7 52.6,117 l 2.3,-2.186 c 2.137,-2.032 2.483,-2.414 2.186,-2.414 -0.062,0 -1.097,1.035 -2.3,2.3 m -9.33,19.384 c -0.135,0.504 -0.224,1.636 -0.198,2.516 0.039,1.32 0.101,1.18 0.355,-0.8 0.324,-2.522 0.257,-3.259 -0.157,-1.716 m 69.464,1.516 c 0,1.21 0.075,1.705 0.167,1.1 0.091,-0.605 0.091,-1.595 0,-2.2 -0.092,-0.605 -0.167,-0.11 -0.167,1.1 m -69.68,5.433 c 0.022,0.862 0.187,2.017 0.367,2.567 0.204,0.621 0.244,0.091 0.105,-1.4 -0.258,-2.779 -0.53,-3.451 -0.472,-1.167 m 69.68,1.367 c 0,1.21 0.075,1.705 0.167,1.1 0.091,-0.605 0.091,-1.595 0,-2.2 -0.092,-0.605 -0.167,-0.11 -0.167,1.1 M 49,154 c 0.341,0.66 0.711,1.2 0.821,1.2 0.11,0 -0.08,-0.54 -0.421,-1.2 -0.341,-0.66 -0.711,-1.2 -0.821,-1.2 -0.11,0 0.08,0.54 0.421,1.2 m 1,1.996 c 0,0.255 -7.231,0.435 -20.3,0.504 l -20.3,0.107 20.5,0.097 c 17.998,0.084 20.5,0.023 20.5,-0.504 0,-0.33 -0.09,-0.6 -0.2,-0.6 -0.11,0 -0.2,0.178 -0.2,0.396"
       stroke="none"
       fill="#146cac"
       fill-rule="evenodd" />
  </g>
</svg>
