<?xml version="1.0" encoding="UTF-8" standalone="no"?>
<!-- Created with Inkscape (http://www.inkscape.org/) -->

<svg
   width="100"
   height="100"
   viewBox="0 0 100 100"
   version="1.1"
   id="svg1"
   xml:space="preserve"
   xmlns="http://www.w3.org/2000/svg"
   xmlns:svg="http://www.w3.org/2000/svg"><defs
     id="defs1" /><g
     id="layer1"><g
       id="g1"
       transform="scale(0.1953125)"><path
         d="M 0,0 H 512 V 512 H 0 Z"
         id="path1" /><path
         fill="#ffffff"
         d="m 355.975,292.25 a 24.82,24.82 0 1 0 24.82,-24.81 24.84,24.84 0 0 0 -24.82,24.81 m -253,-24.81 a 24.81,24.81 0 1 1 -24.82,24.81 24.84,24.84 0 0 1 24.81,-24.81 z m -76.67,-71.52 h 67.25 l -13.61,49.28 92,-50.28 h 57.36 l 1.26,34.68 32,14.76 11.74,-14.44 h 15.62 l 3.16,16 c 137.56,-13 192.61,29.17 192.61,29.17 0,0 -7.52,5 -25.93,8.39 -3.88,3.31 -3.66,14.44 -3.66,14.44 h 24.2 v 16 h -52 v -27.48 c -1.84,0.07 -4.45,0.41 -7.06,0.47 a 40.81,40.81 0 1 0 -77.25,23 h -204.24 a 40.81,40.81 0 1 0 -77.61,-17.67 c 0,1.24 0.06,2.46 0.17,3.67 h -36 z"
         id="path2" /></g></g></svg>
