<?xml version="1.0" encoding="UTF-8" standalone="no"?>
<!-- Created with Inkscape (http://www.inkscape.org/) -->

<svg
   width="100"
   height="100"
   viewBox="0 0 100 100"
   version="1.1"
   id="svg1"
   xml:space="preserve"
   xmlns="http://www.w3.org/2000/svg"
   xmlns:svg="http://www.w3.org/2000/svg"><defs
     id="defs1" /><g
     id="layer1"><g
       id="g1"
       transform="scale(0.1953125)"><path
         d="M 0,0 H 512 V 512 H 0 Z"
         id="path1" /><path
         fill="#ffffff"
         d="m 256,81 c -7.7,0 -15.5,0.33 -23,0.95 V 119 h 46 V 81.95 C 271.5,81.33 263.7,81 256,81 m -41,3.07 c -4.8,0.76 -9.5,1.65 -13.9,2.69 -14.7,3.46 -26.3,8.71 -32.8,14.04 L 145.9,241.1 215,341 V 137 h -23 v -18 h 23 z m 82,0 V 119 h 23 v 18 h -23 v 238.4 c 30.6,2.8 54.5,19.5 73.7,40.5 11,12.2 20.6,25.8 29.6,39.4 L 343.7,100.8 C 337.2,95.47 325.6,90.22 310.9,86.76 306.5,85.72 301.8,84.83 297,84.07 M 39.34,90.79 24.66,101.2 45.55,130.8 60.69,120.9 Z M 94.15,120.5 38.11,157.2 82.56,183 100.1,171.5 Z M 233,137 v 46 h 46 v -46 z m -124.8,50.8 -15.3,10 48.9,69.2 -30.1,188.3 c 9,-13.6 18.6,-27.2 29.6,-39.4 19.2,-21 43.1,-37.7 73.7,-40.5 v -2.8 l -73.2,-105.7 4.1,-26 z M 233,201 v 46 h 46 v -46 z m 0,64 v 46 h 46 v -46 z m 0,64 v 38 l 5.5,8 H 279 v -46 z m 206,23 v 23 h -33.2 l 2.9,18 H 439 v 23 h 18 v -64 z m -215,41 c -29,0 -50.3,14.1 -69.3,35.1 -15.5,17 -28.9,38.4 -42.1,58.9 H 399.4 C 386.2,466.5 372.8,445.1 357.3,428.1 338.3,407.1 317,393 288,393 h -37 l 12.4,17.9 -14.8,10.2 -19.5,-28.1 z"
         id="path2" /></g></g></svg>
