<?xml version="1.0" encoding="UTF-8" standalone="no"?>
<svg
   id="svg"
   version="1.1"
   width="100"
   height="100"
   viewBox="0 0 100 100"
   xmlns="http://www.w3.org/2000/svg"
   xmlns:svg="http://www.w3.org/2000/svg">
  <defs
     id="defs1" />
  <g
     id="svgg"
     transform="matrix(0.25251489,0,0,0.25251489,-0.2989145,-0.2989145)">
    <path
       id="path0"
       d="m 126.525,18.852 c -2.993,1.453 -4.444,3.266 -5.685,7.108 -0.755,2.335 -0.597,82.895 0.168,85.416 1.008,3.322 2.539,5.129 5.618,6.631 2.636,1.285 86.517,1.238 89.09,-0.05 2.507,-1.255 4.19,-3.06 5.085,-5.451 1.271,-3.398 1.248,-84.875 -0.025,-88.278 -0.964,-2.578 -3.48,-5.033 -5.899,-5.758 -3.211,-0.962 -86.322,-0.603 -88.352,0.382 m 50.655,4.087 c 2.524,1.233 2.806,1.506 7.773,7.48 0.466,0.561 1.475,1.821 2.241,2.8 0.767,0.98 1.614,2.051 1.882,2.381 0.268,0.33 4.737,5.91 9.931,12.4 5.194,6.49 9.741,12.16 10.105,12.6 7.357,8.892 7.984,15.925 1.958,21.951 -6.844,6.844 -14.961,5.508 -22.395,-3.686 -1.718,-2.126 -3.282,-3.921 -3.474,-3.99 -0.194,-0.069 -0.405,6.695 -0.475,15.2 -0.123,14.978 -0.146,15.366 -1.029,17.137 -5.029,10.096 -17.868,11.162 -23.932,1.988 -2.133,-3.227 -2.164,-3.505 -2.181,-19.828 L 157.567,74.2 156.01,76 c -0.856,0.99 -2.521,2.97 -3.701,4.4 -6.019,7.299 -14.32,8.387 -20.551,2.692 -6.284,-5.743 -6.242,-13.118 0.118,-20.926 1.052,-1.292 6.018,-7.468 7.852,-9.766 0.263,-0.33 1.343,-1.68 2.4,-3 2.313,-2.889 1.198,-1.492 10.849,-13.6 4.384,-5.5 8.518,-10.484 9.188,-11.075 4.109,-3.627 9.852,-4.31 15.015,-1.786 M 25.8,120.867 c -3.775,1.272 -5.55,2.739 -6.968,5.755 -1.001,2.13 -1.341,84.987 -0.362,88.255 0.725,2.419 3.18,4.935 5.758,5.899 3.403,1.273 84.88,1.296 88.278,0.025 2.391,-0.895 4.196,-2.578 5.451,-5.085 1.288,-2.573 1.335,-86.454 0.05,-89.09 -1.502,-3.079 -3.309,-4.61 -6.631,-5.618 -2.414,-0.732 -83.425,-0.865 -85.576,-0.141 m 205.4,-0.017 c -3.208,0.866 -5.382,2.592 -6.844,5.435 l -0.956,1.859 v 43.028 43.028 l 0.86,1.605 c 1.211,2.263 2.813,3.763 5.188,4.86 l 2.047,0.946 42.753,-0.106 c 40.212,-0.099 42.838,-0.148 44.195,-0.824 1.895,-0.943 3.813,-2.849 4.889,-4.86 L 324.2,214.2 V 171 127.8 l -1.048,-1.8 c -1.375,-2.36 -4.281,-4.554 -6.805,-5.137 -2.526,-0.583 -82.99,-0.595 -85.147,-0.013 m -153.04,7.315 c 10.836,4.793 11.4,17.287 1.131,25.093 -1.26,0.958 -2.921,2.325 -3.691,3.038 l -1.4,1.297 15.172,0.004 c 16.33,0.003 16.598,0.033 19.828,2.168 9.174,6.064 8.108,18.903 -1.988,23.932 -1.771,0.883 -2.159,0.906 -17.137,1.029 -8.505,0.07 -15.269,0.281 -15.2,0.475 0.069,0.192 1.885,1.773 4.037,3.512 9.081,7.34 10.419,15.577 3.634,22.362 -6.019,6.019 -13.087,5.387 -21.946,-1.965 -0.44,-0.365 -8.36,-6.721 -17.6,-14.124 -21.043,-16.859 -20.823,-16.632 -21.542,-22.278 -0.853,-6.706 0.725,-8.878 14.342,-19.731 5.5,-4.384 10.27,-8.186 10.6,-8.449 1.152,-0.919 5.405,-4.325 6,-4.806 15.67,-12.65 15.25,-12.393 20.489,-12.474 2.466,-0.038 3.528,0.147 5.271,0.917 m 194.945,-0.599 c 0.382,0.202 1.356,0.654 2.165,1.005 0.808,0.351 4.33,2.931 7.827,5.733 3.497,2.803 7.156,5.724 8.131,6.49 2.338,1.84 2.96,2.343 4.96,4.006 0.925,0.77 2.383,1.94 3.238,2.6 6.796,5.246 15.961,12.783 17.803,14.642 5.482,5.533 4.511,14.747 -2.132,20.226 -0.933,0.769 -2.058,1.699 -2.498,2.066 -0.441,0.366 -1.611,1.291 -2.6,2.056 -0.99,0.764 -1.889,1.489 -1.999,1.61 -0.11,0.121 -1.01,0.843 -2,1.605 -0.99,0.761 -1.996,1.566 -2.237,1.789 -0.24,0.223 -1.033,0.856 -1.763,1.406 -0.73,0.55 -1.523,1.186 -1.763,1.414 -1.376,1.305 -22.684,18.087 -24.126,19.002 -8.742,5.543 -20.316,-1.198 -20.285,-11.816 0.016,-5.652 1.416,-7.857 8.774,-13.811 l 3.2,-2.589 -15.4,-0.205 -15.4,-0.205 -2.2,-1.04 c -10.255,-4.848 -10.562,-19.586 -0.513,-24.597 l 2.313,-1.153 15.582,-0.2 15.583,-0.2 -1.073,-1.073 c -0.591,-0.59 -1.752,-1.58 -2.58,-2.2 -5.871,-4.393 -8.029,-7.549 -8.411,-12.3 -0.504,-6.282 3.046,-11.653 9.299,-14.068 1.461,-0.565 7.144,-0.7 8.105,-0.193 m -6.784,7.25 c -3.285,1.736 -4.74,6.551 -2.85,9.436 0.608,0.927 5.87,5.382 10.509,8.895 1.001,0.759 1.91,1.49 2.02,1.626 0.11,0.136 1.01,0.87 2,1.632 3.16,2.429 3.879,3.699 3.114,5.495 -1.105,2.596 -0.063,2.478 -22.314,2.52 -22.5,0.043 -21.314,-0.1 -23.7,2.848 -2.431,3.004 -0.56,9.932 2.681,9.932 0.314,0 0.683,0.18 0.819,0.4 0.159,0.258 7.342,0.4 20.238,0.4 21.909,0 21.343,-0.06 22.353,2.378 0.651,1.572 -0.181,3.073 -2.879,5.196 -1.161,0.914 -2.382,1.881 -2.712,2.149 -0.33,0.269 -1.404,1.116 -2.386,1.883 -0.982,0.766 -2.143,1.71 -2.579,2.097 -0.436,0.387 -1.994,1.647 -3.462,2.8 -4.318,3.391 -5.521,6.673 -3.749,10.226 1.25,2.505 6.617,4.822 7.576,3.271 0.136,-0.22 0.597,-0.4 1.024,-0.4 0.427,0 0.776,-0.18 0.776,-0.4 0,-0.22 0.255,-0.4 0.567,-0.4 0.311,0 0.626,-0.146 0.7,-0.324 0.073,-0.178 2.833,-2.467 6.133,-5.087 3.3,-2.619 6.09,-4.859 6.2,-4.978 0.11,-0.119 0.859,-0.707 1.665,-1.307 0.806,-0.601 1.706,-1.326 2,-1.611 0.294,-0.286 1.165,-0.955 1.935,-1.487 0.77,-0.533 1.67,-1.249 2,-1.591 0.33,-0.343 1.259,-1.114 2.065,-1.713 0.806,-0.6 1.706,-1.318 2,-1.596 0.429,-0.406 6.039,-4.918 7.735,-6.22 0.22,-0.169 1.21,-0.933 2.2,-1.697 8.057,-6.218 8.057,-9.889 10e-4,-16.02 -1.788,-1.361 -2.618,-2.022 -3.981,-3.169 -0.393,-0.33 -1.301,-1.05 -2.02,-1.6 -0.719,-0.55 -1.688,-1.335 -2.153,-1.745 -0.466,-0.41 -1.477,-1.22 -2.247,-1.8 -0.77,-0.58 -1.601,-1.235 -1.847,-1.455 -0.943,-0.845 -2.424,-2.053 -4.154,-3.39 -0.99,-0.764 -1.889,-1.485 -1.999,-1.602 -0.11,-0.117 -0.83,-0.686 -1.6,-1.265 -0.77,-0.579 -1.781,-1.388 -2.247,-1.798 -0.465,-0.41 -1.434,-1.195 -2.153,-1.745 -0.719,-0.55 -1.627,-1.27 -2.02,-1.6 -1.257,-1.058 -2.142,-1.769 -3.981,-3.196 -0.99,-0.768 -2.248,-1.804 -2.797,-2.302 -2.63,-2.388 -5.915,-3.041 -8.481,-1.686 M 129,223.469 c -3.85,0.517 -7.058,3.628 -8.179,7.931 -0.616,2.366 -0.576,82.266 0.042,84.947 0.583,2.524 2.777,5.43 5.137,6.805 l 1.8,1.048 h 43.2 43.2 l 1.621,-0.868 c 2.011,-1.076 3.917,-2.994 4.86,-4.889 0.676,-1.357 0.725,-3.983 0.824,-44.195 l 0.106,-42.753 -0.946,-2.047 c -1.097,-2.375 -2.597,-3.977 -4.86,-5.188 l -1.605,-0.86 -42,-0.046 c -23.1,-0.026 -42.54,0.026 -43.2,0.115 m 48.007,4.712 c 2.716,1.371 5.292,3.976 6.547,6.619 l 1.045,2.2 0.201,15.4 0.2,15.4 2.589,-3.2 c 5.944,-7.346 8.147,-8.746 13.811,-8.779 10.598,-0.062 17.374,11.526 11.841,20.25 -0.932,1.47 -17.701,22.768 -19.027,24.166 -0.228,0.24 -0.864,1.033 -1.414,1.763 -0.55,0.73 -1.187,1.523 -1.416,1.763 -0.229,0.241 -0.679,0.814 -1,1.274 -0.321,0.461 -1.24,1.631 -2.043,2.6 -0.802,0.97 -2.592,3.183 -3.977,4.919 -5.202,6.518 -7.7,8.044 -13.164,8.044 -6.68,0 -9.153,-2.138 -22.239,-19.229 -1.263,-1.65 -1.646,-2.125 -4.161,-5.171 -1.721,-2.084 -2.236,-2.723 -4.006,-4.972 -0.766,-0.975 -3.687,-4.634 -6.49,-8.131 -2.802,-3.497 -5.382,-7.019 -5.733,-7.827 -0.351,-0.809 -0.803,-1.783 -1.005,-2.165 -1.028,-1.95 -0.297,-7.506 1.409,-10.701 3.765,-7.053 15.27,-9.015 20.651,-3.522 1.525,1.557 3.271,3.586 4.501,5.23 0.62,0.828 1.61,1.989 2.2,2.58 l 1.073,1.073 0.2,-15.583 0.2,-15.582 1.153,-2.313 c 3.231,-6.48 11.665,-9.332 18.054,-6.106 M 317.4,271.986 c -3.29,0.359 -5.611,0.756 -7,1.199 -0.55,0.175 -2.35,0.74 -4,1.255 -15.613,4.875 -28.76,19.075 -33.11,35.76 -1.239,4.75 -1.427,6.438 -1.427,12.8 0,7.382 0.435,10.152 2.64,16.8 2.513,7.58 8.276,16.17 14.349,21.39 1.402,1.204 2.638,2.284 2.748,2.4 2.6,2.736 13.593,7.928 19.4,9.162 1.1,0.234 2.845,0.61 3.877,0.837 2.514,0.551 13.469,0.524 16.499,-0.041 11.815,-2.201 21.053,-7.236 29.179,-15.903 0.905,-0.965 1.837,-1.955 2.071,-2.2 8.054,-8.42 13.551,-28.759 10.963,-40.568 -0.227,-1.032 -0.603,-2.777 -0.837,-3.877 -1.234,-5.807 -6.426,-16.8 -9.162,-19.4 -0.116,-0.11 -1.196,-1.346 -2.4,-2.748 -7.041,-8.192 -17.108,-13.888 -28.99,-16.402 -2.694,-0.57 -11.34,-0.841 -14.8,-0.464 m 18.515,8.701 c 0.504,0.612 2.167,2.733 3.697,4.713 1.53,1.98 3.965,5.13 5.413,7 6.548,8.459 8.154,13.676 8.168,26.52 0.009,9.184 -1.159,11.559 -4.769,9.692 -1.796,-0.928 -1.89,-1.426 -2.147,-11.412 -0.176,-6.828 -0.389,-9.434 -0.881,-10.8 -0.72,-1.998 -2.63,-6.088 -2.988,-6.4 -0.127,-0.11 -1.289,-1.64 -2.582,-3.4 -1.294,-1.76 -2.819,-3.707 -3.389,-4.326 l -1.037,-1.127 -0.2,29.935 -0.2,29.936 -1.305,2.649 c -7.03,14.28 -33.214,16.981 -39.29,4.054 -1.486,-3.162 -0.644,-10.851 1.276,-11.654 0.176,-0.074 0.319,-0.344 0.319,-0.6 10e-4,-0.737 3.578,-4.224 5.997,-5.846 7.417,-4.972 17.981,-6.164 25.103,-2.832 l 2.5,1.169 v -27.999 c 0,-29.828 0.008,-29.961 1.895,-30.5 1.525,-0.436 3.504,0.114 4.42,1.228"
       stroke="none"
       fill="#e2e4ef"
       fill-rule="evenodd" />
    <path
       id="path1"
       d="m 167.274,234.792 c -2.989,2.165 -2.874,1.241 -2.874,23.201 0,21.475 -0.051,21.99 -2.25,22.826 -2.174,0.827 -3.106,0.198 -7.033,-4.748 -2.04,-2.569 -3.891,-4.88 -4.113,-5.136 -0.222,-0.255 -1.214,-1.49 -2.204,-2.743 -4.039,-5.114 -5.781,-6.156 -9.389,-5.615 -3.63,0.545 -6.474,4.949 -5.344,8.279 0.634,1.872 1.009,2.379 10.918,14.758 4.848,6.057 9.355,11.702 10.015,12.545 0.66,0.842 1.535,1.916 1.945,2.386 0.41,0.47 1.22,1.485 1.8,2.255 0.58,0.77 1.283,1.641 1.561,1.935 0.278,0.294 0.998,1.19 1.6,1.992 3.024,4.029 4.846,5.99 6.183,6.658 2.895,1.444 7.152,0.196 9.166,-2.687 0.498,-0.714 1.006,-1.388 1.128,-1.498 0.122,-0.11 0.713,-0.859 1.313,-1.665 0.601,-0.806 1.321,-1.706 1.6,-2 0.28,-0.294 1.408,-1.675 2.506,-3.068 1.099,-1.393 2.966,-3.733 4.148,-5.2 19.669,-24.395 20.065,-24.928 20.341,-27.374 0.58,-5.149 -5.464,-9.169 -10.076,-6.701 -0.884,0.473 -4.694,4.717 -7.55,8.409 -4.067,5.258 -4.676,5.997 -6.512,7.896 -2.048,2.117 -3.335,2.236 -4.993,0.461 L 178,278.715 v -20.003 c 0,-19.556 -0.019,-20.036 -0.837,-21.492 -2.025,-3.603 -6.686,-4.748 -9.889,-2.428 M 316.6,256.387 c -3.723,0.302 -5.793,0.605 -8.2,1.201 -4.127,1.021 -6.566,1.748 -8.4,2.506 -0.55,0.227 -1.36,0.544 -1.8,0.704 -15.687,5.703 -30.99,21.029 -37.447,37.502 -0.194,0.495 -0.517,1.305 -0.717,1.8 -4.003,9.906 -5.093,26.498 -2.437,37.1 0.193,0.77 0.559,2.3 0.813,3.4 0.254,1.1 0.607,2.36 0.785,2.8 0.177,0.44 0.544,1.43 0.816,2.2 3.889,11.037 11.556,21.835 20.736,29.2 0.96,0.77 1.981,1.625 2.269,1.9 0.289,0.275 0.718,0.5 0.953,0.5 0.236,0 0.429,0.146 0.429,0.324 0,0.178 1.459,1.191 3.242,2.252 34.331,20.422 77.073,8.379 95.036,-26.776 9.155,-17.918 9.367,-41.185 0.537,-59.058 -1.978,-4.005 -5.281,-9.542 -5.691,-9.542 -0.178,0 -0.324,-0.193 -0.324,-0.429 0,-0.235 -0.225,-0.664 -0.5,-0.953 -0.275,-0.288 -1.13,-1.309 -1.9,-2.269 -7.408,-9.233 -18.099,-16.825 -29.2,-20.736 -0.77,-0.272 -1.76,-0.639 -2.2,-0.816 -0.44,-0.178 -1.7,-0.531 -2.8,-0.785 -1.1,-0.254 -2.63,-0.618 -3.4,-0.808 -5.017,-1.239 -13.884,-1.763 -20.6,-1.217 m 12.954,8.838 c 10.514,1.686 18.103,4.477 25.246,9.283 21.992,14.796 32.025,43.745 23.184,66.892 -0.168,0.44 -0.72,1.88 -1.226,3.2 -2.691,7.023 -6.228,12.367 -12.454,18.818 -14.186,14.701 -36.046,21.01 -55.104,15.902 -1.21,-0.324 -2.74,-0.731 -3.4,-0.903 -16.42,-4.296 -32.344,-20.01 -37.916,-37.417 -4.109,-12.833 -4.12,-23.114 -0.041,-35.92 5.669,-17.793 19.444,-31.568 37.237,-37.237 4.13,-1.315 6.021,-1.761 10.92,-2.573 3.135,-0.52 10.445,-0.544 13.554,-0.045"
       stroke="none"
       fill="#6ed8dc"
       fill-rule="evenodd" />
    <path
       id="path2"
       d="M 17.4,1.6 C 17.264,1.82 16.623,2 15.976,2 15.329,2 14.8,2.18 14.8,2.4 c 0,0.22 -0.234,0.4 -0.52,0.4 -0.736,0 -2.673,0.941 -2.677,1.3 C 11.601,4.265 11.33,4.4 11,4.4 10.67,4.4 10.4,4.58 10.4,4.8 10.4,5.02 10.216,5.2 9.991,5.2 9.459,5.2 5.2,9.459 5.2,9.991 5.2,10.216 5.02,10.4 4.8,10.4 4.58,10.4 4.4,10.67 4.4,11 4.4,11.33 4.265,11.601 4.1,11.603 3.741,11.607 2.8,13.544 2.8,14.28 2.8,14.566 2.62,14.8 2.4,14.8 2.18,14.8 2,15.329 2,15.976 2,16.623 1.82,17.264 1.6,17.4 1.045,17.743 1.045,324.657 1.6,325 c 0.22,0.136 0.4,0.676 0.4,1.2 0,0.524 0.18,1.064 0.4,1.2 0.22,0.136 0.4,0.597 0.4,1.024 0,0.427 0.18,0.776 0.4,0.776 0.22,0 0.4,0.32 0.4,0.712 0,0.391 0.36,0.971 0.8,1.288 0.44,0.317 0.8,0.778 0.8,1.025 0,1.14 7.414,7.375 8.769,7.375 0.243,0 0.754,0.158 1.136,0.351 2.439,1.232 4.085,1.249 119.823,1.249 H 251.2 v 0.976 c 0,0.537 0.18,1.088 0.4,1.224 0.22,0.136 0.4,0.867 0.4,1.624 0,0.757 0.18,1.376 0.4,1.376 0.22,0 0.4,0.54 0.4,1.2 0,0.66 0.18,1.2 0.4,1.2 0.22,0 0.4,0.36 0.4,0.8 0,0.44 0.18,0.8 0.4,0.8 0.22,0 0.4,0.439 0.4,0.976 0,0.537 0.18,1.088 0.4,1.224 0.22,0.136 0.4,0.597 0.4,1.024 0,0.427 0.18,0.776 0.4,0.776 0.22,0 0.4,0.36 0.4,0.8 0,0.44 0.18,0.8 0.4,0.8 0.22,0 0.4,0.36 0.4,0.8 0,0.44 0.18,0.8 0.4,0.8 0.22,0 0.4,0.27 0.4,0.6 0,0.33 0.18,0.6 0.4,0.6 0.22,0 0.4,0.32 0.4,0.712 0,0.391 0.36,0.971 0.8,1.288 0.44,0.317 0.8,0.833 0.8,1.146 0,0.687 2.076,4.052 2.5,4.053 0.165,10e-4 0.3,0.244 0.3,0.542 0,0.297 0.54,1.105 1.2,1.796 0.66,0.691 1.2,1.397 1.2,1.57 0,0.577 10.641,10.893 11.238,10.893 0.195,0 0.871,0.54 1.502,1.2 0.631,0.66 1.352,1.2 1.603,1.2 0.251,0 0.457,0.15 0.457,0.332 0,0.183 0.495,0.588 1.1,0.9 0.605,0.313 1.449,0.883 1.875,1.268 0.427,0.385 1.012,0.7 1.3,0.7 0.289,0 0.525,0.18 0.525,0.4 0,0.22 0.36,0.4 0.8,0.4 0.44,0 0.8,0.147 0.8,0.327 0,0.488 6.722,3.711 8.263,3.961 0.735,0.119 1.337,0.373 1.337,0.564 0,0.192 0.45,0.348 1,0.348 0.55,0 1,0.18 1,0.4 0,0.22 0.54,0.4 1.2,0.4 0.66,0 1.2,0.18 1.2,0.4 0,0.22 0.529,0.4 1.176,0.4 0.647,0 1.288,0.18 1.424,0.4 0.136,0.22 0.856,0.4 1.6,0.4 0.744,0 1.464,0.18 1.6,0.4 0.136,0.22 1.036,0.4 2,0.4 0.964,0 1.864,0.18 2,0.4 0.136,0.22 1.677,0.4 3.424,0.4 1.851,0 3.176,0.167 3.176,0.4 0,0.249 2.333,0.4 6.2,0.4 3.867,0 6.2,-0.151 6.2,-0.4 0,-0.233 1.333,-0.4 3.2,-0.4 1.867,0 3.2,-0.167 3.2,-0.4 0,-0.22 0.9,-0.4 2,-0.4 1.1,0 2,-0.18 2,-0.4 0,-0.22 0.63,-0.4 1.4,-0.4 0.77,0 1.4,-0.18 1.4,-0.4 0,-0.22 0.72,-0.4 1.6,-0.4 0.88,0 1.6,-0.18 1.6,-0.4 0,-0.22 0.54,-0.4 1.2,-0.4 0.66,0 1.2,-0.18 1.2,-0.4 0,-0.22 0.349,-0.4 0.776,-0.4 0.427,0 0.888,-0.18 1.024,-0.4 0.136,-0.22 0.631,-0.4 1.1,-0.4 0.901,0 8.406,-3.553 8.633,-4.087 0.074,-0.172 0.439,-0.313 0.812,-0.313 0.373,0 0.938,-0.36 1.255,-0.8 0.317,-0.44 0.897,-0.8 1.288,-0.8 0.392,0 0.712,-0.15 0.712,-0.332 0,-0.183 0.495,-0.587 1.1,-0.898 0.605,-0.31 1.391,-0.881 1.747,-1.267 0.356,-0.387 0.829,-0.703 1.052,-0.703 0.222,0 1.146,-0.72 2.053,-1.6 0.907,-0.88 1.759,-1.6 1.895,-1.6 0.321,0 7.753,-7.432 7.753,-7.753 0,-0.136 0.72,-0.988 1.6,-1.895 0.88,-0.907 1.6,-1.808 1.6,-2.004 0,-0.195 0.54,-0.92 1.2,-1.611 0.66,-0.691 1.2,-1.499 1.2,-1.796 0,-0.298 0.18,-0.541 0.4,-0.541 0.22,0 0.4,-0.32 0.4,-0.712 0,-0.391 0.36,-0.971 0.8,-1.288 0.44,-0.317 0.8,-0.882 0.8,-1.255 0,-0.373 0.141,-0.738 0.313,-0.812 0.534,-0.227 4.087,-7.732 4.087,-8.633 0,-0.469 0.18,-0.964 0.4,-1.1 0.22,-0.136 0.4,-0.597 0.4,-1.024 0,-0.427 0.18,-0.776 0.4,-0.776 0.22,0 0.4,-0.54 0.4,-1.2 0,-0.66 0.18,-1.2 0.4,-1.2 0.22,0 0.4,-0.72 0.4,-1.6 0,-0.88 0.18,-1.6 0.4,-1.6 0.22,0 0.4,-0.63 0.4,-1.4 0,-0.77 0.18,-1.4 0.4,-1.4 0.22,0 0.4,-0.9 0.4,-2 0,-1.1 0.18,-2 0.4,-2 0.233,0 0.4,-1.333 0.4,-3.2 0,-1.867 0.167,-3.2 0.4,-3.2 0.249,0 0.4,-2.333 0.4,-6.2 0,-3.867 -0.151,-6.2 -0.4,-6.2 -0.233,0 -0.4,-1.325 -0.4,-3.176 0,-1.747 -0.18,-3.288 -0.4,-3.424 -0.22,-0.136 -0.4,-1.036 -0.4,-2 0,-0.964 -0.18,-1.864 -0.4,-2 -0.22,-0.136 -0.4,-0.856 -0.4,-1.6 0,-0.744 -0.18,-1.464 -0.4,-1.6 -0.22,-0.136 -0.4,-0.777 -0.4,-1.424 0,-0.647 -0.18,-1.176 -0.4,-1.176 -0.22,0 -0.4,-0.54 -0.4,-1.2 0,-0.66 -0.18,-1.2 -0.4,-1.2 -0.22,0 -0.4,-0.45 -0.4,-1 0,-0.55 -0.156,-1 -0.348,-1 -0.191,0 -0.445,-0.602 -0.564,-1.337 -0.25,-1.541 -3.473,-8.263 -3.961,-8.263 -0.18,0 -0.327,-0.36 -0.327,-0.8 0,-0.44 -0.18,-0.8 -0.4,-0.8 -0.22,0 -0.4,-0.236 -0.4,-0.525 0,-0.288 -0.315,-0.873 -0.7,-1.3 -0.385,-0.426 -0.955,-1.27 -1.268,-1.875 -0.312,-0.605 -0.717,-1.1 -0.9,-1.1 -0.182,0 -0.332,-0.206 -0.332,-0.457 0,-0.251 -0.54,-0.972 -1.2,-1.603 -0.66,-0.631 -1.2,-1.307 -1.2,-1.502 0,-0.634 -10.326,-11.238 -10.943,-11.238 -0.2,0 -0.654,-0.33 -1.01,-0.733 -0.963,-1.09 -6.144,-4.467 -6.854,-4.467 -0.339,0 -0.876,-0.36 -1.193,-0.8 -0.317,-0.44 -0.897,-0.8 -1.288,-0.8 -0.392,0 -0.712,-0.18 -0.712,-0.4 0,-0.22 -0.27,-0.4 -0.6,-0.4 -0.33,0 -0.6,-0.18 -0.6,-0.4 0,-0.22 -0.36,-0.4 -0.8,-0.4 -0.44,0 -0.8,-0.18 -0.8,-0.4 0,-0.22 -0.36,-0.4 -0.8,-0.4 -0.44,0 -0.8,-0.18 -0.8,-0.4 0,-0.22 -0.349,-0.4 -0.776,-0.4 -0.427,0 -0.888,-0.18 -1.024,-0.4 -0.136,-0.22 -0.687,-0.4 -1.224,-0.4 -0.537,0 -0.976,-0.18 -0.976,-0.4 0,-0.22 -0.36,-0.4 -0.8,-0.4 -0.44,0 -0.8,-0.18 -0.8,-0.4 0,-0.22 -0.54,-0.4 -1.2,-0.4 -0.66,0 -1.2,-0.18 -1.2,-0.4 0,-0.22 -0.619,-0.4 -1.376,-0.4 -0.757,0 -1.488,-0.18 -1.624,-0.4 -0.136,-0.22 -0.687,-0.4 -1.224,-0.4 H 341.2 V 134.928 C 341.2,19.19 341.183,17.544 339.951,15.105 339.758,14.723 339.6,14.219 339.6,13.983 339.6,12.581 333.402,5.2 332.225,5.2 331.978,5.2 331.517,4.84 331.2,4.4 330.883,3.96 330.303,3.6 329.912,3.6 329.52,3.6 329.2,3.42 329.2,3.2 329.2,2.98 328.851,2.8 328.424,2.8 327.997,2.8 327.536,2.62 327.4,2.4 327.264,2.18 326.724,2 326.2,2 325.676,2 325.136,1.82 325,1.6 324.657,1.045 17.743,1.045 17.4,1.6 m 199.045,16.885 c 2.144,1.26 4.063,3.321 5.056,5.43 1.113,2.364 1.076,86.699 -0.039,89.026 -1.154,2.408 -3.465,4.699 -5.773,5.723 l -2.112,0.936 -42.288,0.002 c -39.307,0.002 -42.428,-0.048 -44.263,-0.7 -2.395,-0.852 -4.944,-3.264 -6.142,-5.812 L 120,111.209 V 68.4 c 0,-42.686 0.002,-42.814 0.842,-44.6 1.443,-3.069 3.934,-5.238 7.155,-6.23 0.552,-0.17 20.263,-0.277 43.803,-0.239 l 42.8,0.069 1.845,1.085 M 167.6,22.476 c -4.164,1.755 -5.175,2.472 -7.068,5.012 -0.62,0.832 -1.227,1.602 -1.349,1.712 -0.338,0.306 -6.772,8.323 -8.33,10.38 -0.759,1.001 -1.487,1.91 -1.618,2.02 -0.132,0.11 -0.731,0.859 -1.331,1.665 -0.601,0.806 -1.32,1.711 -1.598,2.01 -0.278,0.3 -1.134,1.35 -1.9,2.335 -1.587,2.036 -1.851,2.368 -3.681,4.62 -0.729,0.896 -1.888,2.336 -2.576,3.2 -0.688,0.863 -2.797,3.489 -4.686,5.834 -3.823,4.744 -5.063,6.72 -5.063,8.068 0,0.499 -0.199,1.107 -0.441,1.349 -0.637,0.637 0.171,7.319 0.885,7.319 0.196,0 0.356,0.268 0.356,0.595 0,0.699 0.847,1.84 2.842,3.826 5.434,5.413 14.843,4.238 19.786,-2.469 2.469,-3.352 5.472,-6.738 5.796,-6.537 0.224,0.138 0.376,6.246 0.376,15.08 0,15.247 0.057,15.898 1.693,19.355 2.34,4.942 8.758,7.921 14.183,6.582 2.351,-0.58 4.124,-1.324 4.124,-1.73 0,-0.166 0.178,-0.302 0.395,-0.302 0.645,0 1.995,-1.284 3.26,-3.1 2.23,-3.203 2.335,-4.114 2.347,-20.3 0.012,-17.579 -0.072,-17.239 3.198,-13 0.764,0.99 1.619,2.041 1.9,2.335 0.282,0.294 1.004,1.19 1.606,1.991 6.032,8.029 18.219,7.01 22.561,-1.888 1.842,-3.773 1.032,-10.614 -1.595,-13.481 -0.382,-0.416 -1.13,-1.387 -1.664,-2.157 -0.533,-0.77 -1.071,-1.49 -1.195,-1.6 -0.124,-0.11 -0.73,-0.83 -1.347,-1.6 -0.616,-0.77 -1.639,-2.03 -2.273,-2.8 -0.633,-0.77 -2.802,-3.47 -4.818,-6 -2.017,-2.53 -4.231,-5.296 -4.921,-6.147 -0.69,-0.852 -1.42,-1.835 -1.622,-2.187 -0.203,-0.351 -0.743,-1.019 -1.2,-1.483 -0.458,-0.464 -1.282,-1.444 -1.832,-2.177 -0.55,-0.733 -1.187,-1.529 -1.415,-1.769 -0.228,-0.241 -2.453,-3.002 -4.945,-6.137 -2.491,-3.135 -4.656,-5.7 -4.81,-5.7 -0.153,0 -0.637,-0.315 -1.075,-0.7 -1.205,-1.06 -2.457,-1.7 -3.326,-1.7 -0.43,0 -0.893,-0.18 -1.029,-0.4 -0.324,-0.524 -5.314,-0.466 -6.6,0.076 m 5.218,5.23 c 1.766,0.616 3.578,1.786 4.44,2.868 0.362,0.454 0.992,1.207 1.4,1.673 0.408,0.465 1.192,1.441 1.742,2.168 0.55,0.726 1.54,1.976 2.2,2.777 0.66,0.801 1.65,2.041 2.2,2.755 0.55,0.713 1.335,1.692 1.745,2.175 0.41,0.483 1.219,1.508 1.798,2.278 0.579,0.77 1.146,1.49 1.261,1.6 0.325,0.311 2.091,2.517 3.196,3.992 0.55,0.734 1.187,1.531 1.415,1.771 0.337,0.356 4.288,5.269 6.308,7.845 0.262,0.335 1.865,2.344 3.562,4.465 5.127,6.412 5.918,8.962 3.894,12.564 -3.297,5.87 -9.424,5.26 -14.44,-1.437 -0.576,-0.77 -1.384,-1.781 -1.794,-2.247 -0.41,-0.465 -1.195,-1.439 -1.745,-2.163 -0.55,-0.724 -1.184,-1.513 -1.408,-1.753 -0.225,-0.241 -1.115,-1.337 -1.979,-2.437 -3.009,-3.834 -3.883,-4.6 -5.242,-4.6 -2.422,0 -2.352,-0.591 -2.571,21.761 l -0.2,20.439 -0.981,1.4 c -1.363,1.945 -2.42,2.82 -3.722,3.081 -0.612,0.122 -1.211,0.379 -1.329,0.571 -0.535,0.866 -3.923,-10e-4 -6.068,-1.553 -2.765,-2 -2.678,-1.284 -2.9,-23.938 C 163.379,61.132 163.491,62 160.79,62 c -1.483,0 -1.626,0.143 -7.451,7.462 -3.266,4.104 -6.59,8.109 -7.386,8.9 -6.326,6.287 -16.287,-1.833 -11.503,-9.376 1.027,-1.62 5.543,-7.452 6.338,-8.186 0.119,-0.11 0.708,-0.859 1.308,-1.665 0.601,-0.806 1.32,-1.711 1.598,-2.01 0.278,-0.3 1.134,-1.35 1.9,-2.335 0.767,-0.984 1.615,-2.06 1.884,-2.39 0.269,-0.33 2.185,-2.709 4.257,-5.286 2.072,-2.578 4.32,-5.368 4.995,-6.2 0.675,-0.833 3.097,-3.854 5.381,-6.714 4.006,-5.015 4.67,-5.607 7.289,-6.504 1.627,-0.557 1.792,-0.557 3.418,0.01 m -59.714,93.184 c 2.604,1.224 4.951,3.697 5.798,6.11 0.652,1.859 0.702,4.992 0.7,44.289 l -0.002,42.288 -0.938,2.112 c -1.104,2.484 -2.802,4.246 -5.359,5.561 l -1.847,0.95 H 68.428 c -40.126,0 -43.128,-0.047 -44.513,-0.699 -2.109,-0.993 -4.17,-2.912 -5.43,-5.056 L 17.4,214.6 v -43.4 -43.4 l 0.949,-1.8 c 1.151,-2.183 3.08,-4.034 5.355,-5.137 1.679,-0.815 2.138,-0.823 44.6,-0.843 l 42.905,-0.02 1.895,0.89 m 205.458,-0.066 c 2.816,1.324 5.117,4.118 6.205,7.536 0.628,1.973 0.606,83.978 -0.023,85.521 -1.198,2.938 -1.639,3.771 -2.606,4.919 -0.573,0.682 -1.964,1.725 -3.09,2.32 L 317,222.2 h -43.2 -43.2 l -2.2,-1.24 c -2.394,-1.349 -4.935,-4.303 -5.433,-6.318 -0.514,-2.075 -0.672,-84.188 -0.166,-86.042 0.91,-3.338 3.31,-6.327 6.264,-7.802 2.496,-1.246 86.843,-1.222 89.497,0.026 m -247.941,7.142 c -0.147,0.239 -0.702,0.434 -1.232,0.434 -1.406,0 -3.33,1.199 -8.125,5.063 -2.345,1.889 -4.971,3.998 -5.834,4.686 -0.864,0.688 -2.304,1.847 -3.2,2.576 -2.252,1.83 -2.584,2.094 -4.62,3.681 -0.985,0.766 -2.035,1.622 -2.335,1.9 -0.299,0.278 -1.204,0.997 -2.01,1.598 -0.806,0.6 -1.555,1.191 -1.665,1.312 -0.11,0.121 -2.9,2.358 -6.2,4.97 -3.3,2.612 -6.09,4.855 -6.2,4.984 -0.11,0.129 -0.88,0.742 -1.712,1.362 -2.558,1.907 -3.388,3.091 -5.037,7.187 -0.558,1.385 -0.596,6.144 -0.051,6.481 0.22,0.136 0.4,0.599 0.4,1.029 0,0.869 0.64,2.121 1.7,3.326 0.385,0.438 0.7,0.928 0.7,1.089 0,0.161 2.42,2.201 5.378,4.532 2.959,2.331 5.614,4.46 5.9,4.731 0.287,0.271 1.201,1 2.031,1.62 0.83,0.62 1.916,1.535 2.414,2.032 0.497,0.498 1.192,1.07 1.543,1.273 0.352,0.202 1.335,0.932 2.187,1.622 0.851,0.69 3.617,2.899 6.147,4.91 2.53,2.011 5.052,4.058 5.604,4.551 0.553,0.492 1.633,1.334 2.4,1.871 0.768,0.537 1.666,1.26 1.996,1.608 9.854,10.38 24.84,6.204 24.84,-6.921 0,-4.997 -1.654,-8.156 -5.944,-11.354 -0.823,-0.613 -1.586,-1.21 -1.696,-1.327 -0.11,-0.117 -1.01,-0.835 -2,-1.597 -4.244,-3.262 -4.576,-3.181 13,-3.193 16.186,-0.012 17.097,-0.117 20.3,-2.347 1.816,-1.265 3.1,-2.615 3.1,-3.26 0,-0.217 0.136,-0.395 0.302,-0.395 0.406,0 1.15,-1.773 1.73,-4.124 1.339,-5.425 -1.64,-11.843 -6.582,-14.183 -3.457,-1.636 -4.108,-1.693 -19.355,-1.693 -15.793,0 -16.233,-0.06 -13.802,-1.872 0.829,-0.618 1.597,-1.217 1.707,-1.331 0.11,-0.114 1.19,-1.006 2.4,-1.981 9.043,-7.288 9.538,-17.079 1.164,-23.016 -2.217,-1.572 -8.716,-2.848 -9.343,-1.834 m 195.579,0.131 c -4.51,1.546 -9,5.564 -9,8.051 0,0.333 -0.18,0.716 -0.4,0.852 -0.22,0.136 -0.4,1.846 -0.4,3.8 0,1.954 0.18,3.664 0.4,3.8 0.22,0.136 0.4,0.519 0.4,0.852 0,0.788 2.294,4.111 3.588,5.197 0.557,0.467 1.912,1.535 3.012,2.373 1.1,0.838 2.195,1.716 2.434,1.951 0.239,0.235 0.914,0.785 1.5,1.222 2.322,1.732 1.975,1.778 -14.434,1.931 -14.855,0.139 -18.1,0.339 -18.1,1.119 0,0.195 -0.268,0.355 -0.595,0.355 -1.207,0 -4.721,3.436 -5.615,5.49 -0.361,0.83 -0.822,1.823 -1.024,2.205 -0.468,0.888 -0.478,6.895 -0.013,7.81 0.195,0.382 0.6,1.235 0.9,1.895 0.992,2.178 4.385,5.207 6.874,6.138 2.209,0.827 2.922,0.862 17.464,0.862 17.576,0 17.652,0.024 12.209,3.934 -11.73,8.427 -12.412,19.708 -1.53,25.301 2.168,1.114 8.825,1.43 9.79,0.465 0.275,-0.275 0.824,-0.5 1.22,-0.5 0.396,0 0.72,-0.18 0.72,-0.4 0,-0.22 0.225,-0.4 0.5,-0.4 0.275,-0.001 1.04,-0.471 1.7,-1.045 0.66,-0.575 1.83,-1.518 2.6,-2.097 0.77,-0.58 1.49,-1.155 1.6,-1.279 0.189,-0.214 12.879,-10.406 16.16,-12.979 0.842,-0.66 1.846,-1.47 2.232,-1.8 0.386,-0.33 1.294,-1.05 2.018,-1.6 0.724,-0.55 1.513,-1.18 1.753,-1.4 0.241,-0.22 1.096,-0.892 1.902,-1.494 0.806,-0.602 1.706,-1.324 2,-1.606 0.294,-0.281 1.344,-1.139 2.334,-1.906 5.576,-4.322 7.114,-5.897 8.408,-8.609 2.459,-5.152 1.084,-11.776 -3.146,-15.154 -0.529,-0.423 -1.352,-1.143 -1.828,-1.6 -0.475,-0.457 -1.667,-1.459 -2.649,-2.225 -0.981,-0.767 -2.054,-1.611 -2.384,-1.876 -0.33,-0.265 -2.94,-2.335 -5.8,-4.6 -2.86,-2.265 -5.441,-4.349 -5.735,-4.63 -0.294,-0.282 -1.194,-1.002 -2,-1.602 -0.806,-0.599 -1.735,-1.37 -2.065,-1.713 -0.33,-0.342 -1.23,-1.058 -2,-1.591 -0.77,-0.532 -1.641,-1.201 -1.935,-1.487 -0.294,-0.285 -1.194,-1.01 -2,-1.611 -0.806,-0.6 -1.555,-1.184 -1.665,-1.296 -0.11,-0.113 -2,-1.633 -4.2,-3.379 -2.2,-1.745 -4.09,-3.276 -4.2,-3.402 -0.306,-0.351 -3.624,-1.851 -5.228,-2.363 -1.704,-0.544 -4.117,-0.527 -5.772,0.041 m -191,5.506 c 3.259,0.929 5.443,4.325 5.075,7.89 -0.299,2.9 -1.306,4.131 -7.22,8.826 -2.67,2.12 -5.051,4.041 -5.292,4.268 -0.24,0.227 -1.028,0.863 -1.752,1.413 -3.55,2.698 -4.011,3.25 -4.011,4.802 0,2.687 -0.855,2.577 21.761,2.798 21.859,0.214 21.228,0.152 23.352,2.277 3.385,3.384 2.526,9.472 -1.651,11.702 -1.49,0.796 -2.137,0.821 -21.051,0.821 C 61.795,178.4 62,178.373 62,181.335 v 1.725 l 5.423,4.322 c 2.983,2.377 5.638,4.523 5.9,4.77 0.262,0.246 1.165,0.962 2.007,1.591 5.253,3.925 6.575,8.477 3.548,12.216 -3.511,4.338 -7.512,3.985 -13.87,-1.22 -0.444,-0.364 -4.138,-3.324 -8.208,-6.577 -4.07,-3.253 -7.49,-6.015 -7.6,-6.138 -0.11,-0.123 -1.01,-0.852 -2,-1.618 -0.99,-0.767 -2.07,-1.611 -2.4,-1.875 -2.273,-1.818 -11.149,-8.833 -11.8,-9.326 -6.835,-5.171 -7.191,-10.596 -1,-15.26 0.77,-0.58 1.781,-1.39 2.247,-1.8 0.465,-0.41 1.434,-1.195 2.153,-1.745 0.719,-0.55 1.622,-1.27 2.008,-1.6 0.386,-0.33 1.39,-1.14 2.23,-1.8 1.293,-1.015 13.118,-10.442 14.962,-11.928 0.33,-0.265 1.401,-1.111 2.381,-1.878 0.979,-0.766 2.239,-1.785 2.8,-2.263 8.547,-7.287 10.708,-8.385 14.419,-7.328 m 197.214,0.204 c 0.971,0.502 8.712,6.544 10.223,7.978 0.24,0.228 1.036,0.865 1.768,1.415 0.732,0.55 3.243,2.53 5.579,4.4 2.336,1.87 5.05,4.028 6.032,4.794 1.749,1.368 2.535,2.003 3.964,3.206 0.393,0.33 1.309,1.05 2.036,1.6 0.727,0.55 1.696,1.364 2.153,1.809 0.457,0.444 1.461,1.246 2.231,1.781 0.77,0.535 1.67,1.253 2,1.596 0.33,0.343 1.432,1.249 2.449,2.014 5.717,4.302 5.174,9.84 -1.45,14.8 -1.677,1.255 -4.438,3.434 -5.399,4.259 -0.55,0.472 -2.98,2.413 -5.4,4.313 -2.42,1.9 -5.03,3.979 -5.8,4.62 -1.601,1.332 -13.453,10.802 -15.779,12.608 -0.85,0.66 -2.013,1.578 -2.584,2.041 -4.232,3.429 -10.192,1.992 -12.259,-2.956 -0.664,-1.589 -0.768,-4.321 -0.178,-4.685 0.22,-0.136 0.4,-0.559 0.4,-0.94 0,-0.765 1.911,-2.909 3.976,-4.46 0.732,-0.55 1.643,-1.27 2.024,-1.6 0.381,-0.33 1.286,-1.05 2.01,-1.6 0.724,-0.55 1.513,-1.183 1.753,-1.406 0.241,-0.223 1.246,-1.033 2.236,-1.8 5.002,-3.877 6.001,-4.908 6.001,-6.192 0,-2.46 0.648,-2.383 -21.771,-2.602 -19.674,-0.193 -20.48,-0.23 -21.799,-1.018 -5.08,-3.032 -5.334,-9.701 -0.496,-13.018 l 1.406,-0.964 20.488,-0.2 c 19.432,-0.19 20.532,-0.239 21.331,-0.962 2.091,-1.894 1.204,-3.045 -7.759,-10.074 -6.801,-5.334 -8.334,-6.744 -9.303,-8.559 -0.932,-1.745 -1.227,-4.954 -0.497,-5.405 0.22,-0.136 0.4,-0.561 0.4,-0.945 0,-0.756 2.162,-3.033 3.667,-3.863 1.309,-0.721 4.94,-0.713 6.347,0.015 m -57.772,89.16 c 2.015,0.498 4.969,3.039 6.318,5.433 l 1.24,2.2 v 43.2 43.2 l -1.08,2.048 c -0.595,1.126 -1.638,2.517 -2.32,3.09 -1.148,0.967 -1.981,1.408 -4.919,2.606 -1.543,0.629 -83.548,0.651 -85.521,0.023 -3.418,-1.088 -6.212,-3.389 -7.536,-6.205 -0.816,-1.736 -0.824,-2.169 -0.824,-44.709 0,-48.237 -0.25,-44.396 3.11,-47.78 1.867,-1.879 2.744,-2.433 5.09,-3.214 1.422,-0.474 84.511,-0.37 86.442,0.108 M 167.2,227.99 c -0.33,0.189 -1.28,0.639 -2.11,1 -2.054,0.894 -5.49,4.408 -5.49,5.615 0,0.327 -0.16,0.595 -0.355,0.595 -0.78,0 -0.98,3.245 -1.119,18.1 -0.153,16.409 -0.199,16.756 -1.931,14.434 -0.437,-0.586 -0.987,-1.261 -1.222,-1.5 -0.235,-0.239 -1.113,-1.334 -1.951,-2.434 -0.838,-1.1 -1.906,-2.455 -2.373,-3.012 -1.086,-1.294 -4.409,-3.588 -5.197,-3.588 -0.333,0 -0.716,-0.18 -0.852,-0.4 -0.136,-0.22 -1.846,-0.4 -3.8,-0.4 -1.954,0 -3.664,0.18 -3.8,0.4 -0.136,0.22 -0.519,0.4 -0.852,0.4 -3.343,0 -8.548,7.307 -8.548,12 0,1.846 1.88,7.182 2.819,8 0.126,0.11 1.657,2 3.402,4.2 1.746,2.2 3.269,4.09 3.387,4.2 0.117,0.11 0.833,1.01 1.592,2 0.759,0.99 1.483,1.89 1.609,2 0.126,0.11 0.662,0.83 1.191,1.6 0.529,0.77 1.241,1.67 1.581,2 0.34,0.331 1.247,1.411 2.013,2.4 0.767,0.99 1.617,2.07 1.889,2.4 0.271,0.33 2.22,2.76 4.33,5.4 2.11,2.64 4.053,5.07 4.317,5.4 0.265,0.33 1.109,1.401 1.876,2.381 1.373,1.753 2.433,3.025 3.866,4.64 3.683,4.149 10.044,5.406 15.113,2.986 2.71,-1.293 4.228,-2.775 8.615,-8.407 1.443,-1.852 2.162,-2.747 3.2,-3.98 0.33,-0.393 1.05,-1.301 1.6,-2.02 0.55,-0.719 1.335,-1.688 1.745,-2.153 0.41,-0.466 1.22,-1.477 1.8,-2.247 0.58,-0.77 1.283,-1.641 1.561,-1.935 0.278,-0.294 0.997,-1.194 1.598,-2 0.6,-0.806 1.184,-1.555 1.298,-1.665 0.113,-0.11 2.352,-2.9 4.975,-6.2 2.623,-3.3 4.872,-6.09 4.998,-6.2 0.126,-0.11 0.703,-0.83 1.283,-1.6 0.579,-0.77 1.522,-1.94 2.097,-2.6 0.574,-0.66 1.044,-1.425 1.045,-1.7 0,-0.275 0.151,-0.5 0.336,-0.5 1.73,0 1.948,-9.24 0.289,-12.2 -5.333,-9.51 -16.092,-9.597 -23.419,-0.19 -3.851,4.942 -4.618,5.753 -5.141,5.43 -0.34,-0.21 -0.465,-4.357 -0.465,-15.449 0,-14.542 -0.035,-15.255 -0.862,-17.464 -0.931,-2.489 -3.96,-5.882 -6.138,-6.874 -0.66,-0.3 -1.513,-0.705 -1.895,-0.9 -0.881,-0.448 -7.107,-0.419 -7.905,0.037 m 8.27,6.66 c 3.017,2.442 2.868,1.234 2.901,23.47 0.033,22.873 -0.047,22.28 3.008,22.28 h 1.758 l 4.239,-5.378 c 2.331,-2.959 4.46,-5.614 4.731,-5.9 0.271,-0.287 1.024,-1.232 1.673,-2.1 2.188,-2.926 4.147,-4.539 5.867,-4.83 7.563,-1.278 11.85,6.05 7.149,12.221 -10.31,13.533 -30.986,38.658 -32.425,39.402 -2.952,1.527 -7.85,0.064 -9.807,-2.928 -0.391,-0.598 -0.95,-1.328 -1.243,-1.622 -0.293,-0.294 -1.024,-1.194 -1.625,-2 -0.6,-0.806 -1.196,-1.555 -1.325,-1.665 -0.128,-0.11 -3.746,-4.62 -8.04,-10.023 -4.294,-5.403 -8.095,-10.173 -8.448,-10.6 -2.896,-3.512 -8.064,-10.096 -9.06,-11.543 -2.753,-4.002 -0.867,-9.868 3.54,-11.009 4.995,-1.295 5.881,-0.676 14.559,10.175 5.965,7.459 6.108,7.602 7.713,7.72 2.875,0.211 2.741,1.187 2.965,-21.681 0.214,-21.861 0.138,-21.072 2.235,-23.27 2.465,-2.584 6.92,-2.916 9.635,-0.719 m 158.33,21.729 c 5.602,1.055 11.937,2.888 15.2,4.396 6.04,2.792 8.13,3.933 11.937,6.518 4.597,3.122 11.467,9.46 14.207,13.107 0.578,0.77 1.164,1.49 1.301,1.6 2.434,1.95 10.207,17.171 11.029,21.6 0.103,0.55 0.334,1.36 0.514,1.8 0.314,0.766 0.658,2.343 1.659,7.6 0.615,3.233 0.604,16.5 -0.017,20.003 -1.433,8.08 -3.693,14.811 -7.227,21.525 -9.712,18.448 -27.68,31.217 -49.403,35.107 -3.569,0.639 -16.806,0.639 -20,-10e-4 -1.32,-0.264 -3.39,-0.669 -4.6,-0.899 -1.21,-0.23 -2.56,-0.566 -3,-0.747 -0.44,-0.18 -1.25,-0.411 -1.8,-0.514 -4.429,-0.822 -19.65,-8.595 -21.6,-11.029 -0.11,-0.137 -0.842,-0.728 -1.627,-1.312 -3.566,-2.655 -10.085,-9.797 -13.447,-14.733 -10.405,-15.274 -13.884,-35.618 -9.27,-54.2 0.437,-1.76 0.963,-3.513 1.169,-3.895 0.206,-0.382 0.375,-0.969 0.375,-1.305 0,-0.336 0.159,-0.923 0.353,-1.305 0.195,-0.382 0.533,-1.145 0.752,-1.695 6.638,-16.646 21.049,-31.057 37.695,-37.695 0.55,-0.219 1.313,-0.557 1.695,-0.752 0.382,-0.194 0.969,-0.353 1.305,-0.353 0.336,0 0.923,-0.169 1.305,-0.375 1.063,-0.573 6.739,-1.921 10.095,-2.397 1.65,-0.234 3.45,-0.503 4,-0.598 1.858,-0.321 14.982,0.093 17.4,0.549 m -15.8,9.25 c -4.222,0.327 -8.607,1.17 -12.455,2.394 -16.103,5.121 -29.719,17.911 -36.385,34.177 -4.457,10.876 -4.857,26.977 -0.965,38.8 1.607,4.881 6.446,14.22 8.187,15.8 0.121,0.11 0.981,1.202 1.911,2.427 1.563,2.058 5.273,5.794 8.439,8.498 3.99,3.408 13.098,8.346 18.268,9.904 0.88,0.266 2.05,0.624 2.6,0.797 0.958,0.302 2.466,0.63 7.131,1.553 4.468,0.883 15.453,0.451 20.569,-0.809 6.327,-1.56 7.24,-1.881 12.5,-4.397 11.933,-5.709 21.297,-15.076 26.966,-26.973 0.943,-1.98 1.877,-3.913 2.075,-4.295 0.197,-0.382 0.359,-0.969 0.359,-1.305 0,-0.336 0.162,-0.923 0.361,-1.305 0.337,-0.649 0.705,-1.929 1.609,-5.595 1.26,-5.116 1.692,-16.101 0.809,-20.569 -1.679,-8.491 -2.227,-10.244 -5.162,-16.516 -6.087,-13.009 -15.844,-22.23 -30.417,-28.748 -6.528,-2.919 -17.565,-4.524 -26.4,-3.838 m 13,5.924 c 2.18,0.351 3.745,0.694 6.6,1.449 0.953,0.252 1.348,0.399 3.9,1.452 0.605,0.249 1.505,0.609 2,0.8 1.495,0.575 3.088,1.331 3.3,1.566 0.11,0.122 0.854,0.526 1.653,0.897 4.306,2.003 11.046,7.803 15.201,13.083 1.298,1.65 2.526,3.205 2.727,3.455 0.888,1.103 4.045,7.361 4.815,9.545 0.465,1.32 1.017,2.713 1.225,3.095 0.209,0.382 0.379,1.136 0.379,1.676 0,0.54 0.161,1.081 0.358,1.203 0.382,0.236 0.594,1.435 1.312,7.426 3.94,32.858 -24.412,61.21 -57.27,57.27 -5.991,-0.718 -7.19,-0.93 -7.426,-1.312 -0.122,-0.197 -0.663,-0.358 -1.203,-0.358 -0.54,0 -1.294,-0.17 -1.676,-0.379 -0.382,-0.208 -1.775,-0.76 -3.095,-1.225 -2.307,-0.814 -8.987,-4.206 -9.4,-4.774 -0.11,-0.151 -1.1,-0.887 -2.2,-1.634 -4.773,-3.245 -11.667,-10.969 -14.267,-15.988 -0.513,-0.99 -1.023,-1.89 -1.134,-2 -0.22,-0.22 -1.003,-1.892 -1.545,-3.3 -0.191,-0.495 -0.551,-1.395 -0.8,-2 -1.152,-2.793 -1.23,-3.042 -2.434,-7.8 -1.485,-5.87 -1.315,-16.167 0.377,-22.9 0.249,-0.99 0.552,-2.297 0.674,-2.905 0.122,-0.608 0.38,-1.203 0.575,-1.324 0.195,-0.12 0.354,-0.57 0.354,-1 0,-0.43 0.161,-1.094 0.358,-1.476 0.197,-0.382 0.958,-1.955 1.692,-3.495 0.734,-1.54 1.427,-2.89 1.542,-3 0.114,-0.11 0.433,-0.605 0.708,-1.1 0.275,-0.495 0.725,-1.305 1,-1.8 0.275,-0.495 0.599,-0.99 0.719,-1.1 0.121,-0.11 0.655,-0.83 1.187,-1.6 1.828,-2.646 5.36,-6.292 8.994,-9.286 3.418,-2.816 3.208,-2.669 6.2,-4.352 0.55,-0.309 1.09,-0.656 1.2,-0.77 0.11,-0.115 1.46,-0.808 3,-1.542 1.54,-0.734 3.113,-1.495 3.495,-1.692 0.382,-0.197 0.969,-0.358 1.305,-0.358 0.336,0 0.923,-0.162 1.305,-0.361 0.382,-0.199 1.505,-0.571 2.495,-0.827 0.99,-0.256 2.353,-0.634 3.028,-0.839 0.676,-0.205 1.936,-0.391 2.8,-0.413 0.865,-0.022 2.022,-0.193 2.572,-0.379 1.21,-0.411 10.066,-0.166 13.4,0.372 m 0.2,9.152 c -0.52,0.585 -0.611,4.474 -0.682,29.047 -0.088,30.577 -0.019,29.687 -2.225,28.565 -3.533,-1.797 -5.061,-2.224 -9.293,-2.593 -2.412,-0.211 -7.4,0.426 -8.695,1.109 -0.382,0.202 -0.978,0.367 -1.324,0.367 -2.893,0 -11.664,6.665 -13.028,9.9 -0.302,0.715 -0.684,1.3 -0.851,1.3 -0.166,0 -0.302,0.54 -0.302,1.2 0,0.66 -0.18,1.2 -0.4,1.2 -0.22,0 -0.4,0.979 -0.4,2.176 0,1.197 0.18,2.288 0.4,2.424 0.22,0.136 0.4,0.687 0.4,1.224 0,0.537 0.18,0.976 0.4,0.976 0.22,0 0.4,0.248 0.4,0.552 0,3.041 7.395,6.604 14.4,6.937 5.437,0.258 13.567,-1.872 15.929,-4.174 0.29,-0.283 0.691,-0.515 0.889,-0.515 1.053,0 6.382,-6.47 6.382,-7.748 0,-0.333 0.18,-0.716 0.4,-0.852 0.261,-0.161 0.4,-10.779 0.4,-30.547 0,-35.789 -0.263,-34.04 4.226,-28.053 1.072,1.43 2.173,2.832 2.448,3.115 0.274,0.283 0.813,1.048 1.198,1.7 0.385,0.652 0.842,1.185 1.014,1.185 0.173,0 0.314,0.27 0.314,0.6 0,0.33 0.18,0.6 0.4,0.6 0.22,0 0.4,0.36 0.4,0.8 0,0.44 0.18,0.8 0.4,0.8 0.22,0 0.4,0.36 0.4,0.8 0,0.44 0.18,0.8 0.4,0.8 0.22,0 0.4,0.439 0.4,0.976 0,0.537 0.18,1.088 0.4,1.224 0.22,0.136 0.4,0.856 0.4,1.6 0,0.744 0.18,1.464 0.4,1.6 0.247,0.153 0.4,3.623 0.4,9.08 0,9.726 0.039,9.879 2.529,9.907 2.199,0.025 2.271,-0.298 2.271,-10.23 0,-5.005 -0.18,-9.698 -0.4,-10.429 -0.22,-0.73 -0.592,-2.003 -0.826,-2.828 -0.426,-1.498 -0.74,-2.328 -1.665,-4.4 -0.601,-1.348 -3.622,-6.005 -4.606,-7.1 -0.395,-0.44 -1.156,-1.43 -1.692,-2.2 -0.535,-0.77 -1.297,-1.691 -1.692,-2.047 -0.395,-0.356 -0.719,-0.836 -0.719,-1.067 0,-0.23 -0.135,-0.479 -0.3,-0.553 -0.324,-0.143 -1.698,-1.782 -3.3,-3.933 -2.474,-3.323 -4.186,-4.085 -5.6,-2.495"
       stroke="none"
       fill="#3e6ec6"
       fill-rule="evenodd" />
    <path
       id="path3"
       d="m 149.9,17.9 c 11.715,0.059 30.885,0.059 42.6,0 11.715,-0.059 2.13,-0.107 -21.3,-0.107 -23.43,0 -33.015,0.048 -21.3,0.107 m -25.338,1.762 -0.762,0.862 1.1,-0.708 c 1.134,-0.73 1.349,-1.016 0.762,-1.016 -0.186,0 -0.681,0.388 -1.1,0.862 m 94.151,1.171 c 3.059,3.335 2.887,0.508 2.887,47.567 0,47.059 0.172,44.232 -2.887,47.567 l -1.313,1.431 1.352,-1.199 c 0.743,-0.659 1.778,-2.149 2.3,-3.31 L 222,110.777 V 68.4 26.023 l -0.948,-2.112 c -0.522,-1.161 -1.557,-2.651 -2.3,-3.31 l -1.352,-1.199 1.313,1.431 M 168.8,21.592 c -1.052,0.228 -0.52,0.316 2.143,0.355 4.094,0.061 7.76,1.471 9.643,3.709 0.576,0.684 1.134,1.157 1.241,1.05 0.391,-0.391 -3.185,-3.22 -5.177,-4.096 -2.319,-1.02 -5.77,-1.467 -7.85,-1.018 m -47.193,1.292 c -0.823,1.354 -1.421,3.436 -1.083,3.773 0.11,0.11 0.329,-0.385 0.486,-1.101 0.157,-0.716 0.621,-1.899 1.031,-2.629 0.956,-1.702 0.597,-1.738 -0.434,-0.043 m 43.324,0.016 c -2.545,1.382 -3.648,2.482 -8.12,8.1 -2.277,2.86 -4.408,5.515 -4.737,5.9 -0.329,0.385 -0.435,0.694 -0.236,0.688 0.199,-0.007 0.992,-0.859 1.762,-1.893 6.159,-8.269 10.628,-12.887 12.476,-12.893 0.372,-0.001 0.788,-0.182 0.924,-0.402 0.392,-0.634 -0.281,-0.471 -2.069,0.5 m 17.799,5.4 c 0.431,0.605 1.199,1.46 1.707,1.9 0.508,0.44 0.235,-0.055 -0.605,-1.1 -1.658,-2.061 -2.369,-2.578 -1.102,-0.8 m 2.947,3.612 c 2.613,3.559 23.4,29.119 22.946,28.214 -0.204,-0.406 -16.585,-20.927 -20.341,-25.481 -0.705,-0.855 -1.549,-1.98 -1.875,-2.5 -0.326,-0.52 -0.741,-0.945 -0.922,-0.945 -0.182,0 -0.095,0.32 0.192,0.712 m -35.817,7.781 c -0.774,0.932 -1.329,1.772 -1.233,1.867 0.095,0.095 0.22,0.098 0.277,0.007 0.057,-0.092 0.696,-0.932 1.419,-1.867 1.702,-2.201 1.363,-2.205 -0.463,-0.007 m -3.333,4.195 c -0.84,1.039 -1.741,2.164 -2.002,2.5 -0.262,0.337 -1.34,1.692 -2.397,3.012 -1.057,1.32 -2.135,2.67 -2.395,3 -0.261,0.33 -1.779,2.22 -3.374,4.2 -3.64,4.52 -3.7,4.6 -3.45,4.6 0.114,0 3.048,-3.555 6.52,-7.9 3.472,-4.345 6.933,-8.665 7.69,-9.6 0.758,-0.935 1.278,-1.7 1.156,-1.7 -0.122,0 -0.908,0.85 -1.748,1.888 M 210.4,62.8 c 0.921,1.1 1.761,2 1.866,2 0.338,0 -2.852,-3.965 -3.203,-3.983 -0.186,-0.009 0.416,0.883 1.337,1.983 m -78.602,-0.641 c -0.219,0.307 -0.815,1.117 -1.325,1.8 -1.402,1.876 -0.771,1.487 0.906,-0.559 0.811,-0.99 1.327,-1.8 1.146,-1.8 -0.181,0 -0.508,0.251 -0.727,0.559 m 81.234,4.303 c 0.359,0.695 0.891,1.91 1.182,2.7 0.291,0.791 0.541,1.168 0.554,0.838 0.028,-0.695 -1.819,-4.8 -2.16,-4.8 -0.126,0 0.065,0.568 0.424,1.262 M 128.726,66.5 c -1.979,3.546 -2.107,8.367 -0.324,12.105 1.176,2.464 5.054,6.622 6.13,6.574 0.258,-0.012 0.018,-0.317 -0.532,-0.679 -5.63,-3.706 -7.894,-10.621 -5.435,-16.6 0.974,-2.368 1.045,-2.984 0.161,-1.4 m 86.188,6.5 c 0.003,1.1 0.081,1.503 0.173,0.895 0.092,-0.609 0.09,-1.509 -0.005,-2 -0.095,-0.492 -0.171,0.005 -0.168,1.105 m -58.856,2.187 c -1.553,1.933 -1.328,2.142 0.336,0.313 l 1.183,-1.3 0.017,15.4 c 0.01,8.47 0.15,15.608 0.312,15.862 0.394,0.621 0.152,-30.629 -0.243,-31.334 -0.231,-0.414 -0.635,-0.148 -1.605,1.059 m 28.437,13.713 0.095,14.9 0.11,-14.532 c 0.066,-8.686 0.259,-14.478 0.48,-14.4 0.204,0.073 1.777,1.871 3.495,3.997 1.719,2.125 3.665,4.27 4.325,4.766 0.72,0.54 0.385,0.034 -0.836,-1.265 -1.12,-1.191 -3.156,-3.561 -4.526,-5.266 -1.369,-1.705 -2.658,-3.1 -2.864,-3.1 -0.227,0 -0.337,5.848 -0.279,14.9 m 29.951,-13.068 c -0.025,0.458 -0.49,1.709 -1.032,2.781 -0.543,1.071 -0.905,2.029 -0.806,2.128 0.336,0.336 2.252,-4.336 2.068,-5.041 -0.149,-0.568 -0.192,-0.543 -0.23,0.132 m -62.228,4.18 c -1.25,1.547 -2.98,3.281 -3.845,3.853 -1.871,1.239 -2.095,1.684 -0.331,0.658 1.273,-0.741 4.455,-4.012 5.966,-6.134 1.537,-2.158 0.521,-1.237 -1.79,1.623 m 58.616,2.541 -0.965,1.247 1.144,-1.088 c 0.63,-0.598 1.064,-1.159 0.966,-1.247 -0.099,-0.088 -0.614,0.402 -1.145,1.088 m -3.634,2.294 c -1.21,0.62 -1.968,1.133 -1.684,1.14 0.671,0.017 3.556,-1.456 3.88,-1.981 0.138,-0.223 0.196,-0.379 0.128,-0.346 -0.068,0.032 -1.114,0.567 -2.324,1.187 m -68.96,1.599 c 0.418,0.164 1.57,0.298 2.56,0.298 0.99,0 2.142,-0.134 2.56,-0.298 0.428,-0.168 -0.689,-0.299 -2.56,-0.299 -1.871,0 -2.988,0.131 -2.56,0.299 m 60.8,0 c 0.959,0.376 3.649,0.366 4.96,-0.019 0.612,-0.18 -0.302,-0.291 -2.36,-0.287 -1.895,0.004 -3.028,0.138 -2.6,0.306 m -15.211,18.983 c -0.148,0.586 -0.178,1.155 -0.068,1.265 0.11,0.11 0.32,-0.279 0.468,-0.865 0.147,-0.587 0.177,-1.156 0.067,-1.266 -0.11,-0.11 -0.32,0.279 -0.467,0.866 m -25.42,1.299 c -0.035,2.047 5.12,7.103 7.991,7.836 0.55,0.141 0.19,-0.147 -0.8,-0.639 -2.156,-1.071 -5.558,-4.381 -6.502,-6.325 -0.374,-0.77 -0.684,-1.162 -0.689,-0.872 m 24.177,1.772 -0.634,1.3 0.815,-1 c 0.785,-0.963 1.041,-1.6 0.643,-1.6 -0.104,0 -0.475,0.585 -0.824,1.3 m -62.149,2.1 c -0.025,1.046 1.328,4.01 2.021,4.427 0.432,0.261 0.428,0.187 -0.019,-0.365 -0.309,-0.38 -0.881,-1.63 -1.272,-2.777 -0.391,-1.147 -0.72,-1.725 -0.73,-1.285 m 59.663,0.971 c -2.888,2.612 -6.672,3.811 -10.844,3.434 l -1.856,-0.167 2.103,0.438 c 3.747,0.78 8.662,-1.003 11.667,-4.234 1.394,-1.498 0.902,-1.255 -1.07,0.529 M 124,116.8 c 0.77,0.648 1.58,1.178 1.8,1.177 0.22,-0.002 0.04,-0.27 -0.4,-0.597 -0.44,-0.327 -1.117,-0.862 -1.505,-1.188 -0.387,-0.325 -0.837,-0.587 -1,-0.581 -0.162,0.006 0.335,0.541 1.105,1.189 m 91.6,1.2 c -0.77,0.422 -1.13,0.77 -0.8,0.774 0.33,0.005 1.05,-0.344 1.6,-0.774 1.257,-0.983 0.996,-0.983 -0.8,0 m -85.8,1.223 c 2.007,0.415 81.165,0.393 82.8,-0.023 0.66,-0.168 -18.06,-0.306 -41.6,-0.307 -23.599,0 -42.082,0.147 -41.2,0.33 m -106.051,1.944 c -0.908,0.412 -1.766,0.936 -1.906,1.164 -0.141,0.228 0.332,0.112 1.05,-0.258 0.719,-0.37 1.937,-0.879 2.707,-1.131 0.88,-0.288 1.103,-0.47 0.6,-0.491 -0.44,-0.019 -1.543,0.304 -2.451,0.716 m 88.136,0 c 1.147,0.391 2.397,0.963 2.777,1.272 0.552,0.447 0.626,0.451 0.365,0.019 -0.417,-0.693 -3.381,-2.046 -4.427,-2.021 -0.44,0.01 0.138,0.339 1.285,0.73 M 230.2,120.8 c -1.019,0.438 0.032,0.438 1.4,0 0.804,-0.257 0.843,-0.323 0.2,-0.332 -0.44,-0.006 -1.16,0.143 -1.6,0.332 m 85.8,0 c 1.368,0.438 2.419,0.438 1.4,0 -0.44,-0.189 -1.16,-0.338 -1.6,-0.332 -0.643,0.009 -0.604,0.075 0.2,0.332 m 3.183,1.091 c 2.256,1.626 3.111,2.547 4.038,4.351 l 0.979,1.902 v 43.028 43.028 l -0.894,1.673 c -0.492,0.92 -1.077,1.786 -1.3,1.923 -0.223,0.138 -0.406,0.433 -0.406,0.656 0,0.673 1.049,-0.592 2.054,-2.477 L 324.6,214.2 v -43 c 0,-40.726 -0.038,-43.08 -0.726,-44.516 -0.979,-2.043 -2.922,-4.196 -4.433,-4.913 -1.239,-0.588 -1.24,-0.588 -0.258,0.12 m -93.488,1.896 c -1.46,1.659 -2.539,3.734 -1.658,3.19 0.2,-0.123 0.363,-0.476 0.363,-0.784 0,-0.308 0.72,-1.317 1.601,-2.242 0.88,-0.926 1.532,-1.751 1.449,-1.834 -0.083,-0.084 -0.873,0.668 -1.755,1.67 m -110.084,-0.892 c -0.006,0.163 0.256,0.613 0.581,1 0.326,0.388 0.861,1.065 1.188,1.505 0.327,0.44 0.595,0.62 0.597,0.4 0.002,-0.462 -2.35,-3.35 -2.366,-2.905 m -96.213,1.907 c -0.4,0.442 -0.632,0.897 -0.516,1.013 0.115,0.115 0.508,-0.246 0.873,-0.803 0.797,-1.216 0.638,-1.31 -0.357,-0.21 m 49.894,2.733 c -0.28,0.177 0.98,0.247 2.8,0.155 5.27,-0.267 9.328,1.792 12.438,6.31 0.686,0.997 0.686,0.996 0.11,-0.221 -2.135,-4.507 -11.855,-8.461 -15.348,-6.244 m 196.446,-0.029 c -0.254,0.162 1.304,0.294 3.462,0.294 2.158,0 3.84,-0.135 3.738,-0.3 -0.239,-0.387 -6.591,-0.381 -7.2,0.006 m -42.688,1.344 c -0.332,1.659 -0.245,83.485 0.09,84.674 0.143,0.508 0.26,-18.617 0.26,-42.5 0,-23.883 -0.022,-43.424 -0.05,-43.424 -0.028,0 -0.162,0.562 -0.3,1.25 m -156.65,-0.017 -1,0.815 1.4,-0.675 c 1.712,-0.825 1.894,-0.976 1.167,-0.964 -0.312,0.005 -1.017,0.376 -1.567,0.824 m 195.901,0.11 c -2.197,1.256 -1.835,1.583 0.399,0.361 2.311,-1.264 2.379,-1.315 1.667,-1.261 -0.312,0.024 -1.242,0.429 -2.066,0.9 M 118.893,171 c 0.001,23.54 0.139,42.26 0.307,41.6 0.416,-1.635 0.438,-80.793 0.023,-82.8 -0.183,-0.882 -0.33,17.601 -0.33,41.2 m -101.1,0.2 c 0,23.43 0.048,33.015 0.107,21.3 0.059,-11.715 0.059,-30.885 0,-42.6 -0.059,-11.715 -0.107,-2.13 -0.107,21.3 m 258.853,-41.512 c 0.635,0.488 5.204,4.114 10.154,8.057 4.95,3.944 9.36,7.442 9.8,7.774 0.936,0.706 -1.703,-1.83 -2.834,-2.725 -0.421,-0.333 -1.563,-1.233 -2.537,-2 -0.975,-0.766 -4.75,-3.779 -8.389,-6.694 -3.64,-2.915 -6.782,-5.3 -6.983,-5.3 -0.201,0 0.154,0.4 0.789,0.888 m -217.66,4.73 c -3.292,2.65 -6.256,5.036 -6.586,5.303 -2.283,1.848 -5.316,4.263 -6.628,5.279 -0.852,0.66 -2.095,1.718 -2.761,2.352 -1.668,1.586 0.18,0.154 12.289,-9.523 8.813,-7.043 10.223,-8.229 9.786,-8.229 -0.063,0 -2.808,2.168 -6.1,4.818 m 198.765,-1.08 c -0.462,0.704 -0.966,1.727 -1.119,2.271 -0.154,0.545 0.271,0.016 0.945,-1.175 1.365,-2.413 1.47,-3.073 0.174,-1.096 M 70.2,134.268 c -0.66,0.35 -5.152,3.808 -9.982,7.684 -4.831,3.877 -9.265,7.408 -9.854,7.848 -0.589,0.44 -2.577,2.025 -4.418,3.523 -3.883,3.16 -3.974,3.233 -6.347,5.067 -0.99,0.764 -1.889,1.493 -1.999,1.621 -0.11,0.127 -1.971,1.633 -4.136,3.346 -7.056,5.585 -7.395,9.544 -1.241,14.517 0.867,0.701 2.76,2.231 4.206,3.4 1.447,1.169 3.314,2.666 4.149,3.326 0.836,0.66 7.213,5.773 14.171,11.363 6.958,5.59 13.451,10.675 14.429,11.3 5.209,3.33 11.623,-0.89 10.646,-7.004 -0.393,-2.454 -1.371,-3.475 -9.856,-10.284 -8.443,-6.777 -8.97,-7.345 -8.556,-9.228 0.606,-2.759 0.479,-2.743 22.588,-2.752 19.75,-0.008 19.804,-0.01 21.4,-0.903 4.749,-2.657 4.299,-10.033 -0.754,-12.327 -1.534,-0.697 -2.988,-0.749 -21.446,-0.769 -20.954,-0.023 -20.531,0.015 -21.561,-1.919 -1.068,-2.005 -0.384,-2.841 7.457,-9.111 10.799,-8.634 11.368,-9.354 10.689,-13.511 -0.702,-4.293 -5.933,-7.123 -9.585,-5.187 m 185.65,3.782 c -0.309,1.545 -0.26,4.631 0.094,5.892 0.146,0.518 0.265,-0.877 0.265,-3.1 0,-4.5 -0.007,-4.552 -0.359,-2.792 m -169.732,2.533 c 0.008,1.901 0.137,2.867 0.32,2.4 0.4,-1.023 0.392,-3.767 -0.014,-4.783 -0.199,-0.497 -0.315,0.405 -0.306,2.383 m 170.3,4.733 c -0.063,1.121 2.047,4.033 4.405,6.078 0.757,0.657 0.451,0.207 -0.681,-1 -1.132,-1.207 -2.429,-2.914 -2.882,-3.794 -0.454,-0.88 -0.833,-1.458 -0.842,-1.284 m 42.193,1.732 c 0.666,0.634 1.906,1.692 2.754,2.352 1.475,1.146 6.884,5.473 13.678,10.94 1.737,1.397 2.604,2.027 1.929,1.4 -2.083,-1.933 -3.354,-2.991 -9.972,-8.296 -3.52,-2.821 -6.766,-5.426 -7.213,-5.787 -1.725,-1.395 -2.333,-1.71 -1.176,-0.609 m -214.746,1.325 c -0.572,0.865 -2.306,2.595 -3.853,3.845 -2.86,2.311 -3.781,3.327 -1.623,1.79 2.122,-1.511 5.393,-4.693 6.134,-5.966 1.026,-1.764 0.581,-1.54 -0.658,0.331 m -44.281,1.672 -1.784,1.612 1.8,-1.325 c 0.99,-0.728 1.875,-1.371 1.967,-1.428 0.091,-0.057 0.084,-0.186 -0.017,-0.287 -0.1,-0.101 -0.985,0.542 -1.966,1.428 m -7.184,5.604 c -7.418,5.9 -11.373,10.311 -10.25,11.434 0.127,0.127 0.342,-0.109 0.477,-0.526 0.89,-2.743 2.765,-4.909 7.281,-8.411 1.921,-1.489 3.582,-2.807 3.692,-2.929 0.206,-0.228 3.028,-2.398 3.764,-2.895 0.227,-0.153 0.328,-0.362 0.224,-0.464 -0.103,-0.102 -2.438,1.604 -5.188,3.791 m 230,-2.997 c 0,0.206 0.495,0.672 1.1,1.034 0.605,0.362 1.82,1.346 2.7,2.186 l 1.6,1.528 -15.6,0.2 c -11.058,0.142 -15.92,0.343 -16.7,0.69 -1.682,0.75 -1.308,0.948 0.55,0.292 1.333,-0.47 4.559,-0.582 16.777,-0.582 8.732,0 15.222,-0.155 15.352,-0.367 0.195,-0.314 -0.673,-1.131 -5.079,-4.778 -0.385,-0.318 -0.7,-0.41 -0.7,-0.203 m -187.332,3.563 c -1.476,1.314 -1.495,1.362 -0.596,1.572 1.439,0.335 31.513,0.451 30.991,0.119 -0.255,-0.162 -7.393,-0.302 -15.863,-0.312 l -15.4,-0.017 1.338,-1.217 c 0.736,-0.669 1.274,-1.281 1.196,-1.359 -0.078,-0.078 -0.828,0.468 -1.666,1.214 m 32.532,2.883 c 1.944,0.944 5.254,4.346 6.325,6.502 0.492,0.99 0.78,1.35 0.639,0.8 -0.733,-2.871 -5.789,-8.026 -7.836,-7.991 -0.29,0.005 0.102,0.315 0.872,0.689 m 123.458,2.202 c -2.048,2.059 -3.877,5.2 -3.839,6.596 0.011,0.387 0.302,-0.105 0.648,-1.094 0.871,-2.489 2.7,-5.028 4.628,-6.425 0.894,-0.647 1.406,-1.177 1.139,-1.177 -0.267,0 -1.426,0.945 -2.576,2.1 m -209.581,8 c -0.514,3.776 0.873,8.114 3.535,11.061 0.825,0.913 1.588,1.573 1.694,1.466 0.107,-0.107 -0.366,-0.665 -1.05,-1.241 -2.254,-1.897 -3.727,-5.709 -3.716,-9.616 0.011,-3.748 -0.117,-4.209 -0.463,-1.67 m 93.528,-0.044 c 0.379,4.2 -0.882,8.14 -3.48,10.871 -1.736,1.825 -2.048,2.499 -0.483,1.043 3.231,-3.005 5.014,-7.92 4.234,-11.667 l -0.438,-2.103 0.167,1.856 m 205.523,1.944 c 0,1.43 0.073,2.015 0.161,1.3 0.089,-0.715 0.089,-1.885 0,-2.6 -0.088,-0.715 -0.161,-0.13 -0.161,1.3 m -93.608,0 c 0,1.21 0.075,1.705 0.167,1.1 0.091,-0.605 0.091,-1.595 0,-2.2 -0.092,-0.605 -0.167,-0.11 -0.167,1.1 m 1.88,7.137 c 0,0.472 3.726,4.085 4.865,4.716 1.758,0.975 1.695,0.549 -0.087,-0.586 -0.978,-0.623 -2.453,-1.883 -3.278,-2.801 -0.825,-0.918 -1.5,-1.516 -1.5,-1.329 m 88.646,1.109 c -0.618,0.775 -1.055,1.478 -0.97,1.563 0.084,0.085 0.659,-0.48 1.278,-1.255 0.618,-0.775 1.055,-1.478 0.97,-1.563 -0.084,-0.085 -0.659,0.48 -1.278,1.255 m -2.744,2.745 c -0.603,0.532 -1.412,1.143 -1.796,1.358 -0.385,0.215 -0.603,0.487 -0.486,0.604 0.117,0.117 1.015,-0.492 1.996,-1.353 0.981,-0.861 1.694,-1.568 1.584,-1.57 -0.11,-0.003 -0.694,0.43 -1.298,0.961 M 27.2,182.125 c 0,0.098 0.855,0.866 1.9,1.707 1.045,0.84 1.54,1.113 1.1,0.605 -0.826,-0.954 -3,-2.629 -3,-2.312 m 81.1,0.504 c -0.605,0.328 -1.1,0.681 -1.1,0.784 0,0.386 0.632,0.144 1.6,-0.613 1.189,-0.93 1.011,-0.991 -0.5,-0.171 M 105,184 l -0.8,0.344 0.8,0.022 c 0.44,0.012 1.07,-0.153 1.4,-0.366 0.795,-0.514 -0.204,-0.514 -1.4,0 m 131,0 c 0.33,0.213 0.87,0.388 1.2,0.388 0.533,0 0.533,-0.043 0,-0.388 -0.33,-0.213 -0.87,-0.388 -1.2,-0.388 -0.533,0 -0.533,0.043 0,0.388 m -162,0.774 c 0,0.206 1.395,1.495 3.1,2.864 1.705,1.37 4.075,3.406 5.266,4.526 1.299,1.221 1.805,1.556 1.265,0.836 -0.496,-0.66 -2.641,-2.606 -4.766,-4.325 -2.126,-1.718 -3.924,-3.291 -3.997,-3.495 -0.078,-0.221 5.714,-0.414 14.4,-0.48 L 103.8,184.59 88.9,184.495 C 79.848,184.437 74,184.547 74,184.774 m 179.2,0.018 14.6,0.208 -3.2,2.589 c -7.775,6.292 -10.031,10.586 -8.718,16.592 0.28,1.278 0.343,0.856 0.332,-2.2 -0.022,-6.009 1.267,-8.232 7.78,-13.412 2.423,-1.928 4.406,-3.654 4.406,-3.837 0,-0.183 -6.705,-0.29 -14.9,-0.24 l -14.9,0.093 14.6,0.207 m 56.8,1.283 -1.8,1.61 1.8,-1.32 c 0.99,-0.726 1.875,-1.375 1.967,-1.442 0.091,-0.068 0.091,-0.198 -10e-4,-0.29 -0.092,-0.092 -0.977,0.557 -1.966,1.442 M 31.8,185.887 c 0.855,0.858 27.315,22.086 28.019,22.479 1.171,0.654 -25.621,-21.084 -28.007,-22.724 L 31,185.084 l 0.8,0.803 m 271.172,5.663 c -2.656,2.117 -5.536,4.424 -6.4,5.126 -17.418,14.146 -20.6,16.494 -23.972,17.689 l -1.2,0.426 1.4,-0.227 c 2.086,-0.338 21.592,-14.806 27.437,-20.35 0.24,-0.228 1.033,-0.864 1.763,-1.414 0.73,-0.55 1.523,-1.183 1.763,-1.406 0.336,-0.312 2.973,-2.364 4.204,-3.271 0.091,-0.068 0.091,-0.191 0,-0.273 -0.092,-0.083 -2.34,1.582 -4.995,3.7 M 86.133,201.4 c 0,1.867 0.125,2.841 0.306,2.38 0.167,-0.429 0.305,-1.5 0.305,-2.38 0,-0.88 -0.138,-1.951 -0.305,-2.38 -0.181,-0.461 -0.306,0.513 -0.306,2.38 m -1.342,5.987 c -0.555,1.181 -0.867,2.06 -0.694,1.953 0.478,-0.296 1.967,-3.351 1.826,-3.75 -0.067,-0.192 -0.577,0.617 -1.132,1.797 M 256.683,206.7 c 1.307,3.541 5.53,7.258 8.917,7.847 l 1.4,0.244 -1.2,-0.432 c -4.025,-1.446 -6.658,-3.558 -8.144,-6.532 -0.907,-1.817 -1.466,-2.464 -0.973,-1.127 m 11.617,1.982 c 0.495,0.096 1.305,0.096 1.8,0 0.495,-0.095 0.09,-0.173 -0.9,-0.173 -0.99,0 -1.395,0.078 -0.9,0.173 m -207.49,0.381 c 0.03,1.028 7.644,5.75 9.19,5.7 0.33,-0.011 -0.094,-0.274 -0.943,-0.585 -2.021,-0.741 -4.018,-1.963 -6.357,-3.888 -1.045,-0.861 -1.896,-1.413 -1.89,-1.227 m 21.468,1.95 c -0.618,0.543 -0.964,0.987 -0.77,0.987 0.194,0 0.775,-0.45 1.292,-1 1.195,-1.272 0.931,-1.266 -0.522,0.013 m -2.57,1.839 c -0.249,0.249 -1.41,0.783 -2.58,1.187 -1.17,0.404 -1.768,0.739 -1.328,0.744 0.843,0.01 5,-1.79 5,-2.165 0,-0.372 -0.618,-0.24 -1.092,0.234 m 38.153,3.048 -0.687,1.5 0.804,-1 c 0.693,-0.862 1.089,-2 0.696,-2 -0.069,0 -0.435,0.675 -0.813,1.5 m -45.756,-0.813 c 0.609,0.092 1.509,0.09 2,-0.005 0.492,-0.095 -0.005,-0.171 -1.105,-0.168 -1.1,0.003 -1.503,0.081 -0.895,0.173 m 151.691,0.313 c 0.319,1.029 1.933,3.405 2.159,3.178 0.095,-0.095 -0.103,-0.489 -0.441,-0.876 -0.338,-0.386 -0.918,-1.242 -1.289,-1.902 -0.372,-0.66 -0.565,-0.84 -0.429,-0.4 m 44.504,-0.318 c 0.495,0.096 1.305,0.096 1.8,0 0.495,-0.095 0.09,-0.173 -0.9,-0.173 -0.99,0 -1.395,0.078 -0.9,0.173 m -247.699,3.67 c 0.659,0.743 2.149,1.778 3.31,2.3 L 26.023,222 H 68.4 110.777 l 2.112,-0.948 c 1.161,-0.522 2.651,-1.557 3.31,-2.3 l 1.199,-1.352 -1.431,1.313 c -3.335,3.059 -0.508,2.887 -47.567,2.887 -47.059,0 -44.232,0.172 -47.567,-2.887 l -1.431,-1.313 1.199,1.352 m 205.804,0.286 c 0.006,0.462 2.62,2.167 3.289,2.146 0.278,-0.009 -0.034,-0.301 -0.694,-0.65 -0.66,-0.349 -1.515,-0.909 -1.9,-1.246 -0.385,-0.337 -0.698,-0.449 -0.695,-0.25 m 93.395,0.774 c -0.66,0.541 -1.47,0.999 -1.8,1.018 -0.365,0.02 -0.416,0.108 -0.13,0.225 0.501,0.204 3.317,-1.451 3.325,-1.955 0.007,-0.42 -0.049,-0.391 -1.395,0.712 m -88.862,1.882 c 0.254,0.162 19.542,0.294 42.862,0.294 23.32,0 42.608,-0.132 42.862,-0.294 0.254,-0.162 -19.034,-0.294 -42.862,-0.294 -23.828,0 -43.116,0.132 -42.862,0.294 m -102.462,1.446 c -0.508,0.143 18.628,0.26 42.524,0.26 23.896,0 43.032,-0.117 42.524,-0.26 -0.508,-0.143 -19.644,-0.26 -42.524,-0.26 -22.88,0 -42.016,0.117 -42.524,0.26 m -2.676,1.087 c -1.212,0.628 -3.897,3.01 -3.66,3.246 0.071,0.071 0.885,-0.592 1.811,-1.472 0.925,-0.881 1.934,-1.601 2.242,-1.601 0.308,0 0.671,-0.18 0.807,-0.4 0.326,-0.528 0.216,-0.507 -1.2,0.227 m 90,-0.002 c 0.66,0.371 1.516,0.951 1.902,1.289 0.387,0.338 0.781,0.536 0.876,0.441 0.227,-0.226 -2.149,-1.84 -3.178,-2.159 -0.44,-0.136 -0.26,0.057 0.4,0.429 m 3.488,2.875 c 0.337,0.385 0.897,1.24 1.246,1.9 0.349,0.66 0.641,0.972 0.65,0.694 0.021,-0.669 -1.684,-3.283 -2.146,-3.289 -0.199,-0.003 -0.087,0.31 0.25,0.695 M 170.1,227.087 c 0.605,0.091 1.595,0.091 2.2,0 0.605,-0.092 0.11,-0.167 -1.1,-0.167 -1.21,0 -1.705,0.075 -1.1,0.167 m -4.9,1.018 c -1.889,0.908 -6,4.696 -6,5.529 0,0.267 0.53,-0.245 1.177,-1.139 1.397,-1.928 3.936,-3.757 6.425,-4.628 0.989,-0.346 1.438,-0.628 0.998,-0.628 -0.44,0 -1.61,0.39 -2.6,0.866 m 14.466,2.195 c 0.918,0.825 2.178,2.3 2.801,3.278 1.135,1.782 1.561,1.845 0.586,0.087 -0.631,-1.139 -4.244,-4.865 -4.716,-4.865 -0.187,0 0.411,0.675 1.329,1.5 m -59.066,0.5 c -0.152,0.691 -0.193,1.341 -0.091,1.442 0.102,0.102 0.3,-0.389 0.441,-1.092 0.333,-1.667 0.01,-1.99 -0.35,-0.35 m 100.8,43 c 0,23.828 0.132,43.116 0.294,42.862 0.162,-0.254 0.294,-19.542 0.294,-42.862 0,-23.32 -0.132,-42.608 -0.294,-42.862 -0.162,-0.254 -0.294,19.034 -0.294,42.862 m -63.11,-38.3 c -0.347,0.78 -0.548,5.637 -0.69,16.672 -0.187,14.578 -0.243,15.529 -0.871,14.9 -1.064,-1.065 -1.37,-0.78 -0.341,0.316 1.55,1.649 1.612,1.085 1.612,-14.561 0,-12.218 0.112,-15.444 0.582,-16.777 0.656,-1.858 0.458,-2.232 -0.292,-0.55 m 25.322,0.5 c 0,0.33 0.175,0.87 0.388,1.2 0.345,0.533 0.388,0.533 0.388,0 0,-0.33 -0.175,-0.87 -0.388,-1.2 -0.345,-0.533 -0.388,-0.533 -0.388,0 m 0.881,17.3 c -0.051,8.305 0.056,15.1 0.239,15.1 0.183,0 1.909,-1.983 3.837,-4.406 5.174,-6.505 7.406,-7.802 13.386,-7.78 2.932,0.011 3.458,-0.065 2.4,-0.344 -5.71,-1.506 -10.502,0.989 -16.766,8.73 l -2.589,3.2 -0.207,-14.8 -0.208,-14.8 -0.092,15.1 m -46.693,2.569 c -1.942,0.427 -6.772,2.931 -5.655,2.931 0.183,0 0.809,-0.329 1.393,-0.73 2.129,-1.464 3.802,-1.87 7.645,-1.856 2.081,0.008 3.341,-0.109 2.8,-0.26 -1.094,-0.305 -4.943,-0.358 -6.183,-0.085 m 8.8,1.391 c 0.88,0.453 2.587,1.75 3.794,2.882 1.264,1.185 1.688,1.469 1,0.67 -2.101,-2.443 -4.893,-4.461 -6.078,-4.394 -0.174,0.009 0.404,0.388 1.284,0.842 m 59.4,-0.676 c 0,0.088 0.822,0.57 1.827,1.072 2.974,1.486 5.086,4.119 6.532,8.144 l 0.432,1.2 -0.244,-1.4 c -0.47,-2.705 -2.925,-6.031 -5.745,-7.786 -1.472,-0.916 -2.802,-1.5 -2.802,-1.23 m -75.81,3.931 c -0.77,0.91 -2.19,3.53 -2.172,4.008 0.009,0.262 0.39,-0.243 0.846,-1.123 0.455,-0.88 1.199,-2.005 1.652,-2.5 0.453,-0.495 0.657,-0.893 0.454,-0.885 -0.204,0.009 -0.555,0.234 -0.78,0.5 m -2.747,5.318 c -0.349,0.908 -0.3,6.884 0.057,7.105 0.165,0.102 0.3,-1.597 0.3,-3.776 0,-4.283 0.002,-4.265 -0.357,-3.329 m 87.471,3.567 c 0.003,1.1 0.081,1.503 0.173,0.895 0.092,-0.609 0.09,-1.509 -0.005,-2 -0.095,-0.492 -0.171,0.005 -0.168,1.105 m 102.486,2.157 c -0.88,0.134 1.64,0.248 5.6,0.253 4.248,0.006 6.38,-0.103 5.2,-0.265 -2.413,-0.332 -8.587,-0.325 -10.8,0.012 M 214.235,272.8 c -0.57,2.544 -3.736,6.831 -17.555,23.769 -1.992,2.44 -2.254,2.807 -2.267,3.17 -0.007,0.186 4.129,-4.854 9.192,-11.2 8.924,-11.186 11.437,-14.901 11.104,-16.413 -0.105,-0.476 -0.268,-0.244 -0.474,0.674 m 98.165,-0.4 -1,0.32 1,0.012 c 0.55,0.006 1.36,-0.143 1.8,-0.332 l 0.8,-0.344 -0.8,0.012 c -0.44,0.006 -1.25,0.156 -1.8,0.332 m 19.4,0 c 0.44,0.189 1.25,0.338 1.8,0.332 l 1,-0.012 -1,-0.32 c -0.55,-0.176 -1.36,-0.326 -1.8,-0.332 l -0.8,-0.012 0.8,0.344 m -22.8,0.8 -0.8,0.344 0.8,0.022 c 0.44,0.012 1.07,-0.153 1.4,-0.366 0.795,-0.514 -0.204,-0.514 -1.4,0 m 26.6,0 c 0.33,0.213 0.96,0.378 1.4,0.366 l 0.8,-0.022 -0.8,-0.344 c -1.196,-0.514 -2.195,-0.514 -1.4,0 m -29.2,0.8 c -0.533,0.345 -0.533,0.388 0,0.388 0.33,0 0.87,-0.175 1.2,-0.388 0.533,-0.345 0.533,-0.388 0,-0.388 -0.33,0 -0.87,0.175 -1.2,0.388 m 35.558,1.237 c 0.967,0.429 1.83,0.708 1.917,0.621 0.173,-0.172 -2.91,-1.476 -3.383,-1.43 -0.161,0.016 0.499,0.38 1.466,0.809 m -42.516,1.775 c -10.422,5.363 -20.352,15.951 -23.987,25.576 -0.576,1.525 0.196,0.276 2.001,-3.237 4.795,-9.334 12.713,-17.245 21.933,-21.914 3.275,-1.659 4.23,-2.237 3.693,-2.237 -0.065,0 -1.703,0.815 -3.64,1.812 M 128.8,275.902 c 0,0.176 2.385,3.298 5.3,6.938 2.915,3.639 5.928,7.414 6.694,8.389 0.767,0.974 1.667,2.116 2,2.537 0.89,1.126 3.434,3.773 2.723,2.834 -2.974,-3.93 -16.717,-20.946 -16.717,-20.698 m 215.6,0.292 c 0,0.093 0.675,0.483 1.5,0.868 4.754,2.217 12.134,7.959 15.5,12.06 1.1,1.34 2.169,2.445 2.375,2.457 0.384,0.022 -0.454,-0.975 -3.968,-4.717 -2.183,-2.324 -7.455,-6.561 -10.007,-8.042 -3.917,-2.273 -5.4,-2.994 -5.4,-2.626 m -11.284,3.366 c 1.709,0.449 2.192,0.912 5.725,5.495 1.627,2.111 3.769,4.868 4.759,6.128 0.99,1.259 2.197,2.813 2.683,3.453 0.486,0.64 1.171,1.524 1.522,1.964 l 0.639,0.8 -0.392,-0.8 c -0.215,-0.44 -1.577,-2.33 -3.025,-4.2 -1.449,-1.87 -3.885,-5.02 -5.415,-7 -4.565,-5.908 -4.461,-5.808 -6.212,-6.006 -1.527,-0.172 -1.54,-0.164 -0.284,0.166 m -2.906,1.22 c -0.53,1.025 -0.61,4.869 -0.61,29.224 0,21.096 -0.114,27.973 -0.462,27.758 -0.297,-0.184 -0.353,-0.109 -0.155,0.211 0.858,1.388 1.005,-2.377 1.106,-28.441 0.107,-27.133 0.141,-28.282 0.873,-29.09 0.419,-0.463 0.559,-0.842 0.31,-0.842 -0.248,0 -0.726,0.531 -1.062,1.18 m 4.792,10.095 c -0.106,0.289 -0.24,13.935 -0.297,30.325 l -0.105,29.8 -0.972,2 c -2.687,5.525 -8.616,9.982 -15.59,11.72 -1.451,0.361 -2.32,0.721 -1.932,0.799 4.182,0.841 14.893,-6.376 17.589,-11.852 l 1.305,-2.65 0.107,-29.976 0.108,-29.976 1.261,1.167 1.26,1.168 -0.886,-1.288 c -1.091,-1.583 -1.597,-1.922 -1.848,-1.237 m 29.246,1.625 c 0.162,0.275 0.695,1.04 1.183,1.7 0.488,0.66 1.803,2.91 2.922,5 2.236,4.173 2.781,4.643 0.8,0.689 -1.283,-2.562 -4.664,-7.889 -5.007,-7.889 -0.106,0 -0.06,0.225 0.102,0.5 m -26.19,1.8 c 0.32,0.385 1.382,1.78 2.361,3.1 0.978,1.32 1.88,2.49 2.003,2.6 0.406,0.362 2.665,5.375 2.974,6.6 0.166,0.66 0.384,0.978 0.484,0.708 0.53,-1.439 -6.628,-13.626 -8.042,-13.691 -0.199,-0.009 -0.1,0.298 0.22,0.683 M 146.4,298.221 c 0.33,0.425 1.121,1.315 1.758,1.976 1.081,1.123 1.072,1.09 -0.129,-0.491 -0.708,-0.932 -1.499,-1.822 -1.758,-1.977 -0.259,-0.156 -0.201,0.066 0.129,0.492 m 202,-0.245 c 0,0.207 0.165,0.478 0.366,0.603 0.201,0.124 0.868,1.507 1.483,3.074 0.614,1.567 1.181,2.658 1.259,2.424 0.077,-0.233 -0.488,-1.786 -1.258,-3.45 -1.291,-2.796 -1.85,-3.596 -1.85,-2.651 m -157.709,6.041 c -1.71,2.191 -2.97,3.977 -2.8,3.971 0.17,-0.007 0.939,-0.859 1.709,-1.893 1.489,-1.999 2.065,-2.728 3.5,-4.429 0.766,-0.908 1.154,-1.709 0.8,-1.649 -0.055,0.009 -1.499,1.809 -3.209,4 m -41.014,-1.701 c 1.861,2.547 11.93,14.79 12.557,15.267 0.421,0.32 0.213,-0.04 -0.464,-0.8 -0.676,-0.761 -3.711,-4.488 -6.745,-8.283 -3.034,-3.795 -5.596,-6.9 -5.693,-6.9 -0.098,0 0.058,0.322 0.345,0.716 m 220.735,0.925 c -0.007,0.133 0.402,1.393 0.908,2.8 0.506,1.408 1.151,3.639 1.433,4.959 0.282,1.32 0.678,3.155 0.88,4.077 1.465,6.694 -0.455,21.955 -3.505,27.86 -0.323,0.626 -0.494,1.23 -0.381,1.343 0.386,0.386 2.677,-5.86 3.405,-9.28 0.234,-1.1 0.61,-2.845 0.837,-3.877 0.226,-1.033 0.411,-4.688 0.411,-8.123 0,-3.435 -0.185,-7.09 -0.411,-8.123 -0.227,-1.032 -0.603,-2.777 -0.837,-3.877 -0.636,-2.989 -2.687,-8.799 -2.74,-7.759 m -18.744,2.159 c 0.006,0.44 0.156,1.25 0.332,1.8 l 0.32,1 0.012,-1 c 0.006,-0.55 -0.143,-1.36 -0.332,-1.8 l -0.344,-0.8 0.012,0.8 m -77.868,1.4 c -0.15,0.473 -0.183,0.95 -0.073,1.06 0.11,0.11 0.323,-0.187 0.473,-0.66 0.15,-0.473 0.183,-0.95 0.073,-1.06 -0.11,-0.11 -0.323,0.187 -0.473,0.66 m -89.582,5.5 c -1.688,2.145 -2.409,3.18 -1.602,2.3 1.743,-1.9 5.107,-6.2 4.851,-6.2 -0.099,0 -1.561,1.755 -3.249,3.9 m 88.811,-2.871 c -0.148,0.586 -0.178,1.155 -0.068,1.265 0.11,0.11 0.32,-0.279 0.468,-0.865 0.147,-0.587 0.177,-1.156 0.067,-1.266 -0.11,-0.11 -0.32,0.279 -0.467,0.866 M 346.305,317 c 0.086,4.84 0.218,8.98 0.294,9.2 0.284,0.825 0.142,-14.867 -0.148,-16.4 -0.167,-0.88 -0.232,2.36 -0.146,7.2 m 6.403,-0.996 c 0.263,9.214 0.05,10.886 -1.531,12.012 -1.332,0.949 -2.347,0.796 -3.641,-0.547 -0.508,-0.528 -0.765,-0.635 -0.654,-0.273 0.698,2.283 4.551,2.261 5.737,-0.032 0.635,-1.229 0.78,-15.007 0.182,-17.364 -0.167,-0.66 -0.209,2.132 -0.093,6.204 m -80.486,-2.982 c -0.15,0.803 -0.184,1.55 -0.074,1.66 0.11,0.11 0.324,-0.457 0.474,-1.26 0.151,-0.803 0.184,-1.549 0.074,-1.659 -0.11,-0.11 -0.323,0.456 -0.474,1.259 M 120.468,315.8 c -0.006,0.44 0.143,1.16 0.332,1.6 0.438,1.019 0.438,-0.032 0,-1.4 -0.257,-0.804 -0.323,-0.843 -0.332,-0.2 m 150.991,2.3 c -0.316,2.63 -0.275,7.474 0.086,10.1 0.166,1.216 0.281,-0.783 0.291,-5.1 0.018,-7.772 -0.006,-8.09 -0.377,-5 m -92.244,-0.484 c -0.762,0.651 -1.212,1.177 -1,1.168 0.212,-0.009 1.008,-0.549 1.77,-1.2 0.762,-0.651 1.212,-1.177 1,-1.168 -0.212,0.009 -1.008,0.549 -1.77,1.2 m 41.617,0.346 c -0.018,0.309 -0.491,1.164 -1.052,1.9 -0.562,0.736 -0.877,1.336 -0.7,1.333 0.518,-0.008 2.184,-2.812 1.975,-3.325 -0.124,-0.304 -0.203,-0.272 -0.223,0.092 m -99.061,1.479 c 0.717,1.511 2.87,3.454 4.913,4.433 1.436,0.688 3.79,0.726 44.516,0.726 h 43 l 1.775,-0.946 c 1.885,-1.005 3.15,-2.054 2.477,-2.054 -0.223,0 -0.518,0.183 -0.656,0.406 -0.137,0.223 -1.003,0.808 -1.923,1.3 L 214.2,324.2 h -43.028 -43.028 l -1.902,-0.979 c -1.804,-0.927 -2.725,-1.782 -4.351,-4.038 -0.708,-0.982 -0.708,-0.981 -0.12,0.258 m 48.129,1.248 c 0.715,0.089 1.885,0.089 2.6,0 0.715,-0.088 0.13,-0.161 -1.3,-0.161 -1.43,0 -2.015,0.073 -1.3,0.161 M 272.068,331.8 c 0.006,0.44 0.156,1.25 0.332,1.8 l 0.32,1 0.012,-1 c 0.006,-0.55 -0.143,-1.36 -0.332,-1.8 l -0.344,-0.8 0.012,0.8 m 44.639,3.29 c 0.719,0.089 1.799,0.087 2.4,-0.004 0.601,-0.091 0.013,-0.164 -1.307,-0.162 -1.32,0.002 -1.812,0.077 -1.093,0.166 m -43.873,0.51 c 0.012,0.33 0.177,0.96 0.366,1.4 l 0.344,0.8 0.022,-0.8 c 0.012,-0.44 -0.153,-1.07 -0.366,-1.4 -0.345,-0.533 -0.385,-0.533 -0.366,0 m 37.966,0.058 c -2.276,0.627 -4.832,1.643 -4.633,1.842 0.101,0.102 1.009,-0.13 2.016,-0.515 1.007,-0.384 2.863,-0.925 4.124,-1.201 1.463,-0.32 1.859,-0.504 1.093,-0.507 -0.66,-0.003 -1.83,0.169 -2.6,0.381 m 12.2,0.126 c 3.556,0.998 4.142,1.091 2.724,0.429 -0.702,-0.328 -2.052,-0.685 -3,-0.794 l -1.724,-0.197 2,0.562 m -18.2,2.108 c -2.149,0.821 -8.799,6.427 -8.8,7.418 0,0.171 1.035,-0.74 2.3,-2.024 2.284,-2.317 5.674,-4.886 6.448,-4.886 0.223,0 0.516,-0.18 0.652,-0.4 0.271,-0.438 0.267,-0.439 -0.6,-0.108 m -30.372,2.6 c -0.046,0.473 1.258,3.556 1.43,3.383 0.087,-0.087 -0.192,-0.95 -0.621,-1.917 -0.429,-0.967 -0.793,-1.627 -0.809,-1.466 m 1.863,4.608 c 0.653,1.719 3.656,6.758 4.39,7.367 0.353,0.293 -0.159,-0.727 -1.139,-2.267 -0.979,-1.54 -2.095,-3.475 -2.48,-4.3 -0.707,-1.516 -1.262,-2.092 -0.771,-0.8 m 18.209,2.932 c -3.223,7.271 2.072,16.196 10.3,17.361 1.307,0.185 1.285,0.159 -0.32,-0.378 -8.989,-3.009 -12.804,-9.806 -9.494,-16.915 0.537,-1.155 0.85,-2.1 0.696,-2.099 -0.155,0 -0.687,0.914 -1.182,2.031 m 70.972,3.41 c -1.28,1.892 -2.134,3.32 -1.898,3.174 0.69,-0.426 4.754,-6.62 4.34,-6.614 -0.063,0 -1.162,1.549 -2.442,3.44 m -83.443,2.958 c 1.045,1.629 9.164,9.74 9.457,9.447 0.109,-0.109 -0.496,-0.788 -1.344,-1.509 -2.087,-1.775 -5.204,-4.913 -7.291,-7.338 -1.229,-1.429 -1.464,-1.6 -0.822,-0.6 M 361,357.129 c -0.879,1.029 -2.53,2.681 -3.667,3.671 -1.137,0.99 -2.083,1.949 -2.1,2.131 -0.018,0.182 0.945,-0.505 2.141,-1.526 2.274,-1.944 6.128,-6.226 5.557,-6.176 -0.182,0.016 -1.051,0.871 -1.931,1.9 m -7.815,7.303 -1.385,1.231 1.288,-0.85 c 1.142,-0.754 2.005,-1.613 1.62,-1.613 -0.076,0 -0.761,0.554 -1.523,1.232 M 293,364.931 c 1.309,1.112 6.318,4.072 7.6,4.492 0.44,0.144 -0.809,-0.66 -2.776,-1.787 -1.967,-1.127 -3.857,-2.289 -4.2,-2.582 -0.343,-0.293 -0.894,-0.669 -1.224,-0.837 -0.33,-0.168 -0.06,0.154 0.6,0.714 m 15.5,1.103 c 1.265,0.186 3.335,0.186 4.6,0 2.023,-0.296 1.746,-0.336 -2.3,-0.336 -4.046,0 -4.323,0.04 -2.3,0.336 m 41.396,0.516 c -1.921,1.181 -2.458,1.739 -0.896,0.931 1.254,-0.648 2.945,-1.855 2.6,-1.856 -0.11,0 -0.877,0.416 -1.704,0.925 M 339,371.415 c -7.718,2.535 -18.083,3.496 -23.923,2.218 -0.922,-0.202 -2.757,-0.598 -4.077,-0.88 -1.32,-0.282 -3.551,-0.927 -4.959,-1.433 -2.648,-0.952 -3.478,-1.142 -2.441,-0.558 0.983,0.554 5.254,1.933 7.4,2.39 1.1,0.234 2.845,0.61 3.877,0.837 1.033,0.226 4.688,0.411 8.123,0.411 3.435,0 7.09,-0.185 8.123,-0.411 1.032,-0.227 2.777,-0.603 3.877,-0.837 3.079,-0.655 9.4,-2.913 9.4,-3.357 0,-0.107 -0.045,-0.171 -0.1,-0.141 -0.055,0.029 -2.44,0.822 -5.3,1.761"
       stroke="none"
       fill="#87a1de"
       fill-rule="evenodd" />
    <path
       id="path4"
       d="m 167.835,233.84 c -0.641,0.36 -1.541,1.048 -2,1.529 -2.097,2.198 -2.021,1.409 -2.235,23.27 -0.224,22.868 -0.09,21.892 -2.965,21.681 -1.605,-0.118 -1.748,-0.261 -7.713,-7.72 -7.711,-9.642 -9.447,-11.117 -12.522,-10.641 -3.916,0.607 -6.869,3.246 -6.757,6.041 0.03,0.768 0.135,0.639 0.45,-0.552 0.617,-2.332 3.012,-4.525 5.318,-4.871 3.608,-0.541 5.35,0.501 9.389,5.615 0.99,1.253 1.982,2.488 2.204,2.743 0.222,0.256 2.073,2.567 4.113,5.136 3.927,4.946 4.859,5.575 7.033,4.748 2.199,-0.836 2.25,-1.351 2.25,-22.826 0,-21.96 -0.115,-21.036 2.874,-23.201 3.203,-2.32 7.864,-1.175 9.889,2.428 0.818,1.456 0.837,1.936 0.837,21.492 v 20.003 l 1.16,1.243 c 1.658,1.775 2.945,1.656 4.993,-0.461 1.836,-1.899 2.445,-2.638 6.512,-7.896 5.941,-7.681 7.543,-9.001 10.925,-9.001 5.516,0 8.595,5.866 5.516,10.507 -0.793,1.196 -8.09,10.43 -15.877,20.093 -0.621,0.77 -2.096,2.6 -3.279,4.067 -1.182,1.467 -3.049,3.807 -4.148,5.2 -1.098,1.393 -2.226,2.774 -2.506,3.068 -0.279,0.294 -0.999,1.194 -1.6,2 -0.6,0.806 -1.191,1.555 -1.313,1.665 -0.122,0.11 -0.63,0.784 -1.128,1.498 -2.014,2.883 -6.271,4.131 -9.166,2.687 -1.337,-0.668 -3.159,-2.629 -6.183,-6.658 -0.602,-0.802 -1.322,-1.698 -1.6,-1.992 -0.278,-0.294 -0.981,-1.165 -1.561,-1.935 -0.58,-0.77 -1.39,-1.785 -1.8,-2.255 -0.41,-0.47 -1.285,-1.544 -1.945,-2.386 -0.66,-0.843 -5.167,-6.488 -10.015,-12.545 C 135.2,273.39 134.696,272.713 134.089,271 c -0.376,-1.061 -0.43,-1.092 -0.457,-0.272 -0.043,1.243 2.914,5.353 10.251,14.249 0.353,0.427 4.154,5.197 8.448,10.6 4.294,5.403 7.912,9.913 8.04,10.023 0.129,0.11 0.725,0.859 1.325,1.665 0.601,0.806 1.332,1.706 1.625,2 0.293,0.294 0.852,1.024 1.243,1.622 1.957,2.992 6.855,4.455 9.807,2.928 1.439,-0.744 22.115,-25.869 32.425,-39.402 4.701,-6.171 0.414,-13.499 -7.149,-12.221 -1.72,0.291 -3.679,1.904 -5.867,4.83 -0.649,0.868 -1.402,1.813 -1.673,2.1 -0.271,0.286 -2.4,2.941 -4.731,5.9 l -4.239,5.378 h -1.758 c -3.055,0 -2.975,0.593 -3.008,-22.28 -0.033,-22.236 0.116,-21.028 -2.901,-23.47 -1.855,-1.501 -5.679,-1.907 -7.635,-0.81 M 315.4,255.947 c -1.12,0.153 1.873,0.283 6.8,0.296 8.168,0.023 10.399,0.225 15,1.361 0.77,0.19 2.3,0.554 3.4,0.808 1.1,0.254 2.36,0.607 2.8,0.785 0.44,0.177 1.43,0.544 2.2,0.816 11.101,3.911 21.792,11.503 29.2,20.736 0.77,0.96 1.625,1.981 1.9,2.269 0.275,0.289 0.5,0.718 0.5,0.953 0,0.236 0.146,0.429 0.324,0.429 0.936,0 6.392,10.447 8.565,16.4 0.842,2.31 1.46,3.66 1.371,3 -0.55,-4.096 -8.462,-19.755 -11.015,-21.8 -0.137,-0.11 -0.723,-0.83 -1.301,-1.6 -2.74,-3.647 -9.61,-9.985 -14.207,-13.107 -3.807,-2.585 -5.897,-3.726 -11.937,-6.518 -3.263,-1.508 -9.598,-3.341 -15.2,-4.396 -2.81,-0.53 -15.498,-0.828 -18.4,-0.432 m -5,0.732 c -1.968,0.335 -7.413,1.779 -8.095,2.146 -0.382,0.206 -0.969,0.375 -1.305,0.375 -0.336,0 -0.923,0.159 -1.305,0.353 -0.382,0.195 -1.145,0.533 -1.695,0.752 -16.646,6.638 -31.057,21.049 -37.695,37.695 -0.219,0.55 -0.557,1.313 -0.752,1.695 -0.194,0.382 -0.353,0.969 -0.353,1.305 0,0.336 -0.169,0.923 -0.375,1.305 -0.206,0.382 -0.735,2.135 -1.176,3.895 -0.925,3.693 -1.47,7.659 -0.88,6.4 0.206,-0.44 0.387,-1.327 0.403,-1.972 0.015,-0.644 0.196,-1.724 0.401,-2.4 0.205,-0.675 0.586,-2.038 0.846,-3.028 0.529,-2.01 1.083,-3.752 1.621,-5.1 0.198,-0.495 0.519,-1.305 0.713,-1.8 6.457,-16.473 21.76,-31.799 37.447,-37.502 0.44,-0.16 1.25,-0.477 1.8,-0.704 1.377,-0.569 3.072,-1.115 5.2,-1.675 0.99,-0.26 2.353,-0.641 3.028,-0.846 0.676,-0.205 1.756,-0.386 2.4,-0.401 0.645,-0.016 1.532,-0.183 1.972,-0.372 0.912,-0.392 -0.237,-0.455 -2.2,-0.121 m 6.6,8.501 c -0.66,0.157 2.04,0.286 6,0.288 3.96,0.002 6.66,-0.127 6,-0.285 -1.55,-0.372 -10.437,-0.375 -12,-0.003 m -5.2,0.82 -0.8,0.344 0.8,0.005 c 0.44,0.003 1.52,-0.144 2.4,-0.326 l 1.6,-0.331 -1.6,-0.018 c -0.88,-0.01 -1.96,0.137 -2.4,0.326 m 22.6,0.576 c 2.31,0.497 4.695,1.04 5.3,1.207 0.605,0.167 1.1,0.207 1.1,0.089 0,-0.208 -2.149,-0.844 -6.106,-1.808 -1.048,-0.255 -2.488,-0.448 -3.2,-0.428 -0.721,0.02 0.565,0.436 2.906,0.94 m -28.329,0.819 c -2.535,0.805 -4.867,1.931 -2.671,1.29 6.305,-1.841 7.45,-2.227 6.6,-2.224 -0.55,0.002 -2.318,0.423 -3.929,0.934 M 341.6,268.4 c 0.33,0.213 0.87,0.388 1.2,0.388 0.533,0 0.533,-0.043 0,-0.388 -0.33,-0.213 -0.87,-0.388 -1.2,-0.388 -0.533,0 -0.533,0.043 0,0.388 m -40.4,0.69 c -12.365,4.669 -24.129,15.695 -30.42,28.51 -1.749,3.564 -2.26,5.02 -1.623,4.626 0.244,-0.15 0.443,-0.521 0.443,-0.823 0,-2.772 7.067,-13.28 12.793,-19.023 5.663,-5.679 16.225,-12.78 19.01,-12.78 0.302,0 0.661,-0.18 0.797,-0.4 0.267,-0.433 -0.053,-0.468 -1,-0.11 m 42.574,0.067 c 0.15,0.244 0.448,0.443 0.661,0.443 0.492,0 5.568,2.461 8.053,3.904 4.608,2.674 11.258,8.438 15.255,13.221 3.485,4.17 8.34,13.143 9.886,18.275 0.266,0.88 0.624,2.05 0.797,2.6 0.302,0.958 0.63,2.466 1.553,7.131 0.548,2.771 0.542,13.032 -0.009,16.423 -0.623,3.831 -1.791,8.551 -2.409,9.741 -0.199,0.382 -0.361,0.969 -0.361,1.305 0,0.336 -0.162,0.923 -0.359,1.305 -0.198,0.382 -1.132,2.315 -2.075,4.295 -5.669,11.897 -15.033,21.264 -26.966,26.973 -5.313,2.542 -5.696,2.677 -12.4,4.364 -5.123,1.289 -16.139,1.738 -20.669,0.842 -4.665,-0.923 -6.173,-1.251 -7.131,-1.553 -0.55,-0.173 -1.72,-0.531 -2.6,-0.797 -5.17,-1.558 -14.278,-6.496 -18.268,-9.904 -3.166,-2.704 -6.876,-6.44 -8.439,-8.498 -0.93,-1.225 -1.79,-2.317 -1.911,-2.427 -1.196,-1.086 -5.79,-9.327 -6.776,-12.155 -0.225,-0.646 -0.525,-1.059 -0.666,-0.918 -0.735,0.735 5.295,11.255 9.212,16.073 6.676,8.21 18.625,16.256 27.648,18.617 0.66,0.172 2.19,0.579 3.4,0.903 26.871,7.202 57.53,-8.555 67.558,-34.72 0.506,-1.32 1.058,-2.76 1.226,-3.2 7.985,-20.906 0.118,-48.264 -18.184,-63.238 -5.207,-4.259 -17.29,-11.049 -16.026,-9.005 m -76.349,36.922 c -0.564,1.849 -1.009,3.713 -0.989,4.142 0.02,0.428 0.208,0.149 0.418,-0.621 0.21,-0.77 0.743,-2.546 1.184,-3.946 0.441,-1.401 0.715,-2.634 0.608,-2.742 -0.107,-0.107 -0.657,1.318 -1.221,3.167 M 387.6,305.316 c 0,0.089 0.381,1.855 0.847,3.923 1.646,7.317 1.502,20.707 -0.309,28.708 -0.318,1.401 -0.487,2.637 -0.377,2.747 0.11,0.11 0.308,-0.316 0.439,-0.947 0.132,-0.631 0.396,-1.777 0.587,-2.547 1.542,-6.22 1.841,-18.9 0.6,-25.4 -0.379,-1.98 -0.775,-4.187 -0.882,-4.904 -0.151,-1.016 -0.905,-2.333 -0.905,-1.58 M 265.889,312 c -0.153,0.55 -0.261,1.63 -0.24,2.4 0.037,1.346 0.052,1.331 0.398,-0.4 0.404,-2.023 0.281,-3.577 -0.158,-2 m -10.108,5.5 c -1.145,15.227 2.899,30.795 11.145,42.9 3.362,4.936 9.881,12.078 13.447,14.733 0.785,0.584 1.517,1.175 1.627,1.312 2.045,2.553 17.704,10.465 21.8,11.015 0.66,0.089 -0.69,-0.529 -3,-1.371 -5.953,-2.173 -16.4,-7.629 -16.4,-8.565 0,-0.178 -0.193,-0.324 -0.429,-0.324 -0.235,0 -0.664,-0.225 -0.953,-0.5 -0.288,-0.275 -1.309,-1.13 -2.269,-1.9 -9.18,-7.365 -16.847,-18.163 -20.736,-29.2 -0.272,-0.77 -0.639,-1.76 -0.816,-2.2 -0.178,-0.44 -0.531,-1.7 -0.785,-2.8 -0.254,-1.1 -0.618,-2.63 -0.808,-3.4 -1.147,-4.644 -1.336,-6.771 -1.325,-14.9 0.012,-9.696 -0.07,-10.49 -0.498,-4.8 m 9.276,0 c -0.328,1.981 -0.24,9.976 0.126,11.5 0.158,0.66 0.299,-1.995 0.313,-5.9 0.025,-7.403 -0.028,-8.087 -0.439,-5.6 m 0.579,13.994 c -0.02,0.712 0.173,2.152 0.428,3.2 0.964,3.957 1.6,6.106 1.808,6.106 0.118,0 0.078,-0.495 -0.089,-1.1 -0.167,-0.605 -0.71,-2.99 -1.207,-5.3 -0.504,-2.341 -0.92,-3.627 -0.94,-2.906 m 2.376,10.106 c 0,0.33 0.175,0.87 0.388,1.2 0.345,0.533 0.388,0.533 0.388,0 0,-0.33 -0.175,-0.87 -0.388,-1.2 -0.345,-0.533 -0.388,-0.533 -0.388,0 m 118.199,3.072 c -6.468,19.049 -21.838,34.459 -41.411,41.518 -2.09,0.753 -3.493,1.379 -3.119,1.39 0.375,0.011 1.095,-0.145 1.6,-0.346 0.506,-0.201 2.449,-0.953 4.319,-1.671 16.549,-6.355 31.25,-20.899 37.769,-37.363 1.596,-4.033 2.299,-6.197 2.153,-6.634 -0.07,-0.21 -0.66,1.188 -1.311,3.106 m -80.844,43.274 c 0.117,0.19 0.983,0.474 1.923,0.63 0.941,0.156 2.61,0.45 3.71,0.653 7.837,1.449 19.359,1.254 26.2,-0.442 0.77,-0.191 1.916,-0.455 2.547,-0.587 0.631,-0.131 1.057,-0.329 0.947,-0.439 -0.11,-0.11 -1.346,0.059 -2.747,0.377 -8.001,1.811 -21.391,1.955 -28.708,0.309 -4.333,-0.976 -4.151,-0.952 -3.872,-0.501"
       stroke="none"
       fill="#589bd4"
       fill-rule="evenodd" />
    <path
       id="path5"
       d="m 168.18,28.563 c -1.572,0.684 -3.222,2.624 -17.393,20.437 -6.476,8.14 -11.871,14.89 -11.989,15 -5.517,5.128 -6.565,11.026 -2.547,14.337 4.824,3.977 7.703,2.395 16.749,-9.209 5.477,-7.025 6.895,-8.252 8.726,-7.556 2.321,0.882 2.274,0.432 2.274,21.868 0,21.756 -0.04,21.388 2.573,23.682 3.3,2.898 8.786,1.873 10.927,-2.043 0.633,-1.156 0.719,-3.247 0.9,-21.765 0.224,-22.913 0.079,-21.874 3.043,-21.874 1.485,0 2.283,0.653 4.871,3.984 11.543,14.853 12.889,15.906 17.898,13.993 5.484,-2.095 5.672,-7.569 0.477,-13.907 C 203.32,63.839 196.273,55.063 189.028,46.007 173.812,26.988 173.122,26.41 168.18,28.563 m 97.887,105.917 c -4.804,2.328 -5.166,8.82 -0.687,12.32 0.704,0.55 1.986,1.575 2.85,2.279 0.863,0.703 3.93,3.162 6.814,5.465 2.884,2.302 5.359,4.487 5.5,4.854 0.506,1.32 0.239,2.656 -0.726,3.62 L 278.836,164 h -20.034 c -19.15,0 -20.102,0.035 -21.58,0.789 -3.811,1.944 -5.038,6.658 -2.673,10.269 0.895,1.367 2.251,2.418 2.251,1.745 0,-0.221 -0.177,-0.403 -0.394,-0.403 -2.328,0 -3.285,-6.687 -1.306,-9.132 2.386,-2.948 1.2,-2.805 23.7,-2.848 22.251,-0.042 21.209,0.076 22.314,-2.52 0.765,-1.796 0.046,-3.066 -3.114,-5.495 -0.99,-0.762 -1.89,-1.496 -2,-1.632 -0.11,-0.136 -1.019,-0.867 -2.02,-1.626 -9.955,-7.54 -11.18,-8.897 -11.18,-12.395 0,-6.39 6.938,-8.847 12.002,-4.25 0.549,0.498 1.807,1.534 2.797,2.302 1.839,1.427 2.724,2.138 3.981,3.196 0.393,0.33 1.301,1.05 2.02,1.6 0.719,0.55 1.688,1.335 2.153,1.745 0.466,0.41 1.477,1.219 2.247,1.798 0.77,0.579 1.49,1.148 1.6,1.265 0.11,0.117 1.009,0.838 1.999,1.602 1.73,1.337 3.211,2.545 4.154,3.39 0.246,0.22 1.077,0.875 1.847,1.455 0.77,0.58 1.781,1.39 2.247,1.8 0.465,0.41 1.434,1.195 2.153,1.745 0.719,0.55 1.627,1.27 2.02,1.6 1.524,1.283 2.263,1.874 4.58,3.663 2.93,2.263 4.42,3.838 4.792,5.067 0.154,0.512 0.379,0.832 0.498,0.713 0.89,-0.89 -1.496,-3.213 -11.838,-11.526 -6.079,-4.885 -14.673,-11.804 -19.098,-15.374 -11.905,-9.606 -12.811,-10.039 -16.887,-8.063 m 45.216,41.821 c -0.724,0.77 -1.264,1.451 -1.2,1.515 0.148,0.146 1.938,-1.418 2.666,-2.329 0.984,-1.232 -0.115,-0.621 -1.466,0.814 m -51.825,2.092 c 18.609,0.196 19.704,0.248 20.5,0.969 1.327,1.201 1.128,3.21 -0.458,4.611 -4.301,3.798 -4.741,4.443 -0.975,1.43 2.523,-2.019 3.303,-3.488 2.666,-5.025 -1.013,-2.444 -0.466,-2.387 -21.877,-2.285 l -19.514,0.092 19.658,0.208 m 49.318,0.12 c -2.293,1.79 -2.879,2.317 -2.737,2.46 0.089,0.089 0.972,-0.539 1.961,-1.394 1.665,-1.438 2.207,-2.184 0.776,-1.066 m -6.84,5.387 c -1.835,1.485 -3.577,2.928 -3.871,3.206 -0.294,0.278 -1.194,0.998 -2,1.6 -1.803,1.347 -2.608,2.094 -2.253,2.094 0.148,0 1.646,-1.1 3.328,-2.445 1.683,-1.345 3.773,-3.01 4.643,-3.7 2.321,-1.839 4.055,-3.43 3.753,-3.443 -0.145,-0.007 -1.765,1.203 -3.6,2.688 m -28.736,5.37 c -0.99,0.883 -1.26,1.231 -0.6,0.774 2.01,-1.393 2.75,-2.028 2.57,-2.207 -0.094,-0.094 -0.981,0.551 -1.97,1.433 m -5.897,4.574 c -4.158,3.354 -5.017,4.649 -5.017,7.566 0,3.384 2.837,7.052 5.394,6.974 0.286,-0.009 -0.174,-0.362 -1.021,-0.785 -2.936,-1.466 -3.859,-2.965 -3.859,-6.266 0,-3.175 0.888,-4.259 7.895,-9.629 0.355,-0.273 0.569,-0.573 0.475,-0.668 -0.095,-0.094 -1.835,1.17 -3.867,2.808 m 24.497,-1.74 c -0.66,0.483 -1.441,1.11 -1.735,1.393 -0.294,0.283 -1.194,1.006 -2,1.607 -0.806,0.6 -1.555,1.188 -1.665,1.307 -0.11,0.119 -2.9,2.359 -6.2,4.978 -3.3,2.62 -6.06,4.909 -6.133,5.087 -0.074,0.178 -0.389,0.324 -0.7,0.324 -0.312,0 -0.567,0.18 -0.567,0.4 0,0.22 -0.349,0.4 -0.776,0.4 -0.427,0 -0.9,0.199 -1.05,0.443 -0.288,0.465 1.242,0.139 2.026,-0.432 1.627,-1.185 20.2,-16.128 20.2,-16.252 0,-0.254 -0.132,-0.183 -1.4,0.745"
       stroke="none"
       fill="#ca95b1"
       fill-rule="evenodd" />
    <path
       id="path6"
       d="m 170.433,27.344 c 0.092,0.079 0.707,0.264 1.367,0.412 0.876,0.196 1.038,0.159 0.6,-0.138 -0.54,-0.365 -2.368,-0.62 -1.967,-0.274 m 51.76,41.256 c 0,22.44 0.048,31.561 0.107,20.269 0.059,-11.291 0.059,-29.651 0,-40.8 -0.059,-11.148 -0.107,-1.909 -0.107,20.531 M 184,30.4 c 0.697,0.88 1.357,1.6 1.467,1.6 0.11,0 -0.37,-0.72 -1.067,-1.6 -0.697,-0.88 -1.357,-1.6 -1.467,-1.6 -0.11,0 0.37,0.72 1.067,1.6 M 178.585,83 c 0,10.56 0.052,14.823 0.115,9.472 0.063,-5.35 0.063,-13.99 0,-19.2 -0.064,-5.209 -0.115,-0.832 -0.115,9.728 M 133.324,73 c 0.002,1.32 0.077,1.812 0.166,1.093 0.089,-0.719 0.087,-1.799 -0.004,-2.4 -0.091,-0.601 -0.164,-0.013 -0.162,1.307 m 81.19,0 c 0.003,1.1 0.081,1.503 0.173,0.895 0.092,-0.609 0.09,-1.509 -0.005,-2 -0.095,-0.492 -0.171,0.005 -0.168,1.105 m -58.144,1.3 -0.97,1.1 1.03,-0.904 c 0.566,-0.497 1.18,-0.767 1.364,-0.6 0.184,0.167 0.205,0.079 0.047,-0.196 -0.379,-0.658 -0.353,-0.669 -1.471,0.6 M 184.181,89 c 0,8.36 0.053,11.837 0.118,7.726 0.065,-4.11 0.065,-10.95 0.001,-15.2 -0.065,-4.249 -0.118,-0.886 -0.119,7.474 M 201.6,80.4 c -1.384,0.291 -1.386,0.295 -0.2,0.341 0.66,0.026 1.47,-0.128 1.8,-0.341 0.666,-0.43 0.445,-0.43 -1.6,0 m -61.5,0.276 c 0.385,0.1 1.015,0.1 1.4,0 0.385,-0.101 0.07,-0.183 -0.7,-0.183 -0.77,0 -1.085,0.082 -0.7,0.183 m -1.8,5.206 c 0.495,0.096 1.305,0.096 1.8,0 0.495,-0.095 0.09,-0.173 -0.9,-0.173 -0.99,0 -1.395,0.078 -0.9,0.173 m 3.4,-0.006 c 0.385,0.1 1.015,0.1 1.4,0 0.385,-0.101 0.07,-0.183 -0.7,-0.183 -0.77,0 -1.085,0.082 -0.7,0.183 m 58.211,0.017 c 0.94,0.085 2.38,0.084 3.2,-0.002 0.819,-0.086 0.049,-0.155 -1.711,-0.154 -1.76,0.002 -2.43,0.072 -1.489,0.156 M 171.2,109.2 l -1.4,0.295 1.276,0.052 c 0.702,0.029 1.388,-0.127 1.524,-0.347 0.136,-0.22 0.192,-0.376 0.124,-0.347 -0.068,0.029 -0.754,0.185 -1.524,0.347 m 58.8,11.206 c -0.422,0.276 -0.185,0.317 0.8,0.136 1.725,-0.317 2.051,-0.544 0.767,-0.536 -0.532,0.003 -1.237,0.183 -1.567,0.4 m 85.233,-0.263 c 0.092,0.078 0.797,0.258 1.567,0.399 0.985,0.181 1.222,0.14 0.8,-0.136 -0.542,-0.356 -2.763,-0.603 -2.367,-0.263 m -198.795,3.234 c 0.35,0.453 0.935,1.268 1.3,1.812 0.364,0.544 0.662,0.799 0.662,0.567 0,-0.233 -0.585,-1.048 -1.3,-1.813 -0.715,-0.764 -1.013,-1.019 -0.662,-0.566 M 222.593,171.2 c 0,23.21 0.048,32.705 0.107,21.1 0.059,-11.605 0.059,-30.595 0,-42.2 -0.059,-11.605 -0.107,-2.11 -0.107,21.1 m 102.305,-0.333 c -0.054,23.027 -0.202,42.197 -0.328,42.6 -0.207,0.657 -0.186,0.664 0.202,0.065 0.304,-0.47 0.401,-13.085 0.328,-42.6 L 324.996,129 324.898,170.867 M 72.305,133.483 c 0.497,0.096 1.217,0.092 1.6,-0.008 0.382,-0.1 -0.025,-0.179 -0.905,-0.174 -0.88,0.004 -1.193,0.086 -0.695,0.182 m 2.928,0.238 c 0.092,0.067 0.707,0.437 1.367,0.824 l 1.2,0.702 -0.944,-0.823 c -0.52,-0.453 -1.135,-0.824 -1.367,-0.824 -0.232,0 -0.347,0.054 -0.256,0.121 m 10.476,5.479 c 0,0.99 0.078,1.395 0.173,0.9 0.096,-0.495 0.096,-1.305 0,-1.8 -0.095,-0.495 -0.173,-0.09 -0.173,0.9 m -0.016,3.2 c 0,0.77 0.082,1.085 0.183,0.7 0.1,-0.385 0.1,-1.015 0,-1.4 -0.101,-0.385 -0.183,-0.07 -0.183,0.7 m -24,18.4 c 0,0.77 0.082,1.085 0.183,0.7 0.1,-0.385 0.1,-1.015 0,-1.4 -0.101,-0.385 -0.183,-0.07 -0.183,0.7 m 2.044,2.894 c 0.255,0.162 9.193,0.257 19.863,0.212 10.67,-0.045 16.97,-0.131 14,-0.192 -13.425,-0.274 -34.282,-0.286 -33.863,-0.02 M 320.124,171 c 0.002,1.32 0.077,1.812 0.166,1.093 0.089,-0.719 0.087,-1.799 -0.004,-2.4 -0.091,-0.601 -0.164,-0.013 -0.162,1.307 m -292.423,0 c 0.004,0.88 0.086,1.193 0.182,0.695 0.096,-0.497 0.092,-1.217 -0.008,-1.6 -0.1,-0.382 -0.179,0.025 -0.174,0.905 m 199.608,0.2 c 0,0.99 0.078,1.395 0.173,0.9 0.096,-0.495 0.096,-1.305 0,-1.8 -0.095,-0.495 -0.173,-0.09 -0.173,0.9 m 22.219,7.5 c 5.35,0.063 13.99,0.063 19.2,0 5.209,-0.064 0.832,-0.115 -9.728,-0.115 -10.56,0 -14.823,0.052 -9.472,0.115 m 66.647,1.8 -1.175,1.3 1.3,-1.175 c 0.715,-0.646 1.3,-1.231 1.3,-1.3 0,-0.309 -0.33,-0.037 -1.425,1.175 m -254.474,0.9 c 0.004,0.88 0.086,1.193 0.182,0.695 0.096,-0.497 0.092,-1.217 -0.008,-1.6 -0.1,-0.382 -0.179,0.025 -0.174,0.905 m -32.757,1.709 c 0.316,0.512 2.656,2.244 2.656,1.966 0,-0.099 -0.661,-0.684 -1.468,-1.3 -0.808,-0.616 -1.343,-0.916 -1.188,-0.666 m 9.456,0.224 c 0,0.11 0.72,0.77 1.6,1.467 0.88,0.697 1.6,1.177 1.6,1.067 0,-0.11 -0.72,-0.77 -1.6,-1.467 -0.88,-0.697 -1.6,-1.177 -1.6,-1.067 m 43.126,0.967 c 4.25,0.064 11.09,0.064 15.2,-0.001 4.111,-0.065 0.634,-0.118 -7.726,-0.118 -8.36,10e-4 -11.723,0.054 -7.474,0.119 m 164.4,0 c 4.25,0.064 11.09,0.064 15.2,-0.001 4.111,-0.065 0.634,-0.118 -7.726,-0.118 -8.36,10e-4 -11.723,0.054 -7.474,0.119 m 20.874,2.16 c -0.77,0.675 -1.038,1.045 -0.596,0.821 0.731,-0.37 2.543,-2.103 2.158,-2.065 -0.089,0.009 -0.792,0.569 -1.562,1.244 M 85.701,199.8 c 0.004,0.88 0.086,1.193 0.182,0.695 0.096,-0.497 0.092,-1.217 -0.008,-1.6 -0.1,-0.382 -0.179,0.025 -0.174,0.905 m 0,3.2 c 0.004,0.88 0.086,1.193 0.182,0.695 0.096,-0.497 0.092,-1.217 -0.008,-1.6 -0.1,-0.382 -0.179,0.025 -0.174,0.905 m -7.926,3.9 -1.175,1.3 1.3,-1.175 c 1.212,-1.095 1.484,-1.425 1.175,-1.425 -0.069,0 -0.654,0.585 -1.3,1.3 m -5.475,7.782 c 0.495,0.096 1.305,0.096 1.8,0 0.495,-0.095 0.09,-0.173 -0.9,-0.173 -0.99,0 -1.395,0.078 -0.9,0.173 m 196,0 c 0.495,0.096 1.305,0.096 1.8,0 0.495,-0.095 0.09,-0.173 -0.9,-0.173 -0.99,0 -1.395,0.078 -0.9,0.173 m -42.612,4.331 c 0.598,0.63 1.159,1.064 1.247,0.966 0.088,-0.099 -0.402,-0.614 -1.088,-1.145 l -1.247,-0.965 1.088,1.144 m 95.687,0.287 -1.175,1.3 1.3,-1.175 c 0.715,-0.646 1.3,-1.231 1.3,-1.3 0,-0.309 -0.33,-0.037 -1.425,1.175 m -273.475,3 c 11.275,0.059 29.725,0.059 41,0 11.275,-0.059 2.05,-0.107 -20.5,-0.107 -22.55,0 -31.775,0.048 -20.5,0.107 m 205.631,0 c 11.291,0.059 29.651,0.059 40.8,0 11.148,-0.059 1.909,-0.107 -20.531,-0.107 -22.44,0 -31.561,0.048 -20.269,0.107 M 150.1,222.7 c 11.605,0.059 30.595,0.059 42.2,0 11.605,-0.059 2.11,-0.107 -21.1,-0.107 -23.21,0 -32.705,0.048 -21.1,0.107 m 68.734,3.147 c 0.531,0.686 1.046,1.176 1.145,1.088 0.098,-0.088 -0.336,-0.649 -0.966,-1.247 l -1.144,-1.088 0.965,1.247 m -48.534,1.635 c 0.495,0.096 1.305,0.096 1.8,0 0.495,-0.095 0.09,-0.173 -0.9,-0.173 -0.99,0 -1.395,0.078 -0.9,0.173 m -50.051,2.733 c -0.137,0.358 -0.231,1.041 -0.208,1.518 0.026,0.548 0.162,0.353 0.369,-0.53 0.35,-1.487 0.255,-2.07 -0.161,-0.988 M 222.193,273.8 c 0,22.44 0.048,31.561 0.107,20.269 0.059,-11.291 0.059,-29.651 0,-40.8 -0.059,-11.148 -0.107,-1.909 -0.107,20.531 m -38.012,-20.4 c 0,8.36 0.053,11.837 0.118,7.726 0.065,-4.11 0.065,-10.95 0.001,-15.2 -0.065,-4.249 -0.118,-0.886 -0.119,7.474 m 30.328,15.8 c 0,0.99 0.078,1.395 0.173,0.9 0.096,-0.495 0.096,-1.305 0,-1.8 -0.095,-0.495 -0.173,-0.09 -0.173,0.9 m 106.207,1.897 c 1.383,0.078 3.543,0.077 4.8,-0.002 1.256,-0.079 0.124,-0.143 -2.516,-0.142 -2.64,0 -3.668,0.065 -2.284,0.144 m -8.316,0.921 c -0.438,0.297 -0.276,0.334 0.6,0.138 1.471,-0.329 1.79,-0.558 0.767,-0.55 -0.422,0.003 -1.037,0.189 -1.367,0.412 m 19.233,-0.274 c 0.092,0.079 0.707,0.264 1.367,0.412 0.876,0.196 1.038,0.159 0.6,-0.138 -0.54,-0.365 -2.368,-0.62 -1.967,-0.274 m -1.376,10.956 c -0.137,0.825 -0.25,13.695 -0.253,28.6 -0.004,28.04 -0.01,28.134 -1.517,26.627 -0.261,-0.261 -0.59,-0.357 -0.732,-0.215 -0.142,0.142 0.22,0.476 0.804,0.742 0.721,0.329 1.194,0.353 1.47,0.077 0.313,-0.313 0.834,-57.331 0.523,-57.331 -0.026,0 -0.159,0.675 -0.295,1.5 m 7.683,2.016 c 0.493,0.693 1.104,1.388 1.357,1.544 0.253,0.157 0.057,-0.283 -0.437,-0.976 -0.493,-0.693 -1.104,-1.388 -1.357,-1.544 -0.253,-0.157 -0.057,0.283 0.437,0.976 m 22.46,2.609 c 0,0.069 0.585,0.654 1.3,1.3 l 1.3,1.175 -1.175,-1.3 c -1.095,-1.212 -1.425,-1.484 -1.425,-1.175 m -25.994,3.064 c -0.266,0.496 -0.39,11.175 -0.36,30.885 0.026,17.05 0.19,29.432 0.377,28.526 0.182,-0.88 0.341,-14.605 0.354,-30.5 0.016,-19.867 0.154,-28.9 0.442,-28.9 0.231,0 0.874,0.495 1.429,1.1 l 1.01,1.1 -0.89,-1.281 c -1.122,-1.614 -1.844,-1.898 -2.362,-0.93 m 8.887,1.211 c 0.275,0.44 0.638,0.8 0.807,0.8 0.169,0 0.082,-0.36 -0.193,-0.8 -0.275,-0.44 -0.638,-0.8 -0.807,-0.8 -0.169,0 -0.082,0.36 0.193,0.8 m 2.355,2.9 c 0.262,0.495 0.881,1.44 1.374,2.1 1.274,1.703 2.578,4.125 2.578,4.789 0,0.31 0.163,0.665 0.363,0.788 1.026,0.634 -0.483,-2.563 -2.998,-6.35 -1.511,-2.276 -2.171,-2.941 -1.317,-1.327 m 5.598,11.5 c -0.019,0.55 0.141,1.27 0.354,1.6 0.494,0.764 0.494,-0.058 0,-1.6 l -0.32,-1 -0.034,1 m -4.537,9.738 c 0.163,10.309 0.343,11.071 0.421,1.786 0.039,-4.552 -0.065,-8.36 -0.23,-8.463 -0.165,-0.102 -0.251,2.902 -0.191,6.677 m 5.461,2.462 c 10e-4,4.84 0.059,6.765 0.129,4.278 0.07,-2.487 0.07,-6.447 -10e-4,-8.8 -0.07,-2.353 -0.128,-0.318 -0.128,4.522 m -232.164,-2.167 c 0.003,0.532 0.183,1.237 0.4,1.567 0.276,0.422 0.317,0.185 0.136,-0.8 -0.317,-1.725 -0.544,-2.051 -0.536,-0.767 m 60.169,0.467 -1.175,1.3 1.3,-1.175 c 1.212,-1.095 1.484,-1.425 1.175,-1.425 -0.069,0 -0.654,0.585 -1.3,1.3 m 90.779,6.3 c 0,2.75 0.064,3.875 0.142,2.5 0.078,-1.375 0.078,-3.625 0,-5 -0.078,-1.375 -0.142,-0.25 -0.142,2.5 m -101.047,-2.51 c 0.719,0.089 1.799,0.087 2.4,-0.004 0.601,-0.091 0.013,-0.164 -1.307,-0.162 -1.32,0.002 -1.812,0.077 -1.093,0.166 m 49.068,1.41 -1.175,1.3 1.3,-1.175 c 0.715,-0.646 1.3,-1.231 1.3,-1.3 0,-0.309 -0.33,-0.037 -1.425,1.175 m 155.926,1.3 c 0.004,0.88 0.086,1.193 0.182,0.695 0.096,-0.497 0.092,-1.217 -0.008,-1.6 -0.1,-0.382 -0.179,0.025 -0.174,0.905 m -203.701,1.8 -42.2,0.206 42,0.091 c 26.597,0.057 42.22,-0.051 42.6,-0.297 0.33,-0.213 0.42,-0.347 0.2,-0.297 -0.22,0.05 -19.39,0.184 -42.6,0.297 m 100.406,7.433 c 0.003,0.422 0.189,1.037 0.412,1.367 0.297,0.438 0.334,0.276 0.138,-0.6 -0.329,-1.471 -0.558,-1.79 -0.55,-0.767 m 44.894,3.254 c 0.605,0.091 1.595,0.091 2.2,0 0.605,-0.092 0.11,-0.167 -1.1,-0.167 -1.21,0 -1.705,0.075 -1.1,0.167 m -4.1,0.374 c -1.402,0.213 -4.139,1.026 -4.513,1.341 -0.171,0.145 0.236,0.183 0.905,0.084 0.67,-0.098 1.316,-0.337 1.437,-0.532 0.12,-0.195 0.793,-0.372 1.495,-0.394 0.702,-0.022 1.726,-0.184 2.276,-0.36 1.105,-0.354 0.284,-0.425 -1.6,-0.139 m 9.2,0.118 c 0.33,0.225 1.125,0.412 1.767,0.415 1.537,0.008 1.217,-0.224 -0.767,-0.556 -1.146,-0.192 -1.43,-0.152 -1,0.141 m 3.2,0.652 c 0,0.27 2.078,1.025 2.276,0.826 0.091,-0.09 -0.384,-0.356 -1.056,-0.59 -0.671,-0.234 -1.22,-0.34 -1.22,-0.236 m -21.7,2.798 c -2.068,1.354 -1.897,1.629 0.2,0.322 2.017,-1.256 2.145,-1.358 1.667,-1.327 -0.202,0.012 -1.042,0.465 -1.867,1.005 m -4.457,3.614 c -1.231,1.262 -2.179,2.355 -2.105,2.429 0.074,0.073 1.154,-0.886 2.401,-2.133 1.247,-1.247 2.194,-2.339 2.105,-2.428 -0.088,-0.089 -1.169,0.871 -2.401,2.132 m 32.98,12.457 c -0.732,1.045 -0.992,1.597 -0.577,1.227 0.725,-0.647 2.353,-3.127 2.054,-3.127 -0.08,0 -0.745,0.855 -1.477,1.9 m -47.423,2.1 c 0.859,0.88 1.652,1.6 1.762,1.6 0.11,0 -0.503,-0.72 -1.362,-1.6 -0.859,-0.88 -1.652,-1.6 -1.762,-1.6 -0.11,0 0.503,0.72 1.362,1.6 m 75.187,2.1 -2.387,2.5 2.5,-2.387 c 1.375,-1.314 2.5,-2.439 2.5,-2.5 0,-0.296 -0.395,0.065 -2.613,2.387 m -72.187,0.825 c 0,0.069 0.585,0.654 1.3,1.3 l 1.3,1.175 -1.175,-1.3 c -1.095,-1.212 -1.425,-1.484 -1.425,-1.175 m 13.2,2.642 c 0.55,0.448 1.255,0.819 1.567,0.824 0.727,0.012 0.545,-0.139 -1.167,-0.964 l -1.4,-0.675 1,0.815 m 19.4,0.635 -1.2,0.565 1.2,-0.235 c 0.66,-0.129 1.371,-0.392 1.58,-0.584 0.57,-0.522 -0.193,-0.4 -1.58,0.254 m -15,1.068 c 2.404,0.77 9.118,0.852 11.6,0.142 1.437,-0.41 1.645,-0.528 0.6,-0.338 -1.919,0.348 -10.23,0.345 -12.2,-0.004 l -1.4,-0.248 1.4,0.448 m 17.505,10.213 c 0.497,0.096 1.217,0.092 1.6,-0.008 0.382,-0.1 -0.025,-0.179 -0.905,-0.174 -0.88,0.004 -1.193,0.086 -0.695,0.182"
       stroke="none"
       fill="#607ece"
       fill-rule="evenodd" />
    <path
       id="path7"
       d="m 150.331,17.5 c 11.511,0.059 30.231,0.059 41.6,0 11.368,-0.059 1.949,-0.107 -20.931,-0.107 -22.88,0 -32.181,0.048 -20.669,0.107 m -30.138,50.9 c 0,22.99 0.048,32.395 0.107,20.9 0.059,-11.495 0.059,-30.305 0,-41.8 -0.059,-11.495 -0.107,-2.09 -0.107,20.9 M 140.1,86.276 c 0.385,0.1 1.015,0.1 1.4,0 0.385,-0.101 0.07,-0.183 -0.7,-0.183 -0.77,0 -1.085,0.082 -0.7,0.183 M 47.5,120.3 c 11.495,0.059 30.305,0.059 41.8,0 11.495,-0.059 2.09,-0.107 -20.9,-0.107 -22.99,0 -32.395,0.048 -20.9,0.107 m 205.631,0 c 11.511,0.059 30.231,0.059 41.6,0 11.368,-0.059 1.949,-0.107 -20.931,-0.107 -22.88,0 -32.181,0.048 -20.669,0.107 M 17.393,171 c 0,22.88 0.048,32.181 0.107,20.669 0.059,-11.511 0.059,-30.231 0,-41.6 C 17.441,138.701 17.393,148.12 17.393,171 m 62.469,-31.2 c 0.134,0.88 0.31,1.675 0.391,1.767 0.303,0.343 0.076,-1.799 -0.272,-2.567 -0.252,-0.558 -0.288,-0.315 -0.119,0.8 m -23.111,4.631 -1.751,1.631 1.9,-1.516 c 1.045,-0.833 1.9,-1.567 1.9,-1.631 0,-0.308 -0.437,0.015 -2.049,1.516 m -21.369,17.081 c -1.699,1.563 -1.295,1.377 0.949,-0.436 0.732,-0.592 1.182,-1.071 1,-1.064 -0.182,0.007 -1.059,0.682 -1.949,1.5 m 195.593,0.188 -1.175,1.3 1.3,-1.175 c 0.715,-0.646 1.3,-1.231 1.3,-1.3 0,-0.309 -0.33,-0.037 -1.425,1.175 m -125.299,3.519 c 0.372,0.217 1.135,0.976 1.696,1.687 0.56,0.712 1.021,1.165 1.024,1.008 0.007,-0.506 -2.463,-3.114 -2.937,-3.102 -0.253,0.007 -0.155,0.19 0.217,0.407 m -74.388,12.194 c 0.598,0.63 1.159,1.064 1.247,0.966 0.088,-0.099 -0.402,-0.614 -1.088,-1.145 l -1.247,-0.965 1.088,1.144 m 42.64,0.887 c 5.57,0.063 14.57,0.062 20,0 5.43,-0.063 0.872,-0.115 -10.128,-0.114 -11,0 -15.442,0.051 -9.872,0.114 M 33.2,178.925 c 0,0.099 0.661,0.684 1.468,1.3 0.808,0.616 1.343,0.916 1.188,0.666 -0.316,-0.512 -2.656,-2.244 -2.656,-1.966 m 28.4,4 c 0,0.069 0.585,0.654 1.3,1.3 l 1.3,1.175 -1.175,-1.3 C 61.93,182.888 61.6,182.616 61.6,182.925 m 198.175,9.175 -1.175,1.3 1.3,-1.175 c 0.715,-0.646 1.3,-1.231 1.3,-1.3 0,-0.309 -0.33,-0.037 -1.425,1.175 m -181.978,4.301 c 1.896,2.217 1.923,2.241 1.489,1.399 -0.227,-0.44 -0.924,-1.249 -1.549,-1.799 l -1.137,-0.998 1.197,1.398 m -9.812,10.37 c 0.762,0.676 1.557,1.229 1.767,1.229 0.21,0 0.306,-0.052 0.215,-0.116 -0.092,-0.064 -0.887,-0.617 -1.767,-1.229 l -1.6,-1.113 1.385,1.229 m 4.12,1.916 c 0.609,0.092 1.509,0.09 2,-0.005 0.492,-0.095 -0.005,-0.171 -1.105,-0.168 -1.1,0.003 -1.503,0.081 -0.895,0.173 m 89.27,22.613 -1.175,1.3 1.3,-1.175 c 1.212,-1.095 1.484,-1.425 1.175,-1.425 -0.069,0 -0.654,0.585 -1.3,1.3 m -41.182,42.5 c 0,22.88 0.048,32.181 0.107,20.669 0.059,-11.511 0.059,-30.231 0,-41.6 -0.059,-11.368 -0.107,-1.949 -0.107,20.931 m 71.582,-13.7 -1.175,1.3 1.3,-1.175 c 1.212,-1.095 1.484,-1.425 1.175,-1.425 -0.069,0 -0.654,0.585 -1.3,1.3 m 94.41,26.4 -1.985,2.1 2.1,-1.985 c 1.951,-1.844 2.283,-2.215 1.985,-2.215 -0.063,0 -1.008,0.945 -2.1,2.1 m 66.376,33.1 c 0,3.41 0.061,4.805 0.136,3.1 0.075,-1.705 0.075,-4.495 0,-6.2 -0.075,-1.705 -0.136,-0.31 -0.136,3.1 m -190.961,-3 c 0.746,0.77 1.447,1.4 1.557,1.4 0.11,0 -0.411,-0.63 -1.157,-1.4 -0.746,-0.77 -1.447,-1.4 -1.557,-1.4 -0.11,0 0.411,0.63 1.157,1.4 m 212.931,6.4 c 0.002,1.54 0.074,2.121 0.161,1.291 0.087,-0.83 0.085,-2.09 -0.003,-2.8 -0.089,-0.71 -0.16,-0.031 -0.158,1.509 m -44.953,35.3 -1.378,1.5 1.5,-1.378 c 1.396,-1.284 1.684,-1.622 1.378,-1.622 -0.066,0 -0.741,0.675 -1.5,1.5 m -8.087,16.389 c 0.71,0.088 1.97,0.09 2.8,0.003 0.83,-0.087 0.249,-0.159 -1.291,-0.161 -1.54,-0.002 -2.219,0.069 -1.509,0.158"
       stroke="none"
       fill="#6c94e4"
       fill-rule="evenodd" />
    <path
       id="path8"
       d="m 165.381,30.5 -1.581,1.7 1.7,-1.581 c 0.935,-0.87 1.7,-1.635 1.7,-1.7 0,-0.303 -0.348,0 -1.819,1.581 m 9.454,-1.6 c 0.093,0.055 0.798,0.64 1.567,1.3 l 1.398,1.2 -1.175,-1.3 c -0.646,-0.715 -1.351,-1.3 -1.567,-1.3 -0.215,0 -0.315,0.045 -0.223,0.1 m -12.379,33.464 0.944,0.765 0.208,19.535 0.207,19.536 0.093,-19.246 c 0.098,-20.555 0.024,-21.354 -1.981,-21.354 -0.229,0 0.009,0.344 0.529,0.764 m -16.478,15.536 -1.378,1.5 1.5,-1.378 c 0.825,-0.759 1.5,-1.434 1.5,-1.5 0,-0.306 -0.338,-0.018 -1.622,1.378 m 59.822,0.75 c -0.719,0.612 -0.866,0.855 -0.367,0.607 0.733,-0.364 2.108,-1.681 1.716,-1.643 -0.082,0.008 -0.689,0.474 -1.349,1.036 m -65.9,1.632 c 0.495,0.096 1.305,0.096 1.8,0 0.495,-0.095 0.09,-0.173 -0.9,-0.173 -0.99,0 -1.395,0.078 -0.9,0.173 m 60.805,0.001 c 0.497,0.096 1.217,0.092 1.6,-0.008 0.382,-0.1 -0.025,-0.179 -0.905,-0.174 -0.88,0.004 -1.193,0.086 -0.695,0.182 m -30.4,28.8 c 0.497,0.096 1.217,0.092 1.6,-0.008 0.382,-0.1 -0.025,-0.179 -0.905,-0.174 -0.88,0.004 -1.193,0.086 -0.695,0.182 m 98.195,24.393 c 0.385,0.1 1.015,0.1 1.4,0 0.385,-0.101 0.07,-0.183 -0.7,-0.183 -0.77,0 -1.085,0.082 -0.7,0.183 m -6.894,7.157 c 0.003,0.642 0.178,1.437 0.389,1.767 0.26,0.409 0.304,0.09 0.137,-1 -0.303,-1.977 -0.534,-2.314 -0.526,-0.767 m 3.994,6.7 c 0,0.11 0.72,0.77 1.6,1.467 0.88,0.697 1.6,1.177 1.6,1.067 0,-0.11 -0.72,-0.77 -1.6,-1.467 -0.88,-0.697 -1.6,-1.177 -1.6,-1.067 m 3.724,2.944 c 0.336,0.544 3.476,3.078 3.476,2.805 0,-0.102 -0.847,-0.879 -1.881,-1.727 -1.035,-0.848 -1.753,-1.333 -1.595,-1.078 M 259,163.6 l -19.6,0.211 19.4,0.089 c 12.004,0.054 19.629,-0.06 20,-0.3 0.33,-0.213 0.42,-0.348 0.2,-0.3 -0.22,0.049 -9.22,0.184 -20,0.3 m -24.159,2.614 c -0.682,0.778 -1.241,1.534 -1.241,1.68 0,0.146 0.136,0.095 0.303,-0.114 0.167,-0.209 0.83,-0.965 1.475,-1.68 0.644,-0.715 1.067,-1.3 0.938,-1.3 -0.128,0 -0.792,0.636 -1.475,1.414 m 76.359,-1.289 c 0,0.069 0.585,0.654 1.3,1.3 l 1.3,1.175 -1.175,-1.3 c -1.095,-1.212 -1.425,-1.484 -1.425,-1.175 m -78.307,6.275 c 0,0.77 0.082,1.085 0.183,0.7 0.1,-0.385 0.1,-1.015 0,-1.4 -0.101,-0.385 -0.183,-0.07 -0.183,0.7 m 45.14,7.321 c 0.092,0.067 0.707,0.437 1.367,0.824 l 1.2,0.702 -0.944,-0.823 c -0.52,-0.453 -1.135,-0.824 -1.367,-0.824 -0.232,0 -0.347,0.054 -0.256,0.121 m 26.967,3.723 -1.6,1.432 1.7,-1.272 c 1.463,-1.094 1.991,-1.621 1.6,-1.598 -0.055,0.003 -0.82,0.65 -1.7,1.438 m -26.025,1.856 -1.175,1.3 1.3,-1.175 c 0.715,-0.646 1.3,-1.231 1.3,-1.3 0,-0.309 -0.33,-0.037 -1.425,1.175 m 22.025,1.349 -2,1.832 2.1,-1.678 c 1.818,-1.452 2.395,-2.027 2,-1.995 -0.055,0.005 -1,0.833 -2.1,1.841 m -39.157,14.384 c -0.331,0.862 -0.296,2.665 0.063,3.229 0.162,0.254 0.294,-0.511 0.294,-1.7 0,-2.391 -0.01,-2.434 -0.357,-1.529"
       stroke="none"
       fill="#6888bc"
       fill-rule="evenodd" />
  </g>
</svg>
