<?xml version="1.0" encoding="UTF-8" standalone="no"?>
<svg
   id="svg"
   version="1.1"
   width="98.589729"
   height="100"
   viewBox="0 0 98.589729 100"
   xmlns="http://www.w3.org/2000/svg"
   xmlns:svg="http://www.w3.org/2000/svg">
  <defs
     id="defs1" />
  <g
     id="svgg"
     transform="matrix(0.42486679,0,0,0.42486679,-35.688357,-34.984666)">
    <path
       id="path0"
       d="m 136.9,82.998 c -0.777,0.882 -0.709,18.45 0.074,19.233 0.49,0.491 5.338,0.559 33.5,0.471 l 32.926,-0.102 0.107,-9.521 c 0.089,-7.878 0.008,-9.621 -0.471,-10.1 -0.861,-0.861 -65.377,-0.842 -66.136,0.019 m 62.211,3.739 c 0.386,0.244 0.484,1.746 0.4,6.094 L 199.4,98.6 170.225,98.703 c -23.075,0.081 -29.241,-0.003 -29.494,-0.4 -0.705,-1.111 -0.386,-11.031 0.369,-11.471 0.849,-0.494 57.237,-0.587 58.011,-0.095 M 227.7,99.398 c -0.776,0.881 -0.71,19.249 0.071,20.031 0.944,0.943 58.811,0.846 59.758,-0.1 1.014,-1.015 1.014,-18.843 0,-19.858 -1.033,-1.032 -22.717,-1.016 -23.924,0.018 -1.008,0.863 -1.005,1.13 0.031,2.448 l 0.835,1.063 9.665,0.2 9.664,0.2 v 6 6 l -26.3,0.103 -26.3,0.103 v -6.203 -6.203 h 12.111 12.111 l 1.089,-1.241 c 1.307,-1.489 1.293,-1.338 0.214,-2.343 -1.144,-1.065 -28.101,-1.267 -29.025,-0.218 M 89.28,114.88 c -0.264,0.264 -0.48,0.714 -0.48,1 0,0.286 -0.18,0.52 -0.4,0.52 -0.262,0 -0.4,7.533 -0.4,21.8 V 160 H 86.633 C 83.865,160 84,159.482 84,170.071 c 0,7.775 0.108,9.694 0.571,10.158 0.467,0.466 2.499,0.571 11.029,0.571 12.179,0 13.369,-0.374 10.619,-3.342 l -0.981,-1.058 h -8.63 -8.629 l 0.11,-5.9 0.111,-5.9 26.1,-0.103 c 14.355,-0.056 26.1,-0.017 26.1,0.088 0,0.104 -1.063,2.268 -2.363,4.808 -1.299,2.539 -2.55,5.155 -2.779,5.812 l -0.416,1.195 h -9.745 c -10.313,0 -10.315,0 -11.63,1.977 -1.453,2.184 -0.486,2.423 9.795,2.423 8.388,0 10.049,0.19 8.738,1 -0.22,0.136 -0.4,0.856 -0.4,1.6 0,0.744 -0.18,1.464 -0.4,1.6 -0.22,0.136 -0.4,0.946 -0.4,1.8 0,0.854 -0.18,1.664 -0.4,1.8 -0.22,0.136 -0.4,1.317 -0.4,2.624 0,1.373 -0.175,2.376 -0.415,2.376 -0.837,0 -0.021,22.073 0.85,22.98 0.201,0.209 0.365,1.053 0.365,1.876 0,0.823 0.18,1.608 0.4,1.744 0.22,0.136 0.4,0.766 0.4,1.4 0,0.634 0.159,1.251 0.354,1.371 0.617,0.382 0.768,2.629 0.177,2.629 -0.292,0 -0.531,-0.18 -0.531,-0.4 0,-0.22 -0.278,-0.4 -0.617,-0.4 -0.339,0 -1.003,-0.36 -1.475,-0.8 -0.966,-0.9 -3.46,-1.088 -4.228,-0.32 -0.738,0.738 -0.627,3.92 0.137,3.92 0.339,0 1.003,0.36 1.475,0.8 0.472,0.44 1.095,0.8 1.383,0.8 0.289,0 0.525,0.18 0.525,0.4 0,0.22 0.27,0.4 0.6,0.4 0.33,0 0.6,0.18 0.6,0.4 0,0.22 0.36,0.4 0.8,0.4 0.44,0 0.8,0.18 0.8,0.4 0,0.22 0.36,0.4 0.8,0.4 0.44,0 0.8,0.18 0.8,0.4 0,0.22 0.278,0.4 0.617,0.4 0.339,0 1.003,0.36 1.475,0.8 2.243,2.09 3.75,0.985 4.913,-3.6 0.362,-1.43 0.836,-3.23 1.053,-4 1.694,-6.008 1.738,-7.354 0.242,-7.527 -1.32,-0.151 -2.293,1.885 -2.983,6.245 -0.583,3.682 -2.652,-1.377 -4.383,-10.718 -0.863,-4.653 -0.864,-17.334 -0.003,-22 0.837,-4.532 2.542,-10.995 3.277,-12.415 0.325,-0.63 0.592,-1.359 0.592,-1.621 0,-0.812 5.289,-11.313 6.026,-11.964 0.125,-0.11 0.833,-1.1 1.573,-2.2 3.913,-5.811 11.513,-13.611 15.701,-16.115 0.605,-0.362 1.1,-0.799 1.1,-0.971 0,-0.173 0.19,-0.314 0.422,-0.314 0.232,0 1.447,-0.695 2.7,-1.545 16.093,-10.913 40.469,-13.087 59.878,-5.342 4.029,1.608 10.573,5.03 11.793,6.166 0.426,0.397 0.927,0.721 1.115,0.721 0.188,0 0.692,0.315 1.121,0.7 0.43,0.385 1.676,1.385 2.77,2.222 2.288,1.751 4.925,4.24 8.531,8.053 2.557,2.704 3.516,3.049 5.393,1.94 0.648,-0.382 -0.237,-2.623 -1.662,-4.212 -3.603,-4.018 -9.883,-9.903 -10.568,-9.903 -0.193,0 -0.601,-0.225 -0.908,-0.5 -1.323,-1.187 -1.776,-1.5 -2.168,-1.5 -0.229,0 -0.417,-0.15 -0.417,-0.332 0,-0.183 -0.495,-0.588 -1.1,-0.9 -0.605,-0.312 -1.19,-0.657 -1.3,-0.767 -0.394,-0.396 -2.613,-1.655 -3.3,-1.872 -0.385,-0.122 -0.7,-0.381 -0.7,-0.576 0,-0.194 -0.36,-0.353 -0.8,-0.353 -0.44,0 -0.8,-0.18 -0.8,-0.4 0,-0.22 -0.36,-0.4 -0.8,-0.4 -0.44,0 -0.8,-0.147 -0.8,-0.328 0,-0.18 -0.9,-0.572 -2,-0.872 -1.1,-0.3 -2,-0.692 -2,-0.872 0,-0.181 -0.45,-0.328 -1,-0.328 -0.55,0 -1,-0.18 -1,-0.4 0,-0.22 -0.54,-0.4 -1.2,-0.4 -0.66,0 -1.2,-0.18 -1.2,-0.4 0,-0.22 -0.529,-0.4 -1.176,-0.4 -0.647,0 -1.288,-0.18 -1.424,-0.4 -0.136,-0.22 -0.867,-0.4 -1.624,-0.4 -0.757,0 -1.376,-0.18 -1.376,-0.4 0,-0.22 -0.9,-0.4 -2,-0.4 -1.1,0 -2,-0.18 -2,-0.4 0,-0.233 -1.333,-0.4 -3.2,-0.4 -1.971,0 -3.2,-0.162 -3.2,-0.421 0,-0.841 -14.03,0.009 -20,1.211 -1.21,0.244 -2.787,0.546 -3.504,0.671 -0.717,0.125 -1.402,0.388 -1.523,0.583 -0.121,0.196 -0.75,0.356 -1.397,0.356 -0.647,0 -1.176,0.18 -1.176,0.4 0,0.22 -0.54,0.4 -1.2,0.4 -0.66,0 -1.2,0.147 -1.2,0.328 0,0.18 -0.9,0.572 -2,0.872 -1.1,0.3 -2,0.692 -2,0.872 0,0.181 -0.36,0.328 -0.8,0.328 -0.44,0 -0.8,0.18 -0.8,0.4 0,0.22 -0.36,0.4 -0.8,0.4 -0.44,0 -0.8,0.18 -0.8,0.4 0,0.22 -0.36,0.4 -0.8,0.4 -0.44,0 -0.8,0.18 -0.8,0.4 0,0.22 -0.36,0.4 -0.8,0.4 -0.44,0 -0.8,0.18 -0.8,0.4 0,0.22 -0.278,0.4 -0.617,0.4 -0.339,0 -1.003,0.36 -1.475,0.8 -0.472,0.44 -1.095,0.8 -1.383,0.8 -0.289,0 -0.525,0.18 -0.525,0.4 0,0.22 -0.204,0.4 -0.453,0.4 -0.249,0 -0.744,0.334 -1.1,0.743 -0.356,0.408 -1.018,0.86 -1.472,1.003 -0.454,0.143 -1.512,0.889 -2.351,1.657 -0.838,0.768 -1.671,1.397 -1.851,1.397 -0.446,0 -8.773,8.357 -8.773,8.805 0,0.197 -0.405,0.772 -0.901,1.277 -0.495,0.505 -1.219,1.413 -1.609,2.018 l -0.708,1.1 H 126.591 110.4 v -22.229 c 0,-24.151 0.073,-23.371 -2.2,-23.371 -1.635,0 -2.2,0.866 -2.2,3.371 V 120 h -6.4 -6.4 v -2.229 c 0,-3.004 -2.191,-4.62 -3.92,-2.891 m 27.625,3.028 c -0.86,1.05 -0.894,1.402 -0.9,9.197 -0.005,8.222 0.141,9.174 1.595,10.374 0.833,0.688 34.28,0.741 35.781,0.057 l 1.019,-0.464 v -9.565 c 0,-7.756 -0.108,-9.672 -0.571,-10.136 -0.479,-0.478 -3.462,-0.57 -18.3,-0.563 l -17.729,0.007 -0.895,1.093 m 33.405,9.392 -0.11,6.1 -14.353,0.105 c -10.26,0.075 -14.509,-0.024 -14.9,-0.349 -0.578,-0.48 -0.834,-11.136 -0.28,-11.689 0.146,-0.147 6.901,-0.267 15.01,-0.267 h 14.744 l -0.111,6.1 M 106,130.4 v 5.2 h -6.4 -6.4 v -5.2 -5.2 h 6.4 6.4 v 5.2 m 163.1,8.157 c -0.96,0.728 -1.077,18.723 -0.129,19.672 0.458,0.457 2.176,0.571 8.6,0.571 h 8.029 v 38.4 38.4 H 275 c -6.8,0 -10.6,-0.143 -10.6,-0.4 0,-0.22 0.18,-0.4 0.4,-0.4 0.22,0 0.4,-0.36 0.4,-0.8 0,-0.44 0.18,-0.8 0.4,-0.8 0.22,0 0.4,-0.439 0.4,-0.976 0,-0.537 0.18,-1.088 0.4,-1.224 0.22,-0.136 0.4,-0.597 0.4,-1.024 0,-0.427 0.18,-0.776 0.4,-0.776 0.22,0 0.4,-0.54 0.4,-1.2 0,-0.66 0.18,-1.2 0.4,-1.2 0.22,0 0.4,-0.439 0.4,-0.976 0,-0.537 0.18,-1.088 0.4,-1.224 0.22,-0.136 0.4,-0.676 0.4,-1.2 0,-0.524 0.18,-1.064 0.4,-1.2 0.22,-0.136 0.4,-0.831 0.4,-1.544 0,-0.713 0.163,-1.467 0.361,-1.676 0.408,-0.429 0.781,-2.96 1.09,-7.38 0.115,-1.65 0.376,-3.171 0.579,-3.38 0.507,-0.52 0.479,-11.306 -0.03,-11.62 -0.22,-0.136 -0.4,-1.587 -0.4,-3.224 0,-1.717 -0.169,-2.976 -0.4,-2.976 -0.22,0 -0.4,-0.889 -0.4,-1.976 0,-1.087 -0.18,-2.088 -0.4,-2.224 -0.22,-0.136 -0.4,-0.867 -0.4,-1.624 0,-0.757 -0.18,-1.376 -0.4,-1.376 -0.22,0 -0.4,-0.619 -0.4,-1.376 0,-0.757 -0.18,-1.488 -0.4,-1.624 -0.22,-0.136 -0.4,-0.672 -0.4,-1.19 0,-0.519 -0.198,-1.009 -0.439,-1.09 -0.242,-0.08 -0.377,-0.558 -0.3,-1.061 l 0.139,-0.914 0.883,0.827 c 0.486,0.456 1.161,0.828 1.5,0.828 0.339,0 0.617,0.18 0.617,0.4 0,0.22 0.788,0.4 1.751,0.4 2.913,0 3.709,-3.687 1.05,-4.864 -0.661,-0.292 -1.201,-0.667 -1.201,-0.834 0,-0.166 -0.36,-0.302 -0.8,-0.302 -0.44,0 -0.8,-0.18 -0.8,-0.4 0,-0.22 -0.27,-0.4 -0.6,-0.4 -0.33,0 -0.6,-0.18 -0.6,-0.4 0,-0.22 -0.27,-0.4 -0.6,-0.4 -0.33,0 -0.6,-0.18 -0.6,-0.4 0,-0.22 -0.36,-0.4 -0.8,-0.4 -0.44,0 -0.8,-0.18 -0.8,-0.4 0,-0.22 -0.36,-0.4 -0.8,-0.4 -0.44,0 -0.8,-0.18 -0.8,-0.4 0,-0.22 -0.278,-0.4 -0.617,-0.4 -0.339,0 -1.003,-0.36 -1.475,-0.8 -0.925,-0.861 -1.908,-1.059 -1.908,-0.383 0,0.229 -0.343,0.784 -0.761,1.234 -0.419,0.449 -0.854,1.476 -0.968,2.283 -0.208,1.485 -0.648,3.359 -1.47,6.266 -1.412,4.996 -1.374,6.6 0.158,6.6 1.155,0 1.922,-1.642 2.804,-6 0.733,-3.62 1.565,-2.817 3.631,3.503 12.524,38.295 -11.302,80.408 -49.794,88.016 -1.21,0.239 -3.261,0.644 -4.557,0.899 -4.943,0.975 -18.948,0.466 -23.271,-0.845 -0.676,-0.205 -1.478,-0.373 -1.782,-0.373 -3.051,0 -17.756,-6.397 -21.931,-9.541 -0.583,-0.438 -1.984,-1.486 -3.114,-2.328 -4.252,-3.167 -8.908,-7.771 -12.745,-12.604 -0.496,-0.625 -1.37,-1.097 -2.3,-1.242 l -1.5,-0.235 v 1.714 c 0,1.139 0.268,2.023 0.8,2.636 0.44,0.507 0.8,1.064 0.8,1.237 0,0.72 10.873,11.163 11.623,11.163 0.251,0 0.96,0.54 1.577,1.2 0.617,0.66 1.319,1.2 1.56,1.2 0.242,0 0.44,0.18 0.44,0.4 0,0.22 0.27,0.4 0.6,0.4 0.33,0 0.6,0.18 0.6,0.4 0,0.22 0.27,0.4 0.6,0.4 0.33,0 0.6,0.18 0.6,0.4 0,0.22 0.236,0.4 0.525,0.4 0.288,0 0.911,0.36 1.383,0.8 0.472,0.44 1.136,0.8 1.475,0.8 0.339,0 0.617,0.18 0.617,0.4 0,0.22 0.36,0.4 0.8,0.4 0.44,0 0.8,0.18 0.8,0.4 0,0.22 0.36,0.4 0.8,0.4 0.44,0 0.8,0.18 0.8,0.4 0,0.22 0.349,0.4 0.776,0.4 0.427,0 0.888,0.18 1.024,0.4 0.136,0.22 0.687,0.4 1.224,0.4 0.537,0 0.976,0.18 0.976,0.4 0,0.22 0.36,0.4 0.8,0.4 0.44,0 0.8,0.18 0.8,0.4 0,0.22 0.54,0.4 1.2,0.4 0.66,0 1.2,0.18 1.2,0.4 0,0.22 0.439,0.4 0.976,0.4 0.537,0 1.088,0.18 1.224,0.4 0.136,0.22 0.856,0.4 1.6,0.4 0.744,0 1.452,0.161 1.574,0.358 0.121,0.197 0.987,0.471 1.923,0.61 0.937,0.138 2.873,0.45 4.303,0.692 4.87,0.826 22.453,0.501 24.6,-0.454 0.44,-0.196 1.475,-0.458 2.3,-0.581 3.428,-0.514 4.3,-0.731 4.3,-1.069 0,-0.196 0.452,-0.356 1.005,-0.356 0.553,0 1.363,-0.18 1.8,-0.4 0.437,-0.22 1.153,-0.58 1.59,-0.8 0.437,-0.22 1.157,-0.4 1.6,-0.4 0.443,0 0.805,-0.18 0.805,-0.4 0,-0.22 0.36,-0.4 0.8,-0.4 0.44,0 0.8,-0.18 0.8,-0.4 0,-0.22 0.272,-0.4 0.605,-0.4 0.333,0 0.918,-0.16 1.3,-0.356 0.382,-0.196 1.55,-0.764 2.595,-1.263 1.045,-0.499 1.9,-1.058 1.9,-1.244 0,-0.185 0.36,-0.337 0.8,-0.337 0.44,0 0.8,-0.18 0.8,-0.4 0,-0.22 0.236,-0.4 0.525,-0.4 0.288,0 0.911,-0.36 1.383,-0.8 0.472,-0.44 1.045,-0.8 1.272,-0.8 0.227,0 0.638,-0.36 0.913,-0.8 0.275,-0.44 0.731,-0.8 1.015,-0.8 0.283,0 1.095,-0.548 1.803,-1.218 0.709,-0.67 1.972,-1.66 2.807,-2.2 l 1.518,-0.982 h 33.21 c 28.25,0 33.297,-0.085 33.783,-0.571 0.463,-0.464 0.57,-2.373 0.568,-10.1 l -0.003,-9.529 -1.077,-0.5 c -0.592,-0.275 -2.301,-0.5 -3.797,-0.5 h -2.72 v -38.4 -38.4 h 3.32 c 2.049,0 3.504,-0.184 3.8,-0.48 0.758,-0.758 0.674,-18.983 -0.091,-19.749 -0.819,-0.819 -45.251,-0.833 -46.329,-0.014 M 106,146.2 v 5 h -6.4 -6.4 v -5 -5 h 6.4 6.4 v 5 m 205.8,2.2 v 6.2 l -19.374,0.104 c -15.234,0.082 -19.442,-0.004 -19.694,-0.4 -0.473,-0.745 -0.401,-10.628 0.084,-11.534 0.405,-0.756 0.956,-0.775 19.7,-0.674 L 311.8,142.2 v 6.2 m -116,0.624 c -0.44,0.102 -1.79,0.383 -3,0.625 -10.753,2.145 -21.1,10.98 -25.143,21.468 -2.328,6.036 -2.457,7.662 -2.457,30.847 0,23.008 0.106,22.036 -2.4,22.036 -2.318,0 -2.4,0.26 -2.4,7.6 0,4.631 0.145,6.785 0.48,7.12 0.509,0.509 77.576,0.741 78.887,0.237 0.544,-0.209 0.633,-1.239 0.633,-7.357 0,-7.834 0.079,-7.6 -2.584,-7.6 -2.228,0 -2.164,0.668 -2.305,-24.015 L 235.378,177 l -1.263,-3.611 c -5.294,-15.126 -16.934,-23.855 -32.515,-24.381 -2.75,-0.093 -5.36,-0.086 -5.8,0.016 m 14.75,4.52 c 10.006,3.45 17.737,11.36 20.579,21.056 1.542,5.26 1.711,8.346 1.588,29 l -0.117,19.8 h -32 -32 v -22.6 -22.6 l 0.946,-3 c 5.569,-17.666 24.135,-27.471 41.004,-21.656 M 106,158.4 v 1.6 h -6.4 -6.4 v -1.6 -1.6 h 6.4 6.4 v 1.6 m 196.8,4 v 3.6 h -5.8 -5.8 v -3.6 -3.6 h 5.8 5.8 v 3.6 m 0,14.2 v 5 h -5.8 -5.8 v -5 -5 h 5.8 5.8 v 5 m -120.311,-1.577 c -0.873,0.611 -0.889,0.784 -0.889,9.367 0,9.828 0.03,10.01 1.635,10.01 1.375,0 1.521,-0.437 1.664,-4.996 0.142,-4.482 0.925,-4.571 2.884,-0.328 2.25,4.872 2.431,5.124 3.692,5.124 1.424,0 1.683,-1.23 0.7,-3.329 -0.379,-0.809 -1.114,-2.362 -1.634,-3.45 l -0.945,-1.979 1.148,-1.221 c 2.321,-2.467 2.395,-5.773 0.179,-7.988 -1.693,-1.694 -6.715,-2.415 -8.434,-1.21 m 16.011,-0.211 c -1.867,0.751 -0.969,2.997 1.3,3.253 l 1.2,0.135 0.115,5.8 c 0.145,7.319 0.098,7.517 -1.817,7.676 -1.37,0.113 -1.498,0.226 -1.498,1.324 0,1.381 2.286,1.844 7.29,1.475 3.44,-0.253 4.242,-2.681 0.976,-2.953 L 204.6,191.4 v -6.6 -6.6 l 1.058,-0.123 c 2.305,-0.266 2.895,-2.534 0.861,-3.308 -1.228,-0.467 -6.825,-0.437 -8.019,0.043 m 14.8,0.051 c -0.893,0.455 -0.9,0.532 -0.9,9.365 0,9.732 0.06,10.172 1.394,10.172 1.451,0 1.767,-0.806 1.89,-4.822 l 0.116,-3.778 2.035,-0.248 c 4.678,-0.571 6.898,-4.757 4.45,-8.393 -1.513,-2.248 -6.555,-3.537 -8.985,-2.296 m -24.58,3.617 c 0.805,0.805 0.591,3.032 -0.338,3.53 -2.402,1.285 -4.447,-0.779 -3.421,-3.452 0.266,-0.695 3.084,-0.753 3.759,-0.078 m 30.549,0.182 c 1.655,1.498 0.378,3.738 -2.131,3.738 H 215.6 v -2.2 -2.2 h 1.469 c 0.807,0 1.797,0.298 2.2,0.662 M 302.8,191.8 v 4.6 h -5.8 -5.8 v -4.6 -4.6 h 5.8 5.8 v 4.6 m 0,14.8 v 5.4 h -5.8 -5.8 v -5.4 -5.4 h 5.8 5.8 v 5.4 m 0,15.6 v 5.4 h -5.8 -5.8 v -5.4 -5.4 h 5.8 5.8 v 5.4 m -65.4,9.4 v 4.2 l -36.9,0.102 -36.9,0.102 v -4.135 c 0,-2.275 0.121,-4.257 0.269,-4.404 0.148,-0.148 16.753,-0.223 36.9,-0.167 L 237.4,227.4 v 4.2 m 65.4,2.4 v 1.6 h -5.8 -5.8 v -1.6 -1.6 h 5.8 5.8 v 1.6 m -218.3,0.598 c -0.37,0.421 -0.499,3.037 -0.497,10.085 l 0.003,9.517 1.077,0.5 c 0.803,0.373 4.899,0.497 16.097,0.487 15.312,-0.013 16.42,-0.116 16.42,-1.531 0,-0.251 0.18,-0.456 0.4,-0.456 0.935,0 0.492,-17.088 -0.472,-18.197 l -0.872,-1.003 -15.828,0.015 c -13.156,0.013 -15.912,0.111 -16.328,0.583 m 29.5,9.522 c 0,3.916 -0.151,5.871 -0.48,6.2 -0.936,0.936 -24.996,0.659 -25.506,-0.294 -0.44,-0.822 -0.582,-9.924 -0.171,-10.993 0.214,-0.559 1.754,-0.633 13.2,-0.633 H 114 v 5.72 m 198,-3.52 c 0.265,0.32 0.382,2.577 0.312,6.055 l -0.112,5.545 -30.3,0.103 c -16.665,0.056 -30.3,0.001 -30.3,-0.122 0,-0.124 1.076,-1.474 2.39,-3.002 1.315,-1.527 3.402,-4.22 4.638,-5.984 l 2.247,-3.207 25.351,0.051 c 20.013,0.04 25.439,0.158 25.774,0.561 m -209.5,40.483 c -0.348,0.749 -0.5,3.525 -0.5,9.117 0,5.592 0.152,8.368 0.5,9.117 l 0.5,1.077 35.686,0.003 c 34.874,0.003 35.695,-0.015 36.1,-0.771 0.554,-1.036 0.554,-17.816 0,-18.852 -0.405,-0.756 -1.226,-0.774 -36.1,-0.771 l -35.686,0.003 -0.5,1.077 m 141.514,-0.309 c -0.615,1.148 -0.555,18.525 0.066,19.146 0.346,0.346 3.129,0.48 10,0.48 h 9.52 v -1.111 c 0,-2.688 -0.541,-2.889 -7.79,-2.889 -8.613,0 -7.81,0.642 -7.81,-6.243 V 284.4 h 20.211 20.21 l -0.11,5.9 -0.111,5.9 -8.668,0.2 c -4.767,0.11 -8.736,0.29 -8.821,0.4 -2.704,3.525 -2.481,3.6 10.66,3.6 H 292.4 V 290.2 280 h -23.986 c -23.305,0 -23.998,0.022 -24.4,0.774 m -73.251,3.781 c 0.311,0.375 0.424,2.352 0.349,6.1 L 171,296.2 h -32.2 -32.2 l -0.111,-5.769 c -0.084,-4.348 0.014,-5.85 0.4,-6.094 0.982,-0.624 63.352,-0.411 63.874,0.218 m 18.304,12.912 c -0.509,0.508 -0.307,19.133 0.213,19.653 0.972,0.972 42.32,0.659 42.32,-0.32 0,-0.44 0.18,-0.8 0.4,-0.8 0.255,0 0.4,-3.2 0.4,-8.8 0,-5.6 -0.145,-8.8 -0.4,-8.8 -0.22,0 -0.4,-0.27 -0.4,-0.6 0,-0.631 -41.907,-0.96 -42.533,-0.333 m 38.3,3.976 c 1.17,0.449 0.92,11.672 -0.267,11.961 -0.495,0.12 -8.37,0.168 -17.5,0.107 L 193,313.4 l -0.112,-5.581 c -0.061,-3.069 -0.022,-5.814 0.088,-6.1 0.209,-0.545 33.005,-0.808 34.391,-0.276"
       stroke="none"
       fill="#070707"
       fill-rule="evenodd" />
    <path
       id="path1"
       d="m 141.1,86.832 c -0.755,0.44 -1.074,10.36 -0.369,11.471 0.253,0.397 6.419,0.481 29.494,0.4 L 199.4,98.6 l 0.111,-5.769 c 0.084,-4.348 -0.014,-5.85 -0.4,-6.094 -0.774,-0.492 -57.162,-0.399 -58.011,0.095 M 199,92.6 v 5.6 h -28.8 -28.8 l -0.113,-5.179 c -0.061,-2.848 -0.022,-5.414 0.089,-5.702 0.164,-0.427 5.544,-0.505 28.912,-0.422 L 199,87 v 5.6 M 88.267,164.667 c -0.147,0.146 -0.267,2.846 -0.267,6 v 5.733 h 8.619 8.619 l 0.981,1.058 c 0.54,0.583 0.981,1.213 0.981,1.4 0,0.188 1.35,0.342 3,0.342 1.65,0 3,-0.154 3,-0.342 0,-0.187 0.441,-0.817 0.981,-1.4 l 0.981,-1.058 h 9.84 9.84 l 0.416,-1.195 c 0.229,-0.657 1.48,-3.273 2.779,-5.812 1.3,-2.54 2.363,-4.702 2.363,-4.805 0,-0.297 -51.836,-0.218 -52.133,0.079 m -0.424,74.366 c -0.411,1.069 -0.269,10.171 0.171,10.993 0.51,0.953 24.57,1.23 25.506,0.294 0.329,-0.329 0.48,-2.284 0.48,-6.2 v -5.72 h -12.957 c -11.446,0 -12.986,0.074 -13.2,0.633 M 113.2,244.4 V 250 H 100.8 88.4 v -5.6 -5.6 h 12.4 12.4 v 5.6 m 145.428,-1.205 c -1.236,1.764 -3.323,4.457 -4.638,5.984 -1.314,1.528 -2.39,2.878 -2.39,3.002 0,0.123 13.635,0.178 30.3,0.122 l 30.3,-0.103 0.112,-5.545 c 0.07,-3.478 -0.047,-5.735 -0.312,-6.055 -0.335,-0.403 -5.761,-0.521 -25.774,-0.561 l -25.351,-0.051 -2.247,3.207 M 311.6,246.4 v 5.6 h -29.627 -29.627 l 0.808,-1.136 c 0.445,-0.624 1.103,-1.38 1.463,-1.679 0.361,-0.298 1.488,-1.722 2.506,-3.164 1.017,-1.442 1.946,-2.711 2.064,-2.821 0.118,-0.11 0.469,-0.695 0.781,-1.3 l 0.567,-1.1 h 25.533 25.532 v 5.6 M 248,290.157 c 0,6.887 -0.81,6.243 7.851,6.243 h 6.586 l 0.682,1.197 c 0.932,1.639 6.108,1.865 6.921,0.303 0.258,-0.495 0.549,-0.99 0.647,-1.1 0.098,-0.11 4.078,-0.29 8.845,-0.4 l 8.668,-0.2 0.111,-5.9 0.11,-5.9 H 268.211 248 v 5.757"
       stroke="none"
       fill="#a67057"
       fill-rule="evenodd" />
    <path
       id="path2"
       d="m 141.376,87.319 c -0.111,0.288 -0.15,2.854 -0.089,5.702 L 141.4,98.2 H 170.2 199 V 92.6 87 L 170.288,86.897 C 146.92,86.814 141.54,86.892 141.376,87.319 M 88.4,244.4 v 5.6 h 12.4 12.4 v -5.6 -5.6 H 100.8 88.4 v 5.6 m 171.568,-2.5 c -0.312,0.605 -0.663,1.19 -0.781,1.3 -0.118,0.11 -1.047,1.379 -2.064,2.821 -1.018,1.442 -2.145,2.866 -2.506,3.164 -0.36,0.299 -1.018,1.055 -1.463,1.679 L 252.346,252 h 29.627 29.627 v -5.6 -5.6 h -25.532 -25.533 l -0.567,1.1"
       stroke="none"
       fill="#f9d143"
       fill-rule="evenodd" />
    <path
       id="path3"
       d="m 121.2,127.195 v 5.605 h 14.411 14.412 l -0.112,-5.5 -0.111,-5.5 -14.3,-0.105 -14.3,-0.105 v 5.605 m 151.867,15.872 c -0.147,0.146 -0.267,2.666 -0.267,5.6 V 154 h 19.4 19.4 v -5.6 -5.6 h -19.133 c -10.524,0 -19.254,0.12 -19.4,0.267 M 107.2,290.198 V 296 h 31.611 31.611 l -0.111,-5.7 -0.111,-5.7 -31.5,-0.102 -31.5,-0.103 v 5.803"
       stroke="none"
       fill="#91eaf2"
       fill-rule="evenodd" />
    <path
       id="path4"
       d="m 193.4,135.582 c -6.349,0.629 -14.575,2.769 -18.695,4.865 -0.382,0.194 -0.967,0.353 -1.3,0.353 -0.333,0 -0.605,0.18 -0.605,0.4 0,0.22 -0.345,0.4 -0.767,0.4 -0.421,0 -0.826,0.135 -0.9,0.3 -0.12,0.27 -2.222,1.478 -4.63,2.66 -0.493,0.242 -0.898,0.575 -0.9,0.74 -0.002,0.165 -0.273,0.3 -0.603,0.3 -0.33,0 -0.6,0.18 -0.6,0.4 0,0.22 -0.236,0.4 -0.525,0.4 -0.288,0 -0.873,0.32 -1.3,0.711 -0.426,0.391 -1.405,1.148 -2.175,1.683 -2.997,2.081 -10.367,9.456 -12.398,12.406 -0.53,0.77 -1.062,1.49 -1.183,1.6 -0.121,0.11 -0.475,0.695 -0.787,1.3 -0.312,0.605 -0.717,1.1 -0.9,1.1 -0.182,0 -0.332,0.27 -0.332,0.6 0,0.33 -0.18,0.6 -0.4,0.6 -0.22,0 -0.4,0.27 -0.4,0.6 0,0.33 -0.146,0.6 -0.325,0.6 -0.179,0 -0.573,0.63 -0.875,1.4 -0.302,0.77 -0.696,1.4 -0.875,1.4 -0.179,0 -0.325,0.36 -0.325,0.8 0,0.44 -0.18,0.8 -0.4,0.8 -0.22,0 -0.4,0.36 -0.4,0.8 0,0.44 -0.18,0.8 -0.4,0.8 -0.22,0 -0.4,0.272 -0.4,0.604 0,0.333 -0.35,1.368 -0.777,2.3 -3.916,8.548 -6.148,23.982 -4.805,33.219 1.287,8.842 3.582,17.29 3.582,13.181 0,-0.691 0.18,-1.368 0.4,-1.504 0.22,-0.136 0.4,-0.752 0.4,-1.369 0,-1.131 1.676,-3.243 2.555,-3.218 1.73,0.049 2.815,4.377 1.441,5.751 -0.218,0.218 -0.396,0.889 -0.396,1.492 0,0.603 -0.18,1.208 -0.4,1.344 -0.22,0.136 -0.4,0.768 -0.4,1.405 0,0.636 -0.161,1.571 -0.358,2.076 -0.197,0.506 -0.594,1.708 -0.882,2.672 -0.288,0.964 -0.8,2.03 -1.138,2.368 -0.458,0.458 -0.488,0.657 -0.118,0.78 0.273,0.091 0.496,0.511 0.496,0.932 0,0.422 0.18,0.767 0.4,0.767 0.22,0 0.4,0.36 0.4,0.8 0,0.44 0.18,0.8 0.4,0.8 0.22,0 0.4,0.236 0.4,0.525 0,0.288 0.36,0.911 0.8,1.383 0.44,0.472 0.8,0.954 0.8,1.071 0,0.87 1.405,1.723 2.285,1.389 0.855,-0.325 1.199,-0.109 3.039,1.914 5.127,5.634 10.235,10.522 13.076,12.514 0.77,0.54 1.749,1.302 2.175,1.693 0.427,0.391 1.012,0.711 1.3,0.711 0.289,0 0.525,0.18 0.525,0.4 0,0.22 0.193,0.4 0.428,0.4 0.235,0 1.18,0.505 2.1,1.122 2.998,2.012 11.527,5.514 15.872,6.518 0.77,0.178 2.21,0.512 3.2,0.742 9.081,2.111 21.938,1.79 31,-0.774 0.88,-0.249 2.14,-0.6 2.8,-0.78 5.056,-1.376 17.36,-7.606 19,-9.621 0.11,-0.135 0.83,-0.675 1.6,-1.201 1.716,-1.17 10.175,-9.606 11.839,-11.806 2.611,-3.452 5.576,-8.127 6.025,-9.5 0.126,-0.385 0.388,-0.7 0.583,-0.7 0.194,0 0.353,-0.191 0.353,-0.425 0,-0.234 0.529,-1.539 1.175,-2.9 7.131,-15.019 7.821,-37.445 1.614,-52.475 -0.182,-0.44 -0.419,-1.07 -0.528,-1.4 -0.125,-0.379 -0.209,-0.277 -0.229,0.276 -0.018,0.482 -0.212,0.988 -0.432,1.124 -0.22,0.136 -0.4,0.867 -0.4,1.624 0,0.757 -0.18,1.376 -0.4,1.376 -0.22,0 -0.4,0.437 -0.4,0.971 0,1.287 -1.817,2.755 -2.776,2.242 -1.331,-0.713 -1.722,-1.547 -1.457,-3.107 0.617,-3.629 0.741,-4.125 1.077,-4.333 0.196,-0.121 0.356,-0.739 0.356,-1.373 0,-0.634 0.18,-1.264 0.4,-1.4 0.22,-0.136 0.4,-0.766 0.4,-1.4 0,-0.634 0.18,-1.264 0.4,-1.4 0.22,-0.136 0.4,-0.834 0.4,-1.551 0,-0.893 0.316,-1.579 1,-2.174 1.028,-0.894 1.308,-1.675 0.6,-1.675 -0.22,0 -0.4,-0.294 -0.4,-0.653 0,-0.359 -0.315,-0.944 -0.7,-1.3 -0.385,-0.356 -1.024,-1.277 -1.42,-2.047 -1.424,-2.771 -1.714,-3 -2.851,-2.256 -1.723,1.129 -2.376,0.801 -5.754,-2.887 -1.785,-1.948 -4.557,-4.603 -6.16,-5.899 -1.603,-1.296 -3.005,-2.46 -3.115,-2.587 -0.476,-0.55 -5.195,-3.571 -5.578,-3.571 -0.232,0 -0.423,-0.135 -0.425,-0.3 -0.002,-0.165 -0.407,-0.503 -0.9,-0.752 -0.493,-0.248 -1.797,-0.905 -2.897,-1.459 -10.993,-5.54 -24.461,-7.968 -37.2,-6.707 m 13.08,12.848 c 4.841,0.981 7.979,2.176 12.924,4.923 2.973,1.652 10.596,9.027 10.596,10.252 0,0.217 0.14,0.395 0.31,0.395 0.171,0 1.094,1.575 2.053,3.5 4.085,8.206 4.036,7.795 4.037,33.978 v 21.678 l 1.9,0.122 c 1.719,0.11 1.968,0.256 2.614,1.522 1.021,2.001 0.856,12.476 -0.223,14.12 l -0.709,1.08 h -39.42 c -33.63,0 -39.503,-0.084 -39.991,-0.571 -0.453,-0.454 -0.571,-2.073 -0.571,-7.829 0,-8.179 0.073,-8.4 2.756,-8.4 h 1.613 l 0.124,-22.5 c 0.14,-25.193 0.134,-25.13 3.282,-31.776 6.931,-14.629 23.739,-23.528 38.705,-20.494"
       stroke="none"
       fill="#fbfbfb"
       fill-rule="evenodd" />
    <path
       id="path5"
       d="m 199.7,135.087 c 0.605,0.091 1.595,0.091 2.2,0 0.605,-0.092 0.11,-0.167 -1.1,-0.167 -1.21,0 -1.705,0.075 -1.1,0.167 m -6.4,0.4 c 0.605,0.091 1.595,0.091 2.2,0 0.605,-0.092 0.11,-0.167 -1.1,-0.167 -1.21,0 -1.705,0.075 -1.1,0.167 m 12.4,0 c 0.605,0.091 1.595,0.091 2.2,0 0.605,-0.092 0.11,-0.167 -1.1,-0.167 -1.21,0 -1.705,0.075 -1.1,0.167 m -7.384,12.81 c 1.383,0.078 3.543,0.077 4.8,-0.002 1.256,-0.079 0.124,-0.143 -2.516,-0.142 -2.64,0 -3.668,0.065 -2.284,0.144 m -42.941,4.603 -1.175,1.3 1.3,-1.175 c 1.212,-1.095 1.484,-1.425 1.175,-1.425 -0.069,0 -0.654,0.585 -1.3,1.3 m 39.425,0.352 c -0.77,0.217 -2.39,0.674 -3.6,1.015 -10.679,3.015 -18.648,11.735 -21.325,23.333 -0.251,1.085 -0.47,10.497 -0.552,23.7 l -0.136,21.9 h 31.206 31.207 v -21.854 c 0,-14.154 -0.15,-22.433 -0.426,-23.5 -0.726,-2.809 -1.22,-4.399 -1.754,-5.646 -0.282,-0.66 -0.761,-1.785 -1.064,-2.5 -0.303,-0.715 -0.687,-1.3 -0.854,-1.3 -0.166,0 -0.302,-0.32 -0.302,-0.712 0,-0.391 -0.36,-0.971 -0.8,-1.288 -0.44,-0.317 -0.8,-0.807 -0.8,-1.088 0,-0.282 -0.18,-0.512 -0.4,-0.512 -0.22,0 -0.4,-0.184 -0.4,-0.409 0,-0.414 -3.749,-4.257 -4.87,-4.991 -0.336,-0.22 -1.402,-0.936 -2.37,-1.59 -5.767,-3.9 -17.058,-6.161 -22.76,-4.558 m -43.419,3.648 -1.581,1.7 1.7,-1.581 c 1.581,-1.471 1.884,-1.819 1.581,-1.819 -0.065,0 -0.83,0.765 -1.7,1.7 m 38.219,17.5 c 0,0.22 0.201,0.4 0.446,0.4 1.456,0 3.154,2.95 3.154,5.478 0,1.415 -0.176,2.522 -0.4,2.522 -0.22,0 -0.4,0.27 -0.4,0.6 0,0.33 -0.137,0.6 -0.304,0.6 -0.167,0 -0.528,0.359 -0.802,0.798 -0.519,0.83 0.118,4.002 0.803,4.002 0.167,0 0.303,0.36 0.303,0.8 0,0.44 0.18,0.8 0.4,0.8 0.22,0 0.4,0.349 0.4,0.776 0,0.427 0.18,0.888 0.4,1.024 0.908,0.561 -0.801,3.401 -2.047,3.4 -0.817,-0.001 -2.753,-1.791 -2.753,-2.547 0,-0.359 -0.18,-0.653 -0.4,-0.653 -0.22,0 -0.4,-0.235 -0.4,-0.521 0,-0.287 -0.495,-1.502 -1.1,-2.7 l -1.1,-2.179 -0.113,3.6 c -0.146,4.656 -1.731,6.309 -4.012,4.184 -1.192,-1.111 -1.38,-18.763 -0.213,-20.053 0.745,-0.823 8.138,-1.124 8.138,-0.331 m 18.643,0.3 c 1.231,1.621 0.227,3.7 -1.787,3.7 H 205.2 v 6 c 0,5.726 0.036,6 0.797,6 1.11,0 2.803,1.571 2.803,2.6 0,2.684 -8.833,3.944 -11.342,1.619 -1.694,-1.57 -0.438,-4.219 2,-4.219 h 0.942 v -6 -6 h -1.377 c -2.21,0 -3.235,-1.872 -1.923,-3.513 0.967,-1.21 10.248,-1.366 11.143,-0.187 m 12.157,-0.3 c 0,0.22 0.209,0.4 0.464,0.4 0.872,0 2.679,2.477 2.941,4.032 0.707,4.18 -1.86,7.568 -5.732,7.568 h -1.566 l -0.193,4.012 c -0.242,5.02 -1.547,6.507 -3.839,4.372 -1.057,-0.985 -1.393,-19.029 -0.375,-20.186 0.598,-0.679 8.3,-0.863 8.3,-0.198 m -34.8,5.6 c 0,1.452 0.095,1.6 1.029,1.6 1.891,0 2.689,-1.407 1.44,-2.538 -1.406,-1.272 -2.469,-0.868 -2.469,0.938 m 30.8,0 c 0,1.656 0.528,1.986 2.167,1.357 1.417,-0.543 0.324,-2.957 -1.338,-2.957 -0.7,0 -0.829,0.248 -0.829,1.6 m 19.72,0.8 c 0,1.21 0.075,1.705 0.167,1.1 0.091,-0.605 0.091,-1.595 0,-2.2 -0.092,-0.605 -0.167,-0.11 -0.167,1.1 m -71.533,20.6 c 0,12.1 0.05,17.108 0.113,11.128 0.062,-5.979 0.062,-15.879 0,-22 -0.062,-6.12 -0.113,-1.228 -0.113,10.872 m -30.086,-8 c 0.004,0.88 0.086,1.193 0.182,0.695 0.096,-0.497 0.092,-1.217 -0.008,-1.6 -0.1,-0.382 -0.179,0.025 -0.174,0.905 m 132.423,3.2 c 0.002,1.32 0.077,1.812 0.166,1.093 0.089,-0.719 0.087,-1.799 -0.004,-2.4 -0.091,-0.601 -0.164,-0.013 -0.162,1.307 m -133.21,6 c 0.003,1.1 0.081,1.503 0.173,0.895 0.092,-0.609 0.09,-1.509 -0.005,-2 -0.095,-0.492 -0.171,0.005 -0.168,1.105 M 267.293,202 c 0,0.77 0.082,1.085 0.183,0.7 0.1,-0.385 0.1,-1.015 0,-1.4 -0.101,-0.385 -0.183,-0.07 -0.183,0.7 m -0.365,6.4 c 0,1.43 0.073,2.015 0.161,1.3 0.089,-0.715 0.089,-1.885 0,-2.6 -0.088,-0.715 -0.161,-0.13 -0.161,1.3 m -132.427,3.4 c 0.004,0.88 0.086,1.193 0.182,0.695 0.096,-0.497 0.092,-1.217 -0.008,-1.6 -0.1,-0.382 -0.179,0.025 -0.174,0.905 m 106.858,19.8 c 0,3.19 0.062,4.495 0.138,2.9 0.076,-1.595 0.076,-4.205 0,-5.8 -0.076,-1.595 -0.138,-0.29 -0.138,2.9 M 164.4,231.4 v 3.8 h 36 36 v -3.8 -3.8 h -36 -36 v 3.8 m 83.588,18.5 -2.588,2.7 2.7,-2.588 c 1.485,-1.424 2.7,-2.639 2.7,-2.7 0,-0.295 -0.407,0.08 -2.812,2.588 m -94.188,0.9 c 1.083,1.1 2.06,2 2.17,2 0.11,0 -0.687,-0.9 -1.77,-2 -1.083,-1.1 -2.06,-2 -2.17,-2 -0.11,0 0.687,0.9 1.77,2 m 4.288,3.813 c 0.598,0.63 1.159,1.064 1.247,0.966 0.088,-0.099 -0.402,-0.614 -1.088,-1.145 l -1.247,-0.965 1.088,1.144 m 33.817,14.87 c 0.497,0.096 1.217,0.092 1.6,-0.008 0.382,-0.1 -0.025,-0.179 -0.905,-0.174 -0.88,0.004 -1.193,0.086 -0.695,0.182 m 16.195,-0.007 c 0.385,0.1 1.015,0.1 1.4,0 0.385,-0.101 0.07,-0.183 -0.7,-0.183 -0.77,0 -1.085,0.082 -0.7,0.183"
       stroke="none"
       fill="#cbcbd3"
       fill-rule="evenodd" />
    <path
       id="path6"
       d="m 257.2,101.525 c 0,1.923 -0.995,2.075 -13.616,2.075 H 231.6 v 5.803 5.803 l 25.9,-0.103 25.9,-0.103 v -5.6 -5.6 l -9.533,-0.2 c -9.893,-0.208 -10.667,-0.358 -10.667,-2.076 0,-0.178 -1.35,-0.324 -3,-0.324 -1.65,0 -3,0.146 -3,0.325 m -64,205.875 v 5.8 h 17 17 v -5.8 -5.8 h -17 -17 v 5.8"
       stroke="none"
       fill="#ac7ee9"
       fill-rule="evenodd" />
    <path
       id="path7"
       d="m 256.237,102.2 -0.655,1 H 243.391 231.2 v 6.203 6.203 l 26.3,-0.103 26.3,-0.103 v -6 -6 l -9.6,-0.015 -9.6,-0.015 9.4,0.215 9.4,0.215 v 5.6 5.6 l -25.9,0.103 -25.9,0.103 v -5.803 -5.803 h 11.984 c 12.621,0 13.616,-0.152 13.616,-2.075 0,-0.56 -0.285,-0.36 -0.963,0.675 m -135.57,19.267 c -0.554,0.553 -0.298,11.209 0.28,11.689 0.391,0.325 4.64,0.424 14.9,0.349 l 14.353,-0.105 0.11,-6.1 0.111,-6.1 h -14.744 c -8.109,0 -14.864,0.12 -15.01,0.267 m 29.244,5.833 0.112,5.5 H 135.611 121.2 v -5.605 -5.605 l 14.3,0.105 14.3,0.105 0.111,5.5 m 43.289,7.453 c -0.77,0.136 2.541,0.247 7.358,0.247 4.817,0 8.057,-0.125 7.2,-0.277 -1.893,-0.336 -12.61,-0.315 -14.558,0.03 m -5.4,0.847 c -1.07,0.272 -1.092,0.305 -0.2,0.305 0.55,0 1.54,-0.137 2.2,-0.305 1.07,-0.272 1.092,-0.305 0.2,-0.305 -0.55,0 -1.54,0.137 -2.2,0.305 m 23.6,0 c 0.66,0.168 1.65,0.305 2.2,0.305 0.892,0 0.87,-0.033 -0.2,-0.305 -0.66,-0.168 -1.65,-0.305 -2.2,-0.305 -0.892,0 -0.87,0.033 0.2,0.305 m -27.2,0.8 -0.8,0.344 h 0.8 c 0.44,0 1.16,-0.155 1.6,-0.344 l 0.8,-0.344 h -0.8 c -0.44,0 -1.16,0.155 -1.6,0.344 m 31.2,0 c 0.44,0.189 1.16,0.344 1.6,0.344 h 0.8 L 217,136.4 c -0.44,-0.189 -1.16,-0.344 -1.6,-0.344 h -0.8 l 0.8,0.344 m -34,0.8 c -0.504,0.217 -0.578,0.344 -0.2,0.344 0.33,0 0.96,-0.155 1.4,-0.344 0.504,-0.217 0.578,-0.344 0.2,-0.344 -0.33,0 -0.96,0.155 -1.4,0.344 m 37,0 c 0.33,0.213 0.96,0.378 1.4,0.366 l 0.8,-0.022 -0.8,-0.344 c -1.196,-0.514 -2.195,-0.514 -1.4,0 m -40.6,1.168 c -3.366,1.243 -4.2,1.604 -4.2,1.816 0,0.112 0.945,-0.174 2.1,-0.637 1.155,-0.463 2.685,-1.009 3.4,-1.213 0.715,-0.204 1.3,-0.453 1.3,-0.553 0,-0.301 -0.507,-0.186 -2.6,0.587 m 43.6,-0.401 c 1.545,0.669 8.006,3.286 8.6,3.484 1.357,0.452 -1.968,-1.248 -4.389,-2.244 -2.382,-0.98 -6.227,-2.112 -4.211,-1.24 m -51.864,4.142 c -1.686,0.93 -3.486,2.016 -4,2.414 -0.768,0.593 -0.685,0.582 0.464,-0.065 0.77,-0.433 2.75,-1.521 4.4,-2.417 1.65,-0.896 2.82,-1.628 2.6,-1.626 -0.22,0.002 -1.779,0.764 -3.464,1.694 m 61.264,-0.28 c 0,0.085 0.765,0.529 1.7,0.985 1.644,0.804 1.667,0.805 0.7,0.03 -0.93,-0.745 -2.4,-1.367 -2.4,-1.015 m 42.016,0.941 c -0.485,0.906 -0.557,10.789 -0.084,11.534 0.252,0.396 4.46,0.482 19.694,0.4 L 311.8,154.6 v -6.2 -6.2 l -19.284,-0.104 c -18.744,-0.101 -19.295,-0.082 -19.7,0.674 m 38.784,5.63 v 5.6 h -19.4 -19.4 v -5.333 c 0,-2.934 0.12,-5.454 0.267,-5.6 0.146,-0.147 8.876,-0.267 19.4,-0.267 H 311.6 v 5.6 m -77.2,-4.633 c 0,0.245 2.634,1.833 3.04,1.833 0.19,0 -0.317,-0.45 -1.126,-1 -1.426,-0.969 -1.914,-1.181 -1.914,-0.833 m 4.394,3.015 c 0.547,0.42 1.074,0.684 1.171,0.587 0.226,-0.227 -1.236,-1.342 -1.765,-1.347 -0.22,-0.002 0.047,0.339 0.594,0.76 m -78.289,0.943 c -0.712,0.481 -1.297,1.019 -1.3,1.195 -0.003,0.177 0.625,-0.16 1.395,-0.747 0.77,-0.587 1.4,-1.137 1.4,-1.22 0,-0.226 -0.081,-0.184 -1.495,0.772 m 80.035,0.178 c 0.156,0.253 0.851,0.864 1.544,1.357 0.693,0.494 1.133,0.69 0.976,0.437 -0.156,-0.253 -0.851,-0.864 -1.544,-1.357 -0.693,-0.494 -1.133,-0.69 -0.976,-0.437 m -45.264,0.837 c -0.508,0.143 1.798,0.26 5.124,0.26 3.326,0 5.632,-0.117 5.124,-0.26 -0.508,-0.143 -2.814,-0.26 -5.124,-0.26 -2.31,0 -4.616,0.117 -5.124,0.26 m -40.246,3.7 c -1.882,1.782 -4.17,4.167 -5.084,5.3 -1.224,1.518 -0.988,1.337 0.896,-0.686 1.407,-1.51 3.818,-3.89 5.358,-5.289 1.54,-1.399 2.677,-2.548 2.527,-2.554 -0.151,-0.006 -1.814,1.447 -3.697,3.229 m 36.57,-2.84 c -0.795,0.514 0.204,0.514 1.4,0 l 0.8,-0.344 -0.8,-0.022 c -0.44,-0.012 -1.07,0.153 -1.4,0.366 m 16.4,0 c 1.542,0.494 2.364,0.494 1.6,0 -0.33,-0.213 -1.05,-0.373 -1.6,-0.354 l -1,0.034 1,0.32 m 35.6,0.456 c 0,0.281 7.723,7.954 7.864,7.813 0.066,-0.066 -1.593,-1.818 -3.687,-3.894 -4.473,-4.435 -4.177,-4.158 -4.177,-3.919 m -29.2,1.544 c 0.77,0.422 1.58,0.766 1.8,0.766 0.22,0 -0.23,-0.344 -1,-0.766 -0.77,-0.422 -1.58,-0.766 -1.8,-0.766 -0.22,0 0.23,0.344 1,0.766 m -30.1,0.629 c -1.551,0.841 -1.375,1.132 0.2,0.33 1.508,-0.766 1.775,-0.965 1.267,-0.943 -0.202,0.009 -0.862,0.285 -1.467,0.613 m 14.215,0.067 c 1.273,0.08 3.253,0.079 4.4,-0.002 1.147,-0.08 0.105,-0.145 -2.315,-0.144 -2.42,0.001 -3.358,0.066 -2.085,0.146 M 193,152.8 c -0.729,0.313 -0.712,0.344 0.2,0.344 0.55,0 1.36,-0.155 1.8,-0.344 0.729,-0.313 0.712,-0.344 -0.2,-0.344 -0.55,0 -1.36,0.155 -1.8,0.344 m 14.967,0.434 c 1.632,0.421 3.04,0.692 3.129,0.603 0.255,-0.255 -4.108,-1.441 -5.158,-1.403 -0.516,0.019 0.397,0.379 2.029,0.8 m 9.633,-0.067 c 0.963,0.785 1.6,1.041 1.6,0.643 0,-0.104 -0.585,-0.475 -1.3,-0.824 l -1.3,-0.634 1,0.815 m -37.022,1.276 c -2.63,1.652 -8.944,8.141 -10.096,10.376 -0.573,1.111 -0.648,1.41 -0.2,0.795 4.212,-5.782 6.443,-8.079 10.418,-10.728 1.86,-1.239 2.384,-1.686 1.978,-1.686 -0.067,0 -1.012,0.559 -2.1,1.243 m 9.01,-0.666 c -7.67,2.827 -14.223,8.699 -17.88,16.023 -1.392,2.789 -2.283,5.358 -1.967,5.674 0.121,0.121 0.343,-0.296 0.493,-0.927 1.287,-5.41 7.152,-13.261 12.566,-16.82 2.106,-1.385 6.916,-3.724 7.675,-3.733 0.289,-0.003 0.795,-0.181 1.125,-0.394 0.899,-0.581 -0.224,-0.482 -2.012,0.177 m 22.186,0.58 c 0.15,0.244 0.527,0.443 0.837,0.443 0.311,0 1.175,0.343 1.922,0.762 0.747,0.42 1.787,1.005 2.312,1.3 0.525,0.296 1.045,0.628 1.155,0.739 0.11,0.111 1.239,0.99 2.508,1.955 1.27,0.965 2.89,2.47 3.6,3.346 0.711,0.876 1.508,1.819 1.771,2.095 1.116,1.173 3.985,6.689 4.58,8.803 0.247,0.88 0.527,1.386 0.621,1.124 0.656,-1.827 -3.68,-9.073 -8.08,-13.502 -3.875,-3.901 -12.706,-9.458 -11.226,-7.065 m 9.026,0.561 c 0,0.102 0.847,0.879 1.881,1.727 1.035,0.848 1.753,1.333 1.595,1.078 -0.336,-0.544 -3.476,-3.078 -3.476,-2.805 m 4.886,4.428 c 0.503,0.521 0.988,0.882 1.078,0.803 0.233,-0.204 -1.216,-1.749 -1.64,-1.749 -0.194,0 0.059,0.426 0.562,0.946 m 26.658,-0.133 c 1.059,0.882 1.581,0.961 2.456,0.369 0.451,-0.306 0.341,-0.347 -0.442,-0.165 -0.681,0.157 -1.261,0.023 -1.672,-0.388 -0.346,-0.346 -0.777,-0.623 -0.957,-0.616 -0.181,0.008 0.096,0.368 0.615,0.8 m -104.8,1.487 c -1.151,1.389 -1.638,2.1 -1.44,2.1 0.11,0 0.682,-0.63 1.269,-1.4 1.09,-1.429 1.222,-1.968 0.171,-0.7 m 80.396,1.216 c 0.493,0.693 1.104,1.388 1.357,1.544 0.253,0.157 0.057,-0.283 -0.437,-0.976 -0.493,-0.693 -1.104,-1.388 -1.357,-1.544 -0.253,-0.157 -0.057,0.283 0.437,0.976 m -85.326,5.919 c -0.373,0.569 -0.609,1.103 -0.525,1.187 0.084,0.085 0.469,-0.381 0.855,-1.034 0.862,-1.46 0.604,-1.579 -0.33,-0.153 m -2.034,3.805 c -0.569,1.122 -0.967,2.107 -0.885,2.189 0.082,0.082 0.632,-0.836 1.223,-2.04 0.59,-1.204 0.988,-2.189 0.884,-2.189 -0.104,0 -0.654,0.918 -1.222,2.04 m 118.68,-1.173 c -0.033,0.587 -0.164,1.397 -0.29,1.8 -0.218,0.693 -0.205,0.694 0.225,0.023 0.251,-0.391 0.382,-1.201 0.291,-1.8 l -0.166,-1.09 -0.06,1.067 M 233.612,172 c 0,0.33 0.175,0.87 0.388,1.2 0.345,0.533 0.388,0.533 0.388,0 0,-0.33 -0.175,-0.87 -0.388,-1.2 -0.345,-0.533 -0.388,-0.533 -0.388,0 m 24.837,1.6 c -0.033,0.33 -0.16,1.05 -0.282,1.6 -0.192,0.864 -0.16,0.903 0.232,0.288 0.249,-0.391 0.376,-1.111 0.282,-1.6 -0.095,-0.488 -0.199,-0.618 -0.232,-0.288 m -76.36,1.023 c -0.875,0.613 -0.889,0.766 -0.889,9.92 0,9.941 0.062,10.257 2,10.257 1.72,0 2,-0.656 2,-4.68 0,-4.799 0.365,-4.734 2.83,0.504 l 1.987,4.223 1.491,-0.123 c 2.158,-0.179 2.24,-1.807 0.29,-5.754 -1.355,-2.742 -1.601,-4.57 -0.615,-4.57 0.469,0 2.017,-3.423 2.017,-4.46 0,-4.17 -7.575,-7.794 -11.111,-5.317 m 15.693,0.359 c -1.515,1.514 -0.493,3.418 1.834,3.418 h 1.184 v 5.767 c 0,6.634 -0.09,7.033 -1.581,7.033 -2.495,0 -3.051,3.122 -0.669,3.761 1.376,0.369 7.312,0.272 8.39,-0.138 2.11,-0.802 1.646,-3.477 -0.641,-3.698 L 205,191 l -0.11,-6.3 -0.11,-6.3 h 1.01 c 1.106,0 2.61,-1.259 2.61,-2.184 0,-2.376 -8.49,-3.362 -10.618,-1.234 m 15.194,-0.349 c -0.765,0.623 -0.764,0.627 0.024,0.3 2.877,-1.196 7.771,-0.023 9.285,2.226 2.448,3.636 0.228,7.822 -4.45,8.393 l -2.035,0.248 -0.116,3.778 c -0.123,4.016 -0.439,4.822 -1.89,4.822 -1.332,0 -1.394,-0.444 -1.394,-10.056 0,-5.759 -0.138,-8.706 -0.4,-8.544 -0.246,0.152 -0.4,3.411 -0.4,8.443 0,9.329 0.279,10.557 2.396,10.557 1.645,0 2.004,-0.927 2.004,-5.174 V 186 h 1.62 c 6.432,0 8.304,-8.438 2.484,-11.196 -2.119,-1.005 -5.991,-1.098 -7.128,-0.171 m 21.458,-0.233 c 0.012,0.33 0.177,0.96 0.366,1.4 l 0.344,0.8 0.022,-0.8 c 0.012,-0.44 -0.153,-1.07 -0.366,-1.4 -0.345,-0.533 -0.385,-0.533 -0.366,0 m -95.676,1.1 c -1.887,4.914 -2.813,7.778 -2.588,8.003 0.094,0.095 0.348,-0.43 0.563,-1.165 0.216,-0.736 0.939,-2.823 1.607,-4.638 0.669,-1.815 1.131,-3.3 1.028,-3.3 -0.103,0 -0.378,0.495 -0.61,1.1 m 27.098,-0.216 c -0.135,0.504 -0.229,1.276 -0.21,1.716 0.019,0.44 0.199,0.098 0.4,-0.76 0.39,-1.662 0.224,-2.5 -0.19,-0.956 m 22.357,-0.439 c 4.467,1.125 5.766,5.937 2.531,9.376 l -1.148,1.221 0.945,1.979 c 0.52,1.088 1.255,2.641 1.634,3.45 0.983,2.099 0.724,3.329 -0.7,3.329 -1.261,0 -1.442,-0.252 -3.692,-5.124 -1.959,-4.243 -2.742,-4.154 -2.884,0.328 -0.143,4.559 -0.289,4.996 -1.664,4.996 -1.605,0 -1.635,-0.182 -1.635,-10.01 0,-10.649 0.331,-11.127 6.613,-9.545 m 18.306,-0.076 c 2.034,0.774 1.444,3.042 -0.861,3.308 L 204.6,178.2 v 6.6 6.6 l 1.466,0.122 c 3.266,0.272 2.464,2.7 -0.976,2.953 -5.004,0.369 -7.29,-0.094 -7.29,-1.475 0,-1.098 0.128,-1.211 1.498,-1.324 1.915,-0.159 1.962,-0.357 1.817,-7.676 l -0.115,-5.8 -1.2,-0.135 c -2.269,-0.256 -3.167,-2.502 -1.3,-3.253 1.194,-0.48 6.791,-0.51 8.019,-0.043 m 54.915,1.565 c -0.349,0.675 -0.621,1.64 -0.606,2.146 0.016,0.546 0.277,0.106 0.642,-1.08 l 0.613,-2 0.992,2.6 c 0.546,1.43 1.158,2.96 1.361,3.4 0.645,1.402 0.008,-0.941 -0.926,-3.4 -1.112,-2.93 -1.331,-3.106 -2.076,-1.666 M 231.268,176.2 c 0.006,0.44 0.156,1.25 0.332,1.8 l 0.32,1 0.012,-1 c 0.006,-0.55 -0.143,-1.36 -0.332,-1.8 l -0.344,-0.8 0.012,0.8 m -62.179,0.6 c -0.153,0.55 -0.264,1.45 -0.247,2 0.026,0.861 0.084,0.814 0.416,-0.34 0.212,-0.736 0.323,-1.636 0.248,-2 -0.098,-0.466 -0.22,-0.367 -0.417,0.34 m 88.557,0.067 c -0.025,0.367 -0.15,0.997 -0.276,1.4 -0.218,0.695 -0.207,0.696 0.227,0.02 0.251,-0.391 0.376,-1.021 0.276,-1.4 -0.162,-0.619 -0.185,-0.621 -0.227,-0.02 m -22.127,23.248 c 0.127,24.555 0.063,23.885 2.297,23.885 2.663,0 2.584,-0.234 2.584,7.6 0,6.118 -0.089,7.148 -0.633,7.357 -1.311,0.504 -78.378,0.272 -78.887,-0.237 -0.674,-0.674 -0.674,-13.566 0,-14.24 0.264,-0.264 1.142,-0.48 1.951,-0.48 0.809,0 1.665,-0.233 1.901,-0.518 0.432,-0.52 0.899,-45.647 0.468,-45.216 -0.11,0.11 -0.29,10.31 -0.4,22.667 l -0.2,22.467 -1.6,0.13 c -2.896,0.234 -3,0.513 -3,8.07 0,5.96 0.078,6.747 0.731,7.338 0.884,0.8 77.815,1.04 79.295,0.248 0.721,-0.386 0.774,-0.905 0.774,-7.576 0,-7.945 0.1,-7.661 -2.8,-8 l -1.8,-0.21 -0.2,-22.867 c -0.11,-12.577 -0.29,-22.957 -0.4,-23.067 -0.11,-0.11 -0.147,10.082 -0.081,22.649 m -50.558,-21.557 c -1.026,2.673 1.019,4.737 3.421,3.452 0.929,-0.498 1.143,-2.725 0.338,-3.53 -0.675,-0.675 -3.493,-0.617 -3.759,0.078 M 215.6,180.2 v 2.2 h 1.538 c 0.982,0 1.777,-0.264 2.2,-0.731 1.499,-1.657 0.255,-3.669 -2.269,-3.669 H 215.6 v 2.2 m -27.28,-1.32 c 1.292,1.292 0.128,3.269 -1.796,3.049 -1.916,-0.22 -1.942,-3.529 -0.027,-3.529 0.739,0 1.559,0.216 1.823,0.48 m 31.018,0.389 c 0.772,1.233 -0.287,2.731 -1.929,2.731 -1.406,0 -1.409,-0.004 -1.409,-1.824 v -1.824 l 1.459,0.124 c 0.822,0.07 1.643,0.417 1.879,0.793 M 232.047,201.1 232,223.2 h -31.597 -31.596 l -0.109,-21.5 -0.109,-21.5 0.006,21.6 0.005,21.6 h 32 32 l 0.104,-20.052 c 0.057,-11.028 -0.057,-21.018 -0.254,-22.2 -0.233,-1.404 -0.373,5.503 -0.403,19.952 m 24.528,-20.07 c -0.151,1.007 -0.117,1.987 0.075,2.179 0.2,0.199 0.383,-0.587 0.427,-1.83 0.094,-2.658 -0.133,-2.815 -0.502,-0.349 m 3.674,-0.815 c -0.137,0.358 -0.234,0.951 -0.215,1.318 0.019,0.367 0.193,0.136 0.387,-0.513 0.377,-1.262 0.244,-1.887 -0.172,-0.805 m 4.585,2.785 c -0.012,0.44 0.153,1.07 0.366,1.4 0.514,0.795 0.514,-0.204 0,-1.4 l -0.344,-0.8 -0.022,0.8 m -129.384,2.25 c -0.333,1.667 -0.01,1.99 0.35,0.35 0.152,-0.691 0.193,-1.341 0.091,-1.442 -0.102,-0.102 -0.3,0.389 -0.441,1.092 m 130.218,0.55 c -0.006,0.44 0.143,1.16 0.332,1.6 0.438,1.019 0.438,-0.032 0,-1.4 -0.257,-0.804 -0.323,-0.843 -0.332,-0.2 m -131.09,3.178 c -0.151,0.803 -0.184,1.549 -0.074,1.659 0.11,0.11 0.323,-0.456 0.474,-1.259 0.15,-0.803 0.184,-1.55 0.074,-1.66 -0.11,-0.11 -0.324,0.457 -0.474,1.26 m 131.909,0.422 c -0.004,0.66 0.137,1.65 0.313,2.2 l 0.32,1 -0.007,-1 c -0.004,-0.55 -0.145,-1.54 -0.313,-2.2 l -0.305,-1.2 -0.008,1.2 m -132.697,4.338 c -0.151,1.214 -0.195,2.444 -0.097,2.734 0.097,0.29 0.308,-0.616 0.467,-2.014 0.159,-1.398 0.203,-2.628 0.098,-2.734 -0.106,-0.105 -0.316,0.801 -0.468,2.014 m 133.61,8.904 c 0,4.817 0.122,7.948 0.27,6.958 0.356,-2.366 0.36,-12.171 0.007,-14.158 -0.152,-0.857 -0.277,2.383 -0.277,7.2 M 133.337,202.6 c 0.002,1.76 0.072,2.43 0.156,1.489 0.085,-0.94 0.084,-2.38 -0.002,-3.2 -0.086,-0.819 -0.155,-0.049 -0.154,1.711 m 0.36,7.2 c -0.001,0.88 0.135,2.14 0.303,2.8 0.44,1.73 0.455,-0.157 0.02,-2.6 l -0.32,-1.8 -0.003,1.6 m 132.921,4.418 c -0.153,1.021 -0.196,1.937 -0.096,2.037 0.1,0.1 0.307,-0.653 0.46,-1.673 0.153,-1.021 0.196,-1.937 0.096,-2.037 -0.1,-0.1 -0.307,0.653 -0.46,1.673 m -132.15,0.982 c -0.006,0.55 0.143,1.36 0.332,1.8 l 0.344,0.8 -0.012,-0.8 c -0.006,-0.44 -0.156,-1.25 -0.332,-1.8 l -0.32,-1 -0.012,1 m 131.381,2.615 c -0.137,0.358 -0.233,1.041 -0.213,1.518 0.026,0.614 0.149,0.475 0.423,-0.477 0.398,-1.384 0.235,-2.198 -0.21,-1.041 m -126.026,0.674 c -0.343,0.489 -0.608,1.164 -0.59,1.5 0.018,0.336 0.293,0.015 0.611,-0.714 0.48,-1.099 0.765,-1.304 1.668,-1.2 1.168,0.134 1.288,0.861 0.713,4.325 -0.197,1.184 -0.141,1.122 0.365,-0.4 1.242,-3.738 -0.797,-6.324 -2.767,-3.511 m -4.555,0.311 c 0.02,1.039 0.65,2.746 0.664,1.8 0.006,-0.44 -0.143,-1.16 -0.332,-1.6 -0.211,-0.49 -0.339,-0.568 -0.332,-0.2 m 129.345,3.813 c -0.363,1.25 -0.586,2.347 -0.495,2.439 0.091,0.091 0.458,-0.863 0.815,-2.119 0.358,-1.256 0.58,-2.353 0.495,-2.438 -0.084,-0.085 -0.451,0.868 -0.815,2.118 M 136.8,224.271 c 0,0.453 0.843,1.329 1.28,1.329 0.176,0 0.306,-0.405 0.288,-0.9 -0.017,-0.495 -0.124,-0.667 -0.238,-0.383 -0.16,0.396 -0.338,0.408 -0.769,0.051 -0.309,-0.256 -0.561,-0.3 -0.561,-0.097 m 4.587,0.782 c -0.139,0.631 -0.404,1.597 -0.59,2.147 -0.186,0.55 -0.565,1.99 -0.843,3.2 -0.277,1.21 -0.676,2.429 -0.886,2.71 -0.21,0.28 -0.297,0.595 -0.192,0.699 0.309,0.31 1.025,-1.433 1.729,-4.209 1.273,-5.024 1.349,-5.379 1.192,-5.536 -0.087,-0.087 -0.271,0.358 -0.41,0.989 m 121.986,1.19 c -0.135,0.416 -0.439,1.162 -0.677,1.656 -0.237,0.495 -0.333,0.998 -0.213,1.117 0.119,0.119 0.517,-0.533 0.884,-1.449 0.366,-0.917 0.573,-1.76 0.459,-1.874 -0.114,-0.114 -0.318,0.133 -0.453,0.55 m -99.504,1.222 c -0.148,0.147 -0.269,2.129 -0.269,4.404 v 4.135 l 36.9,-0.102 36.9,-0.102 v -4.2 -4.2 l -36.631,-0.102 c -20.147,-0.056 -36.752,0.019 -36.9,0.167 M 236.8,231.6 v 4 H 200.4 164 v -4 -4 h 36.4 36.4 v 4 m 23.299,2.1 c -1.137,2.255 -1.791,3.74 -1.451,3.3 1.021,-1.324 3.998,-7.4 3.626,-7.4 -0.059,0 -1.037,1.845 -2.175,4.1 m -3.51,6.22 c -2.259,3.571 -5.886,7.897 -9.929,11.842 -2.233,2.179 -3.16,3.228 -2.06,2.331 4.577,-3.734 14.112,-15.114 13.324,-15.902 -0.081,-0.081 -0.682,0.697 -1.335,1.729 M 145.5,243.089 c 0.715,0.089 1.3,0.33 1.3,0.536 0,0.206 0.202,0.375 0.449,0.375 0.31,0 0.295,-0.185 -0.049,-0.6 -0.276,-0.333 -1.055,-0.571 -1.749,-0.536 l -1.251,0.064 1.3,0.161 m 2.544,1.911 c 0.966,1.42 6.465,7.424 6.64,7.249 0.094,-0.093 -0.992,-1.402 -2.412,-2.909 -1.419,-1.507 -3.074,-3.28 -3.676,-3.94 -0.603,-0.66 -0.851,-0.84 -0.552,-0.4 m 7.156,7.618 c 0,0.448 4.044,3.819 6.4,5.335 l 1.4,0.901 -1.389,-1.127 c -0.764,-0.62 -2.519,-2.077 -3.9,-3.237 -1.381,-1.161 -2.511,-2.003 -2.511,-1.872 m 84.4,5.042 c -1.43,1.07 -3.545,2.486 -4.7,3.146 -1.155,0.661 -2.1,1.293 -2.1,1.406 0,0.336 4.031,-2.063 6.549,-3.899 1.293,-0.942 2.547,-1.838 2.789,-1.991 0.241,-0.153 0.354,-0.352 0.25,-0.443 -0.103,-0.09 -1.358,0.711 -2.788,1.781 m -76.4,1.461 c 0,0.182 0.765,0.756 1.7,1.275 4.609,2.561 8.14,4.381 8.5,4.38 0.22,-0.001 -1.22,-0.855 -3.2,-1.898 -1.98,-1.043 -4.365,-2.39 -5.3,-2.992 -0.935,-0.603 -1.7,-0.947 -1.7,-0.765 m 67.693,3.859 c -1.254,0.692 -1.631,1.121 -0.681,0.775 0.986,-0.36 2.502,-1.369 1.977,-1.316 -0.214,0.022 -0.797,0.265 -1.296,0.541 m -3.64,1.673 c -0.74,0.323 -1.252,0.681 -1.137,0.796 0.115,0.115 0.9,-0.156 1.746,-0.602 1.773,-0.936 1.379,-1.061 -0.609,-0.194 m -51.915,0.994 c 0.846,0.446 1.63,0.718 1.743,0.605 0.195,-0.195 -2.501,-1.472 -3.03,-1.434 -0.138,0.009 0.441,0.382 1.287,0.829 M 222,266.8 c -0.533,0.345 -0.533,0.388 0,0.388 0.33,0 0.87,-0.175 1.2,-0.388 0.533,-0.345 0.533,-0.388 0,-0.388 -0.33,0 -0.87,0.175 -1.2,0.388 m -38.6,1.6 c 1.196,0.514 2.195,0.514 1.4,0 -0.33,-0.213 -0.96,-0.378 -1.4,-0.366 l -0.8,0.022 0.8,0.344 m 33.2,0 -0.8,0.344 0.8,0.022 c 0.44,0.012 1.07,-0.153 1.4,-0.366 0.795,-0.514 -0.204,-0.514 -1.4,0 m -29.8,0.779 c 0.33,0.225 1.125,0.412 1.767,0.415 1.537,0.008 1.217,-0.224 -0.767,-0.556 -1.146,-0.192 -1.43,-0.152 -1,0.141 m 26.2,0.021 -0.8,0.344 h 0.8 c 0.44,0 1.16,-0.155 1.6,-0.344 l 0.8,-0.344 h -0.8 c -0.44,0 -1.16,0.155 -1.6,0.344 m -21.8,0.784 c 0.98,0.33 4.695,0.558 4.367,0.269 -0.092,-0.081 -1.337,-0.25 -2.767,-0.376 -1.63,-0.143 -2.227,-0.103 -1.6,0.107 m 16.2,0.016 -1.6,0.286 1.6,0.017 c 0.88,0.01 2.05,-0.127 2.6,-0.303 l 1,-0.32 -1,0.017 c -0.55,0.009 -1.72,0.145 -2.6,0.303 m -6.9,0.676 c 0.385,0.1 1.015,0.1 1.4,0 0.385,-0.101 0.07,-0.183 -0.7,-0.183 -0.77,0 -1.085,0.082 -0.7,0.183 m -93.611,13.661 c -0.386,0.244 -0.484,1.746 -0.4,6.094 l 0.111,5.769 h 32.2 32.2 l 0.112,-5.545 c 0.075,-3.748 -0.038,-5.725 -0.349,-6.1 -0.522,-0.629 -62.892,-0.842 -63.874,-0.218 m 63.422,5.963 0.111,5.7 H 138.811 107.2 v -5.802 -5.803 l 31.5,0.103 31.5,0.102 0.111,5.7 m 22.665,11.419 c -0.11,0.286 -0.149,3.031 -0.088,6.1 l 0.112,5.581 16.6,0.111 c 9.13,0.061 17.005,0.013 17.5,-0.107 1.187,-0.289 1.437,-11.512 0.267,-11.961 -1.386,-0.532 -34.182,-0.269 -34.391,0.276 M 227.2,307.4 v 5.8 h -17 -17 v -5.8 -5.8 h 17 17 v 5.8"
       stroke="none"
       fill="#599194"
       fill-rule="evenodd" />
    <path
       id="path8"
       d="m 196.105,135.087 c 0.609,0.092 1.509,0.09 2,-0.005 0.492,-0.095 -0.005,-0.171 -1.105,-0.168 -1.1,0.003 -1.503,0.081 -0.895,0.173 m 7.395,-0.005 c 0.495,0.096 1.305,0.096 1.8,0 0.495,-0.095 0.09,-0.173 -0.9,-0.173 -0.99,0 -1.395,0.078 -0.9,0.173 m 2.1,13.718 c 0.55,0.176 1.36,0.32 1.8,0.32 0.633,0 0.592,-0.066 -0.2,-0.32 -0.55,-0.176 -1.36,-0.32 -1.8,-0.32 -0.633,0 -0.592,0.066 0.2,0.32 m -52.4,5.8 c -1.639,1.65 -2.89,3 -2.78,3 0.11,0 1.541,-1.35 3.18,-3 1.639,-1.65 2.89,-3 2.78,-3 -0.11,0 -1.541,1.35 -3.18,3 m 41.2,-1.731 c -0.77,0.214 -2.12,0.589 -3,0.835 -1.793,0.5 -5.8,2.224 -5.8,2.495 0,0.211 1.237,-0.207 1.8,-0.608 0.562,-0.4 5.177,-1.808 7.8,-2.38 5.07,-1.105 14.056,0.159 18.937,2.664 0.626,0.321 1.225,0.496 1.333,0.389 0.107,-0.108 -0.495,-0.499 -1.338,-0.871 -0.842,-0.371 -1.892,-0.836 -2.332,-1.033 -3.774,-1.693 -13.622,-2.537 -17.4,-1.491 m 28.4,3.256 c 0,0.069 0.585,0.654 1.3,1.3 l 1.3,1.175 -1.175,-1.3 c -1.095,-1.212 -1.425,-1.484 -1.425,-1.175 m -47.813,2.775 -2.387,2.5 2.5,-2.387 c 2.322,-2.218 2.683,-2.613 2.387,-2.613 -0.061,0 -1.186,1.125 -2.5,2.5 m 7.413,-0.928 c -1.21,0.843 -2.559,1.959 -2.997,2.48 l -0.797,0.948 0.997,-0.85 c 0.548,-0.467 2.032,-1.527 3.297,-2.356 1.265,-0.829 2.3,-1.572 2.3,-1.651 0,-0.375 -0.781,0.023 -2.8,1.429 m 33.822,-1.137 c 0.326,0.528 1.779,1.247 1.775,0.879 -0.002,-0.173 -0.452,-0.522 -1.001,-0.777 -0.548,-0.254 -0.897,-0.3 -0.774,-0.102 m 2.867,1.995 c 0.489,0.509 0.989,0.825 1.112,0.702 0.123,-0.123 -0.277,-0.54 -0.889,-0.926 l -1.112,-0.702 0.889,0.926 m 2.511,1.713 c 0,0.413 2.012,2.379 2.22,2.17 0.094,-0.094 -0.366,-0.687 -1.024,-1.317 -0.658,-0.63 -1.196,-1.014 -1.196,-0.853 m -45.266,2.957 c -1.353,1.465 -3.657,4.91 -3.433,5.134 0.098,0.098 0.858,-0.86 1.689,-2.128 0.831,-1.268 1.88,-2.711 2.33,-3.206 0.451,-0.495 0.732,-0.9 0.625,-0.9 -0.108,0 -0.653,0.495 -1.211,1.1 m 53.266,0.1 c 0.47,0.66 0.944,1.2 1.054,1.2 0.11,0 -0.184,-0.54 -0.654,-1.2 -0.47,-0.66 -0.944,-1.2 -1.054,-1.2 -0.11,0 0.184,0.54 0.654,1.2 m -85.107,1.9 c -1.036,1.496 -1.372,2.1 -1.17,2.1 0.094,0 0.647,-0.72 1.23,-1.6 1.183,-1.788 1.131,-2.221 -0.06,-0.5 m 81.107,-0.071 c 0,0.298 1.075,1.371 1.375,1.371 0.127,0 0.007,-0.36 -0.268,-0.8 -0.469,-0.751 -1.107,-1.08 -1.107,-0.571 m -54.046,5.671 c -2.666,5.848 -2.765,6.996 -2.661,30.9 l 0.094,21.4 0.237,-22 c 0.139,-12.802 0.411,-22.753 0.652,-23.8 0.622,-2.704 1.61,-5.535 2.829,-8.1 0.078,-0.165 0.046,-0.3 -0.071,-0.3 -0.118,0 -0.604,0.855 -1.08,1.9 m 57.248,-0.48 c 0.002,0.209 0.233,0.83 0.513,1.38 0.281,0.55 0.72,1.72 0.976,2.6 0.256,0.88 0.604,2.05 0.773,2.6 0.17,0.55 0.408,11.17 0.53,23.6 l 0.222,22.6 0.078,-22 c 0.081,-22.971 0.063,-23.278 -1.688,-28.4 -0.659,-1.925 -1.409,-3.197 -1.404,-2.38 m -47.34,4.111 c -1.167,1.29 -0.979,18.942 0.213,20.053 2.281,2.125 3.866,0.472 4.012,-4.184 l 0.113,-3.6 0.928,1.939 c 0.51,1.066 1.017,1.849 1.127,1.74 0.298,-0.298 -1.806,-4.279 -2.262,-4.279 -0.229,0 -0.393,1.549 -0.393,3.72 0,4.024 -0.28,4.68 -2,4.68 -1.938,0 -2,-0.316 -2,-10.257 0,-9.154 0.014,-9.307 0.889,-9.92 0.489,-0.343 0.697,-0.623 0.462,-0.623 -0.235,0 -0.725,0.329 -1.089,0.731 m 15.638,0.156 c -0.972,1.216 -0.358,3.513 0.938,3.513 0.216,0 0.026,-0.394 -0.422,-0.875 -1.041,-1.118 -1.026,-1.351 0.166,-2.543 0.54,-0.54 0.765,-0.98 0.5,-0.977 -0.265,0.003 -0.797,0.4 -1.182,0.882 m 10.425,-0.071 c 1.086,1.012 1.106,1.753 0.075,2.784 -0.44,0.44 -0.595,0.8 -0.344,0.8 0.65,0 1.519,-1.258 1.519,-2.2 0,-0.987 -0.88,-2.2 -1.595,-2.2 -0.329,0 -0.198,0.31 0.345,0.816 m 4.546,-0.187 c -0.291,0.329 -0.471,0.764 -0.4,0.966 0.071,0.201 0.52,-0.075 0.999,-0.614 0.478,-0.54 0.658,-0.974 0.4,-0.966 -0.259,0.009 -0.708,0.285 -0.999,0.614 M 219.2,174.4 c 0.776,0.501 1.2,0.501 1.2,0 0,-0.22 -0.405,-0.397 -0.9,-0.394 -0.728,0.005 -0.785,0.08 -0.3,0.394 m 2.818,1.4 c 0,0.22 0.352,0.85 0.782,1.4 0.43,0.55 0.782,0.82 0.782,0.6 0,-0.22 -0.352,-0.85 -0.782,-1.4 -0.43,-0.55 -0.782,-0.82 -0.782,-0.6 m -29.707,1.774 c 0.371,0.646 0.753,1.096 0.849,1 0.245,-0.246 -0.827,-2.174 -1.209,-2.174 -0.173,0 -0.011,0.528 0.36,1.174 m -6.95,2.523 c 0.044,1.899 1.878,2.702 3.022,1.323 0.348,-0.419 0.37,-0.62 0.066,-0.62 -0.247,0 -0.449,0.18 -0.449,0.4 0,1.443 -2.363,0.314 -2.516,-1.203 l -0.162,-1.603 0.039,1.703 m 15.127,4.203 -0.088,6.1 h -0.942 c -2.061,0 -3.582,2.354 -2.471,3.824 0.709,0.937 0.808,0.477 0.131,-0.607 -0.652,-1.044 0.562,-2.417 2.136,-2.417 1.499,0 1.605,-0.541 1.449,-7.4 l -0.128,-5.6 -0.087,6.1 m 4.495,0.3 0.017,6.4 1.1,0.127 c 0.605,0.069 1.1,-0.066 1.1,-0.3 0,-0.235 -0.445,-0.427 -0.99,-0.427 h -0.989 l -0.127,-6.1 -0.127,-6.1 0.016,6.4 M 216.07,180.1 216,182 h 1.376 c 0.757,0 1.481,-0.169 1.609,-0.376 0.138,-0.223 -0.332,-0.285 -1.151,-0.152 l -1.383,0.224 -0.156,-1.748 -0.155,-1.748 -0.07,1.9 m 2.33,-1.349 c 0,0.247 0.167,0.449 0.372,0.449 0.205,0 0.45,0.405 0.546,0.9 0.166,0.862 0.175,0.864 0.228,0.049 0.029,-0.468 -0.216,-1.075 -0.546,-1.349 -0.415,-0.344 -0.6,-0.359 -0.6,-0.049 m 5.301,1.449 c 0.004,0.88 0.086,1.193 0.182,0.695 0.096,-0.497 0.092,-1.217 -0.008,-1.6 -0.1,-0.382 -0.179,0.025 -0.174,0.905 m -31.022,1.557 c -0.164,0.417 -0.204,0.852 -0.088,0.967 0.364,0.365 0.685,-0.233 0.533,-0.993 -0.141,-0.696 -0.162,-0.695 -0.445,0.026 m 29.953,1.65 c -1.012,1.544 -3.001,2.59 -4.932,2.592 L 216,186 l 0.081,3.5 0.082,3.5 0.135,-3.3 0.134,-3.3 h 1.604 c 2.369,0 6.439,-2.858 5.462,-3.836 -0.104,-0.104 -0.494,0.275 -0.866,0.843 m 13.563,19.793 0.005,20.2 1.871,0.215 c 1.029,0.119 1.784,0.074 1.677,-0.1 -0.108,-0.173 -0.903,-0.315 -1.768,-0.315 h -1.573 l -0.109,-20.1 -0.109,-20.1 0.006,20.2 m -45.578,-18.053 c -0.245,0.77 0.446,3.124 0.809,2.76 0.112,-0.112 -0.009,-0.672 -0.27,-1.243 -0.371,-0.815 -0.364,-1.173 0.034,-1.652 0.311,-0.375 0.345,-0.612 0.086,-0.612 -0.232,0 -0.529,0.336 -0.659,0.747 m 17.359,6.804 c 0.391,0.734 0.401,1.182 0.043,1.967 -0.411,0.901 -0.392,0.958 0.159,0.5 0.817,-0.677 0.794,-2.178 -0.043,-2.869 -0.607,-0.501 -0.621,-0.465 -0.159,0.402 M 193.2,193 c 0,0.596 0.172,0.941 0.4,0.8 0.22,-0.136 0.4,-0.496 0.4,-0.8 0,-0.304 -0.18,-0.664 -0.4,-0.8 -0.228,-0.141 -0.4,0.204 -0.4,0.8 m 18.416,0.284 c -0.02,0.836 1.502,2.321 2.359,2.303 0.864,-0.017 2.028,-0.96 2.013,-1.631 -0.009,-0.386 -0.137,-0.342 -0.42,0.144 -0.665,1.141 -2.631,0.906 -3.339,-0.4 -0.412,-0.759 -0.602,-0.888 -0.613,-0.416 M 190.6,195.2 c 0.136,0.22 0.597,0.4 1.024,0.4 0.427,0 0.776,-0.18 0.776,-0.4 0,-0.22 -0.461,-0.4 -1.024,-0.4 -0.58,0 -0.916,0.173 -0.776,0.4 m 7.662,0.1 c 0.102,0.165 2.155,0.3 4.562,0.3 2.407,0 4.376,-0.135 4.376,-0.3 0,-0.165 -2.053,-0.3 -4.562,-0.3 -2.509,0 -4.478,0.135 -4.376,0.3 m -64.542,3.5 c 0,1.21 0.075,1.705 0.167,1.1 0.091,-0.605 0.091,-1.595 0,-2.2 -0.092,-0.605 -0.167,-0.11 -0.167,1.1 m 133.594,0.2 c 0.003,1.1 0.081,1.503 0.173,0.895 0.092,-0.609 0.09,-1.509 -0.005,-2 -0.095,-0.492 -0.171,0.005 -0.168,1.105 m 0.014,6.6 c 0,1.43 0.073,2.015 0.161,1.3 0.089,-0.715 0.089,-1.885 0,-2.6 -0.088,-0.715 -0.161,-0.13 -0.161,1.3 m -133.608,0.8 c 0,1.21 0.075,1.705 0.167,1.1 0.091,-0.605 0.091,-1.595 0,-2.2 -0.092,-0.605 -0.167,-0.11 -0.167,1.1 m 6.229,11.5 c -0.477,0.609 -0.471,0.64 0.051,0.243 0.33,-0.251 0.96,-0.545 1.4,-0.654 0.76,-0.186 0.757,-0.199 -0.051,-0.243 -0.468,-0.025 -1.098,0.269 -1.4,0.654 m 20.613,6.2 c -0.756,0.893 -0.756,0.895 0.038,0.23 0.44,-0.369 1.52,-0.744 2.4,-0.833 l 1.6,-0.163 -1.638,-0.067 c -1.258,-0.051 -1.815,0.142 -2.4,0.833 m 80.399,7.5 c 0,3.41 0.061,4.805 0.136,3.1 0.075,-1.705 0.075,-4.495 0,-6.2 -0.075,-1.705 -0.136,-0.31 -0.136,3.1 m -76.877,-0.1 -0.084,4.1 h 36.4 36.4 l -0.084,-4.1 -0.083,-4.1 -0.131,3.9 -0.131,3.9 H 200.4 164.429 l -0.131,-3.9 -0.131,-3.9 -0.083,4.1 m 36.516,8.1 -39.2,0.206 39.076,0.097 c 25.725,0.064 39.161,-0.04 39.324,-0.303 0.136,-0.22 0.192,-0.356 0.124,-0.303 -0.068,0.053 -17.764,0.19 -39.324,0.303 m -50.2,7.8 c 0.746,0.77 1.447,1.4 1.557,1.4 0.11,0 -0.411,-0.63 -1.157,-1.4 -0.746,-0.77 -1.447,-1.4 -1.557,-1.4 -0.11,0 0.411,0.63 1.157,1.4 m 97.385,3.1 -1.985,2.1 2.1,-1.985 c 1.951,-1.844 2.283,-2.215 1.985,-2.215 -0.063,0 -1.008,0.945 -2.1,2.1 M 210.5,269.476 c 0.385,0.1 1.015,0.1 1.4,0 0.385,-0.101 0.07,-0.183 -0.7,-0.183 -0.77,0 -1.085,0.082 -0.7,0.183 m -12.4,0.821 c 1.485,0.077 3.915,0.077 5.4,0 1.485,-0.077 0.27,-0.14 -2.7,-0.14 -2.97,0 -4.185,0.063 -2.7,0.14"
       stroke="none"
       fill="#bcbcbc"
       fill-rule="evenodd" />
  </g>
</svg>
