<?xml version="1.0" encoding="UTF-8" standalone="no"?>
<!-- Created with Inkscape (http://www.inkscape.org/) -->

<svg
   width="100"
   height="100"
   viewBox="0 0 100 100"
   version="1.1"
   id="svg1"
   xml:space="preserve"
   xmlns="http://www.w3.org/2000/svg"
   xmlns:svg="http://www.w3.org/2000/svg"><defs
     id="defs1" /><g
     id="layer1"><g
       id="g1"
       transform="scale(0.1953125)"><path
         d="M 0,0 H 512 V 512 H 0 Z"
         id="path1" /><path
         fill="#ffffff"
         d="m 319.61,20.654 c 13.145,33.114 13.144,33.115 -5.46,63.5 33.114,-13.145 33.116,-13.146 63.5,5.457 -13.145,-33.114 -13.146,-33.113 5.457,-63.498 -33.114,13.146 -33.113,13.145 -63.498,-5.459 z M 113.024,38.021 c -11.808,21.04 -11.808,21.04 -35.724,24.217 21.04,11.809 21.04,11.808 24.217,35.725 11.808,-21.04 11.808,-21.04 35.724,-24.217 -21.04,-11.808 -21.04,-11.808 -24.217,-35.725 m 76.55,56.184 c -0.952,50.588 -0.95,50.588 -41.991,80.18 50.587,0.95 50.588,0.95 80.18,41.99 0.95,-50.588 0.95,-50.588 41.99,-80.18 -50.588,-0.95 -50.588,-0.95 -80.18,-41.99 z m 191.177,55.885 c -0.046,24.127 -0.048,24.125 -19.377,38.564 24.127,0.047 24.127,0.046 38.566,19.375 0.047,-24.126 0.046,-24.125 19.375,-38.564 -24.126,-0.047 -24.125,-0.046 -38.564,-19.375 m -184.086,83.88 a 96,96 0 0 0 -3.492,0.134 c -18.591,1.064 -41.868,8.416 -77.445,22.556 L 76.012,433.582 c 78.487,-20.734 132.97,-21.909 170.99,-4.615 V 247.71 c -18.076,-8.813 -31.79,-13.399 -46.707,-13.737 a 91,91 0 0 0 -3.629,-0.002 z m 122.686,11.42 a 209,209 0 0 0 -8.514,0.098 c -12.81,0.417 -27.638,2.215 -45.84,4.522 v 177.135 c 43.565,-7.825 106.85,-4.2 171.244,7.566 l -39.78,-177.197 c -35.904,-8.37 -56.589,-11.91 -77.11,-12.123 z m 2.289,16.95 c 18.889,0.204 36.852,2.768 53.707,5.02 l 4.437,16.523 c -23.78,-3.75 -65.966,-4.906 -92.467,-0.98 l -0.636,-17.805 c 11.959,-2.154 23.625,-2.88 34.959,-2.758 M 71.157,266.998 60.54,313.002 H 84.634 L 94.96,266.998 H 71.158 Z m 345.881,0 39.742,177.031 2.239,9.973 22.591,-0.152 -40.855,-186.852 z m -78.857,57.82 c 16.993,0.026 33.67,0.791 49.146,2.223 l 3.524,17.174 c -32.645,-3.08 -72.58,-2.889 -102.995,0 l -0.709,-17.174 c 16.733,-1.533 34.04,-2.248 51.034,-2.223 m -281.793,6.18 -6.924,30.004 h 24.394 l 6.735,-30.004 H 56.389 Z m 274.418,27.244 c 4.656,0.021 9.487,0.085 14.716,0.203 l 2.555,17.498 c -19.97,-0.471 -47.115,0.56 -59.728,1.05 l -0.7,-17.985 c 16.803,-0.493 29.189,-0.828 43.157,-0.766 m 41.476,0.447 c 8.268,0.042 16.697,0.334 24.121,0.069 l 2.58,17.74 c -8.653,-0.312 -24.87,-0.83 -32.064,-0.502 l -2.807,-17.234 a 257,257 0 0 1 8.17,-0.073 m -326.97,20.309 -17.985,77.928 25.035,-0.17 17.455,-77.758 H 45.313 Z m 303.164,11.848 c 19.608,-0.01 38.66,0.774 56.449,2.572 l 2.996,20.787 c -34.305,-4.244 -85.755,-7.697 -119.1,-3.244 l -0.14,-17.922 c 20.02,-1.379 40.186,-2.183 59.795,-2.193 m -166.606,44.05 c -30.112,0.09 -67.916,6.25 -115.408,19.76 l -7.22,2.053 187.759,-1.27 v -6.347 c -16.236,-9.206 -37.42,-14.278 -65.13,-14.196 z m 134.41,6.174 c -19.63,0.067 -37.112,1.439 -51.283,4.182 v 10.064 l 177.594,-1.203 c -44.322,-8.634 -89.137,-13.17 -126.31,-13.043 z M 26,475 v 18 h 460 v -18 z"
         id="path2" /></g></g></svg>
