<?xml version="1.0" encoding="UTF-8" standalone="no"?>
<!-- Created with Inkscape (http://www.inkscape.org/) -->

<svg
   width="100"
   height="100"
   viewBox="0 0 100 100"
   version="1.1"
   id="svg1"
   xml:space="preserve"
   xmlns="http://www.w3.org/2000/svg"
   xmlns:svg="http://www.w3.org/2000/svg"><defs
     id="defs1" /><g
     id="layer1"><g
       id="g1"
       transform="scale(0.1953125)"><path
         d="M 0,0 H 512 V 512 H 0 Z"
         id="path1" /><path
         fill="#ffffff"
         d="m 127.947,80.889 v 25.302 H 381.844 V 80.89 H 127.947 Z m 43.074,38.166 v 46.84 H 337.79 v -46.84 z m -32.726,1.033 v 112.324 h 20.422 V 120.088 Z m 214.121,0 v 112.324 h 20.422 V 120.088 Z M 171.021,200.31 v 32.156 H 337.79 V 200.31 Z M 26.543,245.744 v 18.602 h 450.853 v -18.602 z m 120.877,33.104 -42.746,8.94 16.512,7.81 -106.874,98.022 0.24,0.113 127.635,60.409 0.014,-0.268 c 0,0 1.787,-35.526 3.893,-71.377 1.052,-17.925 2.186,-35.93 3.213,-49.617 0.513,-6.843 1,-12.607 1.437,-16.738 0.22,-2.066 0.427,-3.723 0.617,-4.9 0.096,-0.59 0.186,-1.06 0.272,-1.395 0.069,-0.27 0.13,-0.38 0.166,-0.452 l 15.31,7.069 z m 217.937,0 -19.687,37.617 15.31,-7.069 c 0.037,0.072 0.096,0.182 0.165,0.452 0.085,0.336 0.178,0.805 0.273,1.394 0.19,1.178 0.396,2.835 0.615,4.9 0.438,4.132 0.926,9.896 1.44,16.739 1.027,13.686 2.158,31.692 3.21,49.617 a 9809,9809 0 0 1 3.895,71.377 l 0.014,0.268 127.875,-60.522 -0.196,-0.18 -106.68,-97.843 16.513,-7.81 z m -110.795,1.84 -43.517,33.1 21.555,0.103 c 0,0.034 0.006,0.035 0.002,0.082 a 5,5 0 0 1 -0.082,0.533 22,22 0 0 1 -0.461,1.771 c -0.434,1.476 -1.116,3.522 -2.01,6.047 -1.788,5.051 -4.424,12.031 -7.63,20.283 -6.41,16.504 -15.098,38.099 -23.831,59.555 -17.466,42.913 -35.117,85.276 -35.117,85.276 l -0.133,0.318 180.691,-0.85 -0.125,-0.312 -68.449,-172.104 23.324,-0.103 -44.216,-33.7 z"
         id="path2" /></g></g></svg>
