<?xml version="1.0" encoding="UTF-8" standalone="no"?>
<!-- Created with Inkscape (http://www.inkscape.org/) -->

<svg
   width="100"
   height="100"
   viewBox="0 0 100 100"
   version="1.1"
   id="svg1"
   xml:space="preserve"
   xmlns="http://www.w3.org/2000/svg"
   xmlns:svg="http://www.w3.org/2000/svg"><defs
     id="defs1" /><g
     id="layer1"><g
       id="g1"
       transform="scale(0.1953125)"><path
         d="M 0,0 H 512 V 512 H 0 Z"
         id="path1" /><path
         fill="#ffffff"
         d="M 247,32 V 55.21 C 143.25,59.8 59.798,143.25 55.21,247 H 32 v 18 H 55.21 C 59.8,368.75 143.25,452.202 247,456.79 V 480 h 18 V 456.79 C 368.75,452.2 452.202,368.75 456.79,265 H 480 V 247 H 456.79 C 452.2,143.25 368.75,59.798 265,55.21 V 32 Z m 0,41.223 V 128 h 18 V 73.223 C 359,77.76 434.24,153 438.777,247 H 384 v 18 h 54.777 C 434.24,359 359,434.24 265,438.777 V 384 h -18 v 54.777 C 153,434.24 77.76,359 73.223,265 H 128 V 247 H 73.223 C 77.76,153 153,77.76 247,73.223 M 247,224 v 23 h -23 v 18 h 23 v 23 h 18 v -23 h 23 v -18 h -23 v -23 z"
         id="path2" /></g></g></svg>
