<?xml version="1.0" encoding="UTF-8" standalone="no"?>
<!-- Created with Inkscape (http://www.inkscape.org/) -->

<svg
   width="100"
   height="100"
   viewBox="0 0 100 100"
   version="1.1"
   id="svg1"
   xml:space="preserve"
   xmlns="http://www.w3.org/2000/svg"
   xmlns:svg="http://www.w3.org/2000/svg"><defs
     id="defs1" /><g
     id="layer1"><g
       id="g1"
       transform="scale(0.1953125)"><path
         d="M 0,0 H 512 V 512 H 0 Z"
         id="path1" /><path
         fill="#ffffff"
         d="m 256,27 c -7.2,0 -14.6,1.01 -19.2,2.54 -2,0.69 -3.2,1.44 -3.8,1.85 V 169.2 c 7.7,-0.1 15.3,-0.2 23,-0.2 7.7,0 15.3,0.1 23,0.2 V 31.39 c -0.6,-0.41 -1.8,-1.16 -3.8,-1.85 C 270.6,28.01 263.2,27 256,27 m -41,18.77 c -29.1,9.82 -55.3,29.91 -76.3,57.63 -15.7,20.7 -28.5,45.8 -37.1,73.7 40.4,-3.9 77.3,-6.4 113.4,-7.5 z m 82,0 V 169.6 c 36.1,1.1 73,3.6 113.4,7.5 -8.6,-27.9 -21.4,-53 -37.1,-73.7 C 352.3,75.68 326.1,55.59 297,45.77 M 256,187 c -59.6,0 -119.2,4 -191.01,11.9 L 64.5,199 H 64 c -0.62,0 -1.39,0.1 -3.34,2.6 -1.96,2.6 -4.22,7.4 -6.03,13.5 C 51.02,227.3 49,244.7 49,262 c 0,17.3 2.02,34.7 5.63,46.9 1.81,6.1 4.07,10.9 6.03,13.5 1.95,2.5 2.72,2.6 3.34,2.6 111.1,0 142,-16 192,-16 50,0 80.9,16 192,16 0.6,0 1.4,-0.1 3.3,-2.6 2,-2.6 4.3,-7.4 6.1,-13.5 3.6,-12.2 5.6,-29.6 5.6,-46.9 0,-17.3 -2,-34.7 -5.6,-46.9 -1.8,-6.1 -4.1,-10.9 -6.1,-13.5 -1.9,-2.5 -2.7,-2.6 -3.3,-2.6 h -0.5 L 447,198.9 C 375.2,191 315.6,187 256,187 M 88,221 c 9.28,0 17,7.7 17,17 0,9.3 -7.72,17 -17,17 -9.28,0 -17,-7.7 -17,-17 0,-9.3 7.72,-17 17,-17 m 168,106 c -40.7,0 -71.3,12.5 -155.8,15.4 8.7,29.7 21.9,56.3 38.5,78.2 30.5,40.2 71.9,64.4 117.3,64.4 45.4,0 86.8,-24.2 117.3,-64.4 16.6,-21.9 29.8,-48.5 38.5,-78.2 C 327.3,339.5 296.7,327 256,327 m 206.5,9.8 c -3.9,3.6 -8.8,6.2 -14.5,6.2 h -2.5 c 1,4 2,8.3 3,12.8 4.4,19.6 8,43.5 6.6,57.2 -1.3,11.9 -9,27.9 -16.4,43.9 -7.5,16.1 -14.5,28.7 -14.5,28.7 l 15.6,8.8 c 0,0 7.4,-13.1 15.2,-29.9 7.8,-16.8 16.1,-32.8 17.9,-49.5 2.1,-18.6 -2.3,-42.7 -6.8,-63.1 -1.2,-5.4 -2.4,-10.5 -3.6,-15.1 M 224,349 h 64 v 18 h -64 z m -32,56 h 128 v 18 H 192 Z"
         id="path2" /></g></g></svg>
