<?xml version="1.0" encoding="UTF-8" standalone="no"?>
<!-- Created with Inkscape (http://www.inkscape.org/) -->

<svg
   width="100"
   height="100"
   viewBox="0 0 100 100"
   version="1.1"
   id="svg1"
   xml:space="preserve"
   xmlns="http://www.w3.org/2000/svg"
   xmlns:svg="http://www.w3.org/2000/svg"><defs
     id="defs1" /><g
     id="layer1"><g
       id="g1"
       transform="scale(0.1953125)"><path
         d="M 0,0 H 512 V 512 H 0 Z"
         id="path1" /><path
         fill="#ffffff"
         d="m 255.03,33.813 a 229,229 0 0 0 -5.5,0.03 c -6.73,0.14 -13.462,0.605 -20.155,1.344 0.333,0.166 0.544,0.32 0.47,0.438 l -25.065,39.438 73.907,49.437 -0.125,0.188 70.625,0.28 L 371,79.282 342.844,52 a 225.6,225.6 0 0 0 -49.47,-14.78 c -12.65,-2.24 -25.497,-3.36 -38.343,-3.407 z m -64.123,54.437 -73.656,36.78 -13.813,98.407 51.344,33.657 94.345,-43.438 14.875,-76.5 z m 196.344,0.344 -21.25,44.5 36.75,72.72 62.063,38.905 11.312,-21.282 c 0.225,0.143 0.45,0.403 0.656,0.75 -0.77,-4.954 -1.71,-9.893 -2.81,-14.782 -6.446,-28.59 -18.59,-55.962 -35.5,-79.97 -9.07,-12.872 -19.526,-24.778 -31.095,-35.5 l -20.125,-5.342 z m -302.656,23 c -6.906,8.045 -13.257,16.56 -18.938,25.5 -15.676,24.664 -26.44,52.494 -31.437,81.312 A 223,223 0 0 0 31,261 l 20.25,5.094 33.03,-40.5 L 98.75,122.53 84.594,111.594 Z m 312.719,112.844 -55.813,44.75 -3.47,101.093 39.626,21.126 77.188,-49.594 4.406,-78.75 -0.094,0.157 -61.844,-38.783 z m -140.844,6.406 -94.033,43.312 -1.218,76.625 89.155,57.376 68.938,-36.437 3.437,-101.75 -66.28,-39.126 z m -224.22,49.75 c 0.91,8.436 2.29,16.816 4.156,25.094 6.445,28.59 18.62,55.96 35.532,79.968 3.873,5.5 8.02,10.805 12.374,15.938 l -9.374,-48.156 0.124,-0.032 -27.03,-68.844 z m 117.188,84.844 -51.532,8.156 10.125,52.094 a 225,225 0 0 0 27.314,20.437 226.3,226.3 0 0 0 46.687,22.594 l 62.626,-13.69 -4.344,-31.124 -90.875,-58.47 z m 302.437,0.5 -64.22,41.25 -42,47.375 4.408,6.156 c 12.027,-5.545 23.57,-12.144 34.406,-19.72 23.97,-16.76 44.604,-38.304 60.28,-62.97 2.51,-3.947 4.87,-7.99 7.125,-12.092 z m -122.78,97.656 -79.94,9.625 -25.968,5.655 c 26.993,4 54.717,3.044 81.313,-2.813 9.412,-2.072 18.684,-4.79 27.75,-8.062 l -3.156,-4.406 z"
         id="path2" /></g></g></svg>
