<?xml version="1.0" encoding="UTF-8" standalone="no"?>
<svg
   id="svg"
   version="1.1"
   width="100"
   height="85.477318"
   viewBox="0 0 100 85.477318"
   xmlns="http://www.w3.org/2000/svg"
   xmlns:svg="http://www.w3.org/2000/svg">
  <defs
     id="defs1" />
  <g
     id="svgg"
     transform="matrix(0.25022004,0,0,0.25022004,-0.03797089,-7.3064252)">
    <path
       id="path0"
       d="m 149.403,115.595 c -0.138,0.223 -0.579,0.405 -0.981,0.405 -1.73,0 -5.341,2.857 -6.369,5.039 -0.3,0.639 -0.705,1.474 -0.9,1.856 -0.194,0.382 -0.353,6.091 -0.353,12.686 v 11.992 l 1.413,1.414 1.414,1.413 h 32.858 c 23.749,0 33.254,-0.128 34.287,-0.462 5.091,-1.646 9.807,-5.444 11.597,-9.338 0.505,-1.1 1.079,-2.313 1.275,-2.695 0.492,-0.959 0.454,-9.397 -0.044,-9.705 -0.22,-0.136 -0.4,-0.561 -0.4,-0.944 0,-0.875 -0.899,-2.849 -1.3,-2.853 -0.165,-0.002 -0.301,-0.228 -0.301,-0.503 -0.004,-1.436 -6.509,-7.1 -8.153,-7.1 -0.33,0 -0.698,-0.16 -0.819,-0.356 -0.623,-1.008 -62.611,-1.841 -63.224,-0.849 m 6.397,9.605 c 0.136,0.22 0.625,0.4 1.086,0.4 1.046,0 3.514,1.84 3.514,2.62 0,0.319 0.18,0.58 0.4,0.58 0.595,0 0.508,7.418 -0.1,8.501 -2.181,3.883 -7.248,4.515 -10.459,1.304 -3.506,-3.507 -1.509,-13.005 2.735,-13.005 0.537,0 1.088,-0.18 1.224,-0.4 0.136,-0.22 0.496,-0.4 0.8,-0.4 0.304,0 0.664,0.18 0.8,0.4 m 33.6,0 c 0.136,0.22 0.599,0.4 1.029,0.4 2.994,0 4.371,2.393 4.371,7.595 0,2.403 -0.16,4.005 -0.4,4.005 -0.22,0 -0.4,0.204 -0.4,0.453 0,0.724 -1.951,2.203 -3.643,2.761 -2.182,0.72 -4.503,-0.026 -6.457,-2.075 l -1.5,-1.573 0.029,-3.683 c 0.032,-3.993 0.649,-5.736 2.295,-6.478 0.482,-0.217 0.876,-0.532 0.876,-0.7 0,-0.168 0.439,-0.305 0.976,-0.305 0.537,0 1.088,-0.18 1.224,-0.4 0.136,-0.22 0.496,-0.4 0.8,-0.4 0.304,0 0.664,0.18 0.8,0.4"
       stroke="none"
       fill="#feccbe"
       fill-rule="evenodd" />
    <path
       id="path1"
       d="m 360.6,29.6 c -0.136,0.22 -0.867,0.4 -1.624,0.4 -0.757,0 -1.376,0.18 -1.376,0.4 0,0.22 -0.54,0.4 -1.2,0.4 -0.66,0 -1.2,0.18 -1.2,0.4 0,0.22 -0.36,0.4 -0.8,0.4 -0.44,0 -0.8,0.18 -0.8,0.4 0,0.22 -0.36,0.4 -0.8,0.4 -0.44,0 -0.8,0.15 -0.8,0.332 0,0.183 -0.489,0.588 -1.088,0.9 -1.792,0.936 -5.351,4.189 -6.512,5.954 -0.33,0.502 -0.825,1.147 -1.1,1.434 -0.275,0.288 -0.5,0.806 -0.5,1.151 0,0.346 -0.18,0.629 -0.4,0.629 -0.22,0 -0.4,0.27 -0.4,0.6 0,0.33 -0.18,0.6 -0.4,0.6 -0.22,0 -0.4,0.36 -0.4,0.8 0,0.44 -0.18,0.8 -0.4,0.8 -0.22,0 -0.4,0.349 -0.4,0.776 0,0.427 -0.18,0.888 -0.4,1.024 -0.22,0.136 -0.4,0.867 -0.4,1.624 0,0.757 -0.18,1.376 -0.4,1.376 -0.247,0 -0.4,2.067 -0.4,5.4 0,3.333 -0.153,5.4 -0.4,5.4 -0.22,0 -0.4,0.236 -0.4,0.525 0,0.288 -0.315,0.873 -0.7,1.3 -0.385,0.426 -0.955,1.27 -1.268,1.875 -0.312,0.605 -0.717,1.1 -0.9,1.1 -0.182,0 -0.332,0.32 -0.332,0.712 0,0.391 -0.36,0.971 -0.8,1.288 -0.44,0.317 -0.8,0.857 -0.8,1.2 0,0.343 -0.36,0.883 -0.8,1.2 -0.44,0.317 -0.8,0.857 -0.8,1.2 0,0.343 -0.36,0.883 -0.8,1.2 -0.44,0.317 -0.8,0.897 -0.8,1.288 0,0.392 -0.15,0.712 -0.332,0.712 -0.183,0 -0.588,0.495 -0.9,1.1 -0.313,0.605 -0.793,1.338 -1.068,1.629 -0.275,0.29 -0.5,0.785 -0.5,1.1 0,0.314 -0.15,0.571 -0.332,0.571 -0.183,0 -0.588,0.495 -0.9,1.1 -0.313,0.605 -0.883,1.449 -1.268,1.875 -0.385,0.427 -0.7,1.012 -0.7,1.3 0,0.289 -0.15,0.525 -0.332,0.525 -0.183,0 -0.588,0.495 -0.9,1.1 -0.313,0.605 -0.883,1.449 -1.268,1.875 -0.385,0.427 -0.7,1.012 -0.7,1.3 0,0.289 -0.158,0.525 -0.351,0.525 -0.194,0 -0.576,0.54 -0.849,1.2 -0.273,0.66 -0.655,1.2 -0.849,1.2 -0.193,0 -0.351,0.236 -0.351,0.525 0,0.288 -0.36,0.911 -0.8,1.383 -0.44,0.472 -0.8,1.046 -0.8,1.275 0,0.229 -0.15,0.417 -0.332,0.417 -0.183,0 -0.588,0.495 -0.9,1.1 -0.954,1.849 -2.768,2.981 -2.768,1.727 0,-0.205 -0.359,-0.487 -0.798,-0.626 -0.438,-0.139 -1.028,-0.467 -1.31,-0.727 -1.019,-0.94 -2.926,-2.167 -3.8,-2.445 -0.49,-0.155 -0.892,-0.451 -0.892,-0.656 0,-0.205 -0.236,-0.373 -0.525,-0.373 -0.288,0 -0.911,-0.36 -1.383,-0.8 -0.472,-0.44 -1.136,-0.8 -1.475,-0.8 -0.339,0 -0.617,-0.18 -0.617,-0.4 0,-0.22 -0.54,-0.4 -1.2,-0.4 -0.66,0 -1.2,-0.18 -1.2,-0.4 0,-0.235 -1.4,-0.4 -3.4,-0.4 -2,0 -3.4,0.165 -3.4,0.4 0,0.22 -0.54,0.4 -1.2,0.4 -0.66,0 -1.2,0.18 -1.2,0.4 0,0.22 -0.241,0.4 -0.536,0.4 -0.658,0 -4.264,3.35 -4.264,3.96 0,0.242 -0.15,0.44 -0.332,0.44 -0.183,0 -0.588,0.495 -0.9,1.1 -0.313,0.605 -0.883,1.449 -1.268,1.875 -0.385,0.427 -0.7,1.012 -0.7,1.3 0,0.289 -0.158,0.525 -0.351,0.525 -0.194,0 -0.576,0.54 -0.849,1.2 -0.273,0.66 -0.643,1.2 -0.822,1.2 -0.178,0 -0.438,0.359 -0.577,0.798 -0.139,0.438 -0.467,1.027 -0.727,1.307 -0.951,1.023 -1.874,3.045 -1.874,4.106 0,0.921 -0.092,1.011 -0.6,0.589 -0.33,-0.274 -0.6,-1.016 -0.6,-1.649 0,-0.633 -0.162,-1.151 -0.361,-1.151 -0.198,0 -0.486,-1.08 -0.639,-2.4 -0.153,-1.32 -0.441,-2.4 -0.639,-2.4 -0.199,0 -0.361,-0.343 -0.361,-0.762 0,-0.419 -0.34,-1.454 -0.755,-2.3 -0.416,-0.846 -1.522,-3.113 -2.458,-5.038 -0.937,-1.925 -1.857,-3.5 -2.045,-3.5 -0.188,0 -0.342,-0.36 -0.342,-0.8 0,-0.44 -0.18,-0.8 -0.4,-0.8 -0.22,0 -0.4,-0.236 -0.4,-0.525 0,-0.288 -0.36,-0.911 -0.8,-1.383 -0.44,-0.472 -0.8,-1.001 -0.801,-1.175 0,-0.174 -0.54,-0.947 -1.199,-1.717 -0.659,-0.77 -1.199,-1.541 -1.199,-1.713 -10e-4,-0.173 -0.586,-0.916 -1.301,-1.652 -0.715,-0.736 -1.84,-2.003 -2.5,-2.815 -1.993,-2.453 -5.513,-5.979 -7,-7.011 -0.77,-0.534 -1.691,-1.295 -2.047,-1.69 -0.356,-0.395 -1.121,-0.719 -1.7,-0.719 -0.579,0 -1.053,-0.18 -1.053,-0.4 0,-0.22 -0.63,-0.4 -1.4,-0.4 -0.77,0 -1.4,0.18 -1.4,0.4 0,0.22 -0.405,0.406 -0.9,0.413 -1.207,0.017 -2.264,0.872 -2.246,1.817 0.008,0.423 -0.246,1.58 -0.565,2.57 -0.934,2.899 -0.242,4.186 4.868,9.048 4.157,3.955 8.915,9.714 10.865,13.152 4.891,8.621 7.123,14.794 8.605,23.8 0.803,4.883 0.803,42.317 0,47.2 -2.195,13.34 -7.897,25.151 -16.367,33.9 l -2.033,2.1 h -44.274 -44.274 l -2.78,-2.976 c -3.695,-3.957 -7.113,-9.051 -9.68,-14.424 -1.157,-2.42 -2.264,-4.713 -2.461,-5.095 -0.197,-0.382 -0.358,-1.046 -0.358,-1.476 0,-0.43 -0.18,-0.893 -0.4,-1.029 -0.22,-0.136 -0.4,-0.599 -0.4,-1.029 0,-0.43 -0.164,-1.094 -0.365,-1.476 -0.2,-0.382 -0.58,-1.775 -0.843,-3.095 -0.263,-1.32 -0.639,-2.922 -0.835,-3.56 -0.196,-0.638 -0.357,-2.168 -0.357,-3.4 v -2.24 l 35.1,0.116 c 25.552,0.084 35.59,-0.01 36.9,-0.345 32.129,-8.238 31.834,-51.119 -0.4,-58.2 -3.397,-0.746 -61.731,-0.852 -64.649,-0.117 -1.116,0.281 -1.945,0.312 -2.176,0.081 -0.349,-0.349 3.663,-8.849 4.405,-9.334 0.17,-0.11 0.591,-0.741 0.936,-1.401 5.003,-9.575 20.634,-21.314 33.684,-25.299 7.058,-2.155 11.842,-2.901 18.602,-2.901 4.995,0 10.114,0.555 14.798,1.603 5.329,1.193 5.845,1.082 8.678,-1.866 C 228.294,62.438 229.22,60 228,60 c -0.22,0 -0.4,-0.405 -0.4,-0.9 -0.001,-1.643 -2.646,-3.9 -4.571,-3.9 -0.54,0 -1.093,-0.18 -1.229,-0.4 -0.136,-0.22 -0.957,-0.4 -1.824,-0.4 -0.867,0 -1.576,-0.18 -1.576,-0.4 0,-0.222 -1.067,-0.4 -2.4,-0.4 -1.333,0 -2.4,-0.178 -2.4,-0.4 0,-0.256 -3.733,-0.4 -10.4,-0.4 -6.667,0 -10.4,0.144 -10.4,0.4 0,0.222 -1.067,0.4 -2.4,0.4 -1.333,0 -2.4,0.178 -2.4,0.4 0,0.22 -0.799,0.4 -1.776,0.4 -0.977,0 -1.888,0.18 -2.024,0.4 -0.136,0.22 -0.777,0.4 -1.424,0.4 -0.647,0 -1.176,0.18 -1.176,0.4 0,0.22 -0.54,0.4 -1.2,0.4 -0.66,0 -1.2,0.18 -1.2,0.4 0,0.22 -0.45,0.4 -1,0.4 -0.55,0 -1,0.18 -1,0.4 0,0.22 -0.54,0.4 -1.2,0.4 -0.66,0 -1.2,0.18 -1.2,0.4 0,0.22 -0.36,0.4 -0.8,0.4 -0.44,0 -0.8,0.18 -0.8,0.4 0,0.22 -0.362,0.4 -0.805,0.4 -0.443,0 -1.118,0.171 -1.5,0.381 -0.382,0.209 -1.415,0.695 -2.295,1.079 -0.88,0.384 -1.69,0.8 -1.8,0.925 -0.11,0.124 -1.055,0.657 -2.1,1.183 -1.045,0.527 -1.9,1.066 -1.9,1.197 0,0.132 -0.52,0.47 -1.155,0.751 -0.635,0.281 -1.713,1.045 -2.396,1.698 -0.683,0.652 -1.402,1.186 -1.597,1.186 -0.196,0 -1.052,0.676 -1.904,1.502 -0.851,0.826 -2.178,1.946 -2.948,2.489 -2.298,1.62 -9.2,9.109 -9.2,9.982 0,0.235 -0.18,0.427 -0.4,0.427 -0.22,0 -0.4,0.23 -0.4,0.512 0,0.281 -0.36,0.771 -0.8,1.088 -0.44,0.317 -0.8,0.857 -0.8,1.2 0,0.343 -0.36,0.883 -0.8,1.2 -0.44,0.317 -0.8,0.857 -0.8,1.2 0,0.343 -0.36,0.883 -0.8,1.2 -0.44,0.317 -0.8,0.897 -0.8,1.288 0,0.392 -0.18,0.712 -0.4,0.712 -0.22,0 -0.4,0.36 -0.4,0.8 0,0.44 -0.18,0.8 -0.4,0.8 -0.22,0 -0.4,0.36 -0.4,0.8 0,0.44 -0.18,0.8 -0.4,0.8 -0.22,0 -0.4,0.27 -0.4,0.6 0,0.33 -0.18,0.6 -0.4,0.6 -0.22,0 -0.4,0.36 -0.4,0.8 0,0.44 -0.18,0.8 -0.4,0.8 -0.22,0 -0.4,0.36 -0.4,0.8 0,0.44 -0.18,0.8 -0.4,0.8 -0.22,0 -0.4,0.439 -0.4,0.976 0,0.537 -0.18,1.088 -0.4,1.224 -0.22,0.136 -0.4,0.597 -0.4,1.024 0,0.427 -0.18,0.776 -0.4,0.776 -0.22,0 -0.4,0.54 -0.4,1.2 0,0.66 -0.18,1.2 -0.4,1.2 -0.22,0 -0.4,0.529 -0.4,1.176 0,0.647 -0.18,1.288 -0.4,1.424 -0.22,0.136 -0.4,0.867 -0.4,1.624 0,0.757 -0.18,1.376 -0.4,1.376 -0.22,0 -0.4,0.774 -0.4,1.72 0,0.946 -0.165,1.891 -0.366,2.1 -0.93,0.964 -1.747,50.17 -0.863,51.98 0.215,0.44 0.482,1.7 0.594,2.8 0.381,3.736 0.716,5.599 1.076,5.98 0.197,0.209 0.359,0.974 0.359,1.7 0,0.726 0.18,1.32 0.4,1.32 0.22,0 0.4,0.529 0.4,1.176 0,0.647 0.18,1.288 0.4,1.424 0.22,0.136 0.4,0.687 0.4,1.224 0,0.537 0.18,0.976 0.4,0.976 0.22,0 0.4,0.54 0.4,1.2 0,0.66 0.18,1.2 0.4,1.2 0.22,0 0.4,0.272 0.4,0.605 0,0.333 0.16,0.918 0.356,1.3 0.196,0.382 0.781,1.595 1.3,2.695 0.519,1.1 1.079,2.06 1.244,2.133 0.165,0.074 0.3,0.479 0.3,0.9 0,0.422 0.18,0.767 0.4,0.767 0.22,0 0.4,0.236 0.4,0.525 0,0.288 0.36,0.911 0.8,1.383 0.44,0.472 0.8,1.136 0.8,1.475 0,0.339 0.18,0.617 0.4,0.617 0.22,0 0.4,0.27 0.4,0.6 0,0.33 0.18,0.6 0.4,0.6 0.22,0 0.4,0.23 0.4,0.512 0,0.281 0.36,0.771 0.8,1.088 1.545,1.114 0.696,1.2 -11.8,1.2 h -12.6 v -3.576 c 0,-1.967 -0.18,-3.688 -0.4,-3.824 -0.22,-0.136 -0.4,-0.777 -0.4,-1.424 0,-0.647 -0.18,-1.176 -0.4,-1.176 -0.22,0 -0.4,-0.36 -0.4,-0.8 0,-0.44 -0.18,-0.8 -0.4,-0.8 -0.22,0 -0.4,-0.273 -0.4,-0.606 0,-0.333 -1.527,-2.133 -3.394,-4 -1.867,-1.867 -3.667,-3.394 -4,-3.394 -0.333,0 -0.606,-0.18 -0.606,-0.4 0,-0.22 -0.349,-0.4 -0.776,-0.4 -0.427,0 -0.888,-0.18 -1.024,-0.4 -0.136,-0.22 -0.777,-0.4 -1.424,-0.4 -0.647,0 -1.176,-0.18 -1.176,-0.4 0,-0.254 -3.034,-0.4 -8.3,-0.4 -8.275,-10e-4 -8.303,-0.004 -9.462,-1 -0.639,-0.55 -1.494,-1 -1.9,-1 -0.406,0 -0.738,-0.18 -0.738,-0.4 0,-0.22 -0.36,-0.4 -0.8,-0.4 -0.44,0 -0.8,-0.18 -0.8,-0.4 0,-0.22 -0.36,-0.4 -0.8,-0.4 -0.44,0 -0.8,-0.18 -0.8,-0.4 0,-0.22 -0.54,-0.4 -1.2,-0.4 -0.66,0 -1.2,-0.18 -1.2,-0.4 0,-0.262 -8.192,-0.4 -23.776,-0.4 -15.42,0 -23.864,0.141 -24.024,0.4 -0.136,0.22 -0.777,0.4 -1.424,0.4 -0.647,0 -1.176,0.18 -1.176,0.4 0,0.22 -0.36,0.4 -0.8,0.4 -0.44,0 -0.8,0.18 -0.8,0.4 0,0.22 -0.36,0.4 -0.8,0.4 -0.44,0 -0.8,0.18 -0.8,0.4 0,0.22 -0.343,0.4 -0.763,0.4 -0.893,0 -7.237,6.146 -7.237,7.011 0,0.324 -0.18,0.589 -0.4,0.589 -0.22,0 -0.4,0.36 -0.4,0.8 0,0.44 -0.18,0.8 -0.4,0.8 -0.22,0 -0.4,0.272 -0.4,0.605 0,0.333 -0.158,0.918 -0.351,1.3 -0.944,1.869 -1.249,3.975 -1.249,8.623 V 202 h -1 c -0.55,0 -1,0.18 -1,0.4 0,0.22 -0.36,0.4 -0.8,0.4 -0.44,0 -0.8,0.18 -0.8,0.4 0,0.22 -0.274,0.4 -0.609,0.4 -0.792,0 -4.991,4.199 -4.991,4.991 0,0.335 -0.18,0.609 -0.4,0.609 -0.22,0 -0.4,0.255 -0.4,0.567 0,0.311 -0.225,0.641 -0.5,0.733 -0.731,0.244 -0.731,40.356 0,40.6 0.275,0.092 0.5,0.512 0.5,0.933 0,0.422 0.18,0.767 0.4,0.767 0.22,0 0.4,0.27 0.4,0.6 0,0.33 0.18,0.6 0.4,0.6 0.22,0 0.4,0.201 0.4,0.447 0,0.44 2.371,2.734 2.839,2.747 0.131,0.003 0.654,0.366 1.161,0.806 0.507,0.44 1.244,0.8 1.638,0.8 0.393,0 0.826,0.18 0.962,0.4 0.136,0.22 0.766,0.4 1.4,0.4 0.634,0 1.264,0.18 1.4,0.4 0.136,0.22 0.867,0.4 1.624,0.4 H 15.2 v 51.2 c 0,33.867 0.135,51.2 0.4,51.2 0.22,0 0.4,0.416 0.4,0.925 0,0.508 0.315,1.273 0.7,1.7 0.385,0.426 0.955,1.27 1.268,1.875 0.312,0.605 0.773,1.1 1.024,1.1 0.252,0 0.844,0.36 1.316,0.8 0.472,0.44 1.125,0.8 1.452,0.8 0.326,0 0.704,0.18 0.84,0.4 0.293,0.475 141.8,0.572 141.8,0.098 0,-0.167 0.54,-0.542 1.2,-0.834 0.731,-0.323 1.2,-0.831 1.2,-1.298 0,-0.421 0.16,-0.766 0.355,-0.766 0.431,0 0.824,-2.365 0.433,-2.607 -0.153,-0.095 -0.51,-1.001 -0.794,-2.014 -0.345,-1.234 -0.958,-2.195 -1.854,-2.91 L 163.601,359 147.9,358.8 l -15.7,-0.2 -0.106,-12.5 -0.105,-12.5 H 199.994 268 v 12.6 12.6 h -40.405 c -43.016,0 -41.268,-0.078 -42.995,1.93 -0.832,0.968 -2.169,4.52 -2.189,5.814 -0.006,0.409 0.79,1.534 1.77,2.5 l 1.781,1.756 h 92.196 c 61.032,0 92.278,-0.135 92.442,-0.4 0.136,-0.22 0.597,-0.4 1.024,-0.4 0.427,0 0.776,-0.18 0.776,-0.4 0,-0.22 0.198,-0.4 0.44,-0.4 0.678,0 3.16,-2.639 3.16,-3.36 0,-0.352 0.18,-0.64 0.4,-0.64 0.22,0 0.4,-0.349 0.4,-0.776 0,-0.427 0.18,-0.888 0.4,-1.024 0.263,-0.163 0.4,-17.804 0.4,-51.624 V 260.4 h 5.2 c 3.2,0 5.2,-0.154 5.2,-0.4 0,-0.22 0.529,-0.4 1.176,-0.4 0.647,0 1.288,-0.18 1.424,-0.4 0.136,-0.22 0.569,-0.4 0.962,-0.4 0.394,0 1.131,-0.36 1.638,-0.8 0.507,-0.44 1.03,-0.803 1.161,-0.806 0.468,-0.013 2.839,-2.307 2.839,-2.747 0,-0.246 0.18,-0.447 0.4,-0.447 0.22,0 0.4,-0.27 0.4,-0.6 0,-0.33 0.18,-0.6 0.4,-0.6 0.22,0 0.4,-0.345 0.4,-0.767 0,-0.421 0.225,-0.841 0.5,-0.933 0.391,-0.13 0.5,-4.549 0.5,-20.3 0,-15.751 -0.109,-20.17 -0.5,-20.3 -0.275,-0.092 -0.5,-0.422 -0.5,-0.733 0,-0.312 -0.18,-0.567 -0.4,-0.567 -0.22,0 -0.4,-0.274 -0.4,-0.609 0,-0.792 -4.199,-4.991 -4.991,-4.991 -0.335,0 -0.61,-0.135 -0.612,-0.3 -0.004,-0.406 -1.983,-1.3 -2.877,-1.3 -0.659,0 -0.72,-0.472 -0.72,-5.576 0,-3.287 -0.164,-5.678 -0.4,-5.824 -0.22,-0.136 -0.4,-0.777 -0.4,-1.424 0,-0.647 -0.18,-1.176 -0.4,-1.176 -0.22,0 -0.4,-0.36 -0.4,-0.8 0,-0.44 -0.18,-0.8 -0.4,-0.8 -0.22,0 -0.4,-0.36 -0.4,-0.8 0,-0.44 -0.18,-0.8 -0.4,-0.8 -0.22,0 -0.4,-0.258 -0.4,-0.573 0,-0.895 -6.28,-7.027 -7.197,-7.027 -0.442,0 -0.803,-0.18 -0.803,-0.4 0,-0.22 -0.36,-0.4 -0.8,-0.4 -0.44,0 -0.8,-0.18 -0.8,-0.4 0,-0.22 -0.36,-0.4 -0.8,-0.4 -0.44,0 -0.8,-0.18 -0.8,-0.4 0,-0.22 -0.529,-0.4 -1.176,-0.4 -0.647,0 -1.288,-0.18 -1.424,-0.4 -0.374,-0.605 -47.685,-0.546 -47.887,0.06 -0.084,0.253 -0.379,0.385 -0.656,0.292 -0.344,-0.114 -0.115,-0.704 0.72,-1.856 0.673,-0.929 1.223,-1.921 1.223,-2.204 0,-0.284 0.36,-0.775 0.8,-1.092 0.44,-0.317 0.8,-0.857 0.8,-1.2 0,-0.343 0.36,-0.883 0.8,-1.2 0.44,-0.317 0.8,-0.857 0.8,-1.2 0,-0.343 0.36,-0.883 0.8,-1.2 0.44,-0.317 0.8,-0.897 0.8,-1.288 0,-0.392 0.15,-0.712 0.332,-0.712 0.183,0 0.588,-0.495 0.9,-1.1 0.313,-0.605 0.883,-1.449 1.268,-1.875 0.385,-0.427 0.7,-0.922 0.7,-1.1 0,-0.552 1.51,-0.358 2.143,0.275 0.33,0.33 0.843,0.6 1.14,0.6 0.297,0 0.8,0.36 1.117,0.8 0.317,0.44 0.897,0.8 1.288,0.8 0.392,0 0.712,0.18 0.712,0.4 0,0.22 0.439,0.4 0.976,0.4 0.537,0 1.088,0.18 1.224,0.4 0.327,0.529 7.8,0.529 7.8,0 0,-0.22 0.272,-0.4 0.605,-0.4 1.665,0 6.829,-4.847 8.005,-7.514 0.409,-0.927 0.889,-1.686 1.067,-1.686 0.178,0 0.323,-0.32 0.323,-0.712 0,-0.391 0.36,-0.971 0.8,-1.288 0.44,-0.317 0.8,-0.857 0.8,-1.2 0,-0.343 0.36,-0.883 0.8,-1.2 0.44,-0.317 0.8,-0.857 0.8,-1.2 0,-0.343 0.36,-0.883 0.8,-1.2 0.47,-0.339 0.8,-1.035 0.8,-1.688 0,-0.612 0.18,-1.112 0.4,-1.112 0.24,0 0.4,-1.592 0.4,-3.976 0,-2.22 -0.177,-4.086 -0.4,-4.224 -0.22,-0.136 -0.4,-0.597 -0.4,-1.024 0,-0.427 -0.18,-0.776 -0.4,-0.776 -0.22,0 -0.4,-0.275 -0.4,-0.611 0,-0.649 -3.33,-4.189 -3.94,-4.189 -0.199,0 -0.586,-0.27 -0.86,-0.6 -0.274,-0.33 -0.796,-0.6 -1.161,-0.6 -0.364,0 -0.922,-0.36 -1.239,-0.8 -0.317,-0.44 -0.857,-0.8 -1.2,-0.8 -0.343,0 -0.883,-0.36 -1.2,-0.8 -0.317,-0.44 -0.857,-0.8 -1.2,-0.8 -0.343,0 -0.883,-0.36 -1.2,-0.8 -0.317,-0.44 -0.897,-0.8 -1.288,-0.8 -0.983,0 -0.93,-1.615 0.088,-2.708 0.44,-0.472 0.8,-1.096 0.8,-1.387 0,-0.291 0.36,-0.788 0.8,-1.105 0.44,-0.317 0.8,-0.857 0.8,-1.2 0,-0.343 0.36,-0.883 0.8,-1.2 0.44,-0.317 0.8,-0.857 0.8,-1.2 0,-0.343 0.36,-0.883 0.8,-1.2 0.44,-0.317 0.8,-0.814 0.8,-1.105 0,-0.291 0.336,-0.889 0.747,-1.33 0.411,-0.441 1.086,-1.464 1.5,-2.273 0.414,-0.808 1.068,-1.824 1.453,-2.257 0.385,-0.432 0.7,-1.022 0.7,-1.31 0,-0.289 0.15,-0.525 0.332,-0.525 0.183,0 0.588,-0.495 0.9,-1.1 0.313,-0.605 0.883,-1.449 1.268,-1.875 0.385,-0.427 0.7,-0.929 0.7,-1.117 0,-0.188 0.36,-0.728 0.8,-1.2 0.44,-0.472 0.8,-1.095 0.8,-1.383 0,-0.289 0.158,-0.525 0.351,-0.525 0.194,0 0.576,-0.54 0.849,-1.2 0.273,-0.66 0.655,-1.2 0.849,-1.2 0.193,0 0.351,-0.236 0.351,-0.525 0,-0.288 0.36,-0.911 0.8,-1.383 0.44,-0.472 0.8,-1.046 0.8,-1.275 0,-0.229 0.15,-0.417 0.332,-0.417 0.183,0 0.588,-0.495 0.9,-1.1 0.313,-0.605 0.883,-1.449 1.268,-1.875 0.385,-0.427 0.7,-1.012 0.7,-1.3 0,-0.289 0.168,-0.525 0.373,-0.525 0.205,0 0.487,-0.36 0.627,-0.8 0.14,-0.44 0.602,-0.8 1.027,-0.8 0.425,0 0.773,-0.18 0.773,-0.4 0,-0.22 0.54,-0.4 1.2,-0.4 0.66,0 1.2,-0.18 1.2,-0.4 0,-0.22 0.36,-0.4 0.8,-0.4 0.44,0 0.8,-0.18 0.8,-0.4 0,-0.22 0.36,-0.4 0.8,-0.4 0.44,0 0.8,-0.15 0.8,-0.332 0,-0.183 0.495,-0.588 1.1,-0.9 1.138,-0.587 7.7,-6.834 7.7,-7.33 0,-0.154 0.45,-0.943 1,-1.752 0.55,-0.809 1,-1.79 1,-2.179 0,-0.389 0.18,-0.707 0.4,-0.707 0.22,0 0.4,-0.54 0.4,-1.2 0,-0.66 0.18,-1.2 0.4,-1.2 0.22,0 0.4,-0.72 0.4,-1.6 0,-0.88 0.18,-1.6 0.4,-1.6 0.248,0 0.4,-2.125 0.4,-5.576 0,-3.287 -0.164,-5.678 -0.4,-5.824 -0.22,-0.136 -0.4,-0.779 -0.4,-1.429 0,-0.65 -0.159,-1.494 -0.353,-1.876 -0.195,-0.382 -0.533,-1.145 -0.752,-1.695 -1.321,-3.311 -1.854,-4.4 -2.156,-4.4 -0.186,0 -0.339,-0.254 -0.339,-0.563 0,-0.666 -6.549,-7.437 -7.192,-7.437 -0.243,0 -0.828,-0.36 -1.3,-0.8 -0.472,-0.44 -1.095,-0.8 -1.383,-0.8 -0.289,0 -0.525,-0.147 -0.525,-0.328 0,-0.18 -0.9,-0.572 -2,-0.872 -1.1,-0.3 -2,-0.692 -2,-0.872 0,-0.181 -0.619,-0.328 -1.376,-0.328 -0.757,0 -1.488,-0.18 -1.624,-0.4 -0.146,-0.236 -2.53,-0.4 -5.8,-0.4 -3.27,0 -5.654,0.164 -5.8,0.4 m 9.806,12.283 c 15.395,4.274 15.576,24.305 0.275,30.466 -1.445,0.582 -7.114,0.583 -8.562,0.002 -6.927,-2.783 -10.371,-6.703 -11.413,-12.99 -1.805,-10.895 8.972,-20.456 19.7,-17.478 m -22.841,34.553 c 1.728,1.729 5.704,4.413 7.635,5.155 0.77,0.295 1.571,0.688 1.78,0.873 0.209,0.185 0.704,0.336 1.1,0.336 0.448,0 0.72,0.296 0.72,0.782 0,0.731 -19.867,31.242 -20.664,31.734 -0.407,0.251 -14.136,-8.715 -14.136,-9.232 0,-0.386 2.369,-4.193 2.79,-4.484 0.16,-0.11 0.362,-0.396 0.45,-0.636 0.935,-2.55 17.752,-26.903 18.278,-26.469 0.336,0.278 1.257,1.151 2.047,1.941 M 317.4,115.404 c 10.89,7.197 21.861,14.412 23.4,15.39 4.752,3.021 12.4,8.252 12.4,8.481 0,0.298 -6.599,10.622 -7.198,11.262 -0.507,0.541 1.384,1.744 -34.523,-21.937 -6.338,-4.18 -14.025,-9.22 -17.083,-11.2 -3.057,-1.98 -5.567,-3.861 -5.577,-4.181 -0.023,-0.705 2.423,-4.819 2.866,-4.819 0.173,0 0.315,-0.19 0.315,-0.422 0,-0.54 3.117,-5.227 3.891,-5.85 0.651,-0.525 0.242,-0.777 21.509,13.276 m -102.964,0.693 c 6.601,3.255 10.764,9.715 10.764,16.703 0,7.984 -4.823,14.713 -12.701,17.721 L 210.2,151.4 H 177 c -37.347,0 -34.745,0.215 -36.562,-3.018 -0.973,-1.732 -1.299,-22.036 -0.398,-24.822 1.585,-4.905 4.337,-7.731 8.56,-8.793 0.66,-0.166 15.06,-0.271 32,-0.234 l 30.8,0.067 3.036,1.497 m 66.969,7.507 c 1.188,0.878 2.399,1.596 2.69,1.596 0.29,0 0.788,0.36 1.105,0.8 0.317,0.44 0.924,0.8 1.35,0.8 0.732,0 0.727,0.039 -0.089,0.747 -0.473,0.411 -0.861,0.951 -0.861,1.2 0,0.249 -0.18,0.453 -0.4,0.453 -0.22,0 -0.4,0.27 -0.4,0.6 0,0.33 -0.18,0.6 -0.4,0.6 -0.22,0 -0.4,0.27 -0.4,0.6 0,0.33 -0.18,0.6 -0.4,0.6 -0.22,0 -0.4,0.236 -0.4,0.525 0,0.288 -0.315,0.873 -0.7,1.3 -0.385,0.426 -0.955,1.27 -1.268,1.875 -0.312,0.605 -0.717,1.1 -0.9,1.1 -0.182,0 -0.336,0.225 -0.341,0.5 -0.005,0.275 -0.361,0.95 -0.791,1.5 l -0.782,1 0.003,-9.4 c 0.002,-6.607 0.125,-9.191 0.413,-8.696 0.225,0.386 1.382,1.421 2.571,2.3 m -128.788,2.92 c -5.329,3.242 -3.701,13.076 2.165,13.076 4.267,0 6.295,-3.294 5.458,-8.87 -0.547,-3.648 -4.739,-5.961 -7.623,-4.206 m 33.615,0.22 c -3.473,2.039 -4.217,8.765 -1.265,11.436 2.842,2.572 7.342,1.527 8.838,-2.053 0.673,-1.611 0.803,-5.551 0.195,-5.927 -0.22,-0.136 -0.4,-0.514 -0.4,-0.84 0,-2.445 -4.773,-4.139 -7.368,-2.616 m 117.376,10.097 c 2.526,1.672 8.057,5.311 12.292,8.087 4.235,2.775 7.7,5.207 7.7,5.405 0,0.36 -0.971,1.864 -12.84,19.876 l -6.331,9.61 -3.515,0.479 c -9.589,1.308 -16.105,8.254 -16.844,17.957 l -0.27,3.545 -10.3,0.107 c -6.594,0.068 -10.3,-0.036 -10.3,-0.289 0,-0.218 1.099,-2.066 2.442,-4.107 4.506,-6.847 8.643,-16.682 10.309,-24.511 0.235,-1.1 0.611,-2.845 0.838,-3.877 0.226,-1.033 0.411,-2.509 0.411,-3.281 0,-1.503 0.712,-3.442 1.264,-3.442 0.185,0 0.336,-0.169 0.336,-0.376 0,-0.533 17.963,-27.721 18.705,-28.311 0.337,-0.268 0.814,-0.358 1.061,-0.2 0.247,0.158 2.516,1.655 5.042,3.328 M 74.2,186.72 c 5.275,2.428 6.592,5.202 6.592,13.88 -0.001,6.86 -0.285,8.437 -2.267,12.555 -1.064,2.21 -6.395,8.045 -7.35,8.045 -0.248,0 -0.929,0.322 -1.513,0.715 -1.086,0.73 -2.479,1.236 -5.662,2.057 -1.985,0.512 -22.471,0.403 -24.6,-0.131 -7.599,-1.906 -13.593,-7.889 -15.653,-15.624 -0.717,-2.69 -0.721,-12.681 -0.007,-14.732 1.345,-3.864 4.717,-6.814 8.549,-7.48 4.946,-0.859 39.782,-0.264 41.911,0.715 m 296.292,0.205 c 2.279,1.119 4.145,2.949 5.101,5.001 0.275,0.591 0.659,1.387 0.854,1.769 0.511,1.006 0.434,12.516 -0.098,14.459 -1.634,5.969 -5.43,10.943 -10.191,13.354 -5.511,2.79 -6.149,2.892 -18.085,2.892 -11.926,0 -14.197,-0.36 -18.673,-2.963 -7.199,-4.186 -10.193,-10.37 -10.186,-21.037 0.004,-6.925 0.426,-8.54 2.909,-11.135 3.344,-3.496 4.208,-3.609 27.077,-3.53 l 19,0.065 2.292,1.125 M 99.041,191.79 c 4.675,1.388 5.759,3.734 5.759,12.463 0,10.563 -1.963,12.889 -10.913,12.929 -4.715,0.022 -4.707,0.032 -3.21,-4.219 1.09,-3.098 1.113,-3.348 1.118,-12.163 0.003,-5.532 0.159,-9.113 0.405,-9.294 0.685,-0.503 4.76,-0.334 6.841,0.284 m 208.626,-0.386 c 0.425,0.163 0.505,1.763 0.396,7.9 -0.141,7.969 0.089,10.043 1.602,14.419 1.168,3.376 1.061,3.48 -3.552,3.459 -5.752,-0.025 -8.434,-1.269 -10.09,-4.678 -0.917,-1.888 -1.274,-14.978 -0.423,-15.504 0.22,-0.136 0.4,-0.581 0.4,-0.99 0,-2.733 8.152,-5.952 11.667,-4.606 M 285.202,215.5 c 1.476,3.952 4.649,7.989 7.598,9.67 4.716,2.687 5.55,2.83 16.55,2.83 h 9.894 l 2.278,1.545 c 3.298,2.236 5.963,3.501 9.955,4.727 5.089,1.562 27.093,1.715 32.238,0.225 9.993,-2.895 17.031,-8.707 21.117,-17.44 1.284,-2.744 2.04,-3.236 3.011,-1.957 0.42,0.553 0.534,3.865 0.544,15.725 0.014,16.628 0.087,16.158 -2.651,17.2 -1.339,0.508 -370.133,0.508 -371.472,0 -2.736,-1.041 -2.664,-0.578 -2.664,-17.169 0,-13.39 0.071,-15.071 0.662,-15.725 1.095,-1.21 1.517,-0.877 3.27,2.58 6.818,13.447 15.523,17.635 36.668,17.641 l 12.8,0.004 3.585,-1.101 c 3.172,-0.974 8.87,-3.571 9.415,-4.29 1.321,-1.745 2.729,-1.962 12.772,-1.964 10.157,-0.001 10.804,-0.084 14.731,-1.894 3.582,-1.65 7.605,-5.848 8.825,-9.207 0.26,-0.715 0.674,-1.84 0.921,-2.5 l 0.448,-1.2 h 84.323 84.323 l 0.859,2.3 M 120.4,272 v 12.4 H 74 27.6 v -12.133 c 0,-6.674 0.12,-12.254 0.267,-12.4 0.146,-0.147 21.026,-0.267 46.4,-0.267 H 120.4 V 272 m 147.6,0 v 12.4 H 200 132 V 272 259.6 h 68 68 V 272 m 97.506,0.1 0.106,12.3 H 322.606 279.6 v -12.402 -12.402 l 42.9,0.102 42.9,0.102 0.106,12.3 M 58.6,309 v 12.8 l -15.5,0.105 -15.5,0.104 V 309 295.991 l 15.5,0.104 15.5,0.105 V 309 m 135.8,10e-4 v 13.002 L 132.1,321.901 69.8,321.8 69.694,309.404 c -0.058,-6.818 -0.019,-12.623 0.088,-12.9 C 69.936,296.102 82.529,296 132.187,296 H 194.4 v 13.001 m 135.906,0.099 0.105,12.9 H 268.006 205.6 v -13.001 -13.002 l 62.3,0.102 62.3,0.101 0.106,12.9 M 365.6,309 v 13 h -12 -12 v -13 -13 h 12 12 v 13 M 120.306,346.1 120.2,358.6 H 74 27.8 L 27.694,346.1 27.589,333.6 H 74 120.411 l -0.105,12.5 M 365.6,345.992 v 12.393 l -0.9,0.217 c -0.495,0.12 -19.8,0.168 -42.9,0.108 l -42,-0.11 -0.106,-12.5 -0.105,-12.5 h 43.005 43.006 v 12.392"
       stroke="none"
       fill="#040404"
       fill-rule="evenodd" />
    <path
       id="path2"
       d="m 198.206,65.892 c -2.417,0.075 -4.568,0.31 -4.78,0.522 -0.213,0.213 -1.149,0.386 -2.082,0.386 -0.933,0 -1.808,0.18 -1.944,0.4 -0.136,0.22 -0.678,0.4 -1.205,0.4 -0.526,0 -1.371,0.157 -1.876,0.349 -0.506,0.192 -1.639,0.564 -2.519,0.826 -0.88,0.263 -2.005,0.646 -2.5,0.851 -0.495,0.206 -1.305,0.536 -1.8,0.735 -2.742,1.1 -9.787,4.696 -10.3,5.258 -0.11,0.121 -0.83,0.652 -1.6,1.181 -0.77,0.529 -1.49,1.069 -1.6,1.2 -0.11,0.131 -0.83,0.675 -1.6,1.207 -1.711,1.184 -8.309,7.79 -9.864,9.875 -0.622,0.835 -1.234,1.608 -1.36,1.718 -0.764,0.668 -4.654,6.92 -5.04,8.1 -0.126,0.385 -0.388,0.7 -0.583,0.7 -0.194,0 -0.353,0.349 -0.353,0.776 0,0.427 -0.18,0.888 -0.4,1.024 -1.184,0.732 -0.365,1.478 1.3,1.184 4.96,-0.875 64.683,-0.276 65.68,0.659 0.209,0.197 0.873,0.357 1.476,0.357 0.603,0 1.208,0.18 1.344,0.4 0.136,0.22 0.687,0.4 1.224,0.4 0.537,0 0.976,0.18 0.976,0.4 0,0.22 0.36,0.4 0.8,0.4 0.44,0 0.8,0.159 0.8,0.353 0,0.195 0.315,0.454 0.7,0.576 3.673,1.165 12.9,10.641 12.9,13.249 0,0.342 0.18,0.622 0.4,0.622 0.22,0 0.4,0.349 0.4,0.776 0,0.427 0.18,0.888 0.4,1.024 0.22,0.136 0.4,0.676 0.4,1.2 0,0.524 0.16,1.052 0.356,1.173 0.95,0.587 1.604,11.758 0.845,14.427 -0.25,0.88 -0.635,2.23 -0.855,3 -0.688,2.414 -2.732,6.905 -3.246,7.133 -0.165,0.074 -0.3,0.319 -0.3,0.545 0,0.401 -2.6,3.703 -4.2,5.335 -1.237,1.262 -5.222,4.187 -5.703,4.187 -0.237,0 -0.49,0.135 -0.564,0.3 -0.221,0.499 -3.555,2.1 -4.371,2.1 -0.419,0 -0.762,0.18 -0.762,0.4 0,0.22 -0.504,0.4 -1.12,0.4 -0.616,0 -1.291,0.163 -1.5,0.361 -1.039,0.988 -70.172,1.807 -71.135,0.844 -1.593,-1.593 -2.57,4.863 -0.995,6.575 0.193,0.209 0.35,0.963 0.35,1.676 0,0.713 0.18,1.408 0.4,1.544 0.22,0.136 0.4,0.777 0.4,1.424 0,0.647 0.18,1.176 0.4,1.176 0.22,0 0.4,0.54 0.4,1.2 0,0.66 0.18,1.2 0.4,1.2 0.22,0 0.4,0.272 0.4,0.605 0,0.333 0.162,0.918 0.359,1.3 0.198,0.382 1.138,2.315 2.09,4.295 0.953,1.98 1.826,3.69 1.941,3.8 0.116,0.11 0.435,0.605 0.71,1.1 0.275,0.495 0.725,1.305 1,1.8 0.275,0.495 0.604,0.99 0.73,1.1 0.127,0.11 0.667,0.843 1.2,1.629 0.534,0.785 2.14,2.797 3.57,4.469 l 2.6,3.042 35.263,0.03 35.263,0.03 1.584,-1.9 c 4.952,-5.935 9.933,-15.723 12.064,-23.7 0.264,-0.99 0.631,-2.34 0.815,-3 0.408,-1.461 1.061,-5.331 1.606,-9.516 0.535,-4.116 0.525,-37.117 -0.013,-41.484 -0.457,-3.707 -1.017,-6.906 -1.645,-9.4 -0.967,-3.839 -1.248,-4.847 -1.557,-5.6 -0.182,-0.44 -0.452,-1.25 -0.603,-1.8 -2.622,-9.612 -13.045,-23.887 -22.782,-31.199 -1.317,-0.989 -2.485,-1.897 -2.595,-2.018 -0.225,-0.246 -7.362,-4.465 -8.6,-5.083 -1.117,-0.558 -4.441,-0.769 -9.594,-0.608 M 31.8,187.16 c -5.846,1.034 -8.142,5.679 -7.63,15.44 0.268,5.12 1.402,10.2 2.277,10.2 0.194,0 0.353,0.278 0.353,0.618 0,0.725 5.573,6.582 6.263,6.582 0.259,0 0.53,0.135 0.604,0.3 0.218,0.491 3.549,2.1 4.347,2.1 0.406,0 0.85,0.18 0.986,0.4 0.156,0.253 4.93,0.4 13,0.4 8.07,0 12.844,-0.147 13,-0.4 0.136,-0.22 0.676,-0.4 1.2,-0.4 0.524,0 1.064,-0.18 1.2,-0.4 0.136,-0.22 0.597,-0.4 1.024,-0.4 0.427,0 0.776,-0.136 0.776,-0.302 0,-0.167 0.546,-0.545 1.214,-0.84 3.356,-1.486 7.878,-7.427 8.868,-11.651 2.199,-9.378 0.381,-17.89 -4.424,-20.715 L 73,187 53.2,186.938 c -10.89,-0.034 -20.52,0.066 -21.4,0.222 m 295.983,-0.006 c -6.534,1.122 -9.434,9.507 -7.21,20.846 0.886,4.52 7.156,12.767 9.727,12.795 0.275,0.003 0.5,0.185 0.5,0.405 0,0.22 0.349,0.4 0.776,0.4 0.427,0 0.888,0.18 1.024,0.4 0.136,0.22 0.676,0.4 1.2,0.4 0.524,0 1.064,0.18 1.2,0.4 0.156,0.253 4.93,0.4 13,0.4 8.07,0 12.844,-0.147 13,-0.4 0.136,-0.22 0.571,-0.4 0.967,-0.4 3.645,0 12.833,-8.905 12.833,-12.438 0,-0.419 0.165,-0.762 0.366,-0.762 0.731,0 1.255,-11.068 0.662,-14 -0.63,-3.119 -2.327,-5.554 -4.942,-7.091 L 369,187 349.2,186.938 c -10.89,-0.034 -20.527,0.063 -21.417,0.216"
       stroke="none"
       fill="#9bb8ef"
       fill-rule="evenodd" />
    <path
       id="path3"
       d="m 226.848,64.399 c -1.868,3.324 -3.805,3.613 -11.848,1.766 -4.053,-0.93 -18.576,-1.081 -22.4,-0.233 -8.183,1.816 -10.985,2.758 -17.8,5.985 -2.524,1.196 -5.292,2.925 -5.057,3.16 0.088,0.088 1.037,-0.355 2.109,-0.985 1.851,-1.087 5.823,-3.024 7.548,-3.68 0.44,-0.168 1.25,-0.497 1.8,-0.732 0.55,-0.235 1.72,-0.642 2.6,-0.905 0.88,-0.262 2.013,-0.634 2.519,-0.826 0.505,-0.192 1.35,-0.349 1.876,-0.349 0.527,0 1.069,-0.18 1.205,-0.4 0.136,-0.22 1.011,-0.4 1.944,-0.4 0.933,0 1.871,-0.175 2.084,-0.388 0.626,-0.626 12.98,-0.656 14.172,-0.034 1.591,0.83 8.58,4.964 8.8,5.205 0.11,0.121 1.278,1.029 2.595,2.018 9.737,7.312 20.16,21.587 22.782,31.199 0.151,0.55 0.421,1.36 0.603,1.8 0.309,0.753 0.59,1.761 1.557,5.6 0.628,2.494 1.188,5.693 1.645,9.4 0.538,4.367 0.548,37.368 0.013,41.484 -0.545,4.185 -1.198,8.055 -1.606,9.516 -0.184,0.66 -0.551,2.01 -0.815,3 -2.131,7.977 -7.112,17.765 -12.064,23.7 l -1.584,1.9 -35.263,-0.03 -35.263,-0.03 -2.6,-3.042 c -1.43,-1.672 -3.036,-3.684 -3.57,-4.469 -0.533,-0.786 -1.073,-1.519 -1.2,-1.629 -0.126,-0.11 -0.455,-0.605 -0.73,-1.1 -0.275,-0.495 -0.725,-1.305 -1,-1.8 -0.275,-0.495 -0.594,-0.99 -0.71,-1.1 -0.115,-0.11 -0.988,-1.82 -1.941,-3.8 -0.952,-1.98 -1.892,-3.913 -2.09,-4.295 -0.197,-0.382 -0.359,-0.967 -0.359,-1.3 0,-0.333 -0.18,-0.605 -0.4,-0.605 -0.561,0 -0.572,-0.036 1.163,3.963 2.69,6.203 7.006,12.839 11.405,17.535 l 1.969,2.102 h 44.264 44.264 l 1.984,-2.1 c 4.946,-5.236 9.088,-11.851 12.584,-20.1 1.515,-3.574 2.99,-9.902 3.776,-16.2 1.217,-9.752 0.702,-39.376 -0.824,-47.4 -2.377,-12.496 -8.405,-23.384 -18.38,-33.2 -6.229,-6.13 -6.714,-7.128 -5.209,-10.729 0.642,-1.537 0.456,-2.671 -0.439,-2.671 -0.306,0 -0.557,-0.159 -0.557,-0.353 0,-0.195 -0.315,-0.454 -0.7,-0.576 -0.936,-0.296 -3.066,-1.595 -3.233,-1.971 -0.074,-0.165 -0.479,-0.3 -0.9,-0.3 -0.422,0 -0.767,-0.18 -0.767,-0.4 0,-0.22 -0.36,-0.4 -0.8,-0.4 -0.44,0 -0.8,-0.18 -0.8,-0.4 0,-0.22 -0.349,-0.4 -0.776,-0.4 -0.427,0 -0.888,-0.18 -1.024,-0.4 -0.136,-0.22 -0.687,-0.4 -1.224,-0.4 -0.537,0 -0.976,-0.18 -0.976,-0.4 0,-1.041 -1.531,-0.26 -2.352,1.199 M 165.56,77.687 c -6.855,5.073 -12.948,12.052 -17.315,19.833 -2.958,5.27 -3.175,6.176 -1.388,5.779 C 147.596,103.134 162.42,103 179.8,103 h 31.6 l 3.124,0.905 c 3.386,0.982 6.305,2.337 8.976,4.168 0.935,0.641 1.7,1.054 1.7,0.918 0,-0.546 -2.668,-2.408 -4.1,-2.862 -0.385,-0.122 -0.7,-0.381 -0.7,-0.576 0,-0.194 -0.36,-0.353 -0.8,-0.353 -0.44,0 -0.8,-0.18 -0.8,-0.4 0,-0.22 -0.439,-0.4 -0.976,-0.4 -0.537,0 -1.088,-0.18 -1.224,-0.4 -0.136,-0.22 -0.741,-0.4 -1.344,-0.4 -0.603,0 -1.267,-0.16 -1.476,-0.357 -0.997,-0.935 -60.72,-1.534 -65.68,-0.659 -1.665,0.294 -2.484,-0.452 -1.3,-1.184 0.22,-0.136 0.4,-0.597 0.4,-1.024 0,-0.427 0.159,-0.776 0.353,-0.776 0.195,0 0.457,-0.315 0.583,-0.7 0.386,-1.18 4.276,-7.432 5.04,-8.1 0.126,-0.11 0.738,-0.883 1.36,-1.718 1.546,-2.074 8.145,-8.683 9.864,-9.881 0.77,-0.536 1.632,-1.199 1.915,-1.474 0.283,-0.274 1.048,-0.814 1.7,-1.199 0.989,-0.585 1.574,-1.328 1.045,-1.328 -0.076,0 -1.651,1.119 -3.5,2.487 m 62.303,33.952 c 14.431,15.007 10.669,38.572 -7.652,47.932 -1.754,0.896 -2.896,1.629 -2.538,1.629 0.733,0 4.055,-1.637 4.26,-2.1 0.074,-0.165 0.327,-0.3 0.564,-0.3 0.481,0 4.466,-2.925 5.703,-4.187 1.6,-1.632 4.2,-4.934 4.2,-5.335 0,-0.226 0.135,-0.471 0.3,-0.545 0.514,-0.228 2.558,-4.719 3.246,-7.133 0.22,-0.77 0.605,-2.12 0.855,-3 0.759,-2.669 0.105,-13.84 -0.845,-14.427 -0.196,-0.121 -0.356,-0.649 -0.356,-1.173 0,-0.524 -0.18,-1.064 -0.4,-1.2 -0.22,-0.136 -0.4,-0.597 -0.4,-1.024 0,-0.427 -0.18,-0.776 -0.4,-0.776 -0.22,0 -0.4,-0.28 -0.4,-0.622 0,-1.439 -4.995,-7.839 -7.4,-9.481 -0.689,-0.47 -0.151,0.272 1.263,1.742 M 215.4,161.6 c -0.709,0.305 -0.675,0.347 0.3,0.372 0.605,0.015 1.1,-0.152 1.1,-0.372 0,-0.469 -0.307,-0.469 -1.4,0 m -3.8,0.82 c -0.99,0.177 -16.911,0.334 -35.38,0.35 -22.641,0.02 -33.448,0.162 -33.175,0.435 0.963,0.963 70.096,0.144 71.135,-0.844 0.436,-0.414 0.03,-0.405 -2.58,0.059 m -70.76,2.08 c 0.022,1.155 0.198,2.55 0.391,3.1 0.233,0.661 0.28,0.028 0.139,-1.867 -0.187,-2.529 -0.127,-2.888 0.509,-3.053 0.568,-0.148 0.53,-0.197 -0.179,-0.234 -0.83,-0.042 -0.897,0.118 -0.86,2.054 m 0.788,5.576 c 0.068,1.268 0.714,2.178 0.744,1.048 0.015,-0.592 -0.152,-1.188 -0.372,-1.324 -0.22,-0.136 -0.387,-0.012 -0.372,0.276 m 0.778,3.2 c 0.012,1.005 0.781,1.832 0.788,0.848 0.003,-0.482 -0.174,-0.988 -0.394,-1.124 -0.22,-0.136 -0.397,-0.012 -0.394,0.276 m 0.822,2.624 c 0.11,1.173 0.718,1.826 0.744,0.8 0.015,-0.605 -0.152,-1.1 -0.372,-1.1 -0.22,0 -0.387,0.135 -0.372,0.3 M 32,186.45 c -3.691,1.033 -6.954,3.96 -7.9,7.086 -0.681,2.25 -0.625,11.622 0.087,14.604 0.567,2.37 1.344,3.871 0.86,1.66 C 22.645,198.822 24.024,191.296 29,188.232 L 31,187 h 21 21 l 1.858,1.092 c 4.805,2.825 6.623,11.337 4.424,20.715 -0.99,4.224 -5.512,10.165 -8.868,11.651 -0.668,0.295 -1.214,0.673 -1.214,0.84 0,0.166 -0.349,0.302 -0.776,0.302 -0.427,0 -0.888,0.18 -1.024,0.4 -0.136,0.22 -0.676,0.4 -1.2,0.4 -0.524,0 -1.076,0.199 -1.226,0.443 -1.321,2.136 6.576,-2.037 9.627,-5.089 4.474,-4.473 5.503,-7.514 5.669,-16.754 0.165,-9.135 -1.433,-12.401 -6.98,-14.27 -1.881,-0.634 -39.126,-0.887 -41.29,-0.28 m 295.524,0.138 c -3.523,0.971 -5.873,3.096 -7.441,6.731 -0.696,1.613 -0.639,12.454 0.08,15.161 1.574,5.931 5.667,10.973 10.837,13.35 2.571,1.182 4.423,1.654 4.036,1.028 -0.156,-0.252 -0.712,-0.458 -1.236,-0.458 -0.524,0 -1.064,-0.18 -1.2,-0.4 -0.136,-0.22 -0.597,-0.4 -1.024,-0.4 -0.427,0 -0.776,-0.18 -0.776,-0.4 0,-0.22 -0.225,-0.402 -0.5,-0.405 -2.571,-0.028 -8.841,-8.275 -9.727,-12.795 -1.87,-9.534 -0.122,-17.15 4.569,-19.908 L 327,187 h 21 21 l 1.886,1.109 c 1.842,1.083 3.487,2.884 4.101,4.491 0.191,0.498 0.376,0.614 0.491,0.306 0.324,-0.866 -1.911,-3.723 -3.963,-5.068 -2.582,-1.691 -4.415,-1.83 -23.715,-1.797 -13.718,0.023 -18.877,0.162 -20.276,0.547 M 92.376,192.1 c -0.013,0.275 -0.008,3.74 0.011,7.7 0.035,7.272 -0.326,10.225 -1.737,14.2 -1.071,3.018 -1.218,2.919 4.05,2.726 8.218,-0.302 9.44,-1.76 9.628,-11.483 0.179,-9.261 -0.446,-11.044 -4.525,-12.897 -1.934,-0.879 -7.388,-1.059 -7.427,-0.246 m 207.647,0.388 c -0.977,0.502 -2.327,1.604 -3,2.449 l -1.223,1.537 v 7.734 c 0,8.639 -0.011,8.6 3.136,11.147 1.432,1.159 1.659,1.208 6.331,1.375 l 4.846,0.173 -0.228,-0.952 c -0.126,-0.523 -0.636,-2.301 -1.133,-3.951 -0.803,-2.661 -0.915,-3.973 -0.992,-11.6 l -0.087,-8.6 -2.937,-0.112 c -2.413,-0.091 -3.252,0.051 -4.713,0.8 m 75.589,2.112 c 0,0.66 0.175,1.47 0.388,1.8 0.297,0.46 0.388,0.321 0.388,-0.6 0,-0.66 -0.175,-1.47 -0.388,-1.8 -0.297,-0.46 -0.388,-0.321 -0.388,0.6 m 0.288,9.533 c -0.165,0.403 -0.284,1.573 -0.264,2.6 l 0.036,1.867 0.386,-1.342 c 0.461,-1.6 0.324,-4.302 -0.158,-3.125 m -1.094,5.967 c 0.005,0.728 0.08,0.785 0.394,0.3 0.501,-0.776 0.501,-1.2 0,-1.2 -0.22,0 -0.397,0.405 -0.394,0.9 m -1.062,2.561 c -1.745,3.678 -9.074,9.739 -11.777,9.739 -0.396,0 -0.847,0.206 -1.003,0.458 -1.16,1.878 6.62,-2.129 9.259,-4.768 2.084,-2.084 4.881,-6.32 4.454,-6.746 -0.115,-0.115 -0.534,0.478 -0.933,1.317 m -347.677,0.526 c 0.395,1.148 3.473,4.81 5.133,6.107 2.956,2.311 8.667,4.908 7.836,3.564 -0.156,-0.252 -0.616,-0.458 -1.022,-0.458 -0.798,0 -4.129,-1.609 -4.347,-2.1 -0.074,-0.165 -0.345,-0.3 -0.604,-0.3 -0.69,0 -6.263,-5.857 -6.263,-6.582 0,-0.34 -0.195,-0.618 -0.433,-0.618 -0.239,0 -0.374,0.174 -0.3,0.387 M 40.6,223.6 c 0.66,0.168 5.79,0.305 11.4,0.305 5.61,0 10.74,-0.137 11.4,-0.305 0.66,-0.168 -4.47,-0.305 -11.4,-0.305 -6.93,0 -12.06,0.137 -11.4,0.305 m 296,0 c 0.66,0.168 5.79,0.305 11.4,0.305 5.61,0 10.74,-0.137 11.4,-0.305 0.66,-0.168 -4.47,-0.305 -11.4,-0.305 -6.93,0 -12.06,0.137 -11.4,0.305"
       stroke="none"
       fill="#6696db"
       fill-rule="evenodd" />
    <path
       id="path4"
       d="m 363.498,41.534 c -0.386,0.153 0.811,0.275 2.661,0.272 1.849,-0.003 3.155,-0.138 2.902,-0.3 -0.576,-0.367 -4.617,-0.346 -5.563,0.028 m -3.405,1.046 c -1.659,0.916 -1.515,1.1 0.307,0.39 2.163,-0.841 2.37,-0.982 1.367,-0.931 -0.422,0.022 -1.175,0.265 -1.674,0.541 M 370.8,42.374 c 16.803,5.13 12.95,29.826 -4.653,29.826 -2.239,0 -3.863,0.132 -3.609,0.294 0.729,0.464 6.905,0.354 8.143,-0.145 8.987,-3.619 13.253,-11.511 10.702,-19.798 -1.53,-4.969 -7.442,-10.684 -10.879,-10.517 -0.46,0.023 -0.358,0.14 0.296,0.34 m -15.41,3.418 c -2.272,2.237 -4.006,5.328 -4.392,7.833 -0.141,0.916 0.068,0.583 0.625,-0.997 1.044,-2.957 2.612,-5.263 5.023,-7.385 1.027,-0.904 1.665,-1.643 1.419,-1.643 -0.246,0 -1.449,0.986 -2.675,2.192 M 350.514,57 c 0.003,1.1 0.081,1.503 0.173,0.895 0.092,-0.609 0.09,-1.509 -0.005,-2 -0.095,-0.492 -0.171,0.005 -0.168,1.105 m 0.456,3.461 c 0.353,3.084 3.724,8.198 6.32,9.587 0.45,0.241 -0.25,-0.616 -1.555,-1.905 -2.409,-2.378 -3.442,-4.101 -4.4,-7.343 -0.5,-1.691 -0.522,-1.711 -0.365,-0.339 M 226.372,64.44 c -0.486,0.681 -1.443,1.581 -2.127,1.998 -1.469,0.895 -1.101,1.018 0.527,0.177 0.622,-0.322 1.507,-1.222 1.966,-2 1.03,-1.746 0.823,-1.845 -0.366,-0.175 M 195.4,65.217 c -0.732,0.197 -0.031,0.236 1.8,0.101 1.65,-0.122 3.075,-0.289 3.167,-0.37 0.31,-0.276 -3.759,-0.055 -4.967,0.269 m 10.233,-0.266 c 0.092,0.084 1.607,0.253 3.367,0.376 2.35,0.165 2.775,0.131 1.6,-0.128 -1.594,-0.352 -5.284,-0.535 -4.967,-0.248 M 190.6,66 c -1.019,0.438 0.032,0.438 1.4,0 0.804,-0.257 0.843,-0.323 0.2,-0.332 -0.44,-0.006 -1.16,0.143 -1.6,0.332 m 23.4,0 c 0.55,0.176 1.36,0.326 1.8,0.332 l 0.8,0.012 L 215.8,66 c -0.44,-0.189 -1.25,-0.338 -1.8,-0.332 l -1,0.012 1,0.32 m -27,0.8 c -0.504,0.217 -0.578,0.344 -0.2,0.344 0.33,0 0.96,-0.155 1.4,-0.344 0.504,-0.217 0.578,-0.344 0.2,-0.344 -0.33,0 -0.96,0.155 -1.4,0.344 m 31,0 c 1.368,0.438 2.419,0.438 1.4,0 -0.44,-0.189 -1.16,-0.338 -1.6,-0.332 -0.643,0.009 -0.604,0.075 0.2,0.332 m 23.049,5.815 c -0.137,0.358 -0.234,0.951 -0.215,1.318 0.019,0.367 0.193,0.136 0.387,-0.513 0.377,-1.262 0.244,-1.887 -0.172,-0.805 m -72.723,2.546 c -1.007,0.638 -1.947,1.35 -2.09,1.581 -0.21,0.339 3.537,-2 4.131,-2.579 0.483,-0.472 -0.419,-0.031 -2.041,0.998 m 167.827,12.098 c -4.814,7.297 -8.825,13.465 -8.913,13.705 -0.088,0.24 -0.29,0.526 -0.45,0.636 -0.421,0.291 -2.79,4.098 -2.79,4.484 0,0.517 13.729,9.483 14.136,9.232 0.797,-0.492 20.664,-31.003 20.664,-31.734 0,-0.486 -0.272,-0.782 -0.72,-0.782 -0.396,0 -0.891,-0.151 -1.1,-0.336 -0.209,-0.185 -1.01,-0.578 -1.78,-0.873 -1.931,-0.742 -5.907,-3.426 -7.635,-5.155 -0.79,-0.79 -1.711,-1.663 -2.047,-1.941 -0.527,-0.435 -1.816,1.322 -9.365,12.764 M 240.828,75.074 c -0.079,1.33 1.245,2.999 6.656,8.388 3.254,3.241 5.134,4.958 4.179,3.816 -0.955,-1.142 -3.52,-3.759 -5.699,-5.815 -2.718,-2.564 -4.142,-4.229 -4.535,-5.3 -0.315,-0.86 -0.585,-1.35 -0.601,-1.089 m 106.844,2.084 c 2.329,2.187 6.187,4.614 8.828,5.554 2.433,0.866 2.846,-0.154 -4.364,10.785 -3.445,5.226 -7.93,12.048 -9.965,15.158 -2.036,3.11 -3.891,5.772 -4.122,5.915 -0.232,0.143 -3.395,-1.727 -7.028,-4.156 l -6.607,-4.416 4.093,-6.188 c 2.251,-3.403 6.871,-10.412 10.267,-15.576 3.396,-5.164 6.346,-9.284 6.555,-9.154 0.21,0.13 1.264,1.065 2.343,2.078 m -189.144,6.263 c -2.981,2.981 -5.312,5.528 -5.18,5.661 0.133,0.132 0.626,-0.282 1.097,-0.921 0.471,-0.639 2.925,-3.186 5.454,-5.661 2.528,-2.475 4.474,-4.5 4.323,-4.5 -0.15,0 -2.712,2.439 -5.694,5.421 M 151.91,90.9 c -0.934,1.232 -2.267,3.528 -1.8,3.1 0.412,-0.377 3.103,-4.4 2.944,-4.4 -0.087,0 -0.602,0.585 -1.144,1.3 m 103.592,2.033 c 0.824,1.198 1.56,2.12 1.637,2.05 0.18,-0.165 -2.23,-3.668 -2.743,-3.985 -0.216,-0.134 0.282,0.737 1.106,1.935 M 148.873,95.4 c -0.251,0.55 -0.39,1 -0.31,1 0.08,0 0.44,-0.45 0.8,-1 0.361,-0.55 0.5,-1 0.31,-1 -0.189,0 -0.55,0.45 -0.8,1 m -3.644,7.1 c -0.498,1.297 0.078,1.66 1.838,1.158 l 1.533,-0.438 -1.552,0.218 c -1.492,0.209 -1.544,0.178 -1.355,-0.81 0.242,-1.268 -0.001,-1.335 -0.464,-0.128 m 150.657,-0.369 c -0.783,0.632 -4.003,5.485 -3.784,5.705 0.096,0.095 1.014,-1.089 2.039,-2.631 1.026,-1.543 2.036,-2.805 2.245,-2.805 0.357,0 5.419,3.258 19.214,12.367 3.19,2.106 5.964,3.9 6.164,3.986 0.2,0.086 3.8,2.437 8,5.225 8.203,5.444 9.073,5.992 8.436,5.313 -0.352,-0.376 -29.816,-19.92 -38.466,-25.516 -2.622,-1.697 -3.38,-2.021 -3.848,-1.644 M 211.2,103.6 c 1.368,0.438 2.419,0.438 1.4,0 -0.44,-0.189 -1.16,-0.338 -1.6,-0.332 -0.643,0.009 -0.604,0.075 0.2,0.332 m 3.6,0.8 c 0.33,0.213 0.87,0.388 1.2,0.388 0.533,0 0.533,-0.043 0,-0.388 -0.33,-0.213 -0.87,-0.388 -1.2,-0.388 -0.533,0 -0.533,0.043 0,0.388 m 75.285,6.119 c -1.802,2.973 -1.856,2.887 4.311,6.881 3.058,1.98 10.745,7.02 17.083,11.2 35.907,23.681 34.016,22.478 34.523,21.937 0.592,-0.632 7.198,-10.962 7.198,-11.255 0,-0.258 -10.032,-7.08 -11.6,-7.89 -1.545,-0.797 0.633,0.793 5.712,4.171 3.889,2.587 5.419,3.819 5.2,4.183 -2.686,4.447 -6.735,10.254 -7.15,10.254 -0.296,0 -4.548,-2.635 -9.45,-5.856 -4.901,-3.221 -10.622,-6.97 -12.712,-8.331 -2.09,-1.362 -4.319,-2.822 -4.953,-3.244 -0.634,-0.423 -1.452,-0.949 -1.817,-1.169 -4.057,-2.443 -27.23,-18.001 -27.23,-18.282 0,-0.205 0.509,-1.126 1.132,-2.046 1.6,-2.363 1.759,-2.672 1.376,-2.672 -0.186,0 -0.917,0.954 -1.623,2.119 m -63.685,-0.04 c 0,0.338 2.876,3.179 3.046,3.008 0.077,-0.076 -0.577,-0.839 -1.453,-1.694 -0.876,-0.856 -1.593,-1.447 -1.593,-1.314 m 37.668,0.921 c -0.006,0.44 0.143,1.16 0.332,1.6 0.438,1.019 0.438,-0.032 0,-1.4 -0.257,-0.804 -0.323,-0.843 -0.332,-0.2 m -33.031,4.7 c 0.812,1.265 1.545,2.3 1.63,2.3 0.305,0 -1.048,-2.226 -2.066,-3.4 -0.702,-0.81 -0.561,-0.453 0.436,1.1 m -66.507,-1.4 c 8.321,0.06 21.821,0.06 30,0 8.178,-0.061 1.37,-0.11 -15.13,-0.11 -16.5,0 -23.192,0.049 -14.87,0.11 m 100.35,0.3 c 0,0.44 0.144,1.25 0.32,1.8 0.254,0.792 0.32,0.833 0.32,0.2 0,-0.44 -0.144,-1.25 -0.32,-1.8 -0.254,-0.792 -0.32,-0.833 -0.32,-0.2 M 211,115.2 c 1.196,0.514 2.195,0.514 1.4,0 -0.33,-0.213 -0.96,-0.378 -1.4,-0.366 l -0.8,0.022 0.8,0.344 m -66.032,1.154 c -1.279,0.78 -3.768,3.552 -3.768,4.197 0,0.203 0.523,-0.353 1.162,-1.235 0.639,-0.882 1.809,-2.003 2.6,-2.492 0.791,-0.489 1.438,-0.965 1.438,-1.057 0,-0.262 -0.12,-0.213 -1.432,0.587 M 216,117.24 c 1.815,1.085 4.627,3.803 5.67,5.481 0.452,0.727 0.916,1.227 1.031,1.111 0.202,-0.202 -0.995,-1.919 -2.556,-3.666 -1.082,-1.212 -4.527,-3.766 -5.076,-3.765 -0.258,0.001 0.161,0.379 0.931,0.839 m 49.874,4.16 c 0.124,1.54 0.292,2.875 0.375,2.967 0.278,0.307 0.109,-2.55 -0.247,-4.167 -0.271,-1.23 -0.3,-0.952 -0.128,1.2 m -126.022,2.7 c -0.133,0.495 -0.243,5.85 -0.244,11.9 l -0.004,11 1.022,1.6 c 1.104,1.73 1.108,1.627 0.026,-0.752 -0.633,-1.391 -0.693,-2.747 -0.579,-13.1 0.07,-6.352 0.103,-11.548 0.074,-11.548 -0.03,0 -0.162,0.405 -0.295,0.9 m 95.61,1.7 c 0.134,0.88 0.31,1.675 0.391,1.767 0.303,0.343 0.076,-1.799 -0.272,-2.567 -0.252,-0.558 -0.288,-0.315 -0.119,0.8 m -50.286,1.281 c -2.545,2.142 -3.409,10.519 -1.085,10.519 0.181,0 0.036,-0.567 -0.322,-1.261 -1.484,-2.87 -0.26,-8.144 2.177,-9.379 1.114,-0.566 1.505,-0.96 0.951,-0.96 -0.239,0 -1.014,0.487 -1.721,1.081 m -34.512,0.448 c -0.365,0.404 -0.664,0.889 -0.664,1.078 0,0.189 0.378,-0.062 0.84,-0.558 0.462,-0.496 0.761,-0.981 0.664,-1.078 -0.096,-0.097 -0.474,0.154 -0.84,0.558 M 224.6,132.8 c 0,2.378 0.132,4.116 0.294,3.862 0.162,-0.254 0.294,-1.992 0.294,-3.862 0,-1.87 -0.132,-3.608 -0.294,-3.862 -0.162,-0.254 -0.294,1.484 -0.294,3.862 m -75.133,-3.333 c -1.53,1.529 0.218,8.216 2.533,9.687 0.637,0.405 0.466,0.121 -0.473,-0.781 -1.766,-1.698 -2.037,-2.622 -1.861,-6.338 0.074,-1.56 0.119,-2.836 0.101,-2.836 -0.019,10e-4 -0.154,0.121 -0.3,0.268 m 10.733,3.556 c 0,2.061 0.122,3.439 0.272,3.062 0.37,-0.932 0.387,-5.774 0.022,-6.347 -0.162,-0.254 -0.294,1.224 -0.294,3.285 m 178.797,-3.028 c 0.363,0.587 1.803,1.293 1.803,0.883 0,-0.192 -0.461,-0.56 -1.025,-0.817 -0.586,-0.267 -0.92,-0.295 -0.778,-0.066 m -102.525,2.249 c -0.04,0.904 -0.157,2.524 -0.262,3.6 l -0.19,1.956 0.397,-1.8 c 0.219,-0.99 0.337,-2.61 0.262,-3.6 l -0.135,-1.8 -0.072,1.644 m 61.033,1.469 c -0.742,0.59 -18.705,27.778 -18.705,28.311 0,0.207 -0.151,0.376 -0.336,0.376 -0.552,0 -1.264,1.939 -1.264,3.442 0,0.772 -0.185,2.248 -0.411,3.281 -0.227,1.032 -0.603,2.777 -0.838,3.877 -1.666,7.829 -5.803,17.664 -10.309,24.511 -1.343,2.041 -2.442,3.889 -2.442,4.107 0,0.253 3.706,0.357 10.3,0.289 l 10.3,-0.107 0.27,-3.545 c 0.739,-9.703 7.255,-16.649 16.844,-17.957 l 3.515,-0.479 6.331,-9.61 c 11.869,-18.012 12.84,-19.516 12.84,-19.876 0,-0.198 -3.465,-2.63 -7.7,-5.405 -4.235,-2.776 -9.766,-6.415 -12.292,-8.087 -2.526,-1.673 -4.795,-3.17 -5.042,-3.328 -0.247,-0.158 -0.724,-0.068 -1.061,0.2 m 10.675,6.844 c 0.428,0.243 1.137,0.758 1.575,1.143 0.438,0.385 1.032,0.7 1.32,0.7 0.289,0 0.525,0.15 0.525,0.332 0,0.183 0.495,0.588 1.1,0.9 0.605,0.313 1.449,0.883 1.875,1.268 0.427,0.385 0.929,0.7 1.117,0.7 0.188,0 0.728,0.36 1.2,0.8 0.472,0.44 1.364,1.024 1.983,1.297 0.619,0.274 1.125,0.614 1.125,0.755 0,0.141 0.641,0.561 1.423,0.932 1.74,0.826 1.973,0.193 -2.829,7.666 -5.358,8.338 -10.925,17.012 -11.391,17.75 -2.533,4.007 -3.095,4.601 -4.439,4.697 -10.682,0.763 -18.355,8.191 -19.114,18.503 l -0.25,3.4 -9.7,0.107 c -6.194,0.069 -9.7,-0.036 -9.7,-0.288 0,-0.217 0.886,-1.706 1.968,-3.307 1.082,-1.602 2.777,-4.532 3.767,-6.512 1.591,-3.185 2.145,-4.394 3.48,-7.6 0.336,-0.807 1.703,-4.984 2.357,-7.2 0.194,-0.66 0.566,-2.19 0.825,-3.4 0.26,-1.21 0.637,-2.851 0.838,-3.646 0.201,-0.796 0.365,-2.259 0.365,-3.252 0,-1.767 7.995,-14.97 12.027,-19.862 0.645,-0.782 1.173,-1.651 1.173,-1.931 0,-0.28 0.18,-0.509 0.4,-0.509 0.22,0 0.4,-0.225 0.4,-0.5 10e-4,-0.275 0.446,-1.017 0.989,-1.649 0.544,-0.632 1.095,-1.487 1.227,-1.9 0.131,-0.413 0.406,-0.751 0.611,-0.751 0.205,0 0.373,-0.236 0.373,-0.525 0,-0.288 0.36,-0.911 0.8,-1.383 0.44,-0.472 0.8,-1.046 0.8,-1.275 0,-0.229 0.18,-0.417 0.4,-0.417 0.22,0 0.4,-0.255 0.4,-0.567 0,-1.223 1.177,-0.783 5.599,2.09 2.531,1.645 4.952,3.19 5.381,3.434 M 159.2,137.591 c 0,0.742 -2.16,1.802 -4.176,2.049 l -2.024,0.247 1.72,0.057 c 0.946,0.031 2.206,-0.196 2.801,-0.503 1.292,-0.668 2.795,-2.241 2.141,-2.241 -0.254,0 -0.462,0.176 -0.462,0.391 m 32.8,0.869 c -0.77,0.675 -1.038,1.045 -0.596,0.821 0.731,-0.37 2.543,-2.103 2.158,-2.065 -0.089,0.009 -0.792,0.569 -1.562,1.244 m -6.856,0.353 c 0.997,0.83 1.874,1.063 1.456,0.387 -0.136,-0.22 -0.507,-0.4 -0.824,-0.4 -0.317,0 -0.576,-0.18 -0.576,-0.4 0,-0.22 -0.225,-0.394 -0.5,-0.387 -0.275,0.008 -0.075,0.368 0.444,0.8 m 50.306,0.837 c -0.333,1.667 -0.01,1.99 0.35,0.35 0.152,-0.691 0.193,-1.341 0.091,-1.442 -0.102,-0.102 -0.3,0.389 -0.441,1.092 m -47.55,0.232 c 0.495,0.096 1.305,0.096 1.8,0 0.495,-0.095 0.09,-0.173 -0.9,-0.173 -0.99,0 -1.395,0.078 -0.9,0.173 m 33.166,4.083 c -1.562,2.048 -2.841,3.139 -5.866,5.005 -0.99,0.61 -1.471,1.002 -1.068,0.87 2.332,-0.763 7.047,-4.812 8.315,-7.14 0.664,-1.22 0.165,-0.763 -1.381,1.265 m -78.512,6.597 c 1.735,1.393 66.094,1.509 69.246,0.125 0.88,-0.387 1.15,-0.6 0.6,-0.473 -3.75,0.864 -9.673,1.005 -37.8,0.9 -24.38,-0.09 -31.008,-0.223 -31.8,-0.636 -0.919,-0.48 -0.939,-0.473 -0.246,0.084 m 85.983,2.171 c -1.354,1.499 -3.649,3.512 -5.1,4.472 -2.65,1.756 -3.411,2.433 -1.737,1.547 2.387,-1.264 7.14,-5.417 8.758,-7.652 1.274,-1.76 0.718,-1.287 -1.921,1.633 m 37.303,10.307 c -0.15,1.463 -0.191,2.742 -0.092,2.842 0.1,0.099 0.309,-1.011 0.465,-2.469 0.156,-1.457 0.198,-2.736 0.092,-2.841 -0.106,-0.106 -0.315,1.005 -0.465,2.468 M 212.2,162 c -1.019,0.438 0.032,0.438 1.4,0 0.804,-0.257 0.843,-0.323 0.2,-0.332 -0.44,-0.006 -1.16,0.143 -1.6,0.332 m -52.3,0.7 c 9.075,0.06 23.925,0.06 33,0 9.075,-0.06 1.65,-0.109 -16.5,-0.109 -18.15,0 -25.575,0.049 -16.5,0.109 m -19.472,2.533 c 0.016,0.972 0.178,2.127 0.362,2.567 0.202,0.483 0.248,-0.151 0.117,-1.6 -0.262,-2.89 -0.518,-3.407 -0.479,-0.967 m 124.594,3.389 c -0.15,0.803 -0.194,1.54 -0.096,1.638 0.098,0.097 0.301,-0.479 0.452,-1.282 0.15,-0.803 0.194,-1.54 0.096,-1.638 -0.098,-0.097 -0.301,0.479 -0.452,1.282 M 264.2,172.4 c -0.152,0.691 -0.193,1.341 -0.091,1.442 0.102,0.102 0.3,-0.389 0.441,-1.092 0.333,-1.667 0.01,-1.99 -0.35,-0.35 m -122.172,1.076 c -0.015,0.482 0.152,0.988 0.372,1.124 0.473,0.292 0.473,-0.099 0,-1.2 -0.331,-0.771 -0.345,-0.769 -0.372,0.076 m 117.45,11.529 c -0.366,0.767 -0.583,1.395 -0.482,1.395 0.274,0 1.488,-2.449 1.305,-2.632 -0.087,-0.087 -0.457,0.47 -0.823,1.237 M 43.127,185.9 c 5.131,0.063 13.411,0.063 18.4,0 4.99,-0.064 0.793,-0.116 -9.327,-0.116 -10.12,0 -14.203,0.052 -9.073,0.116 m 104.273,0.9 c 0.341,0.66 0.711,1.2 0.821,1.2 0.11,0 -0.08,-0.54 -0.421,-1.2 -0.341,-0.66 -0.711,-1.2 -0.821,-1.2 -0.11,0 0.08,0.54 0.421,1.2 m 191.5,-0.9 c 5.005,0.063 13.195,0.063 18.2,0 5.005,-0.064 0.91,-0.116 -9.1,-0.116 -10.01,0 -14.105,0.052 -9.1,0.116 m -308.3,0.5 c -0.504,0.217 -0.578,0.344 -0.2,0.344 0.33,0 0.96,-0.155 1.4,-0.344 0.504,-0.217 0.578,-0.344 0.2,-0.344 -0.33,0 -0.96,0.155 -1.4,0.344 m 41.6,0 c 0.44,0.189 1.07,0.344 1.4,0.344 0.378,0 0.304,-0.127 -0.2,-0.344 -0.44,-0.189 -1.07,-0.344 -1.4,-0.344 -0.378,0 -0.304,0.127 0.2,0.344 m 254.4,0 c -0.504,0.217 -0.578,0.344 -0.2,0.344 0.33,0 0.96,-0.155 1.4,-0.344 0.504,-0.217 0.578,-0.344 0.2,-0.344 -0.33,0 -0.96,0.155 -1.4,0.344 m 41.6,0 c 0.44,0.189 1.07,0.344 1.4,0.344 0.378,0 0.304,-0.127 -0.2,-0.344 -0.44,-0.189 -1.07,-0.344 -1.4,-0.344 -0.378,0 -0.304,0.127 0.2,0.344 m -340.5,1.574 c -0.891,0.645 -1.747,1.378 -1.902,1.629 -0.216,0.35 2.914,-1.849 3.769,-2.647 0.62,-0.58 -0.52,0.042 -1.867,1.018 m 342.7,-1.08 c 0.11,0.119 1.1,0.893 2.2,1.718 1.178,0.883 1.64,1.107 1.124,0.544 -0.482,-0.526 -1.472,-1.299 -2.2,-1.718 -0.728,-0.419 -1.234,-0.664 -1.124,-0.544 M 77.582,189.4 c 0.965,1.1 1.838,2.09 1.94,2.2 0.103,0.11 -0.003,-0.16 -0.235,-0.6 -0.232,-0.44 -1.105,-1.43 -1.94,-2.2 -1.444,-1.331 -1.432,-1.301 0.235,0.6 m 244.469,-0.009 c -0.908,0.985 -1.651,1.915 -1.651,2.067 0,0.151 0.059,0.2 0.132,0.109 0.072,-0.092 0.905,-1.022 1.851,-2.067 0.945,-1.045 1.629,-1.9 1.519,-1.9 -0.11,0 -0.943,0.806 -1.851,1.791 M 148.418,188.6 c 0,0.22 0.352,0.85 0.782,1.4 0.43,0.55 0.782,0.82 0.782,0.6 0,-0.22 -0.352,-0.85 -0.782,-1.4 -0.43,-0.55 -0.782,-0.82 -0.782,-0.6 m 107.057,3.271 c -0.822,1.249 -1.166,1.974 -0.764,1.61 0.688,-0.623 2.703,-3.881 2.4,-3.881 -0.077,0 -0.813,1.022 -1.636,2.271 M 92.1,191.465 c -0.275,0.111 -0.5,0.389 -0.5,0.617 0,0.282 0.167,0.278 0.515,-0.012 0.284,-0.235 1.679,-0.492 3.1,-0.572 l 2.585,-0.144 -2.6,-0.045 c -1.43,-0.025 -2.825,0.045 -3.1,0.156 m 59.574,2.199 c 0.95,1.355 2.959,3.785 4.466,5.4 l 2.739,2.936 h 44.274 44.274 l 2.173,-2.2 c 1.195,-1.21 2.051,-2.2 1.902,-2.2 -0.148,0 -1.112,0.9 -2.141,2 l -1.87,2 h -44.3 -44.299 l -2.405,-2.571 c -1.323,-1.413 -3.249,-3.753 -4.281,-5.2 -1.032,-1.446 -1.962,-2.629 -2.067,-2.629 -0.104,0 0.586,1.109 1.535,2.464 M 304.8,191.491 c 1.831,0.097 2.748,0.333 3.1,0.8 0.444,0.588 0.5,0.591 0.5,0.028 0,-0.885 -0.88,-1.131 -3.733,-1.042 l -2.467,0.077 2.6,0.137 m -202.6,2.558 c 0.88,0.991 1.663,1.758 1.739,1.704 0.25,-0.176 -1.268,-1.98 -2.316,-2.752 -0.668,-0.492 -0.467,-0.128 0.577,1.048 m 195.006,0.145 c -0.743,0.767 -1.272,1.473 -1.175,1.571 0.097,0.097 0.77,-0.531 1.496,-1.394 1.633,-1.946 1.476,-2.032 -0.321,-0.177 M 92.166,200.4 c 0,4.07 0.059,5.735 0.132,3.7 0.073,-2.035 0.073,-5.365 0,-7.4 -0.073,-2.035 -0.132,-0.37 -0.132,3.7 m 215.598,-0.2 c -0.001,3.74 0.059,5.324 0.133,3.52 0.074,-1.805 0.075,-4.865 0.001,-6.8 -0.073,-1.936 -0.134,-0.46 -0.134,3.28 m 68.436,0.827 c 0,4.042 0.122,7.039 0.272,6.661 0.374,-0.947 0.4,-13.597 0.028,-13.825 -0.165,-0.102 -0.3,3.122 -0.3,7.164 M 80.565,200.8 c 0,3.85 0.06,5.425 0.133,3.5 0.073,-1.925 0.073,-5.075 0,-7 -0.073,-1.925 -0.133,-0.35 -0.133,3.5 m 238.799,-0.2 c -10e-4,3.74 0.059,5.324 0.133,3.52 0.074,-1.805 0.075,-4.865 10e-4,-6.8 -0.073,-1.936 -0.134,-0.46 -0.134,3.28 m -296.002,0 c 0,3.52 0.062,4.906 0.136,3.081 0.074,-1.825 0.074,-4.705 -0.001,-6.4 -0.075,-1.695 -0.136,-0.201 -0.135,3.319 m 80.838,3.6 c 0,4.248 0.132,7.516 0.294,7.262 0.162,-0.254 0.294,-3.522 0.294,-7.262 0,-3.74 -0.132,-7.008 -0.294,-7.262 -0.162,-0.254 -0.294,3.014 -0.294,7.262 m 191.267,-7.133 c -0.365,0.364 -0.328,13.818 0.039,14.395 0.162,0.255 0.294,-2.94 0.294,-7.099 0,-4.16 -0.015,-7.563 -0.033,-7.563 -0.019,0 -0.154,0.12 -0.3,0.267 M 23.844,208.4 c 0.136,0.77 0.41,1.67 0.607,2 0.426,0.71 0.017,-1.363 -0.512,-2.6 -0.231,-0.54 -0.262,-0.344 -0.095,0.6 m 295.989,0.601 c 0.36,1.448 1.314,3.799 1.542,3.799 0.191,0 -1.352,-4.502 -1.644,-4.799 -0.108,-0.11 -0.062,0.34 0.102,1 m -228.587,1.866 c -0.025,0.367 -0.15,0.997 -0.276,1.4 -0.218,0.695 -0.207,0.696 0.227,0.02 0.251,-0.391 0.376,-1.021 0.276,-1.4 -0.162,-0.619 -0.185,-0.621 -0.227,-0.02 m 217.802,2.233 c 0.144,0.605 0.418,1.403 0.607,1.774 0.979,1.912 0.674,2.036 -4.555,1.853 -2.695,-0.094 -4.45,-0.044 -3.9,0.111 0.55,0.155 2.761,0.3 4.913,0.322 4.543,0.046 4.664,-0.056 3.665,-3.111 -0.715,-2.187 -1.166,-2.773 -0.73,-0.949 M 296,212.664 c 0,0.54 2.303,2.85 3.4,3.411 0.44,0.224 0.127,-0.162 -0.695,-0.858 -0.822,-0.697 -1.767,-1.655 -2.1,-2.131 -0.333,-0.475 -0.605,-0.665 -0.605,-0.422 m -218.601,1.848 c -0.417,0.709 -1.573,2.188 -2.567,3.288 -1.595,1.764 -1.629,1.835 -0.282,0.6 1.58,-1.449 4.048,-4.735 3.768,-5.016 -0.088,-0.088 -0.502,0.42 -0.919,1.128 m 12.633,0.191 c -0.293,0.887 -0.409,1.811 -0.258,2.054 0.303,0.491 7.347,0.555 9.026,0.081 0.55,-0.155 -1.205,-0.205 -3.9,-0.111 -5.287,0.185 -5.565,0.062 -4.474,-1.975 0.234,-0.438 0.361,-0.991 0.282,-1.228 -0.079,-0.238 -0.383,0.293 -0.676,1.179 m 25.163,-0.29 c -0.277,0.667 -0.409,1.306 -0.295,1.42 0.114,0.114 0.399,-0.342 0.633,-1.014 l 0.426,-1.221 84.063,0.101 84.062,0.101 0.969,2.4 c 0.533,1.32 1.342,2.85 1.798,3.4 l 0.828,1 -0.809,-1.4 c -0.445,-0.77 -1.195,-2.435 -1.668,-3.7 l -0.859,-2.3 H 200.02 115.697 l -0.502,1.213 M 321.6,213.335 c 0,0.614 2.334,3.674 3.862,5.063 l 1.538,1.398 -1.646,-1.798 c -0.906,-0.989 -2.121,-2.515 -2.7,-3.391 -0.58,-0.876 -1.054,-1.448 -1.054,-1.272 m -309.338,1.796 c -0.364,0.403 -0.655,1.078 -0.646,1.5 0.01,0.524 0.196,0.354 0.58,-0.531 0.856,-1.968 1.446,-1.571 3.305,2.226 0.963,1.965 2.577,4.429 3.718,5.674 l 2.017,2.2 -1.992,-2.547 c -1.095,-1.401 -2.756,-4.056 -3.691,-5.9 -1.774,-3.499 -2.194,-3.833 -3.291,-2.622 m 373.343,0.255 c -0.206,0.543 -0.752,1.758 -1.213,2.7 -0.782,1.6 -0.785,1.649 -0.052,0.733 0.432,-0.539 1.011,-1.664 1.287,-2.5 0.592,-1.795 1.32,-1.938 2.144,-0.419 0.328,0.605 0.598,0.83 0.6,0.5 0.01,-1.842 -2.15,-2.634 -2.766,-1.014 m -15.227,2.914 -1.378,1.5 1.5,-1.378 c 0.825,-0.759 1.5,-1.434 1.5,-1.5 0,-0.306 -0.338,-0.018 -1.622,1.378 M 30.4,218.986 c 0,0.179 0.315,0.574 0.7,0.877 0.836,0.658 2.473,1.588 1.9,1.08 -2.082,-1.847 -2.6,-2.237 -2.6,-1.957 m 41.256,1.448 c -0.52,0.421 -0.79,0.76 -0.6,0.753 0.488,-0.018 1.92,-1.144 1.715,-1.348 -0.094,-0.094 -0.596,0.174 -1.115,0.595 M 327.2,219.927 c 0,0.189 0.45,0.55 1,0.8 0.55,0.251 1,0.39 1,0.31 0,-0.08 -0.45,-0.44 -1,-0.8 -0.55,-0.361 -1,-0.5 -1,-0.31 m 40.4,0.493 -1,0.802 1.1,-0.475 c 0.605,-0.262 1.1,-0.627 1.1,-0.811 0,-0.457 -0.055,-0.434 -1.2,0.484 m 15.216,0.351 c -0.247,0.461 -1.282,1.872 -2.3,3.134 -1.018,1.262 -1.461,1.953 -0.986,1.535 1.306,-1.147 4.214,-5.029 3.959,-5.284 -0.123,-0.124 -0.426,0.153 -0.673,0.615 m -272.539,1.882 c -1.058,1.009 -1.857,1.901 -1.776,1.981 0.081,0.081 1.03,-0.748 2.108,-1.843 2.459,-2.496 2.237,-2.588 -0.332,-0.138 m 179.114,0.138 c 1.078,1.095 2.02,1.932 2.092,1.859 0.162,-0.161 -3.498,-3.85 -3.821,-3.85 -0.127,0 0.65,0.896 1.729,1.991 m -248.852,1.303 c 0.578,0.368 22.214,0.348 23.147,-0.022 0.377,-0.15 -4.781,-0.272 -11.462,-0.272 -6.681,0 -11.939,0.132 -11.685,0.294 m 295.776,-0.022 c 0.377,0.149 5.635,0.272 11.685,0.272 6.05,0 11.308,-0.123 11.685,-0.272 0.377,-0.15 -4.881,-0.272 -11.685,-0.272 -6.804,0 -12.062,0.122 -11.685,0.272 M 292,224.983 c 0,0.36 3.641,2.309 3.875,2.075 0.132,-0.132 -0.101,-0.363 -0.518,-0.514 -0.416,-0.151 -1.235,-0.605 -1.819,-1.009 -1.054,-0.73 -1.538,-0.903 -1.538,-0.552 m -186.93,1.296 c -0.622,0.326 -1.044,0.681 -0.937,0.787 0.209,0.21 2.667,-0.966 2.667,-1.276 0,-0.298 -0.506,-0.155 -1.73,0.489 m -81.794,1.792 c 1.032,0.951 2.472,2.052 3.2,2.446 1.273,0.69 1.286,0.69 0.342,0 -0.54,-0.394 -1.98,-1.495 -3.2,-2.446 l -2.218,-1.73 1.876,1.73 M 101.6,227.6 c -0.795,0.514 0.204,0.514 1.4,0 l 0.8,-0.344 -0.8,-0.022 c -0.44,-0.012 -1.07,0.153 -1.4,0.366 m 195.4,0 c 1.196,0.514 2.195,0.514 1.4,0 -0.33,-0.213 -0.96,-0.378 -1.4,-0.366 l -0.8,0.022 0.8,0.344 m 77.916,1.516 c -1.366,1.017 -2.41,1.924 -2.319,2.015 0.199,0.198 3.889,-2.47 4.599,-3.326 0.738,-0.889 0.462,-0.73 -2.28,1.311 M 79.5,228.888 c -0.825,0.478 -1.5,1.026 -1.5,1.218 0,0.192 0.523,-0.024 1.162,-0.479 1.078,-0.767 1.749,-0.83 9.3,-0.867 4.476,-0.021 9.128,-0.176 10.338,-0.343 1.413,-0.196 -1.378,-0.321 -7.8,-0.351 -9.584,-0.046 -10.062,-0.011 -11.5,0.822 m 222.1,-0.471 c 1.21,0.167 5.81,0.322 10.221,0.343 l 8.021,0.04 1.579,1.158 c 3.14,2.302 10.172,5.276 12.345,5.221 0.459,-0.012 -0.659,-0.463 -2.483,-1.002 -3.758,-1.111 -6.457,-2.392 -9.761,-4.632 l -2.278,-1.545 -9.922,0.056 c -6.422,0.037 -9.146,0.164 -7.722,0.361 m -227.019,3.41 c -1.331,0.733 -3.941,1.782 -5.8,2.331 -1.86,0.55 -3.006,1.009 -2.547,1.021 1.781,0.045 9.815,-3.136 11.146,-4.414 0.72,-0.691 -0.357,-0.282 -2.799,1.062 M 28,231.39 c 0,0.234 2.239,1.411 2.68,1.409 0.176,-0.001 -0.269,-0.361 -0.99,-0.8 C 28.351,231.182 28,231.056 28,231.39 m 341.4,1.025 c -1.32,0.63 -2.169,1.154 -1.887,1.165 0.575,0.022 4.487,-1.885 4.487,-2.187 0,-0.24 0.235,-0.332 -2.6,1.022 M 33.4,234 c 0.136,0.22 0.642,0.387 1.124,0.372 0.845,-0.027 0.847,-0.041 0.076,-0.372 -1.101,-0.473 -1.492,-0.473 -1.2,0 m 332,0 c -0.771,0.331 -0.769,0.345 0.076,0.372 0.482,0.015 0.988,-0.152 1.124,-0.372 0.292,-0.473 -0.099,-0.473 -1.2,0 M 36,234.779 c 0.33,0.225 1.125,0.412 1.767,0.415 1.537,0.008 1.217,-0.224 -0.767,-0.556 -1.146,-0.192 -1.43,-0.152 -1,0.141 m 326.4,0.021 -1,0.32 1,0.034 c 0.55,0.019 1.27,-0.141 1.6,-0.354 0.764,-0.494 -0.058,-0.494 -1.6,0 m -321.6,0.87 c 0.99,0.149 6.03,0.271 11.2,0.271 5.17,0 10.21,-0.122 11.2,-0.271 0.99,-0.148 -4.05,-0.27 -11.2,-0.27 -7.15,0 -12.19,0.122 -11.2,0.27 M 337,235.665 c 2.628,0.348 19.89,0.352 22.2,0.005 0.99,-0.148 -4.05,-0.27 -11.2,-0.27 -7.15,0 -12.1,0.119 -11,0.265 m -325.399,9.36 c -0.001,1.001 1.319,2.488 2.663,3 1.339,0.508 370.133,0.508 371.472,0 1.234,-0.47 2.664,-1.974 2.663,-2.8 -10e-4,-0.344 -0.361,-0.036 -0.801,0.685 -0.439,0.72 -1.26,1.485 -1.824,1.7 -1.669,0.635 -370.502,0.514 -371.774,-0.121 -0.55,-0.275 -1.315,-1.128 -1.699,-1.895 -0.523,-1.041 -0.7,-1.185 -0.7,-0.569 m 16.266,14.842 c -0.147,0.146 -0.267,5.726 -0.267,12.4 V 284.4 H 74 120.4 V 272 259.6 H 74.267 c -25.374,0 -46.254,0.12 -46.4,0.267 M 132,272 v 12.4 h 68 68 V 272 259.6 H 200 132 V 272 m 147.6,-0.002 V 284.4 h 43.006 43.006 l -0.106,-12.3 -0.106,-12.3 -42.9,-0.102 -42.9,-0.102 v 12.402 M 120,272.2 V 284 H 74.2 28.4 V 272.2 260.4 H 74.2 120 v 11.8 m 147.6,0 V 284 H 200 132.4 v -11.8 -11.8 h 67.6 67.6 v 11.8 m 97.2,0 V 284 H 322.4 280 v -11.8 -11.8 h 42.4 42.4 v 11.8 M 27.6,309 v 13.009 L 43.1,321.905 58.6,321.8 V 309 296.2 L 43.1,296.095 27.6,295.991 V 309 m 42.182,-12.496 c -0.107,0.277 -0.146,6.082 -0.088,12.9 l 0.106,12.396 62.3,0.101 62.3,0.102 V 309.001 296 h -62.213 c -49.658,0 -62.251,0.102 -62.405,0.504 M 205.6,308.999 V 322 h 62.406 62.405 l -0.105,-12.9 -0.106,-12.9 -62.3,-0.101 -62.3,-0.102 v 13.002 m 136,10e-4 v 13 h 12 12 v -13 -13 h -12 -12 v 13 M 58,309 v 12.6 H 43 28 V 309 296.4 H 43 58 V 309 m 136,0 v 12.6 H 132.2 70.4 V 309 296.4 H 132.2 194 V 309 m 135.6,0 v 12.6 H 268 206.4 V 309 296.4 H 268 329.6 V 309 m 35.2,0 v 12.6 H 353.4 342 V 309 296.4 h 11.4 11.4 V 309 M 27.694,346.1 27.8,358.6 H 74 120.2 l 0.106,-12.5 0.105,-12.5 H 74 27.589 l 0.105,12.5 m 104.4,0 0.106,12.5 15.7,0.2 15.701,0.2 1.339,1.069 c 0.897,0.715 1.509,1.676 1.854,2.911 0.284,1.014 0.593,1.766 0.687,1.672 0.507,-0.507 -0.916,-3.779 -2.149,-4.942 l -1.389,-1.31 H 148.172 132.4 v -12.202 -12.203 l 67.8,0.103 c 37.29,0.056 67.8,-0.033 67.8,-0.198 0,-0.165 -30.603,-0.3 -68.006,-0.3 h -68.005 l 0.105,12.5 m 147.6,0 0.106,12.5 42,0.11 c 23.1,0.06 42.405,0.012 42.9,-0.108 l 0.9,-0.217 V 345.992 333.6 h -43.006 -43.005 l 0.105,12.5 M 120,346.2 v 12.2 H 74.243 c -41.356,0 -45.781,-0.061 -46,-0.633 -0.332,-0.865 -0.31,-23.167 0.024,-23.5 0.146,-0.147 20.846,-0.267 46,-0.267 H 120 v 12.2 m 244.8,-0.265 v 11.935 l -16.5,0.264 c -9.075,0.146 -28.155,0.265 -42.4,0.265 L 280,358.4 V 346.2 334 h 42.4 42.4 v 11.935 M 267.6,358 c 0,0.264 -13.754,0.4 -40.462,0.4 h -40.462 l -1.339,1.021 c -1.474,1.124 -2.293,2.499 -2.67,4.479 -0.362,1.906 0.05,1.586 0.558,-0.435 0.457,-1.814 1.568,-3.319 3.074,-4.165 0.696,-0.391 9.713,-0.5 41.296,-0.5 35.649,0 40.405,-0.071 40.405,-0.6 0,-0.33 -0.09,-0.6 -0.2,-0.6 -0.11,0 -0.2,0.18 -0.2,0.4"
       stroke="none"
       fill="#624030"
       fill-rule="evenodd" />
    <path
       id="path5"
       d="m 165.729,115.1 c 7.661,0.061 20.081,0.061 27.6,0 7.519,-0.061 1.251,-0.111 -13.929,-0.111 -15.18,0 -21.332,0.05 -13.671,0.111 m -19.25,1.135 c -1.985,0.99 -4.902,3.834 -4.858,4.737 0.012,0.235 0.327,-0.013 0.7,-0.552 1.526,-2.201 4.588,-4.42 6.101,-4.42 0.402,0 0.842,-0.18 0.978,-0.4 0.431,-0.697 -0.773,-0.435 -2.921,0.635 M 209.6,115.6 c 0.33,0.213 1.05,0.373 1.6,0.354 l 1,-0.034 -1,-0.32 c -1.542,-0.494 -2.364,-0.494 -1.6,0 m 4.8,1.348 c 0,0.093 0.9,0.746 1.999,1.451 1.099,0.706 2.457,1.827 3.016,2.492 0.56,0.665 1.107,1.12 1.217,1.01 0.273,-0.273 -3.719,-3.822 -5.107,-4.54 -0.619,-0.32 -1.125,-0.506 -1.125,-0.413 m 6.937,6.448 c 0.255,0.549 0.604,0.999 0.777,1.001 0.368,0.004 -0.351,-1.449 -0.879,-1.775 -0.198,-0.123 -0.152,0.226 0.102,0.774 M 154.2,125.2 c -0.141,0.228 0.204,0.4 0.8,0.4 0.596,0 0.941,-0.172 0.8,-0.4 -0.136,-0.22 -0.496,-0.4 -0.8,-0.4 -0.304,0 -0.664,0.18 -0.8,0.4 m 33.6,0 c -0.141,0.228 0.204,0.4 0.8,0.4 0.596,0 0.941,-0.172 0.8,-0.4 -0.136,-0.22 -0.496,-0.4 -0.8,-0.4 -0.304,0 -0.664,0.18 -0.8,0.4 M 140.575,136 c 0,6.05 0.056,8.525 0.124,5.5 0.068,-3.025 0.068,-7.975 0,-11 -0.068,-3.025 -0.124,-0.55 -0.124,5.5 m 9.235,-8.248 c -2.107,2.761 -1.744,8.757 0.669,11.063 1.855,1.773 2.166,1.43 0.35,-0.386 -2.47,-2.47 -2.763,-7.867 -0.582,-10.726 0.547,-0.717 0.904,-1.303 0.794,-1.303 -0.11,0 -0.664,0.608 -1.231,1.352 m 8.99,-1.197 c 0,0.153 0.36,0.665 0.8,1.137 0.44,0.472 0.8,0.673 0.8,0.445 0,-0.227 -0.36,-0.739 -0.8,-1.137 -0.44,-0.398 -0.8,-0.599 -0.8,-0.445 m 24.998,0.647 c -1.07,1.182 -0.497,1.368 0.603,0.196 0.516,-0.549 0.755,-0.998 0.531,-0.998 -0.225,0 -0.735,0.361 -1.134,0.802 m 9.204,0 c 0.4,0.442 0.809,0.72 0.91,0.619 0.216,-0.216 -0.924,-1.421 -1.345,-1.421 -0.16,0 0.036,0.361 0.435,0.802 m -10.335,1.865 c -1.663,1.662 0.25,9.311 2.649,10.595 0.511,0.273 0.262,-0.114 -0.589,-0.916 -1.793,-1.691 -2.028,-2.539 -1.859,-6.701 0.073,-1.786 0.117,-3.246 0.099,-3.246 -0.019,0.001 -0.154,0.121 -0.3,0.268 m 41.422,3.733 c -0.006,3.001 0.041,3.223 0.394,1.892 0.265,-0.999 0.267,-2.149 0.006,-3.4 -0.377,-1.811 -0.395,-1.746 -0.4,1.508 m -65.439,6.051 c -0.633,0.632 -0.993,1.149 -0.8,1.149 0.424,-0.001 2.55,-1.79 2.55,-2.147 0,-0.488 -0.61,-0.14 -1.75,0.998 m 33.765,-0.012 c -0.762,0.639 -1.212,1.161 -1,1.161 0.481,-0.001 2.774,-1.946 2.55,-2.163 -0.091,-0.087 -0.788,0.363 -1.55,1.002 m 29.825,2.001 c -0.354,0.709 -0.566,1.367 -0.471,1.462 0.095,0.095 0.469,-0.401 0.831,-1.102 0.362,-0.701 0.574,-1.359 0.471,-1.462 -0.103,-0.103 -0.477,0.393 -0.831,1.102 m -68.971,-0.389 c 0.292,0.185 1.071,0.337 1.731,0.337 0.66,0 1.439,-0.152 1.731,-0.337 0.324,-0.205 -0.352,-0.337 -1.731,-0.337 -1.379,0 -2.055,0.132 -1.731,0.337 M 187,140.43 c 1.078,0.423 2.681,0.433 3.331,0.021 0.323,-0.204 -0.384,-0.336 -1.8,-0.336 -1.54,0.001 -2.06,0.108 -1.531,0.315 m 31.793,4.753 c -2.077,2.12 -5.789,4.409 -7.172,4.423 -0.341,0.003 -0.891,0.183 -1.221,0.4 -0.423,0.277 -0.187,0.319 0.8,0.141 2.986,-0.536 7.727,-3.698 9.966,-6.647 1.093,-1.439 -0.242,-0.492 -2.373,1.683 m -77.98,2.647 c -0.014,0.465 1.414,1.868 2.387,2.345 0.33,0.162 0.2,-0.036 -0.288,-0.44 -0.489,-0.404 -1.158,-1.095 -1.487,-1.535 -0.33,-0.44 -0.605,-0.606 -0.612,-0.37 m 19.487,2.87 c 9.075,0.06 23.925,0.06 33,0 9.075,-0.06 1.65,-0.109 -16.5,-0.109 -18.15,0 -25.575,0.049 -16.5,0.109 M 116,214.534 c 0,3.254 -5.694,10.073 -10.201,12.217 -4.418,2.101 -4.564,2.122 -15.951,2.322 l -9.552,0.168 -2.248,1.506 c -2.566,1.718 -4.773,2.786 -8.466,4.095 -3.894,1.381 -28.164,1.667 -33.284,0.393 -9.365,-2.33 -17.829,-9.272 -21.751,-17.839 -2.17,-4.739 -2.547,-2.747 -2.547,13.449 0,14.147 0.058,14.678 1.747,16.046 0.805,0.653 11.186,0.691 186.253,0.691 175.067,0 185.448,-0.038 186.253,-0.691 1.689,-1.368 1.747,-1.899 1.747,-16.046 0,-15.614 -0.4,-18.128 -2.217,-13.945 -2.296,5.283 -10.748,14.7 -13.193,14.7 -0.147,0 -0.766,0.356 -1.376,0.79 -0.611,0.435 -2.798,1.38 -4.862,2.1 L 362.6,235.8 H 348 c -17.096,0 -19.445,-0.478 -26.615,-5.41 l -1.669,-1.149 -9.558,-0.168 c -9.198,-0.161 -11.426,-0.341 -13.158,-1.059 -2.847,-1.182 -3.954,-1.792 -6.048,-3.335 -2.6,-1.916 -5.257,-5.525 -6.393,-8.685 L 283.842,214 H 199.921 C 130.21,214 116,214.09 116,214.534"
       stroke="none"
       fill="#e2bcb0"
       fill-rule="evenodd" />
    <path
       id="path6"
       d="m 201.491,65.089 c 0.71,0.088 1.97,0.09 2.8,0.003 0.83,-0.087 0.249,-0.159 -1.291,-0.161 -1.54,-0.002 -2.219,0.069 -1.509,0.158 M 164.3,103.1 c 8.195,0.06 21.605,0.06 29.8,0 8.195,-0.061 1.49,-0.11 -14.9,-0.11 -16.39,0 -23.095,0.049 -14.9,0.11 m -16.254,12.063 c -0.341,0.216 0.196,0.278 1.4,0.161 2.709,-0.264 3.087,-0.456 0.954,-0.486 -0.99,-0.014 -2.049,0.132 -2.354,0.325 m 58.787,-0.218 c 0.092,0.079 1.247,0.242 2.567,0.362 1.449,0.131 2.083,0.085 1.6,-0.117 -0.77,-0.321 -4.507,-0.541 -4.167,-0.245 m 7.524,1.865 c 1.727,0.817 3.415,2.084 5.197,3.9 1.452,1.48 2.248,2.139 1.769,1.465 -1.964,-2.764 -7.188,-6.576 -9.01,-6.575 -0.282,0 0.638,0.545 2.044,1.21 m -74.1,7.49 c -0.334,2.021 -0.272,22.122 0.071,22.982 0.15,0.376 0.272,-4.979 0.272,-11.9 0,-6.92 -0.021,-12.582 -0.048,-12.582 -0.026,0 -0.159,0.675 -0.295,1.5 m 11.106,2.4 c -0.664,0.605 -0.922,0.883 -0.573,0.618 0.349,-0.266 1.258,-0.753 2.022,-1.085 0.991,-0.429 1.155,-0.606 0.573,-0.617 -0.448,-0.009 -1.358,0.479 -2.022,1.084 m 5.415,-0.659 c 0.539,0.215 1.214,0.586 1.5,0.824 0.301,0.25 0.522,0.27 0.522,0.048 0,-0.426 -1.763,-1.327 -2.519,-1.288 -0.264,0.014 -0.041,0.202 0.497,0.416 m 33.422,-0.148 c 2.79,0.699 3.936,2.569 4.231,6.907 l 0.231,3.4 0.069,-3.12 c 0.093,-4.203 -1.989,-7.591 -4.569,-7.434 -0.711,0.044 -0.709,0.06 0.038,0.247 m 33.211,0.507 c 0.14,0.55 0.505,1.99 0.811,3.2 l 0.556,2.2 -0.216,-1.919 c -0.119,-1.056 -0.484,-2.496 -0.811,-3.2 -0.426,-0.918 -0.523,-0.998 -0.34,-0.281 m -39.37,1.414 c -0.682,0.778 -1.23,1.723 -1.216,2.1 0.017,0.463 0.155,0.36 0.423,-0.314 0.219,-0.55 0.871,-1.495 1.45,-2.1 0.578,-0.605 0.947,-1.1 0.818,-1.1 -0.128,0 -0.792,0.636 -1.475,1.414 m -23.811,1.445 c 0.479,0.924 0.612,2.033 0.504,4.172 -0.081,1.602 -0.012,2.701 0.154,2.441 0.861,-1.354 -0.057,-7.872 -1.109,-7.872 -0.11,0 0.093,0.567 0.451,1.259 M 148.924,133 c 0.002,1.32 0.077,1.812 0.166,1.093 0.089,-0.719 0.087,-1.799 -0.004,-2.4 -0.091,-0.601 -0.164,-0.013 -0.162,1.307 m 148.775,1.3 c -0.274,0.092 -0.499,0.422 -0.499,0.733 0,0.312 -0.18,0.567 -0.4,0.567 -0.22,0 -0.4,0.188 -0.4,0.417 0,0.229 -0.36,0.803 -0.8,1.275 -0.44,0.472 -0.8,1.095 -0.8,1.383 0,0.289 -0.168,0.525 -0.373,0.525 -0.205,0 -0.48,0.338 -0.611,0.751 -0.132,0.413 -0.683,1.268 -1.227,1.9 -0.543,0.632 -0.988,1.374 -0.989,1.649 0,0.275 -0.18,0.5 -0.4,0.5 -0.22,0 -0.4,0.229 -0.4,0.509 0,0.28 -0.528,1.149 -1.173,1.931 -4.032,4.892 -12.027,18.095 -12.027,19.862 0,0.993 -0.164,2.456 -0.365,3.252 -0.201,0.795 -0.578,2.436 -0.838,3.646 -0.259,1.21 -0.631,2.74 -0.825,3.4 -0.654,2.216 -2.021,6.393 -2.357,7.2 -1.335,3.206 -1.889,4.415 -3.48,7.6 -0.99,1.98 -2.685,4.91 -3.767,6.512 -1.082,1.601 -1.968,3.09 -1.968,3.307 0,0.252 3.506,0.357 9.7,0.288 l 9.7,-0.107 0.25,-3.4 c 0.759,-10.312 8.432,-17.74 19.114,-18.503 1.344,-0.096 1.906,-0.69 4.439,-4.697 0.466,-0.738 6.033,-9.412 11.391,-17.75 4.802,-7.473 4.569,-6.84 2.829,-7.666 -0.782,-0.371 -1.423,-0.791 -1.423,-0.932 0,-0.141 -0.506,-0.481 -1.125,-0.755 -0.619,-0.273 -1.511,-0.857 -1.983,-1.297 -0.472,-0.44 -1.012,-0.8 -1.2,-0.8 -0.188,0 -0.69,-0.315 -1.117,-0.7 -0.426,-0.385 -1.27,-0.955 -1.875,-1.268 -0.605,-0.312 -1.1,-0.717 -1.1,-0.9 0,-0.182 -0.236,-0.332 -0.525,-0.332 -0.288,0 -0.882,-0.315 -1.32,-0.7 -0.438,-0.385 -1.147,-0.9 -1.575,-1.143 -0.429,-0.244 -2.85,-1.789 -5.381,-3.434 -2.53,-1.644 -4.825,-2.914 -5.1,-2.823 M 224.2,136 c -0.154,0.91 -0.196,1.738 -0.093,1.84 0.103,0.103 0.306,-0.563 0.453,-1.48 0.147,-0.917 0.188,-1.745 0.093,-1.84 -0.095,-0.096 -0.299,0.57 -0.453,1.48 m -31.174,1.9 c -0.864,1.105 -0.933,1.29 -0.263,0.704 0.802,-0.7 1.86,-2.204 1.551,-2.204 -0.063,0 -0.642,0.675 -1.288,1.5 m 28.666,4.729 c -0.495,0.754 -0.82,1.371 -0.723,1.371 0.278,0 1.935,-2.429 1.77,-2.594 -0.082,-0.082 -0.553,0.468 -1.047,1.223 m -2.458,3.124 -0.965,1.247 1.144,-1.088 c 0.63,-0.598 1.064,-1.159 0.966,-1.247 -0.099,-0.088 -0.614,0.402 -1.145,1.088 m -78.009,3.338 c 0.558,0.893 2.324,1.893 2.693,1.524 0.119,-0.118 0.019,-0.215 -0.221,-0.215 -0.239,0 -1.014,-0.486 -1.72,-1.081 -1.067,-0.897 -1.194,-0.936 -0.752,-0.228 M 214,149.2 c -0.77,0.422 -1.256,0.774 -1.08,0.783 0.424,0.022 2.68,-1.151 2.68,-1.393 0,-0.262 -0.023,-0.253 -1.6,0.61 m -3.8,1.2 c -0.504,0.217 -0.578,0.344 -0.2,0.344 0.33,0 0.96,-0.155 1.4,-0.344 0.504,-0.217 0.578,-0.344 0.2,-0.344 -0.33,0 -0.96,0.155 -1.4,0.344 m -49.47,0.7 c 8.651,0.06 22.691,0.06 31.2,0 8.508,-0.06 1.43,-0.11 -15.73,-0.11 -17.16,0 -24.122,0.05 -15.47,0.11 m -45.004,63.2 c -1.702,4.78 -4.567,8.629 -8.29,11.136 -1.958,1.319 -2.325,1.885 -0.561,0.864 3.884,-2.246 9.125,-9.004 9.125,-11.766 0,-0.444 14.207,-0.534 83.902,-0.534 h 83.902 l 0.902,2.325 c 1.6,4.127 7.389,10.475 9.552,10.475 0.182,0 -0.58,-0.614 -1.694,-1.364 -3.623,-2.44 -6.726,-6.605 -8.296,-11.136 -0.378,-1.089 -168.154,-1.089 -168.542,0 m -103.344,1.334 c -0.246,0.459 -0.359,0.923 -0.251,1.03 0.108,0.108 0.319,-0.19 0.469,-0.663 0.165,-0.522 0.494,-0.774 0.836,-0.642 0.31,0.119 0.564,0.042 0.564,-0.172 0,-0.717 -1.168,-0.395 -1.618,0.447 m 373.313,0.44 c -0.62,1.642 -0.361,1.935 0.3,0.339 1.56,-3.768 2.005,-0.567 2.005,14.432 0,14.14 -0.054,14.637 -1.747,16.085 -0.516,0.441 -0.616,0.666 -0.253,0.569 3.17,-0.848 3.83,-32.699 0.677,-32.699 -0.276,0 -0.718,0.573 -0.982,1.274 m -371.688,0.039 c -0.012,0.519 2.033,4.38 2.221,4.192 0.096,-0.095 -0.363,-1.148 -1.02,-2.339 -0.656,-1.191 -1.197,-2.025 -1.201,-1.853 M 11.78,230.8 c 0,7.59 0.054,10.695 0.119,6.9 0.066,-3.795 0.066,-10.005 0,-13.8 -0.065,-3.795 -0.119,-0.69 -0.119,6.9 m 372.474,-11.827 c -0.36,0.55 -0.654,1.157 -0.654,1.351 0,0.194 -1.08,1.639 -2.4,3.211 -2.651,3.158 -3.218,4.24 -0.95,1.815 1.654,-1.768 5.119,-6.914 4.842,-7.191 -0.101,-0.101 -0.478,0.265 -0.838,0.814 m -367.85,1.911 c -0.005,0.321 3.329,4.486 4.58,5.722 3.165,3.129 11.738,8.405 12.469,7.675 0.144,-0.144 -0.079,-0.376 -0.496,-0.515 -5.332,-1.779 -11.189,-6.235 -15.466,-11.766 -0.595,-0.77 -1.084,-1.272 -1.087,-1.116 m 359.867,7.705 c -1.978,1.749 -7.714,5.011 -8.811,5.011 -0.337,0 -0.736,0.199 -0.886,0.443 -0.731,1.182 5.878,-1.991 8.826,-4.238 1.938,-1.477 3.14,-2.599 2.964,-2.766 -0.09,-0.085 -1.032,0.612 -2.093,1.55 M 101.6,228 l -1,0.32 1.076,0.04 c 0.592,0.022 1.188,-0.14 1.324,-0.36 0.281,-0.455 0.02,-0.455 -1.4,0 m 195.404,0.006 c 0.134,0.217 0.803,0.394 1.486,0.394 1.511,0 1.359,-0.2 -0.41,-0.537 -0.825,-0.157 -1.228,-0.103 -1.076,0.143 M 88.86,228.7 l -8.539,0.116 -1.688,1.161 c -4.024,2.769 -8.577,4.59 -13.633,5.451 l -3.2,0.546 2.653,-0.194 c 4.255,-0.309 9.382,-2.211 13.625,-5.054 l 2.278,-1.526 9.122,-0.028 c 5.017,-0.016 9.482,-0.183 9.922,-0.372 0.63,-0.271 0.503,-0.33 -0.6,-0.28 -0.77,0.035 -5.243,0.116 -9.94,0.18 m 211.803,0.154 c 0.405,0.159 4.845,0.302 9.865,0.318 l 9.128,0.028 1.699,1.169 c 2.042,1.405 6.06,3.451 7.445,3.79 l 1,0.245 -1,-0.468 c -3.597,-1.686 -5.988,-2.962 -7.389,-3.943 l -1.611,-1.129 -9.937,-0.15 c -5.465,-0.083 -9.605,-0.02 -9.2,0.14 M 34.6,234.8 c 1.196,0.514 2.195,0.514 1.4,0 -0.33,-0.213 -0.96,-0.378 -1.4,-0.366 l -0.8,0.022 0.8,0.344 m 296.772,0.196 c 0.864,0.336 2.844,0.695 4.4,0.797 l 2.828,0.186 -3.4,-0.564 c -1.87,-0.31 -3.85,-0.669 -4.4,-0.797 -0.55,-0.129 -0.293,0.041 0.572,0.378 M 364,234.8 c -0.795,0.514 0.204,0.514 1.4,0 l 0.8,-0.344 -0.8,-0.022 c -0.44,-0.012 -1.07,0.153 -1.4,0.366 m -326.2,0.8 c 0.66,0.168 1.92,0.304 2.8,0.303 l 1.6,-0.003 -1.8,-0.32 c -2.443,-0.435 -4.33,-0.42 -2.6,0.02 m 321.6,0 -1.6,0.286 1.6,0.01 c 0.88,0.005 2.14,-0.128 2.8,-0.296 l 1.2,-0.305 -1.2,0.009 c -0.66,0.005 -1.92,0.138 -2.8,0.296 m -347.388,9.446 c -0.018,0.651 1.566,2.556 2.117,2.545 0.259,-0.005 0.089,-0.32 -0.377,-0.7 -0.466,-0.38 -1.046,-1.051 -1.288,-1.491 -0.242,-0.44 -0.445,-0.599 -0.452,-0.354 M 107.3,247.9 c 50.985,0.056 134.415,0.056 185.4,0 50.985,-0.056 9.27,-0.102 -92.7,-0.102 -101.97,0 -143.685,0.046 -92.7,0.102"
       stroke="none"
       fill="#8c808e"
       fill-rule="evenodd" />
    <path
       id="path7"
       d="m 363.4,41.972 c -0.718,0.166 0.407,0.281 2.8,0.285 2.317,0.004 3.579,-0.116 3,-0.285 -1.252,-0.366 -4.218,-0.366 -5.8,0 m -5.64,2.376 c -0.858,0.632 -2.1,1.753 -2.76,2.491 -0.851,0.952 -0.619,0.821 0.8,-0.45 1.1,-0.985 2.45,-2.096 3,-2.469 0.55,-0.373 0.892,-0.687 0.76,-0.699 -0.132,-0.012 -0.942,0.496 -1.8,1.127 m 19.266,2.252 c 0.748,0.77 1.488,1.4 1.645,1.4 0.157,0 -0.325,-0.63 -1.071,-1.4 -0.746,-0.77 -1.487,-1.4 -1.645,-1.4 -0.159,0 0.324,0.63 1.071,1.4 m -26.059,8.437 c -0.298,1.587 -0.032,4.338 0.649,6.701 0.707,2.457 0.815,1.469 0.125,-1.155 -0.393,-1.495 -0.55,-3.24 -0.422,-4.683 0.231,-2.591 0.053,-3.026 -0.352,-0.863 M 381.331,57 c 0.002,1.54 0.074,2.121 0.161,1.291 0.087,-0.83 0.085,-2.09 -0.003,-2.8 -0.089,-0.71 -0.16,-0.031 -0.158,1.509 m -28.922,6.9 c 0.005,0.165 0.376,0.75 0.824,1.3 l 0.815,1 -0.634,-1.3 c -0.603,-1.235 -1.025,-1.655 -1.005,-1 m 25.817,2.4 c -0.864,1.105 -0.933,1.29 -0.263,0.704 0.802,-0.7 1.86,-2.204 1.551,-2.204 -0.063,0 -0.642,0.675 -1.288,1.5 m -23.588,0.944 c 1.283,1.422 3.617,3.136 5.127,3.767 2.04,0.852 1.786,0.382 -0.289,-0.536 -0.949,-0.42 -2.508,-1.508 -3.465,-2.419 -1.841,-1.751 -2.656,-2.233 -1.373,-0.812 m 20.376,2.029 c -2.042,1.501 -2.32,1.828 -0.814,0.96 1.709,-0.985 2.769,-1.8 2.571,-1.975 -0.094,-0.083 -0.885,0.374 -1.757,1.015 M 362.4,72 c 0.55,0.176 1.36,0.326 1.8,0.332 L 365,72.344 364.2,72 c -0.44,-0.189 -1.25,-0.338 -1.8,-0.332 l -1,0.012 1,0.32 m 6,0 c -0.792,0.254 -0.833,0.32 -0.2,0.32 0.44,0 1.25,-0.144 1.8,-0.32 0.792,-0.254 0.833,-0.32 0.2,-0.32 -0.44,0 -1.25,0.144 -1.8,0.32 m -29.626,12.234 c -3.396,5.164 -8.016,12.173 -10.267,15.576 l -4.093,6.188 6.607,4.416 c 3.633,2.429 6.796,4.299 7.028,4.156 0.231,-0.143 2.086,-2.805 4.122,-5.915 2.035,-3.11 6.52,-9.932 9.965,-15.158 7.21,-10.939 6.797,-9.919 4.364,-10.785 -2.641,-0.94 -6.499,-3.367 -8.828,-5.554 -1.079,-1.013 -2.133,-1.948 -2.343,-2.078 -0.209,-0.13 -3.159,3.99 -6.555,9.154 m -44.796,21.199 c -1.125,1.667 -1.986,3.092 -1.912,3.164 0.074,0.073 1.08,-1.292 2.236,-3.032 1.156,-1.741 2.017,-3.165 1.912,-3.165 -0.104,0 -1.11,1.365 -2.236,3.033 m 11.222,2.668 c 0,0.254 3.096,2.299 3.48,2.299 0.164,0 -0.057,-0.242 -0.491,-0.539 -1.908,-1.302 -2.989,-1.939 -2.989,-1.76 m 9.6,6.529 c 1.87,1.224 4.075,2.665 4.9,3.203 0.825,0.538 1.5,0.88 1.5,0.76 0,-0.281 -9.056,-6.194 -9.481,-6.191 -0.175,0.001 1.211,1.004 3.081,2.228 m -21.8,1.257 c 0.403,0.407 5.886,4.089 7,4.701 1.389,0.763 -0.371,-0.592 -3.2,-2.463 -3.444,-2.277 -4.39,-2.835 -3.8,-2.238 m 29.2,3.556 c 0.848,0.655 3.347,2.018 2.99,1.631 -0.116,-0.126 -0.889,-0.688 -1.718,-1.251 -1.63,-1.106 -2.58,-1.39 -1.272,-0.38 m 3.4,2.084 c 0,0.189 0.45,0.55 1,0.8 0.55,0.251 1,0.39 1,0.31 0,-0.08 -0.45,-0.44 -1,-0.8 -0.55,-0.361 -1,-0.5 -1,-0.31 m 2.4,1.568 c 0,0.389 1.614,1.424 1.851,1.187 0.096,-0.096 -0.282,-0.472 -0.839,-0.837 -0.556,-0.365 -1.012,-0.523 -1.012,-0.35 m -20.406,2.487 c 0.547,0.42 1.074,0.684 1.171,0.587 0.226,-0.227 -1.236,-1.342 -1.765,-1.347 -0.22,-0.002 0.047,0.339 0.594,0.76 m 2.4,1.6 c 0.547,0.42 1.074,0.684 1.171,0.587 0.226,-0.227 -1.236,-1.342 -1.765,-1.347 -0.22,-0.002 0.047,0.339 0.594,0.76 m 1.606,0.961 c 0,0.274 4.476,3.114 4.644,2.947 0.092,-0.093 -0.822,-0.826 -2.032,-1.629 -2.081,-1.382 -2.612,-1.65 -2.612,-1.318 m 28.6,2.946 c 0.396,0.402 8.246,5.661 9.4,6.298 1.594,0.878 -0.584,-0.736 -4.4,-3.262 -4.628,-3.064 -5.622,-3.667 -5,-3.036 m -23.029,0.669 c 0.542,0.66 2.829,2.038 2.829,1.705 0,-0.086 -0.765,-0.661 -1.7,-1.278 -0.961,-0.634 -1.452,-0.819 -1.129,-0.427 m 5.629,3.578 c 0,0.165 8.126,5.621 9.6,6.446 1.64,0.917 -0.615,-0.752 -4.4,-3.257 -4.933,-3.266 -5.2,-3.43 -5.2,-3.189 m 29.081,3.445 c 0.334,0.376 0.36,0.768 0.086,1.28 -0.217,0.407 -0.305,0.739 -0.195,0.739 0.706,0 0.951,-1.562 0.32,-2.039 -0.579,-0.437 -0.613,-0.434 -0.211,0.02 M 347.446,147 c -0.355,0.55 -0.937,1.495 -1.293,2.1 l -0.648,1.1 0.805,-0.974 c 0.95,-1.15 2.211,-3.226 1.959,-3.226 -0.098,0 -0.468,0.45 -0.823,1 M 28.4,272.2 V 284 H 74.2 120 V 272.2 260.4 H 74.2 28.4 v 11.8 m 104,0 V 284 H 200 267.6 V 272.2 260.4 H 200 132.4 v 11.8 m 147.6,0 V 284 h 42.4 42.4 V 272.2 260.4 H 322.4 280 v 11.8 M 28,309 v 12.6 H 43 58 V 309 296.4 H 43 28 V 309 m 42.4,0 v 12.6 H 132.2 194 V 309 296.4 H 132.2 70.4 V 309 m 136,0 v 12.6 H 268 329.6 V 309 296.4 H 268 206.4 V 309 m 135.6,0 v 12.6 h 11.4 11.4 V 309 296.4 H 353.4 342 V 309 M 28.267,334.267 c -0.334,0.333 -0.356,22.635 -0.024,23.5 0.219,0.572 4.644,0.633 46,0.633 H 120 V 346.2 334 H 74.267 c -25.154,0 -45.854,0.12 -46,0.267 M 132.4,346.199 V 358.4 h 15.638 c 18.497,0 18.369,-0.035 19.372,5.314 l 0.279,1.486 h 7.348 7.348 l 0.24,-1.1 c 0.486,-2.226 1.119,-3.361 2.522,-4.517 l 1.435,-1.183 h 40.502 40.501 l 0.22,-0.9 c 0.12,-0.495 0.169,-5.94 0.107,-12.1 l -0.112,-11.2 -67.7,-0.101 -67.7,-0.101 v 12.201 M 280,346.2 v 12.2 l 25.9,-10e-4 c 14.245,0 33.325,-0.119 42.4,-0.265 l 16.5,-0.264 V 345.935 334 H 322.4 280 v 12.2"
       stroke="none"
       fill="#be684f"
       fill-rule="evenodd" />
    <path
       id="path8"
       d="m 364.2,42.26 c -12.313,1.52 -17.285,16.936 -8.28,25.67 7.151,6.935 19.517,4.893 23.705,-3.915 0.474,-0.998 1.023,-2.128 1.219,-2.51 1.775,-3.462 -0.402,-11.564 -4.076,-15.17 -1.683,-1.652 -2.718,-2.288 -5.768,-3.547 -0.981,-0.405 -5.165,-0.73 -6.8,-0.528 m -69.858,63.241 c -1.145,1.705 -2.23,3.159 -2.412,3.232 -0.181,0.074 -0.33,0.303 -0.33,0.509 0,0.206 -0.468,1.082 -1.04,1.947 -0.572,0.864 -0.977,1.746 -0.9,1.959 0.171,0.473 15.811,10.852 16.353,10.852 0.213,0 0.387,0.18 0.387,0.4 0,0.22 0.236,0.4 0.525,0.4 0.288,0 0.873,0.315 1.3,0.7 0.426,0.385 1.27,0.955 1.875,1.268 0.605,0.312 1.1,0.717 1.1,0.9 0,0.182 0.169,0.332 0.377,0.332 0.35,0 11.045,6.959 26.944,17.531 3.696,2.458 6.778,4.469 6.849,4.469 0.114,0 6.131,-9.118 6.772,-10.262 0.245,-0.438 -20.468,-14.538 -21.358,-14.538 -0.211,0 -0.384,-0.18 -0.384,-0.4 0,-0.22 -0.225,-0.4 -0.5,-0.4 -0.275,-0.001 -1.017,-0.446 -1.649,-0.989 -0.632,-0.544 -1.487,-1.095 -1.9,-1.227 -0.413,-0.131 -0.751,-0.377 -0.751,-0.547 0,-0.17 -0.412,-0.496 -0.916,-0.726 -0.988,-0.45 -12.753,-8.065 -13.084,-8.468 -0.11,-0.135 -0.695,-0.499 -1.3,-0.811 -0.605,-0.312 -1.1,-0.717 -1.1,-0.9 0,-0.182 -0.184,-0.332 -0.41,-0.332 -0.225,0 -3.1,-1.799 -6.388,-3.999 l -5.979,-3.999 -2.081,3.099"
       stroke="none"
       fill="#eec06b"
       fill-rule="evenodd" />
  </g>
</svg>
