<?xml version="1.0" encoding="UTF-8" standalone="no"?>
<svg
   id="svg"
   version="1.1"
   width="100"
   height="87.672127"
   viewBox="0 0 100 87.672127"
   xmlns="http://www.w3.org/2000/svg"
   xmlns:svg="http://www.w3.org/2000/svg">
  <defs
     id="defs1" />
  <g
     id="svgg"
     transform="matrix(0.25012758,0,0,0.25012758,-0.02564619,-6.1964985)">
    <path
       id="path0"
       d="m 2.2,25.286 c -0.44,0.254 -1.07,0.731 -1.4,1.06 -0.976,0.971 -0.905,265.206 0.071,266.183 0.37,0.369 0.955,0.671 1.3,0.671 0.346,0 0.629,0.18 0.629,0.4 0,0.264 12.404,0.4 36.413,0.4 h 36.414 l 1.286,-1.325 c 2.338,-2.408 2.779,-3.791 1.674,-5.251 C 78.264,286.996 78,286.315 78,285.909 c 0,-1.003 -1.031,-2.501 -2.328,-3.381 -1.007,-0.684 -2.946,-0.74 -32.072,-0.928 l -31,-0.2 v -122 -122 H 200 387.4 v 122 122 l -31,0.2 c -29.126,0.188 -31.065,0.244 -32.072,0.928 -1.297,0.88 -2.328,2.378 -2.328,3.381 0,0.406 -0.264,1.087 -0.587,1.515 -1.105,1.46 -0.664,2.843 1.674,5.251 l 1.286,1.325 h 36.414 c 24.009,0 36.413,-0.136 36.413,-0.4 0,-0.22 0.283,-0.4 0.629,-0.4 0.345,0 0.93,-0.302 1.3,-0.671 0.983,-0.984 1.046,-265.211 0.063,-266.194 C 398.857,26 398.194,25.518 397.718,25.263 396.47,24.595 3.357,24.618 2.2,25.286 m 54.6,38.117 c -5.786,1.41 -15.2,8.124 -15.2,10.84 0,0.128 -0.339,0.711 -0.753,1.295 -3.977,5.611 -4.094,16.07 -0.26,23.383 5.77,11.01 17.736,15.756 30.102,11.939 7.485,-2.31 14.223,-9.932 15.94,-18.032 C 90.383,75.117 74.207,59.16 56.8,63.403 m 178.6,5.995 c -1.789,0.794 -3.4,2.692 -3.664,4.317 -0.506,3.122 0.028,4.123 4.695,8.805 5.313,5.33 5.312,4.682 0.006,10.06 -5.332,5.404 -6.138,7.949 -3.559,11.228 3.039,3.864 6.375,2.994 12.829,-3.345 l 4.306,-4.23 3.074,2.984 c 1.691,1.64 3.331,3.317 3.645,3.725 3.497,4.537 10.536,3.569 11.502,-1.583 0.558,-2.976 -0.021,-4.066 -4.671,-8.779 -5.281,-5.353 -5.268,-4.582 -0.164,-9.815 5.778,-5.926 6.539,-8.724 3.262,-11.996 -3.256,-3.251 -5.989,-2.461 -11.857,3.427 -5.088,5.105 -4.538,5.096 -9.412,0.161 -5.143,-5.208 -7.167,-6.213 -9.992,-4.959 M 67.426,76.151 c 9.023,4.202 10.045,16.461 1.811,21.722 -11.319,7.235 -24.345,-5.791 -17.11,-17.11 3.159,-4.945 10.095,-7.035 15.299,-4.612 M 334.2,82.526 c -4.38,2.507 -19.775,13.176 -20.409,14.144 -1.84,2.807 -0.882,6.742 2.051,8.423 2.812,1.613 4.206,1.274 9.687,-2.354 2.896,-1.917 3.671,-2.256 3.671,-1.605 0,0.407 -1.498,5.154 -1.977,6.266 -0.19,0.44 -0.754,1.88 -1.253,3.2 -13.41,35.442 -40,55.249 -69.57,51.823 -12.842,-1.488 -20.714,-5.081 -36,-16.433 -2.53,-1.879 -5.5,-4.029 -6.6,-4.777 -1.1,-0.748 -2.09,-1.488 -2.2,-1.645 -1.04,-1.479 -14.155,-8.494 -19.229,-10.285 -11.75,-4.147 -26.355,-5.233 -36.571,-2.718 -0.44,0.108 -2.048,0.492 -3.573,0.853 -8.879,2.101 -22.119,8.676 -29.762,14.781 -9.47,7.564 -17.799,15.913 -24.442,24.501 -1.404,1.815 -2.658,3.3 -2.788,3.301 -0.129,0 -1.85,-0.296 -3.823,-0.658 -16.705,-3.066 -31.775,12.8 -28.053,29.532 4.42,19.864 29.008,26.3 42.667,11.167 1.306,-1.447 2.374,-2.786 2.374,-2.975 0,-0.189 0.339,-0.821 0.753,-1.405 2.987,-4.214 4.112,-14.854 2.004,-18.957 -0.196,-0.382 -0.357,-0.948 -0.357,-1.259 0,-0.822 -2.255,-5.005 -3.623,-6.723 -1.316,-1.65 -1.445,-2.386 -0.602,-3.418 0.317,-0.388 1.437,-1.785 2.491,-3.105 12.298,-15.41 27.992,-27.276 42.334,-32.009 15.763,-5.201 34.192,-3.097 47.2,5.39 0.88,0.574 2.05,1.27 2.6,1.548 0.55,0.277 3.07,2.03 5.6,3.894 7.873,5.802 15.638,11.377 15.845,11.377 0.11,0 1.224,0.687 2.477,1.526 12.042,8.067 31.248,12.551 44.845,10.471 8.765,-1.34 9.883,-1.583 15.033,-3.262 5.907,-1.926 18.348,-8.518 20.2,-10.704 0.11,-0.129 0.92,-0.771 1.8,-1.426 2.778,-2.068 9.968,-9.456 13.046,-13.405 3.24,-4.157 6.354,-8.569 6.354,-9.002 0,-0.151 0.339,-0.752 0.753,-1.336 3.402,-4.796 8.921,-16.61 12.082,-25.862 1.841,-5.389 2.096,-5.479 4.605,-1.622 3.541,5.446 8.679,6.107 11.294,1.455 1.811,-3.224 1.647,-3.639 -6.065,-15.291 C 340.373,80.803 339.022,79.765 334.2,82.526 m -149.263,93.293 c -2.392,1.048 -3.703,3.906 -3.148,6.865 0.229,1.219 1.133,2.374 4.648,5.936 5.272,5.344 5.245,4.84 0.521,9.66 -6.151,6.276 -6.919,8.856 -3.619,12.151 3.329,3.325 6.138,2.536 11.844,-3.327 5.092,-5.232 4.515,-5.227 9.624,-0.078 5.515,5.558 6.968,6.183 10.351,4.452 5.057,-2.587 4.499,-6.693 -1.771,-13.031 -5.068,-5.124 -5.061,-4.331 -0.087,-9.469 5.514,-5.696 6.376,-8.122 4.02,-11.308 -3.083,-4.17 -6.535,-3.33 -12.915,3.145 -4.736,4.806 -3.77,4.811 -8.766,-0.054 -5.872,-5.718 -7.362,-6.406 -10.702,-4.942 M 90.44,181.64 c 13.035,4.213 12.519,21.497 -0.725,24.303 -9.071,1.923 -16.96,-7.424 -13.885,-16.45 1.925,-5.649 9.249,-9.586 14.61,-7.853 M 332.4,207 c -22.264,5.021 -26.664,34.865 -6.77,45.928 21.029,11.694 44.954,-11.576 33.854,-32.928 -5.159,-9.923 -16.529,-15.38 -27.084,-13 m 9.473,12.662 c 6.279,2.349 9.617,9.525 7.305,15.704 -3.16,8.447 -14.029,11.004 -20.266,4.767 -9.481,-9.481 0.442,-25.155 12.961,-20.471 m -206.094,6.149 c -17.519,2.737 -29.189,13.121 -36.877,32.812 -1.111,2.847 -2.298,6.167 -2.638,7.377 -1.844,6.573 -2.709,10.367 -4.314,18.944 -0.283,1.509 -0.747,2.834 -1.032,2.943 -0.326,0.125 -0.518,0.923 -0.518,2.156 0,1.076 -0.18,1.957 -0.4,1.957 -0.231,0 -0.4,1.259 -0.4,2.976 0,1.637 -0.18,3.088 -0.4,3.224 -0.221,0.136 -0.4,1.93 -0.4,4 0,2.07 -0.179,3.864 -0.4,4 -0.237,0.146 -0.4,2.596 -0.4,6 0,3.404 -0.163,5.854 -0.4,6 -0.549,0.339 -0.549,38.061 0,38.4 0.22,0.136 0.4,0.687 0.4,1.224 0,0.537 0.18,0.976 0.4,0.976 0.22,0 0.4,0.54 0.4,1.2 0,0.66 0.18,1.2 0.4,1.2 0.22,0 0.4,0.36 0.4,0.8 0,0.44 0.15,0.8 0.332,0.8 0.183,0 0.588,0.495 0.9,1.1 1.024,1.983 6.335,7.7 7.154,7.7 0.246,0 0.805,0.333 1.241,0.739 0.437,0.407 1.554,0.979 2.483,1.272 0.93,0.293 1.942,0.726 2.251,0.961 1.773,1.352 20.161,0.449 21.078,-1.035 0.115,-0.186 0.558,-0.337 0.985,-0.337 0.427,0 0.776,-0.18 0.776,-0.4 0,-0.22 0.36,-0.4 0.8,-0.4 0.44,0 0.8,-0.18 0.8,-0.4 0,-0.22 0.36,-0.4 0.8,-0.4 0.44,0 0.8,-0.18 0.8,-0.4 0,-0.22 0.236,-0.4 0.525,-0.4 0.288,0 0.911,-0.36 1.383,-0.8 0.472,-0.44 1.017,-0.8 1.212,-0.8 0.324,0 2.075,-1.522 5.68,-4.937 0.77,-0.73 1.67,-1.744 2,-2.255 0.33,-0.51 1.365,-1.706 2.3,-2.657 0.935,-0.952 1.7,-1.875 1.7,-2.052 0,-0.177 0.36,-0.582 0.8,-0.899 0.44,-0.317 0.8,-0.807 0.8,-1.088 0,-0.282 0.18,-0.512 0.4,-0.512 0.22,0 0.4,-0.27 0.4,-0.6 0,-0.33 0.18,-0.6 0.4,-0.6 0.22,0 0.4,-0.27 0.4,-0.6 0,-0.33 0.18,-0.6 0.4,-0.6 0.22,0 0.4,-0.27 0.4,-0.6 0,-0.33 0.18,-0.6 0.4,-0.6 0.22,0 0.4,-0.32 0.4,-0.712 0,-0.391 0.36,-0.971 0.8,-1.288 0.44,-0.317 0.8,-0.857 0.8,-1.2 0,-0.343 0.36,-0.883 0.8,-1.2 0.44,-0.317 0.8,-0.897 0.8,-1.288 0,-0.392 0.18,-0.712 0.4,-0.712 0.22,0 0.4,-0.36 0.4,-0.8 0,-0.622 0.267,-0.8 1.2,-0.8 0.66,0 1.2,0.18 1.2,0.4 0,0.251 2.467,0.4 6.6,0.4 4.133,0 6.6,-0.149 6.6,-0.4 0,-0.22 0.54,-0.4 1.2,-0.4 0.66,0 1.2,-0.18 1.2,-0.4 0,-0.22 0.45,-0.4 1,-0.4 0.55,0 1,-0.18 1,-0.4 0,-0.22 0.347,-0.4 0.771,-0.4 0.425,0 1.042,-0.27 1.372,-0.6 0.33,-0.33 0.817,-0.6 1.082,-0.6 0.264,0 0.772,-0.324 1.128,-0.721 0.356,-0.396 1.322,-1.227 2.147,-1.847 0.825,-0.62 1.5,-1.303 1.5,-1.519 0,-0.216 0.495,-0.869 1.1,-1.453 0.605,-0.583 1.355,-1.555 1.668,-2.16 0.312,-0.605 0.717,-1.1 0.9,-1.1 0.182,0 0.332,-0.36 0.332,-0.8 0,-0.44 0.18,-0.8 0.4,-0.8 0.22,0 0.4,-0.54 0.4,-1.2 0,-0.66 0.18,-1.2 0.4,-1.2 0.22,0 0.4,-0.54 0.4,-1.2 v -1.2 h 12.8 12.8 v 1.2 c 0,0.66 0.18,1.2 0.4,1.2 0.22,0 0.4,0.54 0.4,1.2 0,0.66 0.18,1.2 0.4,1.2 0.22,0 0.4,0.36 0.4,0.8 0,0.44 0.15,0.8 0.332,0.8 0.183,0 0.588,0.495 0.9,1.1 0.313,0.605 1.063,1.577 1.668,2.16 0.605,0.584 1.1,1.219 1.1,1.412 0,0.193 0.386,0.616 0.858,0.94 0.472,0.323 1.456,1.173 2.187,1.888 0.73,0.715 1.527,1.3 1.77,1.3 0.243,0 0.712,0.27 1.042,0.6 0.33,0.33 0.947,0.6 1.372,0.6 0.424,0 0.771,0.18 0.771,0.4 0,0.22 0.45,0.4 1,0.4 0.55,0 1,0.18 1,0.4 0,0.22 0.54,0.4 1.2,0.4 0.66,0 1.2,0.18 1.2,0.4 0,0.251 2.467,0.4 6.6,0.4 4.133,0 6.6,-0.149 6.6,-0.4 0,-0.794 2.067,-0.432 2.284,0.4 0.115,0.44 0.368,0.8 0.563,0.8 0.194,0 0.353,0.32 0.353,0.712 0,0.391 0.36,0.971 0.8,1.288 0.44,0.317 0.8,0.814 0.8,1.105 0,0.291 0.36,0.915 0.8,1.387 0.44,0.472 0.8,1.095 0.8,1.383 0,0.289 0.18,0.525 0.4,0.525 0.22,0 0.4,0.27 0.4,0.6 0,0.33 0.18,0.6 0.4,0.6 0.22,0 0.4,0.27 0.4,0.6 0,0.33 0.15,0.6 0.332,0.6 0.183,0 0.587,0.495 0.898,1.1 0.31,0.605 0.881,1.391 1.267,1.747 0.387,0.356 0.703,0.775 0.703,0.931 0,0.157 0.675,0.95 1.5,1.764 0.825,0.813 1.935,2.104 2.468,2.869 0.532,0.764 1.41,1.749 1.951,2.189 0.542,0.44 1.975,1.745 3.186,2.9 1.212,1.155 2.366,2.1 2.565,2.1 0.2,0 0.75,0.36 1.222,0.8 0.472,0.44 1.095,0.8 1.383,0.8 0.289,0 0.525,0.18 0.525,0.4 0,0.22 0.36,0.4 0.8,0.4 0.44,0 0.8,0.18 0.8,0.4 0,0.22 0.36,0.4 0.8,0.4 0.44,0 0.8,0.18 0.8,0.4 0,0.22 0.324,0.4 0.72,0.4 0.396,0 0.891,0.16 1.1,0.355 3.072,2.869 22.344,1.96 25.752,-1.215 0.437,-0.407 0.988,-0.74 1.225,-0.74 0.236,0 1.03,-0.585 1.763,-1.3 0.734,-0.715 1.673,-1.587 2.087,-1.938 0.414,-0.35 1.023,-1.048 1.353,-1.549 0.33,-0.501 0.78,-1.114 1,-1.362 0.22,-0.248 0.655,-0.946 0.968,-1.551 0.312,-0.605 0.717,-1.1 0.9,-1.1 0.182,0 0.332,-0.36 0.332,-0.8 0,-0.44 0.18,-0.8 0.4,-0.8 0.22,0 0.4,-0.54 0.4,-1.2 0,-0.66 0.18,-1.2 0.4,-1.2 0.22,0 0.4,-0.439 0.4,-0.976 0,-0.537 0.18,-1.088 0.4,-1.224 0.258,-0.159 0.4,-6.996 0.4,-19.2 0,-12.204 -0.142,-19.041 -0.4,-19.2 -0.237,-0.146 -0.4,-2.596 -0.4,-6 0,-3.404 -0.163,-5.854 -0.4,-6 -0.221,-0.136 -0.4,-1.93 -0.4,-4 0,-2.07 -0.179,-3.864 -0.4,-4 -0.22,-0.136 -0.4,-1.587 -0.4,-3.224 0,-1.717 -0.169,-2.976 -0.4,-2.976 -0.22,0 -0.4,-0.881 -0.4,-1.957 0,-1.233 -0.192,-2.031 -0.518,-2.156 -0.285,-0.109 -0.75,-1.434 -1.034,-2.943 -1.15,-6.115 -1.708,-8.868 -2.301,-11.344 -3.285,-13.714 -8.503,-25.596 -14.134,-32.185 -8.1,-9.479 -15.825,-13.822 -27.783,-15.618 -11.769,-1.769 -23.583,0.29 -33.63,5.86 -5.712,3.167 -9.024,4.704 -11.52,5.346 -3.278,0.844 -33.978,0.877 -37.16,0.04 -2.263,-0.595 -5.461,-1.779 -6.12,-2.264 -0.22,-0.163 -1.3,-0.788 -2.4,-1.39 -1.1,-0.602 -3.08,-1.687 -4.4,-2.411 -2.29,-1.257 -5.98,-2.769 -9,-3.689 -1.489,-0.453 -4.138,-0.976 -8.446,-1.665 -3.428,-0.549 -11.275,-0.453 -15.375,0.187 m 14.533,12.617 c 4.435,0.497 6.065,0.811 6.315,1.216 0.121,0.196 0.564,0.356 0.984,0.356 0.421,0 1.406,0.36 2.189,0.8 0.783,0.44 1.689,0.8 2.012,0.8 0.323,0 0.589,0.135 0.591,0.3 0.002,0.165 0.407,0.499 0.9,0.741 0.493,0.243 1.977,1.037 3.297,1.764 10.437,5.749 11.801,5.994 33.4,5.994 21.154,0 24.144,-0.514 32.6,-5.605 1.1,-0.662 2.675,-1.514 3.5,-1.893 0.825,-0.379 1.5,-0.827 1.5,-0.995 0,-0.168 0.36,-0.306 0.8,-0.306 0.44,0 0.8,-0.18 0.8,-0.4 0,-0.22 0.349,-0.4 0.776,-0.4 0.427,0 0.888,-0.18 1.024,-0.4 0.136,-0.22 0.676,-0.4 1.2,-0.4 0.524,0 1.052,-0.16 1.173,-0.356 0.373,-0.604 12.848,-2.167 14.427,-1.807 0.44,0.1 2.24,0.345 4,0.545 3.517,0.399 5.184,0.711 6.4,1.199 1.481,0.594 6.398,3.001 6.6,3.23 0.11,0.125 0.83,0.66 1.6,1.189 3.385,2.325 7.577,7.798 10.388,13.562 1.137,2.331 2.235,4.551 2.44,4.933 0.204,0.382 0.372,0.969 0.372,1.305 0,0.336 0.18,0.968 0.4,1.405 0.22,0.437 0.58,1.153 0.8,1.59 0.22,0.437 0.4,1.159 0.4,1.605 0,0.446 0.162,1.123 0.361,1.505 0.199,0.382 0.571,1.505 0.827,2.495 0.256,0.99 0.634,2.353 0.839,3.028 0.205,0.676 0.373,1.675 0.373,2.22 0,0.546 0.162,1.163 0.359,1.372 0.197,0.209 0.46,1.1 0.584,1.98 0.124,0.88 0.411,2.68 0.638,4 2.335,13.572 3.295,24.849 4.051,47.543 0.677,20.353 0.322,23.068 -3.415,26.119 -0.669,0.546 -1.495,1.218 -1.835,1.491 -2.74,2.209 -13.281,2.352 -14.612,0.199 -0.119,-0.193 -0.567,-0.352 -0.994,-0.352 -0.427,0 -0.776,-0.18 -0.776,-0.4 0,-0.22 -0.193,-0.4 -0.428,-0.4 -1.482,0 -7.407,-5.452 -10.601,-9.754 -0.999,-1.345 -2.086,-2.775 -2.416,-3.177 -0.33,-0.402 -0.799,-1.167 -1.042,-1.7 -0.243,-0.533 -0.593,-0.969 -0.777,-0.969 -0.185,0 -0.336,-0.236 -0.336,-0.525 0,-0.288 -0.315,-0.882 -0.7,-1.32 -0.385,-0.438 -0.897,-1.147 -1.138,-1.575 -0.24,-0.429 -0.69,-1.23 -1,-1.78 -0.309,-0.55 -0.652,-1.09 -0.763,-1.2 -1.345,-1.341 -1.285,-2.317 0.285,-4.657 1.501,-2.236 2.661,-4.853 3.698,-8.343 0.766,-2.575 0.287,-11.02 -0.77,-13.6 -2.73,-6.658 -7.115,-11.732 -12.259,-14.181 -1.514,-0.722 -3.066,-1.471 -3.448,-1.665 -0.382,-0.195 -1.136,-0.354 -1.676,-0.354 -0.54,0 -1.093,-0.18 -1.229,-0.4 -0.309,-0.501 -9.812,-0.536 -11.081,-0.042 -0.506,0.197 -1.729,0.594 -2.719,0.882 -6.551,1.904 -13.18,8.389 -15.6,15.263 l -0.738,2.097 -12.842,0.106 c -11.969,0.098 -12.856,0.057 -13.067,-0.6 -2.543,-7.945 -7.839,-13.582 -15.853,-16.876 -2.515,-1.033 -13.207,-1.683 -14.037,-0.853 -0.233,0.233 -0.855,0.423 -1.382,0.423 -5.394,0 -13.93,7.997 -17.293,16.2 -1.057,2.579 -1.535,11.024 -0.77,13.6 1.325,4.463 1.7,5.305 3.697,8.317 1.485,2.237 1.582,4.683 0.187,4.683 -0.166,0 -0.302,0.19 -0.302,0.422 0,0.232 -0.72,1.482 -1.6,2.778 -0.88,1.296 -1.6,2.531 -1.6,2.745 0,0.213 -0.135,0.448 -0.3,0.522 -0.165,0.073 -1.096,1.303 -2.068,2.733 -4.162,6.118 -10.846,12.8 -12.804,12.8 -0.235,0 -0.428,0.18 -0.428,0.4 0,0.22 -0.349,0.4 -0.776,0.4 -0.427,0 -0.875,0.159 -0.994,0.352 -0.241,0.39 -1.094,0.62 -5.23,1.41 -5.885,1.124 -11.176,-1.383 -13.681,-6.483 L 100.6,353 l 0.05,-11.8 c 0.1,-23.83 1.8,-44.623 4.919,-60.2 0.22,-1.1 0.51,-2.63 0.643,-3.4 0.133,-0.77 0.397,-1.76 0.585,-2.2 0.361,-0.842 0.716,-2.331 1.076,-4.504 0.118,-0.717 0.376,-1.402 0.571,-1.523 0.196,-0.121 0.356,-0.649 0.356,-1.173 0,-0.524 0.18,-1.064 0.4,-1.2 0.22,-0.136 0.4,-0.599 0.4,-1.029 0,-0.43 0.165,-1.094 0.366,-1.476 0.202,-0.382 0.667,-1.415 1.033,-2.295 3.408,-8.179 7.827,-14.588 12.423,-18.018 0.868,-0.648 1.668,-1.272 1.778,-1.388 0.21,-0.22 5.219,-2.659 6.6,-3.213 1.237,-0.496 2.902,-0.803 6.6,-1.218 1.87,-0.209 3.58,-0.459 3.8,-0.554 0.402,-0.175 2.385,-0.024 8.112,0.619 M 141,250.266 c -3.136,1.657 -3.8,3.09 -3.8,8.195 v 3.939 h -4.141 c -3.634,0 -4.303,0.11 -5.47,0.9 -3.355,2.272 -3.829,7.216 -0.967,10.078 1.573,1.573 2.472,1.822 6.573,1.822 h 4.005 v 4.005 c 0,4.688 0.797,6.495 3.504,7.944 4.991,2.671 9.696,-1.345 9.696,-8.275 V 275.2 h 4.006 c 7.721,0 11.317,-6.042 6.563,-11.027 -1.441,-1.511 -2.407,-1.773 -6.543,-1.773 H 150.4 v -3.846 c 0,-6.955 -4.468,-10.894 -9.4,-8.288 m 112.008,0.249 c -2.589,1.466 -3.394,3.355 -3.401,7.985 l -0.007,3.9 h -4.026 c -4.136,0 -5.102,0.262 -6.543,1.773 -4.754,4.985 -1.158,11.027 6.563,11.027 h 4.006 v 3.674 c 0,6.967 4.679,10.96 9.696,8.275 2.707,-1.449 3.504,-3.256 3.504,-7.944 V 275.2 h 4.005 c 4.101,0 5,-0.249 6.573,-1.822 3.038,-3.038 2.281,-8.441 -1.458,-10.41 -0.726,-0.381 -2.399,-0.568 -5.1,-0.568 h -4.02 v -4.005 c 0,-2.461 -0.193,-4.351 -0.5,-4.9 -2.026,-3.626 -5.937,-4.88 -9.292,-2.98 m -61.534,30.865 c -5.125,1.827 -5.865,8.708 -1.261,11.72 1.316,0.861 1.739,0.9 9.787,0.9 8.048,0 8.471,-0.039 9.787,-0.9 4.699,-3.074 3.679,-10.389 -1.654,-11.87 -2.282,-0.634 -14.778,-0.521 -16.659,0.15 m -24.606,25.678 c 7.995,2.505 10.763,13.45 5.044,19.947 -7.747,8.801 -22.565,2.762 -21.833,-8.898 0.54,-8.611 8.291,-13.712 16.789,-11.049 m 75.806,0.351 c 8,3.559 9.813,14.181 3.459,20.257 -5.991,5.728 -15.671,4.299 -19.653,-2.901 -5.766,-10.427 5.244,-22.226 16.194,-17.356"
       stroke="none"
       fill="#636363"
       fill-rule="evenodd" />
    <path
       id="path1"
       d="m 12.8,159.4 v 121.4 h 30.814 c 28.158,0 30.908,0.058 31.9,0.672 1.542,0.954 2.886,2.392 2.886,3.087 0,0.327 0.18,0.705 0.4,0.841 0.22,0.136 0.4,0.777 0.4,1.424 V 288 h 5.429 c 6.304,0 6.571,-0.125 6.571,-3.091 0,-1.072 0.163,-2.12 0.361,-2.329 0.199,-0.209 0.458,-1.19 0.577,-2.18 0.237,-1.981 0.797,-4.93 1.407,-7.4 1.277,-5.177 1.713,-6.765 2.642,-9.627 0.567,-1.745 1.207,-3.486 1.422,-3.868 0.215,-0.382 0.391,-0.885 0.391,-1.119 0,-0.234 0.36,-1.17 0.8,-2.08 0.44,-0.911 0.8,-1.892 0.8,-2.181 0,-0.289 0.18,-0.525 0.4,-0.525 0.22,0 0.4,-0.36 0.4,-0.8 0,-0.44 0.18,-0.8 0.4,-0.8 0.22,0 0.404,-0.315 0.409,-0.7 0.005,-0.385 0.361,-1.15 0.791,-1.7 0.43,-0.55 0.786,-1.145 0.791,-1.322 0.009,-0.333 3.156,-5.123 3.598,-5.478 0.137,-0.11 0.684,-0.83 1.215,-1.6 1.054,-1.53 6.198,-6.739 8.409,-8.515 1.656,-1.331 9.875,-5.485 10.853,-5.485 0.378,0 0.786,-0.16 0.907,-0.356 0.212,-0.343 1.438,-0.622 4.827,-1.1 0.88,-0.124 1.771,-0.388 1.98,-0.585 0.534,-0.505 18.907,-0.465 19.22,0.041 0.136,0.22 1.036,0.4 2,0.4 0.964,0 1.864,0.18 2,0.4 0.136,0.22 0.642,0.4 1.125,0.4 1.292,0 5.984,1.782 9.659,3.67 1.769,0.908 3.62,1.849 4.113,2.091 0.493,0.241 0.898,0.574 0.9,0.739 0.002,0.165 0.348,0.3 0.77,0.3 0.421,0 0.826,0.135 0.9,0.3 0.218,0.491 3.549,2.1 4.347,2.1 0.406,0 0.835,0.155 0.952,0.344 0.442,0.716 6.071,1.008 19.434,1.008 13.363,0 18.992,-0.292 19.434,-1.008 0.117,-0.189 0.653,-0.344 1.19,-0.344 0.537,0 0.976,-0.18 0.976,-0.4 0,-0.22 0.253,-0.4 0.562,-0.4 0.517,0 3.776,-1.538 4.238,-2 1.482,-1.482 12.759,-6.4 14.675,-6.4 0.483,0 0.989,-0.18 1.125,-0.4 0.136,-0.22 1.036,-0.4 2,-0.4 0.964,0 1.864,-0.18 2,-0.4 0.313,-0.506 18.686,-0.546 19.22,-0.041 0.209,0.197 1.1,0.461 1.98,0.585 3.389,0.478 4.615,0.757 4.827,1.1 0.121,0.196 0.529,0.356 0.907,0.356 0.978,0 9.197,4.154 10.853,5.485 2.211,1.776 7.355,6.985 8.409,8.515 0.531,0.77 1.076,1.49 1.211,1.6 0.377,0.307 2.594,3.623 3.545,5.302 0.466,0.824 1.208,2.133 1.648,2.91 0.44,0.777 0.8,1.677 0.8,2 0,0.323 0.18,0.588 0.4,0.588 0.22,0 0.4,0.236 0.4,0.525 0,0.289 0.36,1.27 0.8,2.181 0.44,0.91 0.8,1.846 0.8,2.08 0,0.234 0.176,0.737 0.391,1.119 0.861,1.53 3.399,10.113 3.873,13.095 0.105,0.66 0.347,1.56 0.538,2 0.348,0.799 0.64,2.403 1.055,5.8 0.121,0.99 0.383,1.971 0.582,2.18 0.198,0.209 0.361,1.257 0.361,2.329 0,2.966 0.267,3.091 6.571,3.091 h 5.429 v -1.176 c 0,-0.647 0.18,-1.288 0.4,-1.424 0.22,-0.136 0.4,-0.514 0.4,-0.841 0,-0.695 1.344,-2.133 2.886,-3.087 0.992,-0.614 3.742,-0.672 31.9,-0.672 H 387.2 V 159.4 38 H 200 12.8 V 159.4 M 68.474,62.572 C 87.498,67.12 94.571,91.057 81,104.963 c -1.54,1.577 -3.295,3.117 -3.9,3.42 -0.605,0.304 -1.1,0.702 -1.1,0.885 0,0.182 -0.36,0.332 -0.8,0.332 -0.44,0 -0.8,0.136 -0.8,0.302 0,0.167 -0.585,0.538 -1.3,0.827 -0.715,0.288 -1.613,0.692 -1.995,0.897 -0.382,0.206 -1.136,0.374 -1.676,0.374 -0.54,0 -1.093,0.18 -1.229,0.4 -0.146,0.236 -2.53,0.4 -5.8,0.4 -3.27,0 -5.654,-0.164 -5.8,-0.4 -0.136,-0.22 -0.766,-0.4 -1.4,-0.4 -0.634,0 -1.264,-0.18 -1.4,-0.4 -0.136,-0.22 -0.597,-0.4 -1.024,-0.4 -0.427,0 -0.776,-0.18 -0.776,-0.4 0,-0.22 -0.36,-0.4 -0.8,-0.4 -0.44,0 -0.8,-0.136 -0.8,-0.302 0,-0.167 -0.585,-0.557 -1.3,-0.867 -1.684,-0.731 -7.6,-6.647 -8.331,-8.331 -0.31,-0.715 -0.7,-1.3 -0.867,-1.3 -0.166,0 -0.302,-0.36 -0.302,-0.8 0,-0.44 -0.18,-0.8 -0.4,-0.8 -0.22,0 -0.4,-0.349 -0.4,-0.776 0,-0.427 -0.18,-0.888 -0.4,-1.024 -0.22,-0.136 -0.4,-0.766 -0.4,-1.4 0,-0.634 -0.18,-1.264 -0.4,-1.4 -0.556,-0.344 -0.51,-10.397 0.055,-12.172 0.971,-3.043 2.734,-6.934 3.245,-7.161 0.165,-0.074 0.3,-0.389 0.3,-0.7 0,-0.312 0.18,-0.567 0.4,-0.567 0.22,0 0.4,-0.214 0.4,-0.476 0,-1.808 8.243,-7.847 12.4,-9.084 0.77,-0.229 1.94,-0.588 2.6,-0.797 1.798,-0.569 8.885,-0.49 11.474,0.129 m 171.945,6.238 c 0.422,0.226 2.689,2.296 5.038,4.6 2.35,2.305 4.406,4.19 4.571,4.19 0.164,0 2.199,-1.881 4.524,-4.18 5.58,-5.52 8.113,-6.427 11.585,-4.151 5.152,3.377 4.409,7.415 -2.658,14.444 l -3.934,3.913 4.264,4.087 c 6.506,6.236 7.343,10.242 2.854,13.666 -3.587,2.736 -6.996,1.522 -13.163,-4.686 l -3.5,-3.524 -3.5,3.524 c -6.167,6.208 -9.576,7.422 -13.163,4.686 -4.475,-3.413 -3.714,-7.171 2.728,-13.467 l 4.387,-4.288 -3.933,-3.912 c -5.291,-5.264 -5.719,-5.913 -5.719,-8.679 0,-4.874 5.496,-8.429 9.619,-6.223 m 100.107,12.454 c 1.161,0.617 3.474,3.157 3.474,3.814 0,0.287 0.15,0.522 0.332,0.522 0.183,0 0.588,0.495 0.9,1.1 0.313,0.605 0.883,1.449 1.268,1.875 0.385,0.427 0.7,0.997 0.7,1.267 0,0.27 0.157,0.551 0.349,0.625 0.192,0.073 2.262,3.03 4.6,6.57 l 4.251,6.437 v 2.874 c 0,7.693 -9.598,9.115 -13.184,1.952 -0.303,-0.605 -0.701,-1.1 -0.884,-1.1 -0.182,0 -0.332,-0.285 -0.332,-0.633 0,-0.994 -0.984,-0.417 -1.134,0.664 -0.073,0.533 -0.298,1.14 -0.5,1.349 -0.201,0.209 -0.366,0.706 -0.366,1.105 0,0.399 -0.169,1.038 -0.375,1.42 -0.206,0.382 -0.863,2.045 -1.46,3.695 -1.594,4.411 -7.059,16.204 -7.786,16.8 -0.133,0.11 -0.498,0.785 -0.809,1.5 -0.311,0.715 -0.701,1.3 -0.868,1.3 -0.166,0 -0.302,0.27 -0.302,0.6 0,0.33 -0.18,0.6 -0.4,0.6 -0.22,0 -0.4,0.27 -0.4,0.6 0,0.33 -0.18,0.6 -0.4,0.6 -0.22,0 -0.4,0.236 -0.4,0.525 0,0.288 -0.36,0.911 -0.8,1.383 -0.44,0.472 -0.8,1.001 -0.8,1.175 -10e-4,0.174 -0.451,0.84 -1,1.479 -0.55,0.639 -1,1.302 -1,1.472 0,0.17 -0.231,0.547 -0.512,0.837 -0.282,0.291 -1.403,1.693 -2.491,3.116 -2.614,3.419 -12.829,13.613 -13.641,13.613 -0.117,0 -0.45,0.225 -0.74,0.5 -1.201,1.14 -2.249,1.9 -2.621,1.9 -0.217,0 -0.395,0.18 -0.395,0.4 0,0.22 -0.27,0.4 -0.6,0.4 -0.33,0 -0.6,0.18 -0.6,0.4 0,0.22 -0.27,0.4 -0.6,0.4 -0.33,0 -0.6,0.159 -0.6,0.353 0,0.195 -0.315,0.457 -0.7,0.583 -0.385,0.126 -1.6,0.781 -2.7,1.455 -1.1,0.675 -2.27,1.333 -2.6,1.463 -0.33,0.13 -1.68,0.739 -3,1.354 -2.06,0.96 -5.497,2.155 -10.428,3.626 -0.676,0.201 -1.7,0.366 -2.277,0.366 -0.576,0 -1.159,0.18 -1.295,0.4 -0.136,0.22 -1.227,0.4 -2.424,0.4 -1.197,0 -2.176,0.18 -2.176,0.4 0,0.546 -20.263,0.546 -20.6,0 -0.136,-0.22 -1.216,-0.4 -2.4,-0.4 -1.184,0 -2.264,-0.18 -2.4,-0.4 -0.136,-0.22 -0.768,-0.4 -1.405,-0.4 -0.636,0 -1.571,-0.16 -2.076,-0.355 -0.506,-0.195 -2.539,-0.865 -4.519,-1.49 -1.98,-0.624 -5.67,-2.193 -8.2,-3.486 -2.53,-1.293 -5.004,-2.558 -5.497,-2.81 -0.493,-0.252 -0.898,-0.594 -0.9,-0.759 -0.002,-0.165 -0.239,-0.3 -0.528,-0.3 -0.288,0 -0.873,-0.315 -1.3,-0.7 -0.426,-0.385 -1.27,-0.955 -1.875,-1.268 -0.605,-0.312 -1.1,-0.717 -1.1,-0.9 0,-0.182 -0.236,-0.332 -0.525,-0.332 -0.288,0 -0.873,-0.32 -1.3,-0.711 -0.426,-0.391 -1.405,-1.153 -2.175,-1.694 -0.77,-0.541 -1.67,-1.206 -2,-1.479 -0.783,-0.647 -4.242,-3.136 -8,-5.758 -1.65,-1.151 -3.06,-2.243 -3.133,-2.426 -0.074,-0.182 -0.309,-0.332 -0.522,-0.332 -0.214,0 -1.449,-0.72 -2.745,-1.6 -1.296,-0.88 -2.531,-1.6 -2.745,-1.6 -0.213,0 -0.448,-0.136 -0.522,-0.302 -0.126,-0.285 -4.696,-2.592 -6.633,-3.347 -0.495,-0.193 -1.305,-0.516 -1.8,-0.718 -0.495,-0.201 -1.35,-0.479 -1.9,-0.618 -0.55,-0.138 -1.9,-0.497 -3,-0.796 -7.923,-2.158 -19.119,-2.086 -28.2,0.181 -0.99,0.247 -2.295,0.549 -2.9,0.67 -0.605,0.121 -1.1,0.38 -1.1,0.575 0,0.195 -0.362,0.355 -0.805,0.355 -0.443,0 -1.163,0.18 -1.6,0.4 -0.437,0.22 -1.153,0.58 -1.59,0.8 -0.437,0.22 -1.067,0.4 -1.4,0.4 -0.333,0 -0.605,0.18 -0.605,0.4 0,0.22 -0.36,0.4 -0.8,0.4 -0.44,0 -0.8,0.18 -0.8,0.4 0,0.22 -0.36,0.4 -0.8,0.4 -0.44,0 -0.8,0.18 -0.8,0.4 0,0.22 -0.278,0.4 -0.617,0.4 -0.339,0 -1.003,0.36 -1.475,0.8 -0.472,0.44 -1.095,0.8 -1.383,0.8 -0.289,0 -0.525,0.18 -0.525,0.4 0,0.22 -0.19,0.4 -0.422,0.4 -0.692,0 -6.468,4.035 -10.778,7.53 -3.63,2.943 -15.124,14.855 -17.16,17.784 -0.339,0.487 -1.027,1.299 -1.528,1.804 -1.162,1.17 -1.147,1.686 0.094,3.12 0.553,0.639 1.227,1.657 1.497,2.262 0.271,0.605 0.628,1.1 0.795,1.1 0.166,0 0.302,0.36 0.302,0.8 0,0.44 0.18,0.8 0.4,0.8 0.22,0 0.4,0.45 0.4,1 0,0.55 0.18,1 0.4,1 0.22,0 0.4,0.529 0.4,1.176 0,0.647 0.18,1.288 0.4,1.424 0.533,0.33 0.533,11.27 0,11.6 -0.22,0.136 -0.4,0.689 -0.4,1.229 0,0.54 -0.16,1.294 -0.356,1.676 -0.196,0.382 -0.781,1.595 -1.3,2.695 -0.519,1.1 -1.079,2.06 -1.244,2.133 -0.165,0.074 -0.3,0.391 -0.3,0.706 0,1.237 -6.506,7.124 -9.4,8.507 -1.54,0.736 -3.113,1.499 -3.495,1.696 -0.382,0.197 -1.136,0.358 -1.676,0.358 -0.54,0 -1.093,0.18 -1.229,0.4 -0.314,0.508 -9.831,0.533 -11.081,0.03 -0.506,-0.204 -1.774,-0.603 -2.819,-0.887 -1.045,-0.285 -1.9,-0.658 -1.9,-0.83 0,-0.172 -0.36,-0.313 -0.8,-0.313 -0.44,0 -0.8,-0.18 -0.8,-0.4 0,-0.22 -0.193,-0.4 -0.428,-0.4 -2.439,0 -9.465,-7.675 -11.351,-12.4 -1.68,-4.209 -2.429,-11.885 -1.468,-15.04 0.195,-0.638 0.591,-1.97 0.882,-2.96 1.276,-4.351 6.344,-11.041 9.671,-12.768 0.602,-0.312 1.094,-0.717 1.094,-0.9 0,-0.182 0.36,-0.332 0.8,-0.332 0.44,0 0.8,-0.18 0.8,-0.4 0,-0.22 0.36,-0.4 0.8,-0.4 0.44,0 0.8,-0.18 0.8,-0.4 0,-0.22 0.349,-0.4 0.776,-0.4 0.427,0 0.888,-0.18 1.024,-0.4 0.136,-0.22 0.766,-0.4 1.4,-0.4 0.634,0 1.264,-0.18 1.4,-0.4 0.33,-0.533 11.27,-0.533 11.6,0 0.523,0.847 1.655,0.298 3,-1.456 0.77,-1.005 1.581,-2.033 1.803,-2.285 0.221,-0.253 0.909,-1.089 1.528,-1.859 3.686,-4.585 14.523,-15.573 17.869,-18.119 1.21,-0.921 2.491,-1.991 2.847,-2.378 0.356,-0.386 0.824,-0.703 1.041,-0.703 0.216,0 0.958,-0.54 1.649,-1.2 0.691,-0.66 1.403,-1.2 1.584,-1.2 0.18,0 0.677,-0.315 1.104,-0.7 0.426,-0.385 1.27,-0.955 1.875,-1.268 0.605,-0.312 1.1,-0.717 1.1,-0.9 0,-0.182 0.193,-0.332 0.428,-0.332 0.235,0 1.18,-0.506 2.1,-1.124 3.375,-2.27 12.425,-6.323 17.072,-7.647 0.99,-0.282 2.213,-0.674 2.719,-0.871 0.505,-0.197 1.44,-0.358 2.076,-0.358 0.637,0 1.269,-0.18 1.405,-0.4 0.136,-0.22 1.126,-0.4 2.2,-0.4 1.074,0 2.064,-0.18 2.2,-0.4 0.154,-0.249 3.93,-0.4 10,-0.4 6.07,0 9.846,0.151 10,0.4 0.136,0.22 1.216,0.4 2.4,0.4 1.184,0 2.264,0.18 2.4,0.4 0.136,0.22 0.768,0.4 1.405,0.4 0.636,0 1.571,0.161 2.076,0.358 0.506,0.197 1.729,0.589 2.719,0.871 3.451,0.983 11.736,4.425 12.4,5.152 0.354,0.388 2.578,1.661 3.3,1.89 0.385,0.122 0.7,0.381 0.7,0.576 0,0.194 0.236,0.353 0.525,0.353 0.288,0 0.873,0.315 1.3,0.7 0.426,0.385 1.27,0.955 1.875,1.268 0.605,0.312 1.1,0.717 1.1,0.9 0,0.182 0.236,0.332 0.525,0.332 0.288,0 0.873,0.32 1.3,0.711 0.426,0.391 1.405,1.147 2.175,1.681 0.77,0.533 1.49,1.068 1.6,1.189 0.11,0.12 0.504,0.399 0.875,0.619 0.769,0.456 9.36,6.729 10.43,7.616 0.387,0.321 0.805,0.584 0.928,0.584 0.122,0 0.975,0.518 1.895,1.15 2.925,2.012 7.46,4.454 10.572,5.692 0.495,0.197 1.305,0.523 1.8,0.725 0.495,0.201 1.35,0.479 1.9,0.618 0.55,0.138 1.9,0.492 3,0.785 7.536,2.01 20.673,2.115 27.9,0.223 0.825,-0.216 2.265,-0.594 3.2,-0.839 3.234,-0.847 10.718,-4.139 11.033,-4.852 0.074,-0.166 0.479,-0.302 0.9,-0.302 0.422,0 0.767,-0.15 0.767,-0.332 0,-0.183 0.495,-0.588 1.1,-0.9 0.605,-0.312 1.19,-0.666 1.3,-0.787 0.11,-0.121 0.83,-0.658 1.6,-1.195 3.931,-2.737 10.496,-8.879 12.385,-11.586 0.537,-0.77 1.27,-1.67 1.627,-2 0.875,-0.807 7.588,-11.054 7.588,-11.582 0,-0.23 0.18,-0.418 0.4,-0.418 0.22,0 0.4,-0.345 0.4,-0.767 0,-0.421 0.137,-0.826 0.305,-0.9 0.168,-0.073 1.266,-2.113 2.44,-4.533 1.175,-2.42 2.297,-4.713 2.495,-5.095 0.198,-0.382 0.36,-0.967 0.36,-1.3 0,-0.333 0.18,-0.605 0.4,-0.605 0.22,0 0.4,-0.349 0.4,-0.776 0,-0.427 0.18,-0.888 0.4,-1.024 0.22,-0.136 0.4,-0.687 0.4,-1.224 0,-0.537 0.18,-0.976 0.4,-0.976 0.22,0 0.4,-0.439 0.4,-0.976 0,-0.537 0.159,-1.075 0.354,-1.195 0.195,-0.121 0.439,-0.716 0.543,-1.324 0.105,-0.608 0.332,-1.438 0.505,-1.845 0.397,-0.934 -1.183,-0.191 -4.197,1.975 -3.756,2.698 -9.197,1.718 -10.949,-1.973 -1.903,-4.01 0.09,-8.015 5.344,-10.743 0.55,-0.285 1.349,-0.834 1.775,-1.219 0.427,-0.385 1.012,-0.7 1.3,-0.7 0.289,0 0.525,-0.15 0.525,-0.332 0,-0.183 0.495,-0.588 1.1,-0.9 0.605,-0.312 1.19,-0.678 1.3,-0.813 0.11,-0.136 2.689,-1.891 5.73,-3.901 5.888,-3.89 8.195,-4.572 10.796,-3.19 M 192.452,176.7 c 1.177,1.045 3.353,3.121 4.837,4.613 l 2.699,2.714 2.526,-2.514 c 1.39,-1.382 3.584,-3.458 4.876,-4.613 l 2.349,-2.1 h 2.93 c 1.687,0 2.931,0.17 2.931,0.4 0,0.22 0.188,0.4 0.418,0.4 1.471,0 3.182,3.008 3.182,5.594 0,2.826 -0.517,3.629 -5.347,8.299 l -4.228,4.088 3.899,3.923 c 5.293,5.326 5.676,5.912 5.676,8.684 0,4.333 -2.392,6.612 -6.94,6.612 h -2.551 l -4.755,-4.595 c -2.615,-2.527 -4.844,-4.593 -4.954,-4.591 -0.11,0.003 -2.338,2.07 -4.95,4.595 l -4.75,4.591 h -2.555 c -4.447,0 -6.945,-2.374 -6.945,-6.6 0,-2.835 0.463,-3.533 5.742,-8.66 l 3.975,-3.861 -4.298,-4.135 c -4.899,-4.714 -5.419,-5.516 -5.419,-8.35 0,-2.586 1.711,-5.594 3.182,-5.594 0.23,0 0.418,-0.18 0.418,-0.4 0,-0.231 1.252,-0.4 2.957,-0.4 h 2.956 l 2.139,1.9 M 343.4,206.4 c 0.136,0.22 0.766,0.4 1.4,0.4 0.634,0 1.264,0.18 1.4,0.4 0.136,0.22 0.597,0.4 1.024,0.4 0.427,0 0.776,0.18 0.776,0.4 0,0.22 0.28,0.4 0.622,0.4 2.242,0 10.978,8.253 10.978,10.372 0,0.235 0.18,0.428 0.4,0.428 0.22,0 0.4,0.36 0.4,0.8 0,0.44 0.18,0.8 0.4,0.8 0.22,0 0.4,0.349 0.4,0.776 0,0.427 0.18,0.888 0.4,1.024 0.22,0.136 0.4,0.766 0.4,1.4 0,0.634 0.18,1.264 0.4,1.4 0.236,0.146 0.4,2.53 0.4,5.8 0,3.27 -0.164,5.654 -0.4,5.8 -0.22,0.136 -0.4,0.766 -0.4,1.4 0,0.634 -0.18,1.264 -0.4,1.4 -0.22,0.136 -0.4,0.597 -0.4,1.024 0,0.427 -0.18,0.776 -0.4,0.776 -0.22,0 -0.4,0.36 -0.4,0.8 0,0.44 -0.18,0.8 -0.4,0.8 -0.22,0 -0.4,0.36 -0.4,0.8 0,0.44 -0.18,0.8 -0.4,0.8 -0.22,0 -0.4,0.178 -0.4,0.395 0,0.79 -4.08,5.167 -6.4,6.866 -6.938,5.081 -18.587,5.941 -26.439,1.951 -12.726,-6.467 -17.597,-21.37 -11.247,-34.412 1.517,-3.116 7.342,-9.6 8.624,-9.6 0.327,0 0.655,-0.135 0.729,-0.3 0.192,-0.432 3.505,-2.1 4.171,-2.1 0.309,0 0.562,-0.18 0.562,-0.4 0,-0.22 0.529,-0.4 1.176,-0.4 0.647,0 1.288,-0.18 1.424,-0.4 0.146,-0.237 2.596,-0.4 6,-0.4 3.404,0 5.854,0.163 6,0.4"
       stroke="none"
       fill="#f3f3f3"
       fill-rule="evenodd" />
    <path
       id="path2"
       d="m 58.239,75.828 c -6.29,2.305 -9.785,9.695 -7.468,15.791 5.03,13.238 24.029,9.755 24.029,-4.405 0,-8.259 -8.725,-14.257 -16.561,-11.386 M 84.13,181.776 c -7.385,2.309 -11.035,10.379 -7.792,17.224 4.937,10.419 19.951,9.094 23.184,-2.046 2.617,-9.015 -6.465,-17.97 -15.392,-15.178 m 249.608,37.58 c -13.655,4.979 -9.973,24.925 4.462,24.168 8.317,-0.436 13.846,-8.825 10.938,-16.597 -2.234,-5.971 -9.71,-9.646 -15.4,-7.571"
       stroke="none"
       fill="#f88373"
       fill-rule="evenodd" />
    <path
       id="path3"
       d="m 159.2,306.881 c -0.55,0.235 -1.614,0.695 -2.364,1.023 -7.155,3.119 -8.782,13.67 -2.999,19.453 9.276,9.276 24.691,-0.562 20.101,-12.83 -2.151,-5.751 -9.839,-9.739 -14.738,-7.646 m 74.014,0.4 c -6.17,2.368 -9.48,9.57 -7.201,15.663 3.697,9.881 16.869,10.944 22.108,1.785 5.639,-9.857 -4.32,-21.512 -14.907,-17.448"
       stroke="none"
       fill="#82c1f8"
       fill-rule="evenodd" />
    <path
       id="path4"
       d="m 12.662,37.5 c -0.102,0.165 84.2,0.3 187.338,0.3 103.138,0 187.44,-0.135 187.338,-0.3 -0.242,-0.392 -374.434,-0.392 -374.676,0 M 59.4,62.6 c 0.22,0.076 2.2,0.212 4.4,0.303 2.2,0.091 3.55,0.033 3,-0.129 C 65.838,62.491 58.583,62.32 59.4,62.6 m -4.6,1.018 c -0.438,0.297 -0.276,0.334 0.6,0.138 1.471,-0.329 1.79,-0.558 0.767,-0.55 -0.422,0.003 -1.037,0.189 -1.367,0.412 m 13.233,-0.274 c 0.092,0.079 0.707,0.264 1.367,0.412 0.876,0.196 1.038,0.159 0.6,-0.138 -0.54,-0.365 -2.368,-0.62 -1.967,-0.274 m 4.8,1.605 c 0.412,0.368 2.767,1.451 2.767,1.272 0,-0.231 -2.218,-1.421 -2.647,-1.421 -0.157,0 -0.211,0.067 -0.12,0.149 M 47.762,67.262 47,68.124 48.1,67.416 c 1.134,-0.73 1.349,-1.016 0.762,-1.016 -0.186,0 -0.681,0.388 -1.1,0.862 m 30.409,1.035 c 0.644,0.712 1.259,1.207 1.367,1.099 0.107,-0.108 0.12,-0.241 0.029,-0.296 C 79.475,69.045 78.86,68.551 78.2,68.001 L 77,67.003 78.171,68.297 M 44.243,70.423 C 43.009,71.755 42,73.055 42,73.312 c 0,0.256 0.296,0.021 0.659,-0.523 0.362,-0.544 1.48,-1.844 2.485,-2.889 1.004,-1.045 1.717,-1.9 1.584,-1.9 -0.133,0 -1.251,1.09 -2.485,2.423 M 239.8,69.566 c 0.88,0.411 3.397,2.567 5.592,4.791 2.196,2.224 4.27,4.043 4.608,4.043 0.338,0 2.412,-1.819 4.608,-4.043 2.195,-2.224 4.712,-4.38 5.592,-4.791 0.88,-0.412 1.366,-0.752 1.08,-0.757 -1.136,-0.019 -2.854,1.31 -6.672,5.163 C 252.412,76.187 250.338,78 250,78 c -0.338,0 -2.412,-1.813 -4.608,-4.028 -3.818,-3.853 -5.536,-5.182 -6.672,-5.163 -0.286,0.005 0.2,0.345 1.08,0.757 m -6.2,0.547 c -0.33,0.268 -0.863,0.847 -1.185,1.287 -0.321,0.44 -0.006,0.271 0.7,-0.375 1.152,-1.053 1.485,-1.45 1.185,-1.412 -0.055,0.007 -0.37,0.232 -0.7,0.5 M 80.4,70.525 c 0,0.069 0.573,0.654 1.274,1.3 L 82.949,73 81.974,71.722 C 81.147,70.637 80.4,70.069 80.4,70.525 m 151.043,2.508 c -0.335,0.872 -0.294,3.467 0.063,4.029 0.162,0.254 0.294,-0.691 0.294,-2.1 0,-2.811 -0.006,-2.844 -0.357,-1.929 M 268.2,75 c 0,1.388 0.132,2.316 0.294,2.062 0.162,-0.254 0.294,-1.182 0.294,-2.062 0,-0.88 -0.132,-1.808 -0.294,-2.062 C 268.332,72.684 268.2,73.612 268.2,75 M 83.16,73.8 c 0.674,1.305 1.228,2.028 1.225,1.6 C 84.383,75.18 84.014,74.55 83.564,74 83.021,73.336 82.885,73.269 83.16,73.8 m -42.507,1.5 -0.72,1.3 0.825,-1 c 0.731,-0.887 1.056,-1.6 0.728,-1.6 -0.062,0 -0.437,0.585 -0.833,1.3 m 222.766,7.435 -4.381,4.665 3.71,-3.6 c 3.086,-2.995 5.703,-5.908 5.179,-5.765 -0.07,0.019 -2.098,2.134 -4.508,4.7 M 86.244,80.6 c 0.329,1.471 0.558,1.79 0.55,0.767 C 86.791,80.945 86.605,80.33 86.382,80 86.085,79.562 86.048,79.724 86.244,80.6 m 249.219,0.9 c -0.101,0.165 0.862,0.3 2.139,0.3 1.278,0 2.115,-0.132 1.861,-0.294 -0.609,-0.386 -3.764,-0.391 -4,-0.006 M 37.822,83.022 c -0.15,0.803 -0.194,1.54 -0.096,1.638 0.098,0.097 0.301,-0.479 0.452,-1.282 0.15,-0.803 0.194,-1.54 0.096,-1.638 -0.098,-0.097 -0.301,0.479 -0.452,1.282 M 341,82.673 c 0.44,0.4 1.232,1.177 1.761,1.727 l 0.961,1 -0.889,-1.301 c -0.489,-0.715 -1.281,-1.492 -1.761,-1.727 -0.867,-0.423 -0.867,-0.421 -0.072,0.301 m -102.823,2.021 c 1.308,1.367 2.452,2.411 2.543,2.32 0.171,-0.172 -0.678,-1.036 -3.349,-3.41 -0.864,-0.767 -0.501,-0.277 0.806,1.09 M 87.279,87.05 c -0.043,1.568 -0.168,3.458 -0.278,4.2 l -0.198,1.35 0.415,-1.322 c 0.229,-0.727 0.354,-2.617 0.279,-4.2 l -0.138,-2.878 -0.08,2.85 m 148.934,5.337 c -2.405,2.412 -4.292,4.437 -4.193,4.5 0.099,0.062 2.151,-1.912 4.561,-4.387 2.409,-2.475 4.296,-4.5 4.193,-4.5 -0.103,0 -2.156,1.974 -4.561,4.387 m 27.196,0.013 c 2.415,2.53 4.473,4.548 4.573,4.484 0.1,-0.063 -1.876,-2.133 -4.391,-4.6 l -4.574,-4.484 4.392,4.6 M 37.668,91 c 0.006,0.44 0.156,1.25 0.332,1.8 l 0.32,1 0.012,-1 C 38.338,92.25 38.189,91.44 38,91 l -0.344,-0.8 0.012,0.8 m 277.426,3.851 c -0.609,0.453 -1.296,1.213 -1.527,1.687 l -0.421,0.862 0.727,-0.871 c 0.4,-0.479 1.177,-1.238 1.727,-1.687 1.304,-1.063 0.922,-1.057 -0.506,0.009 m 35.5,1.349 c 1.735,2.81 5.006,7.568 5.006,7.281 0,-0.358 -4.693,-7.477 -5.327,-8.081 -0.231,-0.22 -0.086,0.14 0.321,0.8 m -104.402,3.846 c -1.976,2.005 -4.392,4.165 -5.37,4.8 -0.978,0.635 -1.603,1.154 -1.389,1.154 0.767,0 2.431,-1.375 6.443,-5.325 3.719,-3.662 4.139,-3.963 4.8,-3.444 0.661,0.52 0.677,0.509 0.175,-0.131 -0.789,-1.006 -0.728,-1.045 -4.659,2.946 m -14.749,-1.813 c -0.333,0.868 -0.295,3.066 0.063,3.629 0.162,0.254 0.294,-0.601 0.294,-1.9 0,-2.601 -0.008,-2.639 -0.357,-1.729 M 268.2,100 c 0,1.278 0.132,2.116 0.294,1.862 0.162,-0.254 0.294,-1.092 0.294,-1.862 0,-0.77 -0.132,-1.608 -0.294,-1.862 -0.162,-0.254 -0.294,0.584 -0.294,1.862 m 44.443,-1.767 c -0.333,0.868 -0.295,3.066 0.063,3.629 0.162,0.254 0.294,-0.601 0.294,-1.9 0,-2.601 -0.008,-2.639 -0.357,-1.729 m -57.243,3.721 c 1.741,1.896 4.471,4.046 5.138,4.046 0.23,0 -0.403,-0.521 -1.408,-1.158 -1.004,-0.637 -2.079,-1.492 -2.387,-1.9 -0.308,-0.408 -1.097,-1.19 -1.752,-1.737 -0.83,-0.693 -0.706,-0.466 0.409,0.749 m 71.856,-0.341 c -0.52,0.433 -0.804,0.787 -0.632,0.787 0.172,0 0.653,-0.308 1.069,-0.684 0.652,-0.59 0.807,-0.604 1.125,-0.1 0.308,0.487 0.371,0.467 0.376,-0.116 0.008,-0.913 -0.76,-0.869 -1.938,0.113 m 0.784,2.227 c -0.23,0.833 -0.346,1.587 -0.258,1.675 0.088,0.088 0.348,-0.522 0.578,-1.355 0.23,-0.833 0.346,-1.587 0.258,-1.675 -0.088,-0.088 -0.348,0.522 -0.578,1.355 m -284.332,0.074 c 0.983,1.214 3.495,3.533 3.49,3.222 -0.002,-0.075 -1.027,-1.126 -2.279,-2.336 -1.252,-1.21 -1.797,-1.609 -1.211,-0.886 M 232,103.159 c 0,0.372 2.354,2.64 2.503,2.412 0.061,-0.094 -0.477,-0.741 -1.196,-1.437 -0.719,-0.696 -1.307,-1.135 -1.307,-0.975 m 34.834,0.994 -0.965,1.247 1.144,-1.088 c 0.63,-0.598 1.064,-1.159 0.966,-1.247 -0.099,-0.088 -0.614,0.402 -1.145,1.088 m 46.849,-0.553 c 0.842,1.401 3.443,2.795 5.117,2.743 l 1.4,-0.043 -1.6,-0.272 c -2.038,-0.346 -3.351,-1.028 -4.559,-2.366 -0.943,-1.045 -0.949,-1.046 -0.358,-0.062 m -233.108,0.852 c -0.646,0.688 -1.877,1.768 -2.735,2.4 -0.858,0.631 -1.358,1.148 -1.111,1.148 0.451,0 5.668,-4.76 5.246,-4.786 -0.124,-0.008 -0.754,0.549 -1.4,1.238 m 241.225,0.579 c -0.88,0.526 -1.42,0.958 -1.2,0.961 0.481,0.006 3,-1.494 3,-1.786 0,-0.262 0.083,-0.299 -1.8,0.825 m 34.082,0.59 c 0.126,0.978 0.293,1.854 0.373,1.946 0.326,0.375 0.105,-2.612 -0.234,-3.146 -0.237,-0.375 -0.286,0.049 -0.139,1.2 m -15.344,-0.204 c -0.13,0.34 -0.125,0.73 0.013,0.867 0.137,0.137 0.249,-0.051 0.249,-0.417 0,-1.319 1.028,-0.616 2.548,1.743 0.851,1.321 1.721,2.509 1.932,2.639 0.211,0.131 -0.467,-1.042 -1.507,-2.606 -1.866,-2.807 -2.773,-3.431 -3.235,-2.226 m -104.917,0.604 c 0.534,0.339 3.521,0.56 3.146,0.234 -0.092,-0.08 -0.968,-0.247 -1.946,-0.373 -1.151,-0.147 -1.575,-0.098 -1.2,0.139 M 262.6,106 l -1.6,0.286 1.4,0.051 c 0.77,0.028 1.67,-0.124 2,-0.337 0.655,-0.423 0.562,-0.423 -1.8,0 m 63.326,3.714 c -0.35,0.927 -1.029,2.676 -1.51,3.886 -0.48,1.21 -0.708,2.02 -0.506,1.8 0.509,-0.554 3.032,-6.992 2.822,-7.201 -0.093,-0.094 -0.456,0.588 -0.806,1.515 M 73.4,109.634 c -2.254,1.293 -2.165,1.587 0.116,0.381 1.909,-1.009 2.789,-1.612 2.284,-1.566 -0.22,0.02 -1.3,0.553 -2.4,1.185 M 57.2,112 c 0.55,0.176 1.36,0.326 1.8,0.332 l 0.8,0.012 L 59,112 c -0.44,-0.189 -1.25,-0.338 -1.8,-0.332 l -1,0.012 1,0.32 m 8.8,0 c -0.792,0.254 -0.833,0.32 -0.2,0.32 0.44,0 1.25,-0.144 1.8,-0.32 0.792,-0.254 0.833,-0.32 0.2,-0.32 -0.44,0 -1.25,0.144 -1.8,0.32 m 257.2,4.084 c 0,0.12 -0.272,0.87 -0.605,1.667 -0.333,0.797 -0.516,1.449 -0.406,1.449 0.317,0 1.444,-2.9 1.216,-3.128 -0.113,-0.113 -0.205,-0.107 -0.205,0.012 m -156.3,9.01 c 1.045,0.082 2.755,0.082 3.8,0 1.045,-0.082 0.19,-0.15 -1.9,-0.15 -2.09,0 -2.945,0.068 -1.9,0.15 m -5.2,0.382 c 0.385,0.1 1.015,0.1 1.4,0 0.385,-0.101 0.07,-0.183 -0.7,-0.183 -0.77,0 -1.085,0.082 -0.7,0.183 m 13.2,0 c 0.385,0.1 1.015,0.1 1.4,0 0.385,-0.101 0.07,-0.183 -0.7,-0.183 -0.77,0 -1.085,0.082 -0.7,0.183 m -16.195,0.407 c 0.497,0.096 1.217,0.092 1.6,-0.008 0.382,-0.1 -0.025,-0.179 -0.905,-0.174 -0.88,0.004 -1.193,0.086 -0.695,0.182 m 19.195,-10e-4 c 0.495,0.096 1.305,0.096 1.8,0 0.495,-0.095 0.09,-0.173 -0.9,-0.173 -0.99,0 -1.395,0.078 -0.9,0.173 M 155,126.4 c -1.089,0.277 -1.107,0.307 -0.2,0.325 0.55,0.01 1.36,-0.136 1.8,-0.325 0.986,-0.424 0.066,-0.424 -1.6,0 m 26.246,-0.221 c 0.204,0.205 2.76,0.792 5.354,1.231 0.829,0.14 0.695,0.034 -0.434,-0.342 -1.812,-0.604 -5.258,-1.227 -4.92,-0.889 M 151.6,127.2 c -0.804,0.257 -0.843,0.323 -0.2,0.332 0.44,0.006 1.16,-0.143 1.6,-0.332 1.019,-0.438 -0.032,-0.438 -1.4,0 m 165.508,0.9 c -0.875,1.349 -1.66,2.956 -1.221,2.5 0.561,-0.583 2.211,-3.4 1.992,-3.4 -0.103,0 -0.45,0.405 -0.771,0.9 m 12.306,3.335 c -0.373,0.569 -0.587,1.126 -0.475,1.237 0.111,0.111 0.49,-0.354 0.842,-1.035 0.778,-1.504 0.563,-1.622 -0.367,-0.202 m -131.781,-0.083 c 0.408,0.372 4.367,2.241 4.367,2.061 0,-0.225 -3.82,-2.213 -4.253,-2.213 -0.154,0 -0.205,0.068 -0.114,0.152 m 129.82,3.439 c -0.579,0.876 -1.053,1.726 -1.053,1.889 0,0.164 0.242,-0.057 0.539,-0.491 1.302,-1.908 1.939,-2.989 1.76,-2.989 -0.106,0 -0.667,0.716 -1.246,1.591 m -16.064,1.806 c -1.24,1.648 -2.42,3.099 -2.622,3.223 -0.202,0.125 -0.367,0.413 -0.367,0.64 0,0.227 0.768,-0.548 1.708,-1.723 2.499,-3.128 3.96,-5.137 3.735,-5.137 -0.109,0 -1.213,1.349 -2.454,2.997 M 132.7,135.029 c -0.605,0.328 -1.1,0.681 -1.1,0.784 0,0.386 0.632,0.144 1.6,-0.613 1.189,-0.93 1.011,-0.991 -0.5,-0.171 m 73.1,0.782 c 0.44,0.358 1.34,0.915 2,1.239 1.122,0.551 1.148,0.547 0.4,-0.061 -0.44,-0.358 -1.34,-0.915 -2,-1.239 -1.122,-0.551 -1.148,-0.547 -0.4,0.061 m -79.304,3.196 c -1.813,1.214 -3.296,2.299 -3.296,2.412 0,0.199 5.814,-3.577 6.58,-4.274 0.918,-0.834 -0.223,-0.187 -3.284,1.862 m 40.419,-1.511 c 1.273,0.08 3.253,0.079 4.4,-0.002 1.147,-0.08 0.105,-0.145 -2.315,-0.144 -2.42,0.001 -3.358,0.066 -2.085,0.146 M 160,138 c -1.35,0.284 -1.357,0.295 -0.2,0.3 0.66,0.003 1.74,-0.132 2.4,-0.3 1.66,-0.422 -0.193,-0.422 -2.2,0 m 15.8,0.023 c 0.88,0.182 2.14,0.319 2.8,0.304 0.9,-0.02 0.75,-0.107 -0.6,-0.347 -2.414,-0.43 -4.306,-0.393 -2.2,0.043 m 35.833,1.712 c 0.86,0.698 3.967,2.658 3.967,2.503 0,-0.262 -3.457,-2.638 -3.839,-2.638 -0.162,0 -0.219,0.061 -0.128,0.135 m 92.263,5.333 c -2.147,2.122 -3.857,3.904 -3.8,3.962 0.123,0.123 3.757,-3.327 6.287,-5.968 3.104,-3.24 1.571,-2.004 -2.487,2.006 m -87.737,-2.334 c 0.133,0.215 1.161,1.052 2.283,1.858 1.123,0.807 1.932,1.29 1.799,1.074 -0.133,-0.215 -1.161,-1.052 -2.283,-1.858 -1.123,-0.807 -1.932,-1.29 -1.799,-1.074 m 105.216,1.134 c -0.616,0.808 -0.916,1.343 -0.666,1.188 0.512,-0.316 2.244,-2.656 1.966,-2.656 -0.099,0 -0.684,0.661 -1.3,1.468 m -128.142,-0.919 c 0.412,0.368 2.767,1.451 2.767,1.272 0,-0.231 -2.218,-1.421 -2.647,-1.421 -0.157,0 -0.211,0.067 -0.12,0.149 M 117,146.267 c -2.664,2.313 -4.654,4.212 -4.53,4.325 0.071,0.066 1.48,-1.12 3.13,-2.636 2.892,-2.656 3.863,-3.827 1.4,-1.689 m 21.4,-0.234 -1,0.815 1.3,-0.634 c 0.715,-0.349 1.3,-0.72 1.3,-0.824 0,-0.398 -0.637,-0.142 -1.6,0.643 m 82.4,0.092 c 0,0.099 0.661,0.684 1.468,1.3 0.808,0.616 1.343,0.916 1.188,0.666 -0.316,-0.512 -2.656,-2.244 -2.656,-1.966 m -20.367,0.831 c 0.647,0.604 6.817,4.648 6.629,4.344 -0.301,-0.487 -6.092,-4.5 -6.494,-4.5 -0.166,0 -0.226,0.07 -0.135,0.156 M 317.4,148.8 c -0.632,0.66 -0.981,1.19 -0.775,1.178 0.353,-0.021 2.414,-2.378 2.08,-2.378 -0.085,0 -0.673,0.54 -1.305,1.2 m -90,2.199 c 0.66,0.574 1.74,1.327 2.4,1.673 1.645,0.863 1.206,0.469 -1.4,-1.258 -1.41,-0.934 -1.769,-1.083 -1,-0.415 m 85.691,2.465 c -1.71,1.679 -3.05,3.11 -2.978,3.182 0.071,0.071 1.556,-1.305 3.299,-3.058 1.743,-1.753 3.083,-3.185 2.979,-3.182 -0.105,0.004 -1.59,1.38 -3.3,3.058 m -183.506,-1.432 -1.385,1.231 1.288,-0.85 c 1.142,-0.754 2.005,-1.613 1.62,-1.613 -0.076,0 -0.761,0.554 -1.523,1.232 m 164.702,0.936 c -2.561,1.773 -2.859,2.162 -0.778,1.016 0.941,-0.518 2.004,-1.266 2.362,-1.663 0.902,-0.996 0.628,-0.884 -1.584,0.647 M 209.2,152.925 c 0,0.099 0.661,0.684 1.468,1.3 0.808,0.616 1.343,0.916 1.188,0.666 -0.316,-0.512 -2.656,-2.244 -2.656,-1.966 m -85.085,3.485 c -0.926,0.875 -1.548,1.59 -1.381,1.59 0.167,0 1.007,-0.72 1.866,-1.6 2.01,-2.059 1.7,-2.052 -0.485,0.01 m 88.285,-1.095 c 0,0.193 2.109,1.781 7.5,5.647 1.155,0.828 2.1,1.41 2.1,1.292 0,-0.118 -1.575,-1.332 -3.5,-2.696 -1.925,-1.365 -4.085,-2.926 -4.8,-3.468 -0.715,-0.542 -1.3,-0.891 -1.3,-0.775 m 76,1.085 c -0.77,0.422 -1.256,0.774 -1.08,0.783 0.424,0.022 2.68,-1.151 2.68,-1.393 0,-0.262 -0.023,-0.253 -1.6,0.61 m -183.819,2.1 -1.581,1.7 1.7,-1.581 c 1.581,-1.471 1.884,-1.819 1.581,-1.819 -0.065,0 -0.83,0.765 -1.7,1.7 m 203.594,-0.4 -1.175,1.3 1.3,-1.175 c 0.715,-0.646 1.3,-1.231 1.3,-1.3 0,-0.309 -0.33,-0.037 -1.425,1.175 m -189.983,4 -3.592,3.7 3.7,-3.592 c 3.436,-3.336 3.882,-3.808 3.592,-3.808 -0.06,0 -1.725,1.665 -3.7,3.7 m -16.417,-0.4 -1.175,1.3 1.3,-1.175 c 1.212,-1.095 1.484,-1.425 1.175,-1.425 -0.069,0 -0.654,0.585 -1.3,1.3 m 200.315,0.866 c -2.436,1.67 -3.709,2.707 -2.49,2.028 1.275,-0.709 5.2,-3.433 5.2,-3.609 0,-0.275 -0.002,-0.274 -2.71,1.581 M 253.2,162.02 c 2.414,0.43 4.306,0.393 2.2,-0.043 -0.88,-0.182 -2.14,-0.319 -2.8,-0.304 -0.9,0.02 -0.75,0.107 0.6,0.347 m 18.1,-0.144 c 0.385,0.1 1.015,0.1 1.4,0 0.385,-0.101 0.07,-0.183 -0.7,-0.183 -0.77,0 -1.085,0.082 -0.7,0.183 m -48.68,0.86 c 0.628,0.556 3.38,2.143 3.38,1.95 0,-0.241 -3.106,-2.286 -3.471,-2.286 -0.159,0 -0.118,0.151 0.091,0.336 m 37.48,-0.04 c 1.265,0.079 3.335,0.079 4.6,0 1.265,-0.08 0.23,-0.145 -2.3,-0.145 -2.53,0 -3.565,0.065 -2.3,0.145 m 34.3,4.504 c -0.77,0.422 -1.256,0.774 -1.08,0.783 0.424,0.022 2.68,-1.151 2.68,-1.393 0,-0.262 -0.023,-0.253 -1.6,0.61 m -181.825,0.9 -1.175,1.3 1.3,-1.175 c 1.212,-1.095 1.484,-1.425 1.175,-1.425 -0.069,0 -0.654,0.585 -1.3,1.3 m -16.177,0.2 c -0.474,0.605 -1.252,1.217 -1.73,1.36 l -0.868,0.26 0.853,0.04 c 0.533,0.025 1.252,-0.484 1.92,-1.36 0.587,-0.77 0.982,-1.4 0.876,-1.4 -0.105,0 -0.578,0.495 -1.051,1.1 M 82.8,169.2 c -1.344,0.431 0.108,0.431 1.8,0 1.078,-0.274 1.098,-0.306 0.2,-0.313 -0.55,-0.004 -1.45,0.137 -2,0.313 m 7.8,0 c 1.692,0.431 3.144,0.431 1.8,0 -0.55,-0.176 -1.45,-0.317 -2,-0.313 -0.898,0.007 -0.878,0.039 0.2,0.313 m 143.6,-0.096 c 0.525,0.474 4.579,2.103 5.153,2.071 0.472,-0.027 0.166,-0.17 -3.353,-1.562 -1.21,-0.479 -2.02,-0.708 -1.8,-0.509 m -124.8,2.615 c -2.047,2.593 -2.683,3.481 -2.494,3.481 0.251,0 4.377,-5.252 4.23,-5.385 -0.075,-0.068 -0.856,0.788 -1.736,1.904 m 173.856,-0.06 c -0.739,0.213 -1.269,0.461 -1.177,0.553 0.202,0.202 3.121,-0.575 3.121,-0.831 0,-0.235 -0.318,-0.19 -1.944,0.278 M 73.493,173.014 C 72.672,173.572 72,174.115 72,174.22 c 0,0.105 0.72,-0.285 1.6,-0.867 1.397,-0.925 1.87,-1.353 1.493,-1.353 -0.059,0 -0.779,0.456 -1.6,1.014 M 244.4,172.8 c 1.368,0.438 2.419,0.438 1.4,0 -0.44,-0.189 -1.16,-0.338 -1.6,-0.332 -0.643,0.009 -0.604,0.075 0.2,0.332 m 30.8,0.82 c -0.674,0.229 -0.349,0.264 1,0.108 1.1,-0.127 2.075,-0.297 2.167,-0.379 0.315,-0.281 -2.168,-0.069 -3.167,0.271 m -23.7,0.662 c 0.495,0.096 1.305,0.096 1.8,0 0.495,-0.095 0.09,-0.173 -0.9,-0.173 -0.99,0 -1.395,0.078 -0.9,0.173 m 20,0 c 0.495,0.096 1.305,0.096 1.8,0 0.495,-0.095 0.09,-0.173 -0.9,-0.173 -0.99,0 -1.395,0.078 -0.9,0.173 M 69.761,176.1 c -1.738,1.84 -2.753,3.1 -2.499,3.1 0.088,0 1.111,-1.08 2.273,-2.4 2.442,-2.774 2.575,-3.188 0.226,-0.7 M 254.9,174.676 c 0.385,0.1 1.015,0.1 1.4,0 0.385,-0.101 0.07,-0.183 -0.7,-0.183 -0.77,0 -1.085,0.082 -0.7,0.183 m 5.6,0.418 c 1.045,0.082 2.755,0.082 3.8,0 1.045,-0.082 0.19,-0.15 -1.9,-0.15 -2.09,0 -2.945,0.068 -1.9,0.15 m -77.699,1.904 c -0.515,0.55 -0.849,1.087 -0.741,1.196 0.108,0.108 0.594,-0.342 1.08,-0.999 1.077,-1.456 0.926,-1.543 -0.339,-0.197 m 34.033,0.049 c 0.531,0.686 1.046,1.176 1.145,1.088 0.098,-0.088 -0.336,-0.649 -0.966,-1.247 l -1.144,-1.088 0.965,1.247 M 193.764,179 c 0.55,0.55 1.129,1 1.288,1 0.158,0 -0.135,-0.45 -0.652,-1 -0.517,-0.55 -1.096,-1 -1.288,-1 -0.192,0 0.102,0.45 0.652,1 m -12.321,0.433 c -0.333,0.868 -0.295,3.066 0.063,3.629 0.162,0.254 0.294,-0.601 0.294,-1.9 0,-2.601 -0.008,-2.639 -0.357,-1.729 m 36.757,1.765 c 0,1.277 0.135,2.24 0.3,2.139 0.385,-0.236 0.38,-3.391 -0.006,-4 -0.162,-0.254 -0.294,0.583 -0.294,1.861 m -16.94,2.244 c -0.298,0.336 -0.461,0.69 -0.365,0.787 0.097,0.097 0.503,-0.185 0.903,-0.627 0.399,-0.441 0.563,-0.795 0.364,-0.787 -0.199,0.009 -0.605,0.29 -0.902,0.627 M 182,184.24 c 0,0.206 2.025,2.351 4.5,4.767 l 4.5,4.393 -4.4,-4.587 c -2.42,-2.523 -4.445,-4.668 -4.5,-4.767 -0.055,-0.098 -0.1,-0.011 -0.1,0.194 m 33.013,2.952 -2.787,3.008 2.969,-2.885 c 1.632,-1.587 2.886,-2.941 2.787,-3.008 -0.1,-0.068 -1.436,1.23 -2.969,2.885 M 111.668,188.6 c 0.006,0.44 0.156,1.25 0.332,1.8 l 0.32,1 0.012,-1 c 0.006,-0.55 -0.143,-1.36 -0.332,-1.8 l -0.344,-0.8 0.012,0.8 m -49.018,1.45 c -0.314,1.57 -0.256,6.645 0.09,7.874 0.143,0.508 0.26,-1.337 0.26,-4.1 0,-5.563 0.002,-5.536 -0.35,-3.774 m 146.602,4.25 c 0.029,0.165 1.694,1.826 3.7,3.692 l 3.648,3.392 -3.592,-3.692 c -3.633,-3.735 -3.85,-3.931 -3.756,-3.392 m -97.43,3.522 c -0.15,0.803 -0.194,1.54 -0.096,1.638 0.098,0.097 0.301,-0.479 0.452,-1.282 0.15,-0.803 0.194,-1.54 0.096,-1.638 -0.098,-0.097 -0.301,0.479 -0.452,1.282 m -48.616,2.011 c 0.003,0.422 0.189,1.037 0.412,1.367 0.297,0.438 0.334,0.276 0.138,-0.6 -0.329,-1.471 -0.558,-1.79 -0.55,-0.767 m 120.897,0.78 c -2.633,2.757 -3.671,5.953 -2.524,7.766 0.239,0.378 0.289,0.004 0.144,-1.076 -0.331,-2.468 0.104,-3.568 2.354,-5.947 1.121,-1.186 1.878,-2.144 1.681,-2.129 -0.197,0.016 -0.942,0.639 -1.655,1.386 m 13.083,4.487 -2.186,2.3 2.213,-2.1 c 2.878,-2.732 2.665,-2.792 7.78,2.2 l 4.407,4.3 -4.393,-4.5 c -5.109,-5.233 -4.974,-5.195 -7.821,-2.2 m 21.014,1.1 c 0,1.388 0.132,2.316 0.294,2.062 0.162,-0.254 0.294,-1.182 0.294,-2.062 0,-0.88 -0.132,-1.808 -0.294,-2.062 -0.162,-0.254 -0.294,0.674 -0.294,2.062 M 64.8,204.153 c 0,0.429 1.19,2.647 1.421,2.647 0.11,0 -0.098,-0.585 -0.462,-1.3 -0.742,-1.46 -0.959,-1.764 -0.959,-1.347 m 44.214,1.682 c -0.373,0.569 -0.609,1.103 -0.525,1.187 0.084,0.085 0.469,-0.381 0.855,-1.034 0.862,-1.46 0.604,-1.579 -0.33,-0.153 M 332,206.8 c -0.792,0.254 -0.833,0.32 -0.2,0.32 0.44,0 1.25,-0.144 1.8,-0.32 0.792,-0.254 0.833,-0.32 0.2,-0.32 -0.44,0 -1.25,0.144 -1.8,0.32 m 9.2,0 c 0.55,0.176 1.45,0.317 2,0.313 0.898,-0.007 0.878,-0.039 -0.2,-0.313 -1.692,-0.431 -3.144,-0.431 -1.8,0 m -235.159,3.228 c -1.176,1.335 -3.106,3.071 -4.289,3.856 -2.344,1.557 -2.804,2.074 -1.027,1.155 1.472,-0.761 4.917,-3.871 6.494,-5.863 1.858,-2.346 1.25,-1.906 -1.178,0.852 m -37.633,-0.165 c 0.697,0.914 2.015,2.237 2.929,2.938 l 1.663,1.275 -1.6,-1.514 c -0.88,-0.833 -2.198,-2.155 -2.929,-2.938 l -1.329,-1.424 1.266,1.663 m 281.603,-0.001 c 3.092,2.068 5.328,4.052 6.84,6.065 2.077,2.767 2.747,3.48 1.757,1.873 -1.926,-3.127 -7.762,-8.582 -9.197,-8.596 -0.214,-0.002 0.056,0.294 0.6,0.658 M 215.2,211.45 c -0.99,0.544 -1.35,0.864 -0.8,0.712 0.993,-0.275 2.8,-1.313 2.8,-1.608 0,-0.208 0.042,-0.226 -2,0.896 m 105.507,1.45 c -2.265,2.191 -2.307,2.257 -0.345,0.533 3.247,-2.854 3.434,-3.033 3.169,-3.033 -0.132,0 -1.403,1.125 -2.824,2.5 m -3.594,3.8 c -0.606,0.695 -1.833,2.893 -1.39,2.49 0.36,-0.328 2.268,-3.19 2.127,-3.19 -0.069,0 -0.401,0.315 -0.737,0.7 m -233.837,1.76 c 0.508,0.143 2.454,0.26 4.324,0.26 1.87,0 3.816,-0.117 4.324,-0.26 0.508,-0.143 -1.438,-0.26 -4.324,-0.26 -2.886,0 -4.832,0.117 -4.324,0.26 m 230.173,5.355 c -0.137,0.358 -0.234,0.951 -0.215,1.318 0.019,0.367 0.193,0.136 0.387,-0.513 0.377,-1.262 0.244,-1.887 -0.172,-0.805 m -171.737,1.28 c 1.052,0.082 2.672,0.081 3.6,-0.003 0.928,-0.084 0.068,-0.151 -1.912,-0.15 -1.98,0.001 -2.74,0.07 -1.688,0.153 m 113.2,0 c 1.052,0.082 2.672,0.081 3.6,-0.003 0.928,-0.084 0.068,-0.151 -1.912,-0.15 -1.98,0.001 -2.74,0.07 -1.688,0.153 M 135,225.6 c -1.361,0.244 -1.421,0.292 -0.4,0.32 0.66,0.019 1.92,-0.115 2.8,-0.297 2.093,-0.433 0.002,-0.453 -2.4,-0.023 m 127.6,0.023 c 0.88,0.182 2.14,0.319 2.8,0.304 0.9,-0.02 0.75,-0.107 -0.6,-0.347 -2.414,-0.43 -4.306,-0.393 -2.2,0.043 M 361.668,226 c -0.006,0.55 0.143,1.36 0.332,1.8 l 0.344,0.8 -0.012,-0.8 c -0.006,-0.44 -0.156,-1.25 -0.332,-1.8 l -0.32,-1 -0.012,1 M 152.3,225.882 c 0.495,0.096 1.305,0.096 1.8,0 0.495,-0.095 0.09,-0.173 -0.9,-0.173 -0.99,0 -1.395,0.078 -0.9,0.173 m 93.6,0 c 0.495,0.096 1.305,0.096 1.8,0 0.495,-0.095 0.09,-0.173 -0.9,-0.173 -0.99,0 -1.395,0.078 -0.9,0.173 M 128.8,227 c -1.867,0.719 -1.061,0.733 1.2,0.021 0.99,-0.312 1.44,-0.566 1,-0.564 -0.44,0.002 -1.43,0.246 -2.2,0.543 m 141.2,0.021 c 0.99,0.312 1.98,0.556 2.2,0.542 0.7,-0.042 -2.366,-1.102 -3.2,-1.106 -0.44,-0.002 0.01,0.252 1,0.564 m -110.8,0.161 c 0.33,0.223 0.945,0.409 1.367,0.412 1.023,0.008 0.704,-0.221 -0.767,-0.55 -0.876,-0.196 -1.038,-0.159 -0.6,0.138 m 80.4,0.018 c -0.824,0.264 -0.859,0.326 -0.2,0.354 0.44,0.019 1.07,-0.141 1.4,-0.354 0.701,-0.453 0.214,-0.453 -1.2,0 m 72.871,4 c 0.005,1.87 0.141,3.85 0.303,4.4 0.162,0.55 0.22,-0.8 0.129,-3 -0.21,-5.077 -0.442,-5.83 -0.432,-1.4 M 168.4,230.82 c 1.387,0.941 2.178,1.215 1.2,0.416 -0.55,-0.45 -1.18,-0.819 -1.4,-0.821 -0.22,-0.002 -0.13,0.181 0.2,0.405 m 62,0.416 c -0.664,0.543 -0.731,0.679 -0.2,0.404 1.305,-0.674 2.028,-1.228 1.6,-1.225 -0.22,0.002 -0.85,0.371 -1.4,0.821 m -112.8,1.2 -1.4,1.215 1.7,-1.079 c 0.935,-0.593 1.7,-1.144 1.7,-1.225 0,-0.407 -0.74,-0.004 -2,1.089 m 163.846,-0.364 c 1.773,1.339 2.116,1.445 0.77,0.239 -0.669,-0.599 -1.375,-1.094 -1.57,-1.1 -0.195,-0.006 0.165,0.381 0.8,0.861 m -169.893,5.517 c -2.174,2.194 -3.953,4.19 -3.953,4.437 0,0.246 0.803,-0.539 1.785,-1.744 0.982,-1.206 2.917,-3.201 4.3,-4.435 1.383,-1.234 2.359,-2.244 2.168,-2.245 -0.191,-0.001 -2.126,1.793 -4.3,3.987 m 174.762,-1.801 c 1.383,1.266 3.318,3.288 4.3,4.494 0.982,1.205 1.785,2.033 1.785,1.839 0,-0.565 -5.054,-5.943 -6.906,-7.349 -1.013,-0.769 -0.683,-0.36 0.821,1.016 m 75.507,-0.366 c -0.15,0.803 -0.194,1.54 -0.096,1.638 0.098,0.097 0.301,-0.479 0.452,-1.282 0.15,-0.803 0.194,-1.54 0.096,-1.638 -0.098,-0.097 -0.301,0.479 -0.452,1.282 M 182.2,237.197 c 0.764,0.331 3.714,0.558 3.367,0.259 -0.092,-0.079 -1.067,-0.247 -2.167,-0.374 -1.287,-0.149 -1.715,-0.108 -1.2,0.115 m 33.6,0.003 -1.6,0.286 1.4,0.029 c 0.77,0.016 1.76,-0.126 2.2,-0.315 0.943,-0.405 0.262,-0.405 -2,0 m 97.406,0.233 c 0.003,0.422 0.189,1.037 0.412,1.367 0.297,0.438 0.334,0.276 0.138,-0.6 -0.329,-1.471 -0.558,-1.79 -0.55,-0.767 M 142.2,237.809 c -0.22,0.095 -1.93,0.345 -3.8,0.554 -3.698,0.415 -5.363,0.722 -6.6,1.218 -1.381,0.554 -6.39,2.993 -6.6,3.213 -0.11,0.116 -0.91,0.74 -1.778,1.388 -4.596,3.43 -9.015,9.839 -12.423,18.018 -0.366,0.88 -0.831,1.913 -1.033,2.295 -0.201,0.382 -0.366,1.046 -0.366,1.476 0,0.43 -0.18,0.893 -0.4,1.029 -0.22,0.136 -0.4,0.676 -0.4,1.2 0,0.524 -0.16,1.052 -0.356,1.173 -0.195,0.121 -0.453,0.806 -0.571,1.523 -0.36,2.173 -0.715,3.662 -1.076,4.504 -0.188,0.44 -0.452,1.43 -0.585,2.2 -0.133,0.77 -0.423,2.3 -0.643,3.4 -3.119,15.577 -4.819,36.37 -4.919,60.2 l -0.05,11.8 1.119,2.279 c 2.505,5.1 7.796,7.607 13.681,6.483 4.136,-0.79 4.989,-1.02 5.23,-1.41 0.119,-0.193 0.567,-0.352 0.994,-0.352 0.427,0 0.776,-0.18 0.776,-0.4 0,-0.22 0.193,-0.4 0.428,-0.4 1.958,0 8.642,-6.682 12.804,-12.8 0.972,-1.43 1.903,-2.66 2.068,-2.733 0.165,-0.074 0.3,-0.309 0.3,-0.522 0,-0.214 0.72,-1.449 1.6,-2.745 0.88,-1.296 1.6,-2.546 1.6,-2.778 0,-0.232 0.136,-0.422 0.302,-0.422 1.395,0 1.298,-2.446 -0.187,-4.683 -1.997,-3.012 -2.372,-3.854 -3.697,-8.317 -0.492,-1.655 -0.389,-9.323 0.155,-11.6 1.921,-8.036 11.922,-18.2 17.908,-18.2 0.527,0 1.149,-0.19 1.382,-0.423 0.83,-0.83 11.522,-0.18 14.037,0.853 8.014,3.294 13.31,8.931 15.853,16.876 0.211,0.657 1.098,0.698 13.067,0.6 l 12.842,-0.106 0.738,-2.097 c 2.42,-6.874 9.049,-13.359 15.6,-15.263 0.99,-0.288 2.213,-0.685 2.719,-0.882 1.269,-0.494 10.772,-0.459 11.081,0.042 0.136,0.22 0.689,0.4 1.229,0.4 0.54,0 1.294,0.159 1.676,0.354 0.382,0.194 1.934,0.943 3.448,1.665 5.144,2.449 9.529,7.523 12.259,14.181 1.057,2.58 1.536,11.025 0.77,13.6 -1.037,3.49 -2.197,6.107 -3.698,8.343 -1.57,2.34 -1.63,3.316 -0.285,4.657 0.111,0.11 0.454,0.65 0.763,1.2 0.31,0.55 0.76,1.351 1,1.78 0.241,0.428 0.753,1.137 1.138,1.575 0.385,0.438 0.7,1.032 0.7,1.32 0,0.289 0.151,0.525 0.336,0.525 0.184,0 0.534,0.436 0.777,0.969 0.243,0.533 0.712,1.298 1.042,1.7 0.33,0.402 1.417,1.832 2.416,3.177 3.194,4.302 9.119,9.754 10.601,9.754 0.235,0 0.428,0.18 0.428,0.4 0,0.22 0.349,0.4 0.776,0.4 0.427,0 0.875,0.159 0.994,0.352 1.331,2.153 11.872,2.01 14.612,-0.199 0.34,-0.273 1.166,-0.945 1.835,-1.491 3.737,-3.051 4.092,-5.766 3.415,-26.119 -0.756,-22.694 -1.716,-33.971 -4.051,-47.543 -0.227,-1.32 -0.514,-3.12 -0.638,-4 -0.124,-0.88 -0.387,-1.771 -0.584,-1.98 -0.197,-0.209 -0.359,-0.826 -0.359,-1.372 0,-0.545 -0.168,-1.544 -0.373,-2.22 -0.205,-0.675 -0.583,-2.038 -0.839,-3.028 -0.256,-0.99 -0.628,-2.113 -0.827,-2.495 -0.199,-0.382 -0.361,-1.059 -0.361,-1.505 0,-0.446 -0.18,-1.168 -0.4,-1.605 -0.22,-0.437 -0.58,-1.153 -0.8,-1.59 -0.22,-0.437 -0.4,-1.069 -0.4,-1.405 0,-0.336 -0.168,-0.923 -0.372,-1.305 -0.205,-0.382 -1.303,-2.602 -2.44,-4.933 -2.811,-5.764 -7.003,-11.237 -10.388,-13.562 -0.77,-0.529 -1.49,-1.064 -1.6,-1.189 -0.202,-0.229 -5.119,-2.636 -6.6,-3.23 -1.216,-0.488 -2.883,-0.8 -6.4,-1.199 -1.76,-0.2 -3.56,-0.445 -4,-0.545 -1.579,-0.36 -14.054,1.203 -14.427,1.807 -0.121,0.196 -0.649,0.356 -1.173,0.356 -0.524,0 -1.064,0.18 -1.2,0.4 -0.136,0.22 -0.597,0.4 -1.024,0.4 -0.427,0 -0.776,0.18 -0.776,0.4 0,0.22 -0.36,0.4 -0.8,0.4 -0.44,0 -0.8,0.138 -0.8,0.306 0,0.168 -0.675,0.616 -1.5,0.995 -0.825,0.379 -2.4,1.231 -3.5,1.893 -8.456,5.091 -11.446,5.605 -32.6,5.605 -21.599,0 -22.963,-0.245 -33.4,-5.994 -1.32,-0.727 -2.804,-1.521 -3.297,-1.764 -0.493,-0.242 -0.898,-0.576 -0.9,-0.741 -0.002,-0.165 -0.268,-0.3 -0.591,-0.3 -0.323,0 -1.229,-0.36 -2.012,-0.8 -0.783,-0.44 -1.768,-0.8 -2.189,-0.8 -0.42,0 -0.863,-0.16 -0.984,-0.356 -0.25,-0.405 -1.88,-0.719 -6.315,-1.216 -5.727,-0.643 -7.71,-0.794 -8.112,-0.619 m 217.605,4.041 c -0.923,2.208 -3.932,6.228 -6.081,8.123 -1.058,0.933 -1.367,1.328 -0.686,0.878 2.741,-1.81 9.002,-10.451 7.573,-10.451 -0.11,0 -0.473,0.652 -0.806,1.45 m -44.131,1.773 c 0.277,0.831 4.066,5.394 5.285,6.366 0.683,0.544 0.119,-0.225 -1.253,-1.708 -1.372,-1.484 -2.771,-3.234 -3.11,-3.889 -0.588,-1.136 -1.22,-1.663 -0.922,-0.769 m -168.705,6.938 c 2.63,1.541 3.431,3.408 3.431,7.993 v 3.846 h 4.026 c 4.136,0 5.102,0.262 6.543,1.773 4.754,4.985 1.158,11.027 -6.563,11.027 H 150.4 v 3.674 c 0,6.93 -4.705,10.946 -9.696,8.275 -2.707,-1.449 -3.504,-3.256 -3.504,-7.944 V 275.2 h -4.005 c -4.101,0 -5,-0.249 -6.573,-1.822 -2.862,-2.862 -2.388,-7.806 0.967,-10.078 1.167,-0.79 1.836,-0.9 5.47,-0.9 h 4.141 v -3.939 c 0,-5.105 0.664,-6.538 3.8,-8.195 1.77,-0.935 4.063,-0.822 5.969,0.295 m 112.147,-0.204 c 2.967,1.515 3.684,3.079 3.684,8.038 v 4.005 h 4.02 c 2.701,0 4.374,0.187 5.1,0.568 3.739,1.969 4.496,7.372 1.458,10.41 -1.573,1.573 -2.472,1.822 -6.573,1.822 H 262.8 v 4.005 c 0,4.688 -0.797,6.495 -3.504,7.944 -5.017,2.685 -9.696,-1.308 -9.696,-8.275 V 275.2 h -4.006 c -7.721,0 -11.317,-6.042 -6.563,-11.027 1.441,-1.511 2.407,-1.773 6.543,-1.773 h 4.026 l 0.007,-3.9 c 0.012,-7.114 4.311,-10.795 9.509,-8.143 m 88.684,3.272 c -1.32,0.643 -2.169,1.169 -1.887,1.17 0.59,0.001 4.487,-1.915 4.487,-2.206 0,-0.246 0.192,-0.323 -2.6,1.036 m -4.2,1.571 c -0.824,0.264 -0.859,0.326 -0.2,0.354 0.44,0.019 1.07,-0.141 1.4,-0.354 0.701,-0.453 0.214,-0.453 -1.2,0 m -7.5,1.091 c 0.825,0.087 2.175,0.087 3,0 0.825,-0.086 0.15,-0.157 -1.5,-0.157 -1.65,0 -2.325,0.071 -1.5,0.157 M 95.449,267.415 c -0.137,0.358 -0.234,0.951 -0.215,1.318 0.019,0.367 0.193,0.136 0.387,-0.513 0.377,-1.262 0.244,-1.887 -0.172,-0.805 m 208.795,0.385 c 0.329,1.471 0.558,1.79 0.55,0.767 -0.003,-0.422 -0.189,-1.037 -0.412,-1.367 -0.297,-0.438 -0.334,-0.276 -0.138,0.6 M 12.733,281.293 c 0.161,0.161 14.177,0.341 31.146,0.4 16.97,0.059 30.765,0.017 30.655,-0.093 -0.11,-0.11 -14.126,-0.29 -31.147,-0.4 -17.021,-0.11 -30.816,-0.068 -30.654,0.093 m 195.4,-0.063 c 5.333,1.481 6.353,8.796 1.654,11.87 -1.316,0.861 -1.739,0.9 -9.787,0.9 -8.048,0 -8.471,-0.039 -9.787,-0.9 -4.604,-3.012 -3.864,-9.893 1.261,-11.72 1.881,-0.671 14.377,-0.784 16.659,-0.15 m 148.4,-0.035 c -16.977,0.113 -30.957,0.295 -31.067,0.405 -0.11,0.11 13.685,0.152 30.655,0.093 19.503,-0.068 30.998,-0.252 31.246,-0.5 0.216,-0.216 0.312,-0.35 0.213,-0.298 -0.099,0.052 -14.07,0.187 -31.047,0.3 m -264.678,2.26 c -0.142,1.031 -0.181,1.953 -0.086,2.047 0.094,0.094 0.296,-0.663 0.449,-1.684 0.153,-1.02 0.192,-1.942 0.086,-2.047 -0.106,-0.106 -0.308,0.652 -0.449,1.684 m 215.785,-0.822 c 0.022,0.642 0.193,1.617 0.38,2.167 0.229,0.674 0.264,0.349 0.108,-1 -0.259,-2.25 -0.549,-2.941 -0.488,-1.167 m -229.606,3.191 c -0.019,0.452 0.249,1.172 0.596,1.6 0.346,0.427 0.507,0.537 0.357,0.245 -0.15,-0.293 -0.418,-1.013 -0.596,-1.6 -0.258,-0.858 -0.329,-0.906 -0.357,-0.245 m 243.294,0.876 c -0.414,1.328 -0.403,1.411 0.102,0.724 0.478,-0.651 0.809,-2.224 0.468,-2.224 -0.056,0 -0.313,0.675 -0.57,1.5 M 240.2,306.8 c 0.44,0.189 1.07,0.344 1.4,0.344 0.378,0 0.304,-0.127 -0.2,-0.344 -0.44,-0.189 -1.07,-0.344 -1.4,-0.344 -0.378,0 -0.304,0.127 0.2,0.344 m -71.37,1.533 c 2.124,1.347 3.823,3.272 4.823,5.467 0.401,0.88 0.733,1.32 0.738,0.978 0.026,-1.845 -5.238,-7.578 -6.958,-7.578 -0.214,0 0.414,0.51 1.397,1.133 m 62.359,-0.472 c -2.571,1.72 -5.601,5.475 -5.58,6.917 0.005,0.342 0.337,-0.098 0.738,-0.978 1,-2.195 2.699,-4.12 4.823,-5.467 0.983,-0.623 1.611,-1.133 1.397,-1.133 -0.214,0 -0.834,0.298 -1.378,0.661 m 16.563,4.306 c 0.576,0.849 1.048,1.73 1.048,1.955 0,0.226 0.103,0.308 0.229,0.182 0.309,-0.309 -0.81,-2.424 -1.651,-3.122 -0.371,-0.308 -0.203,0.135 0.374,0.985 m -97.523,3.662 c -0.148,0.586 -0.191,1.143 -0.097,1.237 0.095,0.094 0.292,-0.308 0.439,-0.895 0.148,-0.586 0.191,-1.143 0.097,-1.237 -0.095,-0.094 -0.292,0.308 -0.439,0.895 m 99.039,-0.629 c 0.02,1.039 0.65,2.746 0.664,1.8 0.006,-0.44 -0.143,-1.16 -0.332,-1.6 -0.211,-0.49 -0.339,-0.568 -0.332,-0.2 m -74.359,3.6 c 0,0.99 0.078,1.395 0.173,0.9 0.096,-0.495 0.096,-1.305 0,-1.8 -0.095,-0.495 -0.173,-0.09 -0.173,0.9 m 50,0 c 0,0.99 0.078,1.395 0.173,0.9 0.096,-0.495 0.096,-1.305 0,-1.8 -0.095,-0.495 -0.173,-0.09 -0.173,0.9 m -74.903,1.833 c 0.003,0.422 0.189,1.037 0.412,1.367 0.297,0.438 0.334,0.276 0.138,-0.6 -0.329,-1.471 -0.558,-1.79 -0.55,-0.767 m 99.64,-0.166 c -0.025,0.367 -0.15,0.997 -0.276,1.4 -0.218,0.695 -0.207,0.696 0.227,0.02 0.251,-0.391 0.376,-1.021 0.276,-1.4 -0.162,-0.619 -0.185,-0.621 -0.227,-0.02 m -76.446,4.21 c 0,0.226 -0.757,1.291 -1.681,2.367 -0.925,1.076 -1.177,1.506 -0.561,0.956 1.457,-1.3 2.795,-3.18 2.486,-3.49 -0.134,-0.134 -0.244,-0.059 -0.244,0.167 m 53.2,-0.005 c 0,0.248 0.765,1.244 1.7,2.213 0.935,0.969 1.232,1.211 0.66,0.538 -0.571,-0.672 -1.336,-1.668 -1.7,-2.212 -0.363,-0.544 -0.66,-0.786 -0.66,-0.539 M 159,330.8 c 0.44,0.189 1.07,0.344 1.4,0.344 0.378,0 0.304,-0.127 -0.2,-0.344 -0.44,-0.189 -1.07,-0.344 -1.4,-0.344 -0.378,0 -0.304,0.127 0.2,0.344 m 80.8,0 c -0.504,0.217 -0.578,0.344 -0.2,0.344 0.33,0 0.96,-0.155 1.4,-0.344 0.504,-0.217 0.578,-0.344 0.2,-0.344 -0.33,0 -0.96,0.155 -1.4,0.344"
       stroke="none"
       fill="#a4a4a4"
       fill-rule="evenodd" />
    <path
       id="path5"
       d="m 12.597,159.4 c 0,66.88 0.047,94.3 0.103,60.932 0.056,-33.367 0.056,-88.087 0,-121.6 C 12.644,65.22 12.597,92.52 12.597,159.4 m 374.8,0 c 0,66.88 0.047,94.3 0.103,60.932 0.056,-33.367 0.056,-88.087 0,-121.6 -0.056,-33.512 -0.103,-6.212 -0.103,60.668 M 244.6,73.2 c 1.528,1.54 2.869,2.8 2.979,2.8 0.11,0 -1.051,-1.26 -2.579,-2.8 -1.528,-1.54 -2.869,-2.8 -2.979,-2.8 -0.11,0 1.051,1.26 2.579,2.8 m 10.781,-0.3 -1.581,1.7 1.7,-1.581 c 1.581,-1.471 1.884,-1.819 1.581,-1.819 -0.065,0 -0.83,0.765 -1.7,1.7 M 37.331,87.4 c 0.002,1.54 0.074,2.121 0.161,1.291 0.087,-0.83 0.085,-2.09 -0.003,-2.8 -0.089,-0.71 -0.16,-0.031 -0.158,1.509 m 201.691,1.775 -1.578,1.825 1.759,-1.686 c 0.967,-0.928 1.677,-1.749 1.577,-1.826 -0.099,-0.076 -0.89,0.683 -1.758,1.687 M 259.2,87.446 c 0,0.208 1.125,1.453 2.5,2.767 l 2.5,2.387 -2.4,-2.59 c -1.32,-1.425 -2.445,-2.67 -2.5,-2.767 -0.055,-0.097 -0.1,-0.006 -0.1,0.203 M 61.091,112.689 c 0.71,0.088 1.97,0.09 2.8,0.003 0.83,-0.087 0.249,-0.159 -1.291,-0.161 -1.54,-0.002 -2.219,0.069 -1.509,0.158 M 349.3,112.676 c 0.385,0.1 1.015,0.1 1.4,0 0.385,-0.101 0.07,-0.183 -0.7,-0.183 -0.77,0 -1.085,0.082 -0.7,0.183 m -186.195,12.407 c 0.497,0.096 1.217,0.092 1.6,-0.008 0.382,-0.1 -0.025,-0.179 -0.905,-0.174 -0.88,0.004 -1.193,0.086 -0.695,0.182 m 10,0 c 0.497,0.096 1.217,0.092 1.6,-0.008 0.382,-0.1 -0.025,-0.179 -0.905,-0.174 -0.88,0.004 -1.193,0.086 -0.695,0.182 m -67.127,31.617 -1.378,1.5 1.5,-1.378 c 0.825,-0.759 1.5,-1.434 1.5,-1.5 0,-0.306 -0.338,-0.018 -1.622,1.378 m 12.614,5.4 -3.992,4.1 4.1,-3.992 c 2.255,-2.196 4.1,-4.041 4.1,-4.1 0,-0.29 -0.499,0.184 -4.208,3.992 m 138.113,12.983 c 0.497,0.096 1.217,0.092 1.6,-0.008 0.382,-0.1 -0.025,-0.179 -0.905,-0.174 -0.88,0.004 -1.193,0.086 -0.695,0.182 m 10,0 c 0.497,0.096 1.217,0.092 1.6,-0.008 0.382,-0.1 -0.025,-0.179 -0.905,-0.174 -0.88,0.004 -1.193,0.086 -0.695,0.182 m -80.25,14.317 c 2.12,2.2 3.95,4.27 4.068,4.6 0.188,0.528 0.218,0.527 0.245,-0.008 0.018,-0.334 -1.813,-2.404 -4.068,-4.6 l -4.1,-3.992 3.855,4 m 26.558,0.187 c -2.185,2.193 -3.891,4.038 -3.793,4.101 0.099,0.063 1.97,-1.731 4.159,-3.987 2.188,-2.255 3.895,-4.101 3.792,-4.101 -0.102,0 -1.973,1.794 -4.158,3.987 M 112.531,193.8 c 0.002,1.54 0.074,2.121 0.161,1.291 0.087,-0.83 0.085,-2.09 -0.003,-2.8 -0.089,-0.71 -0.16,-0.031 -0.158,1.509 m 82.861,13.5 -3.992,4.1 4.1,-3.992 c 2.255,-2.196 4.1,-4.041 4.1,-4.1 0,-0.29 -0.499,0.184 -4.208,3.992 m 8.808,-0.1 c 2.192,2.2 4.075,4 4.185,4 0.11,0 -1.593,-1.8 -3.785,-4 -2.192,-2.2 -4.075,-4 -4.185,-4 -0.11,0 1.593,1.8 3.785,4 m 130.5,-0.918 c 0.495,0.096 1.305,0.096 1.8,0 0.495,-0.095 0.09,-0.173 -0.9,-0.173 -0.99,0 -1.395,0.078 -0.9,0.173 m 4.005,10e-4 c 0.497,0.096 1.217,0.092 1.6,-0.008 0.382,-0.1 -0.025,-0.179 -0.905,-0.174 -0.88,0.004 -1.193,0.086 -0.695,0.182 M 186.9,212.676 c 0.385,0.1 1.015,0.1 1.4,0 0.385,-0.101 0.07,-0.183 -0.7,-0.183 -0.77,0 -1.085,0.082 -0.7,0.183 m 24.8,0 c 0.385,0.1 1.015,0.1 1.4,0 0.385,-0.101 0.07,-0.183 -0.7,-0.183 -0.77,0 -1.085,0.082 -0.7,0.183 m -64.2,12.406 c 0.495,0.096 1.305,0.096 1.8,0 0.495,-0.095 0.09,-0.173 -0.9,-0.173 -0.99,0 -1.395,0.078 -0.9,0.173 m 103.2,0 c 0.495,0.096 1.305,0.096 1.8,0 0.495,-0.095 0.09,-0.173 -0.9,-0.173 -0.99,0 -1.395,0.078 -0.9,0.173 m 111.831,6.318 c 0.002,1.54 0.074,2.121 0.161,1.291 0.087,-0.83 0.085,-2.09 -0.003,-2.8 -0.089,-0.71 -0.16,-0.031 -0.158,1.509 M 192.7,237.499 c 4.015,0.066 10.585,0.066 14.6,0 4.015,-0.065 0.73,-0.118 -7.3,-0.118 -8.03,0 -11.315,0.053 -7.3,0.118"
       stroke="none"
       fill="#b7b7b7"
       fill-rule="evenodd" />
    <path
       id="path6"
       d="m 80.2,69.6 c 0.859,0.88 1.652,1.6 1.762,1.6 0.11,0 -0.503,-0.72 -1.362,-1.6 -0.859,-0.88 -1.652,-1.6 -1.762,-1.6 -0.11,0 0.503,0.72 1.362,1.6 m 256.7,11.476 c 0.385,0.1 1.015,0.1 1.4,0 0.385,-0.101 0.07,-0.183 -0.7,-0.183 -0.77,0 -1.085,0.082 -0.7,0.183 M 230.893,100 c 0,0.77 0.082,1.085 0.183,0.7 0.1,-0.385 0.1,-1.015 0,-1.4 -0.101,-0.385 -0.183,-0.07 -0.183,0.7 m 38,0 c 0,0.77 0.082,1.085 0.183,0.7 0.1,-0.385 0.1,-1.015 0,-1.4 -0.101,-0.385 -0.183,-0.07 -0.183,0.7 m -88,81.2 c 0,0.77 0.082,1.085 0.183,0.7 0.1,-0.385 0.1,-1.015 0,-1.4 -0.101,-0.385 -0.183,-0.07 -0.183,0.7 m 38,0 c 0,0.77 0.082,1.085 0.183,0.7 0.1,-0.385 0.1,-1.015 0,-1.4 -0.101,-0.385 -0.183,-0.07 -0.183,0.7 m -17.315,1.5 -1.378,1.5 1.5,-1.378 c 0.825,-0.759 1.5,-1.434 1.5,-1.5 0,-0.306 -0.338,-0.018 -1.622,1.378 M 184,200.2 c -0.972,0.99 -1.677,1.8 -1.567,1.8 0.11,0 0.995,-0.81 1.967,-1.8 0.972,-0.99 1.677,-1.8 1.567,-1.8 -0.11,0 -0.995,0.81 -1.967,1.8 m 34.893,6.2 c 0,0.77 0.082,1.085 0.183,0.7 0.1,-0.385 0.1,-1.015 0,-1.4 -0.101,-0.385 -0.183,-0.07 -0.183,0.7 M 86.307,219.09 c 0.719,0.089 1.799,0.087 2.4,-0.004 0.601,-0.091 0.013,-0.164 -1.307,-0.162 -1.32,0.002 -1.812,0.077 -1.093,0.166 M 27.67,281.1 c 8.289,0.06 21.969,0.06 30.4,0 8.432,-0.06 1.65,-0.11 -15.07,-0.11 -16.72,0 -23.618,0.049 -15.33,0.11 m 314,0 c 8.289,0.06 21.969,0.06 30.4,0 8.432,-0.06 1.65,-0.11 -15.07,-0.11 -16.72,0 -23.618,0.049 -15.33,0.11"
       stroke="none"
       fill="#d4d4d4"
       fill-rule="evenodd" />
    <path
       id="path7"
       d="m 236.7,68.682 c 0.495,0.096 1.305,0.096 1.8,0 0.495,-0.095 0.09,-0.173 -0.9,-0.173 -0.99,0 -1.395,0.078 -0.9,0.173 m 24.8,0 c 0.495,0.096 1.305,0.096 1.8,0 0.495,-0.095 0.09,-0.173 -0.9,-0.173 -0.99,0 -1.395,0.078 -0.9,0.173 m 42.687,75.818 -2.387,2.5 2.5,-2.387 c 1.375,-1.314 2.5,-2.439 2.5,-2.5 0,-0.296 -0.395,0.065 -2.613,2.387 m 9.399,9 -2.186,2.3 2.3,-2.186 c 1.265,-1.203 2.3,-2.238 2.3,-2.3 0,-0.297 -0.382,0.049 -2.414,2.186 M 85.712,168.695 c 1.052,0.082 2.672,0.081 3.6,-0.003 0.928,-0.084 0.068,-0.151 -1.912,-0.15 -1.98,0.001 -2.74,0.07 -1.688,0.153"
       stroke="none"
       fill="#cccccc"
       fill-rule="evenodd" />
    <path
       id="path8"
       d="m 106.3,37.9 c 51.535,0.056 135.865,0.056 187.4,0 51.535,-0.056 9.37,-0.102 -93.7,-0.102 -103.07,0 -145.235,0.046 -93.7,0.102 M 60.1,62.296 c 1.265,0.079 3.335,0.079 4.6,0 1.265,-0.08 0.23,-0.145 -2.3,-0.145 -2.53,0 -3.565,0.065 -2.3,0.145 m -11.9,3.939 -1.2,1.031 1.4,-0.903 c 1.796,-1.159 1.801,-1.163 1.367,-1.161 -0.202,0.001 -0.907,0.466 -1.567,1.033 M 44.778,69.1 43.4,70.6 44.9,69.222 c 0.825,-0.759 1.5,-1.434 1.5,-1.5 0,-0.306 -0.338,-0.018 -1.622,1.378 m 203.92,7.7 1.299,1.381 0.901,-0.976 0.902,-0.975 -0.907,0.753 c -0.898,0.746 -0.919,0.742 -2.2,-0.406 l -1.293,-1.159 1.298,1.382 m 91.248,4.616 c 0.74,0.321 1.46,0.578 1.6,0.57 0.52,-0.029 -1.77,-1.158 -2.346,-1.156 -0.33,0.001 0.006,0.264 0.746,0.586 M 87.751,87.6 c 0,2.53 0.065,3.565 0.145,2.3 0.079,-1.265 0.079,-3.335 0,-4.6 -0.08,-1.265 -0.145,-0.23 -0.145,2.3 m 145.579,6.9 c -1.713,1.78 -2.541,3.087 -2.514,3.974 0.008,0.289 0.287,-0.104 0.619,-0.874 0.333,-0.77 1.353,-2.165 2.268,-3.1 0.915,-0.935 1.574,-1.7 1.464,-1.7 -0.11,0 -0.937,0.765 -1.837,1.7 m 33.452,0.5 c 0.965,1.1 1.838,2.09 1.94,2.2 0.103,0.11 -0.003,-0.16 -0.235,-0.6 -0.232,-0.44 -1.105,-1.43 -1.94,-2.2 -1.444,-1.331 -1.432,-1.301 0.235,0.6 m 45.338,5 c 0,1.21 0.075,1.705 0.167,1.1 0.091,-0.605 0.091,-1.595 0,-2.2 -0.092,-0.605 -0.167,-0.11 -0.167,1.1 m -81.304,1.52 c -0.025,0.831 1.022,2.614 2.043,3.478 l 0.941,0.796 -0.878,-1 c -0.484,-0.55 -1.152,-1.628 -1.485,-2.397 -0.333,-0.768 -0.613,-1.163 -0.621,-0.877 m 36.61,2.78 c -0.864,1.105 -0.933,1.29 -0.263,0.704 0.802,-0.7 1.86,-2.204 1.551,-2.204 -0.063,0 -0.642,0.675 -1.288,1.5 m -186.648,0.8 -1.378,1.5 1.5,-1.378 c 1.396,-1.284 1.684,-1.622 1.378,-1.622 -0.066,0 -0.741,0.675 -1.5,1.5 m 87.322,32.776 c 0.385,0.1 1.015,0.1 1.4,0 0.385,-0.101 0.07,-0.183 -0.7,-0.183 -0.77,0 -1.085,0.082 -0.7,0.183 m -8,0.8 c 0.385,0.1 1.015,0.1 1.4,0 0.385,-0.101 0.07,-0.183 -0.7,-0.183 -0.77,0 -1.085,0.082 -0.7,0.183 m 16.8,0 c 0.385,0.1 1.015,0.1 1.4,0 0.385,-0.101 0.07,-0.183 -0.7,-0.183 -0.77,0 -1.085,0.082 -0.7,0.183 m 45.1,7.716 c 0.77,0.695 1.76,1.453 2.2,1.685 1.062,0.559 0.404,-0.041 -1.8,-1.642 l -1.8,-1.307 1.4,1.264 M 114.4,147.8 c -0.972,0.99 -1.677,1.8 -1.567,1.8 0.11,0 0.995,-0.81 1.967,-1.8 0.972,-0.99 1.677,-1.8 1.567,-1.8 -0.11,0 -0.995,0.81 -1.967,1.8 m 186.575,-0.5 -1.175,1.3 1.3,-1.175 c 0.715,-0.646 1.3,-1.231 1.3,-1.3 0,-0.309 -0.33,-0.037 -1.425,1.175 m 17.229,1.496 c -0.63,0.658 -1.069,1.26 -0.975,1.338 0.094,0.078 0.684,-0.46 1.31,-1.196 1.415,-1.661 1.206,-1.75 -0.335,-0.142 M 205.6,151.185 c 0.55,0.461 1.36,1.025 1.8,1.253 0.546,0.284 0.482,0.149 -0.2,-0.423 -0.55,-0.461 -1.36,-1.025 -1.8,-1.253 -0.546,-0.284 -0.482,-0.149 0.2,0.423 m 107.544,3.022 c -1.461,1.426 -2.536,2.593 -2.389,2.593 0.148,0 1.428,-1.17 2.845,-2.6 1.417,-1.43 2.492,-2.597 2.388,-2.593 -0.103,0.004 -1.383,1.174 -2.844,2.6 m -104.2,-0.698 c 0.316,0.512 2.656,2.244 2.656,1.966 0,-0.099 -0.661,-0.684 -1.468,-1.3 -0.808,-0.616 -1.343,-0.916 -1.188,-0.666 m -107.71,7.844 -0.965,1.247 1.144,-1.088 c 0.63,-0.598 1.064,-1.159 0.966,-1.247 -0.099,-0.088 -0.614,0.402 -1.145,1.088 m 16.953,1.547 -2.387,2.5 2.5,-2.387 c 2.322,-2.218 2.683,-2.613 2.387,-2.613 -0.061,0 -1.186,1.125 -2.5,2.5 M 252,161.205 c 0.33,0.211 1.125,0.386 1.767,0.389 1.547,0.008 1.21,-0.223 -0.767,-0.526 -1.09,-0.167 -1.409,-0.123 -1,0.137 m 18.5,0.271 c 0.385,0.1 1.015,0.1 1.4,0 0.385,-0.101 0.07,-0.183 -0.7,-0.183 -0.77,0 -1.085,0.082 -0.7,0.183 m -5.2,0.4 c 0.385,0.1 1.015,0.1 1.4,0 0.385,-0.101 0.07,-0.183 -0.7,-0.183 -0.77,0 -1.085,0.082 -0.7,0.183 m -3.6,0.4 c 0.385,0.1 1.015,0.1 1.4,0 0.385,-0.101 0.07,-0.183 -0.7,-0.183 -0.77,0 -1.085,0.082 -0.7,0.183 m -80.435,15.941 c -0.256,0.561 -0.458,1.237 -0.449,1.502 0.008,0.264 0.281,-0.131 0.606,-0.88 0.683,-1.574 0.539,-2.149 -0.157,-0.622 m 0.335,6.708 c 0,0.069 0.585,0.654 1.3,1.3 l 1.3,1.175 -1.175,-1.3 c -1.095,-1.212 -1.425,-1.484 -1.425,-1.175 M 62.151,193.6 c 0,2.53 0.065,3.565 0.145,2.3 0.079,-1.265 0.079,-3.335 0,-4.6 -0.08,-1.265 -0.145,-0.23 -0.145,2.3 m 156.564,14.61 c -0.123,0.435 -0.346,1.15 -0.495,1.59 -0.149,0.44 0.022,0.294 0.38,-0.324 0.358,-0.618 0.581,-1.334 0.495,-1.59 -0.085,-0.256 -0.256,-0.11 -0.38,0.324 m 97.38,8.813 c -0.492,0.751 -0.895,1.5 -0.895,1.664 0,0.164 0.466,-0.387 1.036,-1.225 0.569,-0.838 0.972,-1.587 0.895,-1.664 -0.077,-0.078 -0.543,0.474 -1.036,1.225 M 91.2,218.8 l -1.8,0.28 1.676,0.06 c 0.922,0.033 1.788,-0.12 1.924,-0.34 0.136,-0.22 0.192,-0.373 0.124,-0.34 -0.068,0.033 -0.934,0.186 -1.924,0.34 m -8.095,0.283 c 0.497,0.096 1.217,0.092 1.6,-0.008 0.382,-0.1 -0.025,-0.179 -0.905,-0.174 -0.88,0.004 -1.193,0.086 -0.695,0.182 m 230.474,2.772 c -0.221,0.581 -0.327,1.13 -0.236,1.221 0.09,0.091 0.356,-0.384 0.59,-1.056 0.52,-1.492 0.206,-1.638 -0.354,-0.165 M 152.6,225.2 c 1.101,0.473 1.492,0.473 1.2,0 -0.136,-0.22 -0.642,-0.387 -1.124,-0.372 -0.845,0.027 -0.847,0.041 -0.076,0.372 m 93.6,0 c -0.292,0.473 0.099,0.473 1.2,0 0.771,-0.331 0.769,-0.345 -0.076,-0.372 -0.482,-0.015 -0.988,0.152 -1.124,0.372 m 65.951,6 c 0,2.53 0.065,3.565 0.145,2.3 0.079,-1.265 0.079,-3.335 0,-4.6 -0.08,-1.265 -0.145,-0.23 -0.145,2.3 M 117.6,231.6 c -0.99,0.658 -1.661,1.197 -1.491,1.198 0.348,0.002 3.491,-2.024 3.491,-2.251 0,-0.255 -0.158,-0.172 -2,1.053 m 162.8,-1.099 c 0,0.254 3.096,2.299 3.48,2.299 0.164,0 -0.057,-0.242 -0.491,-0.539 -1.908,-1.302 -2.989,-1.939 -2.989,-1.76 m -168.225,5.599 -1.175,1.3 1.3,-1.175 c 1.212,-1.095 1.484,-1.425 1.175,-1.425 -0.069,0 -0.654,0.585 -1.3,1.3 m 175.425,0.1 c 0.746,0.77 1.447,1.4 1.557,1.4 0.11,0 -0.411,-0.63 -1.157,-1.4 -0.746,-0.77 -1.447,-1.4 -1.557,-1.4 -0.11,0 0.411,0.63 1.157,1.4 M 184,236.8 c 0.55,0.176 1.36,0.32 1.8,0.32 0.633,0 0.592,-0.066 -0.2,-0.32 -0.55,-0.176 -1.36,-0.32 -1.8,-0.32 -0.633,0 -0.592,0.066 0.2,0.32 m 30.4,0 c -0.792,0.254 -0.833,0.32 -0.2,0.32 0.44,0 1.25,-0.144 1.8,-0.32 0.792,-0.254 0.833,-0.32 0.2,-0.32 -0.44,0 -1.25,0.144 -1.8,0.32 m 98.418,1.254 c -0.01,0.36 0.245,1.26 0.566,2 0.756,1.74 0.774,1.019 0.028,-1.054 -0.317,-0.88 -0.585,-1.306 -0.594,-0.946"
       stroke="none"
       fill="#dcdcdc"
       fill-rule="evenodd" />
  </g>
</svg>
