<?xml version="1.0" encoding="UTF-8" standalone="no"?>
<!-- Created with Inkscape (http://www.inkscape.org/) -->

<svg
   width="100"
   height="100"
   viewBox="0 0 100 100"
   version="1.1"
   id="svg1"
   xml:space="preserve"
   xmlns="http://www.w3.org/2000/svg"
   xmlns:svg="http://www.w3.org/2000/svg"><defs
     id="defs1" /><g
     id="layer1"><g
       id="g1"
       transform="scale(0.1953125)"><path
         d="M 0,0 H 512 V 512 H 0 Z"
         id="path1" /><path
         fill="#ffffff"
         d="m 362.04,24.316 c -2.088,-0.539 -21.367,27.005 -31.786,37.743 -18.375,-8.277 -53.592,-26.532 -55.125,-24.83 -0.81,0.898 18.213,31.305 33.101,67.056 l -51.14,12.516 -76.363,-45.524 -43.457,50.37 C 110.304,88.443 80.626,62.077 79.445,62.66 77.512,63.614 80.885,97.065 80,112 c -19.324,5.723 -57.92,14.878 -57.97,17.168 -0.03,1.327 41.264,14.007 78.988,34.498 l -51.448,59.63 22.842,183.494 146.623,-39.393 31.186,26.225 c -38.113,12.327 -72.757,18.286 -72.897,19.549 -0.284,2.565 41.45,18.552 62.176,27.828 -1.242,16.811 -10.003,53.664 -7.986,55.018 1.225,0.823 37.984,-23.97 72.918,-56.807 L 369.59,494 h 27.97 l -80.203,-67.443 c 16.528,-16.86 31.523,-35.104 40.63,-52.715 3.89,2.79 10.874,17.491 13.472,17.094 3.808,-0.583 22.59,-82.933 19.467,-85.311 -4.446,-3.385 -82.083,28.252 -81.826,30.072 0.24,1.708 16.603,9.065 24.117,14.496 -14.937,15.194 -38.718,27.208 -63.248,36.514 l -46.535,-39.13 -135.715,36.46 -19.3,-155.033 48.397,-56.094 c 14.117,8.936 26.693,19.002 34.948,29.998 -7.25,3.895 -22.51,8.44 -22.922,9.914 -0.44,1.571 64.138,38.535 68.447,36.08 3.027,-1.724 -3.81,-76.379 -7.092,-77.34 -2.239,-0.655 -10.11,11.457 -13.861,13.454 -5.667,-15.806 -15.983,-32.75 -27.824,-48.844 l 35.974,-41.697 69.721,41.564 60.56,-14.82 c 6.94,19.615 11.658,39.68 10.522,56.552 -8.034,-1.78 -22.563,-8.296 -23.838,-7.449 -1.359,0.903 23.44,71.06 28.307,72.012 3.419,0.67 46.966,-60.353 45.107,-63.223 -1.268,-1.958 -15.138,2.08 -19.283,1.145 7.708,-20.06 10.876,-46.496 11.711,-71.893 L 420.213,95.413 494,148.495 V 126.321 L 423.99,75.956 367.518,89.776 C 367.239,54.123 363.142,24.6 362.039,24.316 Z"
         id="path2" /></g></g></svg>
