<?xml version="1.0" encoding="UTF-8" standalone="no"?>
<svg
   id="svg"
   version="1.1"
   width="75.196785"
   height="100"
   viewBox="0 0 75.196785 100"
   xmlns="http://www.w3.org/2000/svg"
   xmlns:svg="http://www.w3.org/2000/svg">
  <defs
     id="defs1" />
  <g
     id="svgg"
     transform="matrix(0.2499893,0,0,0.2499893,-12.399469,-0.0053028)">
    <path
       id="path0"
       d="m 80.418,207.1 c -1.35,1.705 -2.68,3.374 -2.954,3.709 -0.275,0.335 -1.11,1.505 -1.856,2.6 -0.745,1.095 -1.472,2.081 -1.614,2.191 -1.218,0.942 -7.703,11.676 -10.003,16.559 -10.973,23.289 17.332,42.881 35.312,24.441 6.467,-6.633 7.435,-15.02 2.875,-24.92 -1.886,-4.095 -7.461,-13.302 -8.243,-13.613 -0.184,-0.074 -0.335,-0.374 -0.335,-0.667 0,-0.293 -0.145,-0.593 -0.323,-0.667 -0.178,-0.073 -0.931,-1.033 -1.674,-2.133 -0.743,-1.1 -1.453,-2.09 -1.578,-2.2 -0.125,-0.11 -1.035,-1.28 -2.022,-2.6 -5.097,-6.817 -4.496,-6.603 -7.585,-2.7 m 131.677,30.6 0.105,15.3 65.3,0.101 65.3,0.101 V 237.801 222.4 H 277.395 211.99 l 0.105,15.3 m -77.295,0.1 v 15 h 35.2 35.2 v -15 -15 H 170 134.8 v 15 m -63.162,1.027 c 0.639,0.455 1.162,1.167 1.162,1.581 0,0.722 0.256,1.469 1.454,4.247 1.078,2.501 5.436,5.726 7.757,5.741 2.76,0.018 3.622,4.45 1.224,6.291 -1.037,0.796 -4.805,0.276 -5.894,-0.813 -0.151,-0.151 -0.531,-0.274 -0.844,-0.274 -2.217,0 -7.476,-5.472 -9.134,-9.505 -2.344,-5.7 0.26,-10.127 4.275,-7.268 M 294.8,303 v 15.4 h 24 24 V 303 287.6 h -24 -24 V 303 m -47.6,65.6 V 384 h 34.14 c 23.21,0 34.534,0.137 35.368,0.428 1.208,0.421 2.492,2.344 2.492,3.732 0,0.555 0.713,0.64 5.337,0.64 h 5.336 l 0.485,-1.619 c 0.79,-2.636 2.108,-3.178 7.742,-3.18 L 342.8,384 V 368.6 353.2 H 295 247.2 v 15.4 M 64.137,357.019 c -4.251,1.862 -3.99,8.028 0.422,9.98 4.364,1.93 4.515,5.444 0.306,7.128 -6.153,2.462 -4.085,11.558 2.38,10.465 1.847,-0.312 3.811,-2.024 4.165,-3.631 0.927,-4.214 1.612,-4.561 9.002,-4.561 h 5.652 l -0.332,-1.3 c -0.362,-1.418 -0.442,-6.98 -0.128,-8.9 L 85.8,365 79.76,364.8 c -6.897,-0.228 -7.07,-0.301 -7.977,-3.352 -1.244,-4.185 -4.242,-5.921 -7.646,-4.429"
       stroke="none"
       fill="#c0c4dd"
       fill-rule="evenodd" />
    <path
       id="path1"
       d="m 203.69,9.512 c -0.218,0.598 -1.03,3.068 -1.804,5.488 -2.263,7.079 -6.394,16.461 -9.509,21.6 -0.667,1.1 -1.315,2.315 -1.441,2.7 -0.126,0.385 -0.388,0.7 -0.583,0.7 -0.194,0 -0.353,0.186 -0.353,0.413 0,0.602 -5.105,8.116 -8.026,11.811 -6.888,8.717 -8.871,9.546 -11.958,5 -1.78,-2.622 -4.488,-5.021 -7.416,-6.571 l -2,-1.058 -0.309,1.302 c -0.171,0.717 -0.475,2.203 -0.678,3.303 -0.584,3.173 -0.851,4.343 -1.188,5.2 -0.173,0.44 -0.531,1.52 -0.796,2.4 -0.265,0.88 -0.632,1.96 -0.815,2.4 -1.883,4.528 -4.156,9.268 -5.659,11.8 -0.587,0.99 -2.039,3.42 -3.226,5.4 -3.484,5.813 -4.611,8.418 -6.763,15.628 -0.201,0.676 -0.366,3.614 -0.366,6.529 0,5.751 0.133,6.146 2.213,6.567 1.153,0.233 3.191,0.676 6.687,1.454 0.935,0.208 2.51,0.578 3.5,0.822 0.99,0.244 2.52,0.604 3.4,0.8 0.88,0.196 2.32,0.528 3.2,0.738 0.88,0.21 2.59,0.597 3.8,0.861 1.21,0.264 2.92,0.638 3.8,0.831 0.88,0.193 4.66,1.06 8.4,1.926 7.804,1.807 7.28,1.877 6.618,-0.882 -1.714,-7.143 0.774,-16.461 7.175,-26.879 0.945,-1.537 2.086,-3.47 2.537,-4.295 0.45,-0.825 0.965,-1.5 1.144,-1.5 0.179,0 0.326,-0.255 0.326,-0.567 0,-0.311 0.147,-0.626 0.328,-0.7 0.18,-0.073 1.111,-1.303 2.069,-2.733 10.087,-15.064 11.146,-15.522 18.003,-7.786 2.09,2.358 3.986,4.49 4.213,4.737 0.227,0.247 1.849,2.249 3.605,4.449 11.207,14.037 15.168,21.843 15.176,29.9 0.004,4.658 0.097,4.817 2.287,3.926 0.896,-0.364 4.904,-1.586 8.119,-2.475 0.88,-0.243 1.96,-0.581 2.4,-0.751 0.44,-0.17 1.61,-0.53 2.6,-0.8 0.99,-0.27 2.16,-0.63 2.6,-0.8 0.44,-0.17 1.61,-0.534 2.6,-0.808 3.289,-0.913 4.592,-1.3 5.4,-1.602 0.44,-0.164 1.61,-0.52 2.6,-0.79 0.99,-0.27 2.16,-0.632 2.6,-0.805 0.44,-0.173 2.15,-0.704 3.8,-1.182 5.646,-1.633 5.318,-1.349 5.048,-4.379 -0.365,-4.092 -0.7,-6.019 -1.09,-6.26 -0.197,-0.122 -0.358,-0.65 -0.358,-1.174 0,-0.524 -0.18,-1.064 -0.4,-1.2 -0.22,-0.136 -0.4,-0.576 -0.4,-0.978 0,-0.916 -2.991,-6.712 -5.851,-11.337 -1.195,-1.934 -3.053,-5.264 -4.129,-7.4 -2.046,-4.064 -2.681,-5.484 -4.374,-9.785 C 259.383,60.001 257.6,52.538 257.6,50.789 v -1.201 l -2.443,1.234 c -2.296,1.159 -4.831,3.434 -8.445,7.58 -1.353,1.553 -1.615,1.686 -2.904,1.477 -2.171,-0.352 -2.381,-0.701 -3.847,-6.379 -0.241,-0.935 -0.601,-2.013 -0.8,-2.395 -0.199,-0.382 -0.361,-0.969 -0.361,-1.305 0,-0.336 -0.169,-0.923 -0.376,-1.305 -0.207,-0.382 -0.702,-1.503 -1.1,-2.492 -1.967,-4.883 -4.262,-8.997 -8.824,-15.816 -1.518,-2.27 -1.598,-3.045 -0.475,-4.622 1.462,-2.053 -3.773,-8.746 -5.801,-7.417 -1.997,1.308 -3.572,0.882 -6.938,-1.88 -4.262,-3.496 -7.157,-5.609 -9.342,-6.818 l -1.857,-1.027 -0.397,1.089 m -33.195,359.186 0.105,15.502 34,0.11 c 18.7,0.061 34.407,0.012 34.905,-0.109 l 0.904,-0.219 -0.104,-15.291 -0.105,-15.291 -34.905,-0.102 -34.904,-0.102 0.104,15.502"
       stroke="none"
       fill="#d3d64b"
       fill-rule="evenodd" />
    <path
       id="path2"
       d="m 198.8,0.559 c 0,0.353 -0.18,0.641 -0.4,0.641 -0.22,0 -0.4,0.54 -0.4,1.2 0,0.66 -0.16,1.2 -0.356,1.2 -0.196,0 -0.466,0.63 -0.6,1.4 -0.134,0.77 -0.354,2.03 -0.488,2.8 -0.134,0.77 -0.404,1.4 -0.6,1.4 -0.196,0 -0.356,0.439 -0.356,0.976 0,0.537 -0.18,1.088 -0.4,1.224 -0.22,0.136 -0.4,0.676 -0.4,1.2 0,0.524 -0.18,1.064 -0.4,1.2 -0.22,0.136 -0.4,0.599 -0.4,1.029 0,0.749 -0.134,1.112 -1.11,3.022 -0.239,0.468 -0.558,1.503 -0.707,2.3 -0.15,0.797 -0.432,1.449 -0.628,1.449 -0.195,0 -0.355,0.54 -0.355,1.2 0,0.66 -0.146,1.2 -0.325,1.2 -0.179,0 -0.573,0.63 -0.875,1.4 -0.302,0.77 -0.696,1.4 -0.875,1.4 -0.179,0 -0.325,0.36 -0.325,0.8 0,0.44 -0.18,0.8 -0.4,0.8 -0.22,0 -0.4,0.36 -0.4,0.8 0,0.44 -0.18,0.8 -0.4,0.8 -0.22,0 -0.4,0.278 -0.4,0.617 0,0.339 -0.36,1.003 -0.8,1.475 -0.44,0.472 -0.8,1.095 -0.8,1.383 0,0.289 -0.18,0.525 -0.4,0.525 -0.22,0 -0.4,0.36 -0.4,0.8 0,0.44 -0.18,0.8 -0.4,0.8 -0.22,0 -0.4,0.236 -0.4,0.525 0,0.288 -0.36,0.911 -0.8,1.383 -0.44,0.472 -0.8,1.096 -0.8,1.387 0,0.291 -0.36,0.788 -0.8,1.105 -0.44,0.317 -0.8,0.897 -0.8,1.288 0,0.392 -0.157,0.712 -0.348,0.712 -0.192,0 -1.573,1.665 -3.069,3.7 -3.431,4.666 -3.192,4.554 -5.281,2.465 -0.971,-0.971 -1.938,-1.765 -2.15,-1.765 -0.212,0 -0.772,-0.36 -1.244,-0.8 -0.472,-0.44 -1.095,-0.8 -1.383,-0.8 -0.289,0 -0.525,-0.18 -0.525,-0.4 0,-0.22 -0.36,-0.4 -0.8,-0.4 -0.44,0 -0.8,-0.18 -0.8,-0.4 0,-0.22 -0.249,-0.4 -0.554,-0.4 -0.305,0 -1.07,-0.269 -1.7,-0.598 -0.63,-0.328 -1.54,-0.598 -2.022,-0.6 -0.482,-0.001 -0.988,-0.182 -1.124,-0.402 -0.136,-0.22 -1.341,-0.4 -2.677,-0.4 -3.86,0 -4.322,0.781 -4.323,7.3 0,3.133 -0.154,5.1 -0.4,5.1 -0.22,0 -0.4,0.72 -0.4,1.6 0,0.88 -0.18,1.6 -0.4,1.6 -0.22,0 -0.4,0.54 -0.4,1.2 0,0.66 -0.18,1.2 -0.4,1.2 -0.22,0 -0.4,0.439 -0.4,0.976 0,0.537 -0.18,1.088 -0.4,1.224 -0.22,0.136 -0.4,0.687 -0.4,1.224 0,0.537 -0.18,0.976 -0.4,0.976 -0.22,0 -0.4,0.36 -0.4,0.8 0,0.44 -0.18,0.8 -0.4,0.8 -0.22,0 -0.4,0.36 -0.4,0.8 0,0.44 -0.18,0.8 -0.4,0.8 -0.22,0 -0.4,0.36 -0.4,0.8 0,0.44 -0.18,0.8 -0.4,0.8 -0.22,0 -0.4,0.36 -0.4,0.8 0,0.44 -0.18,0.8 -0.4,0.8 -0.22,0 -0.4,0.36 -0.4,0.8 0,0.44 -0.18,0.8 -0.4,0.8 -0.22,0 -0.4,0.36 -0.4,0.8 0,0.44 -0.15,0.8 -0.332,0.8 -0.183,0 -0.588,0.495 -0.9,1.1 -0.313,0.605 -0.793,1.338 -1.068,1.629 -0.275,0.29 -0.5,0.785 -0.5,1.1 0,0.314 -0.18,0.571 -0.4,0.571 -0.22,0 -0.4,0.36 -0.4,0.8 0,0.44 -0.18,0.8 -0.4,0.8 -0.22,0 -0.4,0.236 -0.4,0.525 0,0.288 -0.36,0.911 -0.8,1.383 -0.44,0.472 -0.8,1.136 -0.8,1.475 0,0.339 -0.18,0.617 -0.4,0.617 -0.22,0 -0.4,0.349 -0.4,0.776 0,0.427 -0.18,0.888 -0.4,1.024 -0.22,0.136 -0.4,0.687 -0.4,1.224 0,0.537 -0.18,0.976 -0.4,0.976 -0.22,0 -0.4,0.36 -0.4,0.8 0,0.44 -0.18,0.8 -0.4,0.8 -0.22,0 -0.4,0.54 -0.4,1.2 0,0.66 -0.18,1.2 -0.4,1.2 -0.22,0 -0.4,0.619 -0.4,1.376 0,0.757 -0.18,1.488 -0.4,1.624 -0.22,0.136 -0.4,1.126 -0.4,2.2 0,1.074 -0.18,2.064 -0.4,2.2 -0.227,0.14 -0.4,2.137 -0.4,4.624 0,2.651 -0.158,4.376 -0.4,4.376 -0.22,0 -0.4,-0.18 -0.4,-0.4 0,-0.22 -0.72,-0.4 -1.6,-0.4 -0.88,0 -1.6,-0.18 -1.6,-0.4 0,-0.22 -0.9,-0.4 -2,-0.4 -1.1,0 -2,-0.18 -2,-0.4 0,-0.22 -0.63,-0.4 -1.4,-0.4 -0.77,0 -1.4,-0.18 -1.4,-0.4 0,-0.22 -0.709,-0.4 -1.576,-0.4 -0.867,0 -1.688,-0.18 -1.824,-0.4 -0.136,-0.22 -1.047,-0.4 -2.024,-0.4 -0.977,0 -1.776,-0.18 -1.776,-0.4 0,-0.22 -0.72,-0.4 -1.6,-0.4 -0.88,0 -1.6,-0.18 -1.6,-0.4 0,-0.22 -0.709,-0.4 -1.576,-0.4 -0.867,0 -1.688,-0.18 -1.824,-0.4 -0.136,-0.22 -0.957,-0.4 -1.824,-0.4 -0.867,0 -1.576,-0.18 -1.576,-0.4 0,-0.235 -1.379,-0.4 -3.338,-0.4 -3.599,0 -4.662,0.526 -4.662,2.308 0,0.465 -0.161,0.944 -0.358,1.066 -0.197,0.121 -0.46,0.897 -0.584,1.723 -0.53,3.51 -0.766,4.523 -1.102,4.73 -0.196,0.121 -0.356,0.93 -0.356,1.797 0,0.867 -0.18,1.576 -0.4,1.576 -0.22,0 -0.4,0.709 -0.4,1.576 0,0.867 -0.18,1.688 -0.4,1.824 -0.22,0.136 -0.4,0.856 -0.4,1.6 0,0.744 -0.18,1.464 -0.4,1.6 -0.495,0.306 -0.535,6.069 -0.044,6.373 0.195,0.121 0.465,0.851 0.6,1.623 0.134,0.772 0.354,2.034 0.488,2.804 0.134,0.77 0.404,1.4 0.6,1.4 0.196,0 0.356,0.619 0.356,1.376 0,0.757 0.18,1.488 0.4,1.624 0.22,0.136 0.4,0.676 0.4,1.2 0,0.524 0.18,1.064 0.4,1.2 0.22,0.136 0.4,0.732 0.4,1.324 10e-4,1.24 1.583,3.276 2.547,3.276 0.359,0 0.653,0.18 0.653,0.4 0,0.22 0.72,0.4 1.6,0.4 0.88,0 1.6,0.18 1.6,0.4 0,0.22 0.72,0.4 1.6,0.4 0.88,0 1.6,0.18 1.6,0.4 0,0.22 0.72,0.4 1.6,0.4 0.88,0 1.6,0.18 1.6,0.4 0,0.22 0.63,0.4 1.4,0.4 0.77,0 1.4,0.18 1.4,0.4 0,0.22 0.72,0.4 1.6,0.4 0.88,0 1.6,0.18 1.6,0.4 0,0.22 0.72,0.4 1.6,0.4 0.88,0 1.6,0.18 1.6,0.4 0,0.22 0.72,0.4 1.6,0.4 0.88,0 1.6,0.18 1.6,0.4 0,0.22 0.72,0.4 1.6,0.4 0.88,0 1.6,0.18 1.6,0.4 0,0.22 -0.54,0.4 -1.2,0.4 -0.66,0 -1.2,0.18 -1.2,0.4 0,0.22 -0.54,0.4 -1.2,0.4 -0.66,0 -1.2,0.18 -1.2,0.4 0,0.22 -0.619,0.4 -1.376,0.4 -0.757,0 -1.488,0.18 -1.624,0.4 -0.136,0.22 -0.777,0.4 -1.424,0.4 -0.647,0 -1.176,0.18 -1.176,0.4 0,0.22 -0.54,0.4 -1.2,0.4 -0.66,0 -1.2,0.18 -1.2,0.4 0,0.22 -0.63,0.4 -1.4,0.4 -0.77,0 -1.4,0.18 -1.4,0.4 0,0.22 -0.54,0.4 -1.2,0.4 -0.66,0 -1.2,0.18 -1.2,0.4 0,0.22 -0.54,0.4 -1.2,0.4 -0.66,0 -1.2,0.18 -1.2,0.4 0,0.22 -0.63,0.4 -1.4,0.4 -0.77,0 -1.4,0.18 -1.4,0.4 0,0.22 -0.63,0.4 -1.4,0.4 -0.77,0 -1.4,0.18 -1.4,0.4 0,0.22 -0.54,0.4 -1.2,0.4 -0.66,0 -1.2,0.18 -1.2,0.4 0,0.22 -0.329,0.4 -0.73,0.4 -1.926,0 -2.568,1.645 -2.293,5.868 0.142,2.163 0.41,6.452 0.596,9.532 0.426,7.021 0.671,8.133 2.086,9.455 0.628,0.586 1.141,1.237 1.141,1.446 0,0.209 0.54,0.945 1.2,1.636 0.66,0.691 1.2,1.411 1.2,1.6 0,0.189 0.54,0.909 1.2,1.6 0.66,0.691 1.2,1.347 1.2,1.459 0,0.112 0.72,0.945 1.6,1.852 0.88,0.907 1.6,1.811 1.6,2.011 0,1.54 3.649,3.941 5.989,3.941 1.341,0 2.411,-0.178 2.411,-0.4 0,-0.22 0.54,-0.4 1.2,-0.4 0.66,0 1.2,-0.18 1.2,-0.4 0,-0.22 0.54,-0.4 1.2,-0.4 0.66,0 1.2,-0.18 1.2,-0.4 0,-0.22 0.54,-0.4 1.2,-0.4 0.66,0 1.2,-0.18 1.2,-0.4 0,-0.22 0.63,-0.4 1.4,-0.4 0.77,0 1.4,-0.18 1.4,-0.4 0,-0.22 0.54,-0.4 1.2,-0.4 0.66,0 1.2,-0.18 1.2,-0.4 0,-0.22 0.54,-0.4 1.2,-0.4 0.66,0 1.2,-0.18 1.2,-0.4 0,-0.22 0.54,-0.4 1.2,-0.4 0.66,0 1.2,-0.18 1.2,-0.4 0,-0.22 0.452,-0.4 1.005,-0.4 0.553,0 1.318,-0.161 1.7,-0.358 0.612,-0.315 1.651,-0.567 6.195,-1.506 0.605,-0.125 1.1,-0.386 1.1,-0.581 0,-0.195 0.54,-0.355 1.2,-0.355 0.66,0 1.2,-0.18 1.2,-0.4 0,-0.22 0.392,-0.4 0.872,-0.4 0.92,0 3.256,-0.66 4.423,-1.249 0.382,-0.193 1.147,-0.351 1.7,-0.351 0.553,0 1.005,-0.18 1.005,-0.4 0,-0.22 0.54,-0.4 1.2,-0.4 0.66,0 1.2,-0.18 1.2,-0.4 0,-0.22 0.54,-0.4 1.2,-0.4 0.66,0 1.2,-0.18 1.2,-0.4 0,-0.22 0.63,-0.4 1.4,-0.4 0.77,0 1.4,-0.18 1.4,-0.4 0,-0.22 0.54,-0.4 1.2,-0.4 0.66,0 1.2,-0.18 1.2,-0.4 0,-0.22 0.54,-0.4 1.2,-0.4 0.66,0 1.2,-0.18 1.2,-0.4 0,-0.22 0.54,-0.4 1.2,-0.4 0.66,0 1.2,-0.18 1.2,-0.4 0,-0.22 0.63,-0.4 1.4,-0.4 0.77,0 1.4,-0.18 1.4,-0.4 0,-0.22 0.529,-0.4 1.176,-0.4 0.647,0 1.288,-0.18 1.424,-0.4 0.136,-0.22 0.676,-0.4 1.2,-0.4 0.524,0 1.064,-0.18 1.2,-0.4 0.136,-0.22 0.687,-0.4 1.224,-0.4 0.537,0 0.976,-0.18 0.976,-0.4 0,-0.22 0.529,-0.4 1.176,-0.4 0.647,0 1.288,-0.18 1.424,-0.4 0.136,-0.22 0.867,-0.4 1.624,-0.4 0.757,0 1.376,-0.18 1.376,-0.4 0,-0.22 0.54,-0.4 1.2,-0.4 0.66,0 1.2,-0.18 1.2,-0.4 0,-0.22 0.54,-0.4 1.2,-0.4 0.66,0 1.2,-0.156 1.2,-0.347 0,-0.191 0.695,-0.441 1.545,-0.555 1.716,-0.23 7.068,-1.761 8.15,-2.332 0.382,-0.201 1.147,-0.366 1.7,-0.366 0.553,0 1.005,-0.18 1.005,-0.4 0,-0.22 0.54,-0.4 1.2,-0.4 0.66,0 1.2,-0.18 1.2,-0.4 0,-0.22 0.594,-0.4 1.32,-0.4 0.726,0 1.519,-0.199 1.762,-0.442 0.553,-0.553 4.904,-0.532 5.464,0.028 0.228,0.228 0.997,0.414 1.71,0.414 0.713,0 1.408,0.18 1.544,0.4 0.136,0.22 0.856,0.4 1.6,0.4 0.744,0 1.464,0.18 1.6,0.4 0.136,0.22 0.856,0.4 1.6,0.4 0.744,0 1.452,0.161 1.574,0.358 0.121,0.197 0.897,0.452 1.723,0.567 0.827,0.115 2.313,0.419 3.303,0.676 0.99,0.256 3.015,0.664 4.5,0.906 1.485,0.242 2.7,0.587 2.7,0.767 0,0.179 0.72,0.326 1.6,0.326 0.88,0 1.6,0.18 1.6,0.4 0,0.22 0.72,0.4 1.6,0.4 0.88,0 1.6,0.18 1.6,0.4 0,0.22 0.72,0.4 1.6,0.4 0.88,0 1.6,0.18 1.6,0.4 0,0.22 0.72,0.4 1.6,0.4 0.88,0 1.6,0.18 1.6,0.4 0,0.22 0.72,0.4 1.6,0.4 0.88,0 1.6,0.18 1.6,0.4 0,0.22 0.619,0.4 1.376,0.4 0.757,0 1.476,0.161 1.598,0.358 0.208,0.336 1.237,0.548 5.326,1.095 0.935,0.125 1.7,0.389 1.7,0.587 0,0.198 0.619,0.36 1.376,0.36 0.757,0 1.488,0.18 1.624,0.4 0.136,0.22 0.867,0.4 1.624,0.4 0.757,0 1.376,0.18 1.376,0.4 0,0.22 0.72,0.4 1.6,0.4 0.88,0 1.6,0.18 1.6,0.4 0,0.22 0.72,0.4 1.6,0.4 0.88,0 1.6,0.18 1.6,0.4 0,0.22 0.72,0.4 1.6,0.4 0.88,0 1.6,0.18 1.6,0.4 0,0.22 0.619,0.4 1.376,0.4 0.757,0 1.488,0.18 1.624,0.4 0.136,0.22 0.856,0.4 1.6,0.4 0.744,0 1.464,0.18 1.6,0.4 0.136,0.22 0.856,0.4 1.6,0.4 0.744,0 1.464,0.18 1.6,0.4 0.136,0.22 0.856,0.4 1.6,0.4 0.744,0 1.464,0.18 1.6,0.4 0.136,0.22 0.856,0.4 1.6,0.4 0.744,0 1.464,0.18 1.6,0.4 0.136,0.22 0.788,0.4 1.45,0.4 0.661,0 1.542,0.182 1.958,0.404 0.415,0.223 1.843,0.518 3.174,0.657 1.33,0.139 2.418,0.407 2.418,0.596 0,0.189 0.72,0.343 1.6,0.343 0.88,0 1.6,0.18 1.6,0.4 0,0.22 0.72,0.4 1.6,0.4 0.88,0 1.6,0.18 1.6,0.4 0,0.229 1.206,0.4 2.818,0.4 2.949,0 4.782,-0.99 4.782,-2.582 0,-0.34 0.18,-0.618 0.4,-0.618 0.22,0 0.4,-0.27 0.4,-0.6 0,-0.33 0.18,-0.6 0.4,-0.6 0.22,0 0.4,-0.278 0.4,-0.617 0,-0.339 0.36,-1.003 0.8,-1.475 0.44,-0.472 0.8,-1.095 0.8,-1.383 0,-0.289 0.18,-0.525 0.4,-0.525 0.22,0 0.4,-0.36 0.4,-0.8 0,-0.44 0.18,-0.8 0.4,-0.8 0.22,0 0.4,-0.236 0.4,-0.525 0,-0.288 0.36,-0.911 0.8,-1.383 0.44,-0.472 0.8,-1.136 0.8,-1.475 0,-0.339 0.18,-0.617 0.4,-0.617 0.22,0 0.4,-0.36 0.4,-0.8 0,-0.44 0.18,-0.8 0.4,-0.8 0.248,0 0.4,-2.192 0.4,-5.776 0,-3.42 -0.163,-5.878 -0.4,-6.024 -0.238,-0.147 -0.4,-2.671 -0.4,-6.224 0,-3.717 -0.151,-5.976 -0.4,-5.976 -0.22,0 -0.4,-0.823 -0.4,-1.829 0,-1.874 -0.645,-2.971 -1.748,-2.971 -0.333,0 -0.716,-0.18 -0.852,-0.4 -0.136,-0.22 -1.047,-0.4 -2.024,-0.4 -0.977,0 -1.776,-0.18 -1.776,-0.4 0,-0.22 -0.72,-0.4 -1.6,-0.4 -0.88,0 -1.6,-0.18 -1.6,-0.4 0,-0.22 -0.709,-0.4 -1.576,-0.4 -0.867,0 -1.688,-0.18 -1.824,-0.4 -0.136,-0.22 -0.957,-0.4 -1.824,-0.4 -0.867,0 -1.576,-0.18 -1.576,-0.4 0,-0.22 -0.709,-0.4 -1.576,-0.4 -0.867,0 -1.688,-0.18 -1.824,-0.4 -0.136,-0.22 -0.946,-0.4 -1.8,-0.4 -0.854,0 -1.664,-0.18 -1.8,-0.4 -0.136,-0.22 -0.97,-0.4 -1.853,-0.4 -2.225,0 -2.088,-1.338 0.156,-1.524 0.823,-0.068 1.497,-0.293 1.497,-0.5 0,-0.207 0.429,-0.376 0.954,-0.376 1.024,0 4.799,-1.04 5.941,-1.637 0.382,-0.2 1.136,-0.363 1.676,-0.363 0.54,0 1.093,-0.18 1.229,-0.4 0.136,-0.22 0.777,-0.4 1.424,-0.4 0.647,0 1.176,-0.18 1.176,-0.4 0,-0.22 0.471,-0.4 1.046,-0.4 1.093,0 3.754,-2.466 3.754,-3.478 0,-0.287 0.18,-0.522 0.4,-0.522 0.22,0 0.4,-0.278 0.4,-0.617 0,-0.339 0.36,-1.003 0.8,-1.475 0.44,-0.472 0.8,-1.095 0.8,-1.383 0,-0.289 0.18,-0.525 0.4,-0.525 0.22,0 0.4,-0.278 0.4,-0.617 0,-0.339 0.36,-1.003 0.8,-1.475 0.44,-0.472 0.8,-1.095 0.8,-1.383 0,-0.289 0.18,-0.525 0.4,-0.525 0.22,0 0.4,-0.278 0.4,-0.617 0,-0.339 0.36,-1.003 0.8,-1.475 0.44,-0.472 1.024,-1.364 1.297,-1.983 0.274,-0.619 0.634,-1.125 0.801,-1.125 0.166,0 0.302,-0.278 0.302,-0.617 0,-0.339 0.36,-1.003 0.8,-1.475 0.44,-0.472 0.8,-1.095 0.8,-1.383 0,-0.289 0.18,-0.525 0.4,-0.525 0.22,0 0.4,-0.979 0.4,-2.176 0,-1.197 -0.18,-2.288 -0.4,-2.424 -0.22,-0.136 -0.4,-0.687 -0.4,-1.224 0,-0.537 -0.147,-0.976 -0.328,-0.976 -0.18,0 -0.572,-0.9 -0.872,-2 -0.3,-1.1 -0.692,-2 -0.872,-2 -0.181,0 -0.328,-0.54 -0.328,-1.2 0,-0.66 -0.18,-1.2 -0.4,-1.2 -0.22,0 -0.4,-0.36 -0.4,-0.8 0,-0.44 -0.18,-0.8 -0.4,-0.8 -0.22,0 -0.4,-0.54 -0.4,-1.2 0,-0.66 -0.18,-1.2 -0.4,-1.2 -0.22,0 -0.4,-0.439 -0.4,-0.976 0,-0.537 -0.18,-1.088 -0.4,-1.224 -0.22,-0.136 -0.4,-0.597 -0.4,-1.024 0,-0.427 -0.18,-0.776 -0.4,-0.776 -0.22,0 -0.4,-0.283 -0.4,-0.629 0,-1.789 -3.563,-3.22 -5.505,-2.21 -0.382,0.199 -1.505,0.576 -2.495,0.839 -0.99,0.263 -2.113,0.64 -2.495,0.839 -0.382,0.199 -1.147,0.361 -1.7,0.361 -0.553,0 -1.005,0.18 -1.005,0.4 0,0.22 -0.54,0.4 -1.2,0.4 -0.66,0 -1.2,0.18 -1.2,0.4 0,0.22 -0.619,0.4 -1.376,0.4 -0.757,0 -1.488,0.18 -1.624,0.4 -0.136,0.22 -0.676,0.4 -1.2,0.4 -0.524,0 -1.064,0.18 -1.2,0.4 -0.136,0.22 -0.676,0.4 -1.2,0.4 -0.524,0 -1.064,0.18 -1.2,0.4 -0.136,0.22 -0.766,0.4 -1.4,0.4 -0.634,0 -1.264,0.18 -1.4,0.4 -0.136,0.22 -0.777,0.4 -1.424,0.4 -0.647,0 -1.176,0.18 -1.176,0.4 0,0.563 -2.14,0.5 -2.72,-0.08 -0.264,-0.264 -0.48,-1.524 -0.48,-2.8 0,-1.28 -0.179,-2.32 -0.4,-2.32 -0.22,0 -0.4,-0.63 -0.4,-1.4 0,-0.77 -0.18,-1.4 -0.4,-1.4 -0.22,0 -0.4,-0.54 -0.4,-1.2 0,-0.66 -0.18,-1.2 -0.4,-1.2 -0.22,0 -0.4,-0.54 -0.4,-1.2 0,-0.66 -0.18,-1.2 -0.4,-1.2 -0.22,0 -0.4,-0.36 -0.4,-0.8 0,-0.44 -0.18,-0.8 -0.4,-0.8 -0.22,0 -0.4,-0.234 -0.4,-0.52 0,-0.736 -0.941,-2.673 -1.3,-2.677 -0.165,-0.002 -0.3,-0.363 -0.3,-0.803 0,-0.44 -0.18,-0.8 -0.4,-0.8 -0.22,0 -0.4,-0.36 -0.4,-0.8 0,-0.44 -0.18,-0.8 -0.4,-0.8 -0.22,0 -0.4,-0.27 -0.4,-0.6 0,-0.33 -0.18,-0.6 -0.4,-0.6 -0.22,0 -0.4,-0.27 -0.4,-0.6 0,-0.33 -0.143,-0.6 -0.318,-0.6 -0.175,0 -0.652,-0.81 -1.06,-1.8 -0.409,-0.99 -0.895,-1.8 -1.082,-1.8 -0.187,0 -0.34,-0.345 -0.34,-0.767 0,-0.421 -0.137,-0.826 -0.304,-0.9 -0.408,-0.179 -3.703,-6.8 -3.699,-7.433 0.002,-0.275 -0.177,-0.5 -0.397,-0.5 -0.22,0 -0.4,-0.45 -0.4,-1 0,-0.55 -0.18,-1 -0.4,-1 -0.22,0 -0.4,-0.349 -0.4,-0.776 0,-0.427 -0.18,-0.888 -0.4,-1.024 -0.22,-0.136 -0.4,-0.687 -0.4,-1.224 0,-0.537 -0.18,-0.976 -0.4,-0.976 -0.22,0 -0.4,-0.72 -0.4,-1.6 0,-0.88 -0.18,-1.6 -0.4,-1.6 -0.222,0 -0.4,-1.059 -0.4,-2.376 0,-1.307 -0.18,-2.488 -0.4,-2.624 -0.22,-0.136 -0.4,-0.867 -0.4,-1.624 0,-0.757 0.18,-1.376 0.4,-1.376 1.003,0 0.266,-3.222 -1.071,-4.685 -0.537,-0.586 -5.154,-0.722 -5.5,-0.161 -0.121,0.194 -1.031,0.475 -2.024,0.624 -0.993,0.149 -1.805,0.44 -1.805,0.647 0,0.206 -0.234,0.375 -0.52,0.375 -0.736,0 -2.673,0.941 -2.677,1.3 -0.002,0.165 -0.323,0.3 -0.715,0.3 -0.391,0 -0.971,0.36 -1.288,0.8 -0.317,0.44 -0.857,0.8 -1.2,0.8 -0.343,0 -0.883,0.36 -1.2,0.8 -0.772,1.072 -1.2,1.009 -1.2,-0.176 0,-0.537 -0.18,-1.088 -0.4,-1.224 -0.22,-0.136 -0.4,-0.597 -0.4,-1.024 0,-0.427 -0.18,-0.776 -0.4,-0.776 -0.22,0 -0.4,-0.45 -0.4,-1 0,-0.55 -0.18,-1 -0.4,-1 -0.22,0 -0.4,-0.36 -0.4,-0.8 0,-0.44 -0.18,-0.8 -0.4,-0.8 -0.22,0 -0.4,-0.36 -0.4,-0.8 0,-0.44 -0.18,-0.8 -0.4,-0.8 -0.22,0 -0.4,-0.307 -0.4,-0.682 0,-0.857 -2.85,-6.518 -3.281,-6.518 -0.176,0 -0.319,-0.294 -0.319,-0.653 0,-0.359 -0.316,-0.944 -0.703,-1.3 -0.386,-0.356 -0.957,-1.142 -1.267,-1.747 -0.311,-0.605 -0.715,-1.1 -0.898,-1.1 -0.182,0 -0.332,-0.188 -0.332,-0.418 0,-2.61 -5.077,-3.272 -6.189,-0.807 -0.933,2.069 -0.723,2.725 2.334,7.298 3.642,5.447 7.301,13.052 9.01,18.727 0.497,1.65 1.07,3.553 1.274,4.228 0.204,0.676 0.371,1.454 0.371,1.729 0,1.711 3.754,2.325 4.812,0.787 2.795,-4.064 4.969,-6.132 8.502,-8.086 2.761,-1.526 2.89,-1.457 3.45,1.842 1.089,6.417 3.101,12.341 6.555,19.3 1.091,2.2 3.273,6.16 4.848,8.8 5.53,9.272 7.588,14.69 7.893,20.782 0.17,3.39 0.461,3.2 -8.86,5.806 -0.99,0.277 -2.16,0.639 -2.6,0.805 -0.892,0.337 -5.042,1.617 -7.8,2.407 -0.99,0.283 -2.61,0.781 -3.6,1.105 -0.99,0.325 -2.34,0.728 -3,0.897 -0.66,0.169 -4.222,1.228 -7.916,2.353 -8.397,2.557 -7.65,2.666 -7.362,-1.076 0.496,-6.434 -2.548,-14.375 -9.07,-23.661 -2.469,-3.515 -10.509,-13.443 -13.271,-16.386 -1.151,-1.228 -2.585,-2.823 -3.185,-3.546 -1.68,-2.024 -3.131,-2.646 -4.496,-1.928 -1.292,0.68 -1.21,0.584 -6.101,7.111 -11.621,15.508 -17.333,26.612 -17.867,34.731 -0.2,3.035 -0.041,4.571 0.928,8.959 l 0.256,1.158 -1.758,-0.245 c -0.967,-0.136 -2.478,-0.423 -3.358,-0.639 -1.691,-0.416 -4.669,-1.106 -7,-1.621 -0.77,-0.17 -5.9,-1.345 -11.4,-2.61 -5.5,-1.265 -10.63,-2.434 -11.4,-2.598 -4.553,-0.967 -7.473,-1.798 -7.993,-2.275 -0.793,-0.727 -0.852,-10.691 -0.08,-13.329 0.29,-0.99 0.707,-2.43 0.927,-3.2 0.849,-2.979 3.018,-7.383 6.448,-13.099 3.067,-5.109 6.543,-11.952 7.875,-15.501 0.496,-1.32 1.043,-2.76 1.216,-3.2 0.302,-0.766 0.869,-2.791 1.624,-5.8 0.193,-0.77 0.463,-2.446 0.599,-3.725 0.161,-1.511 0.456,-2.404 0.842,-2.553 1.648,-0.632 7.928,4.137 10.506,7.978 1.354,2.018 3.353,2.592 4.836,1.387 2.705,-2.196 11.585,-13.999 14.789,-19.656 0.446,-0.787 1.197,-2.106 1.669,-2.931 3.862,-6.756 7.655,-15.673 10.165,-23.9 1.44,-4.718 2.529,-5.291 4.977,-2.617 0.11,0.12 0.695,0.473 1.3,0.785 0.605,0.312 1.1,0.717 1.1,0.9 0,0.182 0.189,0.332 0.419,0.332 0.231,0 2.328,1.546 4.661,3.437 4.477,3.628 4.175,3.519 7.52,2.728 3.54,-0.838 1.883,-4.76 -3.577,-8.464 C 217.73,8.695 216.651,7.885 216.225,7.5 215.798,7.115 215.253,6.8 215.013,6.8 214.773,6.8 214.317,6.44 214,6 c -0.317,-0.44 -0.857,-0.8 -1.2,-0.8 -0.343,0 -0.883,-0.36 -1.2,-0.8 -0.317,-0.44 -0.831,-0.8 -1.141,-0.8 -0.311,0 -0.856,-0.316 -1.212,-0.703 C 208.891,2.511 208.06,1.926 207.4,1.598 206.74,1.27 206.072,0.821 205.915,0.601 205.383,-0.145 198.8,-0.184 198.8,0.559 M 210.461,77.7 c 15.412,17.377 21.539,28.415 20.159,36.317 -0.84,4.816 -0.114,4.262 -9.42,7.185 -1.21,0.38 -3.01,0.919 -4,1.198 -0.99,0.279 -2.79,0.819 -4,1.2 -5.937,1.87 -5.925,1.869 -10.2,0.827 -4.055,-0.989 -8.377,-1.988 -10.187,-2.355 -3.706,-0.752 -5.944,-10.228 -3.889,-16.472 1.121,-3.407 6.024,-13.199 6.776,-13.533 0.165,-0.074 0.3,-0.304 0.3,-0.512 0,-1.168 10.901,-16.355 11.74,-16.355 0.277,0 1.501,1.125 2.721,2.5 m 102.728,28.9 c 1.247,3.3 2.372,6.4 2.499,6.888 0.219,0.842 -1.663,4.3 -8.323,15.297 -1.739,2.87 -1.255,2.611 -9.765,5.224 -2.31,0.709 -5.19,1.603 -6.4,1.985 -1.21,0.382 -3.46,1.08 -5,1.551 -5.961,1.822 -10.663,3.279 -17.4,5.392 -3.85,1.207 -9.43,2.94 -12.4,3.851 -2.97,0.911 -5.85,1.811 -6.4,2.002 -0.55,0.19 -2.89,0.923 -5.2,1.627 -2.31,0.705 -5.19,1.595 -6.4,1.977 -1.21,0.382 -3.55,1.105 -5.2,1.606 -1.65,0.501 -3.99,1.231 -5.2,1.622 -1.21,0.391 -4.09,1.278 -6.4,1.97 -2.31,0.693 -4.65,1.421 -5.2,1.619 -0.55,0.197 -4.054,1.28 -7.787,2.406 -3.733,1.126 -8.053,2.458 -9.6,2.959 -1.547,0.501 -4.703,1.495 -7.013,2.207 -2.31,0.713 -5.19,1.613 -6.4,2.001 -1.21,0.388 -3.55,1.115 -5.2,1.616 -1.65,0.501 -3.99,1.231 -5.2,1.622 -1.21,0.391 -4.09,1.285 -6.4,1.986 -2.31,0.7 -5.82,1.78 -7.8,2.399 -5.904,1.846 -9.76,3.037 -14.2,4.385 -2.31,0.701 -5.19,1.595 -6.4,1.986 -1.21,0.391 -4.09,1.301 -6.4,2.022 -2.31,0.721 -5.19,1.621 -6.4,2 -1.21,0.379 -3.46,1.073 -5,1.543 -1.54,0.47 -4.489,1.395 -6.553,2.056 -4.886,1.564 -4.348,1.741 -7.565,-2.499 -1.544,-2.035 -3.798,-4.998 -5.008,-6.585 -2.45,-3.214 -2.199,-2.049 -2.886,-13.413 -0.271,-4.475 -0.745,-3.908 4.612,-5.514 1.65,-0.494 3.99,-1.212 5.2,-1.595 1.21,-0.382 3.55,-1.09 5.2,-1.571 1.65,-0.482 3.45,-1.034 4,-1.226 0.55,-0.193 5.68,-1.725 11.4,-3.406 5.72,-1.68 11.39,-3.385 12.6,-3.788 1.21,-0.403 3.55,-1.13 5.2,-1.616 1.65,-0.486 3.99,-1.198 5.2,-1.581 1.21,-0.384 3.01,-0.926 4,-1.205 0.99,-0.279 2.88,-0.847 4.2,-1.262 1.32,-0.416 2.94,-0.916 3.6,-1.113 1.43,-0.426 6.539,-1.972 16.6,-5.025 10.757,-3.264 14.873,-4.502 23.2,-6.978 1.65,-0.49 4.08,-1.24 5.4,-1.666 1.32,-0.425 2.94,-0.934 3.6,-1.131 5.058,-1.506 9.762,-2.931 10.6,-3.209 0.55,-0.183 2.26,-0.702 3.8,-1.153 1.54,-0.451 6.13,-1.83 10.2,-3.064 4.07,-1.234 9.2,-2.786 11.4,-3.448 5.448,-1.639 11.546,-3.506 14.2,-4.347 1.21,-0.383 3.01,-0.922 4,-1.197 0.99,-0.275 2.25,-0.647 2.8,-0.828 0.55,-0.18 2.89,-0.883 5.2,-1.563 2.31,-0.679 5.28,-1.58 6.6,-2.001 1.32,-0.421 4.2,-1.308 6.4,-1.969 7.163,-2.155 17.576,-5.325 18.6,-5.662 2.225,-0.733 2.39,-0.533 4.789,5.816 m -205.26,1.82 c 8.818,2.082 10.38,2.448 11.971,2.802 4.351,0.968 5.598,1.253 6.9,1.578 0.77,0.192 2.21,0.532 3.2,0.756 0.99,0.223 2.97,0.702 4.4,1.063 1.43,0.361 3.41,0.818 4.4,1.016 2.409,0.482 4.274,0.898 8.8,1.965 2.09,0.493 4.43,1.029 5.2,1.191 1.197,0.253 15.855,3.636 23.4,5.401 1.32,0.309 4.02,0.933 6,1.386 1.98,0.453 4.23,0.987 5,1.187 0.77,0.199 2.3,0.546 3.4,0.77 4.445,0.906 4.308,0.853 3.786,1.481 -0.266,0.321 -0.702,0.584 -0.969,0.584 -0.267,0 -1.55,0.341 -2.851,0.759 -1.301,0.417 -3.716,1.159 -5.366,1.648 -1.65,0.49 -3.99,1.205 -5.2,1.588 -1.21,0.384 -3.01,0.926 -4,1.205 -0.99,0.279 -2.79,0.818 -4,1.198 -1.21,0.38 -3.55,1.103 -5.2,1.606 -1.65,0.503 -3.81,1.18 -4.8,1.503 -0.99,0.323 -2.34,0.732 -3,0.907 -0.66,0.176 -2.37,0.68 -3.8,1.12 -16.274,5.005 -15.333,4.862 -21.542,3.277 -2.562,-0.653 -10.238,-2.558 -17.058,-4.233 -12.735,-3.126 -14.2,-3.639 -14.2,-4.968 0,-0.425 -0.161,-1.186 -0.358,-1.691 -0.197,-0.506 -0.578,-1.729 -0.847,-2.719 -0.268,-0.99 -0.626,-2.25 -0.795,-2.8 -1.445,-4.702 -1.486,-3.827 0.573,-12.113 1.051,-4.228 1.992,-7.822 2.092,-7.987 0.278,-0.458 1.092,-0.371 4.864,0.52 M 281.5,148.419 c 8.462,2.003 10.698,2.521 17.1,3.968 1.98,0.448 5.757,1.318 8.394,1.935 l 4.795,1.121 0.265,1.778 c 0.146,0.979 0.488,5.504 0.76,10.056 l 0.495,8.278 -3.207,5.522 c -3.465,5.966 -3.722,6.18 -6.481,5.394 -1.376,-0.392 -3.092,-0.839 -6.421,-1.671 -0.88,-0.22 -2.275,-0.575 -3.1,-0.79 -0.825,-0.214 -6,-1.487 -11.5,-2.828 -12.324,-3.004 -49.812,-12.245 -52,-12.817 -0.88,-0.231 -2.14,-0.565 -2.8,-0.743 -0.66,-0.178 -3.032,-0.748 -5.271,-1.267 -4.6,-1.065 -4.753,-1.457 -1.005,-2.574 1.252,-0.373 3.266,-0.993 4.476,-1.378 4.59,-1.46 7.349,-2.314 14.1,-4.361 1.375,-0.417 5.38,-1.659 8.9,-2.76 3.52,-1.101 8.29,-2.574 10.6,-3.275 2.31,-0.701 5.19,-1.594 6.4,-1.985 1.21,-0.391 3.46,-1.089 5,-1.55 1.54,-0.462 3.07,-0.927 3.4,-1.033 0.831,-0.269 3.213,0.06 7.1,0.98 M 81.8,194.663 c -0.951,0.231 -4.177,3.57 -5.914,6.121 -0.679,0.999 -1.562,2.107 -1.961,2.463 -0.399,0.356 -0.725,0.857 -0.725,1.113 0,0.257 -0.614,1.08 -1.364,1.831 -0.75,0.75 -1.689,1.914 -2.086,2.586 -0.397,0.673 -0.864,1.223 -1.036,1.223 -0.173,0 -0.314,0.23 -0.314,0.512 0,0.281 -0.36,0.771 -0.8,1.088 -0.44,0.317 -0.8,0.762 -0.8,0.988 -10e-4,0.227 -0.446,0.929 -0.989,1.561 -0.544,0.632 -1.095,1.487 -1.227,1.9 -0.131,0.413 -0.384,0.751 -0.562,0.751 -0.179,0 -0.549,0.54 -0.822,1.2 -0.273,0.66 -0.655,1.2 -0.849,1.2 -0.193,0 -0.351,0.345 -0.351,0.767 0,0.421 -0.149,0.826 -0.332,0.9 -0.488,0.195 -3.268,5.403 -3.268,6.12 0,0.337 -0.18,0.613 -0.4,0.613 -0.22,0 -0.4,0.36 -0.4,0.8 0,0.44 -0.18,0.8 -0.4,0.8 -0.22,0 -0.4,0.36 -0.4,0.8 0,0.44 -0.18,0.8 -0.4,0.8 -0.22,0 -0.4,0.54 -0.4,1.2 0,0.66 -0.18,1.2 -0.4,1.2 -0.22,0 -0.4,0.54 -0.4,1.2 0,0.66 -0.18,1.2 -0.4,1.2 -0.22,0 -0.4,0.9 -0.4,2 0,1.1 -0.18,2 -0.4,2 -0.22,0 -0.4,0.99 -0.4,2.2 0,1.21 0.18,2.2 0.4,2.2 0.222,0 0.4,1.059 0.4,2.376 0,1.307 0.18,2.488 0.4,2.624 0.22,0.136 0.4,0.867 0.4,1.624 0,0.757 0.18,1.376 0.4,1.376 0.22,0 0.4,0.36 0.4,0.8 0,0.44 0.18,0.8 0.4,0.8 0.22,0 0.4,0.234 0.4,0.52 0,0.736 0.941,2.673 1.3,2.677 0.165,0.002 0.3,0.245 0.3,0.542 0,0.296 0.36,0.954 0.8,1.461 0.44,0.507 0.8,1.076 0.8,1.264 0,0.521 4.804,5.136 5.347,5.136 0.262,0 0.736,0.36 1.053,0.8 0.317,0.44 0.897,0.8 1.288,0.8 0.392,0 0.712,0.18 0.712,0.4 0,0.22 0.36,0.4 0.8,0.4 0.44,0 0.8,0.18 0.8,0.4 0,0.22 0.36,0.4 0.8,0.4 0.44,0 0.8,0.136 0.8,0.303 0,0.366 2.867,1.297 3.994,1.297 0.443,0 0.806,0.18 0.806,0.4 0,0.251 2.533,0.4 6.8,0.4 4.267,0 6.8,-0.149 6.8,-0.4 0,-0.22 0.54,-0.4 1.2,-0.4 0.66,0 1.2,-0.18 1.2,-0.4 0,-0.22 0.54,-0.4 1.2,-0.4 0.66,0 1.2,-0.18 1.2,-0.4 0,-0.22 0.36,-0.4 0.8,-0.4 0.44,0 0.8,-0.18 0.8,-0.4 0,-0.22 0.36,-0.4 0.8,-0.4 0.44,0 0.8,-0.18 0.8,-0.4 0,-0.22 0.272,-0.4 0.604,-0.4 0.332,0 1.168,-0.54 1.859,-1.2 0.691,-0.66 1.428,-1.2 1.639,-1.2 0.431,0 4.298,-4.01 4.298,-4.456 0,-0.158 0.227,-0.525 0.505,-0.815 0.897,-0.939 1.895,-2.684 1.895,-3.315 0,-0.338 0.18,-0.614 0.4,-0.614 0.22,0 0.4,-0.36 0.4,-0.8 0,-0.44 0.18,-0.8 0.4,-0.8 0.22,0 0.4,-0.349 0.4,-0.776 0,-0.427 0.18,-0.888 0.4,-1.024 0.22,-0.136 0.4,-0.867 0.4,-1.624 0,-0.757 0.18,-1.376 0.4,-1.376 0.229,0 0.4,-1.202 0.4,-2.805 0,-1.543 0.223,-3.163 0.496,-3.6 0.395,-0.633 0.395,-0.957 0,-1.59 -0.273,-0.437 -0.496,-1.686 -0.496,-2.776 0,-1.09 -0.18,-2.093 -0.4,-2.229 -0.22,-0.136 -0.4,-0.777 -0.4,-1.424 0,-0.647 -0.18,-1.176 -0.4,-1.176 -0.22,0 -0.4,-0.439 -0.4,-0.976 0,-0.537 -0.18,-1.088 -0.4,-1.224 -0.22,-0.136 -0.4,-0.597 -0.4,-1.024 0,-0.427 -0.18,-0.776 -0.4,-0.776 -0.22,0 -0.4,-0.252 -0.4,-0.559 0,-0.786 -2.851,-6.241 -3.261,-6.241 -0.187,0 -0.339,-0.36 -0.339,-0.8 0,-0.44 -0.18,-0.8 -0.4,-0.8 -0.22,0 -0.4,-0.32 -0.4,-0.712 0,-0.391 -0.36,-0.971 -0.8,-1.288 -0.44,-0.317 -0.8,-0.857 -0.8,-1.2 0,-0.343 -0.36,-0.883 -0.8,-1.2 -0.44,-0.317 -0.8,-0.857 -0.8,-1.2 0,-0.343 -0.36,-0.883 -0.8,-1.2 -0.44,-0.317 -0.8,-0.857 -0.8,-1.2 0,-0.343 -0.36,-0.883 -0.8,-1.2 -0.44,-0.317 -0.8,-0.742 -0.8,-0.945 0,-0.203 -0.54,-0.884 -1.2,-1.515 -0.66,-0.631 -1.2,-1.343 -1.2,-1.583 0,-0.24 -0.54,-0.94 -1.2,-1.557 -0.66,-0.617 -1.2,-1.343 -1.2,-1.614 0,-0.27 -0.33,-0.783 -0.734,-1.139 -0.404,-0.356 -1.41,-1.612 -2.235,-2.792 -3.264,-4.666 -5.824,-6.425 -8.431,-5.792 m 2.859,9.871 c 2.153,2.516 2.754,3.268 3.727,4.666 0.537,0.77 1.083,1.49 1.214,1.6 0.131,0.11 0.671,0.83 1.2,1.6 0.529,0.77 1.083,1.49 1.233,1.6 0.825,0.609 8.191,12.429 9.972,16.003 1.15,2.308 2.25,4.51 2.443,4.892 0.194,0.382 0.352,1.021 0.352,1.42 0,0.399 0.189,0.914 0.42,1.145 0.569,0.569 0.529,8.225 -0.054,10.07 -6.862,21.744 -35.992,22.603 -43.561,1.284 -3.135,-8.829 0.556,-18.278 14.534,-37.214 1.542,-2.09 2.908,-3.89 3.035,-4 0.127,-0.11 0.722,-0.859 1.322,-1.665 2.359,-3.166 2.587,-3.243 4.163,-1.401 m 43.046,11.774 -0.894,1.092 -0.006,20.126 c -0.005,20.304 0.038,20.974 1.43,22.366 0.408,0.408 22.059,0.508 110.355,0.508 h 109.846 l 0.982,-0.982 0.982,-0.982 V 237.8 217.164 l -0.982,-0.982 -0.982,-0.982 -109.918,0.008 -109.918,0.007 -0.895,1.093 m 77.8,21.594 0.104,16.102 -35.904,-0.102 -35.905,-0.102 -0.105,-15.773 c -0.082,-12.353 0.005,-15.844 0.4,-16.096 0.278,-0.177 16.435,-0.278 35.905,-0.226 l 35.4,0.095 0.105,16.102 m 137.862,-16.059 c 0.648,0.248 1.015,29.896 0.39,31.524 -0.22,0.574 -6.424,0.633 -66.2,0.633 H 211.6 v -15.933 c 0,-8.764 0.12,-16.054 0.267,-16.2 0.333,-0.333 130.633,-0.357 131.5,-0.024 M 68.135,239.184 c -1.904,0.802 -1.53,4.36 0.949,9.016 2.619,4.921 11.03,9.527 13.929,7.628 2.065,-1.353 0.631,-5.02 -1.967,-5.032 -3.189,-0.014 -8.607,-5.861 -8.659,-9.345 -0.028,-1.888 -2.288,-3.093 -4.252,-2.267 m 60.365,41.826 -0.9,0.961 v 20.745 20.745 l 0.926,0.869 0.926,0.87 h 109.604 109.605 l 0.869,-0.926 0.87,-0.926 v -20.692 -20.692 l -0.982,-0.982 -0.982,-0.982 -109.518,0.024 -109.518,0.025 -0.9,0.961 m -64.7,0.19 c -0.136,0.22 -0.58,0.4 -0.986,0.4 -2.048,0 -10.014,6.518 -10.014,8.194 0,0.333 -0.18,0.606 -0.4,0.606 -0.22,0 -0.4,0.36 -0.4,0.8 0,0.44 -0.18,0.8 -0.4,0.8 -0.22,0 -0.4,0.45 -0.4,1 0,0.55 -0.18,1 -0.4,1 -0.22,0 -0.4,0.72 -0.4,1.6 0,0.88 -0.18,1.6 -0.4,1.6 -0.247,0 -0.4,2.067 -0.4,5.4 0,3.333 0.153,5.4 0.4,5.4 0.22,0 0.4,0.9 0.4,2 0,1.1 0.18,2 0.4,2 0.22,0 0.4,0.283 0.4,0.629 0,0.691 0.569,1.308 1.91,2.071 1.287,0.732 1.537,0.651 3.094,-1 1.54,-1.632 1.547,-1.703 0.599,-6.3 -3.69,-17.9 14.082,-27.475 23.273,-12.538 2.076,3.374 3.841,3.14 6.78,-0.901 11.477,-15.78 29.392,-0.053 20.889,18.337 -3.373,7.296 -19.913,22.102 -24.69,22.102 -1.8,0 -11.373,-5.985 -15.144,-9.467 -3.887,-3.589 -9.961,-2.41 -7.885,1.531 0.563,1.066 5.422,5.936 5.925,5.936 0.181,0 0.895,0.54 1.586,1.2 0.691,0.66 1.488,1.2 1.771,1.2 0.283,0 0.775,0.36 1.092,0.8 0.317,0.44 0.897,0.8 1.288,0.8 0.392,0 0.712,0.158 0.712,0.351 0,0.194 0.54,0.576 1.2,0.849 0.66,0.273 1.2,0.655 1.2,0.849 0,0.193 0.345,0.351 0.767,0.351 0.421,0 0.826,0.143 0.9,0.319 0.941,2.251 7.952,3.032 11.031,1.228 1.266,-0.741 2.842,-1.618 3.502,-1.948 0.66,-0.329 1.549,-0.914 1.975,-1.299 0.427,-0.385 1.012,-0.7 1.3,-0.7 0.289,0 0.525,-0.15 0.525,-0.332 0,-0.183 0.495,-0.587 1.1,-0.898 0.605,-0.31 1.391,-0.881 1.747,-1.267 0.356,-0.387 0.847,-0.703 1.092,-0.703 0.59,0 10.861,-10.164 10.861,-10.747 0,-0.249 0.18,-0.453 0.4,-0.453 0.22,0 0.4,-0.188 0.4,-0.417 0,-0.229 0.36,-0.803 0.8,-1.275 0.44,-0.472 0.8,-1.095 0.8,-1.383 0,-0.289 0.18,-0.525 0.4,-0.525 0.22,0 0.4,-0.36 0.4,-0.8 0,-0.44 0.18,-0.8 0.4,-0.8 0.22,0 0.4,-0.36 0.4,-0.8 0,-0.44 0.18,-0.8 0.4,-0.8 0.22,0 0.4,-0.36 0.4,-0.8 0,-0.44 0.18,-0.8 0.4,-0.8 0.22,0 0.4,-0.54 0.4,-1.2 0,-0.66 0.18,-1.2 0.4,-1.2 0.22,0 0.4,-0.9 0.4,-2 0,-1.1 0.18,-2 0.4,-2 0.243,0 0.4,-1.792 0.4,-4.576 0,-2.62 -0.171,-4.682 -0.4,-4.824 -0.22,-0.136 -0.4,-0.946 -0.4,-1.8 0,-0.854 -0.18,-1.664 -0.4,-1.8 -0.22,-0.136 -0.4,-0.687 -0.4,-1.224 0,-0.537 -0.18,-0.976 -0.4,-0.976 -0.22,0 -0.4,-0.36 -0.4,-0.8 0,-0.44 -0.18,-0.8 -0.4,-0.8 -0.22,0 -0.4,-0.273 -0.4,-0.606 0,-0.791 -5.803,-6.594 -6.594,-6.594 -0.333,0 -0.606,-0.18 -0.606,-0.4 0,-0.22 -0.349,-0.4 -0.776,-0.4 -0.427,0 -0.888,-0.18 -1.024,-0.4 -0.136,-0.22 -0.777,-0.4 -1.424,-0.4 -0.647,0 -1.176,-0.18 -1.176,-0.4 0,-0.241 -1.667,-0.4 -4.2,-0.4 -2.533,0 -4.2,0.159 -4.2,0.4 0,0.22 -0.54,0.4 -1.2,0.4 -0.66,0 -1.2,0.157 -1.2,0.35 0,0.193 -0.518,0.454 -1.152,0.58 -0.633,0.127 -1.43,0.51 -1.771,0.85 -0.341,0.341 -0.827,0.62 -1.08,0.62 -0.253,0 -1.151,0.72 -1.997,1.6 -1.916,1.995 -1.8,2.005 -4.322,-0.4 -1.153,-1.1 -2.363,-2 -2.687,-2 -0.325,0 -0.591,-0.18 -0.591,-0.4 0,-0.22 -0.36,-0.4 -0.8,-0.4 -0.44,0 -0.8,-0.18 -0.8,-0.4 0,-0.22 -0.54,-0.4 -1.2,-0.4 -0.66,0 -1.2,-0.18 -1.2,-0.4 0,-0.244 -1.859,-0.4 -4.776,-0.4 -2.753,0 -4.882,0.169 -5.024,0.4 m 279.529,5.7 c 0.626,0.459 0.673,1.789 0.576,16.1 L 343.8,318.6 H 319 294.2 l -0.105,-15.553 c -0.075,-11.148 0.024,-15.708 0.349,-16.1 0.64,-0.771 47.836,-0.816 48.885,-0.047 m -55.024,16 0.104,15.9 H 211.405 134.4 v -16.001 -16.001 l 76.9,0.101 76.9,0.101 0.105,15.9 M 116.8,340.8 c 0,0.229 -1.202,0.4 -2.805,0.4 -1.662,0 -3.985,0.342 -5.7,0.839 -1.592,0.462 -3.3,0.933 -3.795,1.047 -0.495,0.114 -0.9,0.366 -0.9,0.561 0,0.194 -0.36,0.353 -0.8,0.353 -0.44,0 -0.8,0.18 -0.8,0.4 0,0.22 -0.36,0.4 -0.8,0.4 -0.44,0 -0.8,0.18 -0.8,0.4 0,0.22 -0.32,0.4 -0.712,0.4 -0.391,0 -0.971,0.36 -1.288,0.8 -0.317,0.44 -0.817,0.8 -1.11,0.8 -0.469,0 -2.024,1.507 -6.487,6.289 -0.662,0.708 -1.203,1.472 -1.203,1.697 0,0.224 -0.392,0.859 -0.872,1.411 -1.307,1.503 -11.128,1.582 -11.128,0.089 0,-1.021 -3.793,-5.486 -4.661,-5.486 -0.296,0 -0.539,-0.18 -0.539,-0.4 0,-0.22 -0.349,-0.4 -0.776,-0.4 -0.427,0 -0.888,-0.18 -1.024,-0.4 -0.139,-0.225 -2.071,-0.4 -4.424,-0.4 -2.517,0 -4.176,0.159 -4.176,0.4 0,0.22 -0.36,0.4 -0.8,0.4 -0.44,0 -0.8,0.18 -0.8,0.4 0,0.22 -0.207,0.4 -0.46,0.4 -0.664,0 -4.74,4.307 -4.74,5.009 0,0.325 -0.18,0.591 -0.4,0.591 -0.22,0 -0.4,0.72 -0.4,1.6 0,0.88 -0.18,1.6 -0.4,1.6 -0.22,0 -0.4,0.81 -0.4,1.8 0,0.99 0.18,1.8 0.4,1.8 0.22,0 0.4,0.72 0.4,1.6 0,0.88 0.18,1.6 0.4,1.6 0.22,0 0.4,0.36 0.4,0.8 0,0.44 0.18,0.8 0.4,0.8 0.22,0 0.4,0.36 0.4,0.8 0,0.44 0.18,0.8 0.4,0.8 0.462,0 0.55,1.467 0.1,1.667 -0.614,0.272 -2.1,3.649 -2.1,4.771 0,0.639 -0.18,1.162 -0.4,1.162 -0.22,0 -0.4,0.709 -0.4,1.576 0,0.867 0.18,1.688 0.4,1.824 0.22,0.136 0.4,0.861 0.4,1.611 0,8.264 14.099,12.228 20.752,5.835 0.907,-0.871 1.648,-1.867 1.648,-2.215 0,-0.347 0.18,-0.631 0.4,-0.631 0.22,0 0.4,-0.36 0.4,-0.8 0,-0.762 0.267,-0.8 5.6,-0.8 5.333,0 5.6,0.038 5.6,0.8 0,0.44 0.18,0.8 0.4,0.8 0.22,0 0.4,0.27 0.4,0.6 0,0.33 0.18,0.6 0.4,0.6 0.22,0 0.4,0.201 0.4,0.447 0,0.635 6.238,6.753 6.886,6.753 0.296,0 0.797,0.36 1.114,0.8 0.317,0.44 0.897,0.8 1.288,0.8 0.392,0 0.712,0.18 0.712,0.4 0,0.22 0.36,0.4 0.8,0.4 0.44,0 0.8,0.18 0.8,0.4 0,0.22 0.36,0.4 0.8,0.4 0.44,0 0.801,0.135 0.802,0.3 0.013,1.873 24.707,3.553 26.458,1.8 0.275,-0.275 0.993,-0.5 1.596,-0.5 0.603,0 1.208,-0.18 1.344,-0.4 0.136,-0.22 0.597,-0.4 1.024,-0.4 0.427,0 0.776,-0.18 0.776,-0.4 0,-0.22 0.36,-0.4 0.8,-0.4 0.44,0 0.8,-0.18 0.8,-0.4 0,-0.22 0.36,-0.4 0.8,-0.4 0.44,0 0.8,-0.18 0.8,-0.4 0,-0.22 0.27,-0.4 0.6,-0.4 0.33,0 0.6,-0.18 0.6,-0.4 0,-0.22 0.27,-0.4 0.6,-0.4 0.33,0 0.6,-0.18 0.6,-0.4 0,-0.22 0.185,-0.4 0.411,-0.4 0.227,0 0.992,-0.542 1.7,-1.205 0.709,-0.663 2.234,-2.091 3.389,-3.174 1.155,-1.083 2.1,-2.211 2.1,-2.507 0,-0.295 0.36,-0.797 0.8,-1.114 0.44,-0.317 0.8,-0.897 0.8,-1.288 0,-0.392 0.18,-0.712 0.4,-0.712 0.22,0 0.4,-0.36 0.4,-0.8 0,-0.44 0.18,-0.8 0.4,-0.8 0.22,0 0.4,-0.36 0.4,-0.8 0,-0.44 0.18,-0.8 0.4,-0.8 0.22,0 0.4,-0.54 0.4,-1.2 0,-0.66 0.18,-1.2 0.4,-1.2 0.22,0 0.4,-0.9 0.4,-2 0,-1.1 0.18,-2 0.4,-2 0.238,0 0.4,-1.525 0.4,-3.776 0,-2.087 -0.179,-3.887 -0.4,-4.024 -0.22,-0.136 -0.4,-1.047 -0.4,-2.024 0,-0.977 -0.18,-1.776 -0.4,-1.776 -0.22,0 -0.4,-0.343 -0.4,-0.762 0,-0.816 -1.601,-4.15 -2.1,-4.371 -0.165,-0.074 -0.3,-0.479 -0.3,-0.9 0,-0.422 -0.168,-0.767 -0.373,-0.767 -0.205,0 -0.49,-0.368 -0.632,-0.817 -0.246,-0.775 -7.105,-7.983 -7.596,-7.983 -0.128,0 -0.619,-0.36 -1.091,-0.8 -0.472,-0.44 -1.095,-0.8 -1.383,-0.8 -0.289,0 -0.525,-0.18 -0.525,-0.4 0,-0.22 -0.36,-0.4 -0.8,-0.4 -0.44,0 -0.8,-0.18 -0.8,-0.4 0,-0.22 -0.242,-0.4 -0.539,-0.4 -0.296,0 -1.121,-0.291 -1.833,-0.646 -2.175,-1.085 -7.177,-2.154 -10.079,-2.154 -1.566,0 -2.749,-0.172 -2.749,-0.4 0,-0.22 -0.99,-0.4 -2.2,-0.4 -1.21,0 -2.2,0.18 -2.2,0.4 m 48.6,5.28 c -0.44,0.251 -1.205,0.921 -1.7,1.488 l -0.899,1.032 -10e-4,20.3 c 0,13.267 0.139,20.3 0.4,20.3 0.22,0 0.4,0.231 0.4,0.514 0,1.973 -3.582,1.886 77.662,1.88 78.862,-0.006 76.612,0.042 77.682,-1.67 0.445,-0.713 -0.872,-3.969 -1.868,-4.615 -0.262,-0.17 -16.226,-0.399 -35.476,-0.509 l -35,-0.2 V 368.8 353 h 48.6 48.6 v 15.8 15.8 l -5.459,0.2 c -5.492,0.201 -7.141,0.693 -7.141,2.13 0,0.224 -0.299,0.738 -0.666,1.142 -0.827,0.914 -0.19,2.392 1.329,3.084 2.749,1.252 17.737,0.391 17.737,-1.02 0,-0.295 0.18,-0.536 0.4,-0.536 0.262,0 0.4,-7.2 0.4,-20.8 0,-13.6 -0.138,-20.8 -0.4,-20.8 -0.22,0 -0.4,-0.36 -0.4,-0.8 0,-0.533 -0.267,-0.8 -0.8,-0.8 -0.44,0 -0.8,-0.18 -0.8,-0.4 0,-0.604 -181.539,-0.525 -182.6,0.08 m -38.327,2.34 c 18.54,4.968 25.488,24.037 13.377,36.713 -12.374,12.951 -35.429,11.329 -45.287,-3.187 -0.859,-1.266 -1.563,-2.494 -1.563,-2.729 0,-0.236 -0.158,-0.74 -0.351,-1.122 -5.285,-10.463 3.023,-25.331 16.351,-29.261 0.99,-0.292 2.25,-0.675 2.8,-0.851 2.187,-0.699 11.464,-0.423 14.673,0.437 M 240.6,368.8 v 15.8 l -34.956,0.102 c -25.495,0.075 -35.104,-0.02 -35.5,-0.349 -0.568,-0.47 -0.849,-29.492 -0.3,-30.922 0.22,-0.575 3.609,-0.626 35.5,-0.533 L 240.6,353 v 15.8 M 69.404,356.9 c 0.766,0.495 1.495,1.215 1.621,1.6 0.126,0.385 0.397,0.7 0.602,0.7 0.205,0 0.374,0.495 0.374,1.1 10e-4,0.605 0.359,1.685 0.795,2.4 l 0.792,1.3 h 5.983 c 7.132,0 6.54,-0.603 6.511,6.637 -0.028,7.158 0.522,6.563 -6.073,6.563 -6.869,0 -8.009,0.512 -8.009,3.594 0,5.956 -10.817,5.554 -11.245,-0.418 -0.245,-3.415 1.067,-5.616 4.045,-6.788 3.451,-1.358 3.315,-4.542 -0.254,-5.952 -3.826,-1.511 -5.201,-5.981 -2.869,-9.323 1.645,-2.356 5.248,-3.015 7.727,-1.413"
       stroke="none"
       fill="#060505"
       fill-rule="evenodd" />
    <path
       id="path3"
       d="m 207.2,75.911 c 0,0.186 -0.323,0.687 -0.719,1.114 -0.973,1.05 -3.451,4.58 -7.426,10.575 -9.74,14.691 -12.364,22.955 -9.461,29.8 0.186,0.44 0.574,1.376 0.861,2.08 0.608,1.49 1.278,1.861 4.545,2.521 1.32,0.267 2.85,0.626 3.4,0.799 0.55,0.173 2.08,0.531 3.4,0.795 1.32,0.265 2.813,0.644 3.319,0.843 1.534,0.604 2.883,0.422 6.281,-0.848 0.44,-0.164 1.61,-0.523 2.6,-0.798 0.99,-0.275 2.79,-0.813 4,-1.197 1.21,-0.383 3.55,-1.089 5.2,-1.569 4.601,-1.336 5.688,-1.775 6.008,-2.426 1.445,-2.943 1.599,-7.802 0.356,-11.301 -0.77,-2.17 -1.378,-3.42 -4.01,-8.248 C 222.261,92.011 207.2,73.843 207.2,75.911 M 66.4,288.25 c -6.582,1.22 -10.576,9.026 -9.185,17.95 0.979,6.278 0.975,6.369 -0.337,7.473 -1.15,0.967 -1.447,3.127 -0.431,3.127 0.194,0 0.353,0.36 0.353,0.8 0,0.44 0.159,0.8 0.354,0.8 0.195,0 0.654,0.63 1.019,1.4 0.366,0.77 0.836,1.4 1.046,1.4 0.209,0 0.381,0.251 0.381,0.557 0,0.858 1.127,1.097 2.806,0.594 1.979,-0.593 3.042,-0.274 4.994,1.501 0.88,0.8 2.23,1.924 3,2.499 0.77,0.574 1.49,1.149 1.6,1.277 0.511,0.593 5.296,3.567 7.957,4.945 l 2.957,1.531 1.643,-0.843 c 3.031,-1.556 8.154,-4.764 9.043,-5.663 0.11,-0.112 0.92,-0.738 1.8,-1.392 5.041,-3.746 10.576,-10.763 12.545,-15.906 2.527,-6.602 1.385,-15.329 -2.49,-19.028 -5.723,-5.463 -13.715,-3.761 -19.019,4.051 -2.276,3.352 -5.008,3.232 -6.824,-0.3 -2.491,-4.844 -8.103,-7.72 -13.212,-6.773"
       stroke="none"
       fill="#eb5974"
       fill-rule="evenodd" />
    <path
       id="path4"
       d="m 203.583,8.832 c -0.246,0.46 -0.36,0.925 -0.252,1.032 0.108,0.108 0.318,-0.188 0.467,-0.657 0.258,-0.814 0.317,-0.823 1.271,-0.199 0.55,0.361 1.092,0.565 1.203,0.453 0.111,-0.111 -0.347,-0.486 -1.019,-0.834 -1.162,-0.6 -1.245,-0.59 -1.67,0.205 M 202.6,11.6 c -0.15,0.473 -0.183,0.95 -0.073,1.06 0.11,0.11 0.323,-0.187 0.473,-0.66 0.15,-0.473 0.183,-0.95 0.073,-1.06 -0.11,-0.11 -0.323,0.187 -0.473,0.66 m 6.8,-0.128 c 1.098,1.175 9.102,7.326 9.519,7.316 0.265,-0.007 0.121,-0.217 -0.319,-0.467 -0.44,-0.25 -2.06,-1.47 -3.6,-2.711 -3.092,-2.492 -6.224,-4.806 -5.6,-4.138 m 11.8,6.728 c -0.58,0.332 -0.748,0.572 -0.4,0.573 0.33,0.001 0.949,-0.263 1.376,-0.586 0.988,-0.747 0.339,-0.739 -0.976,0.013 m -21,0.6 c -0.15,0.473 -0.183,0.95 -0.073,1.06 0.11,0.11 0.323,-0.187 0.473,-0.66 0.15,-0.473 0.183,-0.95 0.073,-1.06 -0.11,-0.11 -0.323,0.187 -0.473,0.66 m -3.059,7.648 c -0.484,1.126 -1.74,3.741 -2.791,5.811 -1.051,2.07 -1.758,3.669 -1.571,3.554 0.342,-0.211 4.469,-8.435 5.206,-10.374 0.711,-1.868 0.059,-1.089 -0.844,1.009 m 30.705,-0.662 c -1.027,1.568 0.197,5.204 2.16,6.418 0.267,0.165 -0.166,-0.666 -0.961,-1.847 -1.63,-2.421 -1.688,-2.726 -0.835,-4.377 0.742,-1.434 0.524,-1.55 -0.364,-0.194 m 3.42,8.448 c 1.406,2.46 2.582,3.969 1.532,1.966 -0.461,-0.88 -1.204,-2.05 -1.651,-2.6 -0.672,-0.826 -0.651,-0.715 0.119,0.634 m -39.813,3.466 -0.72,1.3 0.825,-1 c 0.731,-0.887 1.056,-1.6 0.728,-1.6 -0.062,0 -0.437,0.585 -0.833,1.3 m 45.177,6.7 c 0.379,0.99 0.857,1.98 1.061,2.2 0.204,0.22 0.059,-0.41 -0.321,-1.4 -0.379,-0.99 -0.857,-1.98 -1.061,-2.2 -0.204,-0.22 -0.059,0.41 0.321,1.4 m -53.205,5.5 c -1.249,1.705 -1.743,2.503 -1.097,1.774 1.4,-1.582 3.795,-4.874 3.545,-4.874 -0.097,0 -1.198,1.395 -2.448,3.1 M 160.26,49.503 c -0.103,0.167 -0.296,1.022 -0.428,1.9 -0.174,1.157 -0.137,1.376 0.136,0.797 0.206,-0.44 0.388,-1.199 0.404,-1.687 0.021,-0.659 0.2,-0.822 0.694,-0.632 0.447,0.171 0.57,0.102 0.376,-0.213 -0.329,-0.533 -0.905,-0.613 -1.182,-0.165 m 78.568,0.373 c -0.015,0.482 0.152,0.988 0.372,1.124 0.473,0.292 0.473,-0.099 0,-1.2 -0.331,-0.771 -0.345,-0.769 -0.372,0.076 m 16.984,0.162 c -0.874,0.428 -1.774,0.974 -2,1.213 -0.227,0.239 0.533,-0.037 1.688,-0.615 l 2.1,-1.049 0.028,1.506 c 0.016,0.829 0.189,1.867 0.386,2.307 0.234,0.524 0.276,0.041 0.122,-1.4 -0.3,-2.803 -0.413,-2.899 -2.324,-1.962 M 162,50.179 c 0,0.11 0.54,0.48 1.2,0.821 0.66,0.341 1.2,0.531 1.2,0.421 0,-0.11 -0.54,-0.48 -1.2,-0.821 -0.66,-0.341 -1.2,-0.531 -1.2,-0.421 m 4.531,3.054 c 1.063,0.937 2.644,2.752 3.515,4.035 0.871,1.283 1.792,2.332 2.045,2.332 0.268,0 0.203,-0.211 -0.153,-0.5 -0.337,-0.275 -1.03,-1.13 -1.539,-1.9 -1.255,-1.898 -3.148,-3.902 -4.599,-4.869 -0.66,-0.44 -0.331,-0.034 0.731,0.902 m 73.075,-1 c 0.003,0.422 0.189,1.037 0.412,1.367 0.297,0.438 0.334,0.276 0.138,-0.6 -0.329,-1.471 -0.558,-1.79 -0.55,-0.767 m 10.498,1.931 c -1.487,1.41 -2.614,2.627 -2.504,2.704 0.11,0.077 1.416,-1.077 2.901,-2.564 3.425,-3.428 3.166,-3.519 -0.397,-0.14 M 179.4,54.847 c -0.66,0.895 -1.961,2.331 -2.891,3.19 -0.93,0.86 -1.532,1.563 -1.338,1.563 0.444,0 5.629,-5.572 5.629,-6.049 0,-0.551 -0.123,-0.437 -1.4,1.296 m -20.14,-0.38 c -0.033,0.587 -0.164,1.397 -0.29,1.8 -0.218,0.693 -0.205,0.694 0.225,0.023 0.251,-0.391 0.382,-1.201 0.291,-1.8 l -0.166,-1.09 -0.06,1.067 m 81.146,0.766 c 0.003,0.532 0.183,1.237 0.4,1.567 0.276,0.422 0.317,0.185 0.136,-0.8 -0.317,-1.725 -0.544,-2.051 -0.536,-0.767 m 18,0.4 c 0.003,0.532 0.183,1.237 0.4,1.567 0.276,0.422 0.317,0.185 0.136,-0.8 -0.317,-1.725 -0.544,-2.051 -0.536,-0.767 M 241.2,57.984 c 0,0.513 1.145,1.805 1.385,1.564 0.08,-0.082 -0.198,-0.573 -0.619,-1.092 -0.421,-0.52 -0.766,-0.732 -0.766,-0.472 M 204.15,69.1 c -2.475,2.985 -4.235,5.3 -4.029,5.3 0.104,0 1.222,-1.305 2.485,-2.9 1.263,-1.595 2.653,-3.215 3.09,-3.6 0.436,-0.385 0.621,-0.7 0.411,-0.7 -0.21,0 -1.091,0.855 -1.957,1.9 m 7.441,1.035 c 4.915,5.262 6.624,6.995 5.193,5.265 -2.514,-3.039 -6.901,-7.759 -7.384,-7.945 -0.266,-0.102 0.72,1.104 2.191,2.68 M 199.315,75.3 c -1.734,2.267 -2.649,3.62 -2.306,3.413 0.472,-0.286 3.128,-3.913 2.865,-3.913 -0.097,0 -0.348,0.225 -0.559,0.5 m 9.963,1.9 c 1.141,1.1 2.168,2 2.283,2 0.115,0 -0.678,-0.9 -1.761,-2 -1.083,-1.1 -2.111,-2 -2.284,-2 -0.172,0 0.62,0.9 1.762,2 m 57.953,-0.1 c 1.017,1.7 1.569,2.394 1.569,1.971 0,-0.365 -2.045,-3.471 -2.286,-3.471 -0.098,0 0.224,0.675 0.717,1.5 m -119.269,3.6 c -2.849,4.804 -3.288,5.593 -3.671,6.6 -0.489,1.287 0.063,0.719 0.777,-0.8 0.388,-0.825 1.58,-2.931 2.65,-4.68 2.141,-3.502 3.185,-5.42 2.949,-5.42 -0.085,0 -1.302,1.935 -2.705,4.3 m 71.637,-1.501 c 2.34,2.795 2.929,3.018 0.777,0.294 -0.977,-1.237 -1.928,-2.258 -2.113,-2.271 -0.186,-0.012 0.416,0.877 1.336,1.977 m -15.67,0.701 c -1.142,1.343 -2.483,3.442 -2.013,3.152 0.261,-0.161 1.025,-1.094 1.698,-2.072 1.241,-1.804 1.403,-2.36 0.315,-1.08 m 9.207,1.617 c 0.955,1.144 1.945,2.208 2.2,2.363 0.255,0.156 -0.317,-0.653 -1.272,-1.797 -0.955,-1.144 -1.945,-2.208 -2.2,-2.363 -0.255,-0.156 0.317,0.653 1.272,1.797 m 56.239,-0.899 c 1.156,1.764 2.835,4.726 3.562,6.282 0.711,1.522 1.254,2.081 0.777,0.8 -0.657,-1.766 -4.412,-8.1 -4.802,-8.1 -0.112,0 0.096,0.458 0.463,1.018 M 222.917,83.2 c 0.589,0.77 2.365,3.2 3.948,5.4 3.234,4.496 4.001,5.417 2.892,3.473 -0.995,-1.743 -6.003,-8.451 -7.072,-9.473 -0.529,-0.505 -0.444,-0.284 0.232,0.6 m -30.448,1.639 c -0.759,1.215 -0.303,1.377 0.486,0.173 0.365,-0.556 0.523,-1.012 0.35,-1.012 -0.172,0 -0.548,0.378 -0.836,0.839 m 27.556,5.261 c 1.58,2.145 2.947,3.9 3.038,3.9 0.27,0 -2.976,-4.475 -4.499,-6.2 -0.776,-0.88 -0.119,0.155 1.461,2.3 m -30.856,0.4 c -0.917,1.595 -1.883,3.26 -2.148,3.7 -0.745,1.239 -1.065,2.274 -0.616,1.997 0.217,-0.134 0.395,-0.404 0.395,-0.599 0,-0.318 1.531,-3.101 3.686,-6.698 0.429,-0.715 0.683,-1.3 0.564,-1.3 -0.118,0 -0.965,1.305 -1.881,2.9 M 143.05,89.991 c -0.903,2.256 -0.763,2.592 0.187,0.451 0.429,-0.967 0.708,-1.83 0.621,-1.917 -0.087,-0.087 -0.45,0.573 -0.808,1.466 m 53.667,0.511 c -1.528,2.302 -2.837,4.698 -2.565,4.698 0.094,0 0.72,-0.945 1.39,-2.1 0.671,-1.155 1.606,-2.685 2.078,-3.4 0.472,-0.715 0.776,-1.3 0.676,-1.3 -0.101,0 -0.811,0.946 -1.579,2.102 m 78.111,0.574 c -0.015,0.482 0.152,0.988 0.372,1.124 0.473,0.292 0.473,-0.099 0,-1.2 -0.331,-0.771 -0.345,-0.769 -0.372,0.076 m 0.8,2.4 c -0.015,0.482 0.152,0.988 0.372,1.124 0.473,0.292 0.473,-0.099 0,-1.2 -0.331,-0.771 -0.345,-0.769 -0.372,0.076 M 231.6,95.8 c 0.726,1.32 1.502,2.58 1.725,2.8 0.223,0.22 -0.184,-0.68 -0.904,-2 -0.72,-1.32 -1.496,-2.58 -1.725,-2.8 -0.229,-0.22 0.178,0.68 0.904,2 m -90.571,0.429 c -0.148,0.586 -0.178,1.155 -0.068,1.265 0.11,0.11 0.32,-0.279 0.468,-0.865 0.147,-0.587 0.177,-1.156 0.067,-1.266 -0.11,-0.11 -0.32,0.279 -0.467,0.866 m 51.957,0.671 -0.634,1.3 0.815,-1 c 0.785,-0.963 1.041,-1.6 0.643,-1.6 -0.104,0 -0.475,0.585 -0.824,1.3 m 83.482,-0.5 c -0.006,0.55 0.143,1.36 0.332,1.8 l 0.344,0.8 -0.012,-0.8 c -0.006,-0.44 -0.156,-1.25 -0.332,-1.8 l -0.32,-1 -0.012,1 m -91.413,1.855 c -0.379,0.794 -0.602,1.531 -0.496,1.638 0.107,0.106 0.477,-0.484 0.823,-1.311 0.816,-1.953 0.567,-2.202 -0.327,-0.327 m 40.554,0.045 c 0.005,0.165 0.376,0.75 0.824,1.3 l 0.815,1 -0.634,-1.3 c -0.603,-1.235 -1.025,-1.655 -1.005,-1 m -85.058,5.3 c 0,2.53 0.065,3.565 0.145,2.3 0.079,-1.265 0.079,-3.335 0,-4.6 -0.08,-1.265 -0.145,-0.23 -0.145,2.3 m 50.649,-3.516 c 0,0.12 -0.272,0.87 -0.605,1.667 -0.333,0.797 -0.516,1.449 -0.406,1.449 0.317,0 1.444,-2.9 1.216,-3.128 -0.113,-0.113 -0.205,-0.107 -0.205,0.012 m 86,1.867 c 0,1.731 -0.164,1.842 -4.53,3.069 -1.281,0.359 -2.259,0.724 -2.173,0.81 0.208,0.208 5.162,-1.219 6.246,-1.8 0.774,-0.413 1.355,-3.63 0.657,-3.63 -0.11,0 -0.2,0.698 -0.2,1.551 m 29.4,-0.32 c -1.32,0.426 -3.66,1.158 -5.2,1.627 -1.54,0.469 -3.79,1.166 -5,1.549 -1.21,0.382 -3.55,1.093 -5.2,1.579 -4.93,1.453 -5.294,1.563 -8,2.414 -3.325,1.045 -3.331,1.047 -14,4.204 -4.95,1.465 -9.99,2.984 -11.2,3.376 -1.21,0.392 -3.01,0.937 -4,1.212 -0.99,0.275 -2.16,0.64 -2.6,0.813 -0.44,0.173 -2.15,0.704 -3.8,1.182 -1.65,0.477 -3.45,1.014 -4,1.192 -0.55,0.178 -2.35,0.731 -4,1.228 -1.65,0.497 -3.99,1.217 -5.2,1.6 -1.21,0.382 -3.46,1.064 -5,1.514 -4.045,1.183 -10.376,3.09 -16.8,5.06 -3.08,0.945 -6.95,2.113 -8.6,2.596 -1.65,0.483 -3.45,1.027 -4,1.209 -0.55,0.182 -2.35,0.722 -4,1.2 -1.65,0.478 -3.45,1.015 -4,1.193 -0.55,0.178 -2.35,0.733 -4,1.232 -1.65,0.5 -3.81,1.173 -4.8,1.496 -0.99,0.323 -2.34,0.732 -3,0.907 -0.66,0.176 -2.37,0.679 -3.8,1.117 -1.43,0.438 -6.56,2 -11.4,3.471 -4.84,1.471 -9.97,3.033 -11.4,3.47 -1.43,0.436 -3.14,0.943 -3.8,1.124 -1.81,0.498 -5.334,1.572 -7.8,2.378 -1.21,0.395 -3.01,0.947 -4,1.226 -0.99,0.279 -2.79,0.819 -4,1.2 -1.21,0.381 -3.01,0.923 -4,1.204 -0.99,0.281 -2.61,0.777 -3.6,1.101 -0.99,0.325 -2.34,0.734 -3,0.909 -0.66,0.176 -2.37,0.676 -3.8,1.112 -1.43,0.435 -5.66,1.716 -9.4,2.847 -3.74,1.13 -7.385,2.242 -8.1,2.472 -1.549,0.497 -1.634,1.506 -0.838,9.955 l 0.471,5 2.433,3.2 c 1.339,1.76 2.528,3.29 2.642,3.4 0.114,0.11 1.194,1.516 2.4,3.124 1.87,2.495 2.339,2.898 3.192,2.751 0.92,-0.158 19.318,-5.768 24.4,-7.44 1.21,-0.398 3.55,-1.134 5.2,-1.635 1.65,-0.501 3.99,-1.221 5.2,-1.6 1.21,-0.379 3.55,-1.095 5.2,-1.592 1.65,-0.497 3.36,-1.04 3.8,-1.208 0.44,-0.168 2.15,-0.711 3.8,-1.208 1.65,-0.497 3.99,-1.222 5.2,-1.612 1.21,-0.391 4.36,-1.368 7,-2.173 2.64,-0.805 6.42,-1.972 8.4,-2.594 1.98,-0.622 5.49,-1.705 7.8,-2.405 2.31,-0.701 5.19,-1.595 6.4,-1.986 1.21,-0.391 3.55,-1.117 5.2,-1.614 1.65,-0.497 3.36,-1.05 3.8,-1.229 0.44,-0.179 1.43,-0.512 2.2,-0.739 4.55,-1.344 10.095,-3.036 12,-3.662 1.21,-0.397 3.1,-0.988 4.2,-1.313 3.904,-1.151 18.016,-5.499 19,-5.853 0.55,-0.198 2.89,-0.927 5.2,-1.62 2.31,-0.692 5.19,-1.579 6.4,-1.97 1.21,-0.391 3.46,-1.096 5,-1.567 7.535,-2.304 11.037,-3.421 13.6,-4.338 1.54,-0.552 3.43,-1.145 4.2,-1.319 1.597,-0.361 4.008,-1.08 10,-2.984 3.813,-1.211 7.923,-2.478 15.2,-4.687 4.676,-1.419 4.637,-1.39 6.987,-5.211 1.217,-1.979 2.213,-3.682 2.213,-3.785 0,-0.103 0.54,-0.972 1.2,-1.931 0.66,-0.959 1.2,-1.828 1.2,-1.931 0,-0.103 0.72,-1.372 1.6,-2.821 1.978,-3.256 2.022,-2.347 -0.404,-8.448 -0.175,-0.44 -0.718,-1.88 -1.206,-3.2 -1.965,-5.307 -1.653,-5.103 -5.79,-3.769 m -124.378,4.991 c -0.15,0.803 -0.194,1.54 -0.096,1.638 0.098,0.097 0.301,-0.479 0.452,-1.282 0.15,-0.803 0.194,-1.54 0.096,-1.638 -0.098,-0.097 -0.301,0.479 -0.452,1.282 m 53.79,-1.022 c 0,0.33 0.175,0.87 0.388,1.2 0.345,0.533 0.388,0.533 0.388,0 0,-0.33 -0.175,-0.87 -0.388,-1.2 -0.345,-0.533 -0.388,-0.533 -0.388,0 m -47.412,1.6 c -0.152,0.691 -0.186,1.347 -0.076,1.457 0.11,0.11 0.324,-0.366 0.476,-1.057 0.152,-0.691 0.186,-1.347 0.076,-1.457 -0.11,-0.11 -0.324,0.366 -0.476,1.057 m 41.012,-0.8 c 0,0.33 0.175,0.87 0.388,1.2 0.345,0.533 0.388,0.533 0.388,0 0,-0.33 -0.175,-0.87 -0.388,-1.2 -0.345,-0.533 -0.388,-0.533 -0.388,0 m 38.588,0 c -0.292,0.473 0.099,0.473 1.2,0 0.771,-0.331 0.769,-0.345 -0.076,-0.372 -0.482,-0.015 -0.988,0.152 -1.124,0.372 m -2.6,0.818 c -0.438,0.297 -0.276,0.334 0.6,0.138 1.471,-0.329 1.79,-0.558 0.767,-0.55 -0.422,0.003 -1.037,0.189 -1.367,0.412 m -162.4,0.909 c 0,0.07 -0.81,3.353 -1.8,7.295 -0.99,3.942 -1.8,7.531 -1.8,7.974 0,0.966 2.939,11.368 3.516,12.447 0.316,0.59 2.513,1.274 9.945,3.098 5.246,1.287 10.079,2.498 10.739,2.69 9.157,2.664 16.41,3.938 18.281,3.213 0.506,-0.196 2.269,-0.758 3.919,-1.249 1.65,-0.49 3.45,-1.038 4,-1.218 0.55,-0.179 2.8,-0.867 5,-1.529 2.2,-0.661 7.33,-2.213 11.4,-3.447 4.07,-1.234 8.66,-2.613 10.2,-3.064 1.54,-0.451 3.25,-0.97 3.8,-1.153 0.55,-0.183 2.89,-0.899 5.2,-1.592 2.31,-0.693 4.83,-1.45 5.6,-1.682 0.77,-0.233 1.625,-0.482 1.9,-0.554 1.13,-0.296 0.363,-0.858 -1.8,-1.318 -1.265,-0.269 -4.55,-1.028 -7.3,-1.685 -2.75,-0.658 -5.72,-1.356 -6.6,-1.553 -0.88,-0.196 -3.22,-0.736 -5.2,-1.2 -1.98,-0.464 -4.41,-1.025 -5.4,-1.247 -0.99,-0.222 -2.43,-0.561 -3.2,-0.753 -0.77,-0.192 -2.255,-0.541 -3.3,-0.775 -1.045,-0.234 -2.755,-0.616 -3.8,-0.85 -1.045,-0.234 -2.53,-0.583 -3.3,-0.775 -0.77,-0.192 -2.21,-0.533 -3.2,-0.757 -4.31,-0.976 -11.082,-2.532 -14.8,-3.4 -3.488,-0.814 -23.284,-5.34 -25.8,-5.899 -1.1,-0.244 -2.522,-0.601 -3.16,-0.794 -1.125,-0.34 -3.04,-0.48 -3.04,-0.223 M 236.931,111 c 0.002,1.54 0.074,2.121 0.161,1.291 0.087,-0.83 0.085,-2.09 -0.003,-2.8 -0.089,-0.71 -0.16,-0.031 -0.158,1.509 m -6.411,0.2 c 0,1.21 0.075,1.705 0.167,1.1 0.091,-0.605 0.091,-1.595 0,-2.2 -0.092,-0.605 -0.167,-0.11 -0.167,1.1 m -88.087,-1.056 c 0.092,0.079 0.707,0.264 1.367,0.412 0.876,0.196 1.038,0.159 0.6,-0.138 -0.54,-0.365 -2.368,-0.62 -1.967,-0.274 M 255,110.4 c -0.292,0.473 0.099,0.473 1.2,0 0.771,-0.331 0.769,-0.345 -0.076,-0.372 -0.482,-0.015 -0.988,0.152 -1.124,0.372 m -108.4,0.8 c 1.196,0.514 2.195,0.514 1.4,0 -0.33,-0.213 -0.96,-0.378 -1.4,-0.366 l -0.8,0.022 0.8,0.344 m 3.6,0.8 c 1.196,0.514 2.195,0.514 1.4,0 -0.33,-0.213 -0.96,-0.378 -1.4,-0.366 l -0.8,0.022 0.8,0.344 m 3.2,0.8 c 1.196,0.514 2.195,0.514 1.4,0 -0.33,-0.213 -0.96,-0.378 -1.4,-0.366 l -0.8,0.022 0.8,0.344 m 3.6,0.8 c 1.196,0.514 2.195,0.514 1.4,0 -0.33,-0.213 -0.96,-0.378 -1.4,-0.366 l -0.8,0.022 0.8,0.344 m 87.4,0 c -0.533,0.345 -0.533,0.388 0,0.388 0.33,0 0.87,-0.175 1.2,-0.388 0.533,-0.345 0.533,-0.388 0,-0.388 -0.33,0 -0.87,0.175 -1.2,0.388 m -55.954,0.4 c 0.019,0.33 0.178,1.05 0.354,1.6 l 0.32,1 0.034,-1 c 0.019,-0.55 -0.141,-1.27 -0.354,-1.6 -0.345,-0.533 -0.384,-0.533 -0.354,0 m -27.846,0.4 c 0.44,0.189 1.07,0.344 1.4,0.344 0.378,0 0.304,-0.127 -0.2,-0.344 -0.44,-0.189 -1.07,-0.344 -1.4,-0.344 -0.378,0 -0.304,0.127 0.2,0.344 m 21.468,0.4 c -0.006,0.55 0.143,1.36 0.332,1.8 l 0.344,0.8 -0.012,-0.8 c -0.006,-0.44 -0.156,-1.25 -0.332,-1.8 l -0.32,-1 -0.012,1 m -18.268,0.4 c 0.44,0.189 1.16,0.344 1.6,0.344 h 0.8 l -0.8,-0.344 c -0.44,-0.189 -1.16,-0.344 -1.6,-0.344 H 163 l 0.8,0.344 m 66,0.4 c -0.15,0.473 -0.183,0.95 -0.073,1.06 0.11,0.11 0.323,-0.187 0.473,-0.66 0.15,-0.473 0.183,-0.95 0.073,-1.06 -0.11,-0.11 -0.323,0.187 -0.473,0.66 m -62.4,0.4 c 0.44,0.189 1.16,0.344 1.6,0.344 h 0.8 L 169,116 c -0.44,-0.189 -1.16,-0.344 -1.6,-0.344 h -0.8 l 0.8,0.344 m 3.6,0.8 c 0.44,0.189 1.16,0.338 1.6,0.332 0.643,-0.009 0.604,-0.075 -0.2,-0.332 -1.368,-0.438 -2.419,-0.438 -1.4,0 m 3.4,0.8 c 0.55,0.176 1.36,0.32 1.8,0.32 0.633,0 0.592,-0.066 -0.2,-0.32 -0.55,-0.176 -1.36,-0.32 -1.8,-0.32 -0.633,0 -0.592,0.066 0.2,0.32 m 3.4,0.781 c 0.768,0.348 2.91,0.575 2.567,0.272 -0.092,-0.081 -0.887,-0.257 -1.767,-0.391 -1.115,-0.169 -1.358,-0.133 -0.8,0.119 m 5.006,0.127 c -0.005,0.555 -0.243,0.662 -1.106,0.497 l -1.1,-0.21 1.135,0.448 c 1.282,0.505 2.033,0.068 1.454,-0.846 -0.319,-0.505 -0.378,-0.488 -0.383,0.111 M 226,119.2 c -0.824,0.264 -0.859,0.326 -0.2,0.354 0.44,0.019 1.07,-0.141 1.4,-0.354 0.701,-0.453 0.214,-0.453 -1.2,0 m -3.144,0.859 c -0.739,0.213 -1.269,0.461 -1.177,0.553 0.202,0.202 3.121,-0.575 3.121,-0.831 0,-0.235 -0.318,-0.19 -1.944,0.278 m -4.778,1.436 c -0.947,0.327 -1.651,0.665 -1.565,0.752 0.087,0.086 1.221,-0.193 2.522,-0.62 1.301,-0.427 2.005,-0.765 1.565,-0.751 -0.44,0.014 -1.575,0.292 -2.522,0.619 m -25.645,0.252 c 0.092,0.081 0.887,0.257 1.767,0.391 1.115,0.169 1.358,0.133 0.8,-0.119 -0.768,-0.348 -2.91,-0.575 -2.567,-0.272 m 3.6,0.796 c 0.092,0.078 0.797,0.258 1.567,0.399 0.985,0.181 1.222,0.14 0.8,-0.136 -0.542,-0.356 -2.763,-0.603 -2.367,-0.263 M 214,122.818 c -0.438,0.297 -0.276,0.334 0.6,0.138 1.471,-0.329 1.79,-0.558 0.767,-0.55 -0.422,0.003 -1.037,0.189 -1.367,0.412 m -14.767,0.529 c 0.092,0.081 0.887,0.257 1.767,0.391 1.115,0.169 1.358,0.133 0.8,-0.119 -0.768,-0.348 -2.91,-0.575 -2.567,-0.272 M 211.4,123.6 c -0.292,0.473 0.099,0.473 1.2,0 0.771,-0.331 0.769,-0.345 -0.076,-0.372 -0.482,-0.015 -0.988,0.152 -1.124,0.372 m -8.567,0.543 c 0.092,0.078 0.797,0.258 1.567,0.399 0.985,0.181 1.222,0.14 0.8,-0.136 -0.542,-0.356 -2.763,-0.603 -2.367,-0.263 m 5.967,0.275 c -0.438,0.297 -0.276,0.334 0.6,0.138 1.471,-0.329 1.79,-0.558 0.767,-0.55 -0.422,0.003 -1.037,0.189 -1.367,0.412 m 61.8,24.408 c -1.98,0.646 -4.86,1.56 -6.4,2.03 -1.54,0.47 -3.79,1.165 -5,1.544 -1.21,0.379 -4.09,1.279 -6.4,2 -2.31,0.721 -5.19,1.621 -6.4,2 -1.21,0.379 -3.46,1.072 -5,1.54 -1.54,0.468 -5.05,1.56 -7.8,2.426 -2.75,0.867 -6.966,2.177 -9.369,2.911 -5.67,1.732 -5.632,1.88 0.872,3.451 8.523,2.059 36.119,8.831 37.797,9.275 0.825,0.218 2.175,0.562 3,0.764 0.825,0.202 2.22,0.558 3.1,0.791 0.88,0.234 9.61,2.404 19.4,4.824 l 17.8,4.4 0.681,-0.891 c 0.375,-0.49 1.504,-2.331 2.51,-4.091 1.006,-1.76 2.287,-3.992 2.847,-4.961 0.672,-1.161 0.937,-2.082 0.781,-2.706 -0.131,-0.52 -0.409,-4.048 -0.618,-7.839 -0.661,-11.975 0.523,-10.429 -9.701,-12.666 -2.857,-0.625 -5.629,-1.261 -7.1,-1.628 -0.77,-0.192 -2.21,-0.531 -3.2,-0.753 -1.685,-0.378 -3.309,-0.758 -12.071,-2.827 -4.455,-1.053 -5.38,-1.014 -9.729,0.406 M 66.3,287.933 c -0.385,0.153 0.74,0.278 2.5,0.278 1.76,0 2.885,-0.125 2.5,-0.278 -0.385,-0.152 -1.51,-0.277 -2.5,-0.277 -0.99,0 -2.115,0.125 -2.5,0.277 m 29.3,0.033 c -0.609,0.174 0.251,0.286 2.2,0.286 1.949,0 2.809,-0.112 2.2,-0.286 -0.55,-0.158 -1.54,-0.286 -2.2,-0.286 -0.66,0 -1.65,0.128 -2.2,0.286 m -3.335,1.081 c -0.625,0.339 -1.059,0.692 -0.965,0.786 0.187,0.187 2.7,-0.987 2.7,-1.262 0,-0.309 -0.582,-0.149 -1.735,0.476 m -31.055,1.592 c -1.67,1.508 -3.451,4.053 -3.09,4.415 0.116,0.116 0.52,-0.438 0.896,-1.232 0.377,-0.794 1.498,-2.158 2.491,-3.033 0.993,-0.874 1.691,-1.589 1.55,-1.589 -0.14,0 -0.971,0.647 -1.847,1.439 m 13.19,-1.366 c 3.897,3.536 4.58,4.079 3,2.382 -0.88,-0.945 -1.96,-1.908 -2.4,-2.141 -0.44,-0.232 -0.71,-0.341 -0.6,-0.241 m 29.884,0.948 c 0.706,0.556 1.755,1.589 2.332,2.295 0.577,0.706 0.864,0.908 0.637,0.45 -0.442,-0.898 -3.461,-3.769 -3.954,-3.762 -0.165,0.003 0.279,0.46 0.985,1.017 m -15.291,1.386 c -0.856,0.876 -1.447,1.593 -1.314,1.593 0.338,0 3.179,-2.876 3.008,-3.046 -0.076,-0.077 -0.839,0.577 -1.694,1.453 m -9.38,3.438 c -0.016,0.543 1.943,2.555 2.486,2.555 0.214,0 0.011,-0.315 -0.452,-0.7 -0.462,-0.385 -1.106,-1.06 -1.431,-1.5 -0.325,-0.44 -0.596,-0.6 -0.603,-0.355 m 28.821,1.155 c -0.012,0.44 0.153,1.07 0.366,1.4 0.514,0.795 0.514,-0.204 0,-1.4 l -0.344,-0.8 -0.022,0.8 m -51.777,3.3 c -0.32,1.934 -0.288,4.677 0.079,6.7 0.192,1.06 0.291,-0.055 0.295,-3.3 0.007,-5.393 -0.014,-5.58 -0.374,-3.4 m 52.689,3.1 c 10e-4,2.2 0.068,3.049 0.149,1.887 0.081,-1.163 0.081,-2.963 -0.002,-4 -0.082,-1.038 -0.148,-0.087 -0.147,2.113 m -0.673,5.153 c -0.15,0.392 -0.262,1.013 -0.248,1.38 0.017,0.442 0.156,0.341 0.412,-0.299 0.212,-0.531 0.324,-1.152 0.248,-1.38 -0.076,-0.227 -0.261,-0.093 -0.412,0.299 m -51.175,2.42 c 0.174,1.539 0.045,2.113 -0.706,3.154 l -0.919,1.273 1.064,-0.97 c 1.107,-1.009 1.479,-3.554 0.7,-4.784 -0.215,-0.339 -0.269,0.175 -0.139,1.327 m 47.644,5.523 c -0.738,1.153 -1.856,2.683 -2.483,3.4 -0.628,0.717 -0.988,1.3 -0.8,1.296 0.361,-0.009 3.683,-4.366 4.492,-5.892 0.871,-1.642 0.153,-0.932 -1.209,1.196 m -5.689,6.908 c -1.071,0.988 -1.784,1.796 -1.584,1.796 0.201,0 1.159,-0.81 2.131,-1.8 2.27,-2.313 1.963,-2.311 -0.547,0.004 m -37.653,0.02 c -0.66,0.323 -0.84,0.478 -0.4,0.343 2.437,-0.748 3.638,-0.652 4.877,0.391 0.681,0.573 1.372,1.042 1.536,1.042 0.163,0 -0.382,-0.54 -1.213,-1.2 -1.659,-1.319 -2.965,-1.475 -4.8,-0.576 m 8.16,3.753 c 0.967,0.901 1.852,1.544 1.966,1.43 0.114,-0.114 0.132,-0.254 0.041,-0.311 -0.092,-0.057 -0.977,-0.701 -1.967,-1.43 l -1.8,-1.325 1.76,1.636 m 16.84,5.656 -1,0.815 1.3,-0.634 c 0.715,-0.349 1.3,-0.72 1.3,-0.824 0,-0.398 -0.637,-0.142 -1.6,0.643 m -2.533,1.413 c -0.623,0.338 -1.433,0.5 -1.8,0.36 -0.518,-0.197 -0.561,-0.146 -0.189,0.228 0.496,0.501 2.676,-0.112 3.154,-0.886 0.282,-0.456 0.178,-0.43 -1.165,0.298 m 29.133,14.732 c -5.87,1.18 -10.49,3.461 -14.498,7.155 -1.94,1.788 -4.902,5.876 -4.902,6.765 0,0.298 -0.15,0.713 -0.333,0.922 -1.564,1.787 -1.828,10.341 -0.44,14.269 6.42,18.172 35.078,22.168 47.962,6.686 14.12,-16.967 -4.182,-40.544 -27.789,-35.797 m 74.5,4.922 c 9.515,0.06 25.085,0.06 34.6,0 9.515,-0.06 1.73,-0.109 -17.3,-0.109 -19.03,0 -26.815,0.049 -17.3,0.109 m -17.812,15.376 c -0.049,8.512 0.047,15.56 0.212,15.663 0.273,0.169 0.266,-12.082 -0.014,-25.739 -0.061,-2.97 -0.15,1.564 -0.198,10.076"
       stroke="none"
       fill="#b37353"
       fill-rule="evenodd" />
    <path
       id="path5"
       d="m 134.667,287.467 c -0.766,0.765 -0.278,30.499 0.507,30.919 0.838,0.449 151.03,0.618 152.193,0.171 0.562,-0.215 0.633,-1.983 0.633,-15.8 V 287.2 h -76.533 c -42.094,0 -76.654,0.12 -76.8,0.267"
       stroke="none"
       fill="#6ba647"
       fill-rule="evenodd" />
    <path
       id="path6"
       d="m 81.161,205.7 c -0.942,1.155 -1.904,2.379 -2.137,2.72 -0.623,0.911 0.955,-0.796 2.622,-2.837 1.335,-1.633 1.505,-1.724 2.2,-1.176 0.695,0.547 0.711,0.538 0.205,-0.107 -0.797,-1.016 -0.999,-0.918 -2.89,1.4 m 5.536,2.4 c 0.216,0.275 1.049,1.369 1.849,2.431 0.799,1.061 1.454,1.798 1.454,1.637 0,-0.363 -3.22,-4.568 -3.498,-4.568 -0.11,0 -0.022,0.225 0.195,0.5 m -12.07,6.1 c -0.587,0.77 -0.924,1.398 -0.747,1.395 0.176,-0.003 0.727,-0.633 1.224,-1.4 1.164,-1.798 0.896,-1.795 -0.477,0.005 m 17.469,1.195 c 0.497,0.767 1.048,1.397 1.224,1.4 0.177,0.003 -0.16,-0.625 -0.747,-1.395 -1.373,-1.8 -1.641,-1.803 -0.477,-0.005 m 42.147,7.238 c -0.134,0.348 -0.243,7.173 -0.243,15.167 0,7.994 0.109,14.819 0.243,15.167 0.371,0.969 70.743,0.969 71.114,0 0.317,-0.826 0.317,-29.508 0,-30.334 -0.371,-0.969 -70.743,-0.969 -71.114,0 m 143.057,-0.334 65.5,0.103 v 15.4 15.4 l -65.3,-0.101 -65.3,-0.101 -0.207,-15.2 -0.207,-15.2 -0.087,15 c -0.048,8.25 0.056,15.226 0.231,15.501 0.254,0.399 13.698,0.481 65.894,0.4 L 343.4,253.4 v -15.6 -15.6 l -65.8,-0.002 -65.8,-0.002 65.5,0.103 M 205.2,237.8 v 15 H 170 134.8 v -15 -15 h 35.2 35.2 v 15 M 67.8,224.4 c -0.341,0.66 -0.531,1.2 -0.421,1.2 0.11,0 0.48,-0.54 0.821,-1.2 0.341,-0.66 0.531,-1.2 0.421,-1.2 -0.11,0 -0.48,0.54 -0.821,1.2 m -3.62,6.44 c -0.569,1.122 -0.967,2.107 -0.885,2.189 0.082,0.082 0.632,-0.836 1.223,-2.04 0.59,-1.204 0.988,-2.189 0.884,-2.189 -0.104,0 -0.654,0.918 -1.222,2.04 m 39.059,3.26 c 0.876,2.223 1.463,3.158 0.963,1.535 -0.477,-1.548 -1.396,-3.635 -1.602,-3.635 -0.103,0 0.184,0.945 0.639,2.1 m -41.593,2.767 c -0.025,0.367 -0.15,0.997 -0.276,1.4 -0.218,0.695 -0.207,0.696 0.227,0.02 0.251,-0.391 0.376,-1.021 0.276,-1.4 -0.162,-0.619 -0.185,-0.621 -0.227,-0.02 m 6.616,1.433 c -0.102,0.165 0.5,0.3 1.338,0.3 0.838,0 1.44,-0.135 1.338,-0.3 -0.102,-0.165 -0.704,-0.3 -1.338,-0.3 -0.634,0 -1.236,0.135 -1.338,0.3 m -7.334,3.7 c 0,1.43 0.073,2.015 0.161,1.3 0.089,-0.715 0.089,-1.885 0,-2.6 -0.088,-0.715 -0.161,-0.13 -0.161,1.3 m 44.392,0 c 0,1.21 0.075,1.705 0.167,1.1 0.091,-0.605 0.091,-1.595 0,-2.2 -0.092,-0.605 -0.167,-0.11 -0.167,1.1 m -38.864,1.2 c 0,0.33 0.155,0.96 0.344,1.4 0.217,0.504 0.344,0.578 0.344,0.2 0,-0.33 -0.155,-0.96 -0.344,-1.4 -0.217,-0.504 -0.344,-0.578 -0.344,-0.2 m 38.144,3.2 c -0.152,0.691 -0.193,1.341 -0.091,1.442 0.102,0.102 0.3,-0.389 0.441,-1.092 0.333,-1.667 0.01,-1.99 -0.35,-0.35 M 61.268,246 c 0.02,1.039 0.65,2.746 0.664,1.8 0.006,-0.44 -0.143,-1.16 -0.332,-1.6 -0.211,-0.49 -0.339,-0.568 -0.332,-0.2 m 7.375,2.727 c 0.416,0.73 1.105,1.63 1.531,2 0.45,0.391 0.292,0.004 -0.378,-0.927 -1.603,-2.226 -2.046,-2.639 -1.153,-1.073 m 8.557,-0.131 c 0,0.274 2.449,1.488 2.632,1.305 0.087,-0.087 -0.47,-0.457 -1.237,-0.823 -0.767,-0.366 -1.395,-0.583 -1.395,-0.482 m 25.6,2.814 c -0.77,1.608 -1.198,2.756 -0.952,2.551 0.499,-0.415 2.702,-5.15 2.488,-5.348 -0.075,-0.069 -0.766,1.189 -1.536,2.797 m -32,0.315 c 0,0.099 0.661,0.684 1.468,1.3 0.808,0.616 1.343,0.916 1.188,0.666 -0.316,-0.512 -2.656,-2.244 -2.656,-1.966 m -6.523,1.906 c 0.398,0.677 0.979,1.442 1.291,1.7 0.312,0.258 0.064,-0.296 -0.553,-1.231 -1.295,-1.963 -1.806,-2.288 -0.738,-0.469 m 2.123,2.633 c 0,0.218 0.495,0.833 1.1,1.366 l 1.1,0.97 -1,-1.2 c -0.55,-0.66 -1.045,-1.275 -1.1,-1.367 -0.055,-0.091 -0.1,0.012 -0.1,0.231 m 13.335,0.628 c 0.609,0.387 2.966,0.393 3.202,0.008 0.101,-0.165 -0.683,-0.301 -1.742,-0.302 -1.059,-0.001 -1.716,0.131 -1.46,0.294 m 14.565,3.737 c -1.495,0.811 -1.404,1.149 0.1,0.371 0.66,-0.341 1.2,-0.706 1.2,-0.81 0,-0.258 -0.043,-0.243 -1.3,0.439 M 79.2,263.6 c 0.55,0.176 1.45,0.317 2,0.313 0.898,-0.007 0.878,-0.039 -0.2,-0.313 -1.692,-0.431 -3.144,-0.431 -1.8,0 m 6.2,0 c -1.078,0.274 -1.098,0.306 -0.2,0.313 0.55,0.004 1.45,-0.137 2,-0.313 1.344,-0.431 -0.108,-0.431 -1.8,0 m 209.183,23.701 c -0.106,0.276 -0.146,7.431 -0.088,15.9 l 0.105,15.399 23.6,0.111 c 12.98,0.06 24.005,0.012 24.5,-0.108 l 0.9,-0.218 v -15.313 c 0,-11.376 -0.123,-15.435 -0.48,-15.792 -0.713,-0.713 -48.264,-0.693 -48.537,0.021 M 342.8,303 v 15.4 h -24 -24 V 303 287.6 h 24 24 V 303 m -95.905,65.7 -0.095,15.7 34.7,-0.098 34.7,-0.097 L 281.705,384.1 247.209,383.996 247.1,368.498 246.99,353 246.895,368.7 M 342.8,368.6 V 384 h -4.62 c -3.338,0 -4.944,0.168 -5.788,0.604 -1.17,0.605 -2.251,2.07 -1.836,2.486 0.122,0.121 0.393,-0.229 0.602,-0.78 0.557,-1.465 1.302,-1.666 7.042,-1.899 l 5.2,-0.211 0.105,-15.5 c 0.069,-10.256 -0.033,-15.5 -0.3,-15.5 -0.266,0 -0.405,5.281 -0.405,15.4 M 68.71,357.201 c 1.698,1.036 2.254,1.035 0.69,-0.001 -0.66,-0.437 -1.38,-0.795 -1.6,-0.796 -0.22,0 0.189,0.358 0.91,0.797 m -7.851,4.623 c -0.039,1.319 0.16,2.293 0.571,2.8 0.346,0.427 0.483,0.506 0.304,0.176 -0.179,-0.33 -0.436,-1.59 -0.571,-2.8 l -0.245,-2.2 -0.059,2.024 m 12.054,2.017 c 0.728,0.776 13.298,1.618 12.826,0.859 -0.102,-0.165 -2.746,-0.3 -5.874,-0.3 -4.615,0 -5.873,-0.124 -6.676,-0.659 -0.966,-0.644 -0.972,-0.641 -0.276,0.1 m 12.537,3.409 c -0.312,1.559 -0.258,5.84 0.09,7.074 0.143,0.508 0.26,-1.157 0.26,-3.7 0,-5.137 0.001,-5.129 -0.35,-3.374 m -20.617,0.071 c 0.092,0.067 0.707,0.437 1.367,0.824 l 1.2,0.702 -0.944,-0.823 c -0.52,-0.453 -1.135,-0.824 -1.367,-0.824 -0.232,0 -0.347,0.054 -0.256,0.121 m 2.677,2.922 c 0.125,0.652 -0.122,1.475 -0.687,2.288 l -0.881,1.269 1.029,-1.122 c 1.005,-1.097 1.37,-2.82 0.687,-3.242 -0.188,-0.117 -0.255,0.247 -0.148,0.807 m 9.59,6.454 c 1.595,0.076 4.205,0.076 5.8,0 1.595,-0.076 0.29,-0.138 -2.9,-0.138 -3.19,0 -4.495,0.062 -2.9,0.138 M 60.914,379.4 c 0.003,1.1 0.081,1.503 0.173,0.895 0.092,-0.609 0.09,-1.509 -0.005,-2 -0.095,-0.492 -0.171,0.005 -0.168,1.105 m 10.638,0.913 c -0.131,0.794 -0.073,1.168 0.149,0.946 0.202,-0.202 0.3,-0.792 0.218,-1.313 -0.126,-0.801 -0.182,-0.744 -0.367,0.367 m -10.053,1.891 c 0.464,0.875 2.046,2.426 2.203,2.16 0.054,-0.09 -0.516,-0.794 -1.266,-1.564 -0.75,-0.77 -1.171,-1.038 -0.937,-0.596 M 66.4,384.8 c -0.804,0.257 -0.843,0.323 -0.2,0.332 0.44,0.006 1.16,-0.143 1.6,-0.332 1.019,-0.438 -0.032,-0.438 -1.4,0 m 250.901,0.394 c 0.555,0.436 1.128,1.267 1.274,1.847 0.145,0.579 0.35,0.967 0.456,0.862 0.558,-0.559 -1.386,-3.503 -2.314,-3.503 -0.233,0 0.029,0.357 0.584,0.794"
       stroke="none"
       fill="#848c8c"
       fill-rule="evenodd" />
    <path
       id="path7"
       d="m 271.131,353.1 c 13.272,0.058 34.872,0.058 48,0 13.128,-0.059 2.269,-0.106 -24.131,-0.106 -26.4,0 -37.141,0.047 -23.869,0.106"
       stroke="none"
       fill="#3e6c6c"
       fill-rule="evenodd" />
    <path
       id="path8"
       d="m 249.781,54.1 -1.581,1.7 1.7,-1.581 c 1.581,-1.471 1.884,-1.819 1.581,-1.819 -0.065,0 -0.83,0.765 -1.7,1.7 M 213,72 c 0.859,0.88 1.652,1.6 1.762,1.6 0.11,0 -0.503,-0.72 -1.362,-1.6 -0.859,-0.88 -1.652,-1.6 -1.762,-1.6 -0.11,0 0.503,0.72 1.362,1.6 m -12.256,1.9 c -1.151,1.389 -1.638,2.1 -1.44,2.1 0.11,0 0.682,-0.63 1.269,-1.4 1.09,-1.429 1.222,-1.968 0.171,-0.7 m -60.651,27.7 c 0,0.77 0.082,1.085 0.183,0.7 0.1,-0.385 0.1,-1.015 0,-1.4 -0.101,-0.385 -0.183,-0.07 -0.183,0.7 M 309.9,100.662 c 0.495,0.107 0.9,0.44 0.9,0.742 0,0.302 0.178,0.659 0.395,0.793 0.251,0.155 0.271,-0.09 0.056,-0.677 -0.211,-0.575 -0.697,-0.945 -1.295,-0.986 -0.902,-0.061 -0.905,-0.054 -0.056,0.128 M 294,105.2 c -0.824,0.264 -0.859,0.326 -0.2,0.354 0.44,0.019 1.07,-0.141 1.4,-0.354 0.701,-0.453 0.214,-0.453 -1.2,0 m -3.144,0.859 c -0.739,0.213 -1.269,0.461 -1.177,0.553 0.202,0.202 3.121,-0.575 3.121,-0.831 0,-0.235 -0.318,-0.19 -1.944,0.278 M 286,107.6 c -0.824,0.264 -0.859,0.326 -0.2,0.354 0.44,0.019 1.07,-0.141 1.4,-0.354 0.701,-0.453 0.214,-0.453 -1.2,0 m -183.223,1.061 c -0.222,0.583 -0.334,1.258 -0.25,1.5 0.084,0.241 0.282,-0.135 0.439,-0.837 0.221,-0.981 0.535,-1.314 1.361,-1.44 l 1.073,-0.164 -1.11,-0.06 c -0.86,-0.047 -1.2,0.178 -1.513,1.001 m 3.423,-0.28 c 0.768,0.348 2.91,0.575 2.567,0.272 -0.092,-0.081 -0.887,-0.257 -1.767,-0.391 -1.115,-0.169 -1.358,-0.133 -0.8,0.119 m 34.225,0.47 c -0.028,0.74 1.061,1.796 1.451,1.406 0.142,-0.141 0.042,-0.257 -0.222,-0.257 -0.264,0 -0.643,-0.405 -0.842,-0.9 -0.244,-0.609 -0.369,-0.69 -0.387,-0.249 M 188.131,111 c 0.002,1.54 0.074,2.121 0.161,1.291 0.087,-0.83 0.085,-2.09 -0.003,-2.8 -0.089,-0.71 -0.16,-0.031 -0.158,1.509 m -6.003,0.2 c 0,1.43 0.073,2.015 0.161,1.3 0.089,-0.715 0.089,-1.885 0,-2.6 -0.088,-0.715 -0.161,-0.13 -0.161,1.3 m -71.695,-1.853 c 0.092,0.081 0.887,0.257 1.767,0.391 1.115,0.169 1.358,0.133 0.8,-0.119 -0.768,-0.348 -2.91,-0.575 -2.567,-0.272 m 167.223,0.712 c -0.739,0.213 -1.269,0.461 -1.177,0.553 0.202,0.202 3.121,-0.575 3.121,-0.831 0,-0.235 -0.318,-0.19 -1.944,0.278 m -175.827,2.17 c -0.148,0.586 -0.191,1.143 -0.097,1.237 0.095,0.094 0.292,-0.308 0.439,-0.895 0.148,-0.586 0.191,-1.143 0.097,-1.237 -0.095,-0.094 -0.292,0.308 -0.439,0.895 M 122,112 c 1.368,0.438 2.419,0.438 1.4,0 -0.44,-0.189 -1.16,-0.338 -1.6,-0.332 -0.643,0.009 -0.604,0.075 0.2,0.332 m 114.501,1.4 c 0.004,0.88 0.086,1.193 0.182,0.695 0.096,-0.497 0.092,-1.217 -0.008,-1.6 -0.1,-0.382 -0.179,0.025 -0.174,0.905 m -112.068,-0.857 c 0.092,0.078 0.797,0.258 1.567,0.399 0.985,0.181 1.222,0.14 0.8,-0.136 -0.542,-0.356 -2.763,-0.603 -2.367,-0.263 m 4.367,1.057 c 1.368,0.438 2.419,0.438 1.4,0 -0.44,-0.189 -1.16,-0.338 -1.6,-0.332 -0.643,0.009 -0.604,0.075 0.2,0.332 m 137.2,0 c -0.795,0.514 0.204,0.514 1.4,0 l 0.8,-0.344 -0.8,-0.022 c -0.44,-0.012 -1.07,0.153 -1.4,0.366 m -133.6,0.8 c 1.368,0.438 2.419,0.438 1.4,0 -0.44,-0.189 -1.16,-0.338 -1.6,-0.332 -0.643,0.009 -0.604,0.075 0.2,0.332 m -31.371,1.029 c -0.148,0.586 -0.191,1.143 -0.097,1.237 0.095,0.094 0.292,-0.308 0.439,-0.895 0.148,-0.586 0.191,-1.143 0.097,-1.237 -0.095,-0.094 -0.292,0.308 -0.439,0.895 M 314.6,116 c -0.341,0.66 -0.531,1.2 -0.421,1.2 0.11,0 0.48,-0.54 0.821,-1.2 0.341,-0.66 0.531,-1.2 0.421,-1.2 -0.11,0 -0.48,0.54 -0.821,1.2 m -175.2,0 c 0.44,0.189 1.07,0.344 1.4,0.344 0.378,0 0.304,-0.127 -0.2,-0.344 -0.44,-0.189 -1.07,-0.344 -1.4,-0.344 -0.378,0 -0.304,0.127 0.2,0.344 m 3.4,0.8 c 1.368,0.438 2.419,0.438 1.4,0 -0.44,-0.189 -1.16,-0.338 -1.6,-0.332 -0.643,0.009 -0.604,0.075 0.2,0.332 m 3.4,0.8 c 0.44,0.189 1.16,0.338 1.6,0.332 0.643,-0.009 0.604,-0.075 -0.2,-0.332 -1.368,-0.438 -2.419,-0.438 -1.4,0 m -45.971,1.029 c -0.148,0.586 -0.191,1.143 -0.097,1.237 0.095,0.094 0.292,-0.308 0.439,-0.895 0.148,-0.586 0.191,-1.143 0.097,-1.237 -0.095,-0.094 -0.292,0.308 -0.439,0.895 m 212.785,0.006 c -0.373,0.569 -0.609,1.103 -0.525,1.187 0.084,0.085 0.469,-0.381 0.855,-1.034 0.862,-1.46 0.604,-1.579 -0.33,-0.153 M 149.8,118.4 c 0.44,0.189 1.07,0.344 1.4,0.344 0.378,0 0.304,-0.127 -0.2,-0.344 -0.44,-0.189 -1.07,-0.344 -1.4,-0.344 -0.378,0 -0.304,0.127 0.2,0.344 m 3.4,0.8 c 0.33,0.213 0.96,0.378 1.4,0.366 l 0.8,-0.022 -0.8,-0.344 c -1.196,-0.514 -2.195,-0.514 -1.4,0 m 3.4,0.8 c 0.44,0.189 1.16,0.338 1.6,0.332 0.643,-0.009 0.604,-0.075 -0.2,-0.332 -1.368,-0.438 -2.419,-0.438 -1.4,0 m 88.4,0 c -0.504,0.217 -0.578,0.344 -0.2,0.344 0.33,0 0.96,-0.155 1.4,-0.344 0.504,-0.217 0.578,-0.344 0.2,-0.344 -0.33,0 -0.96,0.155 -1.4,0.344 m -84.8,0.8 c 0.44,0.189 1.16,0.338 1.6,0.332 0.643,-0.009 0.604,-0.075 -0.2,-0.332 -1.368,-0.438 -2.419,-0.438 -1.4,0 m -60.748,0.9 c -0.328,1.223 -0.302,2.802 0.054,3.36 0.162,0.253 0.3,-0.602 0.308,-1.9 0.016,-2.627 -0.016,-2.752 -0.362,-1.46 m 64.148,-0.106 c 0.33,0.217 1.035,0.397 1.567,0.4 1.284,0.008 0.958,-0.219 -0.767,-0.536 -0.985,-0.181 -1.222,-0.14 -0.8,0.136 m 147.014,1.041 c -0.373,0.569 -0.609,1.103 -0.525,1.187 0.084,0.085 0.469,-0.381 0.855,-1.034 0.862,-1.46 0.604,-1.579 -0.33,-0.153 M 167,122.4 c 0.44,0.189 1.16,0.338 1.6,0.332 0.643,-0.009 0.604,-0.075 -0.2,-0.332 -1.368,-0.438 -2.419,-0.438 -1.4,0 m 70.2,0 c -0.824,0.264 -0.859,0.326 -0.2,0.354 0.44,0.019 1.07,-0.141 1.4,-0.354 0.701,-0.453 0.214,-0.453 -1.2,0 m -63.4,1.581 c 0.768,0.348 2.91,0.575 2.567,0.272 -0.092,-0.081 -0.887,-0.257 -1.767,-0.391 -1.115,-0.169 -1.358,-0.133 -0.8,0.119 M 232,124 c -0.824,0.264 -0.859,0.326 -0.2,0.354 0.44,0.019 1.07,-0.141 1.4,-0.354 0.701,-0.453 0.214,-0.453 -1.2,0 m -3.144,0.859 c -0.739,0.213 -1.269,0.461 -1.177,0.553 0.202,0.202 3.121,-0.575 3.121,-0.831 0,-0.235 -0.318,-0.19 -1.944,0.278 m 80.497,0.041 c -1.377,2.336 -1.467,2.535 -0.766,1.7 0.813,-0.968 1.513,-2.2 1.251,-2.2 -0.105,0 -0.323,0.225 -0.485,0.5 m -84.153,1.118 c -0.438,0.297 -0.276,0.334 0.6,0.138 1.471,-0.329 1.79,-0.558 0.767,-0.55 -0.422,0.003 -1.037,0.189 -1.367,0.412 m -39.967,0.526 c 0.092,0.079 0.707,0.264 1.367,0.412 0.876,0.196 1.038,0.159 0.6,-0.138 -0.54,-0.365 -2.368,-0.62 -1.967,-0.274 m 35.623,0.715 c -0.739,0.213 -1.269,0.461 -1.177,0.553 0.202,0.202 3.121,-0.575 3.121,-0.831 0,-0.235 -0.318,-0.19 -1.944,0.278 m -32.823,0.085 c 0.092,0.08 0.977,0.252 1.967,0.383 1.202,0.159 1.534,0.12 1,-0.117 -0.764,-0.338 -3.314,-0.567 -2.967,-0.266 m 118.604,2.029 c -0.572,0.976 -1.413,1.892 -1.868,2.037 -0.456,0.145 -0.731,0.361 -0.612,0.481 0.432,0.431 2.062,-1.017 2.969,-2.637 1.244,-2.223 0.823,-2.12 -0.489,0.119 m -113.906,-1.087 c 0.603,0.115 0.853,0.378 0.712,0.746 -0.279,0.727 0.319,0.737 0.918,0.015 0.531,-0.64 -0.228,-1.085 -1.694,-0.993 -0.822,0.052 -0.819,0.064 0.064,0.232 M 212,130 c -0.533,0.345 -0.533,0.388 0,0.388 0.33,0 0.87,-0.175 1.2,-0.388 0.533,-0.345 0.533,-0.388 0,-0.388 -0.33,0 -0.87,0.175 -1.2,0.388 m -5,1.6 c -0.504,0.217 -0.578,0.344 -0.2,0.344 0.33,0 0.96,-0.155 1.4,-0.344 0.504,-0.217 0.578,-0.344 0.2,-0.344 -0.33,0 -0.96,0.155 -1.4,0.344 m -29.4,2.4 c -0.533,0.345 -0.533,0.388 0,0.388 0.33,0 0.87,-0.175 1.2,-0.388 0.533,-0.345 0.533,-0.388 0,-0.388 -0.33,0 -0.87,0.175 -1.2,0.388 m 116.4,0.8 c -0.533,0.345 -0.533,0.388 0,0.388 0.33,0 0.87,-0.175 1.2,-0.388 0.533,-0.345 0.533,-0.388 0,-0.388 -0.33,0 -0.87,0.175 -1.2,0.388 m -191.6,0.484 c 0,0.34 0.299,0.865 0.665,1.167 0.609,0.502 0.622,0.464 0.146,-0.451 -0.697,-1.341 -0.811,-1.442 -0.811,-0.716 m 186.4,1.116 c -0.533,0.345 -0.533,0.388 0,0.388 0.33,0 0.87,-0.175 1.2,-0.388 0.533,-0.345 0.533,-0.388 0,-0.388 -0.33,0 -0.87,0.175 -1.2,0.388 m -184.2,0.8 c 0.44,0.189 1.16,0.338 1.6,0.332 0.643,-0.009 0.604,-0.075 -0.2,-0.332 -1.368,-0.438 -2.419,-0.438 -1.4,0 m 3.2,0.8 c 0.44,0.189 1.16,0.338 1.6,0.332 0.643,-0.009 0.604,-0.075 -0.2,-0.332 -1.368,-0.438 -2.419,-0.438 -1.4,0 m 56.6,0 c -0.824,0.264 -0.859,0.326 -0.2,0.354 0.44,0.019 1.07,-0.141 1.4,-0.354 0.701,-0.453 0.214,-0.453 -1.2,0 m -53.4,0.8 c 0.44,0.189 1.16,0.338 1.6,0.332 0.643,-0.009 0.604,-0.075 -0.2,-0.332 -1.368,-0.438 -2.419,-0.438 -1.4,0 m 3.2,0.8 c 0.44,0.189 1.16,0.338 1.6,0.332 0.643,-0.009 0.604,-0.075 -0.2,-0.332 -1.368,-0.438 -2.419,-0.438 -1.4,0 m 45,0 c -0.824,0.264 -0.859,0.326 -0.2,0.354 0.44,0.019 1.07,-0.141 1.4,-0.354 0.701,-0.453 0.214,-0.453 -1.2,0 m 21.2,0 c -0.824,0.264 -0.859,0.326 -0.2,0.354 0.44,0.019 1.07,-0.141 1.4,-0.354 0.701,-0.453 0.214,-0.453 -1.2,0 m 97.656,0.059 c -0.739,0.213 -1.269,0.461 -1.177,0.553 0.202,0.202 3.121,-0.575 3.121,-0.831 0,-0.235 -0.318,-0.19 -1.944,0.278 M 117.4,140.4 c 0.44,0.189 1.16,0.338 1.6,0.332 0.643,-0.009 0.604,-0.075 -0.2,-0.332 -1.368,-0.438 -2.419,-0.438 -1.4,0 m 38.656,0.059 c -0.739,0.213 -1.269,0.461 -1.177,0.553 0.202,0.202 3.121,-0.575 3.121,-0.831 0,-0.235 -0.318,-0.19 -1.944,0.278 M 273,141.2 c -1.922,0.89 -1.616,1.029 0.492,0.224 0.829,-0.317 1.868,-0.656 2.308,-0.754 0.626,-0.139 0.583,-0.181 -0.2,-0.194 -0.55,-0.009 -1.72,0.317 -2.6,0.724 m -152.4,-0.054 c 1.171,0.488 3.726,0.912 3,0.498 -0.33,-0.188 -1.32,-0.452 -2.2,-0.586 -1.009,-0.155 -1.305,-0.122 -0.8,0.088 m 30.256,0.913 c -0.739,0.213 -1.269,0.461 -1.177,0.553 0.202,0.202 3.121,-0.575 3.121,-0.831 0,-0.235 -0.318,-0.19 -1.944,0.278 m 21.2,0 c -0.739,0.213 -1.269,0.461 -1.177,0.553 0.202,0.202 3.121,-0.575 3.121,-0.831 0,-0.235 -0.318,-0.19 -1.944,0.278 m -47.623,0.088 c 0.092,0.081 0.887,0.257 1.767,0.391 1.115,0.169 1.358,0.133 0.8,-0.119 -0.768,-0.348 -2.91,-0.575 -2.567,-0.272 m 22.767,1.071 c -0.438,0.297 -0.276,0.334 0.6,0.138 1.471,-0.329 1.79,-0.558 0.767,-0.55 -0.422,0.003 -1.037,0.189 -1.367,0.412 m -12,1.582 c 1.368,0.438 2.419,0.438 1.4,0 -0.44,-0.189 -1.16,-0.338 -1.6,-0.332 -0.643,0.009 -0.604,0.075 0.2,0.332 m 28,0.018 c -0.438,0.297 -0.276,0.334 0.6,0.138 1.471,-0.329 1.79,-0.558 0.767,-0.55 -0.422,0.003 -1.037,0.189 -1.367,0.412 m -24.9,0.664 c 0.495,0.096 1.305,0.096 1.8,0 0.495,-0.095 0.09,-0.173 -0.9,-0.173 -0.99,0 -1.395,0.078 -0.9,0.173 m 16.9,1.718 c -0.533,0.345 -0.533,0.388 0,0.388 0.33,0 0.87,-0.175 1.2,-0.388 0.533,-0.345 0.533,-0.388 0,-0.388 -0.33,0 -0.87,0.175 -1.2,0.388 m 123.2,0.8 c 1.368,0.438 2.419,0.438 1.4,0 -0.44,-0.189 -1.16,-0.338 -1.6,-0.332 -0.643,0.009 -0.604,0.075 0.2,0.332 M 150,148.8 c -0.533,0.345 -0.533,0.388 0,0.388 0.33,0 0.87,-0.175 1.2,-0.388 0.533,-0.345 0.533,-0.388 0,-0.388 -0.33,0 -0.87,0.175 -1.2,0.388 m 131.8,0 c 0.44,0.189 1.07,0.344 1.4,0.344 0.378,0 0.304,-0.127 -0.2,-0.344 -0.44,-0.189 -1.07,-0.344 -1.4,-0.344 -0.378,0 -0.304,0.127 0.2,0.344 m -14.6,0.8 c -0.533,0.345 -0.533,0.388 0,0.388 0.33,0 0.87,-0.175 1.2,-0.388 0.533,-0.345 0.533,-0.388 0,-0.388 -0.33,0 -0.87,0.175 -1.2,0.388 m 18.2,0 c 0.44,0.189 1.07,0.344 1.4,0.344 0.378,0 0.304,-0.127 -0.2,-0.344 -0.44,-0.189 -1.07,-0.344 -1.4,-0.344 -0.378,0 -0.304,0.127 0.2,0.344 m 3.2,0.8 c 0.44,0.189 1.07,0.344 1.4,0.344 0.378,0 0.304,-0.127 -0.2,-0.344 -0.44,-0.189 -1.07,-0.344 -1.4,-0.344 -0.378,0 -0.304,0.127 0.2,0.344 m -47.4,0.8 c -0.533,0.345 -0.533,0.388 0,0.388 0.33,0 0.87,-0.175 1.2,-0.388 0.533,-0.345 0.533,-0.388 0,-0.388 -0.33,0 -0.87,0.175 -1.2,0.388 m 51,0 c 0.44,0.189 1.07,0.344 1.4,0.344 0.378,0 0.304,-0.127 -0.2,-0.344 -0.44,-0.189 -1.07,-0.344 -1.4,-0.344 -0.378,0 -0.304,0.127 0.2,0.344 m 3.4,0.8 c 0.33,0.213 0.96,0.378 1.4,0.366 l 0.8,-0.022 L 297,152 c -1.196,-0.514 -2.195,-0.514 -1.4,0 m 3.4,0.8 c 0.44,0.189 1.16,0.338 1.6,0.332 0.643,-0.009 0.604,-0.075 -0.2,-0.332 -1.368,-0.438 -2.419,-0.438 -1.4,0 m 3.6,0.8 c 0.44,0.189 1.16,0.338 1.6,0.332 0.643,-0.009 0.604,-0.075 -0.2,-0.332 -1.368,-0.438 -2.419,-0.438 -1.4,0 m -171,0.8 c -0.824,0.264 -0.859,0.326 -0.2,0.354 0.44,0.019 1.07,-0.141 1.4,-0.354 0.701,-0.453 0.214,-0.453 -1.2,0 m 174.6,0 c 0.44,0.189 1.07,0.344 1.4,0.344 0.378,0 0.304,-0.127 -0.2,-0.344 -0.44,-0.189 -1.07,-0.344 -1.4,-0.344 -0.378,0 -0.304,0.127 0.2,0.344 m -57,0.8 c -0.824,0.264 -0.859,0.326 -0.2,0.354 0.44,0.019 1.07,-0.141 1.4,-0.354 0.701,-0.453 0.214,-0.453 -1.2,0 m 60.4,-0.018 c 0.33,0.223 0.901,0.409 1.268,0.412 0.532,0.005 0.72,0.556 0.924,2.706 0.376,3.96 0.612,4.393 0.394,0.718 -0.209,-3.501 -0.257,-3.598 -1.986,-3.979 -0.878,-0.193 -1.039,-0.154 -0.6,0.143 m -84.344,0.877 c -0.739,0.213 -1.269,0.461 -1.177,0.553 0.202,0.202 3.121,-0.575 3.121,-0.831 0,-0.235 -0.318,-0.19 -1.944,0.278 M 123.6,156.8 c -0.824,0.264 -0.859,0.326 -0.2,0.354 0.44,0.019 1.07,-0.141 1.4,-0.354 0.701,-0.453 0.214,-0.453 -1.2,0 m 120.4,0 c -0.824,0.264 -0.859,0.326 -0.2,0.354 0.44,0.019 1.07,-0.141 1.4,-0.354 0.701,-0.453 0.214,-0.453 -1.2,0 m -123.544,0.859 c -0.739,0.213 -1.269,0.461 -1.177,0.553 0.202,0.202 3.121,-0.575 3.121,-0.831 0,-0.235 -0.318,-0.19 -1.944,0.278 m 99.6,0 c -0.739,0.213 -1.269,0.461 -1.177,0.553 0.202,0.202 3.121,-0.575 3.121,-0.831 0,-0.235 -0.318,-0.19 -1.944,0.278 M 238.8,158.4 c -0.824,0.264 -0.859,0.326 -0.2,0.354 0.44,0.019 1.07,-0.141 1.4,-0.354 0.701,-0.453 0.214,-0.453 -1.2,0 m -123.544,0.859 c -0.739,0.213 -1.269,0.461 -1.177,0.553 0.202,0.202 3.121,-0.575 3.121,-0.831 0,-0.235 -0.318,-0.19 -1.944,0.278 M 214,159.618 c -0.438,0.297 -0.276,0.334 0.6,0.138 1.471,-0.329 1.79,-0.558 0.767,-0.55 -0.422,0.003 -1.037,0.189 -1.367,0.412 m -102.4,0.8 c -0.438,0.297 -0.276,0.334 0.6,0.138 1.471,-0.329 1.79,-0.558 0.767,-0.55 -0.422,0.003 -1.037,0.189 -1.367,0.412 m 94.4,1.6 c -0.438,0.297 -0.276,0.334 0.6,0.138 1.471,-0.329 1.79,-0.558 0.767,-0.55 -0.422,0.003 -1.037,0.189 -1.367,0.412 m 21.2,0 c -0.438,0.297 -0.276,0.334 0.6,0.138 1.471,-0.329 1.79,-0.558 0.767,-0.55 -0.422,0.003 -1.037,0.189 -1.367,0.412 m -126.153,1.698 c -0.526,0.385 -0.664,0.918 -0.543,2.1 l 0.162,1.584 0.067,-1.667 c 0.057,-1.426 0.226,-1.724 1.167,-2.068 0.605,-0.221 0.819,-0.416 0.476,-0.433 -0.342,-0.018 -0.941,0.2 -1.329,0.484 m 118.097,1.071 c -0.792,0.66 -0.831,0.789 -0.244,0.8 0.385,0.007 0.7,-0.173 0.7,-0.4 0,-0.227 0.405,-0.576 0.9,-0.775 0.617,-0.248 0.694,-0.369 0.244,-0.387 -0.36,-0.014 -1.08,0.329 -1.6,0.762 M 196,165.2 c -0.533,0.345 -0.533,0.388 0,0.388 0.33,0 0.87,-0.175 1.2,-0.388 0.533,-0.345 0.533,-0.388 0,-0.388 -0.33,0 -0.87,0.175 -1.2,0.388 m 116.44,2.033 c 0.021,1.412 0.182,3.557 0.357,4.767 0.211,1.461 0.247,0.654 0.107,-2.4 -0.228,-4.989 -0.528,-6.517 -0.464,-2.367 M 221,166 c 0.44,0.189 1.07,0.344 1.4,0.344 0.378,0 0.304,-0.127 -0.2,-0.344 -0.44,-0.189 -1.07,-0.344 -1.4,-0.344 -0.378,0 -0.304,0.127 0.2,0.344 m 3.2,0.8 c 0.44,0.189 1.07,0.344 1.4,0.344 0.378,0 0.304,-0.127 -0.2,-0.344 -0.44,-0.189 -1.07,-0.344 -1.4,-0.344 -0.378,0 -0.304,0.127 0.2,0.344 m 6.6,1.582 c 0.33,0.223 0.945,0.409 1.367,0.412 1.023,0.008 0.704,-0.221 -0.767,-0.55 -0.876,-0.196 -1.038,-0.159 -0.6,0.138 m -47.6,0.818 c -0.533,0.345 -0.533,0.388 0,0.388 0.33,0 0.87,-0.175 1.2,-0.388 0.533,-0.345 0.533,-0.388 0,-0.388 -0.33,0 -0.87,0.175 -1.2,0.388 m 51,0 c 0.44,0.189 1.07,0.344 1.4,0.344 0.378,0 0.304,-0.127 -0.2,-0.344 -0.44,-0.189 -1.07,-0.344 -1.4,-0.344 -0.378,0 -0.304,0.127 0.2,0.344 m 3.2,0.8 c 0.44,0.189 1.07,0.344 1.4,0.344 0.378,0 0.304,-0.127 -0.2,-0.344 -0.44,-0.189 -1.07,-0.344 -1.4,-0.344 -0.378,0 -0.304,0.127 0.2,0.344 m 3.2,0.8 c 0.44,0.189 1.07,0.344 1.4,0.344 0.378,0 0.304,-0.127 -0.2,-0.344 -0.44,-0.189 -1.07,-0.344 -1.4,-0.344 -0.378,0 -0.304,0.127 0.2,0.344 m -139.706,1.8 c -0.013,1.1 0.116,2.9 0.288,4 0.437,2.808 0.465,-0.125 0.033,-3.6 l -0.297,-2.4 -0.024,2 m 71.562,-0.141 c -0.739,0.213 -1.269,0.461 -1.177,0.553 0.202,0.202 3.121,-0.575 3.121,-0.831 0,-0.235 -0.318,-0.19 -1.944,0.278 M 247,172.4 c 0.44,0.189 1.16,0.338 1.6,0.332 0.643,-0.009 0.604,-0.075 -0.2,-0.332 -1.368,-0.438 -2.419,-0.438 -1.4,0 m 3.2,0.8 c 0.44,0.189 1.16,0.338 1.6,0.332 0.643,-0.009 0.604,-0.075 -0.2,-0.332 -1.368,-0.438 -2.419,-0.438 -1.4,0 m -82.944,0.859 c -0.739,0.213 -1.269,0.461 -1.177,0.553 0.202,0.202 3.121,-0.575 3.121,-0.831 0,-0.235 -0.318,-0.19 -1.944,0.278 M 253.4,174 c 0.44,0.189 1.16,0.338 1.6,0.332 0.643,-0.009 0.604,-0.075 -0.2,-0.332 -1.368,-0.438 -2.419,-0.438 -1.4,0 m -92.2,2.018 c -0.438,0.297 -0.276,0.334 0.6,0.138 1.471,-0.329 1.79,-0.558 0.767,-0.55 -0.422,0.003 -1.037,0.189 -1.367,0.412 m 99.233,-0.275 c 0.092,0.078 0.797,0.258 1.567,0.399 0.985,0.181 1.222,0.14 0.8,-0.136 -0.542,-0.356 -2.763,-0.603 -2.367,-0.263 m 3.2,0.8 c 0.092,0.078 0.797,0.258 1.567,0.399 0.985,0.181 1.222,0.14 0.8,-0.136 -0.542,-0.356 -2.763,-0.603 -2.367,-0.263 m 3.6,0.801 c 0.092,0.079 0.707,0.264 1.367,0.412 0.876,0.196 1.038,0.159 0.6,-0.138 -0.54,-0.365 -2.368,-0.62 -1.967,-0.274 m 3.967,1.056 c 1.368,0.438 2.419,0.438 1.4,0 -0.44,-0.189 -1.16,-0.338 -1.6,-0.332 -0.643,0.009 -0.604,0.075 0.2,0.332 m 39.4,1.2 c -0.341,0.66 -0.531,1.2 -0.421,1.2 0.11,0 0.48,-0.54 0.821,-1.2 0.341,-0.66 0.531,-1.2 0.421,-1.2 -0.11,0 -0.48,0.54 -0.821,1.2 m -208.209,0.388 c 0.466,0.653 1.051,1.314 1.3,1.468 0.25,0.155 -0.05,-0.38 -0.666,-1.188 -1.337,-1.753 -1.841,-1.976 -0.634,-0.28 M 274.4,179.2 c 1.368,0.438 2.419,0.438 1.4,0 -0.44,-0.189 -1.16,-0.338 -1.6,-0.332 -0.643,0.009 -0.604,0.075 0.2,0.332 m 3.4,0.8 c 0.44,0.189 1.07,0.344 1.4,0.344 0.378,0 0.304,-0.127 -0.2,-0.344 -0.44,-0.189 -1.07,-0.344 -1.4,-0.344 -0.378,0 -0.304,0.127 0.2,0.344 m 3.2,0.8 c 0.44,0.189 1.07,0.344 1.4,0.344 0.378,0 0.304,-0.127 -0.2,-0.344 -0.44,-0.189 -1.07,-0.344 -1.4,-0.344 -0.378,0 -0.304,0.127 0.2,0.344 m 3.2,0.8 c 0.44,0.189 1.07,0.344 1.4,0.344 0.378,0 0.304,-0.127 -0.2,-0.344 -0.44,-0.189 -1.07,-0.344 -1.4,-0.344 -0.378,0 -0.304,0.127 0.2,0.344 m -179.225,1.732 c 0.616,0.807 1.201,1.468 1.3,1.468 0.278,0 -1.454,-2.34 -1.966,-2.656 -0.25,-0.155 0.05,0.38 0.666,1.188 M 287.4,182.4 c 0.44,0.189 1.07,0.344 1.4,0.344 0.378,0 0.304,-0.127 -0.2,-0.344 -0.44,-0.189 -1.07,-0.344 -1.4,-0.344 -0.378,0 -0.304,0.127 0.2,0.344 M 138,183.2 c -0.533,0.345 -0.533,0.388 0,0.388 0.33,0 0.87,-0.175 1.2,-0.388 0.533,-0.345 0.533,-0.388 0,-0.388 -0.33,0 -0.87,0.175 -1.2,0.388 m 152.6,0 c 0.44,0.189 1.07,0.344 1.4,0.344 0.378,0 0.304,-0.127 -0.2,-0.344 -0.44,-0.189 -1.07,-0.344 -1.4,-0.344 -0.378,0 -0.304,0.127 0.2,0.344 m 17.153,1.3 c -1.377,2.336 -1.467,2.535 -0.766,1.7 0.813,-0.968 1.513,-2.2 1.251,-2.2 -0.105,0 -0.323,0.225 -0.485,0.5 M 106.8,185.421 c 0,0.913 4.591,6.175 5.355,6.139 0.829,-0.039 0.829,-0.045 -0.036,-0.3 -0.484,-0.143 -1.879,-1.58 -3.1,-3.194 -1.22,-1.614 -2.219,-2.804 -2.219,-2.645 m 193.6,0.161 c 0.33,0.223 0.945,0.409 1.367,0.412 1.023,0.008 0.704,-0.221 -0.767,-0.55 -0.876,-0.196 -1.038,-0.159 -0.6,0.138 m 3.2,0.8 c 0.33,0.223 0.945,0.409 1.367,0.412 1.023,0.008 0.704,-0.221 -0.767,-0.55 -0.876,-0.196 -1.038,-0.159 -0.6,0.138 M 120,188.8 c -0.824,0.264 -0.859,0.326 -0.2,0.354 0.44,0.019 1.07,-0.141 1.4,-0.354 0.701,-0.453 0.214,-0.453 -1.2,0 m -5.544,1.659 c -0.739,0.213 -1.269,0.461 -1.177,0.553 0.202,0.202 3.121,-0.575 3.121,-0.831 0,-0.235 -0.318,-0.19 -1.944,0.278 m -37.081,19.409 c -0.616,0.808 -0.916,1.343 -0.666,1.188 0.512,-0.316 2.244,-2.656 1.966,-2.656 -0.099,0 -0.684,0.661 -1.3,1.468 m 56.72,12.065 c -0.395,0.251 -0.482,3.74 -0.4,16.094 l 0.105,15.773 35.9,0.102 c 19.745,0.056 35.9,-0.034 35.9,-0.2 0,-0.166 -16.065,-0.302 -35.7,-0.302 h -35.7 v -15.6 -15.6 h 35.662 c 19.614,0 35.578,-0.135 35.476,-0.3 -0.25,-0.405 -70.604,-0.373 -71.243,0.033 m 77.767,-0.033 c -0.168,0.271 44.538,0.27 107.738,-0.003 13.09,-0.057 -5.754,-0.147 -41.876,-0.2 -36.122,-0.053 -65.76,0.038 -65.862,0.203 m 131.735,15.7 -0.197,15.8 h -65.9 c -36.245,0 -65.9,0.135 -65.9,0.3 0,0.165 29.697,0.3 65.992,0.3 h 65.993 l 0.219,-0.9 c 0.12,-0.495 0.167,-7.74 0.105,-16.1 l -0.114,-15.2 -0.198,15.8 M 99.8,226.4 c 0.341,0.66 0.711,1.2 0.821,1.2 0.11,0 -0.08,-0.54 -0.421,-1.2 -0.341,-0.66 -0.711,-1.2 -0.821,-1.2 -0.11,0 0.08,0.54 0.421,1.2 m -31.277,12.315 c -0.262,0.167 0.22,0.303 1.077,0.303 0.857,0 1.339,-0.136 1.077,-0.303 -0.263,-0.166 -0.747,-0.303 -1.077,-0.303 -0.33,0 -0.814,0.137 -1.077,0.303 M 60.493,242 c 0,0.77 0.082,1.085 0.183,0.7 0.1,-0.385 0.1,-1.015 0,-1.4 -0.101,-0.385 -0.183,-0.07 -0.183,0.7 m 11.107,9.8 c 0.746,0.77 1.447,1.4 1.557,1.4 0.11,0 -0.411,-0.63 -1.157,-1.4 -0.746,-0.77 -1.447,-1.4 -1.557,-1.4 -0.11,0 0.411,0.63 1.157,1.4 m 11.346,-0.171 c 1.963,1.544 1.335,3.997 -1.22,4.764 -0.898,0.27 -0.955,0.345 -0.28,0.373 1.431,0.058 2.954,-1.45 2.954,-2.925 0,-1.217 -1.307,-3.041 -2.18,-3.041 -0.18,0 0.146,0.373 0.726,0.829 M 67.183,257.7 c 0.981,1.045 1.836,1.9 1.9,1.9 0.301,0 -0.017,-0.359 -1.783,-2.017 l -1.9,-1.783 1.783,1.9 m 31.995,-0.2 -1.378,1.5 1.5,-1.378 c 1.396,-1.284 1.684,-1.622 1.378,-1.622 -0.066,0 -0.741,0.675 -1.5,1.5 M 81.3,264.294 c 1.045,0.082 2.755,0.082 3.8,0 1.045,-0.082 0.19,-0.15 -1.9,-0.15 -2.09,0 -2.945,0.068 -1.9,0.15 m 213.18,22.586 c -0.543,0.543 -0.718,31.326 -0.18,31.658 0.165,0.102 0.3,-6.952 0.3,-15.676 V 287 l 23.6,-0.111 c 12.98,-0.06 24.009,-0.011 24.509,0.11 l 0.909,0.221 -0.109,15.752 c -0.06,8.664 0.026,15.668 0.191,15.566 0.792,-0.489 0.332,-31.293 -0.474,-31.724 -1.179,-0.631 -48.113,-0.567 -48.746,0.066 m -160.08,0.219 c 0,0.166 34.56,0.255 76.8,0.199 l 76.8,-0.102 v 15.569 c 0,12.08 -0.112,15.614 -0.5,15.77 -0.297,0.12 -0.214,0.215 0.205,0.233 0.663,0.03 0.698,-0.903 0.6,-15.868 L 288.2,287 211.3,286.899 c -42.295,-0.056 -76.9,0.034 -76.9,0.2 M 76.8,291 c 0.746,0.77 1.447,1.4 1.557,1.4 0.11,0 -0.411,-0.63 -1.157,-1.4 -0.746,-0.77 -1.447,-1.4 -1.557,-1.4 -0.11,0 0.411,0.63 1.157,1.4 m 8.399,5.202 c -0.275,0.33 -1.062,0.764 -1.749,0.964 -0.959,0.278 -1.046,0.37 -0.372,0.398 0.482,0.02 1.382,-0.408 2,-0.951 0.617,-0.543 1.009,-0.993 0.871,-1 -0.138,-0.007 -0.476,0.258 -0.75,0.589 m 24.529,6.598 c 0,1.43 0.073,2.015 0.161,1.3 0.089,-0.715 0.089,-1.885 0,-2.6 -0.088,-0.715 -0.161,-0.13 -0.161,1.3 M 67.6,324.525 c 0,0.069 0.585,0.654 1.3,1.3 L 70.2,327 69.025,325.7 C 67.93,324.488 67.6,324.216 67.6,324.525 m 45,23.475 -0.8,0.344 0.8,-0.019 c 0.44,-0.011 1.34,-0.157 2,-0.325 l 1.2,-0.305 -1.2,-0.02 c -0.66,-0.01 -1.56,0.136 -2,0.325 m 10.233,-0.253 c 0.092,0.081 0.887,0.257 1.767,0.391 1.115,0.169 1.358,0.133 0.8,-0.119 -0.768,-0.348 -2.91,-0.575 -2.567,-0.272 m -20.755,4.664 c -2.544,1.699 -6.185,5.402 -7.401,7.526 -1.126,1.969 -0.502,1.484 0.898,-0.698 1.532,-2.387 4.448,-5.169 7.186,-6.853 1.812,-1.115 2.372,-1.586 1.885,-1.586 -0.085,0 -1.241,0.725 -2.568,1.611 m 138.231,16.207 0.109,15.778 -35.109,0.105 -35.109,0.106 35.2,-0.004 35.2,-0.003 0.105,-15.575 c 0.057,-8.567 -0.033,-15.713 -0.2,-15.881 -0.168,-0.167 -0.256,6.796 -0.196,15.474 m 6.358,-15.551 c -0.536,0.535 -0.308,31.343 0.233,31.544 0.844,0.314 69.855,0.409 69.362,0.095 -0.254,-0.162 -15.991,-0.297 -34.971,-0.3 l -34.509,-0.006 0.109,-15.8 c 0.06,-8.69 0.094,-15.8 0.076,-15.8 -0.019,0 -0.154,0.12 -0.3,0.267 m 96.523,-0.004 c 0.269,0.134 0.41,5.529 0.41,15.739 v 15.536 l -5.39,0.131 c -5.133,0.125 -5.433,0.178 -6.3,1.116 l -0.91,0.985 0.941,-0.785 c 0.802,-0.669 1.744,-0.814 6.4,-0.985 l 5.459,-0.2 v -15.767 c 0,-12.457 -0.107,-15.788 -0.51,-15.87 -0.28,-0.056 -0.325,-0.011 -0.1,0.1 M 169.782,368.8 c 0,8.47 0.053,11.935 0.117,7.7 0.065,-4.235 0.065,-11.165 0,-15.4 -0.064,-4.235 -0.117,-0.77 -0.117,7.7 m -29.378,-12.3 c 2.145,2.457 2.596,2.937 2.363,2.519 -0.542,-0.975 -2.925,-3.819 -3.2,-3.819 -0.164,0 0.212,0.585 0.837,1.3 m -76.142,-0.2 c -0.102,0.165 0.86,0.3 2.138,0.3 1.278,0 2.24,-0.135 2.138,-0.3 -0.102,-0.165 -1.064,-0.3 -2.138,-0.3 -1.074,0 -2.036,0.135 -2.138,0.3 m 15.699,8.083 c 5.282,0.199 5.786,0.283 6.071,1.017 0.215,0.552 0.32,0.608 0.34,0.18 0.063,-1.383 -0.806,-1.582 -6.552,-1.497 l -5.62,0.083 5.761,0.217 m 12.288,1.432 c -0.137,0.358 -0.223,1.491 -0.19,2.518 0.057,1.827 0.064,1.816 0.331,-0.533 0.29,-2.563 0.258,-3.023 -0.141,-1.985 M 146,370.8 c 0,2.053 0.098,3.636 0.217,3.516 0.289,-0.289 0.296,-6.737 0.008,-7.025 -0.124,-0.123 -0.225,1.456 -0.225,3.509 m -60.269,-0.2 c 0.002,1.54 0.074,2.121 0.161,1.291 0.087,-0.83 0.085,-2.09 -0.003,-2.8 -0.089,-0.71 -0.16,-0.031 -0.158,1.509 m 6.389,2.6 c 0,1.21 0.075,1.705 0.167,1.1 0.091,-0.605 0.091,-1.595 0,-2.2 -0.092,-0.605 -0.167,-0.11 -0.167,1.1 m -15.02,3.897 c 1.595,0.076 4.205,0.076 5.8,0 1.595,-0.076 0.29,-0.138 -2.9,-0.138 -3.19,0 -4.495,0.062 -2.9,0.138 m 16.511,2.103 c 0.004,0.33 0.378,1.05 0.833,1.6 0.454,0.55 0.709,0.774 0.566,0.499 -1.191,-2.305 -1.404,-2.625 -1.399,-2.099 M 98,385.4 c 1.195,1.21 2.263,2.2 2.373,2.2 0.11,0 -0.778,-0.99 -1.973,-2.2 -1.195,-1.21 -2.263,-2.2 -2.373,-2.2 -0.11,0 0.778,0.99 1.973,2.2 m 4.086,3.6 c 0.809,0.55 1.613,1 1.786,1 0.172,0 -0.349,-0.45 -1.158,-1 -0.809,-0.55 -1.613,-1 -1.786,-1 -0.172,0 0.349,0.45 1.158,1 m 4.15,2.176 c 0.457,0.434 4.216,1.705 4.424,1.497 0.085,-0.085 -0.958,-0.534 -2.317,-0.998 -1.36,-0.464 -2.308,-0.688 -2.107,-0.499 m 5.964,2.024 c 1.692,0.431 3.144,0.431 1.8,0 -0.55,-0.176 -1.45,-0.317 -2,-0.313 -0.898,0.007 -0.878,0.039 0.2,0.313 m 5.112,0.695 c 1.052,0.082 2.672,0.081 3.6,-0.003 0.928,-0.084 0.068,-0.151 -1.912,-0.15 -1.98,10e-4 -2.74,0.07 -1.688,0.153"
       stroke="none"
       fill="#3c6464"
       fill-rule="evenodd" />
  </g>
</svg>
