<?xml version="1.0" encoding="UTF-8" standalone="no"?>
<!-- Created with Inkscape (http://www.inkscape.org/) -->

<svg
   width="100"
   height="100"
   viewBox="0 0 100 100"
   version="1.1"
   id="svg1"
   xml:space="preserve"
   xmlns="http://www.w3.org/2000/svg"
   xmlns:svg="http://www.w3.org/2000/svg"><defs
     id="defs1" /><g
     id="layer1"><g
       id="g1"
       transform="scale(0.1953125)"><path
         d="M 0,0 H 512 V 512 H 0 Z"
         id="path1" /><path
         fill="#ffffff"
         d="m 296.3,51.46 -14.8,7.37 3.5,36.79 c 5.1,-0.62 10.2,-1.39 15.3,-2.3 z M 364,92.68 c -32.8,15.02 -70.8,22.02 -104.7,22.92 -19.7,0.6 -38,-0.9 -53.3,-4.3 -9.4,-2.1 -17.6,-4.8 -24.5,-8.7 -19.7,55.7 -24.8,118 -26.7,176.4 6.4,-0.9 12.9,-1.6 19.4,-2.3 L 189,212 l 13.1,45.4 15.4,-12.8 6.5,29.2 c 50.3,-1 101.2,3.1 149.3,7.7 -6.2,-38.1 -11,-84.1 -11.7,-127.4 L 325.5,137 c 0,0 20.6,-5.2 36.3,-8.9 0.3,-12.2 1,-24.2 2.2,-35.42 m -60,201.02 5.7,59.1 c 3.9,2.5 7.4,5.6 10.3,9.2 1.7,-2.1 3.5,-4 5.6,-5.7 l -5.9,-61.5 c -5.2,-0.4 -10.4,-0.7 -15.7,-1.1 M 96,364.5 c -12.81,0 -23,10.2 -23,23 0,12.8 10.19,23 23,23 12.8,0 23,-10.2 23,-23 0,-12.8 -10.2,-23 -23,-23 m 64,0 c -12.8,0 -23,10.2 -23,23 0,12.8 10.2,23 23,23 12.8,0 23,-10.2 23,-23 0,-12.8 -10.2,-23 -23,-23 m 64,0 c -12.8,0 -23,10.2 -23,23 0,12.8 10.2,23 23,23 12.8,0 23,-10.2 23,-23 0,-12.8 -10.2,-23 -23,-23 m 64,0 c -12.8,0 -23,10.2 -23,23 0,12.8 10.2,23 23,23 12.8,0 23,-10.2 23,-23 0,-12.8 -10.2,-23 -23,-23 m 64,0 c -12.8,0 -23,10.2 -23,23 0,12.8 10.2,23 23,23 12.8,0 23,-10.2 23,-23 0,-12.8 -10.2,-23 -23,-23 m 64,0 c -12.8,0 -23,10.2 -23,23 0,12.8 10.2,23 23,23 12.8,0 23,-10.2 23,-23 0,-12.8 -10.2,-23 -23,-23 m -352,62 c -13.18,0 -29.27,4.3 -42.85,8.4 -1.08,0.3 -2.11,0.7 -3.15,1 v 18.8 c 2.59,-0.8 5.39,-1.7 8.36,-2.6 12.92,-3.9 28.83,-7.6 37.64,-7.6 8.81,0 18.29,3.4 28.8,7.4 10.5,4 22,8.6 35.2,8.6 13.2,0 24.7,-4.6 35.2,-8.6 10.5,-4 20,-7.4 28.8,-7.4 8.8,0 18.3,3.4 28.8,7.4 10.5,4 22,8.6 35.2,8.6 13.2,0 24.7,-4.6 35.2,-8.6 10.5,-4 20,-7.4 28.8,-7.4 8.8,0 18.3,3.4 28.8,7.4 10.5,4 22,8.6 35.2,8.6 13.2,0 24.7,-4.6 35.2,-8.6 10.5,-4 20,-7.4 28.8,-7.4 8.8,0 24.7,3.7 37.6,7.6 3,0.9 5.8,1.8 8.4,2.6 v -18.8 c -1.1,-0.3 -2.1,-0.7 -3.2,-1 -13.5,-4.1 -29.6,-8.4 -42.8,-8.4 -13.2,0 -24.7,4.6 -35.2,8.6 -10.5,4 -20,7.4 -28.8,7.4 -8.8,0 -18.3,-3.4 -28.8,-7.4 -10.5,-4 -22,-8.6 -35.2,-8.6 -13.2,0 -24.7,4.6 -35.2,8.6 -10.5,4 -20,7.4 -28.8,7.4 -8.8,0 -18.3,-3.4 -28.8,-7.4 -10.5,-4 -22,-8.6 -35.2,-8.6 -13.2,0 -24.7,4.6 -35.2,8.6 -10.5,4 -20,7.4 -28.8,7.4 -8.8,0 -18.3,-3.4 -28.8,-7.4 -10.5,-4 -22.02,-8.6 -35.2,-8.6"
         id="path2" /></g></g></svg>
